<svg width="1440" height="818" viewBox="0 0 1440 818" fill="none" xmlns="http://www.w3.org/2000/svg">
<rect opacity="0.25" x="575" y="30.0366" width="20.0245" height="20" transform="rotate(90 575 30.0366)" fill="white"/>
<rect opacity="0.25" x="1138" y="721.883" width="20.0245" height="20" transform="rotate(90 1138 721.883)" fill="white"/>
<rect opacity="0.25" x="1074" y="230.282" width="20.0245" height="19" transform="rotate(90 1074 230.282)" fill="white"/>
<rect opacity="0.25" x="694" y="470.575" width="40.049" height="39" transform="rotate(90 694 470.575)" fill="white"/>
<rect opacity="0.25" x="970" y="87.1064" width="39.0477" height="40" transform="rotate(90 970 87.1064)" fill="white"/>
<rect opacity="0.25" x="406" y="139.17" width="21.0257" height="21" transform="rotate(90 406 139.17)" fill="white"/>
<rect opacity="0.25" x="674.108" y="193.551" width="20.0691" height="20.0446" transform="rotate(-90 674.108 193.551)" fill="white"/>
<rect opacity="0.25" x="674.108" y="213.62" width="20.0691" height="20.0446" transform="rotate(-90 674.108 213.62)" fill="white"/>
<rect opacity="0.25" x="654.063" y="213.62" width="20.0691" height="20.0446" transform="rotate(-90 654.063 213.62)" fill="white"/>
<rect opacity="0.25" x="1217.04" y="80.1426" width="20.0446" height="20.0691" transform="rotate(-180 1217.04 80.1426)" fill="white"/>
<rect opacity="0.25" x="1237.09" y="80.1426" width="20.0446" height="20.0691" transform="rotate(-180 1237.09 80.1426)" fill="white"/>
<rect opacity="0.25" x="1237.09" y="100.212" width="20.0446" height="20.0691" transform="rotate(-180 1237.09 100.212)" fill="white"/>
<rect opacity="0.25" x="150.045" y="429.57" width="20.0446" height="20.0691" transform="rotate(-180 150.045 429.57)" fill="white"/>
<rect opacity="0.25" x="170.089" y="429.57" width="20.0446" height="20.0691" transform="rotate(-180 170.089 429.57)" fill="white"/>
<rect opacity="0.25" x="170.089" y="449.64" width="20.0446" height="20.0691" transform="rotate(-180 170.089 449.64)" fill="white"/>
<rect opacity="0.25" x="1332.04" y="370.497" width="20.0691" height="20.0446" transform="rotate(90 1332.04 370.497)" fill="white"/>
<rect opacity="0.25" x="1332.04" y="350.429" width="20.0691" height="20.0446" transform="rotate(90 1332.04 350.429)" fill="white"/>
<rect opacity="0.25" x="1352.09" y="350.429" width="20.0691" height="20.0446" transform="rotate(90 1352.09 350.429)" fill="white"/>
<rect opacity="0.25" width="20.0691" height="20.0446" transform="matrix(-4.3658e-08 -1 -1 4.37649e-08 1260.04 591.77)" fill="white"/>
<rect opacity="0.25" width="20.0691" height="20.0446" transform="matrix(-4.3658e-08 -1 -1 4.37649e-08 1260.04 611.838)" fill="white"/>
<rect opacity="0.25" width="20.0691" height="20.0446" transform="matrix(-4.3658e-08 -1 -1 4.37649e-08 1280.09 611.838)" fill="white"/>
<g opacity="0.25">
<rect x="485.045" y="330.494" width="40.1383" height="20.0446" transform="rotate(-90 485.045 330.494)" fill="white"/>
<rect x="465" y="350.563" width="40.1383" height="20.0446" transform="rotate(-90 465 350.563)" fill="white"/>
</g>
<g opacity="0.25">
<rect x="350.089" y="722.928" width="40.0892" height="20.0691" transform="rotate(-180 350.089 722.928)" fill="white"/>
<rect x="370.135" y="742.997" width="40.0892" height="20.0691" transform="rotate(-180 370.135 742.997)" fill="white"/>
</g>
<g opacity="0.25">
<rect x="1115.04" y="426.566" width="40.0892" height="20.0691" fill="white"/>
<rect x="1095" y="406.497" width="40.0892" height="20.0691" fill="white"/>
</g>
<g opacity="0.25">
<rect x="854.045" y="571.744" width="40.0892" height="20.0691" fill="white"/>
<rect x="834" y="551.675" width="40.0892" height="20.0691" fill="white"/>
</g>
<g opacity="0.25">
<rect x="885.089" y="340.505" width="20.0691" height="20.0446" transform="rotate(-90 885.089 340.505)" fill="white"/>
<rect x="865.045" y="340.505" width="20.0691" height="20.0446" transform="rotate(-90 865.045 340.505)" fill="white"/>
<rect x="865.045" y="320.437" width="20.0691" height="20.0446" transform="rotate(-90 865.045 320.437)" fill="white"/>
<rect x="845" y="340.505" width="20.0691" height="20.0446" transform="rotate(-90 845 340.505)" fill="white"/>
</g>
<g opacity="0.25">
<rect x="150.089" y="120.192" width="20.0446" height="20.0691" transform="rotate(-180 150.089 120.192)" fill="white"/>
<rect x="150.089" y="140.26" width="20.0446" height="20.0691" transform="rotate(-180 150.089 140.26)" fill="white"/>
<rect x="130.045" y="140.26" width="20.0446" height="20.0691" transform="rotate(-180 130.045 140.26)" fill="white"/>
<rect x="150.089" y="160.33" width="20.0446" height="20.0691" transform="rotate(-180 150.089 160.33)" fill="white"/>
</g>
</svg>
