<svg xmlns="http://www.w3.org/2000/svg" viewBox="0 0 123.01 123.01"><defs><style>.cls-1{fill:#fff;}.cls-1,.cls-2,.cls-3{stroke:#000;}.cls-1,.cls-2{stroke-linecap:round;stroke-linejoin:round;stroke-width:4.02px;}.cls-2{fill:none;}.cls-3{fill:#00aabd;stroke-miterlimit:10;stroke-width:3px;}</style></defs><title>Ресурс 9</title><g id="Слой_2" data-name="Слой 2"><g id="Слой_7" data-name="Слой 7"><path class="cls-1" d="M102.27,107.51h-95A5.24,5.24,0,0,1,2,102.27v-95A5.23,5.23,0,0,1,7.25,2H85.63a5.25,5.25,0,0,1,3.71,1.53L106,20.18a5.24,5.24,0,0,1,1.54,3.7v78.39A5.25,5.25,0,0,1,102.27,107.51Z"/><line class="cls-2" x1="2.72" y1="88.25" x2="106.8" y2="88.25"/><path d="M123,39.38v78.39a5.25,5.25,0,0,1-5.24,5.24h-95a5.25,5.25,0,0,1-5.24-5.24V107.54l89.1-.37V19l14.86,16.7A5.24,5.24,0,0,1,123,39.38Z"/><path class="cls-3" d="M64.58,59.39H59.25V28.14a2.63,2.63,0,0,0-2.63-2.63H51.43a2.63,2.63,0,0,0-1.13.26l-9.6,4.57a2.65,2.65,0,0,0-1.5,2.38v5a2.6,2.6,0,0,0,1.23,2.22,2.67,2.67,0,0,0,2.54.15l5.88-2.84V59.39H43.42A2.63,2.63,0,0,0,40.79,62v4.33A2.63,2.63,0,0,0,43.42,69H64.58a2.63,2.63,0,0,0,2.63-2.63V62A2.63,2.63,0,0,0,64.58,59.39Z"/></g></g></svg>