<svg xmlns="http://www.w3.org/2000/svg" viewBox="0 0 123.01 121.91"><defs><style>.cls-1{fill:#fff;}.cls-1,.cls-2,.cls-3{stroke:#000;}.cls-1,.cls-2{stroke-linecap:round;stroke-linejoin:round;stroke-width:4.02px;}.cls-2{fill:none;}.cls-3{fill:#00aabd;stroke-miterlimit:10;stroke-width:3px;}</style></defs><title>Ресурс 10</title><g id="Слой_2" data-name="Слой 2"><g id="Слой_7" data-name="Слой 7"><path class="cls-1" d="M101.36,106.55H7.2A5.19,5.19,0,0,1,2,101.36V7.2A5.19,5.19,0,0,1,7.2,2H84.88a5.23,5.23,0,0,1,3.67,1.52L105,20a5.23,5.23,0,0,1,1.52,3.67v77.68A5.19,5.19,0,0,1,101.36,106.55Z"/><line class="cls-2" x1="2.71" y1="87.47" x2="105.85" y2="87.47"/><path d="M123,39v77.68a5.19,5.19,0,0,1-5.19,5.19H23.66a5.19,5.19,0,0,1-5.19-5.19V106.58l88.29-.36V18.82l14.72,16.55A5.19,5.19,0,0,1,123,39Z"/><path class="cls-3" d="M64.87,58.84H53.48c1.7-1.79,3.05-3.24,4.11-4.38,1.84-2,3.26-3.56,4.19-4.65a25.87,25.87,0,0,0,4.07-6,14.2,14.2,0,0,0,1.37-6,12.37,12.37,0,0,0-4.29-9.74,15.72,15.72,0,0,0-10.68-3.6,23.35,23.35,0,0,0-5.63.71A30.13,30.13,0,0,0,41,27.26a2.62,2.62,0,0,0-1.49,2.35V34.8a2.62,2.62,0,0,0,1.32,2.27,2.68,2.68,0,0,0,2.63,0,24.86,24.86,0,0,1,4.87-2.31,12.94,12.94,0,0,1,4-.71,4.57,4.57,0,0,1,3.32,1.08,4.12,4.12,0,0,1,1.08,3.11,6.72,6.72,0,0,1-.65,2.84A23.29,23.29,0,0,1,53,45.51c-.87,1-2.48,2.79-4.82,5.31s-5.09,5.46-8.3,8.83a2.6,2.6,0,0,0-.71,1.8v4.32a2.61,2.61,0,0,0,2.6,2.61H64.87a2.61,2.61,0,0,0,2.61-2.61V61.45A2.61,2.61,0,0,0,64.87,58.84Z"/></g></g></svg>