<svg xmlns="http://www.w3.org/2000/svg" viewBox="0 0 123.56 123.01"><defs><style>.cls-1{fill:#fff;}.cls-1,.cls-2,.cls-3{stroke:#000;}.cls-1,.cls-2{stroke-linecap:round;stroke-linejoin:round;stroke-width:4.02px;}.cls-2{fill:none;}.cls-3{fill:#00aabd;stroke-miterlimit:10;stroke-width:3px;}</style></defs><title>Ресурс 11</title><g id="Слой_2" data-name="Слой 2"><g id="Слой_7" data-name="Слой 7"><path class="cls-1" d="M102.27,107.51h-95A5.24,5.24,0,0,1,2,102.27v-95A5.23,5.23,0,0,1,7.25,2H85.63a5.25,5.25,0,0,1,3.71,1.53L106,20.18a5.24,5.24,0,0,1,1.54,3.7v78.39A5.25,5.25,0,0,1,102.27,107.51Z"/><path d="M123.56,39.38v78.39a5.25,5.25,0,0,1-5.24,5.24h-95a5.25,5.25,0,0,1-5.24-5.24V107.54l89.11-.37V19L122,35.68A5.2,5.2,0,0,1,123.56,39.38Z"/><line class="cls-2" x1="2.72" y1="88.25" x2="106.8" y2="88.25"/><path class="cls-3" d="M67.79,48.32a11.36,11.36,0,0,0-2-2,10.71,10.71,0,0,0,1.26-1.26,10.55,10.55,0,0,0,2.37-7,11.81,11.81,0,0,0-4.29-9.48c-2.71-2.27-6.29-3.42-10.64-3.42a29.51,29.51,0,0,0-4.74.44C48.1,26,46.16,26.41,44,27a2.63,2.63,0,0,0-2,2.54V34.3a2.64,2.64,0,0,0,3.58,2.45,30.67,30.67,0,0,1,4.71-1.42,19.81,19.81,0,0,1,4.18-.46,5.52,5.52,0,0,1,3.6,1,3,3,0,0,1,.93,2.52,2.61,2.61,0,0,1-1,2.3,6.42,6.42,0,0,1-4,1h-4a2.63,2.63,0,0,0-2.63,2.63v4.26a2.63,2.63,0,0,0,2.63,2.63h4a6.58,6.58,0,0,1,4.47,1.33A4,4,0,0,1,60,55.81a4.33,4.33,0,0,1-1.35,3.54,7.46,7.46,0,0,1-4.85,1.31,17.6,17.6,0,0,1-4.39-.58,23.14,23.14,0,0,1-4.62-1.82,2.62,2.62,0,0,0-3.84,2.33v5.16a2.62,2.62,0,0,0,1.76,2.48,35.63,35.63,0,0,0,5.8,1.52,33.75,33.75,0,0,0,5.85.53c4.82,0,8.7-1.22,11.55-3.64a12.87,12.87,0,0,0,4.49-10.31A12.6,12.6,0,0,0,67.79,48.32Z"/></g></g></svg>