<svg width="66" height="40" viewBox="0 0 66 40" id="flatcar-logo" xmlns="http://www.w3.org/2000/svg">
<path d="M37.6719 5.82031H35.7598V7.72849H37.6719V5.82031Z" />
<path d="M32.9282 22.0444H29.1025V23.9526H32.9282V22.0444Z" />
<path d="M50.1431 22.0444H46.3174V23.9526H50.1431V22.0444Z" />
<path d="M63.1158 34.356V22.904H61.2096V34.356H59.3033V15.2698H55.4659V0H9.56936V15.2698H5.7378V34.356H3.83155V22.904H1.90625V34.356H0V38.0977H3.82569V40H9.56349V38.0977H11.4697V40H17.2075V38.0977H47.8101V40H53.5479V38.0977H55.4542V40H61.192V38.0977H65.0177V34.356H63.1158ZM43.0005 1.94622H52.564V5.76404H49.7325V13.3997H45.9083V5.76404H43.0005V1.94622ZM12.3979 9.58185V1.94622H20.0493V4.7719H16.2236V6.67423H20.0493V9.58185H16.2236V13.3997H12.3979V9.58185ZM21.0494 21.9879V23.8902H15.3057V27.7081H21.0435V33.4341H9.56789V18.1701H21.0435L21.0494 21.9879ZM21.9673 13.3997V1.94622H25.793V9.58185H29.6201V13.3997H21.9614H21.9673ZM38.2569 21.9879V33.4399H32.5191V27.7139H28.6934V33.4399H22.9556V20.0798H24.8619V18.1774H36.3375V20.0798H38.2437L38.2569 21.9879ZM37.2627 13.3997V9.58185H35.3565V13.3997H31.5264V3.85586H33.4326V1.95354H39.1704V3.85586H41.0767V13.3997H37.2627ZM55.4703 21.9879V27.7139H53.5641V29.6162H55.4703V33.4341H49.7325V29.6221H47.8263V27.7198H45.92V33.4458H40.1778V18.1701H55.4703V21.9879Z" />
</svg>
