<svg id="lokomotive-logo" width="942" height="354" viewBox="0 0 942 354" xmlns="http://www.w3.org/2000/svg">
<rect x="587" y="204" width="50" height="150" />
<rect x="665" y="204" width="50" height="100" />
<rect x="765" y="204" width="50" height="100" />
<rect x="715" y="304" width="50" height="50" />
<path d="M305 150V0H355V100H405V150H305Z" />
<path fill-rule="evenodd" clip-rule="evenodd" d="M433 0H585V150H433V0ZM483 100V50H535V100H483Z" />
<path fill-rule="evenodd" clip-rule="evenodd" d="M790 0H942V150H790V0ZM840 100V50H892V100H840Z" />
<path fill-rule="evenodd" clip-rule="evenodd" d="M232 204H384V354H232V204ZM282 304V254H334V304H282Z" />
<path d="M611 150V0H661V50H713V49V0H763V50H713V99.5V100H763V150H713V100H661V150H611Z" />
<path d="M1 354H51V254H77V305H127V254H153V354H203V204H1V354Z" />
<path d="M410 254H460V354H510V254H560V204H410V254Z" />
<path d="M942 354H843V204H942V254H893V267H919V292H893V304H942V354Z" />
<path d="M215.269 142.157L214.291 150H0L17.6129 60.7843H36.2043L42.5645 37.2549C50.3925 8.2353 73.8763 0 88.0645 0H264.194L262.237 7.84314H202.548L198.634 21.5686H273L271.043 31.3726H231.903L228.968 44.1176H244.624L243.645 49.0196H102.253C92.4555 49.0196 87.086 57.5163 86.1075 61.7647L76.5108 100.98H234.839L232.721 108.824H188.361L185.608 121.569H253.431L251.474 132.353H122.312L118.398 142.157H215.269Z" fill="white"/>
</svg>
