<svg width="320" height="752" viewBox="0 0 320 752" fill="none" xmlns="http://www.w3.org/2000/svg">
<g opacity="0.25">
<rect x="290.089" y="360.045" width="20.0446" height="20.0446" transform="rotate(-180 290.089 360.045)" fill="white"/>
<rect x="290.089" y="380.089" width="20.0446" height="20.0446" transform="rotate(-180 290.089 380.089)" fill="white"/>
<rect x="270.045" y="380.089" width="20.0446" height="20.0446" transform="rotate(-180 270.045 380.089)" fill="white"/>
<rect x="290.089" y="400.134" width="20.0446" height="20.0446" transform="rotate(-180 290.089 400.134)" fill="white"/>
</g>
<g opacity="0.25">
<rect x="276.089" y="611.089" width="20.0446" height="20.0446" transform="rotate(-90 276.089 611.089)" fill="white"/>
<rect x="256.045" y="611.089" width="20.0446" height="20.0446" transform="rotate(-90 256.045 611.089)" fill="white"/>
<rect x="256.045" y="591.045" width="20.0446" height="20.0446" transform="rotate(-90 256.045 591.045)" fill="white"/>
<rect x="236" y="611.089" width="20.0446" height="20.0446" transform="rotate(-90 236 611.089)" fill="white"/>
</g>
<rect opacity="0.25" width="20.0446" height="20.0446" transform="matrix(1 -8.74228e-08 -8.74228e-08 -1 51.0439 311.045)" fill="white"/>
<rect opacity="0.25" width="20.0446" height="20.0446" transform="matrix(1 -8.74228e-08 -8.74228e-08 -1 31 311.045)" fill="white"/>
<rect opacity="0.25" width="20.0446" height="20.0446" transform="matrix(1 -8.74228e-08 -8.74228e-08 -1 31 331.09)" fill="white"/>
<g opacity="0.25">
<rect x="110.089" y="420.045" width="40.0892" height="20.0446" transform="rotate(-180 110.089 420.045)" fill="white"/>
<rect x="130.134" y="440.09" width="40.0892" height="20.0446" transform="rotate(-180 130.134 440.09)" fill="white"/>
</g>
<g opacity="0.25">
<rect width="40.0892" height="20.0446" transform="matrix(1 -1.43059e-07 -1.43059e-07 -1 25.0449 616.045)" fill="white"/>
<rect width="40.0892" height="20.0446" transform="matrix(1 -1.43059e-07 -1.43059e-07 -1 5 636.09)" fill="white"/>
</g>
</svg>
