<svg width="16" height="36" viewBox="0 0 16 36" fill="none" xmlns="http://www.w3.org/2000/svg">
<path d="M4.96 29.24C4.96 28.5467 4.97333 27.9333 5 27.4C5.05333 26.8667 5.10667 26.36 5.16 25.88C5.21333 25.4 5.25333 24.92 5.28 24.44C5.33333 23.9333 5.36 23.3733 5.36 22.76C5.36 22.4133 5.26667 22.08 5.08 21.76C4.92 21.4133 4.64 21.1067 4.24 20.84C3.84 20.5733 3.29333 20.36 2.6 20.2C1.90667 20.0133 1.04 19.9067 5.96046e-08 19.88V15.88C1.04 15.8533 1.90667 15.76 2.6 15.6C3.29333 15.4133 3.84 15.1867 4.24 14.92C4.64 14.6533 4.92 14.36 5.08 14.04C5.26667 13.6933 5.36 13.3467 5.36 13C5.36 12.3867 5.33333 11.84 5.28 11.36C5.25333 10.8533 5.21333 10.36 5.16 9.88C5.10667 9.4 5.05333 8.89333 5 8.36C4.97333 7.82667 4.96 7.21333 4.96 6.52C4.96 5.42666 5.10667 4.50666 5.4 3.76C5.69333 3.01333 6.14667 2.41333 6.76 1.96C7.37333 1.50667 8.14667 1.18667 9.08 0.999998C10.0133 0.786666 11.1333 0.68 12.44 0.68H15.76V4.28H14.28C13.5067 4.28 12.88 4.32 12.4 4.4C11.92 4.45333 11.5467 4.57333 11.28 4.76C11.0133 4.92 10.8267 5.17333 10.72 5.52C10.6133 5.84 10.56 6.25333 10.56 6.76C10.56 7.77333 10.5867 8.77333 10.64 9.76C10.6933 10.7467 10.72 11.8267 10.72 13C10.72 14.6 10.3867 15.7467 9.72 16.44C9.08 17.1067 8.02667 17.56 6.56 17.8V17.96C8.02667 18.2 9.08 18.6667 9.72 19.36C10.3867 20.0267 10.72 21.16 10.72 22.76C10.72 23.9333 10.6933 25.0133 10.64 26C10.5867 26.9867 10.56 27.9867 10.56 29C10.56 29.5333 10.6133 29.96 10.72 30.28C10.8267 30.6 11.0133 30.84 11.28 31C11.5467 31.1867 11.92 31.3067 12.4 31.36C12.88 31.44 13.5067 31.48 14.28 31.48H15.76V35.08H12.44C11.1333 35.08 10.0133 34.9733 9.08 34.76C8.14667 34.5733 7.37333 34.2533 6.76 33.8C6.14667 33.3467 5.69333 32.7467 5.4 32C5.10667 31.2533 4.96 30.3333 4.96 29.24Z" fill="#FF0000"/>
</svg>
