<svg width="370" height="460" viewBox="0 0 370 460" fill="none" xmlns="http://www.w3.org/2000/svg">
<path fill-rule="evenodd" clip-rule="evenodd" d="M0 0H10V10H0V0ZM30 0H40V10H30V0ZM70 0H60V10H70V0ZM90 0H100V10H90V0ZM130 0H120V10H130V0ZM150 0H160V10H150V0ZM190 0H180V10H190V0ZM210 0H220V10H210V0ZM250 0H240V10H250V0ZM270 0H280V10H270V0ZM310 0H300V10H310V0ZM330 0H340V10H330V0ZM370 0H360V10H370V0Z" fill="#F3F3F3"/>
<path fill-rule="evenodd" clip-rule="evenodd" d="M0 30H10V40H0V30ZM30 30H40V40H30V30ZM70 30H60V40H70V30ZM90 30H100V40H90V30ZM130 30H120V40H130V30ZM150 30H160V40H150V30ZM190 30H180V40H190V30ZM210 30H220V40H210V30ZM250 30H240V40H250V30ZM270 30H280V40H270V30ZM310 30H300V40H310V30ZM330 30H340V40H330V30ZM370 30H360V40H370V30Z" fill="#F3F3F3"/>
<path fill-rule="evenodd" clip-rule="evenodd" d="M0 60H10V70H0V60ZM30 60H40V70H30V60ZM70 60H60V70H70V60ZM90 60H100V70H90V60ZM130 60H120V70H130V60ZM150 60H160V70H150V60ZM190 60H180V70H190V60ZM210 60H220V70H210V60ZM250 60H240V70H250V60ZM270 60H280V70H270V60ZM310 60H300V70H310V60ZM330 60H340V70H330V60ZM370 60H360V70H370V60Z" fill="#F3F3F3"/>
<path fill-rule="evenodd" clip-rule="evenodd" d="M0 90H10V100H0V90ZM30 90H40V100H30V90ZM70 90H60V100H70V90ZM90 90H100V100H90V90ZM130 90H120V100H130V90ZM150 90H160V100H150V90ZM190 90H180V100H190V90ZM210 90H220V100H210V90ZM250 90H240V100H250V90ZM270 90H280V100H270V90ZM310 90H300V100H310V90ZM330 90H340V100H330V90ZM370 90H360V100H370V90Z" fill="#F3F3F3"/>
<path fill-rule="evenodd" clip-rule="evenodd" d="M0 120H10V130H0V120ZM30 120H40V130H30V120ZM70 120H60V130H70V120ZM90 120H100V130H90V120ZM130 120H120V130H130V120ZM150 120H160V130H150V120ZM190 120H180V130H190V120ZM210 120H220V130H210V120ZM250 120H240V130H250V120ZM270 120H280V130H270V120ZM310 120H300V130H310V120ZM330 120H340V130H330V120ZM370 120H360V130H370V120Z" fill="#F3F3F3"/>
<path fill-rule="evenodd" clip-rule="evenodd" d="M0 150H10V160H0V150ZM30 150H40V160H30V150ZM70 150H60V160H70V150ZM90 150H100V160H90V150ZM130 150H120V160H130V150ZM150 150H160V160H150V150ZM190 150H180V160H190V150ZM210 150H220V160H210V150ZM250 150H240V160H250V150ZM270 150H280V160H270V150ZM310 150H300V160H310V150ZM330 150H340V160H330V150ZM370 150H360V160H370V150Z" fill="#F3F3F3"/>
<path fill-rule="evenodd" clip-rule="evenodd" d="M0 180H10V190H0V180ZM30 180H40V190H30V180ZM70 180H60V190H70V180ZM90 180H100V190H90V180ZM130 180H120V190H130V180ZM150 180H160V190H150V180ZM190 180H180V190H190V180ZM210 180H220V190H210V180ZM250 180H240V190H250V180ZM270 180H280V190H270V180ZM310 180H300V190H310V180ZM330 180H340V190H330V180ZM370 180H360V190H370V180Z" fill="#F3F3F3"/>
<path fill-rule="evenodd" clip-rule="evenodd" d="M0 210H10V220H0V210ZM30 210H40V220H30V210ZM70 210H60V220H70V210ZM90 210H100V220H90V210ZM130 210H120V220H130V210ZM150 210H160V220H150V210ZM190 210H180V220H190V210ZM210 210H220V220H210V210ZM250 210H240V220H250V210ZM270 210H280V220H270V210ZM310 210H300V220H310V210ZM330 210H340V220H330V210ZM370 210H360V220H370V210Z" fill="#F3F3F3"/>
<path fill-rule="evenodd" clip-rule="evenodd" d="M0 240H10V250H0V240ZM30 240H40V250H30V240ZM70 240H60V250H70V240ZM90 240H100V250H90V240ZM130 240H120V250H130V240ZM150 240H160V250H150V240ZM190 240H180V250H190V240ZM210 240H220V250H210V240ZM250 240H240V250H250V240ZM270 240H280V250H270V240ZM310 240H300V250H310V240ZM330 240H340V250H330V240ZM370 240H360V250H370V240Z" fill="#F3F3F3"/>
<path fill-rule="evenodd" clip-rule="evenodd" d="M0 270H10V280H0V270ZM30 270H40V280H30V270ZM70 270H60V280H70V270ZM90 270H100V280H90V270ZM130 270H120V280H130V270ZM150 270H160V280H150V270ZM190 270H180V280H190V270ZM210 270H220V280H210V270ZM250 270H240V280H250V270ZM270 270H280V280H270V270ZM310 270H300V280H310V270ZM330 270H340V280H330V270ZM370 270H360V280H370V270Z" fill="#F3F3F3"/>
<path fill-rule="evenodd" clip-rule="evenodd" d="M0 300H10V310H0V300ZM30 300H40V310H30V300ZM70 300H60V310H70V300ZM90 300H100V310H90V300ZM130 300H120V310H130V300ZM150 300H160V310H150V300ZM190 300H180V310H190V300ZM210 300H220V310H210V300ZM250 300H240V310H250V300ZM270 300H280V310H270V300ZM310 300H300V310H310V300ZM330 300H340V310H330V300ZM370 300H360V310H370V300Z" fill="#F3F3F3"/>
<path fill-rule="evenodd" clip-rule="evenodd" d="M0 330H10V340H0V330ZM30 330H40V340H30V330ZM70 330H60V340H70V330ZM90 330H100V340H90V330ZM130 330H120V340H130V330ZM150 330H160V340H150V330ZM190 330H180V340H190V330ZM210 330H220V340H210V330ZM250 330H240V340H250V330ZM270 330H280V340H270V330ZM310 330H300V340H310V330ZM330 330H340V340H330V330ZM370 330H360V340H370V330Z" fill="#F3F3F3"/>
<path fill-rule="evenodd" clip-rule="evenodd" d="M0 360H10V370H0V360ZM30 360H40V370H30V360ZM70 360H60V370H70V360ZM90 360H100V370H90V360ZM130 360H120V370H130V360ZM150 360H160V370H150V360ZM190 360H180V370H190V360ZM210 360H220V370H210V360ZM250 360H240V370H250V360ZM270 360H280V370H270V360ZM310 360H300V370H310V360ZM330 360H340V370H330V360ZM370 360H360V370H370V360Z" fill="#F3F3F3"/>
<path fill-rule="evenodd" clip-rule="evenodd" d="M0 390H10V400H0V390ZM30 390H40V400H30V390ZM70 390H60V400H70V390ZM90 390H100V400H90V390ZM130 390H120V400H130V390ZM150 390H160V400H150V390ZM190 390H180V400H190V390ZM210 390H220V400H210V390ZM250 390H240V400H250V390ZM270 390H280V400H270V390ZM310 390H300V400H310V390ZM330 390H340V400H330V390ZM370 390H360V400H370V390Z" fill="#F3F3F3"/>
<path fill-rule="evenodd" clip-rule="evenodd" d="M0 420H10V430H0V420ZM30 420H40V430H30V420ZM70 420H60V430H70V420ZM90 420H100V430H90V420ZM130 420H120V430H130V420ZM150 420H160V430H150V420ZM190 420H180V430H190V420ZM210 420H220V430H210V420ZM250 420H240V430H250V420ZM270 420H280V430H270V420ZM310 420H300V430H310V420ZM330 420H340V430H330V420ZM370 420H360V430H370V420Z" fill="#F3F3F3"/>
<path fill-rule="evenodd" clip-rule="evenodd" d="M0 450H10V460H0V450ZM30 450H40V460H30V450ZM70 450H60V460H70V450ZM90 450H100V460H90V450ZM130 450H120V460H130V450ZM150 450H160V460H150V450ZM190 450H180V460H190V450ZM210 450H220V460H210V450ZM250 450H240V460H250V450ZM270 450H280V460H270V450ZM310 450H300V460H310V450ZM330 450H340V460H330V450ZM370 450H360V460H370V450Z" fill="#F3F3F3"/>
</svg>
