<svg width="430" height="430" viewBox="0 0 430 430" fill="none" xmlns="http://www.w3.org/2000/svg">
<rect width="10" height="10" fill="#F3F3F3"/>
<rect x="30" width="10" height="10" fill="#F3F3F3"/>
<rect x="60" width="10" height="10" fill="#F3F3F3"/>
<rect x="90" width="10" height="10" fill="#F3F3F3"/>
<rect x="120" width="10" height="10" fill="#F3F3F3"/>
<rect y="30" width="10" height="10" fill="#F3F3F3"/>
<rect x="30" y="30" width="10" height="10" fill="#F3F3F3"/>
<rect x="60" y="30" width="10" height="10" fill="#F3F3F3"/>
<rect x="90" y="30" width="10" height="10" fill="#F3F3F3"/>
<rect x="120" y="30" width="10" height="10" fill="#F3F3F3"/>
<rect x="150" y="30" width="10" height="10" fill="#F3F3F3"/>
<rect y="60" width="10" height="10" fill="#F3F3F3"/>
<rect x="30" y="60" width="10" height="10" fill="#F3F3F3"/>
<rect x="60" y="60" width="10" height="10" fill="#F3F3F3"/>
<rect x="90" y="60" width="10" height="10" fill="#F3F3F3"/>
<rect x="120" y="60" width="10" height="10" fill="#F3F3F3"/>
<rect x="150" y="60" width="10" height="10" fill="#F3F3F3"/>
<rect x="180" y="60" width="10" height="10" fill="#F3F3F3"/>
<rect y="90" width="10" height="10" fill="#F3F3F3"/>
<rect x="30" y="90" width="10" height="10" fill="#F3F3F3"/>
<rect x="60" y="90" width="10" height="10" fill="#F3F3F3"/>
<rect x="90" y="90" width="10" height="10" fill="#F3F3F3"/>
<rect x="120" y="90" width="10" height="10" fill="#F3F3F3"/>
<rect x="150" y="90" width="10" height="10" fill="#F3F3F3"/>
<rect x="180" y="90" width="10" height="10" fill="#F3F3F3"/>
<rect width="10" height="10" transform="matrix(-1 0 0 1 430 0)" fill="#F3F3F3"/>
<rect width="10" height="10" transform="matrix(-1 0 0 1 400 0)" fill="#F3F3F3"/>
<rect width="10" height="10" transform="matrix(-1 0 0 1 370 0)" fill="#F3F3F3"/>
<rect width="10" height="10" transform="matrix(-1 0 0 1 340 0)" fill="#F3F3F3"/>
<rect width="10" height="10" transform="matrix(-1 0 0 1 310 0)" fill="#F3F3F3"/>
<rect width="10" height="10" transform="matrix(-1 0 0 1 430 30)" fill="#F3F3F3"/>
<rect width="10" height="10" transform="matrix(-1 0 0 1 400 30)" fill="#F3F3F3"/>
<rect width="10" height="10" transform="matrix(-1 0 0 1 370 30)" fill="#F3F3F3"/>
<rect width="10" height="10" transform="matrix(-1 0 0 1 340 30)" fill="#F3F3F3"/>
<rect width="10" height="10" transform="matrix(-1 0 0 1 310 30)" fill="#F3F3F3"/>
<rect width="10" height="10" transform="matrix(-1 0 0 1 280 30)" fill="#F3F3F3"/>
<rect width="10" height="10" transform="matrix(-1 0 0 1 430 60)" fill="#F3F3F3"/>
<rect width="10" height="10" transform="matrix(-1 0 0 1 400 60)" fill="#F3F3F3"/>
<rect width="10" height="10" transform="matrix(-1 0 0 1 370 60)" fill="#F3F3F3"/>
<rect width="10" height="10" transform="matrix(-1 0 0 1 340 60)" fill="#F3F3F3"/>
<rect width="10" height="10" transform="matrix(-1 0 0 1 310 60)" fill="#F3F3F3"/>
<rect width="10" height="10" transform="matrix(-1 0 0 1 280 60)" fill="#F3F3F3"/>
<rect width="10" height="10" transform="matrix(-1 0 0 1 250 60)" fill="#F3F3F3"/>
<rect width="10" height="10" transform="matrix(-1 0 0 1 430 90)" fill="#F3F3F3"/>
<rect width="10" height="10" transform="matrix(-1 0 0 1 400 90)" fill="#F3F3F3"/>
<rect width="10" height="10" transform="matrix(-1 0 0 1 370 90)" fill="#F3F3F3"/>
<rect width="10" height="10" transform="matrix(-1 0 0 1 340 90)" fill="#F3F3F3"/>
<rect width="10" height="10" transform="matrix(-1 0 0 1 310 90)" fill="#F3F3F3"/>
<rect width="10" height="10" transform="matrix(-1 0 0 1 280 90)" fill="#F3F3F3"/>
<rect width="10" height="10" transform="matrix(-1 0 0 1 250 90)" fill="#F3F3F3"/>
<rect x="210" y="90" width="10" height="10" fill="#F3F3F3"/>
<rect y="120" width="10" height="10" fill="#F3F3F3"/>
<rect x="30" y="120" width="10" height="10" fill="#F3F3F3"/>
<rect x="60" y="120" width="10" height="10" fill="#F3F3F3"/>
<rect x="90" y="120" width="10" height="10" fill="#F3F3F3"/>
<rect x="120" y="120" width="10" height="10" fill="#F3F3F3"/>
<rect x="150" y="120" width="10" height="10" fill="#F3F3F3"/>
<rect x="180" y="120" width="10" height="10" fill="#F3F3F3"/>
<rect width="10" height="10" transform="matrix(-1 0 0 1 430 120)" fill="#F3F3F3"/>
<rect width="10" height="10" transform="matrix(-1 0 0 1 400 120)" fill="#F3F3F3"/>
<rect width="10" height="10" transform="matrix(-1 0 0 1 370 120)" fill="#F3F3F3"/>
<rect width="10" height="10" transform="matrix(-1 0 0 1 340 120)" fill="#F3F3F3"/>
<rect width="10" height="10" transform="matrix(-1 0 0 1 310 120)" fill="#F3F3F3"/>
<rect width="10" height="10" transform="matrix(-1 0 0 1 280 120)" fill="#F3F3F3"/>
<rect width="10" height="10" transform="matrix(-1 0 0 1 250 120)" fill="#F3F3F3"/>
<rect x="210" y="120" width="10" height="10" fill="#F3F3F3"/>
<rect x="30" y="150" width="10" height="10" fill="#F3F3F3"/>
<rect x="60" y="150" width="10" height="10" fill="#F3F3F3"/>
<rect x="90" y="150" width="10" height="10" fill="#F3F3F3"/>
<rect x="120" y="150" width="10" height="10" fill="#F3F3F3"/>
<rect x="150" y="150" width="10" height="10" fill="#F3F3F3"/>
<rect x="180" y="150" width="10" height="10" fill="#F3F3F3"/>
<rect width="10" height="10" transform="matrix(-1 0 0 1 400 150)" fill="#F3F3F3"/>
<rect width="10" height="10" transform="matrix(-1 0 0 1 370 150)" fill="#F3F3F3"/>
<rect width="10" height="10" transform="matrix(-1 0 0 1 340 150)" fill="#F3F3F3"/>
<rect width="10" height="10" transform="matrix(-1 0 0 1 310 150)" fill="#F3F3F3"/>
<rect width="10" height="10" transform="matrix(-1 0 0 1 280 150)" fill="#F3F3F3"/>
<rect width="10" height="10" transform="matrix(-1 0 0 1 250 150)" fill="#F3F3F3"/>
<rect x="210" y="150" width="10" height="10" fill="#F3F3F3"/>
<rect x="60" y="180" width="10" height="10" fill="#F3F3F3"/>
<rect x="90" y="180" width="10" height="10" fill="#F3F3F3"/>
<rect x="120" y="180" width="10" height="10" fill="#F3F3F3"/>
<rect x="150" y="180" width="10" height="10" fill="#F3F3F3"/>
<rect x="180" y="180" width="10" height="10" fill="#F3F3F3"/>
<rect width="10" height="10" transform="matrix(-1 0 0 1 370 180)" fill="#F3F3F3"/>
<rect width="10" height="10" transform="matrix(-1 0 0 1 340 180)" fill="#F3F3F3"/>
<rect width="10" height="10" transform="matrix(-1 0 0 1 310 180)" fill="#F3F3F3"/>
<rect width="10" height="10" transform="matrix(-1 0 0 1 280 180)" fill="#F3F3F3"/>
<rect width="10" height="10" transform="matrix(-1 0 0 1 250 180)" fill="#F3F3F3"/>
<rect x="210" y="180" width="10" height="10" fill="#F3F3F3"/>
<rect x="90" y="210" width="10" height="10" fill="#F3F3F3"/>
<rect x="120" y="210" width="10" height="10" fill="#F3F3F3"/>
<rect x="150" y="210" width="10" height="10" fill="#F3F3F3"/>
<rect x="180" y="210" width="10" height="10" fill="#F3F3F3"/>
<rect width="10" height="10" transform="matrix(-1 0 0 1 340 210)" fill="#F3F3F3"/>
<rect width="10" height="10" transform="matrix(-1 0 0 1 310 210)" fill="#F3F3F3"/>
<rect width="10" height="10" transform="matrix(-1 0 0 1 280 210)" fill="#F3F3F3"/>
<rect width="10" height="10" transform="matrix(-1 0 0 1 250 210)" fill="#F3F3F3"/>
<rect x="210" y="210" width="10" height="10" fill="#F3F3F3"/>
<rect width="10" height="10" transform="matrix(1 0 0 -1 0 430)" fill="#F3F3F3"/>
<rect width="10" height="10" transform="matrix(1 0 0 -1 30 430)" fill="#F3F3F3"/>
<rect width="10" height="10" transform="matrix(1 0 0 -1 60 430)" fill="#F3F3F3"/>
<rect width="10" height="10" transform="matrix(1 0 0 -1 90 430)" fill="#F3F3F3"/>
<rect width="10" height="10" transform="matrix(1 0 0 -1 120 430)" fill="#F3F3F3"/>
<rect width="10" height="10" transform="matrix(1 0 0 -1 0 400)" fill="#F3F3F3"/>
<rect width="10" height="10" transform="matrix(1 0 0 -1 30 400)" fill="#F3F3F3"/>
<rect width="10" height="10" transform="matrix(1 0 0 -1 60 400)" fill="#F3F3F3"/>
<rect width="10" height="10" transform="matrix(1 0 0 -1 90 400)" fill="#F3F3F3"/>
<rect width="10" height="10" transform="matrix(1 0 0 -1 120 400)" fill="#F3F3F3"/>
<rect width="10" height="10" transform="matrix(1 0 0 -1 150 400)" fill="#F3F3F3"/>
<rect width="10" height="10" transform="matrix(1 0 0 -1 0 370)" fill="#F3F3F3"/>
<rect width="10" height="10" transform="matrix(1 0 0 -1 30 370)" fill="#F3F3F3"/>
<rect width="10" height="10" transform="matrix(1 0 0 -1 60 370)" fill="#F3F3F3"/>
<rect width="10" height="10" transform="matrix(1 0 0 -1 90 370)" fill="#F3F3F3"/>
<rect width="10" height="10" transform="matrix(1 0 0 -1 120 370)" fill="#F3F3F3"/>
<rect width="10" height="10" transform="matrix(1 0 0 -1 150 370)" fill="#F3F3F3"/>
<rect width="10" height="10" transform="matrix(1 0 0 -1 180 370)" fill="#F3F3F3"/>
<rect width="10" height="10" transform="matrix(1 0 0 -1 0 340)" fill="#F3F3F3"/>
<rect width="10" height="10" transform="matrix(1 0 0 -1 30 340)" fill="#F3F3F3"/>
<rect width="10" height="10" transform="matrix(1 0 0 -1 60 340)" fill="#F3F3F3"/>
<rect width="10" height="10" transform="matrix(1 0 0 -1 90 340)" fill="#F3F3F3"/>
<rect width="10" height="10" transform="matrix(1 0 0 -1 120 340)" fill="#F3F3F3"/>
<rect width="10" height="10" transform="matrix(1 0 0 -1 150 340)" fill="#F3F3F3"/>
<rect width="10" height="10" transform="matrix(1 0 0 -1 180 340)" fill="#F3F3F3"/>
<rect x="430" y="430" width="10" height="10" transform="rotate(-180 430 430)" fill="#F3F3F3"/>
<rect x="400" y="430" width="10" height="10" transform="rotate(-180 400 430)" fill="#F3F3F3"/>
<rect x="370" y="430" width="10" height="10" transform="rotate(-180 370 430)" fill="#F3F3F3"/>
<rect x="340" y="430" width="10" height="10" transform="rotate(-180 340 430)" fill="#F3F3F3"/>
<rect x="310" y="430" width="10" height="10" transform="rotate(-180 310 430)" fill="#F3F3F3"/>
<rect x="430" y="400" width="10" height="10" transform="rotate(-180 430 400)" fill="#F3F3F3"/>
<rect x="400" y="400" width="10" height="10" transform="rotate(-180 400 400)" fill="#F3F3F3"/>
<rect x="370" y="400" width="10" height="10" transform="rotate(-180 370 400)" fill="#F3F3F3"/>
<rect x="340" y="400" width="10" height="10" transform="rotate(-180 340 400)" fill="#F3F3F3"/>
<rect x="310" y="400" width="10" height="10" transform="rotate(-180 310 400)" fill="#F3F3F3"/>
<rect x="280" y="400" width="10" height="10" transform="rotate(-180 280 400)" fill="#F3F3F3"/>
<rect x="430" y="370" width="10" height="10" transform="rotate(-180 430 370)" fill="#F3F3F3"/>
<rect x="400" y="370" width="10" height="10" transform="rotate(-180 400 370)" fill="#F3F3F3"/>
<rect x="370" y="370" width="10" height="10" transform="rotate(-180 370 370)" fill="#F3F3F3"/>
<rect x="340" y="370" width="10" height="10" transform="rotate(-180 340 370)" fill="#F3F3F3"/>
<rect x="310" y="370" width="10" height="10" transform="rotate(-180 310 370)" fill="#F3F3F3"/>
<rect x="280" y="370" width="10" height="10" transform="rotate(-180 280 370)" fill="#F3F3F3"/>
<rect x="250" y="370" width="10" height="10" transform="rotate(-180 250 370)" fill="#F3F3F3"/>
<rect x="430" y="340" width="10" height="10" transform="rotate(-180 430 340)" fill="#F3F3F3"/>
<rect x="400" y="340" width="10" height="10" transform="rotate(-180 400 340)" fill="#F3F3F3"/>
<rect x="370" y="340" width="10" height="10" transform="rotate(-180 370 340)" fill="#F3F3F3"/>
<rect x="340" y="340" width="10" height="10" transform="rotate(-180 340 340)" fill="#F3F3F3"/>
<rect x="310" y="340" width="10" height="10" transform="rotate(-180 310 340)" fill="#F3F3F3"/>
<rect x="280" y="340" width="10" height="10" transform="rotate(-180 280 340)" fill="#F3F3F3"/>
<rect x="250" y="340" width="10" height="10" transform="rotate(-180 250 340)" fill="#F3F3F3"/>
<rect width="10" height="10" transform="matrix(1 0 0 -1 210 340)" fill="#F3F3F3"/>
<rect width="10" height="10" transform="matrix(1 0 0 -1 0 310)" fill="#F3F3F3"/>
<rect width="10" height="10" transform="matrix(1 0 0 -1 30 310)" fill="#F3F3F3"/>
<rect width="10" height="10" transform="matrix(1 0 0 -1 60 310)" fill="#F3F3F3"/>
<rect width="10" height="10" transform="matrix(1 0 0 -1 90 310)" fill="#F3F3F3"/>
<rect width="10" height="10" transform="matrix(1 0 0 -1 120 310)" fill="#F3F3F3"/>
<rect width="10" height="10" transform="matrix(1 0 0 -1 150 310)" fill="#F3F3F3"/>
<rect width="10" height="10" transform="matrix(1 0 0 -1 180 310)" fill="#F3F3F3"/>
<rect x="430" y="310" width="10" height="10" transform="rotate(-180 430 310)" fill="#F3F3F3"/>
<rect x="400" y="310" width="10" height="10" transform="rotate(-180 400 310)" fill="#F3F3F3"/>
<rect x="370" y="310" width="10" height="10" transform="rotate(-180 370 310)" fill="#F3F3F3"/>
<rect x="340" y="310" width="10" height="10" transform="rotate(-180 340 310)" fill="#F3F3F3"/>
<rect x="310" y="310" width="10" height="10" transform="rotate(-180 310 310)" fill="#F3F3F3"/>
<rect x="280" y="310" width="10" height="10" transform="rotate(-180 280 310)" fill="#F3F3F3"/>
<rect x="250" y="310" width="10" height="10" transform="rotate(-180 250 310)" fill="#F3F3F3"/>
<rect width="10" height="10" transform="matrix(1 0 0 -1 210 310)" fill="#F3F3F3"/>
<rect width="10" height="10" transform="matrix(1 0 0 -1 30 280)" fill="#F3F3F3"/>
<rect width="10" height="10" transform="matrix(1 0 0 -1 60 280)" fill="#F3F3F3"/>
<rect width="10" height="10" transform="matrix(1 0 0 -1 90 280)" fill="#F3F3F3"/>
<rect width="10" height="10" transform="matrix(1 0 0 -1 120 280)" fill="#F3F3F3"/>
<rect width="10" height="10" transform="matrix(1 0 0 -1 150 280)" fill="#F3F3F3"/>
<rect width="10" height="10" transform="matrix(1 0 0 -1 180 280)" fill="#F3F3F3"/>
<rect x="400" y="280" width="10" height="10" transform="rotate(-180 400 280)" fill="#F3F3F3"/>
<rect x="370" y="280" width="10" height="10" transform="rotate(-180 370 280)" fill="#F3F3F3"/>
<rect x="340" y="280" width="10" height="10" transform="rotate(-180 340 280)" fill="#F3F3F3"/>
<rect x="310" y="280" width="10" height="10" transform="rotate(-180 310 280)" fill="#F3F3F3"/>
<rect x="280" y="280" width="10" height="10" transform="rotate(-180 280 280)" fill="#F3F3F3"/>
<rect x="250" y="280" width="10" height="10" transform="rotate(-180 250 280)" fill="#F3F3F3"/>
<rect width="10" height="10" transform="matrix(1 0 0 -1 210 280)" fill="#F3F3F3"/>
<rect width="10" height="10" transform="matrix(1 0 0 -1 60 250)" fill="#F3F3F3"/>
<rect width="10" height="10" transform="matrix(1 0 0 -1 90 250)" fill="#F3F3F3"/>
<rect width="10" height="10" transform="matrix(1 0 0 -1 120 250)" fill="#F3F3F3"/>
<rect width="10" height="10" transform="matrix(1 0 0 -1 150 250)" fill="#F3F3F3"/>
<rect width="10" height="10" transform="matrix(1 0 0 -1 180 250)" fill="#F3F3F3"/>
<rect x="370" y="250" width="10" height="10" transform="rotate(-180 370 250)" fill="#F3F3F3"/>
<rect x="340" y="250" width="10" height="10" transform="rotate(-180 340 250)" fill="#F3F3F3"/>
<rect x="310" y="250" width="10" height="10" transform="rotate(-180 310 250)" fill="#F3F3F3"/>
<rect x="280" y="250" width="10" height="10" transform="rotate(-180 280 250)" fill="#F3F3F3"/>
<rect x="250" y="250" width="10" height="10" transform="rotate(-180 250 250)" fill="#F3F3F3"/>
<rect width="10" height="10" transform="matrix(1 0 0 -1 210 250)" fill="#F3F3F3"/>
</svg>
