<svg width="257" height="257" viewBox="0 0 257 257" fill="none" xmlns="http://www.w3.org/2000/svg">
<rect y="0.869629" width="5.95745" height="5.95745" fill="#F3F3F3"/>
<rect x="17.873" y="0.869629" width="5.95745" height="5.95745" fill="#F3F3F3"/>
<rect x="35.7441" y="0.869629" width="5.95745" height="5.95745" fill="#F3F3F3"/>
<rect x="53.6172" y="0.869629" width="5.95745" height="5.95745" fill="#F3F3F3"/>
<rect x="71.4883" y="0.869629" width="5.95745" height="5.95745" fill="#F3F3F3"/>
<rect y="18.7393" width="5.95745" height="5.95745" fill="#F3F3F3"/>
<rect x="17.873" y="18.7393" width="5.95745" height="5.95745" fill="#F3F3F3"/>
<rect x="35.7441" y="18.7393" width="5.95745" height="5.95745" fill="#F3F3F3"/>
<rect x="53.6172" y="18.7393" width="5.95745" height="5.95745" fill="#F3F3F3"/>
<rect x="71.4883" y="18.7393" width="5.95745" height="5.95745" fill="#F3F3F3"/>
<rect x="89.3613" y="18.7393" width="5.95745" height="5.95745" fill="#F3F3F3"/>
<rect y="36.6094" width="5.95745" height="5.95745" fill="#F3F3F3"/>
<rect x="17.873" y="36.6094" width="5.95745" height="5.95745" fill="#F3F3F3"/>
<rect x="35.7441" y="36.6094" width="5.95745" height="5.95745" fill="#F3F3F3"/>
<rect x="53.6172" y="36.6094" width="5.95745" height="5.95745" fill="#F3F3F3"/>
<rect x="71.4883" y="36.6094" width="5.95745" height="5.95745" fill="#F3F3F3"/>
<rect x="89.3613" y="36.6094" width="5.95745" height="5.95745" fill="#F3F3F3"/>
<rect x="107.234" y="36.6094" width="5.95745" height="5.95745" fill="#F3F3F3"/>
<rect y="54.4785" width="5.95745" height="5.95745" fill="#F3F3F3"/>
<rect x="17.873" y="54.4785" width="5.95745" height="5.95745" fill="#F3F3F3"/>
<rect x="35.7441" y="54.4785" width="5.95745" height="5.95745" fill="#F3F3F3"/>
<rect x="53.6172" y="54.4785" width="5.95745" height="5.95745" fill="#F3F3F3"/>
<rect x="71.4883" y="54.4785" width="5.95745" height="5.95745" fill="#F3F3F3"/>
<rect x="89.3613" y="54.4785" width="5.95745" height="5.95745" fill="#F3F3F3"/>
<rect x="107.234" y="54.4785" width="5.95745" height="5.95745" fill="#F3F3F3"/>
<rect width="5.95745" height="5.95745" transform="matrix(-1 0 0 1 256.17 0.869629)" fill="#F3F3F3"/>
<rect width="5.95745" height="5.95745" transform="matrix(-1 0 0 1 238.297 0.869629)" fill="#F3F3F3"/>
<rect width="5.95745" height="5.95745" transform="matrix(-1 0 0 1 220.426 0.869629)" fill="#F3F3F3"/>
<rect width="5.95745" height="5.95745" transform="matrix(-1 0 0 1 202.553 0.869629)" fill="#F3F3F3"/>
<rect width="5.95745" height="5.95745" transform="matrix(-1 0 0 1 184.68 0.869629)" fill="#F3F3F3"/>
<rect width="5.95745" height="5.95745" transform="matrix(-1 0 0 1 256.17 18.7393)" fill="#F3F3F3"/>
<rect width="5.95745" height="5.95745" transform="matrix(-1 0 0 1 238.297 18.7393)" fill="#F3F3F3"/>
<rect width="5.95745" height="5.95745" transform="matrix(-1 0 0 1 220.426 18.7393)" fill="#F3F3F3"/>
<rect width="5.95745" height="5.95745" transform="matrix(-1 0 0 1 202.553 18.7393)" fill="#F3F3F3"/>
<rect width="5.95745" height="5.95745" transform="matrix(-1 0 0 1 184.68 18.7393)" fill="#F3F3F3"/>
<rect width="5.95745" height="5.95745" transform="matrix(-1 0 0 1 166.809 18.7393)" fill="#F3F3F3"/>
<rect width="5.95745" height="5.95745" transform="matrix(-1 0 0 1 256.17 36.6094)" fill="#F3F3F3"/>
<rect width="5.95745" height="5.95745" transform="matrix(-1 0 0 1 238.297 36.6094)" fill="#F3F3F3"/>
<rect width="5.95745" height="5.95745" transform="matrix(-1 0 0 1 220.426 36.6094)" fill="#F3F3F3"/>
<rect width="5.95745" height="5.95745" transform="matrix(-1 0 0 1 202.553 36.6094)" fill="#F3F3F3"/>
<rect width="5.95745" height="5.95745" transform="matrix(-1 0 0 1 184.68 36.6094)" fill="#F3F3F3"/>
<rect width="5.95745" height="5.95745" transform="matrix(-1 0 0 1 166.809 36.6094)" fill="#F3F3F3"/>
<rect width="5.95745" height="5.95745" transform="matrix(-1 0 0 1 148.936 36.6094)" fill="#F3F3F3"/>
<rect width="5.95745" height="5.95745" transform="matrix(-1 0 0 1 256.17 54.4785)" fill="#F3F3F3"/>
<rect width="5.95745" height="5.95745" transform="matrix(-1 0 0 1 238.297 54.4785)" fill="#F3F3F3"/>
<rect width="5.95745" height="5.95745" transform="matrix(-1 0 0 1 220.426 54.4785)" fill="#F3F3F3"/>
<rect width="5.95745" height="5.95745" transform="matrix(-1 0 0 1 202.553 54.4785)" fill="#F3F3F3"/>
<rect width="5.95745" height="5.95745" transform="matrix(-1 0 0 1 184.68 54.4785)" fill="#F3F3F3"/>
<rect width="5.95745" height="5.95745" transform="matrix(-1 0 0 1 166.809 54.4785)" fill="#F3F3F3"/>
<rect width="5.95745" height="5.95745" transform="matrix(-1 0 0 1 148.936 54.4785)" fill="#F3F3F3"/>
<rect x="125.105" y="54.4785" width="5.95745" height="5.95745" fill="#F3F3F3"/>
<rect y="72.3481" width="5.95745" height="5.95745" fill="#F3F3F3"/>
<rect x="17.873" y="72.3481" width="5.95745" height="5.95745" fill="#F3F3F3"/>
<rect x="35.7441" y="72.3481" width="5.95745" height="5.95745" fill="#F3F3F3"/>
<rect x="53.6172" y="72.3481" width="5.95745" height="5.95745" fill="#F3F3F3"/>
<rect x="71.4883" y="72.3481" width="5.95745" height="5.95745" fill="#F3F3F3"/>
<rect x="89.3613" y="72.3481" width="5.95745" height="5.95745" fill="#F3F3F3"/>
<rect x="107.234" y="72.3481" width="5.95745" height="5.95745" fill="#F3F3F3"/>
<rect width="5.95745" height="5.95745" transform="matrix(-1 0 0 1 256.17 72.3481)" fill="#F3F3F3"/>
<rect width="5.95745" height="5.95745" transform="matrix(-1 0 0 1 238.297 72.3481)" fill="#F3F3F3"/>
<rect width="5.95745" height="5.95745" transform="matrix(-1 0 0 1 220.426 72.3481)" fill="#F3F3F3"/>
<rect width="5.95745" height="5.95745" transform="matrix(-1 0 0 1 202.553 72.3481)" fill="#F3F3F3"/>
<rect width="5.95745" height="5.95745" transform="matrix(-1 0 0 1 184.68 72.3481)" fill="#F3F3F3"/>
<rect width="5.95745" height="5.95745" transform="matrix(-1 0 0 1 166.809 72.3481)" fill="#F3F3F3"/>
<rect width="5.95745" height="5.95745" transform="matrix(-1 0 0 1 148.936 72.3481)" fill="#F3F3F3"/>
<rect x="125.105" y="72.3481" width="5.95745" height="5.95745" fill="#F3F3F3"/>
<rect x="17.873" y="90.2178" width="5.95745" height="5.95745" fill="#F3F3F3"/>
<rect x="35.7441" y="90.2178" width="5.95745" height="5.95745" fill="#F3F3F3"/>
<rect x="53.6172" y="90.2178" width="5.95745" height="5.95745" fill="#F3F3F3"/>
<rect x="71.4883" y="90.2178" width="5.95745" height="5.95745" fill="#F3F3F3"/>
<rect x="89.3613" y="90.2178" width="5.95745" height="5.95745" fill="#F3F3F3"/>
<rect x="107.234" y="90.2178" width="5.95745" height="5.95745" fill="#F3F3F3"/>
<rect width="5.95745" height="5.95745" transform="matrix(-1 0 0 1 238.297 90.2178)" fill="#F3F3F3"/>
<rect width="5.95745" height="5.95745" transform="matrix(-1 0 0 1 220.426 90.2178)" fill="#F3F3F3"/>
<rect width="5.95745" height="5.95745" transform="matrix(-1 0 0 1 202.553 90.2178)" fill="#F3F3F3"/>
<rect width="5.95745" height="5.95745" transform="matrix(-1 0 0 1 184.68 90.2178)" fill="#F3F3F3"/>
<rect width="5.95745" height="5.95745" transform="matrix(-1 0 0 1 166.809 90.2178)" fill="#F3F3F3"/>
<rect width="5.95745" height="5.95745" transform="matrix(-1 0 0 1 148.936 90.2178)" fill="#F3F3F3"/>
<rect x="125.105" y="90.2178" width="5.95745" height="5.95745" fill="#F3F3F3"/>
<rect x="35.7441" y="108.087" width="5.95745" height="5.95745" fill="#F3F3F3"/>
<rect x="53.6172" y="108.087" width="5.95745" height="5.95745" fill="#F3F3F3"/>
<rect x="71.4883" y="108.087" width="5.95745" height="5.95745" fill="#F3F3F3"/>
<rect x="89.3613" y="108.087" width="5.95745" height="5.95745" fill="#F3F3F3"/>
<rect x="107.234" y="108.087" width="5.95745" height="5.95745" fill="#F3F3F3"/>
<rect width="5.95745" height="5.95745" transform="matrix(-1 0 0 1 220.426 108.087)" fill="#F3F3F3"/>
<rect width="5.95745" height="5.95745" transform="matrix(-1 0 0 1 202.553 108.087)" fill="#F3F3F3"/>
<rect width="5.95745" height="5.95745" transform="matrix(-1 0 0 1 184.68 108.087)" fill="#F3F3F3"/>
<rect width="5.95745" height="5.95745" transform="matrix(-1 0 0 1 166.809 108.087)" fill="#F3F3F3"/>
<rect width="5.95745" height="5.95745" transform="matrix(-1 0 0 1 148.936 108.087)" fill="#F3F3F3"/>
<rect x="125.105" y="108.087" width="5.95745" height="5.95745" fill="#F3F3F3"/>
<rect x="53.6172" y="125.957" width="5.95745" height="5.95745" fill="#F3F3F3"/>
<rect x="71.4883" y="125.957" width="5.95745" height="5.95745" fill="#F3F3F3"/>
<rect x="89.3613" y="125.957" width="5.95745" height="5.95745" fill="#F3F3F3"/>
<rect x="107.234" y="125.957" width="5.95745" height="5.95745" fill="#F3F3F3"/>
<rect width="5.95745" height="5.95745" transform="matrix(-1 0 0 1 202.553 125.957)" fill="#F3F3F3"/>
<rect width="5.95745" height="5.95745" transform="matrix(-1 0 0 1 184.68 125.957)" fill="#F3F3F3"/>
<rect width="5.95745" height="5.95745" transform="matrix(-1 0 0 1 166.809 125.957)" fill="#F3F3F3"/>
<rect width="5.95745" height="5.95745" transform="matrix(-1 0 0 1 148.936 125.957)" fill="#F3F3F3"/>
<rect x="125.105" y="125.957" width="5.95745" height="5.95745" fill="#F3F3F3"/>
<rect width="5.95745" height="5.95745" transform="matrix(1 0 0 -1 0 257)" fill="#F3F3F3"/>
<rect width="5.95745" height="5.95745" transform="matrix(1 0 0 -1 17.873 257)" fill="#F3F3F3"/>
<rect width="5.95745" height="5.95745" transform="matrix(1 0 0 -1 35.7441 257)" fill="#F3F3F3"/>
<rect width="5.95745" height="5.95745" transform="matrix(1 0 0 -1 53.6172 257)" fill="#F3F3F3"/>
<rect width="5.95745" height="5.95745" transform="matrix(1 0 0 -1 71.4883 257)" fill="#F3F3F3"/>
<rect width="5.95745" height="5.95745" transform="matrix(1 0 0 -1 0 239.131)" fill="#F3F3F3"/>
<rect width="5.95745" height="5.95745" transform="matrix(1 0 0 -1 17.873 239.131)" fill="#F3F3F3"/>
<rect width="5.95745" height="5.95745" transform="matrix(1 0 0 -1 35.7441 239.131)" fill="#F3F3F3"/>
<rect width="5.95745" height="5.95745" transform="matrix(1 0 0 -1 53.6172 239.131)" fill="#F3F3F3"/>
<rect width="5.95745" height="5.95745" transform="matrix(1 0 0 -1 71.4883 239.131)" fill="#F3F3F3"/>
<rect width="5.95745" height="5.95745" transform="matrix(1 0 0 -1 89.3613 239.131)" fill="#F3F3F3"/>
<rect width="5.95745" height="5.95745" transform="matrix(1 0 0 -1 0 221.26)" fill="#F3F3F3"/>
<rect width="5.95745" height="5.95745" transform="matrix(1 0 0 -1 17.873 221.26)" fill="#F3F3F3"/>
<rect width="5.95745" height="5.95745" transform="matrix(1 0 0 -1 35.7441 221.26)" fill="#F3F3F3"/>
<rect width="5.95745" height="5.95745" transform="matrix(1 0 0 -1 53.6172 221.26)" fill="#F3F3F3"/>
<rect width="5.95745" height="5.95745" transform="matrix(1 0 0 -1 71.4883 221.26)" fill="#F3F3F3"/>
<rect width="5.95745" height="5.95745" transform="matrix(1 0 0 -1 89.3613 221.26)" fill="#F3F3F3"/>
<rect width="5.95745" height="5.95745" transform="matrix(1 0 0 -1 107.234 221.26)" fill="#F3F3F3"/>
<rect width="5.95745" height="5.95745" transform="matrix(1 0 0 -1 0 203.391)" fill="#F3F3F3"/>
<rect width="5.95745" height="5.95745" transform="matrix(1 0 0 -1 17.873 203.391)" fill="#F3F3F3"/>
<rect width="5.95745" height="5.95745" transform="matrix(1 0 0 -1 35.7441 203.391)" fill="#F3F3F3"/>
<rect width="5.95745" height="5.95745" transform="matrix(1 0 0 -1 53.6172 203.391)" fill="#F3F3F3"/>
<rect width="5.95745" height="5.95745" transform="matrix(1 0 0 -1 71.4883 203.391)" fill="#F3F3F3"/>
<rect width="5.95745" height="5.95745" transform="matrix(1 0 0 -1 89.3613 203.391)" fill="#F3F3F3"/>
<rect width="5.95745" height="5.95745" transform="matrix(1 0 0 -1 107.234 203.391)" fill="#F3F3F3"/>
<rect x="256.17" y="257" width="5.95745" height="5.95745" transform="rotate(-180 256.17 257)" fill="#F3F3F3"/>
<rect x="238.297" y="257" width="5.95745" height="5.95745" transform="rotate(-180 238.297 257)" fill="#F3F3F3"/>
<rect x="220.426" y="257" width="5.95745" height="5.95745" transform="rotate(-180 220.426 257)" fill="#F3F3F3"/>
<rect x="202.553" y="257" width="5.95745" height="5.95745" transform="rotate(-180 202.553 257)" fill="#F3F3F3"/>
<rect x="184.68" y="257" width="5.95745" height="5.95745" transform="rotate(-180 184.68 257)" fill="#F3F3F3"/>
<rect x="256.17" y="239.131" width="5.95745" height="5.95745" transform="rotate(-180 256.17 239.131)" fill="#F3F3F3"/>
<rect x="238.297" y="239.131" width="5.95745" height="5.95745" transform="rotate(-180 238.297 239.131)" fill="#F3F3F3"/>
<rect x="220.426" y="239.131" width="5.95745" height="5.95745" transform="rotate(-180 220.426 239.131)" fill="#F3F3F3"/>
<rect x="202.553" y="239.131" width="5.95745" height="5.95745" transform="rotate(-180 202.553 239.131)" fill="#F3F3F3"/>
<rect x="184.68" y="239.131" width="5.95745" height="5.95745" transform="rotate(-180 184.68 239.131)" fill="#F3F3F3"/>
<rect x="166.809" y="239.131" width="5.95745" height="5.95745" transform="rotate(-180 166.809 239.131)" fill="#F3F3F3"/>
<rect x="256.17" y="221.26" width="5.95745" height="5.95745" transform="rotate(-180 256.17 221.26)" fill="#F3F3F3"/>
<rect x="238.297" y="221.26" width="5.95745" height="5.95745" transform="rotate(-180 238.297 221.26)" fill="#F3F3F3"/>
<rect x="220.426" y="221.26" width="5.95745" height="5.95745" transform="rotate(-180 220.426 221.26)" fill="#F3F3F3"/>
<rect x="202.553" y="221.26" width="5.95745" height="5.95745" transform="rotate(-180 202.553 221.26)" fill="#F3F3F3"/>
<rect x="184.68" y="221.26" width="5.95745" height="5.95745" transform="rotate(-180 184.68 221.26)" fill="#F3F3F3"/>
<rect x="166.809" y="221.26" width="5.95745" height="5.95745" transform="rotate(-180 166.809 221.26)" fill="#F3F3F3"/>
<rect x="148.936" y="221.26" width="5.95745" height="5.95745" transform="rotate(-180 148.936 221.26)" fill="#F3F3F3"/>
<rect x="256.17" y="203.391" width="5.95745" height="5.95745" transform="rotate(-180 256.17 203.391)" fill="#F3F3F3"/>
<rect x="238.297" y="203.391" width="5.95745" height="5.95745" transform="rotate(-180 238.297 203.391)" fill="#F3F3F3"/>
<rect x="220.426" y="203.391" width="5.95745" height="5.95745" transform="rotate(-180 220.426 203.391)" fill="#F3F3F3"/>
<rect x="202.553" y="203.391" width="5.95745" height="5.95745" transform="rotate(-180 202.553 203.391)" fill="#F3F3F3"/>
<rect x="184.68" y="203.391" width="5.95745" height="5.95745" transform="rotate(-180 184.68 203.391)" fill="#F3F3F3"/>
<rect x="166.809" y="203.391" width="5.95745" height="5.95745" transform="rotate(-180 166.809 203.391)" fill="#F3F3F3"/>
<rect x="148.936" y="203.391" width="5.95745" height="5.95745" transform="rotate(-180 148.936 203.391)" fill="#F3F3F3"/>
<rect width="5.95745" height="5.95745" transform="matrix(1 0 0 -1 125.105 203.391)" fill="#F3F3F3"/>
<rect width="5.95745" height="5.95745" transform="matrix(1 0 0 -1 0 185.521)" fill="#F3F3F3"/>
<rect width="5.95745" height="5.95745" transform="matrix(1 0 0 -1 17.873 185.521)" fill="#F3F3F3"/>
<rect width="5.95745" height="5.95745" transform="matrix(1 0 0 -1 35.7441 185.521)" fill="#F3F3F3"/>
<rect width="5.95745" height="5.95745" transform="matrix(1 0 0 -1 53.6172 185.521)" fill="#F3F3F3"/>
<rect width="5.95745" height="5.95745" transform="matrix(1 0 0 -1 71.4883 185.521)" fill="#F3F3F3"/>
<rect width="5.95745" height="5.95745" transform="matrix(1 0 0 -1 89.3613 185.521)" fill="#F3F3F3"/>
<rect width="5.95745" height="5.95745" transform="matrix(1 0 0 -1 107.234 185.521)" fill="#F3F3F3"/>
<rect x="256.17" y="185.521" width="5.95745" height="5.95745" transform="rotate(-180 256.17 185.521)" fill="#F3F3F3"/>
<rect x="238.297" y="185.521" width="5.95745" height="5.95745" transform="rotate(-180 238.297 185.521)" fill="#F3F3F3"/>
<rect x="220.426" y="185.521" width="5.95745" height="5.95745" transform="rotate(-180 220.426 185.521)" fill="#F3F3F3"/>
<rect x="202.553" y="185.521" width="5.95745" height="5.95745" transform="rotate(-180 202.553 185.521)" fill="#F3F3F3"/>
<rect x="184.68" y="185.521" width="5.95745" height="5.95745" transform="rotate(-180 184.68 185.521)" fill="#F3F3F3"/>
<rect x="166.809" y="185.521" width="5.95745" height="5.95745" transform="rotate(-180 166.809 185.521)" fill="#F3F3F3"/>
<rect x="148.936" y="185.521" width="5.95745" height="5.95745" transform="rotate(-180 148.936 185.521)" fill="#F3F3F3"/>
<rect width="5.95745" height="5.95745" transform="matrix(1 0 0 -1 125.105 185.521)" fill="#F3F3F3"/>
<rect width="5.95745" height="5.95745" transform="matrix(1 0 0 -1 17.873 167.652)" fill="#F3F3F3"/>
<rect width="5.95745" height="5.95745" transform="matrix(1 0 0 -1 35.7441 167.652)" fill="#F3F3F3"/>
<rect width="5.95745" height="5.95745" transform="matrix(1 0 0 -1 53.6172 167.652)" fill="#F3F3F3"/>
<rect width="5.95745" height="5.95745" transform="matrix(1 0 0 -1 71.4883 167.652)" fill="#F3F3F3"/>
<rect width="5.95745" height="5.95745" transform="matrix(1 0 0 -1 89.3613 167.652)" fill="#F3F3F3"/>
<rect width="5.95745" height="5.95745" transform="matrix(1 0 0 -1 107.234 167.652)" fill="#F3F3F3"/>
<rect x="238.297" y="167.652" width="5.95745" height="5.95745" transform="rotate(-180 238.297 167.652)" fill="#F3F3F3"/>
<rect x="220.426" y="167.652" width="5.95745" height="5.95745" transform="rotate(-180 220.426 167.652)" fill="#F3F3F3"/>
<rect x="202.553" y="167.652" width="5.95745" height="5.95745" transform="rotate(-180 202.553 167.652)" fill="#F3F3F3"/>
<rect x="184.68" y="167.652" width="5.95745" height="5.95745" transform="rotate(-180 184.68 167.652)" fill="#F3F3F3"/>
<rect x="166.809" y="167.652" width="5.95745" height="5.95745" transform="rotate(-180 166.809 167.652)" fill="#F3F3F3"/>
<rect x="148.936" y="167.652" width="5.95745" height="5.95745" transform="rotate(-180 148.936 167.652)" fill="#F3F3F3"/>
<rect width="5.95745" height="5.95745" transform="matrix(1 0 0 -1 125.105 167.652)" fill="#F3F3F3"/>
<rect width="5.95745" height="5.95745" transform="matrix(1 0 0 -1 35.7441 149.782)" fill="#F3F3F3"/>
<rect width="5.95745" height="5.95745" transform="matrix(1 0 0 -1 53.6172 149.782)" fill="#F3F3F3"/>
<rect width="5.95745" height="5.95745" transform="matrix(1 0 0 -1 71.4883 149.782)" fill="#F3F3F3"/>
<rect width="5.95745" height="5.95745" transform="matrix(1 0 0 -1 89.3613 149.782)" fill="#F3F3F3"/>
<rect width="5.95745" height="5.95745" transform="matrix(1 0 0 -1 107.234 149.782)" fill="#F3F3F3"/>
<rect x="220.426" y="149.782" width="5.95745" height="5.95745" transform="rotate(-180 220.426 149.782)" fill="#F3F3F3"/>
<rect x="202.553" y="149.782" width="5.95745" height="5.95745" transform="rotate(-180 202.553 149.782)" fill="#F3F3F3"/>
<rect x="184.68" y="149.782" width="5.95745" height="5.95745" transform="rotate(-180 184.68 149.782)" fill="#F3F3F3"/>
<rect x="166.809" y="149.782" width="5.95745" height="5.95745" transform="rotate(-180 166.809 149.782)" fill="#F3F3F3"/>
<rect x="148.936" y="149.782" width="5.95745" height="5.95745" transform="rotate(-180 148.936 149.782)" fill="#F3F3F3"/>
<rect width="5.95745" height="5.95745" transform="matrix(1 0 0 -1 125.105 149.782)" fill="#F3F3F3"/>
</svg>
