<svg width="201" height="47" viewBox="0 0 201 47" fill="none" xmlns="http://www.w3.org/2000/svg">
<path d="M152.611 27.3398H156.585V28.4926H154.304V37.174H156.585V38.3267H152.611V27.3398Z" fill="#DA0100" stroke="#DA0100" stroke-width="0.5" stroke-miterlimit="10"/>
<path d="M158.389 28.0967H164.165V29.9338H160.633V31.2306H163.65V33.0678H160.633V34.5447H164.275V36.3818H158.389V28.0967Z" fill="#DA0100" stroke="#DA0100" stroke-width="0.5" stroke-miterlimit="10"/>
<path d="M166.299 33.1758V28.0967H168.543V33.428C168.543 34.1484 168.764 34.6528 169.5 34.6528C170.236 34.6528 170.456 34.1484 170.456 33.428V28.0967H172.627V33.1758C172.627 35.2651 171.707 36.5619 169.5 36.5619C167.255 36.5619 166.299 35.2651 166.299 33.1758Z" fill="#DA0100" stroke="#DA0100" stroke-width="0.5" stroke-miterlimit="10"/>
<path d="M180.209 34.6539H182.38V30.4753H180.54V29.1065C181.717 28.9263 182.306 28.7102 182.968 28.314H184.624V34.6539H186.39V36.419H180.209V34.6539Z" fill="#DA0100"/>
<path d="M188.226 35.5174L189.403 34.2206C189.734 34.5088 190.249 34.797 190.801 34.797C191.758 34.797 192.567 34.1486 192.567 32.2033C192.567 30.1861 191.795 29.7898 191.243 29.7898C190.691 29.7898 190.176 30.042 190.176 30.9065C190.176 31.627 190.617 31.8791 191.206 31.8791C191.648 31.8791 192.126 31.663 192.567 31.1227L192.678 32.4915C192.089 33.0679 191.28 33.4281 190.728 33.4281C189.33 33.4281 188.152 32.6716 188.152 30.9065C188.152 29.1414 189.587 28.1328 191.206 28.1328C192.862 28.1328 194.628 29.2495 194.628 32.2033C194.628 35.1572 192.862 36.5621 191.022 36.5621C189.734 36.5621 188.778 36.0577 188.226 35.5174Z" fill="#DA0100"/>
<path d="M196.062 37.2115H198.343V28.5302H196.062V27.3774H199.999V38.3643H196.025V37.2115H196.062Z" fill="#DA0100" stroke="#DA0100" stroke-width="0.5" stroke-miterlimit="10"/>
<path d="M54.0845 20.2788V7.05859H33.812L27.0423 13.6507L20.3093 7.05859H0V20.2788L6.76976 26.9069L0 33.535V46.6832H20.3093L27.0423 40.0551L33.812 46.6832H54.0845V33.535L47.3515 26.9069L54.0845 20.2788Z" fill="#DA0100"/>
<path d="M41.0999 38.7944L33.8151 31.662L26.5302 38.7944H8.06055V27.4114L15.3454 20.2789L8.06055 13.1465V1.69141H26.5302L33.8151 8.82384L41.0999 1.69141H59.5696V13.1465L52.2847 20.2789L59.5696 27.4114V38.7944H41.0999Z" fill="white"/>
<path d="M58.2805 2.95272V12.6067L52.2834 18.5144L50.4806 20.2795L52.2834 22.0446L58.2805 27.9162V37.4982H41.6505L35.6533 31.6265L33.8505 29.8614L32.0477 31.6265L25.977 37.5342H9.34694V27.9522L15.3441 22.0806L17.1469 20.3155L15.3441 18.5144L9.34694 12.6067V2.95272H25.977L31.9741 8.82437L33.7769 10.5895L35.5798 8.82437L41.5769 2.95272H58.2805ZM60.856 0.431152H40.5835L33.8137 7.05927L27.044 0.431152H6.77148V13.6514L13.5412 20.2795L6.77148 26.9076V40.0558H27.044L33.8137 33.4277L40.5835 40.0558H60.856V26.9076L54.0862 20.2795L60.856 13.6514V0.431152Z" fill="#DA0100"/>
<path d="M26.0855 18.4424H22.4062V22.0446H26.0855V18.4424Z" fill="black"/>
<path d="M35.6519 18.4424H31.9727V22.0446H35.6519V18.4424Z" fill="black"/>
<path d="M45.2183 18.4424H41.5391V22.0446H45.2183V18.4424Z" fill="black"/>
<path d="M45.2144 18.4429H41.5352V22.0451H45.2144V18.4429Z" fill="black"/>
<path d="M74.1758 11.3812C74.1758 7.77897 76.5673 5.76172 79.5106 5.76172C80.9088 5.76172 82.0861 6.41012 82.8587 7.13057L81.2767 8.85964C80.7616 8.42737 80.2465 8.17522 79.5106 8.17522C78.1493 8.17522 77.1192 9.32793 77.1192 11.2731C77.1192 13.2904 78.1493 14.4071 79.621 14.4071C80.3201 14.4071 80.9455 14.0469 81.3871 13.5425L83.0059 15.2716C82.0861 16.3163 80.8352 16.8566 79.3267 16.8566C76.6409 16.8566 74.1758 15.0555 74.1758 11.3812Z" fill="black"/>
<path d="M86.6132 13.2907V7.41905H84.1113V5.22168H89.5198V13.3627C89.5198 14.2993 90.182 14.5875 90.7707 14.5875C91.1386 14.5875 91.5066 14.5155 91.9848 14.3714L92.6103 16.4607C91.6905 16.7128 91.1018 16.8929 89.9981 16.8929C87.7538 16.8569 86.6132 15.416 86.6132 13.2907Z" fill="black"/>
<path d="M94.1875 12.5356C94.1875 9.79788 96.3215 8.21289 98.529 8.21289C100.737 8.21289 102.87 9.79788 102.87 12.5356C102.87 15.2733 100.737 16.8583 98.529 16.8583C96.3215 16.8583 94.1875 15.2733 94.1875 12.5356ZM99.9271 12.5356C99.9271 11.2748 99.5224 10.4823 98.5658 10.4823C97.6092 10.4823 97.2045 11.2748 97.2045 12.5356C97.2045 13.7964 97.6092 14.5889 98.5658 14.5889C99.5224 14.5889 99.9271 13.7964 99.9271 12.5356Z" fill="black"/>
<path d="M104.529 13.5074V8.42822H107.436V13.1472C107.436 14.0837 107.62 14.48 108.392 14.48C108.871 14.48 109.202 14.3359 109.643 13.7595V8.42822H112.55V16.6413H110.195L110.011 15.5607H109.938C109.239 16.3531 108.392 16.8575 107.215 16.8575C105.302 16.8575 104.529 15.5607 104.529 13.5074Z" fill="black"/>
<path d="M114.352 12.5346C114.352 9.83292 116.081 8.21192 117.847 8.21192C118.73 8.21192 119.318 8.50009 119.797 9.04043H119.87L119.723 7.85169V5.18604H122.63V16.6412H120.275L120.091 15.8847H120.018C119.429 16.461 118.619 16.8213 117.847 16.8213C115.75 16.8573 114.352 15.2003 114.352 12.5346ZM119.76 13.9755V10.9496C119.429 10.6614 119.061 10.5534 118.656 10.5534C117.957 10.5534 117.295 11.0937 117.295 12.5346C117.295 14.0115 117.773 14.5879 118.619 14.5879C119.098 14.5519 119.466 14.4078 119.76 13.9755Z" fill="black"/>
<path d="M124.73 17.4697H132.788V19.559H124.73V17.4697Z" fill="black"/>
<path d="M134.809 5.97949H137.715L139.555 10.7344L140.438 13.1479H140.511C140.364 11.9952 140.107 10.3742 140.107 9.07742V5.97949H142.866V16.6781H139.959L138.12 11.8872L137.237 9.50969H137.163C137.31 10.7344 137.568 12.2834 137.568 13.5802V16.6781H134.809V5.97949Z" fill="black"/>
<path d="M144.781 14.3349C144.781 12.4977 146.253 11.5251 150.079 11.345C149.969 10.7686 149.417 10.4805 148.46 10.4805C147.761 10.4805 147.062 10.6966 146.032 11.1649L145.039 9.32774C146.327 8.64332 147.614 8.24707 149.049 8.24707C151.441 8.24707 152.986 9.39979 152.986 12.1015V16.6763H150.631L150.447 15.8118H150.374C149.564 16.3881 148.571 16.8564 147.504 16.8564C145.775 16.8564 144.781 15.6677 144.781 14.3349ZM150.116 14.0467V13.002C148.056 13.0741 147.577 13.5424 147.577 14.0827C147.577 14.4789 147.872 14.6591 148.497 14.6591C149.123 14.6951 149.638 14.4069 150.116 14.0467Z" fill="black"/>
<path d="M156.701 13.1821V10.6606H154.678V8.57126L156.812 8.4632L157.18 6.01367H159.571V8.42717H162.882V10.6245H159.571V13.1101C159.571 14.2628 160.123 14.623 161.19 14.623C161.779 14.623 162.257 14.515 162.735 14.3709L163.25 16.4241C162.514 16.6043 161.595 16.8564 160.454 16.8564C157.695 16.8564 156.701 15.3795 156.701 13.1821Z" fill="black"/>
<path d="M168.474 10.6256H165.273V8.42822H171.344V16.6413H168.438V10.6256H168.474Z" fill="black"/>
<path d="M174.508 8.42822H177.414L178.518 12.0305C178.776 12.859 178.96 13.7235 179.217 14.588H179.291C179.512 13.6875 179.732 12.859 179.99 12.0305L181.094 8.42822H183.853L180.873 16.6773H177.562L174.508 8.42822Z" fill="black"/>
<path d="M185.031 12.5346C185.031 9.83292 187.165 8.21191 189.446 8.21191C192.095 8.21191 193.457 9.97701 193.457 12.1744C193.457 12.6787 193.383 13.147 193.346 13.3631H187.239V11.526H191.323L190.918 12.0303C190.918 10.9496 190.476 10.3372 189.557 10.3372C188.453 10.3372 187.827 11.0217 187.827 12.4986C187.827 14.0475 188.6 14.6599 190.145 14.6599C190.808 14.6599 191.433 14.4798 192.169 14.1556L193.126 15.8487C192.132 16.461 190.808 16.7852 189.777 16.7852C187.092 16.8573 185.031 15.2723 185.031 12.5346Z" fill="black"/>
<path d="M74.3239 25.7188H78.371C80.7257 25.7188 82.7493 26.5112 82.7493 29.1769C82.7493 31.7705 80.7257 32.8152 78.371 32.8152H77.1937V36.4174H74.2871V25.7188H74.3239ZM78.1871 30.5818C79.3276 30.5818 79.9163 30.0775 79.9163 29.1769C79.9163 28.2763 79.3276 27.9521 78.1871 27.9521H77.2305V30.5818H78.1871ZM79.8059 30.1855L83.338 36.3814H80.1003L77.8191 32.0587L79.8059 30.1855Z" fill="black"/>
<path d="M84.2559 32.2734C84.2559 29.5717 86.3898 27.9507 88.6709 27.9507C91.32 27.9507 92.6813 29.7158 92.6813 31.9131C92.6813 32.4175 92.6077 32.8857 92.5709 33.1019H86.4634V31.2647H90.5473L90.1426 31.7691C90.1426 30.6884 89.7011 30.076 88.7813 30.076C87.6775 30.076 87.0521 30.7604 87.0521 32.2373C87.0521 33.7863 87.8247 34.3987 89.37 34.3987C90.0322 34.3987 90.6577 34.2186 91.3935 33.8944L92.3501 35.5874C91.3567 36.1998 90.0322 36.524 89.002 36.524C86.3162 36.596 84.2559 35.0111 84.2559 32.2734Z" fill="black"/>
<path d="M94.1172 38.9382L94.9266 36.9209C95.6257 37.2091 96.104 37.2812 96.5455 37.2812C97.5756 37.2812 97.9068 36.8489 97.9068 35.7322V30.3648H94.7059V28.1675H100.777V35.6241C100.777 37.6414 99.8936 39.4785 96.7294 39.4785C95.6992 39.4785 94.853 39.2624 94.1172 38.9382Z" fill="black"/>
<path d="M104.42 32.2734C104.42 29.5717 106.554 27.9507 108.835 27.9507C111.484 27.9507 112.845 29.7158 112.845 31.9131C112.845 32.4175 112.772 32.8857 112.735 33.1019H106.627V31.2647H110.711L110.307 31.7691C110.307 30.6884 109.865 30.076 108.945 30.076C107.842 30.076 107.216 30.7604 107.216 32.2373C107.216 33.7863 107.989 34.3987 109.534 34.3987C110.196 34.3987 110.822 34.2186 111.558 33.8944L112.514 35.5874C111.521 36.1998 110.196 36.524 109.166 36.524C106.48 36.596 104.42 35.0111 104.42 32.2734Z" fill="black"/>
<path d="M114.719 24.9619H117.625V31.1217H117.699L120.238 28.2039H123.365L117.625 34.4358V36.4531H114.719V24.9619ZM118.324 32.9229L119.98 31.1938L123.586 36.417H120.458L118.324 32.9229Z" fill="black"/>
<path d="M126.459 32.9233V30.4018H124.436V28.3125L126.569 28.2044L126.937 25.7549H129.329V28.2044H132.64V30.4018H129.329V32.8873C129.329 34.04 129.881 34.4002 130.948 34.4002C131.536 34.4002 132.015 34.2922 132.493 34.1481L133.008 36.2014C132.272 36.3815 131.352 36.6336 130.212 36.6336C127.452 36.5976 126.459 35.1207 126.459 32.9233Z" fill="black"/>
<path d="M134.584 35.3368L135.798 33.6078C136.865 34.2202 138.006 34.5444 139.073 34.5444C139.808 34.5444 140.103 34.3642 140.103 34.04C140.103 33.6438 139.661 33.5718 138.263 33.2836C135.945 32.7793 135.099 31.9507 135.099 30.6539C135.099 29.0329 136.644 27.9883 139.109 27.9883C140.692 27.9883 141.942 28.6007 142.825 29.141L141.538 30.834C140.655 30.3297 139.698 30.0776 138.815 30.0776C138.263 30.0776 137.932 30.2577 137.932 30.5459C137.932 30.9061 138.374 30.9421 139.661 31.2303C142.163 31.8067 142.936 32.5271 142.936 33.896C142.936 35.4449 141.427 36.6337 138.631 36.6337C137.233 36.5976 135.651 36.0213 134.584 35.3368Z" fill="black"/>
<path d="M100.813 23.666H97.6855V26.7279H100.813V23.666Z" fill="black"/>
<path d="M171.342 3.92529H168.215V6.9872H171.342V3.92529Z" fill="black"/>
<path d="M178.112 28.0605H174.984V31.1224H178.112V28.0605Z" fill="#DA0100"/>
</svg>
