<svg id="Layer_1" data-name="Layer 1" xmlns="http://www.w3.org/2000/svg" viewBox="0 0 200.3 47.3"><defs><style>.cls-1,.cls-2{fill:red;}.cls-2{stroke:red;stroke-miterlimit:10;stroke-width:0.5px;}.cls-3{fill:#fff;}</style></defs><title>EU Rejekts (White background)Origin</title><path class="cls-1" d="M158.4,28h6.2v2.1h-3.8v1.4h3.3v2h-3.3v1.6h4v2h-6.4Z"/><path class="cls-1" d="M166.5,33.6V28h2.4v5.9c0,.8.2,1.3,1,1.3s1-.5,1-1.3V28h2.3v5.6c0,2.3-.9,3.7-3.3,3.7S166.5,35.9,166.5,33.6Z"/><path class="cls-2" d="M152.6,27.5h4v1.2h-2.3v8.9h2.3v1.1h-4Z"/><path class="cls-1" d="M180.2,35h2.2V30.7h-1.9V29.3a7.3,7.3,0,0,0,2.5-.8h1.6V35h1.8v1.8h-6.2Z"/><path class="cls-1" d="M188.2,35.9l1.2-1.4a2,2,0,0,0,1.4.6c.9,0,1.8-.6,1.8-2.6s-.8-2.5-1.4-2.5a1,1,0,0,0-1,1.1.8.8,0,0,0,.8,1h.2a1.6,1.6,0,0,0,1.3-.8v1.5a3.4,3.4,0,0,1-1.9.9,2.4,2.4,0,0,1-2.6-2.6,2.8,2.8,0,0,1,3.1-2.8c1.6,0,3.4,1.1,3.4,4.2s-1.8,4.4-3.6,4.4A4.8,4.8,0,0,1,188.2,35.9Z"/><path class="cls-2" d="M196.1,37.6h2.2V28.7h-2.2V27.5H200V38.7h-3.9Z"/><polygon class="cls-1" points="54.1 20.3 54.1 6.8 33.8 6.8 27.1 13.5 20.3 6.8 0 6.8 0 20.3 6.8 27.1 0 33.8 0 47.2 20.3 47.2 27.1 40.5 33.8 47.2 54.1 47.2 54.1 33.8 47.4 27.1 54.1 20.3"/><polygon class="cls-3" points="41.1 39.2 33.8 31.9 26.6 39.2 8.1 39.2 8.1 27.6 15.4 20.3 8.1 13 8.1 1.3 26.6 1.3 33.8 8.6 41.1 1.3 59.6 1.3 59.6 13 52.3 20.3 59.6 27.6 59.6 39.2 41.1 39.2"/><path class="cls-1" d="M58.3,2.6v9.9l-6,6-1.8,1.8,1.8,1.8,6,6v9.8H41.7l-6-6-1.9-1.8L32,31.9l-6,6H9.4V28.1l6-6,1.8-1.8-1.8-1.8-6-6V2.6H26l6,6,1.9,1.8,1.8-1.8,6-6H58.3M60.9,0H40.6L33.8,6.8,27.1,0H6.8V13.5l6.8,6.8L6.8,27.1V40.5H27.1l6.7-6.8,6.8,6.8H60.9V27.1l-6.8-6.8,6.8-6.8Z"/><rect x="22.4" y="18.4" width="3.7" height="3.69"/><rect x="32" y="18.4" width="3.7" height="3.69"/><rect x="41.6" y="18.4" width="3.7" height="3.69"/><rect x="41.6" y="18.4" width="3.7" height="3.69"/><path d="M74.2,11.2c0-3.6,2.4-5.7,5.4-5.7a4.7,4.7,0,0,1,3.3,1.4L81.3,8.7A2.2,2.2,0,0,0,79.6,8c-1.4,0-2.4,1.1-2.4,3.1s1,3.2,2.5,3.2a2.3,2.3,0,0,0,1.8-.9L83,15.2a4.8,4.8,0,0,1-3.6,1.6C76.7,16.8,74.2,14.9,74.2,11.2Z"/><path d="M86.6,13.1V7.2H84.1V4.9h5.4v8.3a1.2,1.2,0,0,0,1.1,1.3h.2a2.7,2.7,0,0,0,1.2-.3l.6,2.2a10.9,10.9,0,0,1-2.6.4C87.8,16.8,86.6,15.3,86.6,13.1Z"/><path d="M94.2,12.4a4.4,4.4,0,0,1,4.4-4.3,4.3,4.3,0,0,1,4.3,4.3h0a4.3,4.3,0,0,1-4.3,4.3,4.4,4.4,0,0,1-4.4-4.3Zm5.7,0c0-1.3-.4-2.1-1.3-2.1s-1.4.8-1.4,2.1.4,2.1,1.3,2.1S99.9,13.7,99.9,12.4Z"/><path d="M104.5,13.4V8.2h2.9V13c0,.9.2,1.3,1,1.3a1.2,1.2,0,0,0,1.2-.7V8.2h2.9v8.4h-2.3l-.2-1.1h-.1a3.7,3.7,0,0,1-2.7,1.3C105.3,16.8,104.5,15.5,104.5,13.4Z"/><path d="M114.4,12.4c0-2.8,1.7-4.4,3.5-4.4a3,3,0,0,1,2,.8h0V4.9h2.9V16.6h-2.4l-.2-.8h0a3.7,3.7,0,0,1-2.2,1C115.8,16.8,114.4,15.1,114.4,12.4Zm5.4,1.4V10.7a2.1,2.1,0,0,0-1.1-.4c-.7,0-1.4.6-1.4,2.1s.5,2,1.4,2A1.1,1.1,0,0,0,119.8,13.8Z"/><path d="M124.8,17.4h8v2.1h-8Z"/><path d="M134.8,5.7h3l1.8,4.8.9,2.5h.1a30.1,30.1,0,0,1-.5-4.2V5.7h2.8V16.6H140l-1.9-4.9-.8-2.4h-.1c.2,1.3.3,2.7.4,4.1v3.2h-2.7Z"/><path d="M144.8,14.2c0-1.9,1.5-2.8,5.3-3-.1-.7-.6-.9-1.6-.9a5.3,5.3,0,0,0-2.4.7l-1-1.9a8,8,0,0,1,4-1.1c2.4,0,3.9,1.2,3.9,3.9v4.7h-2.3l-.2-.9h-.1a4.9,4.9,0,0,1-2.9,1.1A2.5,2.5,0,0,1,144.8,14.2Zm5.3-.3v-1c-2,0-2.5.5-2.5,1.1s.3.6.9.6A2.9,2.9,0,0,0,150.1,13.9Z"/><path d="M156.7,13V10.5h-2V8.3h2.1l.4-2.5h2.4V8.2h3.3v2.2h-3.3V13c0,1.2.5,1.5,1.6,1.5l1.5-.2.6,2.1a14.5,14.5,0,0,1-2.8.4C157.7,16.8,156.7,15.3,156.7,13Z"/><path d="M168.5,10.4h-3.2V8.2h6.1v8.4h-2.9Z"/><path d="M174.5,8.2h2.9l1.1,3.7a19.7,19.7,0,0,1,.7,2.6h.1a19.7,19.7,0,0,1,.7-2.6l1.1-3.7h2.7l-2.9,8.4h-3.3Z"/><path d="M185.1,12.4A4.2,4.2,0,0,1,189.3,8h.2a3.8,3.8,0,0,1,4,4c0,.5-.1.9-.1,1.3h-6.2V11.4h4.2l-.4.5c0-1.1-.5-1.7-1.4-1.7s-1.7.7-1.7,2.2.7,2.2,2.3,2.2a4.6,4.6,0,0,0,2-.5l.9,1.7a6.7,6.7,0,0,1-3.3,1C187.1,16.8,185.1,15.2,185.1,12.4Z"/><path d="M74.4,25.8h4c2.4,0,4.4.8,4.4,3.6s-2,3.7-4.4,3.7H77.2v3.6H74.4Zm3.8,5c1.2,0,1.8-.5,1.8-1.4s-.6-1.3-1.8-1.3h-1v2.7Zm1.7-.4,3.5,6.4H80.2l-2.3-4.4Z"/><path d="M84.3,32.5a4.3,4.3,0,0,1,4.2-4.4h.2a3.8,3.8,0,0,1,4,4.1,4.9,4.9,0,0,1-.1,1.2H86.5V31.5h4.1l-.4.5c0-1.1-.5-1.7-1.4-1.7s-1.7.7-1.7,2.2.8,2.2,2.3,2.2a3.5,3.5,0,0,0,2-.5l1,1.8a6.7,6.7,0,0,1-3.4.9C86.3,36.9,84.3,35.3,84.3,32.5Z"/><path d="M94.1,39.3l.9-2,1.6.4c1,0,1.4-.5,1.4-1.6V30.6H94.8V28.3h6.1V36c0,2-.9,3.9-4.1,3.9A6.6,6.6,0,0,1,94.1,39.3Z"/><path d="M104.4,32.5a4.5,4.5,0,0,1,4.2-4.4h.3c2.6,0,3.9,1.8,3.9,4.1a4.9,4.9,0,0,1-.1,1.2h-6.1V31.5h4.1l-.4.5c0-1.1-.4-1.7-1.4-1.7s-1.7.7-1.7,2.2.8,2.2,2.3,2.2a4.1,4.1,0,0,0,2.1-.5l.9,1.8a6.7,6.7,0,0,1-3.4.9C106.5,36.9,104.4,35.3,104.4,32.5Z"/><path d="M114.8,25.1h2.8v6.2h.1l2.6-3h3.1l-5.8,6.4v2h-2.8Zm3.5,8.1,1.7-1.8,3.6,5.3h-3.1Z"/><path d="M126.5,33.2V30.6h-2V28.5l2.1-.2.4-2.5h2.4v2.5h3.3v2.3h-3.3v2.5c0,1.2.5,1.6,1.6,1.6a4,4,0,0,0,1.5-.3l.5,2.1a8.6,8.6,0,0,1-2.8.4C127.5,36.9,126.5,35.4,126.5,33.2Z"/><path d="M134.6,35.7l1.2-1.8a6.3,6.3,0,0,0,3.3.9c.8,0,1.1-.2,1.1-.5s-.5-.4-1.9-.7-3.1-1.4-3.1-2.7,1.5-2.8,4-2.8a8.1,8.1,0,0,1,3.7,1.2L141.6,31a6.4,6.4,0,0,0-2.7-.7c-.6,0-.9.1-.9.4s.4.4,1.8.7,3.2,1.4,3.2,2.8-1.5,2.7-4.3,2.7A7.5,7.5,0,0,1,134.6,35.7Z"/><rect x="97.7" y="23.7" width="3.1" height="3.13"/><rect x="168.2" y="3.6" width="3.1" height="3.13"/><rect class="cls-1" x="175" y="28.2" width="3.1" height="3.13"/></svg>