<svg width="40" height="28" viewBox="0 0 40 28" fill="none" xmlns="http://www.w3.org/2000/svg">
<path d="M7.18342 3.84628C6.28522 3.84628 6.28522 2.5201 7.18342 2.5201H8.20993C8.97982 2.5201 8.97982 3.84628 8.20993 3.84628H7.18342ZM9.87802 3.84628C8.97982 3.84628 8.97982 2.5201 9.87802 2.5201H12.8292C13.5991 2.5201 13.5991 3.84628 12.8292 3.84628H9.87802ZM14.4973 3.84628C13.5991 3.84628 13.5991 2.5201 14.4973 2.5201H17.4486C18.2185 2.5201 18.2185 3.84628 17.4486 3.84628H14.4973ZM19.1167 3.84628C18.2185 3.84628 18.2185 2.5201 19.1167 2.5201H22.0679C22.8378 2.5201 22.8378 3.84628 22.0679 3.84628H19.1167ZM23.736 3.84628C22.8378 3.84628 22.8378 2.5201 23.736 2.5201C24.8908 2.5201 25.789 2.38749 26.9438 3.05058C27.7137 3.44843 27.0721 4.50937 26.3023 4.11152C25.5324 3.71367 24.6342 3.84628 23.736 3.84628ZM27.842 5.57032C27.3288 4.90723 28.3553 4.11152 28.8685 4.90723C30.1517 7.02912 30.1517 10.0793 28.8685 12.3338C28.3553 12.9969 27.3288 12.3338 27.842 11.6708C28.8685 9.8141 28.8685 7.29435 27.842 5.57032ZM26.3023 12.9969C27.0721 12.5991 27.7137 13.7926 26.9438 14.1905C25.789 14.721 24.8908 14.721 23.736 14.721C22.8378 14.721 22.8378 13.3948 23.736 13.3948C24.6342 13.3948 25.5324 13.5274 26.3023 12.9969ZM22.0679 13.3948C22.8378 13.3948 22.8378 14.721 22.0679 14.721H19.1167C18.2185 14.721 18.2185 13.3948 19.1167 13.3948H22.0679ZM17.4486 13.3948C18.2185 13.3948 18.2185 14.721 17.4486 14.721H14.4973C13.5991 14.721 13.5991 13.3948 14.4973 13.3948H17.4486ZM12.7009 13.3948C13.4708 13.2622 13.7274 14.4557 12.9576 14.721C11.1612 15.1188 10.1346 16.9755 9.87802 18.8321C9.7497 19.6278 8.59487 19.4952 8.72319 18.5669C8.97982 16.3124 10.3913 13.9253 12.7009 13.3948ZM8.72319 20.5562C8.59487 19.6278 9.7497 19.4952 9.87802 20.2909C10.1346 22.015 11.1612 24.0042 12.9576 24.4021C13.7274 24.5347 13.4708 25.7283 12.7009 25.5956C10.3913 25.0652 8.97982 22.8107 8.72319 20.5562ZM14.4973 25.7283C13.5991 25.7283 13.5991 24.4021 14.4973 24.4021H17.4486C18.2185 24.4021 18.2185 25.7283 17.4486 25.7283H14.4973ZM19.1167 25.7283C18.2185 25.7283 18.2185 24.4021 19.1167 24.4021H22.0679C22.8378 24.4021 22.8378 25.7283 22.0679 25.7283H19.1167ZM23.736 25.7283C22.8378 25.7283 22.8378 24.4021 23.736 24.4021H26.6872C27.4571 24.4021 27.4571 25.7283 26.6872 25.7283H23.736ZM28.3553 25.7283C27.4571 25.7283 27.4571 24.4021 28.3553 24.4021H31.3065C32.0764 24.4021 32.0764 25.7283 31.3065 25.7283H28.3553ZM32.9746 25.7283C32.0764 25.7283 32.0764 24.4021 32.9746 24.4021H34.0011C34.771 24.4021 34.771 25.7283 34.0011 25.7283H32.9746Z" fill="#C4C4C4"/>
<path d="M39.0075 22.8106C39.5207 22.1475 40.4189 23.0759 39.7774 23.739L38.4942 24.9325L39.7774 26.2587C40.4189 26.9218 39.5207 27.8501 39.0075 27.187L37.7243 25.8609L36.4412 27.187C35.7996 27.8501 34.9014 26.9218 35.543 26.2587L36.8261 24.9325L35.543 23.739C34.9014 23.0759 35.7996 22.1475 36.4412 22.8106L37.7243 24.1368L39.0075 22.8106Z" fill="#C4C4C4"/>
<path fill-rule="evenodd" clip-rule="evenodd" d="M3.07954 0C4.87595 0 6.2874 1.4588 6.2874 3.18283C6.2874 5.03949 4.87595 6.49829 3.07954 6.49829C1.41146 6.49829 0 5.03949 0 3.18283C0 1.4588 1.41146 0 3.07954 0ZM3.07954 1.06094C4.23437 1.06094 5.26089 1.98927 5.26089 3.18283C5.26089 4.3764 4.23437 5.43734 3.07954 5.43734C1.92472 5.43734 1.02651 4.3764 1.02651 3.18283C1.02651 1.98927 1.92472 1.06094 3.07954 1.06094Z" fill="#C4C4C4"/>
</svg>
