<svg fill="none" xmlns="http://www.w3.org/2000/svg">
<path d="M12.7435 6.50057C11.1506 6.50057 11.1506 4.25902 12.7435 4.25902H14.5641C15.9294 4.25902 15.9294 6.50057 14.5641 6.50057H12.7435ZM17.5224 6.50057C15.9294 6.50057 15.9294 4.25902 17.5224 4.25902H22.7564C24.1217 4.25902 24.1217 6.50057 22.7564 6.50057H17.5224ZM25.7147 6.50057C24.1217 6.50057 24.1217 4.25902 25.7147 4.25902H30.9487C32.3141 4.25902 32.3141 6.50057 30.9487 6.50057H25.7147ZM33.907 6.50057C32.3141 6.50057 32.3141 4.25902 33.907 4.25902H39.141C40.5064 4.25902 40.5064 6.50057 39.141 6.50057H33.907ZM42.0993 6.50057C40.5064 6.50057 40.5064 4.25902 42.0993 4.25902C44.1474 4.25902 45.7403 4.03487 47.7884 5.15564C49.1538 5.8281 48.016 7.62134 46.6506 6.94888C45.2852 6.27641 43.6923 6.50057 42.0993 6.50057ZM49.3814 9.41458C48.4711 8.2938 50.2916 6.94888 51.2019 8.2938C53.4775 11.8803 53.4775 17.0358 51.2019 20.8465C50.2916 21.9672 48.4711 20.8465 49.3814 19.7257C51.2019 16.5875 51.2019 12.3286 49.3814 9.41458ZM46.6506 21.9672C48.016 21.2948 49.1538 23.3122 47.7884 23.9846C45.7403 24.8812 44.1474 24.8812 42.0993 24.8812C40.5064 24.8812 40.5064 22.6397 42.0993 22.6397C43.6923 22.6397 45.2852 22.8639 46.6506 21.9672ZM39.141 22.6397C40.5064 22.6397 40.5064 24.8812 39.141 24.8812H33.907C32.3141 24.8812 32.3141 22.6397 33.907 22.6397H39.141ZM30.9487 22.6397C32.3141 22.6397 32.3141 24.8812 30.9487 24.8812H25.7147C24.1217 24.8812 24.1217 22.6397 25.7147 22.6397H30.9487ZM22.5288 22.6397C23.8942 22.4155 24.3493 24.4329 22.9839 24.8812C19.798 25.5537 17.9775 28.6919 17.5224 31.83C17.2948 33.175 15.2467 32.9508 15.4743 31.3817C15.9294 27.5711 18.4326 23.5363 22.5288 22.6397ZM15.4743 34.744C15.2467 33.175 17.2948 32.9508 17.5224 34.2957C17.9775 37.2097 19.798 40.5721 22.9839 41.2445C24.3493 41.4687 23.8942 43.4861 22.5288 43.2619C18.4326 42.3653 15.9294 38.5547 15.4743 34.744ZM25.7147 43.4861C24.1217 43.4861 24.1217 41.2445 25.7147 41.2445H30.9487C32.3141 41.2445 32.3141 43.4861 30.9487 43.4861H25.7147ZM33.907 43.4861C32.3141 43.4861 32.3141 41.2445 33.907 41.2445H39.141C40.5064 41.2445 40.5064 43.4861 39.141 43.4861H33.907ZM42.0993 43.4861C40.5064 43.4861 40.5064 41.2445 42.0993 41.2445H47.3333C48.6987 41.2445 48.6987 43.4861 47.3333 43.4861H42.0993ZM50.2916 43.4861C48.6987 43.4861 48.6987 41.2445 50.2916 41.2445H55.5256C56.891 41.2445 56.891 43.4861 55.5256 43.4861H50.2916ZM58.4839 43.4861C56.891 43.4861 56.891 41.2445 58.4839 41.2445H60.3044C61.6698 41.2445 61.6698 43.4861 60.3044 43.4861H58.4839Z" fill="#C4C4C4"/>
<path d="M69.1802 38.5545C70.0905 37.4337 71.6834 39.0028 70.5456 40.1236L68.27 42.141L70.5456 44.3825C71.6834 45.5033 70.0905 47.0724 69.1802 45.9516L66.9046 43.7101L64.6289 45.9516C63.4911 47.0724 61.8981 45.5033 63.036 44.3825L65.3116 42.141L63.036 40.1236C61.8981 39.0028 63.4911 37.4337 64.6289 38.5545L66.9046 40.7961L69.1802 38.5545Z" fill="#C4C4C4"/>
<path fill-rule="evenodd" clip-rule="evenodd" d="M5.46154 0C8.64744 0 11.1506 2.4657 11.1506 5.37971C11.1506 8.51788 8.64744 10.9836 5.46154 10.9836C2.50321 10.9836 0 8.51788 0 5.37971C0 2.4657 2.50321 0 5.46154 0ZM5.46154 1.79324C7.50961 1.79324 9.33013 3.36232 9.33013 5.37971C9.33013 7.3971 7.50961 9.19034 5.46154 9.19034C3.41346 9.19034 1.82051 7.3971 1.82051 5.37971C1.82051 3.36232 3.41346 1.79324 5.46154 1.79324Z" fill="#C4C4C4"/>
</svg>
