<svg width="14px" height="17px" viewBox="0 0 14 17" version="1.1" xmlns="http://www.w3.org/2000/svg" xmlns:xlink="http://www.w3.org/1999/xlink">
   <path d="M0.796557568,9.78416702 C0.769227535,9.78416702 1.0961757,10.4676857 1.10528571,10.4676857 C1.81890323,11.72572 3.19451488,12.5077413 5.51503709,12.7247472 C5.18404003,12.9687539 4.78623622,13.4317665 4.73107004,13.9667811 C4.3145401,14.2282882 3.47692521,14.3147906 2.82606555,14.1152851 C1.91354612,13.8357775 1.56432904,12.0822297 0.198333521,12.3322365 C-0.0972357213,12.385738 -0.0385267623,12.5752431 0.217059654,12.7367475 C0.633589596,12.9982547 1.02532006,13.3257636 1.32746876,14.0222826 C1.55977403,14.5572972 2.04766573,15.5128232 3.59130646,15.5128232 C4.20370164,15.5128232 4.63288437,15.4413213 4.63288437,15.4413213 C4.63288437,15.4413213 4.64452494,16.8068585 4.64452494,17.337873 C4.64452494,17.9503897 3.79324504,18.1228944 3.79324504,18.4174025 C3.79324504,18.5339056 4.07514926,18.5449059 4.3013812,18.5449059 C4.74878395,18.5449059 5.6795234,18.1823961 5.6795234,17.5458787 C5.6795234,17.0403649 5.6881273,15.3408186 5.6881273,15.0428104 C5.6881273,14.3927927 6.0469605,14.1867871 6.0469605,14.1867871 C6.0469605,14.1867871 6.09149833,17.6568817 5.96142762,18.1228944 C5.80858189,18.6699093 5.532751,18.5924072 5.532751,18.8364139 C5.532751,19.1994238 6.65328234,18.9259163 7.02476834,18.1283946 C7.31173368,17.5088777 7.18621798,14.1032848 7.18621798,14.1032848 L7.49241556,14.0972846 C7.49241556,14.0972846 7.50962336,15.6558271 7.49899502,16.3683466 C7.48836667,17.1063667 7.43674327,18.0393922 7.88819492,18.4794042 C8.18477639,18.768912 9.14537643,19.2764259 9.14537643,18.8124132 C9.14537643,18.5429059 8.61902024,18.3213998 8.61902024,17.5918799 L8.61902024,14.2342884 C9.03959908,14.2342884 8.97633511,15.3383185 8.97633511,15.3383185 L9.00720793,17.3898744 C9.00720793,17.3898744 8.91408337,18.1368948 9.8397617,18.4494033 C10.1662038,18.5609064 10.8646379,18.5909072 10.8975352,18.4044021 C10.9304324,18.217897 10.0563775,17.9403895 10.0482797,17.3623737 C10.0432186,17.008864 10.0644753,16.8028584 10.0644753,15.2688166 C10.0644753,13.7347748 9.85241449,13.1677593 9.11298528,12.715747 C11.3945369,12.4882408 12.8070947,11.9402258 13.4949005,10.4726858 C13.5485483,10.4741858 13.7757925,9.7871671 13.7459319,9.7871671 C13.900296,9.23315199 13.9838044,8.57763411 14,7.80161295 C13.9959511,5.69655554 12.9584221,4.95203523 12.7595202,4.6025257 C13.053065,3.00898224 12.7099212,2.28396247 12.5510022,2.03495568 C11.9629003,1.83195014 10.5058047,2.55746993 9.70918488,3.06848387 C8.41151444,2.69997382 5.66737672,2.73547478 4.6384516,3.16348646 C2.74002656,1.84395047 1.7353948,2.04595598 1.7353948,2.04595598 C1.7353948,2.04595598 1.08605347,3.17548678 1.56382293,4.82853187 C0.939281072,5.60155295 0.473658294,6.14856787 0.473658294,7.5981074 C0.474164405,8.41512968 0.573362302,9.14614962 0.796557568,9.78416702 Z"></path>
</svg>