<?xml version="1.0" encoding="UTF-8"?>
<svg width="14px" height="15px" viewBox="0 0 14 15" version="1.1" xmlns="http://www.w3.org/2000/svg" xmlns:xlink="http://www.w3.org/1999/xlink">
    <!-- Generator: Sketch 52 (66869) - http://www.bohemiancoding.com/sketch -->
    <title>Shape</title>
    <desc>Created with Sketch.</desc>
    <g id="Symbols" stroke="none" stroke-width="1" fill="none" fill-rule="evenodd">
        <g id="Footer" transform="translate(-1064.000000, -217.000000)" fill="#12933C" fill-rule="nonzero">
            <g id="Social">
                <g transform="translate(676.000000, 215.000000)">
                    <g id="Linked" transform="translate(388.000000, 1.000000)">
                        <path d="M2.9247801,15.0614501 L2.9247801,5.76205367 L0.0875325429,5.76205367 L0.0875325429,15.0614501 L2.9247801,15.0614501 Z M2.9247801,2.46582651 C2.90788054,1.63362669 2.36038133,1 1.47095556,1 C0.581298329,1 0,1.63362669 0,2.46582651 C0,3.27995146 0.56439877,3.93190413 1.43692498,3.93190413 L1.45382454,3.93190413 C2.36038133,3.93190413 2.9247801,3.27995146 2.9247801,2.46582651 Z M7.55359049,15.0614503 L7.55359049,9.76310373 C7.55359049,9.47954445 7.57382178,9.19598521 7.65613273,8.99384397 C7.88117134,8.42700622 8.39332823,7.84023512 9.25329726,7.84023512 C10.3798761,7.84023512 11.0864067,8.4879293 11.0864067,9.76310363 L11.0864067,15.0614503 L13.9428028,15.0614503 L13.9428028,9.62132411 C13.9428028,6.70712114 12.4071637,5.35109028 10.3588134,5.35109028 C8.67933788,5.35109028 7.94214238,6.30227715 7.53280491,6.94969065 L7.55331332,5.70593523 L4.70185777,5.70593523 C4.74287463,6.59619892 4.70185777,15.0614503 4.70185777,15.0614503 L7.55359049,15.0614503 Z" id="Shape"></path>
                    </g>
                </g>
            </g>
        </g>
    </g>
</svg>