<?xml version="1.0" encoding="UTF-8"?>
<svg width="15px" height="13px" viewBox="0 0 15 13" version="1.1" xmlns="http://www.w3.org/2000/svg" xmlns:xlink="http://www.w3.org/1999/xlink">
    <!-- Generator: Sketch 52 (66869) - http://www.bohemiancoding.com/sketch -->
    <title>Shape</title>
    <desc>Created with Sketch.</desc>
    <g id="Symbols" stroke="none" stroke-width="1" fill="none" fill-rule="evenodd">
        <g id="Footer" transform="translate(-933.000000, -220.000000)" fill="#12933C">
            <g id="Social">
                <g transform="translate(676.000000, 215.000000)">
                    <g id="twitter" transform="translate(257.000000, 0.000000)">
                        <path d="M9.11367774,5.14382026 C7.79982724,5.62813173 6.96957807,6.87727927 7.06389037,8.24432845 L7.09549502,8.77183665 L6.56975415,8.70729567 C4.65692027,8.45980386 2.98538538,7.62026288 1.56618605,6.20950878 L0.872388704,5.5097219 L0.693797342,6.02655796 C0.31554485,7.17863993 0.557345515,8.39526288 1.34545515,9.2134596 C1.76584718,9.66575468 1.67103322,9.73029567 0.94613289,9.4609514 C0.693797342,9.37506616 0.473066445,9.31052517 0.451996678,9.34254157 C0.378754153,9.41826288 0.63058804,10.397558 0.830249169,10.7853121 C1.10365449,11.3240006 1.66049834,11.8510006 2.27051827,12.1635416 L2.78572425,12.4110334 L2.17620598,12.4217055 C1.58775748,12.4217055 1.56668771,12.4323776 1.62989701,12.6590334 C1.84009302,13.3588203 2.67034219,14.1018039 3.59540532,14.425017 L4.24706312,14.6506563 L3.67968439,14.9952137 C2.83890033,15.4912137 1.85062791,15.7707219 0.862355482,15.791558 C0.388787375,15.8022301 0,15.8454268 0,15.8779514 C0,15.9851809 1.28274751,16.5879022 2.02871761,16.8252301 C4.26763123,17.525017 6.92743854,17.2231481 8.9245515,16.0283776 C10.3437508,15.1776563 11.7624485,13.487394 12.4251429,11.8504924 C12.7828272,10.978935 13.14001,9.38523009 13.14001,8.62141042 C13.14001,8.12591862 13.1716146,8.06137763 13.7600631,7.46932845 C14.1072126,7.12477108 14.4327907,6.74819731 14.496,6.6404596 C14.6013488,6.43565632 14.5903123,6.43565632 14.0545382,6.61860714 C13.1610797,6.94182026 13.0346611,6.89862354 13.4766246,6.41431206 C13.8022027,6.06975468 14.1914917,5.44518091 14.1914917,5.26223009 C14.1914917,5.2302137 14.0339701,5.28357435 13.8548771,5.38063993 C13.6657508,5.48837763 13.2453588,5.64998419 12.929814,5.74654157 L12.3624352,5.93000058 L11.8472292,5.57426288 C11.563289,5.38063993 11.1644684,5.16516452 10.9537708,5.10062354 C10.417495,4.95019731 9.59727907,4.97154157 9.11367774,5.14382026 Z" id="Shape"></path>
                    </g>
                </g>
            </g>
        </g>
    </g>
</svg>