<svg width="52" height="49" viewBox="0 0 52 49" fill="none" xmlns="http://www.w3.org/2000/svg">
<path fill-rule="evenodd" clip-rule="evenodd" d="M13.0709 15.7167H9.16371C8.69774 15.7167 8.32001 15.3318 8.32001 14.8581C8.32001 14.3844 8.69774 13.9995 9.16371 13.9995H13.0709C13.5359 13.9995 13.9136 14.3844 13.9136 14.8581C13.9136 15.3318 13.5359 15.7167 13.0709 15.7167ZM20.8863 15.7167H16.9781C16.5131 15.7167 16.1354 15.3318 16.1354 14.8581C16.1354 14.3844 16.5131 13.9995 16.9781 13.9995H20.8863C21.3512 13.9995 21.729 14.3844 21.729 14.8581C21.729 15.3318 21.3512 15.7167 20.8863 15.7167ZM28.7016 15.7167H24.7935C24.3285 15.7167 23.9507 15.3318 23.9507 14.8581C23.9507 14.3844 24.3285 13.9995 24.7935 13.9995H28.7016C29.1666 13.9995 29.5443 14.3844 29.5443 14.8581C29.5443 15.3318 29.1666 15.7167 28.7016 15.7167ZM44.3314 15.7167H40.4242C39.9592 15.7167 39.5815 15.3318 39.5815 14.8581C39.5815 14.3844 39.9592 13.9995 40.4242 13.9995H44.3314C44.7964 13.9995 45.1741 14.3844 45.1741 14.8581C45.1741 15.3318 44.7964 15.7167 44.3314 15.7167ZM1.84304 17.3783C1.65567 17.3783 1.4663 17.3147 1.31065 17.1834C0.949775 16.8834 0.89723 16.3429 1.19168 15.9753C2.19202 14.7288 3.67222 14.0086 5.25056 13.9995C5.73834 14.0046 6.09624 14.3793 6.09822 14.853C6.10119 15.3278 5.72545 15.7137 5.26047 15.7167C4.18577 15.7227 3.1775 16.2137 2.4954 17.0631C2.32983 17.2702 2.08693 17.3783 1.84304 17.3783ZM50.8914 18.6931C50.5464 18.6931 50.2242 18.4759 50.0993 18.1275C49.7325 17.0972 48.9403 16.2941 47.9261 15.9264C47.4879 15.7669 47.2589 15.2759 47.4155 14.8295C47.5712 14.383 48.055 14.1497 48.4922 14.3083C49.9803 14.8497 51.1443 16.0275 51.6836 17.5416C51.8422 17.9871 51.6162 18.479 51.179 18.6406C51.0838 18.677 50.9866 18.6931 50.8914 18.6931ZM0.842707 25.1011C0.377731 25.1011 0 24.7162 0 24.2425V20.2607C0 19.7869 0.377731 19.4021 0.842707 19.4021C1.30768 19.4021 1.68541 19.7869 1.68541 20.2607V24.2425C1.68541 24.7162 1.30768 25.1011 0.842707 25.1011ZM51.1572 26.6236C50.6922 26.6236 50.3145 26.2387 50.3145 25.765V21.7831C50.3145 21.3094 50.6922 20.9246 51.1572 20.9246C51.6221 20.9246 51.9999 21.3094 51.9999 21.7831V25.765C51.9999 26.2387 51.6221 26.6236 51.1572 26.6236ZM0.842707 33.063C0.377731 33.063 0 32.6782 0 32.2044V28.2226C0 27.7489 0.377731 27.364 0.842707 27.364C1.30768 27.364 1.68541 27.7489 1.68541 28.2226V32.2044C1.68541 32.6782 1.30768 33.063 0.842707 33.063ZM51.1572 34.5864C50.6922 34.5864 50.3145 34.2016 50.3145 33.7279V29.746C50.3145 29.2723 50.6922 28.8875 51.1572 28.8875C51.6221 28.8875 51.9999 29.2723 51.9999 29.746V33.7279C51.9999 34.2016 51.6221 34.5864 51.1572 34.5864ZM1.09949 40.9956C0.752488 40.9956 0.428294 40.7774 0.305357 40.4249C0.102116 39.8461 0 39.238 0 38.6178V36.1865C0 35.7127 0.377731 35.3279 0.842707 35.3279C1.30768 35.3279 1.68541 35.7127 1.68541 36.1865V38.6178C1.68541 39.041 1.75481 39.4552 1.89361 39.8491C2.04927 40.2956 1.82025 40.7865 1.38204 40.9461C1.28885 40.9804 1.19367 40.9956 1.09949 40.9956ZM50.1718 42.3177C49.9854 42.3177 49.798 42.2551 49.6424 42.1268C49.2805 41.8288 49.224 41.2874 49.5175 40.9197C50.0389 40.2622 50.3146 39.4672 50.3146 38.6187V37.7106C50.3146 37.2369 50.6923 36.8521 51.1573 36.8521C51.6222 36.8521 52 37.2369 52 37.7106V38.6187C52 39.847 51.5836 41.048 50.8271 41.9995C50.6606 42.2096 50.4167 42.3177 50.1718 42.3177ZM7.64287 43.9994H5.2813C4.66167 43.9994 4.05492 43.8914 3.4789 43.6772C3.04069 43.5156 2.81564 43.0227 2.97427 42.5772C3.1329 42.1308 3.61671 41.9025 4.05393 42.0631C4.44554 42.2085 4.85896 42.2823 5.2813 42.2823H7.64287C8.10884 42.2823 8.48558 42.6671 8.48558 43.1409C8.48558 43.6146 8.10884 43.9994 7.64287 43.9994ZM15.4582 43.9994H11.551C11.086 43.9994 10.7083 43.6145 10.7083 43.1408C10.7083 42.6671 11.086 42.2822 11.551 42.2822H15.4582C15.9232 42.2822 16.3009 42.6671 16.3009 43.1408C16.3009 43.6145 15.9232 43.9994 15.4582 43.9994ZM23.2736 43.9994H19.3664C18.9004 43.9994 18.5237 43.6145 18.5237 43.1408C18.5237 42.6671 18.9004 42.2822 19.3664 42.2822H23.2736C23.7386 42.2822 24.1163 42.6671 24.1163 43.1408C24.1163 43.6145 23.7386 43.9994 23.2736 43.9994ZM31.0888 43.9972H27.1806C26.7156 43.9972 26.3379 43.6124 26.3379 43.1386C26.3379 42.6649 26.7156 42.28 27.1806 42.28H31.0888C31.5538 42.28 31.9315 42.6649 31.9315 43.1386C31.9315 43.6124 31.5538 43.9972 31.0888 43.9972ZM42.8115 43.9972C42.3465 43.9972 41.9688 43.6124 41.9688 43.1386C41.9688 42.6649 42.3465 42.28 42.8115 42.28H46.7186C47.1846 42.28 47.5871 42.6639 47.5871 43.1386C47.5871 43.6124 47.2352 43.9972 46.7702 43.9972V43.1376L46.7434 43.9972H42.8115Z" fill="#43484D" fill-opacity="0.3"/>
<path fill-rule="evenodd" clip-rule="evenodd" d="M22.9199 43.0404H12.1699V14.6284H22.9199V43.0404Z" fill="#E0E7ED"/>
<path fill-rule="evenodd" clip-rule="evenodd" d="M40.3392 45.1056C40.3392 46.3207 39.3681 47.3081 38.1753 47.3081H32.2727C31.3837 47.3081 30.6608 46.5722 30.6608 45.6674V43.7901H35.9596C36.4178 43.7901 36.79 43.4112 36.79 42.9449C36.79 42.4775 36.4178 42.0997 35.9596 42.0997H30.6608V36.8297H33.0288C33.487 36.8297 33.8592 36.4508 33.8592 35.9845C33.8592 35.5171 33.487 35.1393 33.0288 35.1393H30.6608V29.8692H35.9596C36.4178 29.8692 36.79 29.4904 36.79 29.024C36.79 28.5567 36.4178 28.1789 35.9596 28.1789H30.6608V22.9088H33.0288C33.487 22.9088 33.8592 22.53 33.8592 22.0636C33.8592 21.5963 33.487 21.2184 33.0288 21.2184H30.6608V15.9484H35.9596C36.4178 15.9484 36.79 15.5696 36.79 15.1032C36.79 14.6359 36.4178 14.258 35.9596 14.258H30.6608V8.988H33.0288C33.487 8.988 33.8592 8.60915 33.8592 8.14281C33.8592 7.67546 33.487 7.29761 33.0288 7.29761H30.6608V4.33049C30.6608 3.42563 31.3837 2.68982 32.2727 2.68982H38.7273C39.6163 2.68982 40.3392 3.42563 40.3392 4.33049V45.1056ZM38.7273 0.997559H32.2727C30.4683 0.997559 29 2.49206 29 4.32861V45.6655C29 47.5031 30.4683 48.9976 32.2727 48.9976H38.1753C40.2845 48.9976 42 47.2505 42 45.1037V4.32861C42 2.49206 40.5317 0.997559 38.7273 0.997559Z" fill="#43484D"/>
<path fill-rule="evenodd" clip-rule="evenodd" d="M18.6772 47.3156H15.323C13.8425 47.3156 12.6387 46.0789 12.6387 44.5591V43.8115H21.3616V44.5591C21.3616 46.0789 20.1577 47.3156 18.6772 47.3156ZM16.1854 9.67212C16.3704 9.38894 16.6673 9.22656 16.9998 9.22656C17.3314 9.22656 17.6292 9.38894 17.8143 9.67212L20.6422 13.997H13.3564L16.1854 9.67212ZM17.8193 15.6787H21.3403C21.3499 15.7748 21.3615 15.8698 21.3615 15.9668V42.1268H17.8193V15.6787ZM12.6387 15.9668C12.6387 15.8698 12.6502 15.7748 12.6589 15.6787H16.1808V42.1268H12.6387V15.9668ZM22.2472 13.4309L19.1745 8.73278C18.8458 8.23079 18.3629 7.88029 17.8193 7.69514V5.83965C17.8193 5.37528 17.452 4.99805 17 4.99805C16.548 4.99805 16.1807 5.37528 16.1807 5.83965V7.69514C15.6371 7.88029 15.1542 8.23079 14.8246 8.73278L11.7518 13.4309C11.2602 14.1844 11 15.0606 11 15.9676V44.5583C11 47.0059 12.9383 48.998 15.3229 48.998H18.6771C21.0607 48.998 23 47.0059 23 44.5583V15.9676C23 15.0606 22.7398 14.1844 22.2472 13.4309Z" fill="#43484D"/>
</svg>
