<svg width="47" height="48" viewBox="0 0 47 48" fill="none" xmlns="http://www.w3.org/2000/svg">
<path fill-rule="evenodd" clip-rule="evenodd" d="M0.850586 3.7373V14.6943H46.1676V3.7373C46.1676 2.0803 44.8246 0.737305 43.1676 0.737305H3.85059C2.19359 0.737305 0.850586 2.0803 0.850586 3.7373Z" fill="#E0E7ED"/>
<path fill-rule="evenodd" clip-rule="evenodd" d="M43.1512 46.3075H3.84844C2.66387 46.3075 1.69922 45.3475 1.69922 44.1666V15.6826H45.3004V44.1666C45.3004 45.3475 44.3368 46.3075 43.1512 46.3075ZM1.69922 3.92555C1.69922 2.74556 2.66387 1.78564 3.84844 1.78564H43.1512C44.3368 1.78564 45.3004 2.74556 45.3004 3.92555V13.9898H1.69922V3.92555ZM43.1514 0.000488281H3.84861C1.72638 0.000488281 0 1.72018 0 3.8342V3.92581V14.8364V44.1668C0 46.2808 1.72638 48.0005 3.84861 48.0005H43.1514C45.2736 48.0005 47 46.2808 47 44.1668V14.8364V3.92581V3.8342C47 1.72018 45.2736 0.000488281 43.1514 0.000488281Z" fill="#43484D"/>
<path fill-rule="evenodd" clip-rule="evenodd" d="M17.7537 26.3203C17.4217 25.9883 16.8837 25.9883 16.5517 26.3203L11.8867 30.9853C11.5547 31.3173 11.5547 31.8553 11.8867 32.1873L16.5517 36.8523C16.7177 37.0183 16.9347 37.1013 17.1527 37.1013C17.3707 37.1013 17.5877 37.0183 17.7537 36.8523C18.0857 36.5203 18.0857 35.9823 17.7537 35.6503L13.6897 31.5863L17.7537 27.5223C18.0857 27.1903 18.0857 26.6523 17.7537 26.3203Z" fill="#43484D"/>
<path fill-rule="evenodd" clip-rule="evenodd" d="M28.6053 26.3218C28.2733 25.9898 27.7353 25.9898 27.4033 26.3218C27.0713 26.6538 27.0713 27.1918 27.4033 27.5238L31.4673 31.5878L27.4033 35.6518C27.0713 35.9838 27.0713 36.5218 27.4033 36.8538C27.5693 37.0198 27.7863 37.1028 28.0043 37.1028C28.2213 37.1028 28.4393 37.0198 28.6053 36.8538L33.2713 32.1888C33.4303 32.0298 33.5203 31.8138 33.5203 31.5878C33.5203 31.3628 33.4303 31.1458 33.2713 30.9868L28.6053 26.3218Z" fill="#43484D"/>
<path fill-rule="evenodd" clip-rule="evenodd" d="M24.9583 23.372C24.5153 23.232 24.0343 23.481 23.8933 23.929L19.6523 37.48C19.5123 37.929 19.7613 38.405 20.2093 38.545C20.2933 38.572 20.3793 38.584 20.4633 38.584C20.8253 38.584 21.1603 38.351 21.2743 37.988L25.5153 24.437C25.6553 23.989 25.4063 23.512 24.9583 23.372Z" fill="#43484D"/>
<path fill-rule="evenodd" clip-rule="evenodd" d="M10.2928 7.71673C10.2928 8.77373 9.43582 9.63073 8.37882 9.63073C7.32182 9.63073 6.46582 8.77373 6.46582 7.71673C6.46582 6.65973 7.32182 5.80273 8.37882 5.80273C9.43582 5.80273 10.2928 6.65973 10.2928 7.71673Z" fill="#43484D"/>
<path opacity="0.3" fill-rule="evenodd" clip-rule="evenodd" d="M16.2928 7.71673C16.2928 8.77373 15.4358 9.63073 14.3788 9.63073C13.3218 9.63073 12.4658 8.77373 12.4658 7.71673C12.4658 6.65973 13.3218 5.80273 14.3788 5.80273C15.4358 5.80273 16.2928 6.65973 16.2928 7.71673Z" fill="#43484D"/>
<path opacity="0.3" fill-rule="evenodd" clip-rule="evenodd" d="M22.2928 7.71673C22.2928 8.77373 21.4358 9.63073 20.3788 9.63073C19.3218 9.63073 18.4658 8.77373 18.4658 7.71673C18.4658 6.65973 19.3218 5.80273 20.3788 5.80273C21.4358 5.80273 22.2928 6.65973 22.2928 7.71673Z" fill="#43484D"/>
</svg>
