<svg width="56" height="45" viewBox="0 0 56 45" fill="none" xmlns="http://www.w3.org/2000/svg">
<path opacity="0.3" fill-rule="evenodd" clip-rule="evenodd" d="M3.43609 27.157C3.35309 27.157 3.26809 27.145 3.18409 27.119L0.627087 26.325C0.179087 26.186 -0.0719125 25.71 0.0680875 25.261C0.207087 24.814 0.682088 24.563 1.13109 24.701L3.68809 25.495C4.13609 25.634 4.38709 26.111 4.24809 26.559C4.13409 26.923 3.79909 27.157 3.43609 27.157ZM11.077 29.5276C10.994 29.5276 10.909 29.5156 10.825 29.4896L7.00404 28.3036C6.55604 28.1646 6.30504 27.6886 6.44504 27.2396C6.58404 26.7926 7.05904 26.5426 7.50804 26.6796L11.329 27.8656C11.777 28.0046 12.028 28.4816 11.888 28.9296C11.775 29.2936 11.44 29.5276 11.077 29.5276Z" fill="#43484D"/>
<path opacity="0.3" fill-rule="evenodd" clip-rule="evenodd" d="M48.2069 28.1609C48.1329 28.1609 48.0589 28.1519 47.9839 28.1309L44.1229 27.0869C43.6699 26.9639 43.4009 26.4979 43.5239 26.0439C43.6469 25.5909 44.1189 25.3229 44.5659 25.4459L48.4279 26.4909C48.8809 26.6129 49.1489 27.0789 49.0259 27.5329C48.9239 27.9109 48.5809 28.1609 48.2069 28.1609ZM54.652 29.9017C54.578 29.9017 54.504 29.8917 54.43 29.8717L51.846 29.1727C51.393 29.0497 51.124 28.5827 51.247 28.1297C51.37 27.6767 51.84 27.4077 52.289 27.5317L54.873 28.2307C55.326 28.3537 55.595 28.8207 55.472 29.2737C55.369 29.6517 55.026 29.9017 54.652 29.9017Z" fill="#43484D"/>
<path fill-rule="evenodd" clip-rule="evenodd" d="M34.0955 1.62207H13.5605C11.9035 1.62207 10.5605 2.96507 10.5605 4.62207V41.1141C10.5605 42.7711 11.9035 44.1141 13.5605 44.1141H42.5145C44.1715 44.1141 45.5145 42.7711 45.5145 41.1141V13.2951" fill="#E0E7ED"/>
<path fill-rule="evenodd" clip-rule="evenodd" d="M42.5149 44.965H13.5609C11.4379 44.965 9.71094 43.238 9.71094 41.115V4.62197C9.71094 2.49897 11.4379 0.771973 13.5609 0.771973H34.0959C34.5659 0.771973 34.9459 1.15297 34.9459 1.62197C34.9459 2.09097 34.5659 2.47197 34.0959 2.47197H13.5609C12.3749 2.47197 11.4109 3.43697 11.4109 4.62197V41.115C11.4109 42.3 12.3749 43.265 13.5609 43.265H42.5149C43.7009 43.265 44.6649 42.3 44.6649 41.115V13.296C44.6649 12.826 45.0449 12.445 45.5149 12.445C45.9849 12.445 46.3649 12.826 46.3649 13.296V41.115C46.3649 43.238 44.6379 44.965 42.5149 44.965Z" fill="#43484D"/>
<path fill-rule="evenodd" clip-rule="evenodd" d="M34.0957 1.62305V10.796C34.0957 12.177 35.2147 13.296 36.5957 13.296H45.5147L34.0957 1.62305Z" fill="#FEFEFE"/>
<path fill-rule="evenodd" clip-rule="evenodd" d="M34.946 3.70679V10.7958C34.946 11.7058 35.686 12.4458 36.596 12.4458H43.495L34.946 3.70679ZM45.5151 14.1447H36.5961C34.7491 14.1447 33.2471 12.6417 33.2471 10.7947V1.62167C33.2471 1.27567 33.4561 0.964671 33.7751 0.833671C34.0961 0.703671 34.4631 0.779671 34.7041 1.02667L46.1231 12.7007C46.3621 12.9447 46.4311 13.3087 46.2991 13.6237C46.1661 13.9397 45.8571 14.1447 45.5151 14.1447Z" fill="#43484D"/>
<path fill-rule="evenodd" clip-rule="evenodd" d="M20.3007 32.5352C20.2177 32.5352 20.1347 32.5232 20.0537 32.4982L10.3147 29.5332C9.8647 29.3962 9.6117 28.9222 9.7477 28.4732C9.8857 28.0232 10.3627 27.7702 10.8087 27.9072L20.0987 30.7352L30.4847 21.7262C30.6977 21.5402 30.9887 21.4722 31.2647 21.5482L45.7387 25.4902C46.1927 25.6132 46.4587 26.0802 46.3357 26.5332C46.2117 26.9872 45.7437 27.2502 45.2917 27.1302L31.2547 23.3072L20.8577 32.3272C20.7007 32.4632 20.5027 32.5352 20.3007 32.5352Z" fill="#43484D"/>
<path fill-rule="evenodd" clip-rule="evenodd" d="M22.5906 29.8635C23.5826 30.9085 23.5406 32.5595 22.4956 33.5525C21.4516 34.5445 19.7996 34.5025 18.8076 33.4575C17.8146 32.4125 17.8576 30.7615 18.9016 29.7685C19.9466 28.7765 21.5986 28.8185 22.5906 29.8635Z" fill="#FEFEFE"/>
<path fill-rule="evenodd" clip-rule="evenodd" d="M20.698 29.9017C20.245 29.9017 19.815 30.0737 19.486 30.3847C18.784 31.0537 18.756 32.1697 19.424 32.8727C20.069 33.5537 21.228 33.5827 21.911 32.9367C22.614 32.2687 22.642 31.1527 21.974 30.4487C21.638 30.0957 21.185 29.9017 20.698 29.9017ZM20.699 35.1195C19.756 35.1195 18.841 34.7275 18.191 34.0435C16.878 32.6605 16.933 30.4665 18.315 29.1525C19.646 27.8905 21.942 27.9485 23.207 29.2775C24.5199 30.6615 24.464 32.8555 23.081 34.1685C22.435 34.7815 21.59 35.1195 20.699 35.1195Z" fill="#43484D"/>
<path fill-rule="evenodd" clip-rule="evenodd" d="M32.863 20.5715C33.855 21.6165 33.813 23.2675 32.768 24.2605C31.724 25.2525 30.072 25.2105 29.08 24.1655C28.087 23.1205 28.13 21.4695 29.174 20.4765C30.219 19.4845 31.871 19.5265 32.863 20.5715Z" fill="#FEFEFE"/>
<path fill-rule="evenodd" clip-rule="evenodd" d="M30.9709 20.6096C30.5179 20.6096 30.0879 20.7806 29.7599 21.0926C29.4179 21.4166 29.2239 21.8536 29.2119 22.3236C29.1999 22.7936 29.3709 23.2396 29.6959 23.5806C30.3419 24.2616 31.4999 24.2916 32.1829 23.6436C32.8859 22.9756 32.9139 21.8606 32.2459 21.1566C31.9109 20.8036 31.4579 20.6096 30.9709 20.6096ZM30.9709 25.8283C30.0269 25.8283 29.1129 25.4363 28.4629 24.7523C27.8259 24.0823 27.4889 23.2043 27.5129 22.2803C27.5359 21.3573 27.9179 20.4973 28.5889 19.8613C29.9159 18.5973 32.2169 18.6573 33.4789 19.9863C34.7919 21.3703 34.7359 23.5643 33.3529 24.8773C32.7069 25.4903 31.8619 25.8283 30.9709 25.8283Z" fill="#43484D"/>
</svg>
