<svg width="49" height="45" viewBox="0 0 49 45" fill="none" xmlns="http://www.w3.org/2000/svg">
<path fill-rule="evenodd" clip-rule="evenodd" d="M8.07812 12.8098L25.0973 2.98926L42.1164 12.8098V32.4517L25.0973 42.2722L8.07812 32.4517V12.8098Z" fill="#E0E7ED"/>
<path fill-rule="evenodd" clip-rule="evenodd" d="M8.78809 32.0418L25.0985 41.4535L41.4081 32.0418V13.2193L25.0985 3.80762L8.78809 13.2193V32.0418ZM25.0989 42.98C24.977 42.98 24.8534 42.9491 24.7441 42.8857L7.72491 33.0652C7.50452 32.9375 7.37012 32.7039 7.37012 32.4503V12.8084C7.37012 12.5548 7.50452 12.3211 7.72491 12.1943L24.7441 2.37295C24.9628 2.24613 25.2349 2.24613 25.4537 2.37295L42.4728 12.1943C42.6924 12.3211 42.8268 12.5548 42.8268 12.8084V32.4503C42.8268 32.7039 42.6924 32.9375 42.4728 33.0652L25.4537 42.8857C25.3443 42.9491 25.2216 42.98 25.0989 42.98Z" fill="#86939E"/>
<path fill-rule="evenodd" clip-rule="evenodd" d="M27.4305 41.4899C27.4305 42.7773 26.3862 43.8211 25.0981 43.8211C23.81 43.8211 22.7656 42.7773 22.7656 41.4899C22.7656 40.2025 23.81 39.1587 25.0981 39.1587C26.3862 39.1587 27.4305 40.2025 27.4305 41.4899Z" fill="#FEFEFE"/>
<path fill-rule="evenodd" clip-rule="evenodd" d="M25.0975 39.868C24.2026 39.868 23.4746 40.5956 23.4746 41.4901C23.4746 42.3853 24.2026 43.1129 25.0975 43.1129C25.9924 43.1129 26.7203 42.3853 26.7203 41.4901C26.7203 40.5956 25.9924 39.868 25.0975 39.868ZM25.0977 44.5307C23.4197 44.5307 22.0557 43.1674 22.0557 41.4903C22.0557 39.814 23.4197 38.4507 25.0977 38.4507C26.7756 38.4507 28.1397 39.814 28.1397 41.4903C28.1397 43.1674 26.7756 44.5307 25.0977 44.5307Z" fill="#43484D"/>
<path fill-rule="evenodd" clip-rule="evenodd" d="M27.4305 3.58123C27.4305 4.86866 26.3862 5.91245 25.0981 5.91245C23.81 5.91245 22.7656 4.86866 22.7656 3.58123C22.7656 2.2938 23.81 1.25 25.0981 1.25C26.3862 1.25 27.4305 2.2938 27.4305 3.58123Z" fill="#FEFEFE"/>
<path fill-rule="evenodd" clip-rule="evenodd" d="M25.0975 1.95996C24.2026 1.95996 23.4746 2.68753 23.4746 3.58197C23.4746 4.47725 24.2026 5.20482 25.0975 5.20482C25.9924 5.20482 26.7203 4.47725 26.7203 3.58197C26.7203 2.68753 25.9924 1.95996 25.0975 1.95996ZM25.0977 6.62155C23.4197 6.62155 22.0557 5.25819 22.0557 3.58111C22.0557 1.90486 23.4197 0.541504 25.0977 0.541504C26.7756 0.541504 28.1397 1.90486 28.1397 3.58111C28.1397 5.25819 26.7756 6.62155 25.0977 6.62155Z" fill="#43484D"/>
<path fill-rule="evenodd" clip-rule="evenodd" d="M10.0223 13.1808C10.0223 14.4683 8.97797 15.5121 7.68987 15.5121C6.40176 15.5121 5.35742 14.4683 5.35742 13.1808C5.35742 11.8934 6.40176 10.8496 7.68987 10.8496C8.97797 10.8496 10.0223 11.8934 10.0223 13.1808Z" fill="#FEFEFE"/>
<path fill-rule="evenodd" clip-rule="evenodd" d="M7.69024 11.5576C6.79533 11.5576 6.06738 12.2852 6.06738 13.1796C6.06738 14.0749 6.79533 14.8025 7.69024 14.8025C8.58515 14.8025 9.3131 14.0749 9.3131 13.1796C9.3131 12.2852 8.58515 11.5576 7.69024 11.5576ZM7.68949 16.2192C6.01153 16.2192 4.64746 14.8558 4.64746 13.1788C4.64746 11.5025 6.01153 10.1392 7.68949 10.1392C9.36745 10.1392 10.7315 11.5025 10.7315 13.1788C10.7315 14.8558 9.36745 16.2192 7.68949 16.2192Z" fill="#43484D"/>
<path fill-rule="evenodd" clip-rule="evenodd" d="M44.0819 32.422C44.0819 33.7095 43.0375 34.7533 41.7494 34.7533C40.4613 34.7533 39.417 33.7095 39.417 32.422C39.417 31.1346 40.4613 30.0908 41.7494 30.0908C43.0375 30.0908 44.0819 31.1346 44.0819 32.422Z" fill="#F4F4F4"/>
<path fill-rule="evenodd" clip-rule="evenodd" d="M41.7498 30.7993C40.8549 30.7993 40.127 31.5269 40.127 32.4213C40.127 33.3166 40.8549 34.0442 41.7498 34.0442C42.6447 34.0442 43.3727 33.3166 43.3727 32.4213C43.3727 31.5269 42.6447 30.7993 41.7498 30.7993ZM41.7491 35.4614C40.0711 35.4614 38.707 34.098 38.707 32.421C38.707 30.7447 40.0711 29.3813 41.7491 29.3813C43.427 29.3813 44.7911 30.7447 44.7911 32.421C44.7911 34.098 43.427 35.4614 41.7491 35.4614Z" fill="#43484D"/>
<path fill-rule="evenodd" clip-rule="evenodd" d="M12.519 39.9038L2.86035 24.9736L12.519 39.9038Z" fill="#FEFEFE"/>
<path fill-rule="evenodd" clip-rule="evenodd" d="M12.5198 40.6135C12.2869 40.6135 12.059 40.4983 11.9229 40.2889L2.26425 25.3587C2.05137 25.0291 2.1457 24.5902 2.47462 24.3775C2.80269 24.1647 3.24264 24.259 3.45635 24.5877L13.115 39.5188C13.3279 39.8475 13.2327 40.2864 12.9047 40.4991C12.7853 40.5759 12.6517 40.6135 12.5198 40.6135Z" fill="#86939E"/>
<path fill-rule="evenodd" clip-rule="evenodd" d="M9.64852 31.1736C10.3481 32.2549 10.0384 33.6976 8.95647 34.3968C7.87456 35.096 6.43035 34.7864 5.73162 33.7051C5.03205 32.6237 5.34176 31.1811 6.42367 30.4819C7.50558 29.7827 8.94895 30.0923 9.64852 31.1736Z" fill="#FEFEFE"/>
<path fill-rule="evenodd" clip-rule="evenodd" d="M7.68697 30.8171C7.37559 30.8171 7.07172 30.9064 6.80792 31.0775C6.05743 31.5631 5.84038 32.5693 6.32624 33.3202C6.7954 34.0445 7.83891 34.2731 8.57019 33.8008C8.93417 33.5655 9.18461 33.2026 9.2756 32.7796C9.3666 32.3565 9.28729 31.9227 9.05188 31.5597C8.75135 31.0941 8.24128 30.8171 7.68697 30.8171ZM7.6913 35.4774C6.65364 35.4774 5.69779 34.9584 5.1343 34.0881C4.22436 32.6797 4.63007 30.7941 6.03755 29.8838C6.53092 29.565 7.10193 29.3965 7.68713 29.3965C8.72562 29.3965 9.68148 29.9163 10.2441 30.7874C10.6849 31.4682 10.8343 32.2809 10.6632 33.0752C10.4929 33.8687 10.0237 34.5495 9.34088 34.9901C8.84834 35.3088 8.27733 35.4774 7.6913 35.4774Z" fill="#43484D"/>
<path fill-rule="evenodd" clip-rule="evenodd" d="M3.92983 24.1873C3.92983 25.0442 3.23528 25.7384 2.37793 25.7384C1.52059 25.7384 0.825195 25.0442 0.825195 24.1873C0.825195 23.3304 1.52059 22.6362 2.37793 22.6362C3.23528 22.6362 3.92983 23.3304 3.92983 24.1873Z" fill="#86939E"/>
<path fill-rule="evenodd" clip-rule="evenodd" d="M14.3283 40.4612C14.3283 41.3181 13.6337 42.0123 12.7764 42.0123C11.919 42.0123 11.2236 41.3181 11.2236 40.4612C11.2236 39.6044 11.919 38.9102 12.7764 38.9102C13.6337 38.9102 14.3283 39.6044 14.3283 40.4612Z" fill="#86939E"/>
<path fill-rule="evenodd" clip-rule="evenodd" d="M46.562 20.5718L36.9033 5.6416L46.562 20.5718Z" fill="#FEFEFE"/>
<path fill-rule="evenodd" clip-rule="evenodd" d="M46.562 21.28C46.329 21.28 46.1011 21.1649 45.9651 20.9554L36.3072 6.02608C36.0943 5.6965 36.1887 5.25762 36.5176 5.04486C36.8457 4.83293 37.2856 4.92721 37.4993 5.25512L47.1572 20.1853C47.37 20.5141 47.2749 20.9529 46.9468 21.1657C46.8274 21.2425 46.6939 21.28 46.562 21.28Z" fill="#86939E"/>
<path fill-rule="evenodd" clip-rule="evenodd" d="M43.6915 11.8406C44.3911 12.9219 44.0813 14.3646 42.9994 15.0638C41.9175 15.763 40.4733 15.4534 39.7746 14.3721C39.075 13.2907 39.3847 11.8481 40.4666 11.1489C41.5485 10.4497 42.9919 10.7593 43.6915 11.8406Z" fill="#F4F4F4"/>
<path fill-rule="evenodd" clip-rule="evenodd" d="M41.7306 11.4854C41.4192 11.4854 41.1153 11.5746 40.8515 11.7457C40.4875 11.981 40.2371 12.3431 40.1461 12.7669C40.0551 13.1908 40.1344 13.6238 40.3698 13.9876C40.8382 14.7127 41.8808 14.943 42.6138 14.4691C43.3651 13.9835 43.5813 12.9772 43.0955 12.2271C42.795 11.7624 42.2849 11.4854 41.7306 11.4854ZM41.7345 16.1483C40.6969 16.1483 39.741 15.6293 39.1775 14.759C38.2676 13.3506 38.6725 11.465 40.0799 10.5547C40.5741 10.2359 41.1451 10.0674 41.7303 10.0674C42.768 10.0674 43.7239 10.5864 44.2874 11.4566C45.1973 12.8642 44.7924 14.7507 43.3841 15.661C42.8907 15.9797 42.3197 16.1483 41.7345 16.1483Z" fill="#43484D"/>
<path fill-rule="evenodd" clip-rule="evenodd" d="M37.9728 4.8548C37.9728 5.7117 37.2782 6.40589 36.4209 6.40589C35.5636 6.40589 34.8682 5.7117 34.8682 4.8548C34.8682 3.99791 35.5636 3.30371 36.4209 3.30371C37.2782 3.30371 37.9728 3.99791 37.9728 4.8548Z" fill="#86939E"/>
<path fill-rule="evenodd" clip-rule="evenodd" d="M48.3712 21.1292C48.3712 21.9861 47.6767 22.6803 46.8193 22.6803C45.962 22.6803 45.2666 21.9861 45.2666 21.1292C45.2666 20.2723 45.962 19.5781 46.8193 19.5781C47.6767 19.5781 48.3712 20.2723 48.3712 21.1292Z" fill="#86939E"/>
<path fill-rule="evenodd" clip-rule="evenodd" d="M17.7517 16.9011C17.5038 16.9011 17.2633 16.7718 17.1331 16.5398L17.0555 16.403C16.8635 16.0625 16.9828 15.6303 17.3243 15.4368C17.6649 15.2449 18.099 15.3642 18.291 15.7054L18.3686 15.8423C18.5615 16.1835 18.4412 16.6157 18.0998 16.8093C17.9896 16.8711 17.8702 16.9011 17.7517 16.9011ZM31.2898 18.9434C31.1712 18.9434 31.0519 18.9134 30.9417 18.8517C30.6011 18.6589 30.48 18.2267 30.6729 17.8855L31.9034 15.7053C32.0962 15.3648 32.5295 15.2447 32.8701 15.4366C33.2115 15.6293 33.3317 16.0615 33.1397 16.4028L31.9084 18.583C31.7781 18.8133 31.5377 18.9434 31.2898 18.9434ZM20.2138 21.2624C19.9659 21.2624 19.7254 21.1314 19.5952 20.9012L18.3639 18.7218C18.1719 18.3805 18.2921 17.9475 18.6335 17.7547C18.9749 17.5628 19.4065 17.6838 19.6002 18.0243L20.8307 20.2036C21.0235 20.5449 20.9025 20.9779 20.5619 21.1698C20.4517 21.2316 20.3323 21.2624 20.2138 21.2624ZM28.8293 23.3056C28.7107 23.3056 28.5914 23.2756 28.4812 23.213C28.1397 23.0211 28.0195 22.5881 28.2115 22.2468L29.442 20.0674C29.6349 19.727 30.0656 19.606 30.4087 19.7988C30.7493 19.9907 30.8704 20.4237 30.6775 20.765L29.4479 22.9444C29.3176 23.1755 29.0764 23.3056 28.8293 23.3056ZM22.6753 25.6216C22.4282 25.6216 22.1869 25.4914 22.0567 25.2612L20.8262 23.081C20.6333 22.7397 20.7544 22.3075 21.095 22.1148C21.4364 21.9237 21.8688 22.0438 22.0617 22.3834L23.293 24.5636C23.485 24.9049 23.3648 25.3371 23.0234 25.5298C22.914 25.5916 22.7938 25.6216 22.6753 25.6216ZM26.3666 27.6646C26.2488 27.6646 26.1286 27.6346 26.0184 27.5728C25.6778 27.3809 25.5576 26.9479 25.7496 26.6066L26.981 24.4273C27.173 24.086 27.6071 23.9659 27.9477 24.1578C28.2883 24.3505 28.4093 24.7827 28.2165 25.124L26.986 27.3042C26.8549 27.5344 26.6145 27.6646 26.3666 27.6646ZM25.0988 29.9126C24.8425 29.9126 24.6062 29.775 24.481 29.5522L23.2881 27.4404C23.0952 27.0991 23.2163 26.6661 23.5569 26.4742C23.8975 26.2823 24.3316 26.4024 24.5236 26.7429L25.5963 28.6427C25.8401 28.853 25.9202 29.1884 25.7566 29.4813L25.7182 29.5497C25.593 29.7741 25.3367 29.9126 25.0988 29.9126Z" fill="#43484D"/>
</svg>
