<?xml version="1.0" encoding="utf-8"?>
<!-- Generator: Adobe Illustrator 22.1.0, SVG Export Plug-In . SVG Version: 6.00 Build 0)  -->
<svg version="1.1" id="Слой_1" xmlns="http://www.w3.org/2000/svg" xmlns:xlink="http://www.w3.org/1999/xlink" x="0px" y="0px"
	 viewBox="0 0 403.2 297.8" style="enable-background:new 0 0 403.2 297.8;" xml:space="preserve">
<style type="text/css">
	.st0{fill:#FFFFFF;}
	.st1{fill:#F6F7FF;}
	.st2{fill:#FFEB3B;}
	.st3{fill:#4D4D4D;}
	.st4{fill:#FEE100;}
	.st5{fill:none;stroke:#000000;stroke-width:2;stroke-linejoin:round;}
	.st6{fill:#FFEB3B;stroke:#000000;stroke-width:2;stroke-linejoin:round;}
	.st7{fill:none;stroke:#000000;stroke-width:2;stroke-linecap:round;stroke-linejoin:round;}
</style>
<title>Ресурс 1</title>
<g id="Слой_2_1_">
	<g id="_0001_копия_">
		<polygon class="st0" points="1.1,104.8 43.9,80.1 43.9,102.5 39.6,117.4 31.4,121.7 		"/>
		<polygon points="185,160.4 185,243.2 224.4,221.3 318.6,155.4 319.1,108.4 318.9,83.1 		"/>
		<polygon class="st1" points="163.4,256.7 39.6,185.8 39.6,171 163.2,241.8 		"/>
		<path d="M42.7,89.2v12.7v3.7l-10,5.6l-14.3-8.1L42.7,89.2 M44.8,85.5l-30.7,17.7l1.3,0.8l17.3,9.8l12.2-6.8v-4.9
			C44.9,101.9,44.8,85.5,44.8,85.5z"/>
		<polygon points="163.2,241.8 39.6,171 39.6,104.5 41.1,105.4 162.9,175.8 		"/>
		<polygon class="st1" points="157.5,230.2 45.1,165.9 45.1,114.8 157.1,179.4 		"/>
		<path d="M118.8,202.2l-35.2-20.2c-0.6-0.4-1-1-1-1.7v-2.8c0-0.6,0.5-1,1.1-0.9c0.1,0,0.2,0,0.3,0.1l35,20.3
			c0.8,0.5,1.3,1.3,1.3,2.2v2.1c0,0.6-0.5,1.1-1.1,1C119.1,202.3,118.9,202.2,118.8,202.2z"/>
		<path d="M83.2,163.4l-31.8-18.3c-0.3-0.1-0.4-0.4-0.4-0.7v-18.7l32.2,18.6L83.2,163.4C83.3,163.3,83.3,163.4,83.2,163.4z"/>
		<polygon class="st2" points="62,154.8 62,138.9 90.8,155.5 90.8,171.4 		"/>
		<path d="M63.1,140.8l26.7,15.4l-0.1,13.4l-26.6-15.3L63.1,140.8 M60.9,137.1V155c0,0.3,0.2,0.5,0.4,0.7l30.4,17.5l0,0l0,0
			l0.1-18.2L60.9,137.1L60.9,137.1z"/>
		<polygon class="st1" points="72.2,94.7 72.2,121.4 143.9,162.7 143.9,136.6 		"/>
		<polygon class="st1" points="144.1,76.9 175,95 144.1,113 		"/>
		<polygon class="st1" points="164.5,41.4 164.5,65.2 185,77.1 185,53.3 		"/>
		<polygon class="st1" points="205.6,65.2 205.6,89 216.1,95 216.1,118.7 226.1,112.9 226.1,77.1 		"/>
		<polygon class="st1" points="246.9,65.2 246.9,100.9 277.7,83.1 		"/>
		<polygon class="st1" points="164.5,148.5 185,160.4 185,243.2 168.6,233.7 165.4,193.5 162.9,185.8 		"/>
		<polygon class="st1" points="339.4,71.2 339.4,151.5 318.9,140.9 318.9,83.1 246.7,41.5 226.1,53.3 226.1,5.8 		"/>
		<polygon class="st3" points="346.4,134.6 370,148.5 370,153.4 346.4,139.8 		"/>
		<polygon class="st1" points="370,148.5 401.1,130.6 345.6,98.8 345.6,134.2 		"/>
		<path d="M343.5,104.2l45.8,26.1l-19.4,11l-22.8-13.2L343.5,104.2 M340.8,100.2l4.4,29.3l24.8,14.3l23.7-13.5L340.8,100.2
			L340.8,100.2z"/>
		<polygon points="51.2,83.1 51.2,108.5 72.2,120.6 72.2,94.7 143.9,53.3 164.5,65.2 164.5,41.4 185,29.6 185,5.8 		"/>
		<path class="st1" d="M168.6,253.7l-5.2,3l-0.5-80.9l5.6-3.2c0.4,0.7-0.2,2.2-0.2,3.4c0,0.1,0-0.1,0,0L168.6,253.7z"/>
		<path d="M133.1,263.1c0,2.5-2,5.7-4.5,7.1c-0.9,0.6-2,0.8-3,0.6c0-0.2,0-0.3,0-0.5l-0.4,0.3l-24.5,18.8v-4.2l25.5-21.9l2.1-1.8
			c0.2-0.2,0.4-0.3,0.6-0.5l0.1,0c0.5-0.3,1.1-0.5,1.7-0.5h0.2c0.6,0,1.2,0.2,1.7,0.7l0.1,0.1l0,0l0.1,0.2c0.1,0.2,0.2,0.4,0.3,0.6
			C133,262.5,133.1,262.8,133.1,263.1z"/>
		<polygon points="226.1,77.1 226.1,112.9 246.9,100.9 246.9,65.2 		"/>
		<polygon points="226.1,29.6 226.1,53.3 205.6,65.2 205.6,89 185,77.1 185,53.3 		"/>
		<polygon points="144.1,76.9 144.1,113 113.3,95.2 		"/>
		<polygon points="143.9,136.6 143.9,163 164.5,175.6 164.5,148.5 216.1,118.7 216.1,95 		"/>
		<polygon points="339.4,71.2 339.4,151.8 346.3,147.9 346.3,67.2 		"/>
		<polygon points="370,148.5 370,153.4 401.1,135.3 401.1,130.6 		"/>
		<polyline points="275.2,276 386.9,211.7 386.9,217.8 275.1,282.1 275.2,276 		"/>
		<polygon class="st1" points="82.2,219.5 90.5,214.9 111.1,226.8 102.8,231.4 		"/>
		<ellipse transform="matrix(0.867 -0.4983 0.4983 0.867 -92.9372 76.5891)" cx="97" cy="212.4" rx="2.5" ry="4.4"/>
		<path d="M133.1,263.1c0,2.5-2,5.7-4.5,7.1c-0.9,0.6-2,0.8-3,0.6c-0.2,0-0.3-0.1-0.4-0.2c-0.8-0.5-1.2-1.4-1.1-2.4
			c0.1-1.8,0.8-3.6,2.1-5c0.7-0.9,1.5-1.6,2.5-2.1l0.2-0.1l0.1,0c0.5-0.3,1.1-0.5,1.7-0.5h0.2c1.1-0.1,2,0.6,2.2,1.6
			C133,262.5,133.1,262.8,133.1,263.1z"/>
		
			<ellipse transform="matrix(0.6011 -0.7992 0.7992 0.6011 -160.897 209.1337)" class="st1" cx="129.1" cy="265.7" rx="2.4" ry="1.4"/>
		<polygon points="102.8,231.4 102.8,235.4 115,229 111.1,226.8 		"/>
		<polygon class="st1" points="102.8,235.4 102.8,231.4 82.2,219.5 82.2,224.1 		"/>
		<path class="st1" d="M132.5,261.3c-1.2-1.1-3.1-1.1-4.2,0.1c0,0-0.1,0.1-0.1,0.1l-27.6,23.7l-90.3-51.5L39,211.9
			c2.6-1.9,6.1-2,8.8-0.4l82.5,47.6C131.2,259.6,132,260.4,132.5,261.3z"/>
		<path d="M41.7,217l77,45.4l-18.3,16l-79-45.9L41.7,217 M41.5,214.4l-24,18.3l83.1,48.2l21.7-18.9L41.5,214.4L41.5,214.4z"/>
		<polygon class="st4" points="164.5,148.5 185,160.4 318.9,83.1 246.7,41.5 205.6,65.2 226.1,77.1 246.7,65.2 277.7,83.1 		"/>
		<polygon class="st4" points="185,53.3 226.1,29.6 205.6,17.7 164.5,41.4 		"/>
		<polygon class="st4" points="143.9,53.3 72.2,94.7 143.9,136.6 216.1,95 175,95 144.1,113 113.3,95.2 144.1,76.9 175,95 216.1,95 
					"/>
		<path class="st1" d="M167.6,173l-4.8,2.7L41.1,105.4l-1.6-0.9l1.6-0.9l0.8-0.4c2-1,4.3-1.1,6.3-0.3L166.1,171l2.5,0.5v0.4
			C169.1,172.1,167.2,172.4,167.6,173z"/>
		<polygon class="st1" points="100.6,285.3 100.6,289.5 100.6,289.6 10.4,237.1 10.4,233.8 		"/>
		<polygon points="152.4,191.5 143.7,186.5 143.7,176.5 152.4,181.5 		"/>
		<polygon class="st2" points="144.8,201.4 144.8,193.9 151.3,197.6 151.3,205.2 		"/>
		<path d="M145.9,195.7l4.4,2.5v5.1l-4.4-2.5V195.7 M143.7,192v10l8.7,5v-10L143.7,192L143.7,192z"/>
		<polygon points="152.4,221.3 143.7,216.3 143.7,206.3 152.4,211.3 		"/>
		<polygon points="138.7,184.1 130,179 130,169 138.7,174 		"/>
		<polygon class="st2" points="63.6,211.6 63.6,192 47.6,182.8 47.6,202 		"/>
		<path d="M60.3,196.4L60.3,196.4c0-0.9-0.5-1.7-1.2-2.2l-6.8-3.9c-0.5-0.3-1.1-0.1-1.4,0.4c-0.1,0.2-0.1,0.3-0.1,0.5v0.1
			c0,1,0.5,1.9,1.3,2.3l6.7,3.8c0.5,0.3,1.1,0.2,1.4-0.3C60.3,196.9,60.4,196.7,60.3,196.4z"/>
		<path d="M60.3,203.3L60.3,203.3c0-1-0.5-1.8-1.2-2.2l-6.8-3.9c-0.5-0.3-1.1-0.1-1.4,0.4c-0.1,0.2-0.1,0.3-0.1,0.5v0.1
			c0,1,0.5,1.9,1.3,2.3l6.7,3.8c0.5,0.3,1.1,0.2,1.4-0.3C60.3,203.8,60.4,203.5,60.3,203.3z"/>
		<polygon class="st1" points="31.4,126 1.1,108.4 1.1,104.7 31.4,121.7 		"/>
		<polygon points="31.4,126 39.6,121.6 39.6,117.4 31.4,121.7 		"/>
		<polygon class="st1" points="215.7,171.6 215.7,247.9 275.3,282.1 275.4,275.9 221.8,244.6 221.8,174.1 		"/>
		<polyline points="333.5,110 333.5,180.4 221.8,244.7 221.6,174.2 325.7,114.3 		"/>
		<polygon class="st0" points="229.5,177.6 325.9,122.2 325.9,176.8 229.6,232.3 		"/>
		<path d="M324.8,124v52.1l-94.1,54.3l-0.1-52.2L324.8,124 M327,120.3L228.4,177l0.1,57.1l98.4-56.8L327,120.3L327,120.3z"/>
		<polygon points="237,183 237,216.6 282.6,189.4 282.6,155.9 		"/>
		<polygon class="st2" points="237,182.7 237,216.6 253.9,206.5 253.9,173 		"/>
		<path d="M280.5,159.7v28.5l-41.4,24.6v-28.9l15-8.6L280.5,159.7 M282.7,155.9L253,173.5l-16,9.2v0.3l0,0l0.1,33.5l45.6-27.1
			L282.7,155.9L282.7,155.9z"/>
		<polygon class="st1" points="260.3,174.3 260.3,182.1 267,178.1 267.1,170.4 		"/>
		<polygon class="st1" points="271.9,167.6 272,175.5 278.7,171.5 278.7,163.7 		"/>
		<polygon class="st1" points="260.3,187.4 260.3,195.2 267,191.2 267.1,183.5 		"/>
		<polygon points="317.5,136.3 291,151.9 291.1,167.4 320,150.5 320,135 		"/>
		<polygon points="308.7,163.9 291.8,173.8 291.8,183.7 310.3,172.9 310.3,163 		"/>
		<polygon class="st1" points="215.7,171.6 221.6,174.2 333.5,110 327.8,106.7 		"/>
		<polygon class="st1" points="221.8,244.7 275.2,276 386.9,211.7 333.5,180.3 		"/>
		<path d="M333.6,190l21,12.6l-90,51.8l-21.7-12.3L333.6,190 M333.6,187.5l-95,54.7l26,14.7l94.1-54.2L333.6,187.5L333.6,187.5z"/>
		<path class="st5" d="M328.1,228.6l7.4,4.6c1,0.6,1.3,2,0.7,3c-0.2,0.3-0.4,0.6-0.8,0.7l-16.5,9.4c-1.5,0.9-3.4,0.8-4.9-0.1
			l-7.1-4.6c-0.9-0.6-1.1-1.7-0.5-2.6c0.2-0.2,0.4-0.4,0.6-0.6l17.3-10C325.5,227.8,326.9,227.8,328.1,228.6z"/>
		<path d="M318.7,246.5l16.8-9.6c1-0.6,1.4-1.9,0.8-2.9c-0.2-0.3-0.4-0.6-0.7-0.8l-2-1.3l-21.9,12.7l2.7,1.7
			C315.6,247.2,317.3,247.3,318.7,246.5z"/>
		<polygon class="st6" points="344.6,219 361.7,209 370.2,214.1 353.2,224.2 		"/>
		<ellipse cx="279.2" cy="261.6" rx="5.9" ry="3.4"/>
		<polyline points="21.6,144.4 21.6,140.7 31.8,134.9 31.8,138.3 		"/>
		<polygon class="st4" points="21.6,140.7 11.2,134.7 21.3,128.9 31.8,134.9 		"/>
		<polyline class="st1" points="21.6,144.4 21.6,140.7 11.2,134.7 11.2,138.6 		"/>
		<polyline points="131.6,296.7 131.6,293 147.7,284.1 147.7,287.5 		"/>
		<polygon class="st2" points="131.6,293 121.3,287 137.3,277.9 147.8,284 		"/>
		<polygon points="137.1,284.7 135.7,283.9 140.1,281.4 141.5,282.2 		"/>
		<polyline class="st1" points="131.6,296.7 131.6,293 121.3,287 121.3,290.9 		"/>
		<line class="st7" x1="221.8" y1="244.6" x2="334.4" y2="179.6"/>
		<line class="st7" x1="371.5" y1="149.4" x2="343.1" y2="132.6"/>
	</g>
	<g id="лайн">
		<polyline class="st7" points="334.4,149.4 339.7,151.9 346.1,147.6 346.1,67.4 233.3,1.6 226.4,5.3 226.4,30 226.4,53.2 		"/>
		<path d="M45.4,101.8l122.8,70.7l0.4,81.2l-5.2,3l-99.8-57.1v12.1l-16-9.6v-11.7l-8-4.6v-81.3l4.3-2L45.4,101.8 M45.4,99.7
			c-0.3,0-0.6,0.1-0.9,0.2l-1.5,0.7l-4.3,2c-0.8,0.4-1.2,1.1-1.2,1.9v81.3c0,0.8,0.4,1.5,1.1,1.9l6.9,4V202c0,0.7,0.4,1.4,1,1.8
			l16,9.6c0.3,0.2,0.7,0.3,1.1,0.3c0.4,0,0.7-0.1,1-0.3c0.7-0.4,1.1-1.1,1.1-1.9v-8.4l96.6,55.3c0.3,0.2,0.7,0.3,1.1,0.3
			c0.4,0,0.7-0.1,1.1-0.3l5.2-3c0.7-0.4,1.1-1.1,1.1-1.9l-0.4-81.2c0-0.8-0.4-1.5-1.1-1.9L46.5,100C46.1,99.8,45.8,99.7,45.4,99.7
			L45.4,99.7z"/>
		<polyline class="st7" points="39.6,104.5 162.9,175.8 168.2,172.5 		"/>
		<polyline class="st7" points="184.7,30 184.7,5.3 178.2,1.1 43.9,78.9 43.9,100.9 		"/>
		<line class="st7" x1="43.9" y1="78.9" x2="54" y2="84.7"/>
		<path d="M346.4,99.3l54.6,31.3v4.8l-31,18l-23.6-13.5L346.4,99.3 M346.5,97.1c-0.4,0-0.7,0.1-1.1,0.3c-0.7,0.4-1.1,1.1-1.1,1.8
			v40.6c0,0.8,0.4,1.5,1.1,1.9l23.6,13.6c0.3,0.2,0.7,0.3,1.1,0.3c0.4,0,0.7-0.1,1.1-0.3l31-18c0.7-0.4,1.1-1.1,1.1-1.9v-4.8
			c0-0.8-0.4-1.5-1.1-1.9l-54.6-31.4C347.2,97.2,346.8,97.1,346.5,97.1L346.5,97.1z"/>
		<path d="M327.8,106.7l5.7,3.3v70.3l53.4,31.4v6L275.3,282l-59.6-34.1v-76.2L327.8,106.7 M327.8,104.6c-0.4,0-0.7,0.1-1.1,0.3
			l-112.1,64.9c-0.7,0.4-1.1,1.1-1.1,1.9v76.2c0,0.8,0.4,1.5,1.1,1.9l59.6,34.1c0.3,0.2,0.7,0.3,1.1,0.3c0.4,0,0.7-0.1,1.1-0.3
			L388,219.5c0.7-0.4,1.1-1.1,1.1-1.9v-6c0-0.8-0.4-1.5-1-1.8l-52.3-30.8V110c0-0.8-0.4-1.5-1.1-1.9l-5.7-3.3
			C328.6,104.6,328.2,104.5,327.8,104.6L327.8,104.6z"/>
		<polyline class="st7" points="43.9,80.1 1.1,104.8 1.1,108.4 31.4,126 38.6,122.1 		"/>
		<polyline class="st7" points="46.5,192.6 46.5,181.9 64.6,192.5 64.6,201.4 		"/>
		<polyline class="st7" points="113.8,229.7 102.8,235.4 82.2,224.1 82.2,219.5 89.1,215.8 		"/>
		<polygon class="st7" points="121.3,290.9 121.3,287 137.3,277.9 147.8,284 147.8,287.5 131.6,296.7 		"/>
		<polyline class="st7" points="164.6,169.4 164.5,148.5 277.7,83.1 246.7,65.2 226.1,77.1 205.6,65.2 246.7,41.5 318.9,83.1 
			318.9,110.8 		"/>
		<polygon class="st7" points="226.4,30 205.6,17.7 164.5,41.4 185,53.3 		"/>
		<polyline class="st7" points="141.7,52 216.1,95 143.9,136.6 72.2,94.7 		"/>
		<polygon class="st7" points="113.3,95.2 144.1,113 175,95 144.1,76.9 		"/>
		<polyline class="st7" points="275.4,275.9 221.8,244.6 221.6,174.2 215.7,171.6 		"/>
		<path d="M43.5,210.4c1.5,0,3,0.3,4.4,1l82.5,47.6c1,0.6,4.9,3.4,1.3,8.3c-2.2,3-4,3.6-5.2,3.6c-0.4,0-0.8-0.1-1.2-0.3l-24.5,18.8
			l-90.3-52.4v-3.4L39,211.9C40.3,210.9,41.9,210.4,43.5,210.4 M43.5,208.3c-2.1,0-4.1,0.6-5.8,1.9L9.1,232.1
			c-0.5,0.4-0.8,1-0.8,1.7v3.4c0,0.8,0.4,1.5,1.1,1.9l90.3,52.4c0.7,0.4,1.7,0.4,2.4-0.1l23.7-18.2c0.2,0,0.5,0,0.7,0
			c1.7,0,4.3-0.8,6.9-4.5c1.5-1.8,2.2-4.2,1.8-6.5c-0.5-2.1-1.9-3.8-3.7-4.9l-82.5-47.7h-0.1C47.2,208.8,45.3,208.3,43.5,208.3
			L43.5,208.3z"/>
		<polyline class="st7" points="100.6,289.5 100.6,285.3 10.4,233.8 		"/>
		<line class="st7" x1="226.4" y1="5.3" x2="342.9" y2="73.2"/>
		<line class="st7" x1="162.9" y1="175.8" x2="162.9" y2="256.7"/>
		<line class="st7" x1="82.2" y1="219.5" x2="103.9" y2="231.9"/>
		<path class="st7" d="M100.6,285.3c0,0,25.5-22.2,27.2-23.4s3.8-2.4,5.4-0.3"/>
		<polyline class="st7" points="169.3,234.1 185,243.2 214.4,226.9 		"/>
		<line class="st7" x1="164.5" y1="148.5" x2="189" y2="162.6"/>
		<line class="st7" x1="1.1" y1="104.8" x2="32.8" y2="122.4"/>
		<polygon class="st7" points="31.8,134.9 31.8,138.3 21.6,144.4 11.2,138.6 11.2,134.7 21.3,128.9 		"/>
		<line class="st7" x1="216.1" y1="95" x2="216.1" y2="118.7"/>
		<line class="st7" x1="143.9" y1="136.6" x2="143.9" y2="157.2"/>
		<line class="st7" x1="185" y1="53.3" x2="185" y2="77.4"/>
		<line class="st7" x1="226.1" y1="77.1" x2="226.1" y2="112.4"/>
		<line class="st7" x1="246.7" y1="65.2" x2="246.9" y2="100.9"/>
		<line class="st7" x1="221.6" y1="174.2" x2="333.5" y2="110"/>
	</g>
</g>
</svg>
