<svg width="60" height="45" viewBox="0 0 60 45" fill="none" xmlns="http://www.w3.org/2000/svg">
<path opacity="0.3" fill-rule="evenodd" clip-rule="evenodd" d="M18.309 22.6985H22.309C22.778 22.6985 23.159 22.3175 23.159 21.8485C23.159 21.3795 22.778 20.9985 22.309 20.9985H18.309C17.84 20.9985 17.459 21.3795 17.459 21.8485C17.459 22.3175 17.84 22.6985 18.309 22.6985ZM9.53619 22.6345C9.67919 22.9465 9.98719 23.1305 10.3092 23.1305C10.4282 23.1305 10.5482 23.1055 10.6632 23.0535C11.1752 22.8185 11.7232 22.6995 12.2902 22.6995H14.2462C14.7152 22.6995 15.0962 22.3185 15.0962 21.8495C15.0962 21.3805 14.7152 20.9995 14.2462 20.9995H12.2902C11.4762 20.9995 10.6912 21.1705 9.95519 21.5075C9.52819 21.7025 9.34119 22.2075 9.53619 22.6345ZM6.45898 28.821C6.45898 29.29 6.83998 29.671 7.30898 29.671C7.77798 29.671 8.15898 29.29 8.15898 28.821V26.437C8.15898 25.986 8.23098 25.543 8.37198 25.12C8.52198 24.675 8.28198 24.193 7.83698 24.044C7.39098 23.892 6.90998 24.134 6.76098 24.58C6.55998 25.177 6.45898 25.802 6.45898 26.437V28.821ZM40.8502 22.6985H36.8502C36.3812 22.6985 36.0002 22.3175 36.0002 21.8485C36.0002 21.3795 36.3812 20.9985 36.8502 20.9985H40.8502C41.3192 20.9985 41.7002 21.3795 41.7002 21.8485C41.7002 22.3175 41.3192 22.6985 40.8502 22.6985ZM32.8502 22.6985C33.3192 22.6985 33.7002 22.3175 33.7002 21.8485C33.7002 21.3795 33.3192 20.9985 32.8502 20.9985H25.8502C25.3812 20.9985 25.0002 21.3795 25.0002 21.8485C25.0002 22.3175 25.3812 22.6985 25.8502 22.6985H32.8502ZM48.7873 23.1301C49.1093 23.1301 49.4173 22.9461 49.5603 22.6341C49.7553 22.2071 49.5683 21.7021 49.1413 21.5071C48.4053 21.1701 47.6203 20.9991 46.8063 20.9991H44.8503C44.3813 20.9991 44.0003 21.3801 44.0003 21.8491C44.0003 22.3181 44.3813 22.6991 44.8503 22.6991H46.8063C47.3733 22.6991 47.9213 22.8181 48.4333 23.0531C48.5483 23.1051 48.6683 23.1301 48.7873 23.1301ZM52.4893 29.1481C52.4893 29.6171 52.1083 29.9981 51.6393 29.9981C51.1703 29.9981 50.7893 29.6171 50.7893 29.1481V26.7641C50.7893 26.3131 50.7173 25.8701 50.5763 25.4471C50.4263 25.0021 50.6663 24.5201 51.1113 24.3711C51.5573 24.2191 52.0383 24.4611 52.1873 24.9071C52.3883 25.5041 52.4893 26.1291 52.4893 26.7641V29.1481Z" fill="#43484D"/>
<path fill-rule="evenodd" clip-rule="evenodd" d="M31.4332 38.1463H27.4662C26.9962 38.1463 26.6162 37.7653 26.6162 37.2963C26.6162 36.8273 26.9962 36.4463 27.4662 36.4463H31.4332C31.9022 36.4463 32.2832 36.8273 32.2832 37.2963C32.2832 37.7653 31.9022 38.1463 31.4332 38.1463Z" fill="#43484D"/>
<path fill-rule="evenodd" clip-rule="evenodd" d="M41.4933 14.8761H17.4053C16.3013 14.8761 15.4053 13.9811 15.4053 12.8761V3.55811C15.4053 2.45411 16.3013 1.55811 17.4053 1.55811H41.4933C42.5983 1.55811 43.4933 2.45411 43.4933 3.55811V12.8761C43.4933 13.9811 42.5983 14.8761 41.4933 14.8761Z" fill="#E0E7ED"/>
<path fill-rule="evenodd" clip-rule="evenodd" d="M13.3337 37.4113C13.3337 40.6143 10.7277 43.2203 7.52366 43.2203C4.32066 43.2203 1.71466 40.6143 1.71466 37.4113V37.1823C1.71466 33.9793 4.32066 31.3733 7.52366 31.3733C10.7277 31.3733 13.3337 33.9793 13.3337 37.1823V37.4113ZM7.52365 29.6714C3.38365 29.6714 0.0146484 33.0394 0.0146484 37.1804V37.4094C0.0146484 41.5504 3.38365 44.9184 7.52365 44.9184C11.6646 44.9184 15.0336 41.5504 15.0336 37.4094V37.1804C15.0336 33.0394 11.6646 29.6714 7.52365 29.6714Z" fill="#43484D"/>
<path fill-rule="evenodd" clip-rule="evenodd" d="M7.52383 34.4629C7.05483 34.4629 6.67383 34.8439 6.67383 35.3129V39.2799C6.67383 39.7499 7.05483 40.1299 7.52383 40.1299C7.99283 40.1299 8.37383 39.7499 8.37383 39.2799V35.3129C8.37383 34.8439 7.99283 34.4629 7.52383 34.4629Z" fill="#43484D"/>
<path fill-rule="evenodd" clip-rule="evenodd" d="M57.3131 37.4113C57.3131 40.6143 54.7071 43.2203 51.5031 43.2203C48.3001 43.2203 45.6941 40.6143 45.6941 37.4113V37.1823C45.6941 33.9793 48.3001 31.3733 51.5031 31.3733C54.7071 31.3733 57.3131 33.9793 57.3131 37.1823V37.4113ZM51.5031 29.6714C47.3631 29.6714 43.9941 33.0394 43.9941 37.1804V37.4094C43.9941 41.5504 47.3631 44.9184 51.5031 44.9184C55.6441 44.9184 59.0131 41.5504 59.0131 37.4094V37.1804C59.0131 33.0394 55.6441 29.6714 51.5031 29.6714Z" fill="#43484D"/>
<path fill-rule="evenodd" clip-rule="evenodd" d="M51.5033 34.4619C51.0343 34.4619 50.6533 34.8429 50.6533 35.3119V39.2789C50.6533 39.7489 51.0343 40.1289 51.5033 40.1289C51.9723 40.1289 52.3533 39.7489 52.3533 39.2789V35.3119C52.3533 34.8429 51.9723 34.4619 51.5033 34.4619Z" fill="#43484D"/>
<path fill-rule="evenodd" clip-rule="evenodd" d="M42.6437 12.8762C42.6437 13.5102 42.1277 14.0262 41.4937 14.0262H17.4067C16.7717 14.0262 16.2567 13.5102 16.2567 12.8762V3.55918C16.2567 2.92418 16.7717 2.40918 17.4067 2.40918H41.4937C42.1277 2.40918 42.6437 2.92418 42.6437 3.55918V12.8762ZM33.1397 31.3733C34.3247 31.3733 35.2897 32.3373 35.2897 33.5233V41.0703C35.2897 42.2563 34.3247 43.2203 33.1397 43.2203H25.8207C24.6347 43.2203 23.6707 42.2563 23.6707 41.0703V33.5233C23.6707 32.3373 24.6347 31.3733 25.8207 31.3733H33.1397ZM44.3436 3.55898C44.3436 1.98698 43.0646 0.708984 41.4936 0.708984H17.4066C15.8346 0.708984 14.5566 1.98698 14.5566 3.55898V12.876C14.5566 14.447 15.8346 15.726 17.4066 15.726H28.6296V29.673H25.8206C23.6976 29.673 21.9706 31.4 21.9706 33.523V41.07C21.9706 43.193 23.6976 44.92 25.8206 44.92H33.1396C35.2626 44.92 36.9896 43.193 36.9896 41.07V33.523C36.9896 31.4 35.2626 29.673 33.1396 29.673H30.3296V15.726H41.4936C43.0646 15.726 44.3436 14.447 44.3436 12.876V3.55898Z" fill="#43484D"/>
<path fill-rule="evenodd" clip-rule="evenodd" d="M33.1996 7.36719H25.6996C25.2306 7.36719 24.8496 7.74819 24.8496 8.21719C24.8496 8.68619 25.2306 9.06719 25.6996 9.06719H33.1996C33.6686 9.06719 34.0496 8.68619 34.0496 8.21719C34.0496 7.74819 33.6686 7.36719 33.1996 7.36719Z" fill="#43484D"/>
</svg>
