<svg width="32" height="40" viewBox="0 0 32 40" fill="none" xmlns="http://www.w3.org/2000/svg">
<path fill-rule="evenodd" clip-rule="evenodd" d="M11.9566 31.6345H8.23277H4.50977V2.92092C4.50977 1.74868 5.45961 0.798828 6.63186 0.798828H9.83452C11.0068 0.798828 11.9566 1.74868 11.9566 2.92092V31.6345Z" fill="#E0E7ED"/>
<path fill-rule="evenodd" clip-rule="evenodd" d="M10.8466 33.4343C10.8466 33.7985 10.7532 34.1575 10.5758 34.4758L7.84426 37.8245L5.11355 34.4758C4.93615 34.1575 4.84277 33.7985 4.84277 33.4343V32.3877H10.8466V33.4343ZM10.8466 6.97688V30.8368H4.84277V6.93359C6.74417 6.93954 8.99274 6.95736 10.8466 6.97688ZM6.24335 1.44434H9.44602C10.2185 1.44434 10.8466 2.07248 10.8466 2.84492V5.53403C8.25001 5.50602 6.30447 5.4882 4.84277 5.48225V2.84492C4.84277 2.07248 5.47091 1.44434 6.24335 1.44434ZM9.44586 0.000976562H6.2432C4.6754 0.000976562 3.39959 1.27678 3.39959 2.84458V5.47937C0.487233 5.48531 0.395558 5.5702 0.215605 5.7476C0.078093 5.88342 0 6.07016 0 6.26285V20.7177C0 21.1158 0.323407 21.4392 0.721512 21.4392C1.12047 21.4392 1.44302 21.1158 1.44302 20.7177V6.94362C1.8997 6.93428 2.58386 6.93088 3.39959 6.93088V31.5582C3.39959 31.5777 3.40893 31.593 3.41063 31.6125C3.40893 31.6312 3.39959 31.6465 3.39959 31.666V33.4341C3.39959 34.0725 3.57106 34.7014 3.89531 35.2515C3.91399 35.2829 3.93436 35.3135 3.95728 35.3415L7.28557 39.4218C7.42223 39.5899 7.62765 39.6875 7.8441 39.6875C8.06141 39.6875 8.26598 39.5899 8.40349 39.4218L11.7309 35.3415C11.7547 35.3135 11.7751 35.2829 11.7937 35.2515C12.118 34.7006 12.2895 34.0725 12.2895 33.4341V31.666C12.2895 31.6465 12.2801 31.6312 12.2784 31.6125C12.2801 31.593 12.2895 31.5777 12.2895 31.5582V2.84458C12.2895 1.27678 11.0137 0.000976562 9.44586 0.000976562Z" fill="#43484D"/>
<path opacity="0.3" fill-rule="evenodd" clip-rule="evenodd" d="M15.4189 6.92984H13.1414C12.7433 6.92984 12.4199 6.60643 12.4199 6.20833C12.4199 5.81022 12.7433 5.48682 13.1414 5.48682H15.4189C15.817 5.48682 16.1404 5.81022 16.1404 6.20833C16.1404 6.60643 15.817 6.92984 15.4189 6.92984ZM22.2096 6.92984H18.8143C18.4162 6.92984 18.0928 6.60643 18.0928 6.20833C18.0928 5.81022 18.4162 5.48682 18.8143 5.48682H22.2096C22.6077 5.48682 22.9311 5.81022 22.9311 6.20833C22.9311 6.60643 22.6077 6.92984 22.2096 6.92984ZM28.934 7.29957C28.8126 7.29957 28.6886 7.26816 28.5749 7.2028C28.2651 7.02455 27.9111 6.93033 27.5503 6.93033H25.6048C25.2067 6.93033 24.8833 6.60692 24.8833 6.20882C24.8833 5.81071 25.2067 5.4873 25.6048 5.4873H27.5503C28.1632 5.4873 28.7667 5.64773 29.2956 5.95247C29.6402 6.1511 29.759 6.59249 29.5604 6.93797C29.4263 7.1697 29.1844 7.29957 28.934 7.29957ZM30.3309 13.5815C29.9328 13.5815 29.6094 13.2581 29.6094 12.86V9.46468C29.6094 9.06657 29.9328 8.74316 30.3309 8.74316C30.7298 8.74316 31.0524 9.06657 31.0524 9.46468V12.86C31.0524 13.2581 30.7298 13.5815 30.3309 13.5815ZM30.3309 20.3716C29.9328 20.3716 29.6094 20.0482 29.6094 19.6501V16.2547C29.6094 15.8566 29.9328 15.5332 30.3309 15.5332C30.7298 15.5332 31.0524 15.8566 31.0524 16.2547V19.6501C31.0524 20.0482 30.7298 20.3716 30.3309 20.3716ZM30.3309 27.1626C29.9328 27.1626 29.6094 26.8392 29.6094 26.4411V23.0457C29.6094 22.6476 29.9328 22.3242 30.3309 22.3242C30.7298 22.3242 31.0524 22.6476 31.0524 23.0457V26.4411C31.0524 26.8392 30.7298 27.1626 30.3309 27.1626ZM16.5368 31.5373H13.1414C12.7433 31.5373 12.4199 31.2139 12.4199 30.8158C12.4199 30.4168 12.7433 30.0942 13.1414 30.0942H16.5368C16.9357 30.0942 17.2583 30.4168 17.2583 30.8158C17.2583 31.2139 16.9357 31.5373 16.5368 31.5373ZM23.3278 31.5373H19.9324C19.5343 31.5373 19.2109 31.2139 19.2109 30.8158C19.2109 30.4168 19.5343 30.0942 19.9324 30.0942H23.3278C23.7268 30.0942 24.0493 30.4168 24.0493 30.8158C24.0493 31.2139 23.7268 31.5373 23.3278 31.5373ZM27.5511 31.5373H26.7235C26.3254 31.5373 26.002 31.2139 26.002 30.8158C26.002 30.4168 26.3254 30.0943 26.7235 30.0943H27.5511C28.2021 30.0943 28.8006 29.7963 29.1936 29.2768C29.4347 28.9594 29.8879 28.8983 30.2045 29.1376C30.522 29.3779 30.5848 29.8303 30.3446 30.1486C29.6749 31.0314 28.658 31.5373 27.5511 31.5373Z" fill="#43484D"/>
<path fill-rule="evenodd" clip-rule="evenodd" d="M15.7948 13.5456H25.132C25.5301 13.5456 25.8535 13.2222 25.8535 12.8241C25.8535 12.4259 25.5301 12.1025 25.132 12.1025H15.7948C15.3966 12.1025 15.0732 12.4259 15.0732 12.8241C15.0732 13.2222 15.3966 13.5456 15.7948 13.5456Z" fill="#43484D"/>
<path fill-rule="evenodd" clip-rule="evenodd" d="M25.132 18.0449H15.7948C15.3966 18.0449 15.0732 18.3683 15.0732 18.7664C15.0732 19.1645 15.3966 19.4879 15.7948 19.4879H25.132C25.5301 19.4879 25.8535 19.1645 25.8535 18.7664C25.8535 18.3683 25.5301 18.0449 25.132 18.0449Z" fill="#43484D"/>
<path fill-rule="evenodd" clip-rule="evenodd" d="M25.132 23.9863H15.7948C15.3966 23.9863 15.0732 24.3097 15.0732 24.7078C15.0732 25.1059 15.3966 25.4294 15.7948 25.4294H25.132C25.5301 25.4294 25.8535 25.1059 25.8535 24.7078C25.8535 24.3097 25.5301 23.9863 25.132 23.9863Z" fill="#43484D"/>
</svg>
