<?xml version="1.0" encoding="utf-8"?>
<!-- Generator: Adobe Illustrator 22.1.0, SVG Export Plug-In . SVG Version: 6.00 Build 0)  -->
<svg version="1.1" id="Слой_1" xmlns="http://www.w3.org/2000/svg" xmlns:xlink="http://www.w3.org/1999/xlink" x="0px" y="0px"
	 viewBox="0 0 351.8 380.9" style="enable-background:new 0 0 351.8 380.9;" xml:space="preserve">
<style type="text/css">
	.st0{fill:#FFFFFF;}
	.st1{fill:#CCCCCC;}
	.st2{fill:#B8CFE3;}
	.st3{fill:#00A9BC;}
	.st4{fill:none;stroke:#000000;stroke-width:2;stroke-linecap:round;stroke-linejoin:round;}
	.st5{fill:none;stroke:#FFFFFF;stroke-width:2;stroke-linecap:round;stroke-linejoin:round;}
	.st6{fill:none;stroke:#000000;stroke-width:2;stroke-miterlimit:10;}
</style>
<title>Ресурс 3</title>
<g id="Слой_2_1_">
	<g id="_0002">
		<polygon class="st0" points="134.8,134.1 102.6,152.8 167.5,190.2 232.3,152.8 200.1,134.1 167.5,152.5 		"/>
		<polygon class="st0" points="167.7,90.2 134.9,109.1 167.7,127.6 199.7,108.9 		"/>
		<polygon class="st1" points="134.9,109.1 167.7,127.6 167.7,127.6 150.6,163.2 118,144.4 		"/>
		<polygon class="st0" points="296.8,239.3 264,257.9 264.2,258.1 282.2,293.1 313.7,274.6 		"/>
		<polygon class="st2" points="70.7,196.5 103.4,215 103.3,215.3 86.4,250.5 53.8,231.7 		"/>
		<polygon class="st0" points="167.7,215 232.8,177.5 264.4,196.3 167.9,252.6 70.7,196.5 102.2,177.5 		"/>
		<polyline class="st0" points="37.7,240.1 167.3,315 297.2,240.1 264.4,221.4 167.9,277.6 70.7,221.4 37.7,240.1 		"/>
		<polygon class="st0" points="232.3,152.8 199.6,171.3 199.7,171.6 216.6,206.8 249.2,188 		"/>
		<polygon class="st0" points="167.7,127.6 134.9,109.1 118,144.4 150.6,163.2 		"/>
		<polygon class="st0" points="103.3,215.3 70.7,196.5 53.8,231.7 86.4,250.5 		"/>
		<polygon points="216.6,206.8 199.7,171.6 167.5,190.2 102.6,152.8 102.6,177.5 167.7,215 200.1,196.2 		"/>
		<polygon points="103.3,215.3 86.4,250.5 102.6,240.1 167.9,277.6 264.4,221.4 264.4,196.3 167.9,252.6 		"/>
		<polyline points="37.7,265.1 167.5,340 265,283.7 282.6,293.9 264.4,258.6 167.3,315 37.7,240.1 		"/>
		<polygon points="199.7,108.9 167.7,127.6 150.6,163.2 200.1,134.1 		"/>
		<polygon points="167.5,190.2 167.5,215 102.6,177.5 102.6,152.8 		"/>
		<polygon points="199.7,171.6 200.1,196.2 216.6,206.8 		"/>
		<polygon points="103.3,215.3 102.6,240.1 167.9,277.6 167.9,252.6 		"/>
		<polygon points="264.4,258.6 265,283.7 282.6,293.9 		"/>
		<polyline points="37.7,240.1 167.3,315 167.5,340 37.7,265.1 		"/>
		<polygon class="st0" points="125.8,290 93.3,271.3 81.5,278.2 113.4,297.1 		"/>
		<polygon class="st0" points="125.2,290.7 125.2,315.6 113.4,321.3 113.4,297.1 		"/>
		<polygon points="113.4,297.1 81.5,278.2 81.5,302.6 113.4,321.3 		"/>
		<ellipse class="st3" cx="166.7" cy="107.5" rx="15.9" ry="9.1"/>
		<polygon points="179.9,79.2 179.9,47.3 226.6,47.3 226.6,79.5 		"/>
		<polygon class="st3" points="173.2,73.1 173.2,41.2 219.9,41.2 219.9,73.4 		"/>
		<path d="M166.7,39.9L166.7,39.9c1.1,0,2,0.9,2,2v63.4c0,1.1-0.9,2-2,2l0,0c-1.1,0-2-0.9-2-2V41.9
			C164.7,40.8,165.6,39.9,166.7,39.9z"/>
		<polygon class="st0" points="202.1,56 197.3,51.2 192.5,56 187.6,51.2 187.6,64.6 197.3,64.6 206.9,64.6 206.9,51.2 		"/>
		<polygon class="st3" points="64.7,226.2 83.2,236.9 83.2,211.4 		"/>
		<polygon class="st3" points="127.2,138.2 145.7,148.9 145.7,123.4 		"/>
		<polygon class="st3" points="238.5,183.7 220,194.3 220,168.8 		"/>
		<polygon class="st3" points="303.1,269.7 284.6,280.4 284.6,254.9 		"/>
		<polygon class="st0" points="200.2,171.7 200.6,196.3 216.6,206.8 		"/>
		<polygon class="st0" points="102.6,240.1 102.6,215.3 86.4,250.5 103.6,240.6 		"/>
		<polygon class="st0" points="264.4,258.6 265,283.7 282.6,293.9 		"/>
		<polygon class="st0" points="167.7,127.6 167.7,153.3 150.6,163.2 		"/>
	</g>
	<g id="лайн">
		<polyline class="st4" points="200.6,196.5 167.7,215 102.6,177.5 102.6,152.8 118,144.4 134.9,109.1 167.7,90.2 199.7,108.9 
			200.1,134.1 232.3,152.8 249.2,188 264.4,196.3 264.4,221.4 167.9,277.6 103.4,240.7 104.1,215.8 167.9,252.6 167.9,277.6 		"/>
		<polyline class="st4" points="102.6,177.5 70.7,196.5 53.8,231.7 37.7,240.1 37.7,265.1 81.5,290.4 81.5,302.6 113.4,321.3 
			125.2,315.6 167.5,340 265,283.7 282.6,293.9 314.1,275.4 297.2,240.1 264.4,221.4 		"/>
		<polyline class="st4" points="282.6,293.9 264.4,258.6 167.3,315 167.5,340 		"/>
		<polyline class="st4" points="113.4,321.3 113.4,297.1 125.2,290.7 167.3,315 		"/>
		<line class="st4" x1="125.2" y1="290.7" x2="125.2" y2="315.6"/>
		<polyline class="st4" points="113.4,297.1 81.5,278.2 81.5,302.6 		"/>
		<polyline class="st4" points="81.5,278.2 93.3,271.3 37.7,240.1 		"/>
		<polyline class="st4" points="102.6,152.8 167.5,190.2 199.7,171.6 216.6,206.8 200.6,196.5 167.7,215 167.5,190.2 		"/>
		<polyline class="st4" points="167.9,277.6 102.6,240.1 86.4,250.5 103.3,215.3 		"/>
		<line class="st4" x1="167.9" y1="252.6" x2="264.4" y2="196.3"/>
		<polygon class="st4" points="167.7,127.6 199.7,108.9 200.1,134.1 150.6,163.2 		"/>
		<polygon class="st4" points="173.4,73.4 173.4,41.5 220.1,41.5 220.1,73.7 		"/>
		<line class="st5" x1="167.5" y1="183.5" x2="167.5" y2="217.3"/>
		<line class="st5" x1="167.2" y1="251.1" x2="167.2" y2="277.6"/>
		<line class="st5" x1="167.2" y1="313.5" x2="167.2" y2="339.9"/>
	</g>
</g>
<line class="st6" x1="134.9" y1="109.1" x2="167.7" y2="127.6"/>
<line class="st6" x1="118" y1="144.4" x2="150.6" y2="163.2"/>
<line class="st6" x1="216.6" y1="206.8" x2="249.2" y2="188"/>
<line class="st6" x1="105.2" y1="216.4" x2="70.7" y2="196.5"/>
<line class="st6" x1="86.4" y1="250.5" x2="53.8" y2="231.7"/>
<line class="st6" x1="264.4" y1="258.6" x2="297.2" y2="240.1"/>
<line class="st6" x1="197.5" y1="172.9" x2="232.3" y2="152.8"/>
</svg>
