<?xml version="1.0" encoding="UTF-8"?>
<svg width="195px" height="63px" viewBox="0 0 195 63" version="1.1" xmlns="http://www.w3.org/2000/svg" xmlns:xlink="http://www.w3.org/1999/xlink">
    <g id="Decktop-UI" stroke="none" stroke-width="1" fill="none" fill-rule="evenodd">
        <g id="Main-Page_v.7" transform="translate(-248.000000, -6101.000000)">
            <g id="Events" transform="translate(24.000000, 5152.000000)">
                <g id="Text" transform="translate(224.000000, 576.000000)">
                    <g id="Button" transform="translate(1.000000, 374.000000)">
                        <g id="btn" stroke="#17B838" stroke-width="2">
                            <polyline id="Path-5" points="157.411133 30 166 30 166 10 10 10 10 51 171 51 171 5 5 5 5 56 176 56 176 -9.09494702e-13 1.36673171e-15 -9.09494702e-13 0 61 181 61 181 30 194 30"></polyline>
                        </g>
                        <g id="arr" transform="translate(188.000000, 24.500000)" fill="#1A9B4A">
                            <polygon id="Fill-6" points="2 4.5 4 4.5 4 2.5 2 2.5"></polygon>
                            <polygon id="Fill-6" points="2 8.5 4 8.5 4 6.5 2 6.5"></polygon>
                            <polygon id="Fill-6" points="0 10.5 2 10.5 2 8.5 0 8.5"></polygon>
                            <polygon id="Fill-6" points="0 2.5 2 2.5 2 0.5 0 0.5"></polygon>
                        </g>
                    </g>
                </g>
            </g>
        </g>
    </g>
</svg>