<?xml version="1.0" encoding="UTF-8"?>
<svg width="160px" height="50px" viewBox="0 0 160 50" version="1.1" xmlns="http://www.w3.org/2000/svg" xmlns:xlink="http://www.w3.org/1999/xlink">
    <!-- Generator: Sketch 52 (66869) - http://www.bohemiancoding.com/sketch -->
    <title>Pixel button/white</title>
    <desc>Created with Sketch.</desc>
    <g id="Symbols" stroke="none" stroke-width="1" fill="none" fill-rule="evenodd">
        <g id="Header/without-bg" transform="translate(-1110.000000, -10.000000)">
            <g id="Pixel-button/white" transform="translate(1110.000000, 10.000000)">
                <g id="BG" transform="translate(0.000000, 2.000000)">
                    <rect id="Rectangle" fill="#17B838" x="0" y="0" width="158" height="46"></rect>
                    <rect id="Rectangle" fill="#1ADB41" x="2" y="0" width="4" height="46"></rect>
                    <rect id="Rectangle" fill="#0B5E1C" x="154" y="0" width="4" height="46"></rect>
                    <polygon id="Rectangle" fill="#1ADB41" transform="translate(80.000000, 2.000000) rotate(-90.000000) translate(-80.000000, -2.000000) " points="78 -76 82 -76 82 80 78 80"></polygon>
                    <polygon id="Rectangle" fill="#0B5E1C" transform="translate(79.000000, 44.000000) rotate(-90.000000) translate(-79.000000, -44.000000) " points="77 -35 81 -35 81 123 77 123"></polygon>
                    <rect id="Rectangle" fill="#0B5E1C" x="150" y="38" width="8" height="8"></rect>
                </g>
                <g id="text" fill="#FFFFFF">
                    <polygon id="Rectangle" points="2 0 158 0 158 2 2 2"></polygon>
                    <polygon id="Rectangle-Copy-4" points="2 1 158 1 158 3 2 3"></polygon>
                    <polygon id="Rectangle" points="2 48 158 48 158 50 2 50"></polygon>
                    <polygon id="Rectangle-Copy-3" points="2 47 158 47 158 49 2 49"></polygon>
                    <polygon id="Rectangle" transform="translate(159.000000, 25.017700) rotate(-270.000000) translate(-159.000000, -25.017700) " points="135.9823 24.0177002 182.0177 24.0177002 182.0177 26.0177002 135.9823 26.0177002"></polygon>
                    <polygon id="Rectangle-Copy-2" transform="translate(158.000000, 25.017700) rotate(-270.000000) translate(-158.000000, -25.017700) " points="134.9823 24.0177002 181.0177 24.0177002 181.0177 26.0177002 134.9823 26.0177002"></polygon>
                    <polygon id="Rectangle" transform="translate(1.000000, 25.017700) rotate(-270.000000) translate(-1.000000, -25.017700) " points="-22.0177002 24.0177002 24.0177002 24.0177002 24.0177002 26.0177002 -22.0177002 26.0177002"></polygon>
                    <polygon id="Rectangle-Copy" transform="translate(1.982300, 25.017700) rotate(-270.000000) translate(-1.982300, -25.017700) " points="-21.0177002 24.0177002 24.9822998 24.0177002 24.9822998 26.0177002 -21.0177002 26.0177002"></polygon>
                </g>
            </g>
        </g>
    </g>
</svg>