<?xml version="1.0" encoding="UTF-8"?>
<svg width="45px" height="46px" viewBox="0 0 45 46" version="1.1" xmlns="http://www.w3.org/2000/svg" xmlns:xlink="http://www.w3.org/1999/xlink">
    <!-- Generator: Sketch 52 (66869) - http://www.bohemiancoding.com/sketch -->
    <title>arrow copy</title>
    <desc>Created with Sketch.</desc>
    <g id="Decktop-UI" stroke="none" stroke-width="1" fill="none" fill-rule="evenodd">
        <g id="Main-Page_v.7" transform="translate(-994.000000, -6344.000000)">
            <g id="Feedback" transform="translate(16.000000, 6328.000000)">
                <g id="arrow-copy" transform="translate(978.000000, 16.000000)">
                    <g id="bg">
                        <rect id="Rectangle" fill="#17B838" x="1.97142857" y="1.97142857" width="42.0571429" height="42.0571429"></rect>
                        <rect id="Rectangle" fill="#000000" x="1" y="0" width="43" height="2"></rect>
                        <polygon id="Rectangle" fill="#000000" transform="translate(1.000000, 22.500000) rotate(-270.000000) translate(-1.000000, -22.500000) " points="-20.5 21.5 22.5 21.5 22.5 23.5 -20.5 23.5"></polygon>
                        <rect id="Rectangle" fill="#0B5E1C" x="39" y="39" width="5" height="5"></rect>
                        <rect id="Rectangle" fill="#0B5E1C" x="41" y="3" width="2" height="36"></rect>
                        <rect id="Rectangle" fill="#0B5E1C" x="1.97142857" y="42.0571429" width="37.8" height="2"></rect>
                        <rect id="Rectangle" fill="#1ADB41" x="2" y="2" width="2" height="40.0857143"></rect>
                        <rect id="Rectangle" fill="#1ADB41" x="2" y="2" width="42.0571429" height="2"></rect>
                        <rect id="Rectangle-Copy-17" fill="#000000" x="1" y="44" width="43" height="2"></rect>
                        <polygon id="Rectangle" fill="#000000" transform="translate(44.000000, 22.500000) rotate(-270.000000) translate(-44.000000, -22.500000) " points="22.5 21.5 65.5 21.5 65.5 23.5 22.5 23.5"></polygon>
                    </g>
                </g>
            </g>
        </g>
    </g>
</svg>