<?xml version="1.0" encoding="UTF-8"?>
<svg width="8px" height="13px" viewBox="0 0 8 13" version="1.1" xmlns="http://www.w3.org/2000/svg" xmlns:xlink="http://www.w3.org/1999/xlink">
    <!-- Generator: Sketch 52 (66869) - http://www.bohemiancoding.com/sketch -->
    <title>Group</title>
    <desc>Created with Sketch.</desc>
    <g id="Symbols" stroke="none" stroke-width="1" fill="none" fill-rule="evenodd">
        <g id="Footer" transform="translate(-1128.000000, -59.000000)" fill="#FFFFFF" fill-rule="nonzero">
            <g id="sub">
                <g transform="translate(880.000000, 0.000000)">
                    <g id="btn" transform="translate(197.000000, 45.000000)">
                        <g id="Group" transform="translate(49.000000, 11.000000)">
                            <g id="a-link">
                                <g id="a">
                                    <path d="M7.81818182,13.8333333 L7.81818182,10.9444444 L4.90909091,10.9444444 L4.90909091,13.8333333 L7.81818182,13.8333333 Z M2,13.1111111 L2,16 L4.90909091,16 L4.90909091,13.1111111 L2,13.1111111 Z M4.90909091,8.05555556 L7.81818182,8.05555556 L7.81818182,5.16666667 L4.90909091,5.16666667 L4.90909091,8.05555556 Z M10,8.05555556 L7.09090909,8.05555556 L7.09090909,10.9444444 L10,10.9444444 L10,8.05555556 Z M4.90909091,5.88888889 L4.90909091,3 L2,3 L2,5.88888889 L4.90909091,5.88888889 Z" id="Shape"></path>
                                </g>
                            </g>
                        </g>
                    </g>
                </g>
            </g>
        </g>
    </g>
</svg>