<?xml version="1.0" encoding="UTF-8"?>
<svg width="115px" height="112px" viewBox="0 0 115 112" version="1.1" xmlns="http://www.w3.org/2000/svg" xmlns:xlink="http://www.w3.org/1999/xlink">
    <!-- Generator: Sketch 52 (66869) - http://www.bohemiancoding.com/sketch -->
    <title>icon</title>
    <desc>Created with Sketch.</desc>
    <g id="UI" stroke="none" stroke-width="1" fill="none" fill-rule="evenodd">
        <g id="Main-Page_v.7" transform="translate(-1085.000000, -800.000000)">
            <g id="Services" transform="translate(24.000000, 768.000000)">
                <g id="Block-top" transform="translate(56.000000, 32.000000)">
                    <g id="oftware-2" transform="translate(1005.000000, 0.000000)">
                        <g id="icon">
                            <path d="M113.222871,27.1436515 L98.4134615,12.5468026 C97.4261676,11.3790547 95.8464973,10.7951807 94.2668269,10.7951807 L90.3176511,10.7951807 L31.2774725,10.7951807 L18.0477335,10.7951807 C14.8883929,10.7951807 12.3214286,13.3253012 12.3214286,16.4392956 L12.3214286,106.355885 C12.3214286,109.46988 14.8883929,112 18.0477335,112 L109.273695,112 C112.433036,112 115,109.46988 115,106.355885 L115,31.2307692 C115,29.673772 114.407624,28.1167748 113.222871,27.1436515 Z" id="Shape" fill="#000000" fill-rule="nonzero"></path>
                            <polygon id="Rectangle" fill="#FFFFFF" points="2.73809524 2.69879518 82.4550374 2.69879518 101.309524 21.0658886 101.309524 98.5060241 2.73809524 98.5060241"></polygon>
                            <g id="Group">
                                <ellipse id="Oval" stroke="#979797" fill="#36B5B9" cx="52.0238095" cy="63.4216867" rx="15.0595238" ry="14.8433735"></ellipse>
                                <path d="M100.901442,16.3484708 L86.092033,1.75162187 C85.104739,0.583873957 83.5250687,0 81.9453984,0 L77.9962225,0 L18.956044,0 L5.72630495,0 C2.56696429,0 0,2.53012048 0,5.64411492 L0,95.5607044 C0,98.6746988 2.56696429,101.204819 5.72630495,101.204819 L96.9522665,101.204819 C100.111607,101.204819 102.678571,98.6746988 102.678571,95.5607044 L102.678571,20.4355885 C102.678571,18.8785913 102.086195,17.3215941 100.901442,16.3484708 Z M74.0470467,3.89249305 L74.0470467,28.2205746 C74.0470467,29.1936979 73.2572115,29.9721965 72.2699176,29.9721965 L24.8798077,29.9721965 C23.8925137,29.9721965 23.1026786,29.1936979 23.1026786,28.2205746 L23.1026786,3.89249305 L74.0470467,3.89249305 Z M98.7293956,95.5607044 C98.7293956,96.5338276 97.9395604,97.3123262 96.9522665,97.3123262 L5.72630495,97.3123262 C4.73901099,97.3123262 3.94917582,96.5338276 3.94917582,95.5607044 L3.94917582,5.64411492 C3.94917582,4.67099166 4.73901099,3.89249305 5.72630495,3.89249305 L18.956044,3.89249305 L18.956044,28.2205746 C18.956044,31.334569 21.5230082,33.8646895 24.6823489,33.8646895 L72.0724588,33.8646895 C75.2317995,33.8646895 77.7987637,31.334569 77.7987637,28.2205746 L77.7987637,3.89249305 L81.7479396,3.89249305 C82.1428571,3.89249305 82.7352335,4.0871177 83.1301511,4.47636701 L97.9395604,19.0732159 C98.334478,19.4624652 98.5319368,19.8517146 98.5319368,20.4355885 L98.5319368,95.5607044 L98.7293956,95.5607044 Z" id="Shape" fill="#000000" fill-rule="nonzero"></path>
                                <path d="M60.8173077,26.2743281 L64.5690247,26.2743281 C67.7283654,26.2743281 70.2953297,23.7442076 70.2953297,20.6302132 L70.2953297,13.2344764 C70.2953297,10.1204819 67.7283654,7.59036145 64.5690247,7.59036145 L60.8173077,7.59036145 C57.657967,7.59036145 55.0910027,10.1204819 55.0910027,13.2344764 L55.0910027,20.6302132 C55.0910027,23.7442076 57.657967,26.2743281 60.8173077,26.2743281 Z M59.0401786,13.2344764 C59.0401786,12.2613531 59.8300137,11.4828545 60.8173077,11.4828545 L64.5690247,11.4828545 C65.5563187,11.4828545 66.3461538,12.2613531 66.3461538,13.2344764 L66.3461538,20.6302132 C66.3461538,21.6033364 65.5563187,22.381835 64.5690247,22.381835 L60.8173077,22.381835 C59.8300137,22.381835 59.0401786,21.6033364 59.0401786,20.6302132 L59.0401786,13.2344764 Z" id="Shape" fill="#000000" fill-rule="nonzero"></path>
                                <path d="M51.3392857,46.7099166 C41.8612637,46.7099166 34.1603709,54.300278 34.1603709,63.6422614 C34.1603709,72.9842447 41.8612637,80.5746061 51.3392857,80.5746061 C60.8173077,80.5746061 68.5182005,72.9842447 68.5182005,63.6422614 C68.5182005,54.300278 60.8173077,46.7099166 51.3392857,46.7099166 Z M51.3392857,76.6821131 C44.0333104,76.6821131 38.1095467,70.8433735 38.1095467,63.6422614 C38.1095467,56.4411492 44.0333104,50.6024096 51.3392857,50.6024096 C58.645261,50.6024096 64.5690247,56.4411492 64.5690247,63.6422614 C64.5690247,70.8433735 58.645261,76.6821131 51.3392857,76.6821131 Z" id="Shape" fill="#000000" fill-rule="nonzero"></path>
                            </g>
                        </g>
                    </g>
                </g>
            </g>
        </g>
    </g>
</svg>