<?xml version="1.0" encoding="UTF-8"?>
<svg width="10px" height="6px" viewBox="0 0 10 6" version="1.1" xmlns="http://www.w3.org/2000/svg" xmlns:xlink="http://www.w3.org/1999/xlink">
    <!-- Generator: Sketch 52 (66869) - http://www.bohemiancoding.com/sketch -->
    <title>arrow</title>
    <desc>Created with Sketch.</desc>
    <g id="Mobile-UI" stroke="none" stroke-width="1" fill="none" fill-rule="evenodd">
        <g id="Blog.m" transform="translate(-335.000000, -421.000000)" fill="#000000" fill-rule="nonzero">
            <g id="Content" transform="translate(0.000000, 344.000000)">
                <g id="Filter" transform="translate(16.000000, 56.000000)">
                    <g id="Tab" transform="translate(88.000000, 0.000000)">
                        <path d="M232.952494,21 L232.952494,23.0950119 L231,23.0950119 L231,21 L232.952494,21 Z M234.964371,22.9524941 L234.964371,25.0475059 L233.011876,25.0475059 L233.011876,22.9524941 L234.964371,22.9524941 Z M236.976247,24.9049881 L236.976247,27 L235.023753,27 L235.023753,24.9049881 L236.976247,24.9049881 Z M238.988124,22.9524941 L238.988124,25.0475059 L237.035629,25.0475059 L237.035629,22.9524941 L238.988124,22.9524941 Z M241,21 L241,23.0950119 L239.047506,23.0950119 L239.047506,21 L241,21 Z" id="arrow"></path>
                    </g>
                </g>
            </g>
        </g>
    </g>
</svg>