<?xml version="1.0" encoding="UTF-8"?>
<svg width="62px" height="56px" viewBox="0 0 62 56" version="1.1" xmlns="http://www.w3.org/2000/svg" xmlns:xlink="http://www.w3.org/1999/xlink">
    <!-- Generator: Sketch 52 (66869) - http://www.bohemiancoding.com/sketch -->
    <title>feedbacks</title>
    <desc>Created with Sketch.</desc>
    <g id="Decktop-UI" stroke="none" stroke-width="1" fill="none" fill-rule="evenodd">
        <g id="Main-Page_v.7" transform="translate(-175.000000, -6328.000000)">
            <g id="Feedback" transform="translate(16.000000, 6329.000000)">
                <g id="title" transform="translate(160.000000, 0.000000)">
                    <g id="feedbacks">
                        <g id="Слой_3">
                            <path d="M45.1601653,0 L9.36677686,0 C6.88173278,-0.00268171292 4.49769939,0.984201638 2.74050685,2.74297986 C0.983314304,4.50175808 -0.00267929515,6.88794279 6.71639529e-16,9.37522936 L6.71639529e-16,47.0426606 C0.000840495075,47.7250927 0.420086837,48.3370411 1.05579472,48.5837397 C1.6915026,48.8304383 2.41331793,48.6613009 2.87355372,48.1577982 L9.36677686,41.0481651 L45.1601653,41.0481651 C50.3313252,41.0481659 54.524159,36.8538072 54.5269421,31.6779817 L54.5269421,9.37522936 C54.5282805,6.88835352 53.5418563,4.50294887 51.7849547,2.74446184 C50.028053,0.98597482 47.644799,-0.00133955097 45.1601653,0 Z" id="Path" stroke="#000000" stroke-width="2" fill="#FFFFFF"></path>
                            <path d="M53.851405,6.16605505 C54.4371877,8.36886546 54.6199383,10.6595839 54.3908264,12.9275229 C54.4646901,13.267684 54.5068817,13.6139675 54.5168595,13.9619266 C54.587438,16.5353211 54.9,19.0431193 54.5471074,21.6013761 C54.7960874,22.1457525 54.9217578,22.738487 54.915124,23.337156 L54.915124,23.5389908 C54.9181214,23.8651872 54.8928198,24.1910283 54.8395041,24.512844 C54.8878424,24.7843776 54.9131392,25.059518 54.915124,25.3353211 C54.9215157,25.9142513 54.8588972,26.4918784 54.728595,27.0559633 C54.728595,27.0912844 54.728595,27.1165138 54.6983471,27.146789 C54.6680992,27.1770642 54.6983471,27.146789 54.6983471,27.146789 C54.9185641,27.8085161 54.963723,28.5160638 54.8294215,29.2004587 C54.8161031,29.7515194 54.6854826,30.2933956 54.446281,30.7899083 C54.4868667,31.0248795 54.5071072,31.2629195 54.5067769,31.5013761 L54.5067769,31.6981651 C54.5092754,31.7469098 54.5092754,31.7957507 54.5067769,31.8444954 C54.5067769,31.8444954 54.5067769,31.8798165 54.5067769,31.9 C54.5148382,32.4303862 54.4452002,32.9590921 54.3000826,33.4692661 C54.2891111,34.3335407 54.225134,35.1963259 54.1085124,36.0527523 C53.9824793,36.9559633 53.2161983,37.3142202 52.8330579,38.1316514 C52.2280992,39.4183486 50.7459504,39.953211 49.4452893,40.387156 C48.1446281,40.8211009 47.1766942,41.3357798 45.9163636,40.7151376 L45.8760331,40.6899083 C45.3946311,40.824299 44.8985314,40.8988658 44.3989256,40.9119266 C40.87,41.0178899 37.5679339,41.6183486 34.0390083,40.9119266 C33.8073187,40.8639823 33.5784343,40.8033406 33.3533884,40.7302752 C33.1473435,40.750921 32.94038,40.7610258 32.7333058,40.7605505 L21.803719,40.7605505 C21.42296,40.7595992 21.0431531,40.722429 20.6694215,40.6495413 C17.4732231,41.2701835 14.2366942,41.2651376 10.995124,41.5729358 C10.995124,41.5729358 10.4052893,40.7756881 10.385124,40.7958716 C9.08950413,42.0623853 8.13165289,44.040367 6.49826446,44.8325688 L6.49826446,52.9059633 C6.49910496,53.5883955 6.9183513,54.2003438 7.55405918,54.4470424 C8.18976706,54.6937411 8.91158239,54.5246036 9.37181818,54.0211009 L15.8499174,46.9266055 L51.6433058,46.9266055 C56.8085618,46.9210435 60.994443,42.7313849 61,37.5614679 L61,15.2637615 C60.9986569,10.9439445 58.0454249,7.18549445 53.851405,6.16605505 Z" id="Path" fill="#000000"></path>
                        </g>
                        <g id="Слой_5" transform="translate(13.107438, 17.660550)" fill="#00AABD">
                            <rect id="Rectangle" x="0.201652893" y="0.464220183" width="5.88322314" height="5.88853211"></rect>
                            <rect id="Rectangle" x="12.3058678" y="0.464220183" width="5.88322314" height="5.88853211"></rect>
                            <rect id="Rectangle" x="24.4201653" y="0.464220183" width="5.88322314" height="5.88853211"></rect>
                        </g>
                    </g>
                </g>
            </g>
        </g>
    </g>
</svg>