<?xml version="1.0" encoding="UTF-8"?>
<svg width="16px" height="18px" viewBox="0 0 16 18" version="1.1" xmlns="http://www.w3.org/2000/svg" xmlns:xlink="http://www.w3.org/1999/xlink">
    <!-- Generator: Sketch 52 (66869) - http://www.bohemiancoding.com/sketch -->
    <title>Fill 1</title>
    <desc>Created with Sketch.</desc>
    <g id="Style-guide" stroke="none" stroke-width="1" fill="none" fill-rule="evenodd">
        <g id="Artboard" transform="translate(-755.000000, -2143.000000)" fill="#00A9BC" stroke="#000000">
            <g id="Tab-Copy-2" transform="translate(740.000000, 2033.000000)">
                <path d="M24.9725685,121.600451 L23.8899307,126.124543 C23.8357988,126.286118 23.9440626,126.501551 24.1605901,126.555409 L26.0010745,126.986275 C26.2176021,127.040133 26.3799978,126.932417 26.4341297,126.716984 L27.7332951,121.438876 C31.0894726,120.469428 30.7105493,114.86817 26.6506573,114.86817 L23.8357988,114.86817 C23.5110074,114.86817 19.4511153,111.528959 18.8556645,111.098093 C18.6391369,110.88266 18.2602137,111.044235 18.2602137,111.367384 L18.3143456,116.214626 L17.9895542,116.214626 C15.2829595,116.214626 15.3912233,120.253995 17.9895542,120.253995 L18.3143456,120.253995 L18.3143456,125.101237 C18.3143456,125.370528 18.6932688,125.532103 18.9097964,125.370528 L23.727535,121.600451 L23.8357988,121.600451 L24.9725685,121.600451 Z" id="Fill-1"></path>
            </g>
        </g>
    </g>
</svg>