<?xml version="1.0" encoding="UTF-8"?>
<svg width="20px" height="16px" viewBox="0 0 20 16" version="1.1" xmlns="http://www.w3.org/2000/svg" xmlns:xlink="http://www.w3.org/1999/xlink">
    <!-- Generator: Sketch 52 (66869) - http://www.bohemiancoding.com/sketch -->
    <title>Mask</title>
    <desc>Created with Sketch.</desc>
    <defs>
        <path d="M20,14 L18,14 L18,16 L2,16 L2,14 L0,14 L0,2 L2,2 L2,0 L18,0 L18,2 L20,2 L20,14 Z M2,2 L2,14 L18,14 L18,2 L2,2 Z M5,5 L7,5 L7,7 L5,7 L5,5 Z M7,7 L9,7 L9,9 L7,9 L7,7 Z M9,9 L11,9 L11,11 L9,11 L9,9 Z M11,7 L13,7 L13,9 L11,9 L11,7 Z M13,5 L15,5 L15,7 L13,7 L13,5 Z M15,3 L17,3 L17,5 L15,5 L15,3 Z M3,3 L5,3 L5,5 L3,5 L3,3 Z" id="path-1"></path>
    </defs>
    <g id="Symbols" stroke="none" stroke-width="1" fill="none" fill-rule="evenodd">
        <g id="Header" transform="translate(-1064.000000, -23.000000)">
            <g id="Button">
                <g transform="translate(1064.000000, 19.000000)">
                    <g id="Group-8" transform="translate(0.000000, 4.000000)">
                        <mask id="mask-2" fill="white">
                            <use xlink:href="#path-1"></use>
                        </mask>
                        <use id="Mask" fill="#1A9B4A" fill-rule="nonzero" xlink:href="#path-1"></use>
                    </g>
                </g>
            </g>
        </g>
    </g>
</svg>