<?xml version="1.0" encoding="UTF-8"?>
<svg width="50px" height="31px" viewBox="0 0 50 31" version="1.1" xmlns="http://www.w3.org/2000/svg" xmlns:xlink="http://www.w3.org/1999/xlink">
    <!-- Generator: Sketch 52 (66869) - http://www.bohemiancoding.com/sketch -->
    <title>Logo</title>
    <desc>Created with Sketch.</desc>
    <g id="Symbols" stroke="none" stroke-width="1" fill="none" fill-rule="evenodd">
        <g id="Logo/white" transform="translate(-9.000000, -18.000000)">
            <g id="Logo">
                <polygon id="Fill-1" points="0 67.7595 67.844 67.7595 67.844 0 0 0"></polygon>
                <polygon id="Fill-2" fill="#FFFFFF" points="17.022 33.921 20.785 33.921 20.785 30.1615 17.022 30.1615"></polygon>
                <polygon id="Fill-3" fill="#FFFFFF" points="17.022 26.396 20.785 26.396 20.785 22.6335 17.022 22.6335"></polygon>
                <polygon id="Fill-4" fill="#FFFFFF" points="13.2554 18.86965 9.4929 18.86965 9.4929 33.92065 13.2554 33.92065 13.2554 30.16065 17.0214 30.16065 17.0214 26.39565 13.2554 26.39565"></polygon>
                <polygon id="Fill-5" fill="#FFFFFF" points="24.547 33.921 28.31 33.921 28.31 22.6335 24.547 22.6335"></polygon>
                <polygon id="Fill-6" fill="#FFFFFF" points="43.3611 48.90895 39.5991 48.90895 39.5991 33.92045 39.5991 26.39645 35.8356 26.39645 35.8356 33.92045 32.0726 33.92045 32.0726 22.63295 43.3611 22.63295 43.3611 33.25045"></polygon>
                <polygon id="Fill-7" fill="#FFFFFF" points="13.2555 48.971 17.022 48.971 17.022 45.208 13.2555 45.208"></polygon>
                <polygon id="Fill-8" fill="#FFFFFF" points="17.022 45.208 20.785 45.208 20.785 37.683 17.022 37.683"></polygon>
                <polygon id="Fill-9" fill="#FFFFFF" points="9.492 45.208 13.2555 45.208 13.2555 37.683 9.492 37.683"></polygon>
                <path d="M24.547,48.971 L35.8365,48.971 L35.8365,37.683 L24.547,37.683 L24.547,48.971 Z M28.31,45.2075 L32.073,45.2075 L32.073,41.446 L28.31,41.446 L28.31,45.2075 Z" id="Fill-10" fill="#FFFFFF"></path>
                <polygon id="Fill-11" fill="#FFFFFF" points="54.6515 41.445 58.416 41.445 58.416 37.683 54.6515 37.683"></polygon>
                <polygon id="Fill-12" fill="#FFFFFF" points="50.8875 41.44605 50.8875 33.92005 47.127 33.92005 47.127 48.97105 50.8875 48.97105 50.8875 45.20805 54.65 45.20805 54.65 41.44605"></polygon>
                <polygon id="Fill-13" fill="#FFFFFF" points="54.6515 48.9705 58.416 48.9705 58.416 45.208 54.6515 45.208"></polygon>
            </g>
        </g>
    </g>
</svg>