<?xml version="1.0" encoding="UTF-8"?>
<svg width="1209px" height="1072px" viewBox="0 0 1209 1072" version="1.1" xmlns="http://www.w3.org/2000/svg" xmlns:xlink="http://www.w3.org/1999/xlink">
    <!-- Generator: Sketch 52 (66869) - http://www.bohemiancoding.com/sketch -->
    <title>Mask</title>
    <desc>Created with Sketch.</desc>
    <defs>
        <path d="M960,813.888889 L960,651.111111 L800,651.111111 L800,813.888889 L640,813.888889 L640,651.111111 L800,651.111111 L800,488.333333 L640,488.333333 L480,488.333333 L480,325.555556 L480,162.777778 L320,162.777778 L320,2.27373675e-13 L160,2.27373675e-13 L160,162.777778 L0,162.777778 L0,325.555556 L0,488.333333 L0,651.111111 L0,813.888889 L0,976.666667 L0,1139.44444 L0,1302.22222 L0,1465 L160,1465 L320,1465 L480,1465 L640,1465 L800,1465 L960,1465 L1120,1465 L1280,1465 L1440,1465 L1440,1302.22222 L1440,1139.44444 L1440,976.666667 L1280,976.666667 L1280,1139.44444 L1280,1302.22222 L1120,1302.22222 L1120,1139.44444 L1120,976.666667 L1280,976.666667 L1280,813.888889 L1440,813.888889 L1440,651.111111 L1280,651.111111 L1120,651.111111 L1120,813.888889 L960,813.888889 Z M961,1142 L800,1142 L800,978 L961,978 L961,1142 Z" id="path-1"></path>
    </defs>
    <g id="Decktop-UI" stroke="none" stroke-width="1" fill="none" fill-rule="evenodd">
        <g id="Article_v.7">
            <g id="Cover" transform="translate(-231.000000, -393.000000)">
                <g id="Image">
                    <g id="Bitmap">
                        <mask id="mask-2" fill="white">
                            <use xlink:href="#path-1"></use>
                        </mask>
                        <use id="Mask" fill="#FFFFFF" fill-rule="nonzero" transform="translate(720.000000, 732.500000) scale(-1, -1) rotate(-180.000000) translate(-720.000000, -732.500000) " xlink:href="#path-1"></use>
                    </g>
                </g>
            </g>
        </g>
    </g>
</svg>