<?xml version="1.0" encoding="UTF-8"?>
<svg width="130px" height="50px" viewBox="0 0 130 50" version="1.1" xmlns="http://www.w3.org/2000/svg" xmlns:xlink="http://www.w3.org/1999/xlink">
    <g id="BG" transform="translate(2.000000, 2.000000)">
        <rect id="Rectangle" fill="#17B838" x="0" y="0" width="126" height="46"></rect>
        <rect id="Rectangle" fill="#1ADB41" x="0" y="0" width="4" height="46"></rect>
        <rect id="Rectangle" fill="#0B5E1C" x="122" y="0" width="4" height="46"></rect>
        <polygon id="Rectangle" fill="#1ADB41" transform="translate(63.000000, 2.000000) rotate(-90.000000) translate(-63.000000, -2.000000) " points="61 -61 65 -61 65 65 61 65"></polygon>
        <polygon id="Rectangle" fill="#0B5E1C" transform="translate(65.000000, 44.000000) rotate(-90.000000) translate(-65.000000, -44.000000) " points="63 -17 67 -17 67 105 63 105"></polygon>
        <rect id="Rectangle" fill="#0B5E1C" x="118" y="38" width="8" height="8"></rect>
    </g>
    <g id="text" fill="#FFFFFF">
        <rect id="Rectangle" x="2" y="0" width="126" height="2"></rect>
        <rect id="Rectangle-Copy-4" x="2" y="1" width="126" height="2"></rect>
        <rect id="Rectangle" x="2" y="48" width="126" height="2"></rect>
        <rect id="Rectangle-Copy-3" x="2" y="47" width="126" height="2"></rect>
        <polygon id="Rectangle" transform="translate(129.000000, 25.017700) rotate(-270.000000) translate(-129.000000, -25.017700) " points="105.9823 24.0177002 152.0177 24.0177002 152.0177 26.0177002 105.9823 26.0177002"></polygon>
        <polygon id="Rectangle-Copy-2" transform="translate(128.000000, 25.017700) rotate(-270.000000) translate(-128.000000, -25.017700) " points="104.9823 24.0177002 151.0177 24.0177002 151.0177 26.0177002 104.9823 26.0177002"></polygon>
        <polygon id="Rectangle" transform="translate(1.000000, 25.017700) rotate(-270.000000) translate(-1.000000, -25.017700) " points="-22.0177002 24.0177002 24.0177002 24.0177002 24.0177002 26.0177002 -22.0177002 26.0177002"></polygon>
        <polygon id="Rectangle-Copy" transform="translate(2.000000, 25.017700) rotate(-270.000000) translate(-2.000000, -25.017700) " points="-21.0177002 24.0177002 25.0177002 24.0177002 25.0177002 26.0177002 -21.0177002 26.0177002"></polygon>
    </g>
</svg>