<?xml version="1.0" encoding="UTF-8"?>
<svg width="198px" height="50px" viewBox="0 0 198 50" version="1.1" xmlns="http://www.w3.org/2000/svg" xmlns:xlink="http://www.w3.org/1999/xlink">
    <g id="BG" transform="translate(2.000000, 0.000000)">
        <rect id="Rectangle" fill="#17B838" x="1" y="0" width="192" height="50"></rect>
        <rect id="Rectangle" fill="#1ADB41" x="0" y="2" width="4" height="46"></rect>
        <rect id="Rectangle" fill="#0B5E1C" x="190" y="2" width="4" height="46"></rect>
        <polygon id="Rectangle" fill="#1ADB41" transform="translate(97.000000, 4.000000) rotate(-90.000000) translate(-97.000000, -4.000000) " points="95 -93 99 -93 99 101 95 101"></polygon>
        <polygon id="Rectangle" fill="#0B5E1C" transform="translate(95.000000, 46.000000) rotate(-90.000000) translate(-95.000000, -46.000000) " points="93 -49 97 -49 97 141 93 141"></polygon>
        <rect id="Rectangle" fill="#0B5E1C" x="185" y="40" width="8" height="8"></rect>
    </g>
    <g id="text" fill="#000000">
        <path d="M3,47 L195,47 L195,3 L3,3 L3,47 Z M2,48.0354004 L2.70583556e-12,48.0354004 L2.71427325e-12,2 L2,2 L2,0 L196,0 L196,2 L198,2 L198,48.0354004 L196,48.0354004 L196,50 L2,50 L2,48.0354004 Z" id="Combined-Shape"></path>
    </g>
</svg>