<?xml version="1.0" encoding="UTF-8"?>
<svg width="1120px" height="96px" viewBox="0 0 1120 96" version="1.1" xmlns="http://www.w3.org/2000/svg" xmlns:xlink="http://www.w3.org/1999/xlink">
    <!-- Generator: Sketch 52 (66869) - http://www.bohemiancoding.com/sketch -->
    <title>Pattern-32</title>
    <desc>Created with Sketch.</desc>
    <g id="Decktop-UI" stroke="none" stroke-width="1" fill="none" fill-rule="evenodd">
        <g id="Main-Page_v.7" transform="translate(-80.000000, -4400.000000)" fill="#FFFFFF" fill-rule="nonzero">
            <g id="Products" transform="translate(24.000000, 2816.000000)">
                <g id="Group-5" transform="translate(56.000000, 1584.000000)">
                    <g id="Group-3">
                        <g id="Pattern-32">
                            <rect id="Block" x="1024" y="64" width="32" height="32"></rect>
                            <rect id="Block" x="960" y="64" width="32" height="32"></rect>
                            <rect id="Block" x="864" y="64" width="32" height="32"></rect>
                            <rect id="Block" x="736" y="64" width="32" height="32"></rect>
                            <rect id="Block" x="672" y="64" width="32" height="32"></rect>
                            <rect id="Block" x="640" y="32" width="32" height="32"></rect>
                            <rect id="Block" x="608" y="64" width="32" height="32"></rect>
                            <rect id="Block" x="576" y="64" width="32" height="32"></rect>
                            <rect id="Block" x="512" y="64" width="32" height="32"></rect>
                            <rect id="Block" x="352" y="64" width="32" height="32"></rect>
                            <rect id="Block" x="544" y="0" width="32" height="32"></rect>
                            <rect id="Block" x="416" y="64" width="32" height="32"></rect>
                            <rect id="Block" x="192" y="64" width="32" height="32"></rect>
                            <rect id="Block" x="96" y="0" width="32" height="32"></rect>
                            <rect id="Block" x="0" y="64" width="32" height="32"></rect>
                            <rect id="Block" x="128" y="32" width="32" height="32"></rect>
                            <rect id="Block" x="96" y="64" width="32" height="32"></rect>
                            <rect id="Block" x="64" y="64" width="32" height="32"></rect>
                            <rect id="Block" x="1024" y="32" width="32" height="32"></rect>
                            <rect id="Block" x="1088" y="64" width="32" height="32"></rect>
                            <rect id="Block" x="992" y="32" width="32" height="32"></rect>
                            <rect id="Block" x="928" y="32" width="32" height="32"></rect>
                            <rect id="Block" x="832" y="32" width="32" height="32"></rect>
                            <rect id="Block" x="800" y="32" width="32" height="32"></rect>
                            <rect id="Block" x="800" y="64" width="32" height="32"></rect>
                            <rect id="Block" x="768" y="64" width="32" height="32"></rect>
                            <rect id="Block" x="768" y="0" width="32" height="32"></rect>
                            <rect id="Block" x="704" y="32" width="32" height="32"></rect>
                            <rect id="Block" x="608" y="32" width="32" height="32"></rect>
                            <rect id="Block" x="576" y="32" width="32" height="32"></rect>
                            <rect id="Block" x="448" y="32" width="32" height="32"></rect>
                            <rect id="Block" x="416" y="32" width="32" height="32"></rect>
                            <rect id="Block" x="352" y="32" width="32" height="32"></rect>
                            <rect id="Block" x="384" y="64" width="32" height="32"></rect>
                            <rect id="Block" x="320" y="64" width="32" height="32"></rect>
                            <rect id="Block" x="288" y="32" width="32" height="32"></rect>
                            <rect id="Block" x="288" y="0" width="32" height="32"></rect>
                            <rect id="Block" x="256" y="32" width="32" height="32"></rect>
                            <rect id="Block" x="224" y="64" width="32" height="32"></rect>
                            <rect id="Block" x="256" y="64" width="32" height="32"></rect>
                            <rect id="Block" x="160" y="32" width="32" height="32"></rect>
                            <rect id="Block" x="128" y="64" width="32" height="32"></rect>
                            <rect id="Block" x="32" y="32" width="32" height="32"></rect>
                        </g>
                    </g>
                </g>
            </g>
        </g>
    </g>
</svg>