<?xml version="1.0" encoding="UTF-8"?>
<svg width="72px" height="72px" viewBox="0 0 72 72" version="1.1" xmlns="http://www.w3.org/2000/svg" xmlns:xlink="http://www.w3.org/1999/xlink">
    <g id="Play-btn">
        <g id="bg">
            <rect id="Rectangle" fill="#17B838" x="3" y="3" width="64" height="64"></rect>
            <rect id="Rectangle" fill="#000000" x="2" y="0" width="66" height="3"></rect>
            <rect id="Rectangle" fill="#000000" transform="translate(68.500000, 35.000000) rotate(-270.000000) translate(-68.500000, -35.000000) " x="35.5" y="33.5" width="66" height="3"></rect>
            <rect id="Rectangle" fill="#000000" transform="translate(1.500000, 35.000000) rotate(-270.000000) translate(-1.500000, -35.000000) " x="-31.5" y="33.5" width="66" height="3"></rect>
            <rect id="Rectangle" fill="#0B5E1C" x="59" y="59" width="8" height="8"></rect>
            <rect id="Rectangle" fill="#0B5E1C" x="64" y="3" width="3" height="56"></rect>
            <rect id="Rectangle" fill="#0B5E1C" x="3" y="64" width="56" height="3"></rect>
            <rect id="Rectangle" fill="#1ADB41" x="3" y="3" width="3" height="61"></rect>
            <rect id="Rectangle" fill="#1ADB41" x="3" y="3" width="64" height="3"></rect>
            <rect id="Rectangle-Copy-17" fill="#000000" x="2" y="67" width="66" height="3"></rect>
        </g>
        <path d="M32,44 L32,50 L26,50 L26,20 L32,20 L32,26 L38,26 L38,32 L44,32 L44,38 L38,38 L38,44 L32,44 Z" id="Combined-Shape" fill="#FFFFFF" fill-rule="nonzero"></path>
    </g>
</svg>