<?xml version="1.0" encoding="UTF-8"?>
<svg width="118px" height="102px" viewBox="0 0 118 102" version="1.1" xmlns="http://www.w3.org/2000/svg" xmlns:xlink="http://www.w3.org/1999/xlink">
    <!-- Generator: Sketch 52 (66869) - http://www.bohemiancoding.com/sketch -->
    <title>Product</title>
    <desc>Created with Sketch.</desc>
    <g id="Decktop-UI" stroke="none" stroke-width="1" fill="none" fill-rule="evenodd">
        <g id="Main-Page_v.7" transform="translate(-78.000000, -2844.000000)">
            <g id="Products" transform="translate(24.000000, 2816.000000)">
                <g id="Block-top" transform="translate(56.000000, 28.000000)">
                    <g id="Product" transform="translate(0.000000, 2.000000)">
                        <g id="Слой_7">
                            <path d="M115.8,31.17 C115.805657,31.1268513 115.805657,31.0831487 115.8,31.04 L115.8,30.91 C115.746311,30.7305445 115.668964,30.5590373 115.57,30.4 L96.92,2.78 C96.8308155,2.65756412 96.7303784,2.54373537 96.62,2.44 C96.5199611,2.3545091 96.4129181,2.27757198 96.3,2.21 L96.16,2.15 L95.94,2 L95.82,2 L95.66,2 L95.35,2 L81.74,2 L97.54,25.49 L96.75,26.49 C97.1683874,28.2621581 97.0286754,30.1203279 96.35,31.81 C96.61,35.12 94.87,35.47 92.02,37.53 C86.18,41.6 80.57,49.74 76.63,55.76 C73.29,60.86 70.01,65.95 65,69.36 C64.6631744,70.505306 64.0281941,71.5406 63.16,72.36 C62.8556947,72.6907633 62.5208796,72.9920969 62.16,73.26 C61.386167,75.0815016 60.122763,76.6529685 58.51,77.8 L58.44,77.8 C58.3966128,77.8652153 58.3463223,77.9255639 58.29,77.98 C57.93,78.4 57.5,78.78 57.13,79.19 C56.36,80.04 55.65,80.94 54.94,81.84 C53.5304765,83.7671167 51.9937179,85.597864 50.34,87.32 L50,87.63 L58.83,98.63 C58.9475767,98.7627963 59.0782368,98.8834057 59.22,98.99 L59.33,99.06 C59.4492886,99.1371245 59.5767272,99.2008438 59.71,99.25 L59.85,99.25 C60.0287165,99.3021345 60.2138369,99.3290611 60.4,99.33 C60.582902,99.3293263 60.7647589,99.3023845 60.94,99.25 L61.09,99.25 C61.2200834,99.2007765 61.344201,99.1370405 61.46,99.06 L61.58,98.98 C61.7262029,98.8788378 61.8574835,98.7576558 61.97,98.62 L115.41,32.7 C115.521251,32.5493114 115.612041,32.3845437 115.68,32.21 L115.68,32.11 C115.742443,31.936226 115.779491,31.754353 115.79,31.57 C115.802571,31.4370578 115.805912,31.3034042 115.8,31.17 Z" id="Path" fill="#000000"></path>
                            <polygon id="Path" stroke="#000000" stroke-width="4.02" fill="#FFFFFF" stroke-linecap="round" stroke-linejoin="round" points="105.01 27.62 56.56 88.74 52.74 93.55 0.01 27.62 19.04 0.01 86.44 0.01 89.21 4.13"></polygon>
                            <polyline id="Path" stroke="#000000" stroke-width="4.02" stroke-linecap="round" stroke-linejoin="round" points="19.04 0.01 52.74 93.55 86.44 0.01"></polyline>
                            <polyline id="Path" stroke="#000000" stroke-width="4.02" stroke-linecap="round" stroke-linejoin="round" points="0.01 27.62 30.88 32.88 74.59 32.88 105.01 27.62"></polyline>
                            <polygon id="Path" stroke="#000000" stroke-width="4" fill="#17B838" stroke-linecap="round" stroke-linejoin="round" points="30.88 32.88 52.51 0.01 74.59 32.88"></polygon>
                        </g>
                    </g>
                </g>
            </g>
        </g>
    </g>
</svg>