<?xml version="1.0" encoding="UTF-8"?>
<svg width="124px" height="103px" viewBox="0 0 124 103" version="1.1" xmlns="http://www.w3.org/2000/svg" xmlns:xlink="http://www.w3.org/1999/xlink">
    <!-- Generator: Sketch 52 (66869) - http://www.bohemiancoding.com/sketch -->
    <title>Service</title>
    <desc>Created with Sketch.</desc>
    <g id="Decktop-UI" stroke="none" stroke-width="1" fill="none" fill-rule="evenodd">
        <g id="Main-Page_v.7" transform="translate(-1077.000000, -791.000000)">
            <g id="Services" transform="translate(24.000000, 768.000000)">
                <g id="Block-top" transform="translate(56.000000, 25.000000)">
                    <g id="oftware-2" transform="translate(999.000000, 0.000000)">
                        <g id="Service">
                            <g id="Слой_5" transform="translate(33.000000, 35.000000)" fill="#EB1A45">
                                <rect id="Rectangle" x="0.68" y="0.06" width="43.75" height="21.25"></rect>
                            </g>
                            <g id="Слой_3">
                                <path d="M120.21,31.87 L114,26.11 C113.535081,25.6863219 112.929009,25.4510234 112.3,25.45 L110.83,25.45 C110.755457,25.8882998 110.645087,26.3197464 110.5,26.74 C110.5,27.21 110.59,27.68 110.62,28.15 C110.61378,29.6769811 110.466487,31.2001216 110.18,32.7 C110.04,33.47 109.78,34.24 109.61,35.01 C109.617742,35.0730967 109.617742,35.1369033 109.61,35.2 C109.65,35.3 109.71,35.49 109.79,35.77 C111.14,39.68 109,44.01 105.6,46.05 C105.6,46.23 105.6,46.4 105.6,46.59 C105.6,48.29 105.15,50.02 105.21,51.7 C105.29,53.82 105.78,55.52 105.47,57.7 C105.41,58.16 105.31,58.64 105.2,59.11 C105.734711,60.1918016 105.972812,61.3961093 105.89,62.6 C105.73,64.6 105.89,66.6 105.77,68.6 C105.705121,69.6307145 105.554602,70.6542446 105.32,71.66 C105.987094,73.3198957 106.099349,75.1510504 105.64,76.88 C105.256075,78.0628562 104.770948,79.2104335 104.19,80.31 C104.19,80.54 104.07,80.76 104,80.98 C103.706045,85.3426416 100.01032,88.6891296 95.64,88.55 C93.8026568,88.8485935 91.9400357,88.9624948 90.08,88.89 C87.08,88.89 84.19,89.58 81.22,89.64 C80.4141234,89.6596684 79.6095083,89.5654039 78.83,89.36 C77.6962682,89.9347442 76.458239,90.2748621 75.19,90.36 C64.32,91.26 52.99,90.36 42.08,90.17 C36.5,90.04 30.94,90.17 25.39,89.58 C22.24,89.22 19.11,88.43 16,88 C14.7359238,88.6263155 13.3405629,88.9417288 11.93,88.92 C11.71,88.92 11.51,88.92 11.3,88.92 L11.3,92.44 C11.315903,93.067648 11.5655307,93.6667546 12,94.12 L17.69,99.86 C18.1592683,100.336607 18.8011541,100.603458 19.47,100.6 L108.23,100.6 C108.898846,100.603458 109.540732,100.336607 110.01,99.86 L115.29,94.53 C116.013161,93.7972793 116.419055,92.8094859 116.42,91.78 L116.42,56.78 L118.53,56.78 C119.910712,56.78 121.03,55.6607119 121.03,54.28 L121.03,33.7 C121.02401,33.0022994 120.726725,32.3388464 120.21,31.87 Z" id="Path" fill="#000000"></path>
                                <path d="M4.57,45.42 L4.57,82.29 C4.55739951,82.6627055 4.69839579,83.0242344 4.96,83.29 L9.96,88.37 C10.3173332,88.7292002 10.8033333,88.9308003 11.31,88.93 L98.9,88.93 C99.4066667,88.9308003 99.8926668,88.7292002 100.25,88.37 L105.12,83.45 C105.470351,83.0916788 105.66759,82.6111327 105.67,82.11 L105.67,44.89" id="Path" stroke="#000000" stroke-width="4.02" fill="#FFFFFF"></path>
                                <path d="M78.37,45.07 L108.37,45.07 C109.415448,45.0700145 110.264498,44.2254337 110.27,43.18 L110.27,24.61 C110.269839,24.0817824 110.048638,23.5777347 109.66,23.22 L104.3,18.22 C103.947593,17.897982 103.487374,17.7196028 103.01,17.72 L7.01,17.72 C6.66578222,17.7189052 6.33376593,17.8474276 6.08,18.08 L0.45,23.38 C0.170007818,23.6371812 0.0104471563,23.999819 0.01,24.38 L0.01,43.7 C0.00733504588,44.0624239 0.149443013,44.4109198 0.404781904,44.6681362 C0.660120796,44.9253526 1.00756626,45.0700098 1.37,45.07 L33.13,45.07" id="Path" stroke="#000000" stroke-width="4.02" fill="#FFFFFF"></path>
                                <rect id="Rectangle" stroke="#000000" stroke-width="4.02" fill="#E81E46" x="33.48" y="34.78" width="44.35" height="22.17" rx="1.37"></rect>
                                <path d="M46.61,45.6 L64.53,45.6" id="Path" stroke="#000000" stroke-width="4.02"></path>
                                <polygon id="Path" stroke="#000000" stroke-width="4.02" fill="#FFFFFF" points="85.92 17.3 70.28 0.01 38.38 0.01 23 17.3"></polygon>
                                <polyline id="Path" stroke="#000000" stroke-width="4.02" fill="#000000" points="38.94 17.05 44.57 10.7 64.5 10.7 71.43 18.09"></polyline>
                            </g>
                        </g>
                    </g>
                </g>
            </g>
        </g>
    </g>
</svg>