<?xml version="1.0" encoding="UTF-8"?>
<svg width="17px" height="16px" viewBox="0 0 17 16" version="1.1" xmlns="http://www.w3.org/2000/svg" xmlns:xlink="http://www.w3.org/1999/xlink">
    <!-- Generator: Sketch 52 (66869) - http://www.bohemiancoding.com/sketch -->
    <title>iconfinder_star_285661</title>
    <desc>Created with Sketch.</desc>
    <g id="Style-guide" stroke="none" stroke-width="1" fill="none" fill-rule="evenodd">
        <g id="Artboard" transform="translate(-755.000000, -2049.000000)" fill="#FDDF02" stroke="#000000">
            <g id="Tab-Copy-2" transform="translate(740.000000, 2033.000000)">
                <g id="TAG" transform="translate(16.000000, 16.000000)">
                    <g id="iconfinder_star_285661">
                        <g id="Group" transform="translate(0.000000, 0.600000)">
                            <path d="M15,5.46282723 C15,5.6104712 14.922,5.75811518 14.766,5.90575916 L11.49375,9.00628272 L12.2685,13.5094241 C12.2745,13.5094241 12.2775,13.5832461 12.2775,13.6570681 C12.2775,13.804712 12.2445,13.878534 12.1785,13.952356 C12.1185,14.026178 12.0285,14.1 11.90775,14.1 C11.79375,14.1 11.67375,14.1 11.54775,14.026178 L7.5,11.8853403 L3.45255,14.026178 C3.320325,14.1 3.2001,14.1 3.09195,14.1 C2.965725,14.1 2.869575,14.026178 2.8035,13.952356 C2.74335,13.878534 2.71335,13.804712 2.71335,13.6570681 C2.71335,13.6570681 2.71935,13.5832461 2.73135,13.5094241 L3.506625,9.00628272 L0.225375,5.90575916 C0.07515,5.75811518 0,5.6104712 0,5.46282723 C0,5.24136126 0.1683,5.09371728 0.504825,5.09371728 L5.030025,4.42931937 L7.05825,0.369109948 C7.17225,0.147643979 7.32,0 7.5,0 C7.68,0 7.82775,0.147643979 7.94175,0.369109948 L9.96975,4.42931937 L14.49525,5.09371728 C14.832,5.09371728 15,5.24136126 15,5.46282723" id="Path"></path>
                        </g>
                    </g>
                </g>
            </g>
        </g>
    </g>
</svg>