<?xml version="1.0" encoding="UTF-8"?>
<svg width="18px" height="18px" viewBox="0 0 18 18" version="1.1" xmlns="http://www.w3.org/2000/svg" xmlns:xlink="http://www.w3.org/1999/xlink">
    <!-- Generator: Sketch 52 (66869) - http://www.bohemiancoding.com/sketch -->
    <title>Shape</title>
    <desc>Created with Sketch.</desc>
    <g id="Style-guide" stroke="none" stroke-width="1" fill="none" fill-rule="evenodd">
        <g id="Artboard" transform="translate(-755.000000, -2096.000000)" fill="#17B838" fill-rule="nonzero" stroke="#000000">
            <g id="Tab-Copy-2" transform="translate(740.000000, 2033.000000)">
                <path d="M29.3213333,69.89824 C29.2573333,69.74592 29.2266667,69.59808 29.149,69.4528 L30.5616667,67.00544 L29.949,66.40704 L29.4866667,65.95872 L28.8666667,65.36064 L26.1356667,66.87328 C26.1196667,66.8672 26.1036667,66.86496 26.0876667,66.864 L25.2116667,64 L24.3303333,64 L24,64 L23.6696667,64 L22.7883333,64 L21.9123333,66.864 C21.8963333,66.86464 21.8803333,66.8672 21.8643333,66.87328 L19.1333333,65.36064 L18.513,65.95904 L18.0506667,66.40736 L17.438,67.00576 L18.8506667,69.45312 C18.7733333,69.5984 18.7426667,69.74624 18.6783333,69.89856 L16,70.6768 L16,71.52288 L16,72.15712 L16,73.0032 L18.542,73.74368 C18.6166667,73.96192 18.6236667,74.17312 18.7243333,74.37856 L17.4173333,76.67744 L18.0406667,77.27808 L18.5076667,77.73152 L19.1306667,78.33984 L21.5243333,77.10496 C21.6783333,77.17472 21.8363333,77.27744 21.9973333,77.33408 L22.7883333,80 L23.6696667,80 L24,80 L24.3303333,80 L25.2116667,80 L26.0026667,77.33408 C26.1636667,77.27744 26.3216667,77.17472 26.4756667,77.10496 L28.8693333,78.33984 L29.4923333,77.73152 L29.9593333,77.27808 L30.5826667,76.67744 L29.2756667,74.37856 C29.3763333,74.1728 29.3833333,73.9616 29.458,73.74368 L32,73.0032 L32,72.15712 L32,71.52288 L32,70.6768 L29.3213333,69.89824 Z M24,75 C22.3284706,74.9127577 21,73.6047911 21,72 C21,70.3952089 22.3284706,69.0872423 24,69 C25.6715294,69.0872423 27,70.3948747 27,72 C27,73.6047911 25.6715294,74.9127577 24,75 Z" id="Shape"></path>
            </g>
        </g>
    </g>
</svg>