<?xml version="1.0" encoding="UTF-8"?>
<svg width="144px" height="16px" viewBox="0 0 144 16" version="1.1" xmlns="http://www.w3.org/2000/svg" xmlns:xlink="http://www.w3.org/1999/xlink">
    <!-- Generator: Sketch 52 (66869) - http://www.bohemiancoding.com/sketch -->
    <title>b</title>
    <desc>Created with Sketch.</desc>
    <g id="UI" stroke="none" stroke-width="1" fill="none" fill-rule="evenodd">
        <g id="Main-page_UI" transform="translate(-643.000000, -656.000000)" fill="#575759">
            <g id="Hero-image" transform="translate(-80.000000, 20.000000)">
                <g id="Logos" transform="translate(200.000000, 624.000000)">
                    <g id="b" transform="translate(523.000000, 12.000000)">
                        <path d="M38.66,15.79648 L55.4224,15.79648 L55.4224,0.00048 L38.66,0.00048 L38.66,15.79648 Z M52.0024,3.03888 L52.0024,5.13648 C52.0024,5.13648 49.9552,3.87808 47.6928,3.85248 C47.6928,3.85248 43.472,3.77008 43.2816,7.89808 C43.2816,7.89808 43.1296,11.69648 47.6424,11.91248 C47.6424,11.91248 49.5352,12.14048 52.104,10.50208 L52.104,12.67488 C52.104,12.67488 48.6584,14.72208 44.6664,13.14528 C44.6664,13.14528 41.3112,11.91968 41.1832,7.89888 C41.1832,7.89888 41.044,3.76368 45.5192,2.39008 C45.5192,2.39008 46.7144,1.93248 48.8616,2.13648 C48.8616,2.13648 50.1456,2.26368 52.0024,3.03888 Z M0,15.79568 L16.7632,15.79568 L16.7632,-0.00032 L0,-0.00032 L0,15.79568 Z M10.304,7.53888 C10.304,7.53888 11.7664,6.91568 11.7528,5.26368 C11.7528,5.26368 11.9752,2.55488 8.3872,2.22528 L4.4056,2.22528 L4.4056,13.5780805 L8.9696,13.57808 C8.9696,13.57808 12.7832,13.58928 12.7832,10.37408 C12.7832,10.37408 12.8728,8.18688 10.304,7.53888 Z M6.4264,3.99168 L8.0544,3.99168 C9.7448,4.08128 9.6808,5.33968 9.6808,5.33968 C9.6808,6.90368 7.812,6.92928 7.812,6.92928 L6.4264,6.92928 L6.4264,3.99168 Z M10.6992,10.20928 C10.6992,11.92608 8.5624,11.82368 8.5624,11.82368 L6.4264,11.82368 L6.4264,8.72208 L8.5624,8.72208 C10.7616,8.70688 10.6992,10.20928 10.6992,10.20928 Z M19.3296,15.79568 L36.0928,15.79568 L36.0928,-0.00032 L19.3296,-0.00032 L19.3296,15.79568 Z M29.6336,7.53888 C29.6336,7.53888 31.096,6.91568 31.0832,5.26368 C31.0832,5.26368 31.3048,2.55488 27.7168,2.22528 L23.7352,2.22528 L23.7352,13.5780805 L28.2992,13.57808 C28.2992,13.57808 32.1128,13.58928 32.1128,10.37408 C32.112,10.37408 32.2024,8.18688 29.6336,7.53888 Z M25.7568,3.99168 L27.384,3.99168 C29.0744,4.08128 29.0112,5.33968 29.0112,5.33968 C29.0112,6.90368 27.1416,6.92928 27.1416,6.92928 L25.7568,6.92928 L25.7568,3.99168 Z M30.0288,10.20928 C30.0288,11.92608 27.8928,11.82368 27.8928,11.82368 L25.7568,11.82368 L25.7568,8.72208 L27.8928,8.72208 C30.0912,8.70688 30.0288,10.20928 30.0288,10.20928 Z" id="Fill-1"></path>
                        <path d="M66.4324,14.37192 C67.5116,14.37192 68.4332,14.21832 69.1988,13.91112 C69.9644,13.60312 70.55,13.15592 70.9564,12.57112 C71.362,11.98552 71.5652,11.28072 71.5652,10.45672 C71.5652,9.83032 71.458,9.30312 71.2436,8.87352 C71.0284,8.44472 70.7268,8.09032 70.338,7.81272 C69.95,7.53432 69.5004,7.30472 68.99,7.12552 C68.4796,6.94552 67.9292,6.77992 67.3372,6.62952 C66.8732,6.51352 66.47,6.39432 66.1284,6.27272 C65.786,6.15112 65.522,5.99432 65.3364,5.80312 C65.1508,5.61192 65.058,5.35352 65.058,5.02872 C65.058,4.57672 65.2524,4.22872 65.6412,3.98472 C66.03,3.74152 66.5772,3.61992 67.2852,3.61992 C67.934,3.61992 68.5812,3.70632 69.2252,3.88072 C69.8684,4.05432 70.446,4.29832 70.9564,4.61112 L70.9564,2.24472 C70.446,1.98952 69.8716,1.78712 69.2332,1.63672 C68.5956,1.48552 67.946,1.40952 67.2852,1.40952 C66.2764,1.40952 65.406,1.56392 64.6756,1.87112 C63.9444,2.17832 63.3788,2.61672 62.9788,3.18472 C62.5788,3.75272 62.3788,4.43112 62.3788,5.21992 C62.3788,5.77672 62.4716,6.25512 62.6572,6.65512 C62.8428,7.05592 63.1156,7.39752 63.4748,7.68232 C63.834,7.96632 64.2756,8.21272 64.7972,8.42152 C65.3188,8.63032 65.922,8.81592 66.6068,8.97832 C67.0244,9.08312 67.4012,9.19512 67.7372,9.31752 C68.074,9.43912 68.3436,9.60152 68.5468,9.80472 C68.7492,10.00792 68.8508,10.28872 68.8508,10.64872 C68.8508,11.12392 68.6452,11.49512 68.2332,11.76152 C67.8212,12.02872 67.2212,12.16152 66.4324,12.16152 C65.0412,12.16152 63.7244,11.78552 62.4828,11.03112 L62.4828,13.43192 C63.098,13.75672 63.7388,13.99432 64.4052,14.14552 C65.0724,14.29592 65.7484,14.37192 66.4324,14.37192" id="Fill-3"></path>
                        <polygon id="Fill-4" points="73.33984 1.67072 73.33984 4.00272 77.25504 4.00272 77.25504 14.11072 79.93344 14.11072 79.93344 4.00272 83.84864 4.00272 83.84864 1.67072"></polygon>
                        <path d="M91.8156,14.37192 C92.9172,14.37192 93.8676,14.15992 94.6684,13.73672 C95.4684,13.31352 96.0812,12.70152 96.5036,11.90152 C96.9276,11.10072 97.1388,10.13832 97.1388,9.01352 L97.1388,1.67112 L94.4604,1.67112 L94.4604,9.30872 C94.4604,10.18952 94.2316,10.86552 93.7724,11.33592 C93.3148,11.80552 92.662,12.04072 91.8156,12.04072 C90.9684,12.04072 90.3164,11.80552 89.858,11.33592 C89.3996,10.86552 89.1708,10.18952 89.1708,9.30872 L89.1708,1.67112 L86.4916,1.67112 L86.4916,9.01352 C86.4916,10.13832 86.7028,11.10072 87.1268,11.90152 C87.55,12.70152 88.1588,13.31352 88.9532,13.73672 C89.7476,14.15992 90.7012,14.37192 91.8156,14.37192" id="Fill-5"></path>
                        <path d="M105.0828,11.81408 L103.1692,11.81408 L103.1692,3.96688 L105.1004,3.96688 C106.2716,3.96688 107.1628,4.30048 107.7708,4.96768 C108.3796,5.63488 108.6844,6.60048 108.6844,7.86448 C108.6844,9.14048 108.374,10.11808 107.754,10.79648 C107.1332,11.47488 106.2428,11.81408 105.0828,11.81408 Z M100.49,1.67088 L100.49,14.11088 L105.2228,14.11088 C106.5444,14.11088 107.6692,13.86448 108.598,13.37088 C109.526,12.87808 110.2356,12.16448 110.7292,11.23088 C111.222,10.29728 111.4676,9.17488 111.4676,7.86448 C111.4676,6.55408 111.2252,5.43728 110.7372,4.51568 C110.2508,3.59328 109.5396,2.88848 108.606,2.40128 C107.6724,1.91408 106.5508,1.67088 105.2396,1.67088 L100.49,1.67088 Z" id="Fill-6"></path>
                        <polygon id="Fill-7" points="114.4088 14.11088 117.088 14.11088 117.088 1.67088 114.4088 1.67088"></polygon>
                        <path d="M126.11952,12.04064 C125.41152,12.04064 124.80272,11.87504 124.29232,11.54464 C123.78192,11.21424 123.39392,10.74064 123.12672,10.12624 C122.86032,9.51184 122.72672,8.76304 122.72672,7.88224 C122.72672,7.00064 122.86032,6.25264 123.12672,5.63744 C123.39392,5.02304 123.78192,4.55344 124.29232,4.22864 C124.80272,3.90384 125.41152,3.74144 126.11952,3.74144 C126.82672,3.74144 127.43632,3.90384 127.94592,4.22864 C128.45632,4.55344 128.84512,5.02304 129.11152,5.63744 C129.37872,6.25264 129.51152,7.00064 129.51152,7.88224 C129.51152,8.76304 129.37872,9.51184 129.11152,10.12624 C128.84512,10.74064 128.45632,11.21424 127.94592,11.54464 C127.43632,11.87504 126.82672,12.04064 126.11952,12.04064 M126.11952,1.40944 C125.17952,1.40944 124.33072,1.56064 123.56992,1.86224 C122.81072,2.16384 122.16112,2.59584 121.62192,3.15824 C121.08272,3.72064 120.66832,4.39984 120.37792,5.19424 C120.08752,5.98864 119.94272,6.88464 119.94272,7.88224 C119.94272,8.86784 120.08752,9.76064 120.37792,10.56144 C120.66832,11.36144 121.08272,12.04624 121.62192,12.61424 C122.16112,13.18304 122.81072,13.61824 123.56992,13.91984 C124.33072,14.22144 125.17952,14.37184 126.11952,14.37184 C127.05872,14.37184 127.90832,14.22144 128.66832,13.91984 C129.42832,13.61824 130.07712,13.18304 130.61712,12.61424 C131.15632,12.04624 131.56992,11.36144 131.86112,10.56144 C132.15072,9.76064 132.29552,8.86784 132.29552,7.88224 C132.29552,6.88464 132.15072,5.98864 131.86112,5.19424 C131.56992,4.39984 131.15632,3.72064 130.61712,3.15824 C130.07712,2.59584 129.42832,2.16384 128.66832,1.86224 C127.90832,1.56064 127.05872,1.40944 126.11952,1.40944" id="Fill-8"></path>
                        <path d="M138.8672,14.37192 C139.9464,14.37192 140.868,14.21832 141.6336,13.91112 C142.3992,13.60312 142.9848,13.15592 143.3912,12.57112 C143.7968,11.98552 144,11.28072 144,10.45672 C144,9.83032 143.8928,9.30312 143.6784,8.87352 C143.4632,8.44472 143.1616,8.09032 142.7736,7.81272 C142.3848,7.53432 141.9352,7.30472 141.4248,7.12552 C140.9152,6.94552 140.364,6.77992 139.7728,6.62952 C139.3088,6.51352 138.9056,6.39432 138.5632,6.27272 C138.2208,6.15112 137.9568,5.99432 137.7712,5.80312 C137.5856,5.61192 137.4928,5.35352 137.4928,5.02872 C137.4928,4.57672 137.6872,4.22872 138.076,3.98472 C138.4648,3.74152 139.0128,3.61992 139.72,3.61992 C140.3696,3.61992 141.0168,3.70632 141.66,3.88072 C142.304,4.05432 142.8808,4.29832 143.3912,4.61112 L143.3912,2.24472 C142.8808,1.98952 142.3072,1.78712 141.6688,1.63672 C141.0304,1.48552 140.3816,1.40952 139.72,1.40952 C138.7112,1.40952 137.8416,1.56392 137.1104,1.87112 C136.38,2.17832 135.8144,2.61672 135.4144,3.18472 C135.0144,3.75272 134.8144,4.43112 134.8144,5.21992 C134.8144,5.77672 134.9064,6.25512 135.092,6.65512 C135.2776,7.05592 135.5504,7.39752 135.9104,7.68232 C136.2696,7.96632 136.7104,8.21272 137.232,8.42152 C137.7536,8.63032 138.3568,8.81592 139.0416,8.97832 C139.4592,9.08312 139.836,9.19512 140.1728,9.31752 C140.5088,9.43912 140.7784,9.60152 140.9816,9.80472 C141.184,10.00792 141.2856,10.28872 141.2856,10.64872 C141.2856,11.12392 141.0808,11.49512 140.668,11.76152 C140.256,12.02872 139.656,12.16152 138.868,12.16152 C137.476,12.16152 136.1592,11.78552 134.9176,11.03112 L134.9176,13.43192 C135.5328,13.75672 136.1736,13.99432 136.8408,14.14552 C137.508,14.29592 138.184,14.37192 138.868,14.37192 L138.8672,14.37192 Z" id="Fill-9"></path>
                    </g>
                </g>
            </g>
        </g>
    </g>
</svg>