<?xml version="1.0" encoding="UTF-8"?>
<svg width="97px" height="40px" viewBox="0 0 97 40" version="1.1" xmlns="http://www.w3.org/2000/svg" xmlns:xlink="http://www.w3.org/1999/xlink">
    <!-- Generator: Sketch 52.1 (67048) - http://www.bohemiancoding.com/sketch -->
    <title>Chef</title>
    <desc>Created with Sketch.</desc>
    <defs>
        <path d="M189.427504,1.4075005 C191.505004,0.590000208 193.705005,0.107500038 195.937506,3.55271368e-15 C199.690007,0.0300000106 203.402509,1.22000043 206.45751,3.4050012 C205.98251,4.28500151 205.357509,5.06750179 204.740009,5.84750206 C201.422508,3.30250117 196.965006,2.44000086 192.910005,3.35750118 C188.620003,4.35750154 184.992502,7.45000263 183.090001,11.390004 C183.062501,11.5625041 183.007501,11.9075042 182.982501,12.0775043 C182.047501,11.8075042 181.127501,11.5000041 180.2175,11.1600039 C180.3825,10.0225035 181.032501,9.05250319 181.610001,8.08750285 C183.447502,5.11750181 186.255003,2.827501 189.427504,1.4075005 Z M201.242508,4.44500157 C202.032508,4.56750161 202.735008,4.99000176 203.415009,5.3925019 C206.82751,7.47250264 209.402511,11.0725039 209.905011,15.0725053 C208.947511,15.0825053 207.99001,15.0875053 207.03251,15.0825053 C206.91751,14.6875052 206.80251,14.295005 206.68501,13.9025049 C205.677509,10.8525038 203.305009,8.19500289 200.247507,7.12000251 C200.515008,6.20750219 200.777508,5.28250186 201.242508,4.44500157 Z M189.327504,14.3625051 C190.612504,11.8050042 193.270005,9.74000344 196.247506,9.98250352 C196.240006,10.8950038 196.292506,11.8075042 196.225006,12.7200045 C195.795006,13.2350047 195.002506,13.1000046 194.435005,13.3925047 C193.095005,14.0150049 191.952505,15.3775054 191.980005,16.912506 C191.955005,17.6675062 192.032505,18.4200065 192.087505,19.1750068 C191.162504,19.5325069 190.247504,19.912507 189.347504,20.3325072 C188.627503,18.4175065 188.607503,16.2800057 189.327504,14.3625051 Z M182.700001,20.9225074 C182.370001,19.742507 182.205001,18.5200065 182.220001,17.2950061 C183.155001,17.2975061 184.087502,17.3000061 185.020002,17.2925061 C185.065002,17.4400062 185.152502,17.7350063 185.197502,17.8825063 C185.240002,18.5575065 185.287502,19.2300068 185.390002,19.897507 C185.547502,20.3225072 185.695002,20.7525073 185.835002,21.1850075 C186.917503,23.9475085 189.067504,26.3875093 191.892505,27.4275097 C191.850005,28.36251 191.430004,29.2150103 191.150004,30.0925106 C190.747504,30.0525106 190.345004,29.9900106 189.952504,29.9075106 C186.972503,28.20251 184.422502,25.6475091 183.152501,22.4175079 C183.060001,22.1625078 182.960001,21.9125077 182.852501,21.6650076 C182.800001,21.4175076 182.750001,21.1700075 182.700001,20.9225074 Z M197.757507,21.3900075 C198.622507,20.9375074 199.377507,20.3050072 199.942507,19.5050069 C201.032508,19.4650069 202.122508,19.4675069 203.212509,19.4950069 C202.667508,21.6725076 200.905008,23.3775083 198.880007,24.2450086 C198.505007,23.2925082 198.142507,22.3375079 197.757507,21.3900075 Z M210.362511,19.4875069 C211.345011,19.4750069 212.327512,19.4725069 213.310012,19.4875069 C212.565012,25.8500091 207.96001,31.5425111 201.900008,33.6150119 C197.875007,35.0075124 193.317505,34.8800123 189.400004,33.1850117 C187.405003,32.3675114 185.652502,31.070011 184.055002,29.6400105 C184.070002,29.5800104 184.097502,29.4625104 184.110002,29.4025104 C184.765002,28.7900102 185.390002,28.1475099 185.995002,27.4875097 C186.942503,28.23251 187.860003,29.0250102 188.890003,29.6600105 C189.787504,30.1525106 190.715004,30.5900108 191.682504,30.9300109 C192.015005,31.0250109 192.350005,31.122511 192.680005,31.230011 C193.010005,31.282511 193.340005,31.3350111 193.670005,31.3975111 C194.987506,31.7175112 196.360006,31.5950112 197.702507,31.5675111 C202.882508,31.080011 207.54751,27.4825097 209.495011,22.680008 C209.635011,22.2450079 209.782511,21.8150077 209.930011,21.3825075 C210.080011,20.7525073 210.222511,20.1200071 210.362511,19.4875069 Z M191.430004,4.16250147 C192.930005,3.61750128 194.522505,3.42000121 196.105006,3.28500116 C196.120006,4.27250151 196.115006,5.26000186 196.107506,6.2475022 C194.847506,6.36500225 193.557505,6.43750227 192.392505,6.98250246 C192.307505,6.97750246 192.140005,6.97000246 192.055005,6.96500246 L192.042505,7.15500253 C190.075004,7.83250276 188.440003,9.25250327 187.197503,10.8950038 C186.687503,11.6450041 186.257503,12.4450044 185.932502,13.2925047 C184.995002,12.9925046 184.070002,12.6450045 183.182501,12.2150043 C184.525002,8.7825031 187.305003,5.92250209 190.697504,4.48000158 C190.940004,4.37250154 191.185004,4.26750151 191.430004,4.16250147 Z M193.962505,6.83000241 C195.785006,6.70500237 197.670007,6.55000231 199.440007,7.11000251 C203.000008,8.29500293 205.870009,11.375004 206.64251,15.0675053 C205.640009,15.0875053 204.635009,15.0850053 203.632509,15.0700053 C202.742508,12.1975043 200.140007,10.0325035 197.180006,9.57750338 C193.410005,9.0800032 189.570004,11.6900041 188.655003,15.3825054 C188.567503,15.8200056 188.480003,16.2550057 188.370003,16.6875059 C188.355003,18.5650066 188.802503,20.5350072 190.020004,22.0125078 C190.835004,23.0825081 191.932505,23.8900084 193.115005,24.5150087 C195.082506,25.2600089 197.262506,25.2650089 199.227507,24.5075086 C201.302508,23.5100083 202.980008,21.7125077 203.662509,19.4950069 C204.657509,19.4700069 205.655009,19.4750069 206.65251,19.4850069 C206.47751,20.3250072 206.19001,21.1350075 205.835009,21.9175077 C205.820009,21.9775078 205.792509,22.0975078 205.780009,22.1575078 C204.520009,24.3875086 202.592508,26.2425093 200.222507,27.2500096 C198.232507,27.9975099 196.032506,28.26751 193.950005,27.7775098 C190.137504,27.0025095 186.887503,23.9425084 185.897502,20.1800071 C185.345002,18.3025065 185.402502,16.2800057 185.882502,14.3950051 C186.115003,13.7925049 186.342503,13.1850047 186.575003,12.5825044 C187.892503,10.1150036 190.062504,8.04250284 192.772505,7.21250255 L192.802505,7.12750252 C193.190005,7.03500248 193.580005,6.94750245 193.962505,6.83000241 Z M208.41251,9.65750341 C209.225011,9.15750323 210.047511,8.67250306 210.887511,8.2150029 C211.487511,9.31750329 212.042512,10.4475037 212.500012,11.6175041 C212.835012,12.7500045 213.122512,13.8975049 213.307512,15.0650053 C212.317512,15.0875053 211.325011,15.0850053 210.335011,15.0700053 C210.080011,13.1425046 209.210011,11.402504 208.41251,9.65750341 Z M198.877507,10.4100037 C199.325007,10.6275038 199.772507,10.8500038 200.225007,11.0650039 C201.562508,12.0925043 202.757508,13.3900047 203.220009,15.0550053 C202.107508,15.0950053 200.997508,15.0875053 199.887507,15.0650053 C199.380007,14.302505 198.662507,13.7250048 197.827507,13.3575047 C197.837507,13.2000047 197.847507,13.0425046 197.860007,12.8850045 C198.247507,12.0825043 198.565007,11.247504 198.877507,10.4100037 Z M179,17.4375062 C179.9325,17.4375062 180.867501,17.4400062 181.802501,17.4300062 C181.760001,19.4150069 182.502501,21.2825075 182.947501,23.1850082 C182.080001,23.5250083 181.217501,23.8800084 180.385,24.2975086 C179.8025,22.9650081 179.4475,21.5525076 179.1075,20.1450071 C179.04,19.2425068 179.0125,18.3400065 179,17.4375062 Z M205.612509,23.0875081 C206.32251,21.9850078 206.69251,20.7125073 207.09501,19.4750069 C208.03001,19.4775069 208.965011,19.4750069 209.900011,19.4825069 C209.432511,23.8150084 206.47251,27.6500098 202.695008,29.7075105 C201.647508,30.2225107 200.545008,30.6100108 199.425007,30.9375109 C198.372507,31.117511 197.325006,31.3375111 196.252506,31.3275111 C196.240006,30.3175107 196.242506,29.3075103 196.265006,28.29751 C197.067506,28.31751 197.877507,28.30501 198.657507,28.0875099 C198.792507,28.0600099 199.062507,28.0075099 199.197507,27.9800099 C201.837508,27.1875096 204.165009,25.440009 205.612509,23.0875081 Z M193.005005,20.4575072 C193.967505,20.9950074 194.935006,21.6450076 196.090006,21.6025076 C196.120006,22.610008 196.117506,23.6200083 196.112506,24.6300087 C195.182506,24.6050087 194.245005,24.5425087 193.365005,24.2200085 C192.597505,23.7150084 191.422504,23.4175083 191.167504,22.4350079 C191.735004,21.7350077 192.412505,21.1350075 193.005005,20.4575072 Z M224.869887,11.3675614 C226.594888,10.8750613 228.564889,10.7875612 230.179889,11.6700615 C230.749889,11.9675616 231.26239,12.3600618 231.78739,12.7250619 C231.26239,13.3950621 230.722389,14.0550624 230.149889,14.6900626 C229.524889,14.2375624 228.907389,13.7250623 228.144889,13.5375622 C227.394888,13.4450622 226.637388,13.5050622 225.887388,13.5275622 C224.984887,14.0200624 224.344887,14.8150626 223.854887,15.697563 C223.724887,16.6050633 223.724887,17.5250636 223.857387,18.4300639 C224.319887,19.2875642 224.912387,20.0800645 225.799888,20.5325647 C225.944888,20.5675647 226.237388,20.6400647 226.384888,20.6750647 C226.879888,20.8000648 227.394888,20.7875647 227.902388,20.7425647 C228.667389,20.4500646 229.402389,20.0750645 230.042389,19.5575643 C230.132389,19.5625643 230.314889,19.5750643 230.404889,19.5825643 C230.784889,20.1025645 231.50489,20.4925646 231.62739,21.1375649 C230.98739,22.0825652 229.922389,22.6450654 228.847389,22.9475655 C226.879888,23.3100656 224.619887,23.1375656 223.099887,21.6925651 C221.144886,20.0875645 220.532386,17.2600635 221.357386,14.9125627 C222.004886,13.3150621 223.279887,12.0325617 224.869887,11.3675614 Z M242.572508,11.2525001 C243.315008,11.2525001 244.055008,11.2525001 244.797508,11.2500001 C244.910008,11.3200001 245.132509,11.4600002 245.245009,11.5300002 C245.250009,15.3475015 245.225009,19.1650029 245.255009,22.9825042 C244.370008,23.1650043 243.462508,23.1750043 242.562508,23.1450043 C242.542508,21.5625037 242.557508,19.9800032 242.550008,18.3975026 C240.982507,18.4075026 239.415006,18.3850026 237.847506,18.4150026 C237.852506,19.9525032 237.850006,21.4925037 237.847506,23.0300042 C236.982506,23.0325042 236.117505,23.0325042 235.252505,23.0225042 C235.257505,19.1475029 235.257505,15.2725015 235.250005,11.3975001 C236.117505,11.3925001 236.985006,11.3900001 237.852506,11.3925001 C237.847506,12.9150007 237.850006,14.4375012 237.850006,15.9600018 C239.415006,15.9850018 240.980007,15.9650018 242.547508,15.9750018 C242.562508,14.4000012 242.532508,12.8250006 242.572508,11.2525001 Z M262.294767,11.2525001 C265.224768,11.2650001 268.157269,11.2700001 271.08727,11.2500001 C271.23477,12.0425004 271.25477,12.8550007 271.13227,13.6550009 C269.00977,13.6350009 266.884769,13.6500009 264.759768,13.6450009 C264.759768,14.4825012 264.762268,15.3225015 264.774768,16.1625018 C266.682269,16.1725018 268.592269,16.1200018 270.50227,16.2000018 C270.49477,16.9525021 270.49727,17.7075024 270.50227,18.4600026 C268.594769,18.5550027 266.684769,18.4900026 264.774768,18.5050026 C264.719768,20.0550032 264.857268,21.6150037 264.659768,23.1600043 C263.864768,23.1525043 263.069767,23.1525043 262.277267,23.1550043 C262.257267,19.1875029 262.219767,15.2175015 262.294767,11.2525001 Z M249.50001,11.2500001 C252.492511,11.2550001 255.487512,11.2475001 258.480013,11.2550001 C258.475013,12.0025004 258.475013,12.7500006 258.470013,13.4975009 C256.375012,13.4975009 254.280012,13.4950009 252.187511,13.4975009 C252.192511,14.3275012 252.192511,15.1600015 252.205011,15.9900018 C254.067512,15.9850018 255.927512,15.9900018 257.790013,15.9850018 C257.787513,16.757502 257.785013,17.5300023 257.772513,18.3025026 C255.915012,18.2900026 254.055012,18.3000026 252.197511,18.2950026 C252.192511,19.1400029 252.192511,19.9850032 252.190011,20.8325035 C254.360012,20.8400035 256.530013,20.8200035 258.697513,20.8450035 C258.697513,21.5775037 258.697513,22.312504 258.702513,23.0475043 C255.635012,23.0875043 252.567511,23.0550043 249.50001,23.0650043 C249.50001,19.1275029 249.50251,15.1900015 249.50001,11.2500001 Z" id="path-1"></path>
        <filter x="-2.7%" y="-7.2%" width="110.8%" height="128.9%" filterUnits="objectBoundingBox" id="filter-2">
            <feOffset dx="1" dy="1" in="SourceAlpha" result="shadowOffsetOuter1"></feOffset>
            <feColorMatrix values="0 0 0 0 0   0 0 0 0 0   0 0 0 0 0  0 0 0 1 0" type="matrix" in="shadowOffsetOuter1" result="shadowMatrixOuter1"></feColorMatrix>
            <feOffset dx="2" dy="2" in="SourceAlpha" result="shadowOffsetOuter2"></feOffset>
            <feColorMatrix values="0 0 0 0 0   0 0 0 0 0   0 0 0 0 0  0 0 0 1 0" type="matrix" in="shadowOffsetOuter2" result="shadowMatrixOuter2"></feColorMatrix>
            <feOffset dx="3" dy="3" in="SourceAlpha" result="shadowOffsetOuter3"></feOffset>
            <feColorMatrix values="0 0 0 0 0   0 0 0 0 0   0 0 0 0 0  0 0 0 1 0" type="matrix" in="shadowOffsetOuter3" result="shadowMatrixOuter3"></feColorMatrix>
            <feOffset dx="4" dy="4" in="SourceAlpha" result="shadowOffsetOuter4"></feOffset>
            <feColorMatrix values="0 0 0 0 0   0 0 0 0 0   0 0 0 0 0  0 0 0 1 0" type="matrix" in="shadowOffsetOuter4" result="shadowMatrixOuter4"></feColorMatrix>
            <feOffset dx="2" dy="2" in="SourceAlpha" result="shadowOffsetOuter5"></feOffset>
            <feGaussianBlur stdDeviation="0.5" in="shadowOffsetOuter5" result="shadowBlurOuter5"></feGaussianBlur>
            <feColorMatrix values="0 0 0 0 0   0 0 0 0 0   0 0 0 0 0  0 0 0 1 0" type="matrix" in="shadowBlurOuter5" result="shadowMatrixOuter5"></feColorMatrix>
            <feOffset dx="5" dy="5" in="SourceAlpha" result="shadowOffsetOuter6"></feOffset>
            <feColorMatrix values="0 0 0 0 0   0 0 0 0 0   0 0 0 0 0  0 0 0 1 0" type="matrix" in="shadowOffsetOuter6" result="shadowMatrixOuter6"></feColorMatrix>
            <feMerge>
                <feMergeNode in="shadowMatrixOuter1"></feMergeNode>
                <feMergeNode in="shadowMatrixOuter2"></feMergeNode>
                <feMergeNode in="shadowMatrixOuter3"></feMergeNode>
                <feMergeNode in="shadowMatrixOuter4"></feMergeNode>
                <feMergeNode in="shadowMatrixOuter5"></feMergeNode>
                <feMergeNode in="shadowMatrixOuter6"></feMergeNode>
            </feMerge>
        </filter>
    </defs>
    <g id="Decktop-UI" stroke="none" stroke-width="1" fill="none" fill-rule="evenodd">
        <g id="Main-Page_v.8" transform="translate(-611.000000, -689.000000)">
            <g id="Hero" transform="translate(80.000000, 1.000000)">
                <g id="Logo-1" transform="translate(0.000000, 688.000000)">
                    <g id="logos" transform="translate(352.000000, 0.000000)">
                        <g id="Chef">
                            <use fill="black" fill-opacity="1" filter="url(#filter-2)" xlink:href="#path-1"></use>
                            <use fill="#FFFFFF" fill-rule="evenodd" xlink:href="#path-1"></use>
                        </g>
                    </g>
                </g>
            </g>
        </g>
    </g>
</svg>