<svg width="96" height="40" viewBox="0 0 96 40" fill="none" xmlns="http://www.w3.org/2000/svg">
<g opacity="0.5" clip-path="url(#clip0)">
<g filter="url(#filter0_dddddd)">
<path d="M10.3065 2.0819C12.3416 1.28108 14.4967 0.808431 16.6836 0.703125C20.3596 0.732513 23.9963 1.89823 26.9889 4.03864C26.5236 4.90068 25.9114 5.66721 25.3065 6.43129C22.0567 3.93823 17.6902 3.09333 13.7179 3.99211C9.51547 4.9717 5.962 8.00109 4.09832 11.8607C4.07138 12.0297 4.01751 12.3676 3.99302 12.5341C3.0771 12.2697 2.17588 11.9684 1.28445 11.6354C1.44608 10.5211 2.08282 9.57088 2.64853 8.62558C4.44853 5.71619 7.19874 3.47292 10.3065 2.0819ZM21.8804 5.05741C22.6543 5.17741 23.3424 5.59129 24.0085 5.98558C27.3514 8.02313 29.8738 11.5497 30.3661 15.468C29.4281 15.4778 28.4902 15.4827 27.5522 15.4778C27.4396 15.0909 27.3269 14.7064 27.2118 14.3219C26.2249 11.3341 23.9008 8.73088 20.9057 7.67782C21.1677 6.78394 21.4249 5.87782 21.8804 5.05741ZM10.2085 14.7725C11.4673 12.2672 14.0706 10.2444 16.9873 10.4819C16.98 11.3758 17.0314 12.2697 16.9653 13.1635C16.544 13.668 15.7677 13.5358 15.2118 13.8223C13.8991 14.4321 12.78 15.7668 12.8069 17.2705C12.7824 18.0101 12.8583 18.7472 12.9122 19.4868C12.0061 19.837 11.1098 20.2093 10.2281 20.6207C9.52282 18.7448 9.50322 16.6509 10.2085 14.7725ZM3.71628 21.1986C3.39302 20.0427 3.23139 18.8452 3.24608 17.6452C4.162 17.6476 5.07547 17.6501 5.98894 17.6427C6.03303 17.7872 6.11873 18.0762 6.16281 18.2207C6.20444 18.8819 6.25098 19.5407 6.35139 20.1946C6.50567 20.6109 6.65017 21.0321 6.78731 21.4558C7.84772 24.1619 9.95384 26.5521 12.7212 27.5709C12.6796 28.4868 12.2681 29.3219 11.9938 30.1815C11.5996 30.1423 11.2053 30.0811 10.8208 30.0003C7.90159 28.3301 5.40363 25.8272 4.15955 22.6631C4.06894 22.4133 3.97099 22.1684 3.86568 21.926C3.81425 21.6835 3.76526 21.4411 3.71628 21.1986ZM18.4665 21.6566C19.3138 21.2133 20.0534 20.5937 20.6069 19.8101C21.6747 19.7709 22.7424 19.7733 23.8102 19.8003C23.2763 21.9333 21.5498 23.6035 19.5661 24.4533C19.1987 23.5203 18.8436 22.5848 18.4665 21.6566ZM30.8143 19.7929C31.7767 19.7807 32.7392 19.7782 33.7016 19.7929C32.9718 26.0256 28.4608 31.6019 22.5245 33.6321C18.5816 34.9962 14.1171 34.8713 10.2796 33.2109C8.32527 32.4101 6.60854 31.1391 5.04364 29.7382C5.05833 29.6795 5.08527 29.5644 5.09751 29.5056C5.73914 28.9056 6.35138 28.2762 6.94404 27.6297C7.8722 28.3595 8.77098 29.1358 9.77996 29.7578C10.6591 30.2403 11.5677 30.6688 12.5155 31.0019C12.8412 31.095 13.1694 31.1905 13.4926 31.2958C13.8159 31.3472 14.1391 31.3986 14.4624 31.4599C15.753 31.7733 17.0975 31.6533 18.4126 31.6264C23.4869 31.1488 28.0567 27.6248 29.9645 22.9203C30.1016 22.4942 30.2461 22.0729 30.3906 21.6493C30.5375 21.0321 30.6771 20.4125 30.8143 19.7929ZM12.2681 4.78068C13.7375 4.2468 15.2975 4.05333 16.8477 3.92109C16.8624 4.88843 16.8575 5.85578 16.8502 6.82313C15.6159 6.93823 14.3522 7.00925 13.211 7.54313C13.1277 7.53823 12.9636 7.53088 12.8804 7.52598L12.8681 7.71211C10.9408 8.37578 9.33915 9.7668 8.12201 11.3758C7.62242 12.1105 7.20118 12.8941 6.88281 13.7244C5.96444 13.4305 5.05832 13.0901 4.18893 12.6688C5.50404 9.30639 8.22731 6.50476 11.5506 5.0917C11.7881 4.98639 12.0281 4.88353 12.2681 4.78068ZM14.7489 7.39374C16.5343 7.27129 18.3808 7.11945 20.1147 7.66803C23.602 8.82884 26.4134 11.846 27.1702 15.4631C26.1881 15.4827 25.2036 15.4803 24.2216 15.4656C23.3498 12.6517 20.8004 10.5309 17.9008 10.0852C14.2077 9.59782 10.4461 12.1546 9.54975 15.7717C9.46404 16.2003 9.37834 16.6264 9.27058 17.0501C9.25589 18.8893 9.69425 20.819 10.8869 22.2664C11.6853 23.3146 12.7604 24.1056 13.9187 24.7178C15.8461 25.4476 17.9816 25.4525 19.9065 24.7105C21.9392 23.7333 23.5824 21.9725 24.251 19.8003C25.2257 19.7758 26.2028 19.7807 27.18 19.7905C27.0085 20.6133 26.7269 21.4068 26.3791 22.1733C26.3645 22.2321 26.3375 22.3497 26.3253 22.4084C25.091 24.5929 23.2028 26.4101 20.8812 27.397C18.9318 28.1293 16.7767 28.3937 14.7367 27.9137C11.002 27.1546 7.81833 24.157 6.84854 20.4713C6.30731 18.6321 6.36364 16.6509 6.83384 14.8044C7.0616 14.2141 7.28445 13.619 7.5122 13.0288C8.80281 10.6117 10.9285 8.58149 13.5832 7.76843L13.6126 7.68517C13.9922 7.59456 14.3743 7.50884 14.7489 7.39374ZM28.904 10.1635C29.7 9.67374 30.5057 9.19864 31.3285 8.75047C31.9163 9.83047 32.46 10.9374 32.9081 12.0835C33.2363 13.1929 33.5179 14.317 33.6992 15.4607C32.7294 15.4827 31.7571 15.4803 30.7873 15.4656C30.5375 13.5774 29.6853 11.8729 28.904 10.1635ZM19.5636 10.9007C20.002 11.1137 20.4404 11.3317 20.8836 11.5423C22.1938 12.5488 23.3645 13.8199 23.8175 15.4509C22.7277 15.4901 21.6404 15.4827 20.553 15.4607C20.0559 14.7137 19.353 14.148 18.5351 13.788C18.5449 13.6337 18.5547 13.4795 18.5669 13.3252C18.9465 12.539 19.2575 11.7211 19.5636 10.9007ZM0.0917969 17.7848C1.00527 17.7848 1.92119 17.7872 2.83711 17.7774C2.79548 19.7219 3.52281 21.5513 3.95873 23.415C3.10893 23.748 2.26404 24.0958 1.44853 24.5048C0.877914 23.1995 0.530162 21.8158 0.197101 20.437C0.130979 19.5529 0.104042 18.6688 0.0917969 17.7848ZM26.1612 23.3195C26.8567 22.2395 27.2192 20.9929 27.6134 19.7807C28.5294 19.7831 29.4453 19.7807 30.3612 19.788C29.9032 24.0321 27.0036 27.7888 23.3032 29.8044C22.2771 30.3088 21.1971 30.6884 20.1 31.0093C19.0689 31.1856 18.0428 31.4011 16.9922 31.3913C16.98 30.4019 16.9824 29.4125 17.0044 28.4231C17.7906 28.4427 18.584 28.4305 19.3481 28.2174C19.4804 28.1905 19.7449 28.1391 19.8771 28.1121C22.4632 27.3358 24.7432 25.6239 26.1612 23.3195ZM13.811 20.7431C14.7538 21.2697 15.7016 21.9064 16.833 21.8648C16.8624 22.8517 16.86 23.8411 16.8551 24.8305C15.944 24.806 15.0257 24.7448 14.1636 24.4288C13.4118 23.9342 12.2608 23.6427 12.011 22.6803C12.5669 21.9946 13.2306 21.4068 13.811 20.7431ZM45.0256 11.8387C46.7154 11.3562 48.6452 11.2705 50.2272 12.135C50.7856 12.4264 51.2876 12.8109 51.8019 13.1685C51.2876 13.8248 50.7586 14.4713 50.1978 15.0934C49.5856 14.6501 48.9807 14.1481 48.2337 13.9644C47.499 13.8738 46.757 13.9326 46.0223 13.9546C45.1382 14.4371 44.5113 15.2158 44.0313 16.0803C43.9039 16.9693 43.9039 17.8705 44.0337 18.7571C44.4868 19.5971 45.0672 20.3734 45.9366 20.8167C46.0786 20.8509 46.3652 20.922 46.5096 20.9562C46.9945 21.0787 47.499 21.0665 47.9962 21.0224C48.7456 20.7358 49.4656 20.3685 50.0925 19.8616C50.1807 19.8665 50.3594 19.8787 50.4476 19.886C50.8199 20.3954 51.5252 20.7775 51.6452 21.4093C51.0182 22.335 49.9749 22.886 48.9219 23.1824C46.9945 23.5375 44.7807 23.3685 43.2917 21.953C41.3766 20.3807 40.7766 17.6109 41.5848 15.3113C42.219 13.7465 43.468 12.4901 45.0256 11.8387ZM62.3669 11.726C63.0943 11.726 63.8191 11.726 64.5465 11.7235C64.6567 11.7921 64.8747 11.9292 64.9849 11.9978C64.9898 15.7374 64.9653 19.477 64.9947 23.2166C64.1277 23.3954 63.2387 23.4052 62.3571 23.3758C62.3375 21.8256 62.3522 20.2754 62.3449 18.7252C60.8093 18.735 59.2738 18.7129 57.7383 18.7423C57.7432 20.2484 57.7408 21.757 57.7383 23.2631C56.891 23.2656 56.0436 23.2656 55.1963 23.2558C55.2012 19.4599 55.2012 15.6639 55.1938 11.868C56.0436 11.8631 56.8934 11.8607 57.7432 11.8631C57.7383 13.3546 57.7408 14.846 57.7408 16.3374C59.2738 16.3619 60.8069 16.3423 62.3424 16.3521C62.3571 14.8092 62.3277 13.2664 62.3669 11.726ZM81.6867 11.726C84.5569 11.7382 87.4295 11.7431 90.2997 11.7235C90.4442 12.4999 90.4638 13.2958 90.3438 14.0795C88.2646 14.0599 86.183 14.0746 84.1014 14.0697C84.1014 14.8901 84.1038 15.7129 84.1161 16.5358C85.9846 16.5456 87.8556 16.4941 89.7267 16.5725C89.7193 17.3097 89.7218 18.0492 89.7267 18.7864C87.8581 18.8795 85.9871 18.8158 84.1161 18.8305C84.0622 20.3488 84.1969 21.877 84.0034 23.3905C83.2246 23.3831 82.4458 23.3831 81.6695 23.3856C81.6499 19.499 81.6132 15.6101 81.6867 11.726ZM69.153 11.7235C72.0845 11.7284 75.0183 11.7211 77.9498 11.7284C77.9449 12.4607 77.9449 13.1929 77.94 13.9252C75.8877 13.9252 73.8355 13.9227 71.7857 13.9252C71.7906 14.7382 71.7906 15.5537 71.8028 16.3668C73.6273 16.3619 75.4493 16.3668 77.2738 16.3619C77.2714 17.1186 77.269 17.8754 77.2567 18.6321C75.4371 18.6199 73.6151 18.6297 71.7955 18.6248C71.7906 19.4525 71.7906 20.2803 71.7881 21.1105C73.9138 21.1178 76.0396 21.0982 78.1628 21.1227C78.1628 21.8403 78.1628 22.5603 78.1677 23.2803C75.1628 23.3195 72.1579 23.2876 69.153 23.2974C69.153 19.4403 69.1555 15.5831 69.153 11.7235Z" fill="black"/>
</g>
<path d="M10.3065 2.0819C12.3416 1.28108 14.4967 0.808431 16.6836 0.703125C20.3596 0.732513 23.9963 1.89823 26.9889 4.03864C26.5236 4.90068 25.9114 5.66721 25.3065 6.43129C22.0567 3.93823 17.6902 3.09333 13.7179 3.99211C9.51547 4.9717 5.962 8.00109 4.09832 11.8607C4.07138 12.0297 4.01751 12.3676 3.99302 12.5341C3.0771 12.2697 2.17588 11.9684 1.28445 11.6354C1.44608 10.5211 2.08282 9.57088 2.64853 8.62558C4.44853 5.71619 7.19874 3.47292 10.3065 2.0819ZM21.8804 5.05741C22.6543 5.17741 23.3424 5.59129 24.0085 5.98558C27.3514 8.02313 29.8738 11.5497 30.3661 15.468C29.4281 15.4778 28.4902 15.4827 27.5522 15.4778C27.4396 15.0909 27.3269 14.7064 27.2118 14.3219C26.2249 11.3341 23.9008 8.73088 20.9057 7.67782C21.1677 6.78394 21.4249 5.87782 21.8804 5.05741ZM10.2085 14.7725C11.4673 12.2672 14.0706 10.2444 16.9873 10.4819C16.98 11.3758 17.0314 12.2697 16.9653 13.1635C16.544 13.668 15.7677 13.5358 15.2118 13.8223C13.8991 14.4321 12.78 15.7668 12.8069 17.2705C12.7824 18.0101 12.8583 18.7472 12.9122 19.4868C12.0061 19.837 11.1098 20.2093 10.2281 20.6207C9.52282 18.7448 9.50322 16.6509 10.2085 14.7725ZM3.71628 21.1986C3.39302 20.0427 3.23139 18.8452 3.24608 17.6452C4.162 17.6476 5.07547 17.6501 5.98894 17.6427C6.03303 17.7872 6.11873 18.0762 6.16281 18.2207C6.20444 18.8819 6.25098 19.5407 6.35139 20.1946C6.50567 20.6109 6.65017 21.0321 6.78731 21.4558C7.84772 24.1619 9.95384 26.5521 12.7212 27.5709C12.6796 28.4868 12.2681 29.3219 11.9938 30.1815C11.5996 30.1423 11.2053 30.0811 10.8208 30.0003C7.90159 28.3301 5.40363 25.8272 4.15955 22.6631C4.06894 22.4133 3.97099 22.1684 3.86568 21.926C3.81425 21.6835 3.76526 21.4411 3.71628 21.1986ZM18.4665 21.6566C19.3138 21.2133 20.0534 20.5937 20.6069 19.8101C21.6747 19.7709 22.7424 19.7733 23.8102 19.8003C23.2763 21.9333 21.5498 23.6035 19.5661 24.4533C19.1987 23.5203 18.8436 22.5848 18.4665 21.6566ZM30.8143 19.7929C31.7767 19.7807 32.7392 19.7782 33.7016 19.7929C32.9718 26.0256 28.4608 31.6019 22.5245 33.6321C18.5816 34.9962 14.1171 34.8713 10.2796 33.2109C8.32527 32.4101 6.60854 31.1391 5.04364 29.7382C5.05833 29.6795 5.08527 29.5644 5.09751 29.5056C5.73914 28.9056 6.35138 28.2762 6.94404 27.6297C7.8722 28.3595 8.77098 29.1358 9.77996 29.7578C10.6591 30.2403 11.5677 30.6688 12.5155 31.0019C12.8412 31.095 13.1694 31.1905 13.4926 31.2958C13.8159 31.3472 14.1391 31.3986 14.4624 31.4599C15.753 31.7733 17.0975 31.6533 18.4126 31.6264C23.4869 31.1488 28.0567 27.6248 29.9645 22.9203C30.1016 22.4942 30.2461 22.0729 30.3906 21.6493C30.5375 21.0321 30.6771 20.4125 30.8143 19.7929ZM12.2681 4.78068C13.7375 4.2468 15.2975 4.05333 16.8477 3.92109C16.8624 4.88843 16.8575 5.85578 16.8502 6.82313C15.6159 6.93823 14.3522 7.00925 13.211 7.54313C13.1277 7.53823 12.9636 7.53088 12.8804 7.52598L12.8681 7.71211C10.9408 8.37578 9.33915 9.7668 8.12201 11.3758C7.62242 12.1105 7.20118 12.8941 6.88281 13.7244C5.96444 13.4305 5.05832 13.0901 4.18893 12.6688C5.50404 9.30639 8.22731 6.50476 11.5506 5.0917C11.7881 4.98639 12.0281 4.88353 12.2681 4.78068ZM14.7489 7.39374C16.5343 7.27129 18.3808 7.11945 20.1147 7.66803C23.602 8.82884 26.4134 11.846 27.1702 15.4631C26.1881 15.4827 25.2036 15.4803 24.2216 15.4656C23.3498 12.6517 20.8004 10.5309 17.9008 10.0852C14.2077 9.59782 10.4461 12.1546 9.54975 15.7717C9.46404 16.2003 9.37834 16.6264 9.27058 17.0501C9.25589 18.8893 9.69425 20.819 10.8869 22.2664C11.6853 23.3146 12.7604 24.1056 13.9187 24.7178C15.8461 25.4476 17.9816 25.4525 19.9065 24.7105C21.9392 23.7333 23.5824 21.9725 24.251 19.8003C25.2257 19.7758 26.2028 19.7807 27.18 19.7905C27.0085 20.6133 26.7269 21.4068 26.3791 22.1733C26.3645 22.2321 26.3375 22.3497 26.3253 22.4084C25.091 24.5929 23.2028 26.4101 20.8812 27.397C18.9318 28.1293 16.7767 28.3937 14.7367 27.9137C11.002 27.1546 7.81833 24.157 6.84854 20.4713C6.30731 18.6321 6.36364 16.6509 6.83384 14.8044C7.0616 14.2141 7.28445 13.619 7.5122 13.0288C8.80281 10.6117 10.9285 8.58149 13.5832 7.76843L13.6126 7.68517C13.9922 7.59456 14.3743 7.50884 14.7489 7.39374ZM28.904 10.1635C29.7 9.67374 30.5057 9.19864 31.3285 8.75047C31.9163 9.83047 32.46 10.9374 32.9081 12.0835C33.2363 13.1929 33.5179 14.317 33.6992 15.4607C32.7294 15.4827 31.7571 15.4803 30.7873 15.4656C30.5375 13.5774 29.6853 11.8729 28.904 10.1635ZM19.5636 10.9007C20.002 11.1137 20.4404 11.3317 20.8836 11.5423C22.1938 12.5488 23.3645 13.8199 23.8175 15.4509C22.7277 15.4901 21.6404 15.4827 20.553 15.4607C20.0559 14.7137 19.353 14.148 18.5351 13.788C18.5449 13.6337 18.5547 13.4795 18.5669 13.3252C18.9465 12.539 19.2575 11.7211 19.5636 10.9007ZM0.0917969 17.7848C1.00527 17.7848 1.92119 17.7872 2.83711 17.7774C2.79548 19.7219 3.52281 21.5513 3.95873 23.415C3.10893 23.748 2.26404 24.0958 1.44853 24.5048C0.877914 23.1995 0.530162 21.8158 0.197101 20.437C0.130979 19.5529 0.104042 18.6688 0.0917969 17.7848ZM26.1612 23.3195C26.8567 22.2395 27.2192 20.9929 27.6134 19.7807C28.5294 19.7831 29.4453 19.7807 30.3612 19.788C29.9032 24.0321 27.0036 27.7888 23.3032 29.8044C22.2771 30.3088 21.1971 30.6884 20.1 31.0093C19.0689 31.1856 18.0428 31.4011 16.9922 31.3913C16.98 30.4019 16.9824 29.4125 17.0044 28.4231C17.7906 28.4427 18.584 28.4305 19.3481 28.2174C19.4804 28.1905 19.7449 28.1391 19.8771 28.1121C22.4632 27.3358 24.7432 25.6239 26.1612 23.3195ZM13.811 20.7431C14.7538 21.2697 15.7016 21.9064 16.833 21.8648C16.8624 22.8517 16.86 23.8411 16.8551 24.8305C15.944 24.806 15.0257 24.7448 14.1636 24.4288C13.4118 23.9342 12.2608 23.6427 12.011 22.6803C12.5669 21.9946 13.2306 21.4068 13.811 20.7431ZM45.0256 11.8387C46.7154 11.3562 48.6452 11.2705 50.2272 12.135C50.7856 12.4264 51.2876 12.8109 51.8019 13.1685C51.2876 13.8248 50.7586 14.4713 50.1978 15.0934C49.5856 14.6501 48.9807 14.1481 48.2337 13.9644C47.499 13.8738 46.757 13.9326 46.0223 13.9546C45.1382 14.4371 44.5113 15.2158 44.0313 16.0803C43.9039 16.9693 43.9039 17.8705 44.0337 18.7571C44.4868 19.5971 45.0672 20.3734 45.9366 20.8167C46.0786 20.8509 46.3652 20.922 46.5096 20.9562C46.9945 21.0787 47.499 21.0665 47.9962 21.0224C48.7456 20.7358 49.4656 20.3685 50.0925 19.8616C50.1807 19.8665 50.3594 19.8787 50.4476 19.886C50.8199 20.3954 51.5252 20.7775 51.6452 21.4093C51.0182 22.335 49.9749 22.886 48.9219 23.1824C46.9945 23.5375 44.7807 23.3685 43.2917 21.953C41.3766 20.3807 40.7766 17.6109 41.5848 15.3113C42.219 13.7465 43.468 12.4901 45.0256 11.8387ZM62.3669 11.726C63.0943 11.726 63.8191 11.726 64.5465 11.7235C64.6567 11.7921 64.8747 11.9292 64.9849 11.9978C64.9898 15.7374 64.9653 19.477 64.9947 23.2166C64.1277 23.3954 63.2387 23.4052 62.3571 23.3758C62.3375 21.8256 62.3522 20.2754 62.3449 18.7252C60.8093 18.735 59.2738 18.7129 57.7383 18.7423C57.7432 20.2484 57.7408 21.757 57.7383 23.2631C56.891 23.2656 56.0436 23.2656 55.1963 23.2558C55.2012 19.4599 55.2012 15.6639 55.1938 11.868C56.0436 11.8631 56.8934 11.8607 57.7432 11.8631C57.7383 13.3546 57.7408 14.846 57.7408 16.3374C59.2738 16.3619 60.8069 16.3423 62.3424 16.3521C62.3571 14.8092 62.3277 13.2664 62.3669 11.726ZM81.6867 11.726C84.5569 11.7382 87.4295 11.7431 90.2997 11.7235C90.4442 12.4999 90.4638 13.2958 90.3438 14.0795C88.2646 14.0599 86.183 14.0746 84.1014 14.0697C84.1014 14.8901 84.1038 15.7129 84.1161 16.5358C85.9846 16.5456 87.8556 16.4941 89.7267 16.5725C89.7193 17.3097 89.7218 18.0492 89.7267 18.7864C87.8581 18.8795 85.9871 18.8158 84.1161 18.8305C84.0622 20.3488 84.1969 21.877 84.0034 23.3905C83.2246 23.3831 82.4458 23.3831 81.6695 23.3856C81.6499 19.499 81.6132 15.6101 81.6867 11.726ZM69.153 11.7235C72.0845 11.7284 75.0183 11.7211 77.9498 11.7284C77.9449 12.4607 77.9449 13.1929 77.94 13.9252C75.8877 13.9252 73.8355 13.9227 71.7857 13.9252C71.7906 14.7382 71.7906 15.5537 71.8028 16.3668C73.6273 16.3619 75.4493 16.3668 77.2738 16.3619C77.2714 17.1186 77.269 17.8754 77.2567 18.6321C75.4371 18.6199 73.6151 18.6297 71.7955 18.6248C71.7906 19.4525 71.7906 20.2803 71.7881 21.1105C73.9138 21.1178 76.0396 21.0982 78.1628 21.1227C78.1628 21.8403 78.1628 22.5603 78.1677 23.2803C75.1628 23.3195 72.1579 23.2876 69.153 23.2974C69.153 19.4403 69.1555 15.5831 69.153 11.7235Z" fill="white"/>
</g>
<defs>
<filter id="filter0_dddddd" x="-2.9082" y="-2.29688" width="102.331" height="45.8618" filterUnits="userSpaceOnUse" color-interpolation-filters="sRGB">
<feFlood flood-opacity="0" result="BackgroundImageFix"/>
<feColorMatrix in="SourceAlpha" type="matrix" values="0 0 0 0 0 0 0 0 0 0 0 0 0 0 0 0 0 0 127 0"/>
<feOffset dx="1" dy="1"/>
<feGaussianBlur stdDeviation="2"/>
<feColorMatrix type="matrix" values="0 0 0 0 0 0 0 0 0 0 0 0 0 0 0 0 0 0 1 0"/>
<feBlend mode="normal" in2="BackgroundImageFix" result="effect1_dropShadow"/>
<feColorMatrix in="SourceAlpha" type="matrix" values="0 0 0 0 0 0 0 0 0 0 0 0 0 0 0 0 0 0 127 0"/>
<feOffset dx="2" dy="2"/>
<feGaussianBlur stdDeviation="2"/>
<feColorMatrix type="matrix" values="0 0 0 0 0 0 0 0 0 0 0 0 0 0 0 0 0 0 1 0"/>
<feBlend mode="normal" in2="effect1_dropShadow" result="effect2_dropShadow"/>
<feColorMatrix in="SourceAlpha" type="matrix" values="0 0 0 0 0 0 0 0 0 0 0 0 0 0 0 0 0 0 127 0"/>
<feOffset dx="3" dy="3"/>
<feGaussianBlur stdDeviation="2"/>
<feColorMatrix type="matrix" values="0 0 0 0 0 0 0 0 0 0 0 0 0 0 0 0 0 0 1 0"/>
<feBlend mode="normal" in2="effect2_dropShadow" result="effect3_dropShadow"/>
<feColorMatrix in="SourceAlpha" type="matrix" values="0 0 0 0 0 0 0 0 0 0 0 0 0 0 0 0 0 0 127 0"/>
<feOffset dx="4" dy="4"/>
<feGaussianBlur stdDeviation="2"/>
<feColorMatrix type="matrix" values="0 0 0 0 0 0 0 0 0 0 0 0 0 0 0 0 0 0 1 0"/>
<feBlend mode="normal" in2="effect3_dropShadow" result="effect4_dropShadow"/>
<feColorMatrix in="SourceAlpha" type="matrix" values="0 0 0 0 0 0 0 0 0 0 0 0 0 0 0 0 0 0 127 0"/>
<feOffset dx="2" dy="2"/>
<feGaussianBlur stdDeviation="0.5"/>
<feColorMatrix type="matrix" values="0 0 0 0 0 0 0 0 0 0 0 0 0 0 0 0 0 0 1 0"/>
<feBlend mode="normal" in2="effect4_dropShadow" result="effect5_dropShadow"/>
<feColorMatrix in="SourceAlpha" type="matrix" values="0 0 0 0 0 0 0 0 0 0 0 0 0 0 0 0 0 0 127 0"/>
<feOffset dx="5" dy="5"/>
<feGaussianBlur stdDeviation="2"/>
<feColorMatrix type="matrix" values="0 0 0 0 0 0 0 0 0 0 0 0 0 0 0 0 0 0 1 0"/>
<feBlend mode="normal" in2="effect5_dropShadow" result="effect6_dropShadow"/>
<feBlend mode="normal" in="SourceGraphic" in2="effect6_dropShadow" result="shape"/>
</filter>
<clipPath id="clip0">
<rect width="95.0204" height="39.1837" fill="white" transform="translate(0.0917969 0.703125)"/>
</clipPath>
</defs>
</svg>
