<?xml version="1.0" encoding="UTF-8"?>
<svg width="119px" height="39px" viewBox="0 0 119 39" version="1.1" xmlns="http://www.w3.org/2000/svg" xmlns:xlink="http://www.w3.org/1999/xlink">
    <!-- Generator: Sketch 52.1 (67048) - http://www.bohemiancoding.com/sketch -->
    <title>CoreOS</title>
    <desc>Created with Sketch.</desc>
    <defs>
        <path d="M16.8188049,0.0819420732 C26.0317683,0.0819420732 33.5283018,7.57832012 33.5283018,16.7926829 C33.5283018,26.0076677 26.0317683,33.5035793 16.8188049,33.5035793 C7.60304268,33.5035793 0.107131098,26.0076677 0.107131098,16.7926829 C0.107131098,7.57832012 7.60304268,0.0819420732 16.8188049,0.0819420732 Z M49.3433689,8.12511747 C51.2880745,8.12511747 52.8690266,9.09600372 53.8650991,10.1912166 L52.3099527,11.9827216 C51.4827768,11.1614701 50.5831284,10.6390137 49.3676294,10.6390137 C46.7655717,10.6390137 44.8936477,12.8787904 44.8936477,16.5375669 C44.8936477,20.2464852 46.6195449,22.4862619 49.2698147,22.4862619 C50.680325,22.4862619 51.7260002,21.8891463 52.6256487,20.8684345 L54.1812586,22.6351058 C52.8932871,24.1532822 51.2393989,24.9998418 49.2211391,24.9998418 C45.1850831,24.9998418 42,22.0134729 42,16.6125425 C42.0001545,11.2859549 45.2581738,8.12511747 49.3433689,8.12511747 Z M60.480034,12.1820237 C63.4704148,12.1820237 66.1699782,14.521926 66.1699782,18.6035078 C66.1699782,22.6602559 63.4702602,25 60.480034,25 C57.5136047,25 54.8151229,22.6602559 54.8151229,18.6035078 C54.8151229,14.521926 57.5136047,12.1820237 60.480034,12.1820237 Z M60.480034,22.6602559 C62.2308098,22.6602559 63.3001275,21.0424285 63.3001275,18.6035078 C63.3001275,16.1395953 62.2308098,14.521926 60.480034,14.521926 C58.7292581,14.521926 57.6840465,16.1395953 57.6840465,18.6035078 C57.6840465,21.0424285 58.7292581,22.6602559 60.480034,22.6602559 Z M67.095278,12.4806606 L69.404355,12.4806606 L69.5990574,14.6457781 L69.696254,14.6457781 C70.5470724,13.0529425 71.811865,12.1818656 73.075885,12.1818656 C73.6844071,12.1818656 74.0733482,12.2565248 74.4374107,12.4308351 L73.9509639,14.9195813 C73.5383803,14.7955711 73.2220663,14.7207537 72.711977,14.7207537 C71.7633439,14.7207537 70.619854,15.3922121 69.8909564,17.2346499 L69.8909564,24.7010468 L67.095278,24.7010468 L67.095278,12.4806606 Z M79.6659413,12.1820237 C82.8998545,12.1820237 84.6016457,14.5715934 84.6016457,17.9818749 C84.6016457,18.5288486 84.5531246,19.0264713 84.480034,19.3255827 L76.8943688,19.3255827 C77.1369741,21.5405257 78.4981908,22.7847406 80.4192539,22.7847406 C81.4411322,22.7847406 82.3157475,22.4619028 83.191599,21.8891463 L84.1396139,23.6806513 C82.9968966,24.4522354 81.5627439,25 80.0551914,25 C76.747724,25 74.1708539,22.635264 74.1708539,18.6035078 C74.1710084,14.6209444 76.8693357,12.1820237 79.6659413,12.1820237 Z M82.1700297,17.5086113 C82.1700297,15.5666806 81.368196,14.3971249 79.7390319,14.3971249 C78.3289852,14.3971249 77.1127136,15.4676622 76.8694902,17.5086113 L82.1700297,17.5086113 Z M88.8572827,16.4379158 C88.8572827,11.260963 91.6055217,8.00015818 95.4708268,8.00015818 C99.3127986,8.00015818 102.059956,11.260963 102.059956,16.4379158 C102.059956,21.6401768 99.3129531,25 95.4708268,25 C91.6055217,25 88.8572827,21.6401768 88.8572827,16.4379158 Z M100.892978,16.4379158 C100.892978,11.9079042 98.7052037,9.04617818 95.4706723,9.04617818 C92.2126531,9.04617818 90.0239515,11.9080623 90.0239515,16.4379158 C90.0239515,20.9927611 92.2126531,23.9546127 95.4706723,23.9546127 C98.7052037,23.9546127 100.892978,20.9927611 100.892978,16.4379158 Z M104.17634,21.7396697 C105.34409,23.0833775 107.021466,23.9546127 108.893854,23.9546127 C111.324852,23.9546127 112.881698,22.6102722 112.881698,20.6697651 C112.881698,18.6286578 111.569157,17.9564085 109.988514,17.2346499 L107.556898,16.1144452 C106.170957,15.4918632 104.322057,14.4717841 104.322057,12.0322308 C104.322057,9.6679693 106.316057,8 108.966944,8 C110.912114,8 112.468187,8.89606885 113.440308,9.96692254 L112.784501,10.7385066 C111.860129,9.71795301 110.571693,9.04602 108.966944,9.04602 C106.851333,9.04602 105.441287,10.1910584 105.441287,11.9825634 C105.441287,13.8746685 107.046036,14.5957944 108.212859,15.1437171 L110.644784,16.2384555 C112.419666,17.0601814 114,18.0807351 114,20.5944731 C114,23.1082112 111.98174,24.9998418 108.869593,24.9998418 C106.535174,24.9998418 104.736032,23.9794464 103.471702,22.5360875 L104.17634,21.7396697 Z" id="path-1"></path>
        <filter x="-2.2%" y="-7.5%" width="108.8%" height="129.9%" filterUnits="objectBoundingBox" id="filter-2">
            <feOffset dx="1" dy="1" in="SourceAlpha" result="shadowOffsetOuter1"></feOffset>
            <feColorMatrix values="0 0 0 0 0   0 0 0 0 0   0 0 0 0 0  0 0 0 1 0" type="matrix" in="shadowOffsetOuter1" result="shadowMatrixOuter1"></feColorMatrix>
            <feOffset dx="2" dy="2" in="SourceAlpha" result="shadowOffsetOuter2"></feOffset>
            <feColorMatrix values="0 0 0 0 0   0 0 0 0 0   0 0 0 0 0  0 0 0 1 0" type="matrix" in="shadowOffsetOuter2" result="shadowMatrixOuter2"></feColorMatrix>
            <feOffset dx="3" dy="3" in="SourceAlpha" result="shadowOffsetOuter3"></feOffset>
            <feColorMatrix values="0 0 0 0 0   0 0 0 0 0   0 0 0 0 0  0 0 0 1 0" type="matrix" in="shadowOffsetOuter3" result="shadowMatrixOuter3"></feColorMatrix>
            <feOffset dx="4" dy="4" in="SourceAlpha" result="shadowOffsetOuter4"></feOffset>
            <feColorMatrix values="0 0 0 0 0   0 0 0 0 0   0 0 0 0 0  0 0 0 1 0" type="matrix" in="shadowOffsetOuter4" result="shadowMatrixOuter4"></feColorMatrix>
            <feOffset dx="2" dy="2" in="SourceAlpha" result="shadowOffsetOuter5"></feOffset>
            <feGaussianBlur stdDeviation="0.5" in="shadowOffsetOuter5" result="shadowBlurOuter5"></feGaussianBlur>
            <feColorMatrix values="0 0 0 0 0   0 0 0 0 0   0 0 0 0 0  0 0 0 1 0" type="matrix" in="shadowBlurOuter5" result="shadowMatrixOuter5"></feColorMatrix>
            <feOffset dx="5" dy="5" in="SourceAlpha" result="shadowOffsetOuter6"></feOffset>
            <feColorMatrix values="0 0 0 0 0   0 0 0 0 0   0 0 0 0 0  0 0 0 1 0" type="matrix" in="shadowOffsetOuter6" result="shadowMatrixOuter6"></feColorMatrix>
            <feMerge>
                <feMergeNode in="shadowMatrixOuter1"></feMergeNode>
                <feMergeNode in="shadowMatrixOuter2"></feMergeNode>
                <feMergeNode in="shadowMatrixOuter3"></feMergeNode>
                <feMergeNode in="shadowMatrixOuter4"></feMergeNode>
                <feMergeNode in="shadowMatrixOuter5"></feMergeNode>
                <feMergeNode in="shadowMatrixOuter6"></feMergeNode>
            </feMerge>
        </filter>
    </defs>
    <g id="Decktop-UI" stroke="none" stroke-width="1" fill="none" fill-rule="evenodd">
        <g id="Main-Page_v.8" transform="translate(-432.000000, -690.000000)">
            <g id="Hero" transform="translate(80.000000, 1.000000)">
                <g id="Logo-1" transform="translate(0.000000, 688.000000)">
                    <g id="logos" transform="translate(352.000000, 0.000000)">
                        <g id="CoreOS" transform="translate(0.000000, 1.000000)">
                            <g id="Combined-Shape">
                                <use fill="black" fill-opacity="1" filter="url(#filter-2)" xlink:href="#path-1"></use>
                                <use fill="#FFFFFF" fill-rule="evenodd" xlink:href="#path-1"></use>
                            </g>
                            <g id="Group" transform="translate(10.000000, 1.000000)">
                                <path d="M6.81880488,0.615362805 C4.13150915,0.615362805 1.8523689,4.91382317 1.02921646,10.8882866 C1.00293902,11.0804695 0.977439024,11.2749848 0.954893293,11.4707439 C0.84247561,12.4109787 0.766286585,13.388686 0.728192073,14.3951585 C0.71,14.8557134 0.700981707,15.3212439 0.700981707,15.7926829 C0.700981707,16.2636555 0.71,16.7301189 0.728192073,17.1897409 C0.766286585,18.1960579 0.84247561,19.1743872 0.954893293,20.114622 C2.21496646,20.2777287 3.56226829,20.388436 4.96756707,20.4409909 C5.57505793,20.4636921 6.19156707,20.4772195 6.81896037,20.4772195 C7.4444878,20.4772195 8.0628628,20.4635366 8.6684878,20.4409909 C10.075497,20.388436 11.4218659,20.2777287 12.6830274,20.114622 C12.8217226,20.0968963 12.9582409,20.0774604 13.0964695,20.0574024 C18.3448049,19.3203902 21.995814,17.6890122 21.995814,15.7926829 C21.9956585,7.41002439 15.200064,0.615362805 6.81880488,0.615362805 Z" id="Path" fill="#383838"></path>
                                <path d="M13.096314,11.527497 C12.9440915,11.3054604 12.7808293,11.092753 12.6068384,10.8884421 C11.2142896,9.24695732 9.13992683,8.20394512 6.81896037,8.20394512 C6.06655488,8.20394512 5.39655793,9.35564329 4.96756707,11.144064 C4.79715244,11.8571311 4.66483232,12.6707988 4.579625,13.553814 C4.51245427,14.261439 4.47622561,15.014 4.47622561,15.7926829 C4.47622561,16.5713659 4.51245427,17.3240823 4.579625,18.0310854 C5.28771646,18.0982561 6.03918902,18.1343293 6.81896037,18.1343293 C7.59779878,18.1343293 8.34927134,18.0982561 9.0573628,18.0310854 C10.6139512,17.883372 11.9576768,17.5840579 12.9095732,17.1897409 C13.8496524,16.8008659 14.4059878,16.3166768 14.4059878,15.7926829 C14.4058323,14.2116829 13.9230427,12.7432561 13.096314,11.527497 Z" id="Path" fill="#FFFFFF"></path>
                            </g>
                            <g id="OS" transform="translate(88.000000, 8.000000)" fill="#FFFFFF">
                                <path d="M0.857282666,8.43791579 C0.857282666,3.26096301 3.60552172,0.00015817632 7.47082684,0.00015817632 C11.3127986,0.00015817632 14.059956,3.26096301 14.059956,8.43791579 C14.059956,13.6401768 11.3129531,17 7.47082684,17 C3.60552172,17 0.857282666,13.6401768 0.857282666,8.43791579 Z M12.8929781,8.43791579 C12.8929781,3.90790416 10.7052037,1.04617818 7.47067232,1.04617818 C4.21265308,1.04617818 2.02395148,3.90806234 2.02395148,8.43791579 C2.02395148,12.9927611 4.21265308,15.9546127 7.47067232,15.9546127 C10.7052037,15.9546127 12.8929781,12.9927611 12.8929781,8.43791579 Z" id="Shape" fill-rule="nonzero"></path>
                                <path d="M16.1763395,13.7396697 C17.34409,15.0833775 19.0214662,15.9546127 20.8938537,15.9546127 C23.3248516,15.9546127 24.8816977,14.6102722 24.8816977,12.6697651 C24.8816977,10.6286578 23.5691567,9.95640847 21.9885136,9.23464992 L19.5568976,8.11444522 C18.1709569,7.49186322 16.3220573,6.47178414 16.3220573,4.03223075 C16.3220573,1.6679693 18.3160565,-4.26325641e-14 20.9669444,-4.26325641e-14 C22.9121135,-4.26325641e-14 24.468187,0.896068853 25.440308,1.96692254 L24.7845011,2.73850663 C23.8601285,1.71795301 22.5716935,1.04602 20.9669444,1.04602 C18.8513334,1.04602 17.4412867,2.19105839 17.4412867,3.98256339 C17.4412867,5.87466853 19.0460358,6.59579437 20.2128591,7.14371714 L22.6447841,8.23845545 C24.419666,9.06018144 26,10.0807351 26,12.5944731 C26,15.1082112 23.9817402,16.9998418 20.8695932,16.9998418 C18.5351739,16.9998418 16.7360315,15.9794464 15.4717025,14.5360875 L16.1763395,13.7396697 Z" id="Path"></path>
                            </g>
                            <g id="OS" transform="translate(88.000000, 8.000000)" fill="#FFFFFF">
                                <path d="M0.857282666,8.43791579 C0.857282666,3.26096301 3.60552172,0.00015817632 7.47082684,0.00015817632 C11.3127986,0.00015817632 14.059956,3.26096301 14.059956,8.43791579 C14.059956,13.6401768 11.3129531,17 7.47082684,17 C3.60552172,17 0.857282666,13.6401768 0.857282666,8.43791579 Z M12.8929781,8.43791579 C12.8929781,3.90790416 10.7052037,1.04617818 7.47067232,1.04617818 C4.21265308,1.04617818 2.02395148,3.90806234 2.02395148,8.43791579 C2.02395148,12.9927611 4.21265308,15.9546127 7.47067232,15.9546127 C10.7052037,15.9546127 12.8929781,12.9927611 12.8929781,8.43791579 Z" id="Shape" fill-rule="nonzero"></path>
                                <path d="M16.1763395,13.7396697 C17.34409,15.0833775 19.0214662,15.9546127 20.8938537,15.9546127 C23.3248516,15.9546127 24.8816977,14.6102722 24.8816977,12.6697651 C24.8816977,10.6286578 23.5691567,9.95640847 21.9885136,9.23464992 L19.5568976,8.11444522 C18.1709569,7.49186322 16.3220573,6.47178414 16.3220573,4.03223075 C16.3220573,1.6679693 18.3160565,-4.26325641e-14 20.9669444,-4.26325641e-14 C22.9121135,-4.26325641e-14 24.468187,0.896068853 25.440308,1.96692254 L24.7845011,2.73850663 C23.8601285,1.71795301 22.5716935,1.04602 20.9669444,1.04602 C18.8513334,1.04602 17.4412867,2.19105839 17.4412867,3.98256339 C17.4412867,5.87466853 19.0460358,6.59579437 20.2128591,7.14371714 L22.6447841,8.23845545 C24.419666,9.06018144 26,10.0807351 26,12.5944731 C26,15.1082112 23.9817402,16.9998418 20.8695932,16.9998418 C18.5351739,16.9998418 16.7360315,15.9794464 15.4717025,14.5360875 L16.1763395,13.7396697 Z" id="Path"></path>
                            </g>
                        </g>
                    </g>
                </g>
            </g>
        </g>
    </g>
</svg>