<svg width="120" height="42" viewBox="0 0 120 42" fill="none" xmlns="http://www.w3.org/2000/svg">
<g opacity="0.5">
<g filter="url(#filter0_d)">
<path d="M18.4859 2.7832C27.5108 2.7832 34.8543 10.1266 34.8543 19.1529C34.8543 28.1798 27.5108 35.5228 18.4859 35.5228C9.45817 35.5228 2.11523 28.1798 2.11523 19.1529C2.11523 10.1266 9.45817 2.7832 18.4859 2.7832ZM50.3466 10.6622C52.2517 10.6622 53.8004 11.6133 54.7761 12.6862L53.2527 14.4411C52.4424 13.6366 51.5611 13.1248 50.3704 13.1248C47.8215 13.1248 45.9877 15.3189 45.9877 18.903C45.9877 22.5362 47.6784 24.7303 50.2746 24.7303C51.6563 24.7303 52.6807 24.1454 53.5619 23.1455L55.0858 24.8761C53.8241 26.3633 52.204 27.1926 50.2269 27.1926C46.2732 27.1926 43.1531 24.2672 43.1531 18.9764C43.1533 13.7586 46.3448 10.6622 50.3466 10.6622ZM61.256 14.6363C64.1854 14.6363 66.8299 16.9285 66.8299 20.9268C66.8299 24.9007 64.1852 27.1927 61.256 27.1927C58.3501 27.1927 55.7067 24.9007 55.7067 20.9268C55.7067 16.9285 58.3501 14.6363 61.256 14.6363ZM61.256 24.9007C62.9711 24.9007 64.0186 23.3159 64.0186 20.9268C64.0186 18.5131 62.9711 16.9285 61.256 16.9285C59.541 16.9285 58.5171 18.5131 58.5171 20.9268C58.5171 23.3159 59.541 24.9007 61.256 24.9007ZM67.7363 14.9289H69.9982L70.189 17.0498H70.2842C71.1176 15.4895 72.3566 14.6362 73.5948 14.6362C74.1909 14.6362 74.5719 14.7093 74.9286 14.8801L74.452 17.318C74.0479 17.1966 73.738 17.1233 73.2383 17.1233C72.3091 17.1233 71.1889 17.781 70.4749 19.5859V26.8999H67.7363V14.9289ZM80.0504 14.6363C83.2183 14.6363 84.8854 16.9771 84.8854 20.3178C84.8854 20.8536 84.8378 21.3411 84.7662 21.6341H77.3354C77.573 23.8039 78.9065 25.0227 80.7883 25.0227C81.7894 25.0227 82.6461 24.7064 83.5041 24.1454L84.4328 25.9003C83.3134 26.6561 81.9085 27.1927 80.4317 27.1927C77.1917 27.1927 74.6674 24.8763 74.6674 20.9268C74.6676 17.0255 77.3109 14.6363 80.0504 14.6363ZM82.5034 19.8542C82.5034 17.9519 81.7179 16.8062 80.122 16.8062C78.7407 16.8062 77.5493 17.8549 77.311 19.8542H82.5034ZM89.0542 18.8054C89.0542 13.7341 91.7463 10.5398 95.5327 10.5398C99.2963 10.5398 101.987 13.7341 101.987 18.8054C101.987 23.9015 99.2964 27.1927 95.5327 27.1927C91.7463 27.1927 89.0542 23.9015 89.0542 18.8054ZM100.844 18.8054C100.844 14.3678 98.7011 11.5645 95.5326 11.5645C92.341 11.5645 90.197 14.368 90.197 18.8054C90.197 23.2673 92.341 26.1687 95.5326 26.1687C98.7011 26.1687 100.844 23.2673 100.844 18.8054ZM104.061 23.9989C105.204 25.3152 106.848 26.1687 108.682 26.1687C111.063 26.1687 112.588 24.8518 112.588 22.9509C112.588 20.9514 111.303 20.2929 109.754 19.5859L107.372 18.4885C106.014 17.8786 104.203 16.8794 104.203 14.4896C104.203 12.1736 106.157 10.5397 108.753 10.5397C110.659 10.5397 112.183 11.4174 113.135 12.4664L112.493 13.2223C111.588 12.2226 110.325 11.5643 108.753 11.5643C106.681 11.5643 105.3 12.686 105.3 14.441C105.3 16.2944 106.872 17.0009 108.015 17.5376L110.397 18.61C112.136 19.4149 113.684 20.4147 113.684 22.8771C113.684 25.3395 111.707 27.1926 108.658 27.1926C106.371 27.1926 104.609 26.193 103.37 24.7791L104.061 23.9989Z" fill="black"/>
</g>
<path d="M18.4859 2.7832C27.5108 2.7832 34.8543 10.1266 34.8543 19.1529C34.8543 28.1798 27.5108 35.5228 18.4859 35.5228C9.45817 35.5228 2.11523 28.1798 2.11523 19.1529C2.11523 10.1266 9.45817 2.7832 18.4859 2.7832ZM50.3466 10.6622C52.2517 10.6622 53.8004 11.6133 54.7761 12.6862L53.2527 14.4411C52.4424 13.6366 51.5611 13.1248 50.3704 13.1248C47.8215 13.1248 45.9877 15.3189 45.9877 18.903C45.9877 22.5362 47.6784 24.7303 50.2746 24.7303C51.6563 24.7303 52.6807 24.1454 53.5619 23.1455L55.0858 24.8761C53.8241 26.3633 52.204 27.1926 50.2269 27.1926C46.2732 27.1926 43.1531 24.2672 43.1531 18.9764C43.1533 13.7586 46.3448 10.6622 50.3466 10.6622ZM61.256 14.6363C64.1854 14.6363 66.8299 16.9285 66.8299 20.9268C66.8299 24.9007 64.1852 27.1927 61.256 27.1927C58.3501 27.1927 55.7067 24.9007 55.7067 20.9268C55.7067 16.9285 58.3501 14.6363 61.256 14.6363ZM61.256 24.9007C62.9711 24.9007 64.0186 23.3159 64.0186 20.9268C64.0186 18.5131 62.9711 16.9285 61.256 16.9285C59.541 16.9285 58.5171 18.5131 58.5171 20.9268C58.5171 23.3159 59.541 24.9007 61.256 24.9007ZM67.7363 14.9289H69.9982L70.189 17.0498H70.2842C71.1176 15.4895 72.3566 14.6362 73.5948 14.6362C74.1909 14.6362 74.5719 14.7093 74.9286 14.8801L74.452 17.318C74.0479 17.1966 73.738 17.1233 73.2383 17.1233C72.3091 17.1233 71.1889 17.781 70.4749 19.5859V26.8999H67.7363V14.9289ZM80.0504 14.6363C83.2183 14.6363 84.8854 16.9771 84.8854 20.3178C84.8854 20.8536 84.8378 21.3411 84.7662 21.6341H77.3354C77.573 23.8039 78.9065 25.0227 80.7883 25.0227C81.7894 25.0227 82.6461 24.7064 83.5041 24.1454L84.4328 25.9003C83.3134 26.6561 81.9085 27.1927 80.4317 27.1927C77.1917 27.1927 74.6674 24.8763 74.6674 20.9268C74.6676 17.0255 77.3109 14.6363 80.0504 14.6363ZM82.5034 19.8542C82.5034 17.9519 81.7179 16.8062 80.122 16.8062C78.7407 16.8062 77.5493 17.8549 77.311 19.8542H82.5034ZM89.0542 18.8054C89.0542 13.7341 91.7463 10.5398 95.5327 10.5398C99.2963 10.5398 101.987 13.7341 101.987 18.8054C101.987 23.9015 99.2964 27.1927 95.5327 27.1927C91.7463 27.1927 89.0542 23.9015 89.0542 18.8054ZM100.844 18.8054C100.844 14.3678 98.7011 11.5645 95.5326 11.5645C92.341 11.5645 90.197 14.368 90.197 18.8054C90.197 23.2673 92.341 26.1687 95.5326 26.1687C98.7011 26.1687 100.844 23.2673 100.844 18.8054ZM104.061 23.9989C105.204 25.3152 106.848 26.1687 108.682 26.1687C111.063 26.1687 112.588 24.8518 112.588 22.9509C112.588 20.9514 111.303 20.2929 109.754 19.5859L107.372 18.4885C106.014 17.8786 104.203 16.8794 104.203 14.4896C104.203 12.1736 106.157 10.5397 108.753 10.5397C110.659 10.5397 112.183 11.4174 113.135 12.4664L112.493 13.2223C111.588 12.2226 110.325 11.5643 108.753 11.5643C106.681 11.5643 105.3 12.686 105.3 14.441C105.3 16.2944 106.872 17.0009 108.015 17.5376L110.397 18.61C112.136 19.4149 113.684 20.4147 113.684 22.8771C113.684 25.3395 111.707 27.1926 108.658 27.1926C106.371 27.1926 104.609 26.193 103.37 24.7791L104.061 23.9989Z" fill="white"/>
<path fill-rule="evenodd" clip-rule="evenodd" d="M18.4861 4.28564C15.8537 4.28564 13.6211 8.49638 12.8147 14.3489C12.789 14.5372 12.764 14.7277 12.7419 14.9195C12.6318 15.8405 12.5571 16.7983 12.5198 17.7842C12.502 18.2354 12.4932 18.6914 12.4932 19.1532C12.4932 19.6146 12.502 20.0715 12.5198 20.5218C12.5571 21.5076 12.6318 22.4659 12.7419 23.387C13.9763 23.5467 15.2961 23.6552 16.6727 23.7067C17.2678 23.7289 17.8717 23.7422 18.4863 23.7422C19.099 23.7422 19.7048 23.7288 20.2981 23.7067C21.6764 23.6552 22.9953 23.5467 24.2307 23.387C24.3665 23.3696 24.5003 23.3506 24.6357 23.3309C29.7769 22.6089 33.3534 21.0109 33.3534 19.1532C33.3533 10.9416 26.6963 4.28564 18.4861 4.28564Z" fill="black"/>
<path fill-rule="evenodd" clip-rule="evenodd" d="M24.6356 14.9755C24.4865 14.7579 24.3265 14.5496 24.1561 14.3494C22.792 12.7415 20.7599 11.7197 18.4863 11.7197C17.7493 11.7197 17.093 12.8479 16.6727 14.5998C16.5058 15.2984 16.3762 16.0954 16.2927 16.9604C16.2269 17.6536 16.1914 18.3908 16.1914 19.1536C16.1914 19.9164 16.2269 20.6537 16.2927 21.3463C16.9863 21.4121 17.7225 21.4474 18.4863 21.4474C19.2493 21.4474 19.9854 21.4121 20.6791 21.3463C22.2039 21.2016 23.5202 20.9084 24.4526 20.5221C25.3735 20.1412 25.9185 19.6669 25.9185 19.1536C25.9184 17.6049 25.4454 16.1664 24.6356 14.9755Z" fill="white"/>
<path d="M89.0547 18.8051C89.0547 13.7338 91.7468 10.5396 95.5333 10.5396C99.2968 10.5396 101.988 13.7338 101.988 18.8051C101.988 23.9012 99.297 27.1925 95.5333 27.1925C91.7468 27.1925 89.0547 23.9012 89.0547 18.8051ZM100.845 18.8051C100.845 14.3675 98.7016 11.5642 95.5331 11.5642C92.3416 11.5642 90.1975 14.3677 90.1975 18.8051C90.1975 23.267 92.3416 26.1684 95.5331 26.1684C98.7016 26.1684 100.845 23.267 100.845 18.8051Z" fill="white"/>
<path fill-rule="evenodd" clip-rule="evenodd" d="M104.06 23.9988C105.204 25.3151 106.847 26.1686 108.682 26.1686C111.063 26.1686 112.588 24.8517 112.588 22.9507C112.588 20.9513 111.302 20.2928 109.754 19.5857L107.372 18.4884C106.014 17.8785 104.203 16.8793 104.203 14.4895C104.203 12.1735 106.156 10.5396 108.753 10.5396C110.659 10.5396 112.183 11.4173 113.135 12.4663L112.493 13.2222C111.587 12.2224 110.325 11.5642 108.753 11.5642C106.681 11.5642 105.3 12.6859 105.3 14.4408C105.3 16.2943 106.872 17.0007 108.015 17.5375L110.397 18.6099C112.135 19.4148 113.684 20.4146 113.684 22.877C113.684 25.3394 111.706 27.1925 108.658 27.1925C106.371 27.1925 104.609 26.1929 103.37 24.779L104.06 23.9988Z" fill="white"/>
<path d="M89.0547 18.8051C89.0547 13.7338 91.7468 10.5396 95.5333 10.5396C99.2968 10.5396 101.988 13.7338 101.988 18.8051C101.988 23.9012 99.297 27.1925 95.5333 27.1925C91.7468 27.1925 89.0547 23.9012 89.0547 18.8051ZM100.845 18.8051C100.845 14.3675 98.7016 11.5642 95.5331 11.5642C92.3416 11.5642 90.1975 14.3677 90.1975 18.8051C90.1975 23.267 92.3416 26.1684 95.5331 26.1684C98.7016 26.1684 100.845 23.267 100.845 18.8051Z" fill="white"/>
<path fill-rule="evenodd" clip-rule="evenodd" d="M104.06 23.9988C105.204 25.3151 106.847 26.1686 108.682 26.1686C111.063 26.1686 112.588 24.8517 112.588 22.9507C112.588 20.9513 111.302 20.2928 109.754 19.5857L107.372 18.4884C106.014 17.8785 104.203 16.8793 104.203 14.4895C104.203 12.1735 106.156 10.5396 108.753 10.5396C110.659 10.5396 112.183 11.4173 113.135 12.4663L112.493 13.2222C111.587 12.2224 110.325 11.5642 108.753 11.5642C106.681 11.5642 105.3 12.6859 105.3 14.4408C105.3 16.2943 106.872 17.0007 108.015 17.5375L110.397 18.6099C112.135 19.4148 113.684 20.4146 113.684 22.877C113.684 25.3394 111.706 27.1925 108.658 27.1925C106.371 27.1925 104.609 26.1929 103.37 24.779L104.06 23.9988Z" fill="white"/>
</g>
<defs>
<filter id="filter0_d" x="0.115234" y="0.783203" width="119.569" height="40.7396" filterUnits="userSpaceOnUse" color-interpolation-filters="sRGB">
<feFlood flood-opacity="0" result="BackgroundImageFix"/>
<feColorMatrix in="SourceAlpha" type="matrix" values="0 0 0 0 0 0 0 0 0 0 0 0 0 0 0 0 0 0 127 0"/>
<feOffset dx="2" dy="2"/>
<feGaussianBlur stdDeviation="2"/>
<feColorMatrix type="matrix" values="0 0 0 0 0 0 0 0 0 0 0 0 0 0 0 0 0 0 1 0"/>
<feBlend mode="normal" in2="BackgroundImageFix" result="effect1_dropShadow"/>
<feBlend mode="normal" in="SourceGraphic" in2="effect1_dropShadow" result="shape"/>
</filter>
</defs>
</svg>
