<?xml version="1.0" encoding="UTF-8"?>
<svg width="88px" height="32px" viewBox="0 0 88 32" version="1.1" xmlns="http://www.w3.org/2000/svg" xmlns:xlink="http://www.w3.org/1999/xlink">
    <!-- Generator: Sketch 52 (66869) - http://www.bohemiancoding.com/sketch -->
    <title>dd</title>
    <desc>Created with Sketch.</desc>
    <defs>
        <polygon id="path-1" points="0.0648718388 0.101632959 19.1805131 0.101632959 19.1805131 31.9134921 0.0648718388 31.9134921"></polygon>
    </defs>
    <g id="UI" stroke="none" stroke-width="1" fill="none" fill-rule="evenodd">
        <g id="Main-page_UI" transform="translate(-974.000000, -644.000000)">
            <g id="Hero-image" transform="translate(-80.000000, 20.000000)">
                <g id="Logos" transform="translate(200.000000, 624.000000)">
                    <g id="dd" transform="translate(854.000000, 0.000000)">
                        <g id="Group-3">
                            <mask id="mask-2" fill="white">
                                <use xlink:href="#path-1"></use>
                            </mask>
                            <g id="Clip-2"></g>
                            <path d="M6.578208,6.11094532 C6.578208,6.11094532 5.769408,5.04955206 5.223888,4.3733573 C4.678368,3.69692285 4.492728,2.02225618 6.111408,0.706420974 C7.730208,-0.609534082 9.747648,0.522211236 10.123608,1.27355206 C10.500048,2.02501273 10.716168,3.17078052 9.907608,4.0820015 C9.098688,4.99322247 7.998408,4.84281049 7.480968,4.34507266 C6.963888,3.84721498 7.048368,2.85161948 7.509288,2.44772434 C7.970208,2.04370936 9.022128,2.04958202 8.979768,2.63588914 C8.937528,3.22219625 8.261208,2.75801648 8.040528,3.03451086 C7.819848,3.31148464 7.866888,3.55993408 8.036088,3.78968689 C8.205048,4.01955955 8.744928,4.277597 9.285168,3.6022412 C9.825048,2.92688539 9.907608,1.96868315 9.098688,1.27355206 C8.289768,0.578420974 6.841488,1.05770187 6.296088,1.66809888 C5.750568,2.27861573 5.374368,3.38699026 6.079728,4.21347715 C6.785088,5.04020375 7.894968,6.25188914 7.716168,7.3789603 C7.537608,8.50603146 7.242288,8.44742472 7.002648,8.34866816 C6.763248,8.25039101 6.721008,7.96418876 6.847728,7.68745468 C6.974448,7.41060075 7.039128,6.62773933 6.578208,6.11094532 Z M4.669248,8.22450337 C4.669248,8.22450337 5.007528,7.50120749 4.575168,6.66525243 C4.142328,5.82917753 2.938488,4.92742472 1.819488,5.87603895 C0.700368,6.82489288 0.681288,7.63268315 1.255248,8.43112509 C1.828968,9.22944719 3.390048,8.79750712 3.371088,8.07409139 C3.352368,7.35079551 2.947968,7.20050337 2.637648,7.40712509 C2.327448,7.61374682 2.148408,7.6984809 1.923048,7.38854831 C1.697208,7.07837603 2.026368,6.79672809 2.336688,6.61803146 C2.647128,6.43981423 3.380568,6.40206142 3.775728,6.99412135 C4.170648,7.58558202 4.405728,8.56260075 3.361968,9.30459326 C2.317848,10.0464659 1.057728,9.52068315 0.578088,8.86318502 C0.098448,8.20556704 -0.456552,6.7401588 1.020048,5.43475056 C2.496768,4.12910262 3.982488,4.64553708 4.697328,5.48161199 C5.412048,6.31756704 5.609568,7.19127491 5.543688,8.02722996 C5.478048,8.86306517 4.908168,9.04751461 4.725048,8.89278801 C4.541808,8.73794157 4.466688,8.5316794 4.669248,8.22450337 Z M2.855328,13.4512899 C2.855328,13.4512899 4.982208,11.7406682 7.730208,10.7632899 C10.478088,9.78579176 12.719328,9.47358202 12.719328,9.47358202 L13.629168,8.49884045 C13.629168,8.49884045 12.190968,7.86842846 7.861968,9.44733483 C3.532848,11.0264809 1.847568,12.7330277 1.424568,13.3059116 L2.855328,13.4512899 Z M13.884888,9.65419625 C13.884888,9.65419625 9.537048,13.9212225 2.008248,14.2973124 C2.008248,14.2973124 3.578088,18.293597 3.756768,18.7538217 C3.935568,19.2140464 4.104888,19.2422112 5.082888,19.2422112 C6.061008,19.2422112 8.803008,18.7523835 11.644968,17.4178517 C14.487048,16.0830801 15.418728,14.9872899 15.634968,14.733567 C15.851208,14.4800839 15.785328,14.2923985 15.663048,14.0010427 C15.541008,13.7098067 13.884888,9.65419625 13.884888,9.65419625 Z M18.164688,26.1930427 L15.211848,16.1442037 C15.211848,16.1442037 12.190968,18.8275296 5.528088,20.0494022 C5.528088,20.0494022 9.954408,28.7009079 10.528128,29.7249079 C11.101968,30.7486682 12.023448,31.1054622 13.377888,31.1054622 C14.731968,31.1054622 16.895208,30.1193348 17.713368,29.3019566 C18.531408,28.4850577 18.512808,27.2449678 18.164688,26.1930427 Z M18.834888,25.8581813 C18.834888,25.8581813 16.077048,16.4712749 15.982968,16.0674996 C15.888768,15.6636045 15.850608,15.6002037 15.963168,15.4923386 C16.075848,15.3842337 16.254408,15.1546007 16.404528,14.9105858 C16.554888,14.6668105 16.691088,14.4931476 16.371768,13.756788 C16.052208,13.0203086 14.506488,9.14483296 14.224128,8.45940974 C13.942128,7.77350712 13.489728,7.02252584 9.555768,8.09398652 C5.622048,9.16532734 3.194088,10.6127581 1.951968,11.6281288 C0.709608,12.6430202 0.596928,12.9488779 1.292808,14.7054022 C1.988688,16.4620464 2.731728,18.4437693 3.023208,19.1107356 C3.314688,19.777582 3.701208,19.9996644 4.138128,20.0231551 C4.574808,20.046406 4.626408,20.0372974 4.734528,20.262376 C4.842408,20.4874547 9.409128,29.2646831 9.869928,30.1380315 C10.330728,31.0114996 11.092368,31.9134921 13.057968,31.9134921 C15.023568,31.9134921 17.393568,30.992803 18.409488,29.6778067 C19.425048,28.3628105 19.293288,27.4236644 18.834888,25.8581813 Z" id="Fill-1" fill="#575759" mask="url(#mask-2)"></path>
                        </g>
                        <path d="M17.754679,32 L19.2351281,32 C19.75871,32 21.6,31.4706228 21.6,29.4664918 L21.6,10.8943869 C21.6,8.96479563 20.4388137,8 19.2828103,8 L15.2,8 C15.2001152,8 17.321624,13.5954287 17.5652174,14.1531503 C17.808926,14.7106307 17.7186294,15.5333424 17.4118054,15.8828833 C17.1048661,16.232786 17.1409156,16.3273478 17.240311,16.6201999 C17.339476,16.9132932 19.8425569,25.9720476 20.0955946,27.0316462 C20.3485171,28.0910037 20.402649,30.6069022 17.754679,32" id="Fill-4" fill="#575759"></path>
                        <path d="M9.6,32 L2.3959697,32 C1.45998433,32 0,31.1627094 0,29.1665855 L0,14.4 C0,14.4 1.82504012,19.0072104 2.29291339,20.1044871 C2.76090607,21.2018846 3.32837258,21.1878834 3.58989439,21.2114198 C3.85165504,21.2349561 3.99184983,21.2304903 4.10410121,21.4618707 C4.21623316,21.6931304 9.02178602,31.0869103 9.15290518,31.3518451 C9.28390491,31.6166592 9.6,32 9.6,32" id="Fill-6" fill="#575759"></path>
                        <path d="M0,12 C0,12 1.13336484,10.7876677 2.4,10.3291761 C2.4,10.3291761 0.86668242,10.1733496 0,9.6 L0,12 Z" id="Fill-8" fill="#575759"></path>
                        <path d="M80.2013348,18.2768623 L77.2846382,14.6460206 L77.2846382,16.9229508 C77.2846382,17.6614372 77.2210086,17.9690309 76.9040682,18.4000425 C76.5237398,18.7691073 76.0163937,19.0153487 75.4456595,19.0153487 C74.8752876,19.0153487 74.3046742,18.7692262 73.9874923,18.3382146 C73.6706727,17.9076786 73.6071638,17.5998471 73.6071638,16.8000085 L73.6071638,9.9693366 C73.6071638,8.79995754 74.3680622,8.06170897 75.5091683,8.06170897 C76.0797818,8.06147117 76.460231,8.24636029 76.9040682,8.73860526 L79.8208856,12.2462669 L79.8208856,10.2153402 C79.8208856,9.5384439 79.8842737,9.16937907 80.1379467,8.80007644 C80.4551286,8.36918373 81.0890094,8.06170897 81.6593813,8.06170897 C82.2302362,8.06147117 82.7372201,8.24636029 83.0544019,8.67701519 C83.3713423,9.04631782 83.4982392,9.41573935 83.4982392,10.0923978 L83.4982392,16.7385373 C83.4982392,17.5996093 83.4348511,17.9690309 83.1176693,18.3382146 C82.7373408,18.7691073 82.2301155,19.0153487 81.6593813,19.0153487 C81.0891301,19.0153487 80.5816633,18.7692262 80.2013348,18.2768623 Z M68.6615658,18.4613947 C68.2809959,18.0919732 68.2176078,17.7229084 68.2176078,16.984422 L68.2176078,10.2769303 C68.2176078,9.35379258 68.2808751,9.04643672 68.6614451,8.61554402 C68.9783854,8.24624139 69.4856108,8.06170897 69.9928361,8.06170897 C70.563691,8.06147117 71.0707956,8.24636029 71.387736,8.61554402 C71.7683059,8.98472775 71.8950821,9.35403038 71.8950821,10.2769303 L71.8950821,16.984422 C71.8950821,17.6614372 71.7049179,18.0920921 71.387736,18.4000425 C71.0707956,18.7691073 70.5001822,19.0153487 70.0563449,19.0153487 C69.5489989,19.0153487 68.9783854,18.7692262 68.6615658,18.4613947 Z M63.906132,18.4613947 L61.179841,15.0769133 L61.179841,16.984422 C61.179841,18.2150344 60.4187011,19.0153487 59.2774743,19.0153487 C58.1362475,19.0153487 57.4389786,18.2152722 57.4389786,16.984422 L57.4389786,10.0308078 C57.4389786,8.86166651 58.1995148,8.06170897 59.2774743,8.06170897 C59.7848204,8.06147117 60.3555546,8.24636029 60.6726157,8.61554402 C60.989556,8.98472775 61.179841,9.41573935 61.179841,10.0308078 L61.179841,11.7536652 L63.2087424,8.86166651 C63.5891916,8.30771256 64.0962962,8.06170897 64.7305392,8.06170897 C65.7451106,8.06147117 66.5692763,8.86166651 66.5692763,9.84615646 C66.5693971,10.1541068 66.4425002,10.5232906 66.3154826,10.7691752 L64.4134781,13.4152892 L66.6961732,16.2459356 C66.9498463,16.4920581 67.0129929,16.8614797 67.0129929,17.2305445 C67.0131136,18.2150344 66.1885857,19.0153487 65.1743764,19.0153487 C64.6669096,19.0153487 64.159805,18.8308163 63.906132,18.4613947 Z M52.429751,18.2768623 L49.5130544,14.6460206 L49.5130544,16.9229508 C49.5130544,17.6614372 49.3862782,17.9690309 49.0692171,18.4000425 C48.752156,18.7691073 48.1815425,19.0153487 47.6745587,19.0153487 C47.104066,19.0153487 46.5330904,18.7692262 46.1527619,18.3382146 C45.8990889,17.9076786 45.7723127,17.5998471 45.7723127,16.8000085 L45.7724334,9.9693366 C45.7724334,8.79995754 46.5330904,8.06170897 47.737826,8.06170897 C48.2450514,8.06147117 48.6888886,8.24636029 49.0692171,8.73860526 L51.9861552,12.2462669 L51.9861552,10.2153402 C51.9861552,9.5384439 52.1128106,9.16937907 52.3664837,8.80007644 C52.6834241,8.36918373 53.2541582,8.06170897 53.888039,8.06170897 C54.3955058,8.06147117 54.9026104,8.24636029 55.2829389,8.67701519 C55.6,9.04631782 55.7267761,9.41573935 55.7267761,10.0923978 L55.7267761,16.7385373 C55.7267761,17.5996093 55.5998793,17.9690309 55.2829389,18.3382146 C54.9658778,18.7691073 54.3953851,19.0153487 53.888039,19.0153487 C53.2541582,19.0153487 52.8104417,18.7692262 52.429751,18.2768623 Z M35.6908316,17.3536057 C34.9933213,16.430587 34.7396483,15.6921006 34.7396483,14.2152468 L34.7396483,10.3999915 C34.7396483,9.41562046 34.8664244,9.1076701 35.1836063,8.73860526 C35.5006674,8.30771256 36.0711601,8.06170897 36.6418943,8.06170897 C37.0857315,8.06147117 37.6564657,8.24636029 37.9735268,8.61554402 C38.3538553,8.98472775 38.4807522,9.35403038 38.4807522,10.1541068 L38.4807522,14.3997792 C38.4807522,15.1999745 38.8612014,15.6921006 39.4952028,15.6921006 C40.1293251,15.6921006 40.4463862,15.1999745 40.4463862,14.4616071 L40.4463862,10.1541068 C40.4463862,9.35379258 40.5730416,9.1076701 40.8902235,8.73860526 C41.2071639,8.30771256 41.7777773,8.06170897 42.2850026,8.06170897 C42.8554953,8.06147117 43.4262295,8.30783146 43.7432906,8.67701519 C44.0603517,9.1076701 44.1871279,9.41573935 44.1871279,10.3999915 L44.1871279,14.2151279 C44.1871279,15.6921006 43.8065579,16.7385373 42.9823922,17.5998471 C42.0947177,18.6460461 40.7633266,19.2 39.4952028,19.2 C37.9735268,19.2 36.5783854,18.5228659 35.6908316,17.3536057 Z M26.8774743,15.6308672 C28.145598,15.5691583 28.4625384,15.5692772 28.9064964,15.2615646 C29.4137218,14.8923809 29.794171,14.2152468 29.794171,13.5384694 C29.794171,12.7385118 29.3503337,12.0000255 28.5894353,11.6925507 C28.2723742,11.5076616 27.8920457,11.4463093 27.1946562,11.4463093 C27.1311474,11.4461904 27.0043712,11.4463093 26.8774743,11.4463093 L26.8774743,15.6308672 Z M25.6095921,18.9536397 C24.7219175,18.9536397 24.3414683,18.8920496 24.0242865,18.6460461 C23.6438373,18.3998047 23.390285,18.0920921 23.2633881,17.6615561 C23.2,17.4150769 23.2,17.2305445 23.2,16.492177 L23.2,10.5232906 C23.2,9.66162404 23.2,9.5388006 23.2633881,9.29232141 C23.5804492,8.49248278 24.2145714,8.12329904 25.2926517,8.12329904 L27.5751054,8.12329904 C29.2235576,8.12329904 30.5549486,8.55383505 31.6329081,9.47685383 C32.7742557,10.5232906 33.471766,12.0000255 33.471766,13.5384694 C33.4718868,15.0153232 32.7742557,16.492177 31.6329081,17.4767859 C30.9353978,18.1535633 29.9843352,18.6460461 29.0332726,18.8308163 C28.5894353,18.8920496 27.8920457,18.9538775 27.1311474,18.9538775 L25.6095921,18.9536397 Z M86.0346074,12.9229254 C84.7028541,12.6768029 84.7028541,11.0771256 84.7028541,10.0923978 C84.7028541,9.16926017 85.4004852,8 86.3515478,8 C87.3661192,7.9998811 88,8.98472775 88,9.9693366 C88.0001207,10.8307653 87.4292658,12.9848721 86.2247716,12.9848721 C86.1615043,12.9848721 86.0979955,12.9848721 86.0346074,12.9229254 Z" id="Fill-10" fill="#575759"></path>
                        <path d="M76.5091398,29.3219028 C76.5091398,28.4086611 77.2627783,27.7393426 78.1421228,27.7393426 C78.5819147,27.7393426 78.9586741,27.8608338 79.4612592,28.2261304 C80.2151369,28.8347622 80.3407233,28.8959194 80.6545699,28.8959194 C80.9059821,28.8956841 81.0944814,28.7131534 81.0944814,28.4086611 C81.0944814,28.1652084 81.0315686,28.0434821 80.8431888,27.9218734 C80.7176024,27.8608338 80.6545699,27.800147 80.0894308,27.6176163 C79.7754646,27.4957723 79.4612592,27.434968 79.2100863,27.313124 C77.5769837,26.765179 76.8232256,25.7305639 76.8232256,24.2697301 C76.8233452,22.1999118 78.4563282,20.8 80.8431888,20.8 C82.8529312,20.8 84.3605669,21.7739284 84.3605669,23.1131534 C84.3605669,23.9043159 83.7951886,24.5130652 82.9785177,24.5130652 C82.4760522,24.5129476 82.0992928,24.3913389 81.4712408,23.9044335 C81.0944814,23.6000588 80.9059821,23.5391368 80.7176024,23.5391368 C80.4664294,23.5391368 80.2148977,23.7220204 80.2148977,23.9652378 C80.2151369,24.3305345 80.4664294,24.4523785 81.3456543,24.7566355 C82.2876725,24.9999706 83.167017,25.4869936 83.6694825,25.8521726 C84.3605669,26.3998824 84.8,27.374046 84.8,28.4086611 C84.8,29.3219028 84.4233602,30.2350268 83.7322758,30.9044629 C83.0413109,31.634821 82.0363799,32 80.6545699,32 C78.3308613,32 76.5091398,30.7827365 76.5091398,29.3219028 Z M70.6052599,31.086876 C70.3537282,30.7218146 70.2909349,30.4174399 70.2909349,29.6869642 L70.2911741,24.2696125 L69.2861235,24.2696125 C68.6578323,24.2696125 68.2809533,24.1477686 67.9671067,23.8437467 C67.5904669,23.4782148 67.4017284,23.1131534 67.4017284,22.6870524 C67.401848,22.0784207 67.8415203,21.4087493 68.3437465,21.2262186 C68.7208648,21.0435703 68.8463317,21.0435703 70.3537282,21.0435703 L73.9966927,21.0435703 C74.4995171,21.0435703 74.813244,21.0435703 74.9388305,21.0435703 C75.0646562,21.0435703 75.1273298,21.0435703 75.2530359,21.0435703 C76.1322608,21.1652967 76.6976392,21.834968 76.6976392,22.6261304 C76.6976392,23.1130358 76.5091398,23.6000588 76.1322608,23.9044335 C75.8810879,24.1477686 75.3786224,24.2697301 74.75069,24.2697301 L73.8713455,24.2696125 L73.8713455,29.6261598 C73.8713455,30.2954783 73.8084326,30.660775 73.5572597,31.0261892 C73.2431739,31.5130946 72.7405888,31.8173517 72.1124172,31.8173517 C71.4843652,31.8173517 70.9818997,31.5132122 70.6052599,31.086876 Z M58.6084027,30.1130652 C57.9175575,29.2608632 57.7289386,28.4695831 57.7289386,27.0697889 L57.7290582,23.2956841 C57.7290582,22.2609514 57.791971,22.0176163 58.0430244,21.6523196 C58.4199034,21.226101 58.9852818,20.9826483 59.4877473,20.9826483 C59.9903324,20.9826483 60.4926783,21.1652967 60.806764,21.5304757 C61.1837627,21.8955371 61.3092295,22.2609514 61.3092295,22.9914271 L61.3092295,27.252202 C61.3092295,28.0434821 61.6858694,28.5305051 62.3140409,28.5305051 C63.0050058,28.5305051 63.3817652,28.0434821 63.3817652,27.313124 L63.3818848,22.9914271 C63.3818848,22.1999118 63.444678,22.0176163 63.7586442,21.5913977 C64.0728496,21.226101 64.5754347,20.9826483 65.1405738,20.9826483 C65.6431589,20.9826483 66.2082981,21.2262186 66.5225035,21.5913977 C66.8993825,21.9564591 66.9621757,22.3217557 66.9621757,23.2347622 L66.9624149,27.0695537 C66.9624149,28.5305051 66.5851771,29.5651202 65.8316583,30.4174399 C64.9520745,31.3913683 63.6330577,32 62.3140409,32 C60.8699161,32 59.4877473,31.2696419 58.6084027,30.1130652 Z M53.2694227,31.086876 L50.3802162,27.4347328 L50.3802162,29.7477686 C50.3802162,30.4782443 50.2545101,30.7827365 49.9404243,31.1479156 C49.6264581,31.573899 49.0611994,31.8173517 48.5586143,31.8173517 C47.9937144,31.8173517 47.4911293,31.5132122 47.1141306,31.0869936 C46.8001645,30.7218146 46.7372516,30.4174399 46.7372516,29.6262774 L46.7372516,22.8087787 C46.7372516,21.713124 47.4911293,20.9826483 48.6214075,20.9826483 C49.1241122,20.9826483 49.5636649,21.1652967 49.9404243,21.6523196 L52.8927829,25.1826189 L52.8927829,23.1130358 C52.8927829,22.3825601 53.0183694,22.0784207 53.2694227,21.713124 C53.5837477,21.226101 54.1488869,20.9826483 54.7141456,20.9826483 C55.2796435,20.9826483 55.7190766,21.1652967 56.095836,21.5913977 C56.4100414,21.9564591 56.5356279,22.3217557 56.5356279,22.9914271 L56.5356279,29.5651202 C56.5356279,30.4173223 56.4099218,30.7218146 56.095836,31.1479156 C55.7818698,31.573899 55.2794043,31.8173517 54.7141456,31.8173517 C54.1491261,31.8173517 53.646541,31.573899 53.2694227,31.086876 Z M38.0695124,26.3393132 C38.0695124,27.5566943 39.0744434,28.5305051 40.2679934,28.5305051 C41.4613041,28.5305051 42.4661155,27.5566943 42.4661155,26.3998824 C42.4661155,25.2435409 41.4613041,24.2697301 40.2679934,24.2697301 C39.0744434,24.2696125 38.0695124,25.1827365 38.0695124,26.3393132 Z M34.4265478,26.3393132 C34.4265478,23.2347622 37.0016686,20.8 40.2679934,20.8 C43.4710465,20.8 46.0464064,23.2958017 46.0464064,26.3393132 C46.0466456,29.4435115 43.4710465,32 40.2679934,32 C37.0016686,32 34.4265478,29.4436291 34.4265478,26.3393132 Z M27.5802909,28.4694655 C28.8361557,28.4694655 29.1503611,28.4086611 29.5899137,28.1044041 C30.1552921,27.7393426 30.5321711,27.0697889 30.5321711,26.3998824 C30.5321711,25.6089552 30.0297056,24.8175575 29.3387408,24.5130652 C28.9619814,24.3305345 28.5849827,24.2697301 27.8943767,24.2697301 L27.5802909,24.2696125 L27.5802909,28.4694655 Z M26.324187,31.6957429 C25.4446033,31.6957429 25.1307567,31.634821 24.8165513,31.452055 C24.376879,31.1479156 24.1255865,30.9044629 24.0627932,30.4782443 C24,30.2349092 24,30.0522608 24,29.3219028 L24,23.4174105 C24,22.5042865 24,22.4435997 24.0627932,22.200147 C24.3139662,21.4086317 25.0050506,21.0435703 26.0099816,21.0435703 L28.2711362,21.0435703 C29.9041191,21.0435703 31.2231359,21.4696713 32.2909798,22.3827953 C33.4214972,23.3566061 34.1125817,24.8175575 34.1125817,26.3393132 C34.1127013,27.8608338 33.4214972,29.2609808 32.353773,30.2954783 C31.600015,30.9044629 30.6577576,31.3913683 29.7156198,31.573899 C29.2760672,31.634821 28.6480152,31.6958605 27.8314639,31.6958605 L26.324187,31.6957429 Z" id="Fill-12" fill="#575759"></path>
                        <path d="M10.4352212,23.4565662 C10.7518257,23.2670014 10.8327622,23.2242346 10.9115346,23.0682536 C10.9996125,22.8841987 11.0206041,22.6203823 10.9444286,22.4077287 C10.8546194,22.1562438 10.6583376,21.9834709 10.4294864,21.9889808 C10.327883,21.9736319 10.2237909,22.0052479 10.0457955,22.0989152 C10.0294567,22.1074424 9.99721199,22.1244966 9.96485904,22.1416821 L10.4352212,23.4565662 Z M10.4851032,24.6705678 C10.2585243,24.7896853 10.1545404,24.8214324 10.0459037,24.7867992 C9.92114468,24.7604306 9.82192174,24.6978546 9.74109346,24.5796554 C9.69716269,24.5106512 9.67638755,24.4529291 9.59350339,24.2205974 L8.92231485,22.3450214 C8.8256888,22.0743833 8.81173051,22.0358144 8.80047731,21.9500183 C8.79138818,21.6558978 8.91181908,21.4547886 9.18665688,21.3100897 L9.76944287,21.0037688 C10.1901395,20.7825881 10.5784831,20.7391653 10.9571966,20.8847825 C11.3662072,21.0601791 11.7101873,21.4307815 11.8829889,21.9140732 C12.0489736,22.3779493 12.0368547,22.9356239 11.8562625,23.3983193 C11.7545509,23.7046402 11.5670336,23.986954 11.3451075,24.1725831 C11.2386349,24.2515575 11.0676728,24.364378 10.8734468,24.4664413 L10.4851032,24.6705678 Z" id="Fill-14" fill="#575759"></path>
                        <path d="M13.6294154,22.6681293 C13.9545934,22.4969738 14.028957,22.4347834 14.1078869,22.2781214 C14.2125831,22.084435 14.2337833,21.8197303 14.1572452,21.6061483 C14.0667912,21.3536972 13.8464181,21.1693658 13.6328944,21.1663353 C13.5143909,21.1593521 13.4099121,21.1911061 13.2310696,21.2851823 L13.149748,21.3281359 L13.6294154,22.6681293 Z M13.672468,23.8681942 C13.4449195,23.9879636 13.3566399,24.0110215 13.2543355,23.9958691 C13.1059343,23.9584494 13.0130884,23.9149688 12.9479658,23.7872939 C12.9040434,23.718252 12.8832781,23.6601461 12.7996734,23.4271954 L12.1258341,21.5432991 C12.0213553,21.2517154 12.0146148,21.2323468 12.0029818,21.1461761 C11.9776504,20.8595994 12.1147448,20.6490478 12.3750176,20.5122815 L12.9603598,20.204755 C13.3831673,19.9824768 13.7731417,19.9389962 14.153875,20.0849857 C14.5577654,20.2419112 14.9033825,20.6141315 15.0770065,21.0996651 C15.2508478,21.584935 15.2319308,22.1258075 15.0735275,22.6010638 C14.9480659,22.8979178 14.7595475,23.1814641 14.5365652,23.3679037 C14.4296946,23.4472228 14.2739005,23.5521034 14.0628773,23.6633083 L13.672468,23.8681942 Z" id="Fill-16" fill="#575759"></path>
                    </g>
                </g>
            </g>
        </g>
    </g>
</svg>