<?xml version="1.0" encoding="UTF-8"?>
<svg width="104px" height="21px" viewBox="0 0 104 21" version="1.1" xmlns="http://www.w3.org/2000/svg" xmlns:xlink="http://www.w3.org/1999/xlink">
    <!-- Generator: Sketch 52 (66869) - http://www.bohemiancoding.com/sketch -->
    <title>f</title>
    <desc>Created with Sketch.</desc>
    <defs>
        <polygon id="path-1" points="0 0.1662 9.74543877 0.1662 9.74543877 20.14844 0 20.14844"></polygon>
        <polygon id="path-3" points="0.163944722 0.00048 13.0918833 0.00048 13.0918833 13.8 0.163944722 13.8"></polygon>
        <polygon id="path-5" points="0.0679692898 0.1531 13.1436238 0.1531 13.1436238 20.4 0.0679692898 20.4"></polygon>
        <polygon id="path-7" points="0.158814587 0.17752 13.0488261 0.17752 13.0488261 13.8 0.158814587 13.8"></polygon>
        <polygon id="path-9" points="0.0186441459 0.17752 12.9088553 0.17752 12.9088553 13.8 0.0186441459 13.8"></polygon>
    </defs>
    <g id="UI" stroke="none" stroke-width="1" fill="none" fill-rule="evenodd">
        <g id="Main-page_UI" transform="translate(-1110.000000, -650.000000)">
            <g id="Hero-image" transform="translate(-80.000000, 20.000000)">
                <g id="Logos" transform="translate(200.000000, 624.000000)">
                    <g id="f" transform="translate(990.000000, 6.000000)">
                        <g id="Group-3" transform="translate(0.000000, 0.033800)">
                            <mask id="mask-2" fill="white">
                                <use xlink:href="#path-1"></use>
                            </mask>
                            <g id="Clip-2"></g>
                            <path d="M9.74543877,0.16864 L9.74543877,3.32924 L7.99899731,3.32924 C7.99899731,3.32924 6.42183033,3.10344 6.42183033,4.62744 L6.42183033,7.11084 L9.74543877,7.11084 L9.35099731,10.54124 L6.42183033,10.54124 L6.42183033,20.14844 L2.59119693,20.14844 L2.59119693,10.49744 L-1.99616123e-05,10.49744 L-1.99616123e-05,7.11084 L2.70398004,7.11084 L2.70398004,4.23224 C2.70398004,4.23224 2.36602994,2.65204 3.77412207,1.35384 C5.18261344,0.05584 7.04143877,0.16864 7.04143877,0.16864 L9.74543877,0.16864 Z" id="Fill-1" fill="#575759" mask="url(#mask-2)"></path>
                        </g>
                        <g id="Group-6" transform="translate(9.581574, 6.833800)">
                            <mask id="mask-4" fill="white">
                                <use xlink:href="#path-3"></use>
                            </mask>
                            <g id="Clip-5"></g>
                            <path d="M9.19377965,8.18408 C9.19377965,9.49328 8.08311555,10.72388 6.71295048,10.72388 C5.34298503,10.72388 4.23232092,9.49328 4.23232092,8.18408 L4.23232092,5.70088 C4.23232092,4.39168 5.34298503,3.16108 6.71295048,3.16108 C8.08311555,3.16108 9.19377965,4.39168 9.19377965,5.70088 L9.19377965,8.18408 Z M9.39998311,0.36728 L9.39998311,2.08948 C8.42246296,0.80088 7.05589098,0.00048 5.54339962,0.00048 C2.57251286,0.00048 0.163944722,2.62488 0.163944722,6.90008 C0.163944722,11.14728 2.57251286,13.80008 5.54339962,13.80008 C7.07026334,13.80008 8.44841305,12.98428 9.42753013,11.67408 L9.40217889,13.34848 L13.0918833,13.34848 L13.0918833,0.36728 L9.39998311,0.36728 Z" id="Fill-4" fill="#575759" mask="url(#mask-4)"></path>
                        </g>
                        <g id="Group-9" transform="translate(48.905950, 0.233800)">
                            <mask id="mask-6" fill="white">
                                <use xlink:href="#path-5"></use>
                            </mask>
                            <g id="Clip-8"></g>
                            <path d="M4.11378887,12.2163 C4.11378887,10.9071 5.22425336,9.6763 6.59441843,9.6763 C7.96458349,9.6763 9.0752476,10.9071 9.0752476,12.2163 L9.0752476,14.6995 C9.0752476,16.0087 7.96458349,17.2393 6.59441843,17.2393 C5.22425336,17.2393 4.11378887,16.0087 4.11378887,14.6995 L4.11378887,12.2163 Z M3.90758541,20.0331 L3.90758541,18.3111 C4.88490595,19.5995 6.25147793,20.4001 7.76396929,20.4001 C10.7350557,20.4001 13.1436238,17.7755 13.1436238,13.5001 C13.1436238,9.2531 10.7350557,6.6003 7.76396929,6.6003 C6.23730518,6.6003 4.85895585,7.4161 3.87983877,8.7261 L3.90519002,0.1531 L0.0679692898,0.5859 L0.0679692898,19.9739 L3.90758541,20.0331 Z" id="Fill-7" fill="#575759" mask="url(#mask-6)"></path>
                        </g>
                        <path d="M31.010704,17.48546 C31.010704,17.48546 28.0531916,17.65486 28.0531916,13.81686 L28.0531916,13.60686 C28.0531916,9.76906 31.010704,9.93846 31.010704,9.93846 C33.0104583,9.91026 33.7145044,10.61566 33.7145044,10.61566 L34.6441167,7.82186 C33.0386042,6.63666 28.1941205,6.43906 26.0252914,8.44286 C24.1487002,10.17646 24.1490994,12.98586 24.1830342,13.71206 C24.1490994,14.43806 24.1487002,17.24746 26.0252914,18.98126 C28.1941205,20.98466 33.0386042,20.78726 34.6441167,19.60206 L33.7145044,16.80806 C33.7145044,16.80806 33.0104583,17.51386 31.010704,17.48546" id="Fill-10" fill="#575759"></path>
                        <path d="M39.0661129,12.47822 C39.0661129,12.47822 38.8688921,9.59962 41.4603086,9.59962 C44.0515255,9.59962 43.8543048,12.47822 43.8543048,12.47822 L39.0661129,12.47822 Z M47.375134,15.10262 C47.375134,15.10262 48.9241551,6.97522 41.5166004,6.93122 C34.1090457,6.88702 35.1791877,14.28422 35.1791877,14.28422 C35.3482626,18.77122 37.4043086,20.06942 40.9251378,20.49262 C44.4457674,20.91582 47.1214219,19.56142 47.1214219,19.56142 L46.3047923,16.93702 C46.3047923,16.93702 43.460063,17.81182 41.2067962,17.61422 C38.9535294,17.41662 39.1224046,15.10262 39.1224046,15.10262 L47.375134,15.10262 Z" id="Fill-12" fill="#575759"></path>
                        <g id="Group-16" transform="translate(63.078695, 6.833800)">
                            <mask id="mask-8" fill="white">
                                <use xlink:href="#path-7"></use>
                            </mask>
                            <g id="Clip-15"></g>
                            <path d="M9.11638848,8.11552 C9.11638848,9.42472 7.97678004,10.65532 6.57088369,10.65532 C5.16498733,10.65532 4.02537889,9.42472 4.02537889,8.11552 L4.02537889,5.63232 C4.02537889,4.32312 5.16498733,3.09232 6.57088369,3.09232 C7.97678004,3.09232 9.11638848,4.32312 9.11638848,5.63232 L9.11638848,8.11552 Z M6.60382035,0.17752 C1.78169367,0.17752 0.158814587,3.09232 0.158814587,6.98872 C0.158814587,11.12232 2.24999309,13.80012 6.60382035,13.80012 C10.163375,13.80012 13.0488261,11.40372 13.0488261,6.98872 C13.0488261,3.22692 11.207567,0.17752 6.60382035,0.17752 Z" id="Fill-14" fill="#575759" mask="url(#mask-8)"></path>
                        </g>
                        <g id="Group-19" transform="translate(77.451056, 6.833800)">
                            <mask id="mask-10" fill="white">
                                <use xlink:href="#path-9"></use>
                            </mask>
                            <g id="Clip-18"></g>
                            <path d="M8.97621804,8.11552 C8.97621804,9.42472 7.8366096,10.65532 6.43071324,10.65532 C5.02501651,10.65532 3.88520845,9.42472 3.88520845,8.11552 L3.88520845,5.63232 C3.88520845,4.32312 5.02501651,3.09232 6.43071324,3.09232 C7.8366096,3.09232 8.97621804,4.32312 8.97621804,5.63232 L8.97621804,8.11552 Z M6.4636499,0.17752 C1.64172284,0.17752 0.0186441459,3.09232 0.0186441459,6.98872 C0.0186441459,11.12232 2.10982265,13.80012 6.4636499,13.80012 C10.0232046,13.80012 12.9088553,11.40372 12.9088553,6.98872 C12.9088553,3.22692 11.0673965,0.17752 6.4636499,0.17752 Z" id="Fill-17" fill="#575759" mask="url(#mask-10)"></path>
                        </g>
                        <polygon id="Fill-20" fill="#575759" points="103.874202 20.23896 99.6609044 13.70316 103.687162 7.16756 99.5670848 7.16756 95.6346472 13.01816 95.6346472 0.31916 91.7644898 0.72576 91.7644898 20.23896 95.6346472 20.23896 95.6346472 13.59016 99.8792845 20.23896"></polygon>
                    </g>
                </g>
            </g>
        </g>
    </g>
</svg>