<?xml version="1.0" encoding="UTF-8"?>
<svg width="83px" height="24px" viewBox="0 0 83 24" version="1.1" xmlns="http://www.w3.org/2000/svg" xmlns:xlink="http://www.w3.org/1999/xlink">
    <!-- Generator: Sketch 52 (66869) - http://www.bohemiancoding.com/sketch -->
    <title>n</title>
    <desc>Created with Sketch.</desc>
    <defs>
        <polygon id="path-1" points="0 0.0747940678 22.337512 0.0747940678 22.337512 23.25 0 23.25"></polygon>
        <polygon id="path-3" points="0.0162242177 0.0738111111 23.1625644 0.0738111111 23.1625644 22.3779578 0.0162242177 22.3779578"></polygon>
        <polygon id="path-5" points="0.0663598644 0.0738111111 23.1343165 0.0738111111 23.1343165 22.3779578 0.0663598644 22.3779578"></polygon>
    </defs>
    <g id="UI" stroke="none" stroke-width="1" fill="none" fill-rule="evenodd">
        <g id="Main-page_UI" transform="translate(-347.000000, -652.000000)">
            <g id="Hero-image" transform="translate(-80.000000, 20.000000)">
                <g id="Logos" transform="translate(200.000000, 624.000000)">
                    <g id="n" transform="translate(227.400000, 8.000000)">
                        <g id="Group-3">
                            <mask id="mask-2" fill="white">
                                <use xlink:href="#path-1"></use>
                            </mask>
                            <g id="Clip-2"></g>
                            <path d="M16.463592,23.25 C13.836072,23.2501576 11.510072,21.5105847 10.805112,19.0192881 L6.973352,5.55879915 C6.837112,5.07543559 6.385112,4.73787712 5.873992,4.73787712 C5.245032,4.73787712 4.733272,5.24196864 4.733272,5.86160085 L4.733272,22.6758432 L-8e-06,22.6758432 L-8e-06,5.86160085 C-8e-06,2.67075508 2.635032,0.0748728814 5.873912,0.0747940678 C8.502152,0.0747152542 10.828712,1.81507627 11.533032,4.30755508 L15.364152,17.7659949 C15.500392,18.2493585 15.952472,18.5869169 16.463512,18.5869169 C17.092472,18.5869169 17.604232,18.0827466 17.604232,17.4631932 L17.604232,0.648950847 L22.337512,0.648950847 L22.337512,17.4631932 C22.337512,20.654039 19.702472,23.25 16.463592,23.25" id="Fill-1" fill="#575759" mask="url(#mask-2)"></path>
                        </g>
                        <path d="M53.3412587,22.4 L40.8,22.4 L40.8,17.8274444 L53.3412587,17.8274444 C54.4470376,17.8274444 55.3464317,16.9432913 55.3464317,15.8568031 C55.3464317,14.7702377 54.4470376,13.8863164 53.3412587,13.8863164 L47.5356637,13.8863164 C43.8640749,13.8863164 40.8767651,10.9511444 40.8767651,7.34319685 C40.8767651,3.73532655 43.8640749,0.8 47.5356637,0.8 L58.8692095,0.8 L58.8692095,5.37263284 L47.5356637,5.37263284 C46.4299634,5.37263284 45.5303333,6.25670869 45.5303333,7.34319685 C45.5303333,8.42976231 46.4299634,9.31368358 47.5356637,9.31368358 L53.3412587,9.31368358 C57.0129261,9.31368358 60,12.2489328 60,15.8568031 C60,19.4647507 57.0129261,22.4 53.3412587,22.4" id="Fill-4" fill="#575759"></path>
                        <g id="Group-8" transform="translate(59.200000, 0.000000)">
                            <mask id="mask-4" fill="white">
                                <use xlink:href="#path-3"></use>
                            </mask>
                            <g id="Clip-7"></g>
                            <path d="M17.1135195,4.02815778 C16.3337943,1.66293556 14.1137752,0.07378 11.5893943,0.07378 C9.06501333,0.07378 6.84515211,1.66293556 6.06526912,4.02815778 L0.0162242177,22.3779578 L4.92539156,22.3778022 L10.5057807,5.45024667 C10.6327494,5.06462444 11.0171276,4.67558 11.5893943,4.67558 C12.161661,4.67558 12.5460392,5.06462444 12.6731657,5.45024667 L18.253397,22.3779578 L23.1625644,22.3779578 L17.1135195,4.02815778 Z" id="Fill-6" fill="#575759" mask="url(#mask-4)"></path>
                        </g>
                        <g id="Group-11" transform="translate(20.800000, 0.000000)">
                            <mask id="mask-6" fill="white">
                                <use xlink:href="#path-5"></use>
                            </mask>
                            <g id="Clip-10"></g>
                            <path d="M17.1056982,4.02815778 C16.3286161,1.66293556 14.1161226,0.07378 11.6002988,0.07378 C9.08455376,0.07378 6.87213885,1.66293556 6.09497817,4.02815778 L0.0663598644,22.3779578 L4.95896461,22.3778022 L10.5203585,5.45024667 C10.6469755,5.06462444 11.0300507,4.67558 11.6002988,4.67558 C12.1706256,4.67558 12.5537009,5.06462444 12.6803965,5.45024667 L18.2417904,22.3779578 L23.1343165,22.3779578 L17.1056982,4.02815778 Z" id="Fill-9" fill="#575759" mask="url(#mask-6)"></path>
                        </g>
                    </g>
                </g>
            </g>
        </g>
    </g>
</svg>