<svg width="119" height="38" viewBox="0 0 119 38" fill="none" xmlns="http://www.w3.org/2000/svg">
<g opacity="0.5" clip-path="url(#clip0)">
<g filter="url(#filter0_dddddd)">
<path d="M19.8704 8.67655C20.5128 8.67655 21.0867 9.07766 21.3076 9.68079L23.4193 15.447L20.4684 23.6094C20.2487 24.2182 19.6742 24.645 19.025 24.6225C18.3784 24.6225 17.8012 24.2174 17.5814 23.6094L15.4898 17.8236L18.4316 9.68555C18.6519 9.08123 19.2282 8.67947 19.8704 8.67655ZM21.8189 23.6682L30.1954 0.703125H39.2782L30.9079 23.651C30.6951 24.2346 30.136 24.6234 29.51 24.6234H20.4457C21.0607 24.6234 21.6103 24.1957 21.8189 23.6682ZM8.99227 9.649C9.20522 9.06542 9.76414 8.67655 10.3902 8.67655H19.4545C18.8496 8.70862 18.3106 9.06878 18.0813 9.63177L9.7048 32.5968H0.62207L8.99227 9.649ZM50.8018 21.6469V9.67323H53.1547V24.6234H49.7978L42.6224 12.7444V24.6234H40.2693V9.67323H43.5691L50.8018 21.6469ZM62.7084 22.8346L62.7425 18.9849C62.0602 18.9671 60.3412 18.9846 59.6887 18.9846C59.0385 18.9846 57.535 19.2746 57.5424 20.7154C57.5517 22.5224 58.7192 22.7889 60.6954 22.8346C61.2337 22.8346 62.2078 22.8627 62.7084 22.8346ZM62.0054 12.711C64.0638 12.9694 65.1228 14.1517 65.0449 16.3854V17.254V24.3501C62.8638 24.7099 59.8436 24.6829 58.1272 24.4514C55.9245 24.1417 55.1371 22.8892 55.1371 20.7154C55.1371 18.5416 56.8542 17.3307 58.8081 17.1858C59.9923 17.1353 61.2025 17.1405 62.6046 17.1756L62.6048 16.3095C62.6048 15.4209 62.2202 14.8531 61.1986 14.6625C60.4731 14.5589 57.6906 14.6814 55.9068 15.0667V12.9931C58.1621 12.747 60.3086 12.5754 62.0054 12.711ZM98.391 22.8346L98.425 18.9849C97.7428 18.9671 96.0236 18.9846 95.3713 18.9846C94.721 18.9846 93.2176 19.2746 93.225 20.7154C93.2342 22.5224 94.4017 22.7889 96.3778 22.8346C96.9161 22.8346 97.8903 22.8627 98.391 22.8346ZM97.6878 12.711C99.7463 12.9694 100.805 14.1517 100.727 16.3854V17.254V24.3501C98.5464 24.7099 95.5262 24.6829 93.8097 24.4514C91.6069 24.1417 90.8196 22.8892 90.8196 20.7154C90.8196 18.5416 92.5366 17.3307 94.4905 17.1858C95.6749 17.1353 96.8851 17.1405 98.2871 17.1756L98.2873 16.3095C98.2873 15.4209 97.9028 14.8531 96.8811 14.6625C96.1556 14.5589 93.3731 14.6814 91.5892 15.0667V12.9931C93.8447 12.747 95.991 12.5754 97.6878 12.711ZM74.5895 17.887C77.8735 18.8986 77.5783 23.166 74.5895 24.1959C72.8112 24.7906 70.6356 24.7407 68.1548 24.1959V22.0439C69.993 22.563 71.7376 22.75 73.3236 22.375C74.6631 22.0991 74.9294 20.4024 73.3236 19.9102C72.31 19.628 70.3551 19.3771 69.3283 18.6434C67.3593 17.3736 67.538 13.8375 70.4052 13.0311C71.9765 12.5496 73.8912 12.5317 76.1893 13.0311V15.0544C74.4547 14.7731 72.9152 14.5762 71.6182 14.8337C69.9939 15.172 70.1424 16.7283 71.6182 17.096L74.5895 17.887ZM86.3039 22.7936V15.056L84.9694 14.9116C82.585 14.7583 80.5916 15.7233 80.5916 18.7445C80.7531 21.6582 82.4431 22.7936 84.7269 22.7936H86.3039ZM86.3039 13.0779V8.67655H88.8373V24.2868C87.1981 24.551 84.8884 24.7305 83.3733 24.551C80.1695 24.2868 77.9343 22.3957 77.9343 18.6264C77.9343 15.2961 80.2171 13.2498 83.2519 13.0001C84.5565 12.9136 86.3039 13.0779 86.3039 13.0779ZM110.935 22.5811L111.083 14.708H109.505C107.22 14.708 105.368 15.711 105.368 18.8767C105.368 21.7536 107.362 22.8711 109.6 22.7298L110.935 22.5811ZM108.151 12.7544C109.666 12.5697 111.977 12.6808 113.617 12.9529V28.4067L110.915 29.6068V24.7104C110.915 24.7104 109.179 24.729 107.874 24.6401C104.838 24.3829 102.714 22.4272 102.714 18.691C102.714 14.6248 105.055 13.0265 108.151 12.7544Z" fill="black"/>
</g>
<path d="M19.8704 8.67655C20.5128 8.67655 21.0867 9.07766 21.3076 9.68079L23.4193 15.447L20.4684 23.6094C20.2487 24.2182 19.6742 24.645 19.025 24.6225C18.3784 24.6225 17.8012 24.2174 17.5814 23.6094L15.4898 17.8236L18.4316 9.68555C18.6519 9.08123 19.2282 8.67947 19.8704 8.67655ZM21.8189 23.6682L30.1954 0.703125H39.2782L30.9079 23.651C30.6951 24.2346 30.136 24.6234 29.51 24.6234H20.4457C21.0607 24.6234 21.6103 24.1957 21.8189 23.6682ZM8.99227 9.649C9.20522 9.06542 9.76414 8.67655 10.3902 8.67655H19.4545C18.8496 8.70862 18.3106 9.06878 18.0813 9.63177L9.7048 32.5968H0.62207L8.99227 9.649ZM50.8018 21.6469V9.67323H53.1547V24.6234H49.7978L42.6224 12.7444V24.6234H40.2693V9.67323H43.5691L50.8018 21.6469ZM62.7084 22.8346L62.7425 18.9849C62.0602 18.9671 60.3412 18.9846 59.6887 18.9846C59.0385 18.9846 57.535 19.2746 57.5424 20.7154C57.5517 22.5224 58.7192 22.7889 60.6954 22.8346C61.2337 22.8346 62.2078 22.8627 62.7084 22.8346ZM62.0054 12.711C64.0638 12.9694 65.1228 14.1517 65.0449 16.3854V17.254V24.3501C62.8638 24.7099 59.8436 24.6829 58.1272 24.4514C55.9245 24.1417 55.1371 22.8892 55.1371 20.7154C55.1371 18.5416 56.8542 17.3307 58.8081 17.1858C59.9923 17.1353 61.2025 17.1405 62.6046 17.1756L62.6048 16.3095C62.6048 15.4209 62.2202 14.8531 61.1986 14.6625C60.4731 14.5589 57.6906 14.6814 55.9068 15.0667V12.9931C58.1621 12.747 60.3086 12.5754 62.0054 12.711ZM98.391 22.8346L98.425 18.9849C97.7428 18.9671 96.0236 18.9846 95.3713 18.9846C94.721 18.9846 93.2176 19.2746 93.225 20.7154C93.2342 22.5224 94.4017 22.7889 96.3778 22.8346C96.9161 22.8346 97.8903 22.8627 98.391 22.8346ZM97.6878 12.711C99.7463 12.9694 100.805 14.1517 100.727 16.3854V17.254V24.3501C98.5464 24.7099 95.5262 24.6829 93.8097 24.4514C91.6069 24.1417 90.8196 22.8892 90.8196 20.7154C90.8196 18.5416 92.5366 17.3307 94.4905 17.1858C95.6749 17.1353 96.8851 17.1405 98.2871 17.1756L98.2873 16.3095C98.2873 15.4209 97.9028 14.8531 96.8811 14.6625C96.1556 14.5589 93.3731 14.6814 91.5892 15.0667V12.9931C93.8447 12.747 95.991 12.5754 97.6878 12.711ZM74.5895 17.887C77.8735 18.8986 77.5783 23.166 74.5895 24.1959C72.8112 24.7906 70.6356 24.7407 68.1548 24.1959V22.0439C69.993 22.563 71.7376 22.75 73.3236 22.375C74.6631 22.0991 74.9294 20.4024 73.3236 19.9102C72.31 19.628 70.3551 19.3771 69.3283 18.6434C67.3593 17.3736 67.538 13.8375 70.4052 13.0311C71.9765 12.5496 73.8912 12.5317 76.1893 13.0311V15.0544C74.4547 14.7731 72.9152 14.5762 71.6182 14.8337C69.9939 15.172 70.1424 16.7283 71.6182 17.096L74.5895 17.887ZM86.3039 22.7936V15.056L84.9694 14.9116C82.585 14.7583 80.5916 15.7233 80.5916 18.7445C80.7531 21.6582 82.4431 22.7936 84.7269 22.7936H86.3039ZM86.3039 13.0779V8.67655H88.8373V24.2868C87.1981 24.551 84.8884 24.7305 83.3733 24.551C80.1695 24.2868 77.9343 22.3957 77.9343 18.6264C77.9343 15.2961 80.2171 13.2498 83.2519 13.0001C84.5565 12.9136 86.3039 13.0779 86.3039 13.0779ZM110.935 22.5811L111.083 14.708H109.505C107.22 14.708 105.368 15.711 105.368 18.8767C105.368 21.7536 107.362 22.8711 109.6 22.7298L110.935 22.5811ZM108.151 12.7544C109.666 12.5697 111.977 12.6808 113.617 12.9529V28.4067L110.915 29.6068V24.7104C110.915 24.7104 109.179 24.729 107.874 24.6401C104.838 24.3829 102.714 22.4272 102.714 18.691C102.714 14.6248 105.055 13.0265 108.151 12.7544Z" fill="white"/>
</g>
<defs>
<filter id="filter0_dddddd" x="-2.37793" y="-2.29688" width="124.995" height="43.8937" filterUnits="userSpaceOnUse" color-interpolation-filters="sRGB">
<feFlood flood-opacity="0" result="BackgroundImageFix"/>
<feColorMatrix in="SourceAlpha" type="matrix" values="0 0 0 0 0 0 0 0 0 0 0 0 0 0 0 0 0 0 127 0"/>
<feOffset dx="1" dy="1"/>
<feGaussianBlur stdDeviation="2"/>
<feColorMatrix type="matrix" values="0 0 0 0 0 0 0 0 0 0 0 0 0 0 0 0 0 0 1 0"/>
<feBlend mode="normal" in2="BackgroundImageFix" result="effect1_dropShadow"/>
<feColorMatrix in="SourceAlpha" type="matrix" values="0 0 0 0 0 0 0 0 0 0 0 0 0 0 0 0 0 0 127 0"/>
<feOffset dx="2" dy="2"/>
<feGaussianBlur stdDeviation="2"/>
<feColorMatrix type="matrix" values="0 0 0 0 0 0 0 0 0 0 0 0 0 0 0 0 0 0 1 0"/>
<feBlend mode="normal" in2="effect1_dropShadow" result="effect2_dropShadow"/>
<feColorMatrix in="SourceAlpha" type="matrix" values="0 0 0 0 0 0 0 0 0 0 0 0 0 0 0 0 0 0 127 0"/>
<feOffset dx="3" dy="3"/>
<feGaussianBlur stdDeviation="2"/>
<feColorMatrix type="matrix" values="0 0 0 0 0 0 0 0 0 0 0 0 0 0 0 0 0 0 1 0"/>
<feBlend mode="normal" in2="effect2_dropShadow" result="effect3_dropShadow"/>
<feColorMatrix in="SourceAlpha" type="matrix" values="0 0 0 0 0 0 0 0 0 0 0 0 0 0 0 0 0 0 127 0"/>
<feOffset dx="4" dy="4"/>
<feGaussianBlur stdDeviation="2"/>
<feColorMatrix type="matrix" values="0 0 0 0 0 0 0 0 0 0 0 0 0 0 0 0 0 0 1 0"/>
<feBlend mode="normal" in2="effect3_dropShadow" result="effect4_dropShadow"/>
<feColorMatrix in="SourceAlpha" type="matrix" values="0 0 0 0 0 0 0 0 0 0 0 0 0 0 0 0 0 0 127 0"/>
<feOffset dx="2" dy="2"/>
<feGaussianBlur stdDeviation="0.5"/>
<feColorMatrix type="matrix" values="0 0 0 0 0 0 0 0 0 0 0 0 0 0 0 0 0 0 1 0"/>
<feBlend mode="normal" in2="effect4_dropShadow" result="effect5_dropShadow"/>
<feColorMatrix in="SourceAlpha" type="matrix" values="0 0 0 0 0 0 0 0 0 0 0 0 0 0 0 0 0 0 127 0"/>
<feOffset dx="5" dy="5"/>
<feGaussianBlur stdDeviation="2"/>
<feColorMatrix type="matrix" values="0 0 0 0 0 0 0 0 0 0 0 0 0 0 0 0 0 0 1 0"/>
<feBlend mode="normal" in2="effect5_dropShadow" result="effect6_dropShadow"/>
<feBlend mode="normal" in="SourceGraphic" in2="effect6_dropShadow" result="shape"/>
</filter>
<clipPath id="clip0">
<rect width="117.551" height="36.4499" fill="white" transform="translate(0.62207 0.703125)"/>
</clipPath>
</defs>
</svg>
