<?xml version="1.0" encoding="UTF-8"?>
<svg width="129px" height="40px" viewBox="0 0 129 40" version="1.1" xmlns="http://www.w3.org/2000/svg" xmlns:xlink="http://www.w3.org/1999/xlink">
    <!-- Generator: Sketch 52.1 (67048) - http://www.bohemiancoding.com/sketch -->
    <title>Nasdaq</title>
    <desc>Created with Sketch.</desc>
    <defs>
        <path d="M358.123079,8.75 C358.828001,8.75 359.457764,9.19018107 359.700219,9.8520557 L362.017544,16.1798812 L358.77932,25.1372749 C358.538172,25.8053242 357.907696,26.2737662 357.195294,26.2490676 C356.485741,26.2490676 355.852297,25.804493 355.611149,25.1372749 L353.315789,18.787957 L356.544158,9.8572804 C356.7859,9.19409959 357.418276,8.75320607 358.123079,8.75 Z M360.261329,25.2017408 L369.453659,0 L379.421053,0 L370.235561,25.1829539 C370.001998,25.8233718 369.38852,26.25 368.701507,26.25 L358.754386,26.25 C359.429283,26.25 360.032445,25.7806852 360.261329,25.2017408 Z M346.185425,9.81716501 C346.419109,9.1767471 347.032471,8.75 347.719488,8.75 L357.666667,8.75 C357.002802,8.78519564 356.411273,9.18043313 356.159715,9.79825924 L346.967332,35 L337,35 L346.185425,9.81716501 Z M392.06703,22.9835941 L392.06703,9.84375 L394.649123,9.84375 L394.649123,26.25 L390.965253,26.25 L383.090988,13.2140175 L383.090988,26.25 L380.508772,26.25 L380.508772,9.84375 L384.12988,9.84375 L392.06703,22.9835941 Z M405.133324,24.2870339 L405.170756,20.062344 C404.422017,20.042826 402.535491,20.0619826 401.819505,20.0619826 C401.105975,20.0619826 399.456083,20.3802951 399.464154,21.9613761 C399.474331,23.944384 400.755526,24.236793 402.924189,24.2870339 C403.514898,24.2870339 404.583906,24.3178772 405.133324,24.2870339 Z M404.361776,13.1774189 C406.620742,13.4609122 407.78286,14.7583794 407.697353,17.2096995 L407.697353,18.16283 L407.697353,25.9500424 C405.30387,26.3449813 401.989465,26.3153428 400.105863,26.061247 C397.688634,25.7213682 396.824561,24.3469132 396.824561,21.9613761 C396.824561,19.575839 398.708865,18.2470467 400.853081,18.0880109 C402.152641,18.0325893 403.480742,18.0382519 405.019394,18.0768061 L405.019628,17.1263261 C405.019628,16.151268 404.597592,15.5281368 403.476414,15.3189806 C402.680302,15.2052459 399.626745,15.3397034 397.669217,15.7624736 L397.669217,13.4869363 C400.14423,13.2169368 402.499697,13.028624 404.361776,13.1774189 Z M444.291219,24.2870339 L444.328534,20.062344 C443.579912,20.042826 441.693269,20.0619826 440.977399,20.0619826 C440.263753,20.0619826 438.613978,20.3802951 438.622049,21.9613761 C438.632225,23.944384 439.913421,24.236793 442.081967,24.2870339 C442.672676,24.2870339 443.741801,24.3178772 444.291219,24.2870339 Z M443.519554,13.1774189 C445.77852,13.4609122 446.940755,14.7583794 446.855248,17.2096995 L446.855248,18.16283 L446.855248,25.9500424 C444.461765,26.3449813 441.14736,26.3153428 439.263758,26.061247 C436.846412,25.7213682 435.982456,24.3469132 435.982456,21.9613761 C435.982456,19.575839 437.866643,18.2470467 440.010859,18.0880109 C441.310536,18.0325893 442.638637,18.0382519 444.177172,18.0768061 L444.177406,17.1263261 C444.177406,16.151268 443.755487,15.5281368 442.634309,15.3189806 C441.83808,15.2052459 438.78464,15.3397034 436.826995,15.7624736 L436.826995,13.4869363 C439.302125,13.2169368 441.657475,13.028624 443.519554,13.1774189 Z M418.171516,18.8575141 C421.775437,19.9676659 421.451439,24.6506485 418.171516,25.7808589 C416.22011,26.433482 413.832522,26.3786788 411.110095,25.7808589 L411.110095,23.4193089 C413.12735,23.9889512 415.041894,24.1941944 416.782399,23.7826335 C418.252316,23.4798431 418.544588,21.6178495 416.782399,21.0778176 C415.670033,20.7681023 413.52473,20.4927732 412.397984,19.6875609 C410.23716,18.2940805 410.433225,14.413564 413.579738,13.5287141 C415.304037,13.0002637 417.405288,12.9806826 419.9272,13.5287141 L419.9272,15.7490176 C418.023612,15.4403768 416.334234,15.2242685 414.91088,15.5068808 C413.128377,15.8780856 413.291346,17.5859379 414.91088,17.9894992 L418.171516,18.8575141 Z M431.02695,24.2419924 L431.02695,15.75074 L429.562443,15.5922937 C426.945771,15.4240683 424.758274,16.4831319 424.758274,19.7985121 C424.935502,22.9959599 426.790033,24.2419924 429.296293,24.2419924 L431.02695,24.2419924 Z M431.02695,13.5799914 L431.02695,8.75 L433.807018,8.75 L433.807018,25.8805898 C432.008187,26.1705895 429.473521,26.3675705 427.810914,26.1705895 C424.295012,25.8805898 421.842105,23.8053048 421.842105,19.6689378 C421.842105,16.0143126 424.347254,13.7687066 427.677654,13.4946562 C429.109308,13.3997748 431.02695,13.5799914 431.02695,13.5799914 Z M458.057268,24.0088068 L458.218879,15.3689195 L456.487489,15.3689195 C453.980168,15.3689195 451.947549,16.4695352 451.947549,19.943612 C451.947549,23.100676 454.135972,24.3270182 456.592141,24.1719276 L458.057268,24.0088068 Z M455.001482,13.224978 C456.664668,13.0223056 459.200531,13.1441967 461,13.4428719 L461,30.4017985 L458.035151,31.71875 L458.035151,26.3454728 C458.035151,26.3454728 456.129918,26.365848 454.697781,26.2682871 C451.365971,25.9860319 449.035088,23.8399331 449.035088,19.7398608 C449.035088,15.277591 451.604187,13.5236532 455.001482,13.224978 Z" id="path-1"></path>
        <filter x="-2.0%" y="-7.1%" width="108.1%" height="128.6%" filterUnits="objectBoundingBox" id="filter-2">
            <feOffset dx="1" dy="1" in="SourceAlpha" result="shadowOffsetOuter1"></feOffset>
            <feColorMatrix values="0 0 0 0 0   0 0 0 0 0   0 0 0 0 0  0 0 0 1 0" type="matrix" in="shadowOffsetOuter1" result="shadowMatrixOuter1"></feColorMatrix>
            <feOffset dx="2" dy="2" in="SourceAlpha" result="shadowOffsetOuter2"></feOffset>
            <feColorMatrix values="0 0 0 0 0   0 0 0 0 0   0 0 0 0 0  0 0 0 1 0" type="matrix" in="shadowOffsetOuter2" result="shadowMatrixOuter2"></feColorMatrix>
            <feOffset dx="3" dy="3" in="SourceAlpha" result="shadowOffsetOuter3"></feOffset>
            <feColorMatrix values="0 0 0 0 0   0 0 0 0 0   0 0 0 0 0  0 0 0 1 0" type="matrix" in="shadowOffsetOuter3" result="shadowMatrixOuter3"></feColorMatrix>
            <feOffset dx="4" dy="4" in="SourceAlpha" result="shadowOffsetOuter4"></feOffset>
            <feColorMatrix values="0 0 0 0 0   0 0 0 0 0   0 0 0 0 0  0 0 0 1 0" type="matrix" in="shadowOffsetOuter4" result="shadowMatrixOuter4"></feColorMatrix>
            <feOffset dx="2" dy="2" in="SourceAlpha" result="shadowOffsetOuter5"></feOffset>
            <feGaussianBlur stdDeviation="0.5" in="shadowOffsetOuter5" result="shadowBlurOuter5"></feGaussianBlur>
            <feColorMatrix values="0 0 0 0 0   0 0 0 0 0   0 0 0 0 0  0 0 0 1 0" type="matrix" in="shadowBlurOuter5" result="shadowMatrixOuter5"></feColorMatrix>
            <feOffset dx="5" dy="5" in="SourceAlpha" result="shadowOffsetOuter6"></feOffset>
            <feColorMatrix values="0 0 0 0 0   0 0 0 0 0   0 0 0 0 0  0 0 0 1 0" type="matrix" in="shadowOffsetOuter6" result="shadowMatrixOuter6"></feColorMatrix>
            <feMerge>
                <feMergeNode in="shadowMatrixOuter1"></feMergeNode>
                <feMergeNode in="shadowMatrixOuter2"></feMergeNode>
                <feMergeNode in="shadowMatrixOuter3"></feMergeNode>
                <feMergeNode in="shadowMatrixOuter4"></feMergeNode>
                <feMergeNode in="shadowMatrixOuter5"></feMergeNode>
                <feMergeNode in="shadowMatrixOuter6"></feMergeNode>
            </feMerge>
        </filter>
    </defs>
    <g id="Decktop-UI" stroke="none" stroke-width="1" fill="none" fill-rule="evenodd">
        <g id="Main-Page_v.8" transform="translate(-769.000000, -689.000000)">
            <g id="Hero" transform="translate(80.000000, 1.000000)">
                <g id="Logo-1" transform="translate(0.000000, 688.000000)">
                    <g id="logos" transform="translate(352.000000, 0.000000)">
                        <g id="Nasdaq">
                            <use fill="black" fill-opacity="1" filter="url(#filter-2)" xlink:href="#path-1"></use>
                            <use fill="#FFFFFF" fill-rule="evenodd" xlink:href="#path-1"></use>
                        </g>
                    </g>
                </g>
            </g>
        </g>
    </g>
</svg>