<?xml version="1.0" encoding="UTF-8"?>
<svg width="88px" height="24px" viewBox="0 0 88 24" version="1.1" xmlns="http://www.w3.org/2000/svg" xmlns:xlink="http://www.w3.org/1999/xlink">
    <!-- Generator: Sketch 52 (66869) - http://www.bohemiancoding.com/sketch -->
    <title>n</title>
    <desc>Created with Sketch.</desc>
    <defs>
        <polygon id="path-1" points="8e-05 0.0141517241 11.84668 0.0141517241 11.84668 24 8e-05 24"></polygon>
        <polygon id="path-3" points="0.0764644776 0.0319241379 13.5999391 0.0319241379 13.5999391 24 0.0764644776 24"></polygon>
    </defs>
    <g id="UI" stroke="none" stroke-width="1" fill="none" fill-rule="evenodd">
        <g id="Main-page_UI" transform="translate(-835.000000, -652.000000)">
            <g id="Hero-image" transform="translate(-80.000000, 20.000000)">
                <g id="Logos" transform="translate(200.000000, 624.000000)">
                    <g id="n" transform="translate(715.000000, 8.000000)">
                        <g id="Group-3">
                            <mask id="mask-2" fill="white">
                                <use xlink:href="#path-1"></use>
                            </mask>
                            <g id="Clip-2"></g>
                            <path d="M11.84668,0.0141517241 L8.20928,0.0141517241 C8.20228,5.13049655 8.19528,8.44456552 8.18828,13.5611172 C6.62548,8.56808276 5.06088,5.26249655 3.49248,0.0141517241 L8e-05,0.0141517241 L8e-05,24.0000828 C1.17888,23.8264966 2.44148,23.6601517 3.62168,23.5008414 C3.62508,18.487531 3.62848,15.4058069 3.63168,10.3922897 C5.25588,15.3269793 6.25448,18.2376 7.87388,22.9271172 C9.14348,22.7771172 10.53828,22.5925655 11.80908,22.4591172 C11.82168,14.977531 11.83408,7.49573793 11.84668,0.0141517241" id="Fill-1" fill="#575759" mask="url(#mask-2)"></path>
                        </g>
                        <path d="M25.5765045,0 L15.2416422,0 L15.2,22.4 C18.6569202,22.0789439 22.1179432,21.8165281 25.5814277,21.6127528 C25.5832739,20.5209944 25.5851201,18.9517357 25.5871715,17.8601868 C23.3350039,18.001552 21.1804802,18.1487813 18.9361078,18.3029217 C18.9400053,16.2955356 18.9439029,14.6353843 18.9478004,12.6277887 C20.5880529,12.5988874 22.3202054,12.6242284 23.9957409,12.5951177 C23.9977923,11.4977047 23.9998436,9.9227914 24.001895,8.82558785 C22.3415394,8.85553634 20.5880529,8.85909665 18.9543647,8.89072057 C18.9582623,6.88312499 18.9619547,5.78194228 18.9658522,3.7743467 C19.9937793,3.7617809 21.0009879,3.76010546 22.0063502,3.76010546 C22.1829707,3.76010546 22.359386,3.76010546 22.5360065,3.76031489 L23.0629961,3.76031489 C23.9015844,3.76031489 24.7434548,3.75926774 25.5998898,3.75172826 C25.6019411,2.65996989 25.5746583,1.09154894 25.5765045,0" id="Fill-4" fill="#575759"></path>
                        <path d="M39.2,0 C35.5096374,0 31.6953514,0.000204643841 28.0049889,0.000409287682 C28.0033924,1.06025974 28.0015964,2.58690279 28,3.6465486 C28.1606414,3.64532074 28.3210833,3.6451161 28.4817247,3.6451161 C28.9680392,3.6451161 29.4543537,3.6498229 29.9408677,3.65473436 C30.4267831,3.65964581 30.9126984,3.66455726 31.3988134,3.66455726 C31.5233354,3.66455726 31.648057,3.66414797 31.7725791,3.66353404 C31.7651955,9.54561196 31.7576125,14.9179221 31.750229,20.8 C32.9347849,20.7547737 34.2021559,20.71671 35.3869114,20.6858087 C35.3922993,14.8360645 35.3976873,9.49567887 35.4028757,3.64613932 C36.6542824,3.64122786 37.9471964,3.63733963 39.1986031,3.6348839 C39.1990022,2.59304211 39.1996009,1.04184179 39.2,0" id="Fill-6" fill="#575759"></path>
                        <path d="M51.9967127,0 L41.6030818,0 C41.6020546,6.93113029 41.6010273,13.8618475 41.6,20.7927713 C42.0018728,20.791119 42.4082657,20.7904994 42.8160967,20.7904994 C43.6471681,20.7904994 44.4846085,20.7935974 45.303147,20.8 C45.3021198,17.8587256 45.3012979,15.1743816 45.3004761,12.2329007 C45.5044944,12.2335203 45.7105672,12.2339334 45.9180782,12.2339334 C46.4013118,12.2339334 46.8923527,12.2320746 47.3854482,12.2300092 C47.8785436,12.2279439 48.3736937,12.2258785 48.8645291,12.2258785 C49.3703629,12.2258785 49.8714712,12.2279439 50.3614848,12.2347596 C50.360663,11.180395 50.3596357,9.61175665 50.3586084,8.55739209 C49.8959205,8.55264177 49.4231652,8.55098948 48.9456844,8.55098948 C48.4340979,8.55098948 47.9175804,8.55284831 47.4027065,8.55470713 C46.8886545,8.55656595 46.376657,8.55842477 45.8732887,8.55842477 C45.680776,8.55842477 45.4892906,8.55821823 45.2994488,8.55759863 C45.2988325,6.6665581 45.2984215,5.59938834 45.2980106,3.70834781 C45.704198,3.70896742 46.1095636,3.70917396 46.5136964,3.70917396 C46.9235821,3.70917396 47.3324404,3.70896742 47.7410933,3.70876089 C48.1532389,3.70855435 48.5651791,3.70834781 48.9773247,3.70834781 C49.9813904,3.70834781 50.9862779,3.70938049 52,3.71392428 C51.9989727,2.65708129 51.99774,1.05684298 51.9967127,0" id="Fill-8" fill="#575759"></path>
                        <path d="M54.4172063,0 C54.4266933,7.03574539 54.3923293,14.0714908 54.4016054,21.1072362 C57.8114474,21.2324518 61.3945853,21.3680501 64.8,21.6 C64.7978918,20.5177054 64.7957836,18.9613359 64.7938861,17.8790413 C62.6382268,17.7540334 60.3944437,17.6043146 58.2370979,17.5160615 C58.2274,11.4905546 58.2611316,6.02550688 58.2514338,0.000207654371 C57.0025217,0 55.6663292,0 54.4172063,0" id="Fill-10" fill="#575759"></path>
                        <path d="M68.8,0 C68.8121174,7.36320618 68.8242347,14.7264124 68.8363521,22.0898287 C69.8770401,22.1860743 70.9537289,22.2892546 71.9935388,22.4 C71.9972267,14.9384468 72.0058318,7.46680676 71.99389,0.00021014316 C70.9535533,0 69.8403368,0 68.8,0" id="Fill-12" fill="#575759"></path>
                        <g id="Group-16" transform="translate(74.400000, 0.000000)">
                            <mask id="mask-4" fill="white">
                                <use xlink:href="#path-3"></use>
                            </mask>
                            <g id="Clip-15"></g>
                            <path d="M0.45097194,0.0319241379 C1.92728239,3.69751034 3.27794507,7.37344138 4.77698985,11.2662 C3.2190794,15.0052345 1.63295403,18.7196483 0.0764644776,22.3064069 C1.36582567,22.436131 2.6996406,22.6258552 3.98798687,22.772131 C4.91217791,20.462131 5.7527391,18.6838552 6.67794507,16.3115793 C7.60152716,18.8386138 8.44087045,20.7910966 9.36201672,23.3996483 C10.6481301,23.5697172 12.3154496,23.8136483 13.5999391,24.0000621 C12.0428406,19.7574414 10.3399988,15.3397862 8.77417194,11.330131 C10.3335033,7.56461379 11.9242973,3.9699931 13.5439152,0.0331655172 C12.21416,0.0331655172 10.8423869,0.0329586207 9.51283463,0.0327517241 C8.51333612,2.46606207 7.82562269,4.02957931 6.86753313,6.3459931 C5.97500776,3.93585517 5.37640478,2.37626897 4.48225552,0.032337931 C3.15270328,0.0321310345 1.78072716,0.0321310345 0.45097194,0.0319241379" id="Fill-14" fill="#575759" mask="url(#mask-4)"></path>
                        </g>
                    </g>
                </g>
            </g>
        </g>
    </g>
</svg>