<svg width="149" height="28" viewBox="0 0 149 28" fill="none" xmlns="http://www.w3.org/2000/svg">
<g opacity="0.5" clip-path="url(#clip0)">
<g filter="url(#filter0_dddddd)">
<path d="M10.1433 0.580566H12.217C12.5109 0.616483 13.0987 0.693447 13.3926 0.729364C13.4144 1.60676 13.4307 2.47902 13.4307 3.35641C14.2091 2.66373 14.9983 1.98132 15.7875 1.30916C16.8053 1.83765 17.8122 2.3764 18.8083 2.93568C17.0448 4.49036 15.1942 5.96294 13.409 7.50223C13.4144 8.56434 13.409 9.63158 13.409 10.6988C15.8256 8.68235 18.1878 6.60944 20.6589 4.64942C21.2304 5.5422 21.7909 6.44525 22.3461 7.35343C19.3689 9.85734 16.4134 12.3766 13.4144 14.8549C13.4144 15.8811 13.409 16.9073 13.409 17.9335C16.6366 15.2243 19.8315 12.4793 23.0973 9.81116C23.0755 11.2837 23.1843 12.823 22.6128 14.2289C20.7514 16.1838 18.4545 17.7231 16.4515 19.5548C15.118 20.617 13.9206 22.1768 11.9884 22.1306H11.8142C11.3842 22.0947 10.5297 22.0228 10.1052 21.9869C10.0943 20.5297 10.0943 19.0777 10.1052 17.6205C8.87508 18.6723 7.63954 19.7139 6.40946 20.7658C5.59847 20.2116 4.78748 19.6575 3.98738 19.0879C3.99827 17.8668 4.00371 16.6456 4.00915 15.4296C3.39411 15.9478 2.77908 16.466 2.16404 16.9842C1.65786 15.9734 1.16801 14.9626 0.683594 13.9467C1.77216 12.9975 3.16553 12.2586 3.93842 11.0375C4.1017 8.5592 3.96017 6.07069 3.98738 3.58731C5.0433 2.84845 6.14824 2.16603 7.28579 1.52979C7.30212 3.85412 7.29123 6.17331 7.29668 8.49763C8.2274 7.69207 9.16356 6.89164 10.0997 6.09121C10.0888 4.25433 10.0834 2.41745 10.1433 0.580566ZM7.31844 12.6024C7.29667 13.6902 7.28574 14.7779 7.27485 15.8708C8.21102 15.0601 9.14723 14.2494 10.0997 13.4593C10.0943 12.3869 10.0997 11.3145 10.1052 10.2422C9.19077 11.0477 8.27094 11.8379 7.31844 12.6024ZM124.508 2.73567C125.058 2.74083 125.613 2.74599 126.168 2.75115C126.173 5.8635 126.125 8.9707 126.195 12.0779C128.059 10.2249 129.971 8.4081 131.9 6.61708C132.611 6.61708 133.317 6.61708 134.028 6.62224C133.888 6.70998 133.613 6.88547 133.473 6.97838C132.374 8.17583 131.162 9.27522 129.928 10.3436C131.259 12.5114 132.697 14.6122 134.098 16.7335C133.586 16.7335 132.563 16.7232 132.051 16.718C130.968 14.9476 129.82 13.2186 128.721 11.4585C127.897 12.305 127.057 13.136 126.2 13.9412C126.168 14.8754 126.157 15.8045 126.152 16.7387C125.597 16.7387 125.047 16.7387 124.492 16.7438C124.519 12.0727 124.492 7.40678 124.508 2.73567ZM56.4789 9.32232C56.7811 7.72519 57.8924 6.24851 59.5774 6.09141C61.5953 5.86624 64.4839 5.69868 65.4621 7.98178C66.0562 10.7885 65.5236 13.7157 65.7899 16.5696C64.9244 16.5644 64.0588 16.5644 63.1984 16.5696C63.183 16.2554 63.1574 15.6323 63.1421 15.3181C63.0499 15.4752 62.8603 15.7946 62.7682 15.9569C61.1907 16.7215 59.2394 17.1875 57.6774 16.114C55.8643 15.1453 55.6134 12.1657 57.4162 11.0451C59.1421 10.0188 61.2522 10.2073 63.1472 9.71505C63.0191 9.22282 62.8911 8.73059 62.7631 8.23837C61.4315 8.10222 59.6133 7.65188 59.0858 9.35897C58.2202 9.60508 57.3444 9.50559 56.4789 9.32232ZM59.2907 12.4275C59.1268 12.836 58.968 13.2444 58.8092 13.6529C59.0244 13.9566 59.2292 14.2603 59.4392 14.5693C60.4328 14.5693 61.6107 14.7997 62.3943 13.9985C63.1062 13.5063 62.9423 12.5009 63.1523 11.7573C61.8463 11.8777 60.5608 12.1186 59.2907 12.4275ZM89.2709 6.22816C89.7816 6.10108 90.3034 6.04731 90.8307 6.02776C92.1852 8.64267 92.646 11.5362 93.7895 14.2293C94.5445 11.4824 95.355 8.73065 96.4486 6.07664C97.5589 5.78338 98.2583 6.08641 98.5414 6.97597C99.3852 9.39538 100.079 11.8539 100.99 14.2537C101.711 11.4873 102.649 8.76487 103.61 6.05709C104.165 6.06197 104.725 6.07175 105.281 6.07664C104.209 9.28785 103.043 12.4746 101.905 15.6663C101.389 15.6614 100.351 15.6516 99.8349 15.6467C98.9633 13.0025 98.1084 10.3583 97.2369 7.71401C96.4542 10.3778 95.5548 13.0172 94.7 15.6614C94.1726 15.6565 93.129 15.6565 92.6071 15.6516C91.4802 12.5137 90.4366 9.35139 89.2709 6.22816ZM109.392 6.0181C111.247 5.75113 113.323 6.56271 114.22 8.34071C115.214 10.4818 115.137 13.2583 113.715 15.1751C111.911 17.2361 108.418 17.2681 106.569 15.2605C104.116 12.3506 105.224 6.40787 109.392 6.0181ZM108.32 7.89221C106.126 9.73428 106.409 14.7106 109.526 15.3513C111.061 15.6503 112.772 14.6305 113.035 12.9753C113.236 11.6137 113.328 10.1027 112.71 8.84261C111.901 7.24615 109.681 6.93113 108.32 7.89221ZM118.533 7.72361C119.337 6.55342 120.693 6.25112 122.005 5.96832C122.416 6.49978 122.447 7.09951 122.205 7.69923C120.799 7.53833 118.98 7.89426 118.679 9.48377C118.483 11.5316 118.629 13.5989 118.604 15.6565C118.076 15.6565 117.549 15.6614 117.021 15.6663C117.036 12.5214 117.031 9.3765 117.026 6.23161C117.418 6.22674 118.192 6.22674 118.578 6.22186C118.568 6.5973 118.543 7.34817 118.533 7.72361ZM136.691 6.38864C139.212 5.3824 142.822 6.1597 143.554 8.97077C142.929 8.99206 142.314 9.00271 141.693 9.00804C141.045 6.62289 136.037 6.72937 136.227 9.39136C138.01 11.1217 141.174 9.92908 142.973 11.686C144.421 12.9957 143.538 15.3329 141.895 16.0676C139.178 17.4465 134.596 16.797 134.098 13.3737C134.568 13.3684 135.501 13.3524 135.965 13.3418C136.513 16.1635 142.174 16.1049 141.85 13.017C140.112 11.2494 136.926 12.4899 135.132 10.7437C133.673 9.31682 134.802 6.8465 136.691 6.38864ZM27.3665 5.96832C28.3599 5.98442 29.3586 5.99515 30.352 6.01662C31.0359 8.61927 31.7416 11.2166 32.5341 13.7924C33.0932 11.1629 33.902 8.59244 34.6023 5.99515C35.4762 5.98979 36.3556 5.97905 37.2295 5.97369C37.9786 8.50121 38.6788 11.0448 39.3194 13.6046C40.2693 11.297 40.7307 8.46365 41.5612 5.97905C42.522 5.98442 43.4828 5.98979 44.4436 5.98979C43.4013 9.57447 42.2886 13.1323 41.2681 16.7224C40.1227 16.7277 38.9774 16.7331 37.832 16.7385C37.1806 14.3022 36.5782 11.8498 35.8725 9.42421C35.3514 11.8873 34.6783 14.3183 34.0052 16.7438C32.8816 16.7331 31.7634 16.7331 30.6451 16.7438C29.5052 13.1645 28.5282 9.53691 27.3665 5.96832ZM44.8691 9.04049C46.1291 5.60415 51.5855 4.9002 53.873 7.69515C54.9004 8.85798 54.9869 10.4328 55.1167 11.8824C52.4669 11.9241 49.8118 11.8615 47.1674 11.9241C47.4053 13.2016 48.2165 14.6982 49.7956 14.5157C50.9744 14.7243 51.7045 13.7909 52.348 13.0191C53.224 13.0296 54.1055 13.0504 54.9815 13.0713C54.3434 16.4346 49.9091 17.6287 47.0647 16.0644C44.4365 14.8286 43.9552 11.4652 44.8691 9.04049ZM47.427 10.1095C49.0331 10.1355 50.6445 10.1303 52.2506 10.1095C52.0181 7.43443 47.6433 7.47093 47.427 10.1095ZM66.8572 6.00055C67.8096 5.98981 68.762 5.97906 69.7144 5.96832C70.5478 8.7186 71.4899 11.442 72.111 14.2514C73.0841 11.5495 73.8502 8.77232 74.6628 6.01129C75.6204 5.99518 76.5728 5.98444 77.5304 5.97907C76.3399 9.56195 75.1338 13.1341 73.9847 16.7277C72.7787 16.7438 71.5778 16.7438 70.377 16.7438C69.202 13.1663 68.0218 9.58344 66.8572 6.00055ZM80.4293 16.1723C76.4936 14.5169 76.6176 8.1404 80.4832 6.46403C82.5427 5.62324 85.3192 5.77469 86.8557 7.51895C87.907 8.73053 88.1334 10.3547 88.2035 11.8796C85.5779 11.9057 82.947 11.8587 80.3215 11.9161C80.4293 13.2844 81.432 14.7728 83.0387 14.5116C84.1385 14.6683 84.7531 13.7387 85.3677 13.0337C86.2357 13.0285 87.1037 13.0389 87.9771 13.0494C87.562 16.3656 83.1896 17.5667 80.4293 16.1723ZM80.4293 10.0936C82.0359 10.1249 83.6479 10.1197 85.2599 10.104C85.1089 7.38316 80.7797 7.49805 80.4293 10.0936Z" fill="black"/>
</g>
<path d="M10.1433 0.580566H12.217C12.5109 0.616483 13.0987 0.693447 13.3926 0.729364C13.4144 1.60676 13.4307 2.47902 13.4307 3.35641C14.2091 2.66373 14.9983 1.98132 15.7875 1.30916C16.8053 1.83765 17.8122 2.3764 18.8083 2.93568C17.0448 4.49036 15.1942 5.96294 13.409 7.50223C13.4144 8.56434 13.409 9.63158 13.409 10.6988C15.8256 8.68235 18.1878 6.60944 20.6589 4.64942C21.2304 5.5422 21.7909 6.44525 22.3461 7.35343C19.3689 9.85734 16.4134 12.3766 13.4144 14.8549C13.4144 15.8811 13.409 16.9073 13.409 17.9335C16.6366 15.2243 19.8315 12.4793 23.0973 9.81116C23.0755 11.2837 23.1843 12.823 22.6128 14.2289C20.7514 16.1838 18.4545 17.7231 16.4515 19.5548C15.118 20.617 13.9206 22.1768 11.9884 22.1306H11.8142C11.3842 22.0947 10.5297 22.0228 10.1052 21.9869C10.0943 20.5297 10.0943 19.0777 10.1052 17.6205C8.87508 18.6723 7.63954 19.7139 6.40946 20.7658C5.59847 20.2116 4.78748 19.6575 3.98738 19.0879C3.99827 17.8668 4.00371 16.6456 4.00915 15.4296C3.39411 15.9478 2.77908 16.466 2.16404 16.9842C1.65786 15.9734 1.16801 14.9626 0.683594 13.9467C1.77216 12.9975 3.16553 12.2586 3.93842 11.0375C4.1017 8.5592 3.96017 6.07069 3.98738 3.58731C5.0433 2.84845 6.14824 2.16603 7.28579 1.52979C7.30212 3.85412 7.29123 6.17331 7.29668 8.49763C8.2274 7.69207 9.16356 6.89164 10.0997 6.09121C10.0888 4.25433 10.0834 2.41745 10.1433 0.580566ZM7.31844 12.6024C7.29667 13.6902 7.28574 14.7779 7.27485 15.8708C8.21102 15.0601 9.14723 14.2494 10.0997 13.4593C10.0943 12.3869 10.0997 11.3145 10.1052 10.2422C9.19077 11.0477 8.27094 11.8379 7.31844 12.6024ZM124.508 2.73567C125.058 2.74083 125.613 2.74599 126.168 2.75115C126.173 5.8635 126.125 8.9707 126.195 12.0779C128.059 10.2249 129.971 8.4081 131.9 6.61708C132.611 6.61708 133.317 6.61708 134.028 6.62224C133.888 6.70998 133.613 6.88547 133.473 6.97838C132.374 8.17583 131.162 9.27522 129.928 10.3436C131.259 12.5114 132.697 14.6122 134.098 16.7335C133.586 16.7335 132.563 16.7232 132.051 16.718C130.968 14.9476 129.82 13.2186 128.721 11.4585C127.897 12.305 127.057 13.136 126.2 13.9412C126.168 14.8754 126.157 15.8045 126.152 16.7387C125.597 16.7387 125.047 16.7387 124.492 16.7438C124.519 12.0727 124.492 7.40678 124.508 2.73567ZM56.4789 9.32232C56.7811 7.72519 57.8924 6.24851 59.5774 6.09141C61.5953 5.86624 64.4839 5.69868 65.4621 7.98178C66.0562 10.7885 65.5236 13.7157 65.7899 16.5696C64.9244 16.5644 64.0588 16.5644 63.1984 16.5696C63.183 16.2554 63.1574 15.6323 63.1421 15.3181C63.0499 15.4752 62.8603 15.7946 62.7682 15.9569C61.1907 16.7215 59.2394 17.1875 57.6774 16.114C55.8643 15.1453 55.6134 12.1657 57.4162 11.0451C59.1421 10.0188 61.2522 10.2073 63.1472 9.71505C63.0191 9.22282 62.8911 8.73059 62.7631 8.23837C61.4315 8.10222 59.6133 7.65188 59.0858 9.35897C58.2202 9.60508 57.3444 9.50559 56.4789 9.32232ZM59.2907 12.4275C59.1268 12.836 58.968 13.2444 58.8092 13.6529C59.0244 13.9566 59.2292 14.2603 59.4392 14.5693C60.4328 14.5693 61.6107 14.7997 62.3943 13.9985C63.1062 13.5063 62.9423 12.5009 63.1523 11.7573C61.8463 11.8777 60.5608 12.1186 59.2907 12.4275ZM89.2709 6.22816C89.7816 6.10108 90.3034 6.04731 90.8307 6.02776C92.1852 8.64267 92.646 11.5362 93.7895 14.2293C94.5445 11.4824 95.355 8.73065 96.4486 6.07664C97.5589 5.78338 98.2583 6.08641 98.5414 6.97597C99.3852 9.39538 100.079 11.8539 100.99 14.2537C101.711 11.4873 102.649 8.76487 103.61 6.05709C104.165 6.06197 104.725 6.07175 105.281 6.07664C104.209 9.28785 103.043 12.4746 101.905 15.6663C101.389 15.6614 100.351 15.6516 99.8349 15.6467C98.9633 13.0025 98.1084 10.3583 97.2369 7.71401C96.4542 10.3778 95.5548 13.0172 94.7 15.6614C94.1726 15.6565 93.129 15.6565 92.6071 15.6516C91.4802 12.5137 90.4366 9.35139 89.2709 6.22816ZM109.392 6.0181C111.247 5.75113 113.323 6.56271 114.22 8.34071C115.214 10.4818 115.137 13.2583 113.715 15.1751C111.911 17.2361 108.418 17.2681 106.569 15.2605C104.116 12.3506 105.224 6.40787 109.392 6.0181ZM108.32 7.89221C106.126 9.73428 106.409 14.7106 109.526 15.3513C111.061 15.6503 112.772 14.6305 113.035 12.9753C113.236 11.6137 113.328 10.1027 112.71 8.84261C111.901 7.24615 109.681 6.93113 108.32 7.89221ZM118.533 7.72361C119.337 6.55342 120.693 6.25112 122.005 5.96832C122.416 6.49978 122.447 7.09951 122.205 7.69923C120.799 7.53833 118.98 7.89426 118.679 9.48377C118.483 11.5316 118.629 13.5989 118.604 15.6565C118.076 15.6565 117.549 15.6614 117.021 15.6663C117.036 12.5214 117.031 9.3765 117.026 6.23161C117.418 6.22674 118.192 6.22674 118.578 6.22186C118.568 6.5973 118.543 7.34817 118.533 7.72361ZM136.691 6.38864C139.212 5.3824 142.822 6.1597 143.554 8.97077C142.929 8.99206 142.314 9.00271 141.693 9.00804C141.045 6.62289 136.037 6.72937 136.227 9.39136C138.01 11.1217 141.174 9.92908 142.973 11.686C144.421 12.9957 143.538 15.3329 141.895 16.0676C139.178 17.4465 134.596 16.797 134.098 13.3737C134.568 13.3684 135.501 13.3524 135.965 13.3418C136.513 16.1635 142.174 16.1049 141.85 13.017C140.112 11.2494 136.926 12.4899 135.132 10.7437C133.673 9.31682 134.802 6.8465 136.691 6.38864ZM27.3665 5.96832C28.3599 5.98442 29.3586 5.99515 30.352 6.01662C31.0359 8.61927 31.7416 11.2166 32.5341 13.7924C33.0932 11.1629 33.902 8.59244 34.6023 5.99515C35.4762 5.98979 36.3556 5.97905 37.2295 5.97369C37.9786 8.50121 38.6788 11.0448 39.3194 13.6046C40.2693 11.297 40.7307 8.46365 41.5612 5.97905C42.522 5.98442 43.4828 5.98979 44.4436 5.98979C43.4013 9.57447 42.2886 13.1323 41.2681 16.7224C40.1227 16.7277 38.9774 16.7331 37.832 16.7385C37.1806 14.3022 36.5782 11.8498 35.8725 9.42421C35.3514 11.8873 34.6783 14.3183 34.0052 16.7438C32.8816 16.7331 31.7634 16.7331 30.6451 16.7438C29.5052 13.1645 28.5282 9.53691 27.3665 5.96832ZM44.8691 9.04049C46.1291 5.60415 51.5855 4.9002 53.873 7.69515C54.9004 8.85798 54.9869 10.4328 55.1167 11.8824C52.4669 11.9241 49.8118 11.8615 47.1674 11.9241C47.4053 13.2016 48.2165 14.6982 49.7956 14.5157C50.9744 14.7243 51.7045 13.7909 52.348 13.0191C53.224 13.0296 54.1055 13.0504 54.9815 13.0713C54.3434 16.4346 49.9091 17.6287 47.0647 16.0644C44.4365 14.8286 43.9552 11.4652 44.8691 9.04049ZM47.427 10.1095C49.0331 10.1355 50.6445 10.1303 52.2506 10.1095C52.0181 7.43443 47.6433 7.47093 47.427 10.1095ZM66.8572 6.00055C67.8096 5.98981 68.762 5.97906 69.7144 5.96832C70.5478 8.7186 71.4899 11.442 72.111 14.2514C73.0841 11.5495 73.8502 8.77232 74.6628 6.01129C75.6204 5.99518 76.5728 5.98444 77.5304 5.97907C76.3399 9.56195 75.1338 13.1341 73.9847 16.7277C72.7787 16.7438 71.5778 16.7438 70.377 16.7438C69.202 13.1663 68.0218 9.58344 66.8572 6.00055ZM80.4293 16.1723C76.4936 14.5169 76.6176 8.1404 80.4832 6.46403C82.5427 5.62324 85.3192 5.77469 86.8557 7.51895C87.907 8.73053 88.1334 10.3547 88.2035 11.8796C85.5779 11.9057 82.947 11.8587 80.3215 11.9161C80.4293 13.2844 81.432 14.7728 83.0387 14.5116C84.1385 14.6683 84.7531 13.7387 85.3677 13.0337C86.2357 13.0285 87.1037 13.0389 87.9771 13.0494C87.562 16.3656 83.1896 17.5667 80.4293 16.1723ZM80.4293 10.0936C82.0359 10.1249 83.6479 10.1197 85.2599 10.104C85.1089 7.38316 80.7797 7.49805 80.4293 10.0936Z" fill="white"/>
</g>
<defs>
<filter id="filter0_dddddd" x="-2.31641" y="-2.41943" width="154.02" height="32.551" filterUnits="userSpaceOnUse" color-interpolation-filters="sRGB">
<feFlood flood-opacity="0" result="BackgroundImageFix"/>
<feColorMatrix in="SourceAlpha" type="matrix" values="0 0 0 0 0 0 0 0 0 0 0 0 0 0 0 0 0 0 127 0"/>
<feOffset dx="1" dy="1"/>
<feGaussianBlur stdDeviation="2"/>
<feColorMatrix type="matrix" values="0 0 0 0 0 0 0 0 0 0 0 0 0 0 0 0 0 0 1 0"/>
<feBlend mode="normal" in2="BackgroundImageFix" result="effect1_dropShadow"/>
<feColorMatrix in="SourceAlpha" type="matrix" values="0 0 0 0 0 0 0 0 0 0 0 0 0 0 0 0 0 0 127 0"/>
<feOffset dx="2" dy="2"/>
<feGaussianBlur stdDeviation="2"/>
<feColorMatrix type="matrix" values="0 0 0 0 0 0 0 0 0 0 0 0 0 0 0 0 0 0 1 0"/>
<feBlend mode="normal" in2="effect1_dropShadow" result="effect2_dropShadow"/>
<feColorMatrix in="SourceAlpha" type="matrix" values="0 0 0 0 0 0 0 0 0 0 0 0 0 0 0 0 0 0 127 0"/>
<feOffset dx="3" dy="3"/>
<feGaussianBlur stdDeviation="2"/>
<feColorMatrix type="matrix" values="0 0 0 0 0 0 0 0 0 0 0 0 0 0 0 0 0 0 1 0"/>
<feBlend mode="normal" in2="effect2_dropShadow" result="effect3_dropShadow"/>
<feColorMatrix in="SourceAlpha" type="matrix" values="0 0 0 0 0 0 0 0 0 0 0 0 0 0 0 0 0 0 127 0"/>
<feOffset dx="4" dy="4"/>
<feGaussianBlur stdDeviation="2"/>
<feColorMatrix type="matrix" values="0 0 0 0 0 0 0 0 0 0 0 0 0 0 0 0 0 0 1 0"/>
<feBlend mode="normal" in2="effect3_dropShadow" result="effect4_dropShadow"/>
<feColorMatrix in="SourceAlpha" type="matrix" values="0 0 0 0 0 0 0 0 0 0 0 0 0 0 0 0 0 0 127 0"/>
<feOffset dx="2" dy="2"/>
<feGaussianBlur stdDeviation="0.5"/>
<feColorMatrix type="matrix" values="0 0 0 0 0 0 0 0 0 0 0 0 0 0 0 0 0 0 1 0"/>
<feBlend mode="normal" in2="effect4_dropShadow" result="effect5_dropShadow"/>
<feColorMatrix in="SourceAlpha" type="matrix" values="0 0 0 0 0 0 0 0 0 0 0 0 0 0 0 0 0 0 127 0"/>
<feOffset dx="3" dy="3"/>
<feGaussianBlur stdDeviation="1"/>
<feColorMatrix type="matrix" values="0 0 0 0 0 0 0 0 0 0 0 0 0 0 0 0 0 0 1 0"/>
<feBlend mode="normal" in2="effect5_dropShadow" result="effect6_dropShadow"/>
<feBlend mode="normal" in="SourceGraphic" in2="effect6_dropShadow" result="shape"/>
</filter>
<clipPath id="clip0">
<rect width="147.918" height="26.449" fill="white" transform="translate(0.683594 0.580566)"/>
</clipPath>
</defs>
</svg>
