<?xml version="1.0" encoding="UTF-8"?>
<svg width="151px" height="27px" viewBox="0 0 151 27" version="1.1" xmlns="http://www.w3.org/2000/svg" xmlns:xlink="http://www.w3.org/1999/xlink">
    <!-- Generator: Sketch 52.1 (67048) - http://www.bohemiancoding.com/sketch -->
    <title>weaveworks</title>
    <desc>Created with Sketch.</desc>
    <defs>
        <path d="M535.656745,8 L537.773673,8 C538.07371,8.03666496 538.673784,8.11523274 538.973821,8.1518977 C538.996046,9.04757033 539.012714,9.93800511 539.012714,10.8336777 C539.807257,10.1265678 540.612912,9.4299335 541.418566,8.74377493 C542.457583,9.28327365 543.485488,9.83324808 544.50228,10.4041739 C542.702058,11.991243 540.812936,13.4945064 538.99049,15.0658619 C538.996046,16.1500972 538.99049,17.2395703 538.99049,18.3290434 C541.45746,16.2705677 543.868868,14.1544757 546.391401,12.1536164 C546.974807,13.0650025 547.547099,13.9868644 548.113836,14.9139642 C545.074572,17.4700358 542.057534,20.0418209 538.996046,22.5717033 C538.996046,23.6192736 538.99049,24.6668439 538.99049,25.7144143 C542.28534,22.9488286 545.546853,20.146578 548.880597,17.4228951 C548.858372,18.9261585 548.969497,20.497514 548.386092,21.9326854 C546.485858,23.9283069 544.141124,25.4996624 542.096428,27.3695754 C540.735149,28.4538107 539.512776,30.0461176 537.540311,29.9989769 L537.362511,29.9989769 C536.923568,29.962312 536.051238,29.888982 535.617852,29.8523171 C535.606739,28.3647672 535.606739,26.8824552 535.617852,25.3949053 C534.362141,26.4686649 533.100875,27.5319488 531.845165,28.6057084 C531.017285,28.0400204 530.189405,27.4743324 529.372638,26.8929309 C529.38375,25.6463222 529.389307,24.3997135 529.394863,23.1583427 C528.767008,23.6873657 528.139152,24.2163887 527.511297,24.7454117 C526.994567,23.7135549 526.494505,22.6816982 526,21.6446035 C527.111248,20.675601 528.533646,19.9213503 529.322632,18.6747417 C529.489319,16.1448593 529.344857,13.6045013 529.372638,11.0693811 C530.450548,10.3151304 531.578465,9.61849616 532.739719,8.96900255 C532.756388,11.3417494 532.745276,13.7092583 532.750832,16.0820051 C533.700949,15.2596624 534.656622,14.4425575 535.612295,13.6254527 C535.601183,11.7503018 535.595627,9.87515089 535.656745,8 Z M532.773057,20.2722864 C532.750832,21.382711 532.739719,22.4931355 532.728607,23.6087979 C533.68428,22.7812173 534.639953,21.9536368 535.612295,21.1470076 C535.606739,20.0522966 535.612295,18.9575856 535.617852,17.8628747 C534.684403,18.6852174 533.745399,19.4918465 532.773057,20.2722864 Z M652.404559,10.2 C652.965528,10.205269 653.531998,10.210538 654.098467,10.2158069 C654.103967,13.3929993 654.05447,16.5649226 654.125966,19.736846 C656.028863,17.8452837 657.981257,15.9906043 659.950151,14.1622697 C660.676112,14.1622697 661.396573,14.1622697 662.122534,14.1675387 C661.979541,14.2571113 661.699057,14.4362564 661.556064,14.531098 C660.434125,15.7535004 659.196692,16.8757922 657.93726,17.9664702 C659.295686,20.1794399 660.764107,22.323913 662.19403,24.489462 C661.671558,24.489462 660.626615,24.4789241 660.104143,24.4736551 C658.998703,22.6663965 657.827266,20.9012896 656.705326,19.1045689 C655.863872,19.9686809 655.005918,20.816986 654.131465,21.6389462 C654.098467,22.5926308 654.087468,23.5410464 654.081968,24.494731 C653.515499,24.494731 652.954529,24.494731 652.38806,24.5 C652.415558,19.731577 652.38806,14.968423 652.404559,10.2 Z M582.957726,16.9238681 C583.266193,15.2934706 584.400723,13.7860211 586.120818,13.6256541 C588.180749,13.3957948 591.129483,13.2247367 592.128078,15.5554033 C592.734556,18.4206264 592.190818,21.4087976 592.462687,24.3221309 C591.579112,24.3167853 590.695538,24.3167853 589.817192,24.3221309 C589.801507,24.0013969 589.775365,23.3652746 589.759681,23.0445407 C589.665572,23.2049077 589.472127,23.5309872 589.378018,23.6966997 C587.767717,24.4771523 585.775753,24.9529076 584.181137,23.8570667 C582.330336,22.868137 582.074152,19.8265102 583.914496,18.6825592 C585.676417,17.6348283 587.830456,17.8272687 589.764909,17.3247855 C589.634203,16.8223023 589.503496,16.3198192 589.37279,15.817336 C588.013445,15.6783513 586.157416,15.2186327 585.618906,16.961287 C584.735331,17.2125286 583.8413,17.1109629 582.957726,16.9238681 Z M585.828036,20.0937885 C585.660732,20.5107426 585.498656,20.9276967 585.33658,21.3446508 C585.556167,21.6546936 585.765297,21.9647364 585.979655,22.2801248 C586.993936,22.2801248 588.196434,22.5153297 588.996356,21.6974582 C589.723083,21.194975 589.555779,20.1686264 589.770137,19.4095561 C588.436933,19.5325041 587.124642,19.7784001 585.828036,20.0937885 Z M616.432836,13.7652475 C616.954189,13.6355201 617.486876,13.5806354 618.025229,13.5606774 C619.407948,16.2300676 619.878299,19.1838602 621.045677,21.9330827 C621.816372,19.1289756 622.643737,16.3198789 623.760112,13.6105725 C624.893489,13.3112016 625.607515,13.6205515 625.896526,14.5286432 C626.757892,16.9984529 627.466252,19.5081787 628.395621,21.9580303 C629.132315,19.1339651 630.090018,16.3548055 631.070388,13.5906145 C631.637076,13.595604 632.209431,13.605583 632.776119,13.6105725 C631.682411,16.8886836 630.492367,20.141847 629.330656,23.4 C628.803636,23.3950105 627.743929,23.3850315 627.21691,23.3800419 C626.327209,20.6807146 625.45451,17.9813872 624.564809,15.2820599 C623.765779,18.0013453 622.847745,20.6956831 621.975045,23.3950105 C621.436691,23.390021 620.371318,23.390021 619.838631,23.3850315 C618.688254,20.1817631 617.622881,16.9535472 616.432836,13.7652475 Z M636.973289,13.5508124 C638.866663,13.2782831 640.98619,14.1067721 641.901321,15.921817 C642.91638,18.1075016 642.837489,20.9418059 641.385903,22.898566 C639.545122,25.0024919 635.979268,25.0351954 634.091154,22.9857754 C631.587692,20.0152065 632.718457,13.9487051 636.973289,13.5508124 Z M635.87934,15.4639678 C633.638848,17.3444197 633.928113,22.4243651 637.110033,23.0784353 C638.677326,23.3836681 640.423437,22.3426063 640.691665,20.6529249 C640.896781,19.2630257 640.99145,17.7205101 640.360325,16.434172 C639.534604,14.804447 637.267814,14.4828625 635.87934,15.4639678 Z M646.304816,15.2918552 C647.125345,14.0972851 648.509989,13.7886878 649.848478,13.5 C650.269,14.0425339 650.29977,14.6547511 650.053611,15.2669683 C648.617684,15.1027149 646.761235,15.4660633 646.453537,17.0886878 C646.253532,19.1791855 646.402253,21.2895928 646.376612,23.3900452 C645.838139,23.3900452 645.299667,23.3950226 644.761194,23.4 C644.776579,20.1895928 644.771451,16.9791855 644.766322,13.7687783 C645.166331,13.7638009 645.95609,13.7638009 646.35097,13.7588235 C646.340714,14.1420814 646.315072,14.9085973 646.304816,15.2918552 Z M664.841276,13.9290714 C667.414354,12.9018762 671.09996,13.6953709 671.847351,16.5649957 C671.20836,16.5867353 670.58078,16.5976051 669.947495,16.60304 C669.285683,14.1682068 664.173759,14.2769047 664.367739,16.9943525 C666.18772,18.7606935 669.416905,17.5432769 671.254002,19.3367924 C672.731668,20.6737767 671.830235,23.0596958 670.152885,23.8097113 C667.380122,25.2173493 662.701799,24.554292 662.19403,21.0596542 C662.673273,21.0542194 663.626053,21.0379147 664.099591,21.0270449 C664.658708,23.9075395 670.438148,23.8477556 670.107243,20.6955163 C668.332903,18.891131 665.080898,20.1574616 663.249505,18.3748159 C661.760429,16.9182639 662.912894,14.3964724 664.841276,13.9290714 Z M553.238806,13.5 C554.252858,13.5164343 555.272452,13.5273904 556.286505,13.5493028 C556.984705,16.2061753 557.70507,18.8575697 558.514095,21.4870518 C559.084846,18.8027888 559.910495,16.1787849 560.625319,13.5273904 C561.517464,13.5219124 562.415149,13.5109562 563.307294,13.5054781 C564.071989,16.0856574 564.786813,18.6822709 565.440683,21.2953187 C566.410405,18.939741 566.881413,16.0473108 567.729227,13.5109562 C568.710032,13.5164343 569.690837,13.5219124 570.671642,13.5219124 C569.607718,17.1812749 568.471758,20.813247 567.429999,24.4780876 C566.260791,24.4835657 565.091583,24.4890438 563.922375,24.4945219 C563.257422,22.0074701 562.642341,19.5039841 561.921976,17.0278884 C561.390014,19.5423307 560.702897,22.0239044 560.015779,24.5 C558.868736,24.4890438 557.727235,24.4890438 556.585733,24.5 C555.422066,20.8461155 554.424638,17.1429283 553.238806,13.5 Z M571.106063,16.6361701 C572.392309,13.1282411 577.962362,12.4096214 580.297479,15.2628079 C581.346349,16.4498613 581.434675,18.0574402 581.567164,19.5372646 C578.862183,19.5798494 576.151681,19.5159721 573.45222,19.5798494 C573.695116,20.8840112 574.523172,22.4117435 576.13512,22.2254347 C577.338561,22.4383591 578.083811,21.4855225 578.740735,20.6977024 C579.635035,20.7083486 580.534855,20.729641 581.429155,20.7509335 C580.777751,24.1843389 576.251048,25.4033309 573.347333,23.8063981 C570.664433,22.5448213 570.17312,19.1114158 571.106063,16.6361701 Z M573.717198,17.7274075 C575.356748,17.754023 577.001818,17.7486999 578.641368,17.7274075 C578.403992,14.9966525 573.938013,15.0339142 573.717198,17.7274075 Z M593.552239,13.5329013 C594.524487,13.5219342 595.496736,13.5109671 596.468984,13.5 C597.319701,16.3075773 598.281382,19.0877368 598.915457,21.9556331 C599.908841,19.1974078 600.690867,16.3624128 601.520448,13.5438684 C602.497981,13.5274177 603.470229,13.5164506 604.447761,13.5109671 C603.232451,17.1684945 602.001288,20.8150548 600.82825,24.4835494 C599.597087,24.5 598.371209,24.5 597.145331,24.5 C595.945872,20.8479561 594.741129,17.1904287 593.552239,13.5329013 Z M607.407041,23.916604 C603.389388,22.2266369 603.515971,15.7173313 607.462078,14.0060397 C609.564466,13.1477283 612.398839,13.302331 613.967375,15.0829273 C615.040584,16.3197486 615.271736,17.977729 615.343284,19.534418 C612.663013,19.5610736 609.977239,19.5130935 607.296969,19.5717359 C607.407041,20.968491 608.430718,22.4878621 610.070801,22.2213058 C611.193543,22.3812396 611.820957,21.432299 612.448371,20.7125969 C613.334457,20.7072658 614.220542,20.7179281 615.112131,20.7285903 C614.688351,24.1138557 610.224903,25.3400148 607.407041,23.916604 Z M607.407041,17.7111727 C609.047125,17.7431594 610.692712,17.7378283 612.338299,17.7218349 C612.184197,14.944318 607.764778,15.0616028 607.407041,17.7111727 Z" id="path-1"></path>
        <filter x="-1.7%" y="-11.4%" width="106.8%" height="145.5%" filterUnits="objectBoundingBox" id="filter-2">
            <feOffset dx="1" dy="1" in="SourceAlpha" result="shadowOffsetOuter1"></feOffset>
            <feColorMatrix values="0 0 0 0 0   0 0 0 0 0   0 0 0 0 0  0 0 0 1 0" type="matrix" in="shadowOffsetOuter1" result="shadowMatrixOuter1"></feColorMatrix>
            <feOffset dx="2" dy="2" in="SourceAlpha" result="shadowOffsetOuter2"></feOffset>
            <feColorMatrix values="0 0 0 0 0   0 0 0 0 0   0 0 0 0 0  0 0 0 1 0" type="matrix" in="shadowOffsetOuter2" result="shadowMatrixOuter2"></feColorMatrix>
            <feOffset dx="3" dy="3" in="SourceAlpha" result="shadowOffsetOuter3"></feOffset>
            <feColorMatrix values="0 0 0 0 0   0 0 0 0 0   0 0 0 0 0  0 0 0 1 0" type="matrix" in="shadowOffsetOuter3" result="shadowMatrixOuter3"></feColorMatrix>
            <feOffset dx="4" dy="4" in="SourceAlpha" result="shadowOffsetOuter4"></feOffset>
            <feColorMatrix values="0 0 0 0 0   0 0 0 0 0   0 0 0 0 0  0 0 0 1 0" type="matrix" in="shadowOffsetOuter4" result="shadowMatrixOuter4"></feColorMatrix>
            <feOffset dx="2" dy="2" in="SourceAlpha" result="shadowOffsetOuter5"></feOffset>
            <feGaussianBlur stdDeviation="0.5" in="shadowOffsetOuter5" result="shadowBlurOuter5"></feGaussianBlur>
            <feColorMatrix values="0 0 0 0 0   0 0 0 0 0   0 0 0 0 0  0 0 0 1 0" type="matrix" in="shadowBlurOuter5" result="shadowMatrixOuter5"></feColorMatrix>
            <feOffset dx="3" dy="3" in="SourceAlpha" result="shadowOffsetOuter6"></feOffset>
            <feGaussianBlur stdDeviation="1" in="shadowOffsetOuter6" result="shadowBlurOuter6"></feGaussianBlur>
            <feColorMatrix values="0 0 0 0 0   0 0 0 0 0   0 0 0 0 0  0 0 0 1 0" type="matrix" in="shadowBlurOuter6" result="shadowMatrixOuter6"></feColorMatrix>
            <feMerge>
                <feMergeNode in="shadowMatrixOuter1"></feMergeNode>
                <feMergeNode in="shadowMatrixOuter2"></feMergeNode>
                <feMergeNode in="shadowMatrixOuter3"></feMergeNode>
                <feMergeNode in="shadowMatrixOuter4"></feMergeNode>
                <feMergeNode in="shadowMatrixOuter5"></feMergeNode>
                <feMergeNode in="shadowMatrixOuter6"></feMergeNode>
            </feMerge>
        </filter>
    </defs>
    <g id="Decktop-UI" stroke="none" stroke-width="1" fill="none" fill-rule="evenodd">
        <g id="Main-Page_v.8" transform="translate(-958.000000, -697.000000)">
            <g id="Hero" transform="translate(80.000000, 1.000000)">
                <g id="Logo-1" transform="translate(0.000000, 688.000000)">
                    <g id="logos" transform="translate(352.000000, 0.000000)">
                        <g id="weaveworks">
                            <use fill="black" fill-opacity="1" filter="url(#filter-2)" xlink:href="#path-1"></use>
                            <use fill="#FFFFFF" fill-rule="evenodd" xlink:href="#path-1"></use>
                        </g>
                    </g>
                </g>
            </g>
        </g>
    </g>
</svg>