<svg id="Layer_1" data-name="Layer 1" xmlns="http://www.w3.org/2000/svg" xmlns:xlink="http://www.w3.org/1999/xlink" viewBox="0 0 1192.2 383.81"><defs><style>.cls-1,.cls-7,.cls-9{fill:none;}.cls-2{fill:#fa1100;}.cls-3{fill:blue;}.cls-4{fill:lime;}.cls-5{fill:#ccc;}.cls-10,.cls-11,.cls-6{fill:#231f20;}.cls-7{stroke:#231f20;stroke-linecap:round;stroke-width:1.23px;}.cls-7,.cls-9{stroke-miterlimit:10;}.cls-8{clip-path:url(#clip-path);}.cls-9{stroke:#221f1f;stroke-width:1.19px;}.cls-10,.cls-11{isolation:isolate;}.cls-10{font-size:29.13px;font-family:OpenSans-Extrabold, Open Sans;font-weight:700;}.cls-11{font-size:23.3px;font-family:OpenSans-Light, Open Sans;}</style><clipPath id="clip-path" transform="translate(-86.9 -71.59)"><polygon class="cls-1" points="135.4 235.9 220.2 149.1 298.6 149.1 298.6 270.3 131 270.3 135.4 235.9"/></clipPath></defs><title>blog banner</title><circle class="cls-2" cx="974" cy="168.51" r="6.4"/><circle class="cls-2" cx="945.9" cy="168.51" r="6.4"/><circle class="cls-2" cx="917.8" cy="168.51" r="6.4"/><circle class="cls-2" cx="974" cy="141.51" r="6.4"/><circle class="cls-2" cx="945.9" cy="141.51" r="6.4"/><circle class="cls-2" cx="917.8" cy="141.51" r="6.4"/><circle class="cls-2" cx="974" cy="114.41" r="6.4"/><circle class="cls-2" cx="945.9" cy="114.41" r="6.4"/><circle class="cls-2" cx="1004.64" cy="186.04" r="6.4" transform="translate(708.43 1114.5) rotate(-88.67)"/><path class="cls-3" d="M486.4,409.9a36.11,36.11,0,1,1,35.3,36.9A36.22,36.22,0,0,1,486.4,409.9Z" transform="translate(-86.9 -71.59)"/><path class="cls-4" d="M287.5,408.8a36.11,36.11,0,1,1,35.3,36.9A36.22,36.22,0,0,1,287.5,408.8Z" transform="translate(-86.9 -71.59)"/><path class="cls-4" d="M525,249.2a36.11,36.11,0,1,0-35.3-36.9A36,36,0,0,0,525,249.2Zm1.1-48A11.85,11.85,0,1,1,514,212.8,11.91,11.91,0,0,1,526.1,201.2Z" transform="translate(-86.9 -71.59)"/><path class="cls-5" d="M426.3,150.4A36.11,36.11,0,1,0,391,113.5,36,36,0,0,0,426.3,150.4Zm1.1-47.9a11.85,11.85,0,1,1-12.1,11.6A11.72,11.72,0,0,1,427.4,102.5Z" transform="translate(-86.9 -71.59)"/><path class="cls-5" d="M900.2,212.2a36.11,36.11,0,1,1,35.3,36.9A36.22,36.22,0,0,1,900.2,212.2Z" transform="translate(-86.9 -71.59)"/><path class="cls-2" d="M541.6,136.4a12.5,12.5,0,1,1,12.2,12.8A12.51,12.51,0,0,1,541.6,136.4Z" transform="translate(-86.9 -71.59)"/><path class="cls-2" d="M493.4,136.4a12.5,12.5,0,1,1,12.2,12.8A12.51,12.51,0,0,1,493.4,136.4Z" transform="translate(-86.9 -71.59)"/><path class="cls-2" d="M541.6,93.5a12.5,12.5,0,1,1,12.2,12.8A12.64,12.64,0,0,1,541.6,93.5Z" transform="translate(-86.9 -71.59)"/><path class="cls-2" d="M493.4,93.5a12.5,12.5,0,1,1,12.2,12.8A12.51,12.51,0,0,1,493.4,93.5Z" transform="translate(-86.9 -71.59)"/><rect class="cls-5" x="701.9" y="107.01" width="72.2" height="72.2"/><rect class="cls-5" x="566.8" y="5.91" width="7.4" height="72.2"/><rect class="cls-5" x="540.2" y="5.91" width="7.4" height="72.2"/><rect class="cls-5" x="513.5" y="5.91" width="7.4" height="72.2"/><rect class="cls-4" x="559.3" y="15.81" width="20.7" height="6.4"/><rect class="cls-3" x="533.5" y="54.41" width="20.7" height="6.4"/><rect class="cls-2" x="506.9" y="31.51" width="20.7" height="6.4"/><path class="cls-5" d="M1035.4,371a1.58,1.58,0,0,1,1.6,1.6v13.5a1.6,1.6,0,1,1-3.2,0V372.6A1.72,1.72,0,0,1,1035.4,371Z" transform="translate(-86.9 -71.59)"/><path class="cls-5" d="M1035.4,434.3a1.58,1.58,0,0,1,1.6,1.6v13.5a1.6,1.6,0,1,1-3.2,0V435.9A1.72,1.72,0,0,1,1035.4,434.3Z" transform="translate(-86.9 -71.59)"/><path class="cls-5" d="M1060.3,409.4h13.5a1.6,1.6,0,0,1,0,3.2h-13.5a1.6,1.6,0,0,1,0-3.2Z" transform="translate(-86.9 -71.59)"/><path class="cls-5" d="M997.1,409.4h13.5a1.6,1.6,0,0,1,0,3.2H997.1a1.6,1.6,0,0,1,0-3.2Z" transform="translate(-86.9 -71.59)"/><path class="cls-5" d="M1071.1,395.3a1.75,1.75,0,0,1,1.5,1,1.71,1.71,0,0,1-.9,2.1l-12.6,5a1.62,1.62,0,1,1-1.2-3l12.6-5A1.76,1.76,0,0,1,1071.1,395.3Z" transform="translate(-86.9 -71.59)"/><path class="cls-5" d="M1012.3,418.5a1.75,1.75,0,0,1,1.5,1,1.71,1.71,0,0,1-.9,2.1l-12.6,5a1.62,1.62,0,1,1-1.2-3l12.6-5C1011.9,418.6,1012.1,418.5,1012.3,418.5Z" transform="translate(-86.9 -71.59)"/><path class="cls-5" d="M1051.1,374.4a1.27,1.27,0,0,1,.6.1,1.57,1.57,0,0,1,.8,2.1l-5.5,12.3a1.59,1.59,0,0,1-2.9-1.3l5.5-12.3A1.76,1.76,0,0,1,1051.1,374.4Z" transform="translate(-86.9 -71.59)"/><path class="cls-5" d="M1025.3,432.1a2,2,0,0,1,.7.1,1.57,1.57,0,0,1,.8,2.1l-5.5,12.3a1.59,1.59,0,1,1-2.9-1.3l5.5-12.3A1.42,1.42,0,0,1,1025.3,432.1Z" transform="translate(-86.9 -71.59)"/><path class="cls-5" d="M1063.4,383.1a2.08,2.08,0,0,1,1.2.5,1.49,1.49,0,0,1-.1,2.2l-9.8,9.3a1.56,1.56,0,0,1-2.1-2.3l9.8-9.3A1.16,1.16,0,0,1,1063.4,383.1Z" transform="translate(-86.9 -71.59)"/><path class="cls-5" d="M1017.4,426.4a2.08,2.08,0,0,1,1.2.5,1.61,1.61,0,0,1-.1,2.3l-9.8,9.3a1.56,1.56,0,0,1-2.1-2.3l9.8-9.3A1.23,1.23,0,0,1,1017.4,426.4Z" transform="translate(-86.9 -71.59)"/><path class="cls-5" d="M1058.7,418.3a1.27,1.27,0,0,1,.6.1l12.6,4.8a1.62,1.62,0,1,1-1.2,3l-12.6-4.8a1.63,1.63,0,0,1-.9-2.1A1.54,1.54,0,0,1,1058.7,418.3Z" transform="translate(-86.9 -71.59)"/><path class="cls-5" d="M999.6,395.7a1.27,1.27,0,0,1,.6.1l12.6,4.8a1.62,1.62,0,1,1-1.2,3L999,398.8a1.63,1.63,0,0,1-.9-2.1A1.58,1.58,0,0,1,999.6,395.7Z" transform="translate(-86.9 -71.59)"/><path class="cls-5" d="M1053,427a1.61,1.61,0,0,1,1.1.5l9.6,9.6a1.56,1.56,0,0,1-2.2,2.2l-9.6-9.6a1.57,1.57,0,0,1,0-2.2A1.27,1.27,0,0,1,1053,427Z" transform="translate(-86.9 -71.59)"/><path class="cls-5" d="M1008.3,382.2a1.61,1.61,0,0,1,1.1.5l9.6,9.6a1.56,1.56,0,1,1-2.2,2.2l-9.6-9.6a1.57,1.57,0,0,1,0-2.2A1.61,1.61,0,0,1,1008.3,382.2Z" transform="translate(-86.9 -71.59)"/><path class="cls-5" d="M1044.9,432.4a1.75,1.75,0,0,1,1.5,1l5.1,12.5a1.62,1.62,0,0,1-3,1.2l-5.1-12.5a1.71,1.71,0,0,1,.9-2.1A1.27,1.27,0,0,1,1044.9,432.4Z" transform="translate(-86.9 -71.59)"/><path class="cls-5" d="M1020.8,373.9a1.75,1.75,0,0,1,1.5,1l5.2,12.5a1.62,1.62,0,0,1-3,1.2l-5.2-12.5a1.71,1.71,0,0,1,.9-2.1A1.27,1.27,0,0,1,1020.8,373.9Z" transform="translate(-86.9 -71.59)"/><path class="cls-5" d="M128.5,371a1.58,1.58,0,0,1,1.6,1.6v13.5a1.6,1.6,0,1,1-3.2,0V372.6A1.58,1.58,0,0,1,128.5,371Z" transform="translate(-86.9 -71.59)"/><path class="cls-5" d="M128.5,434.3a1.58,1.58,0,0,1,1.6,1.6v13.5a1.6,1.6,0,1,1-3.2,0V435.9A1.58,1.58,0,0,1,128.5,434.3Z" transform="translate(-86.9 -71.59)"/><path class="cls-5" d="M153.4,409.4h13.5a1.6,1.6,0,1,1,0,3.2H153.4a1.6,1.6,0,0,1,0-3.2Z" transform="translate(-86.9 -71.59)"/><path class="cls-5" d="M90.1,409.4h13.5a1.6,1.6,0,0,1,0,3.2H90.1a1.6,1.6,0,0,1,0-3.2Z" transform="translate(-86.9 -71.59)"/><path class="cls-5" d="M164.2,395.3a1.75,1.75,0,0,1,1.5,1,1.71,1.71,0,0,1-.9,2.1l-12.6,5a1.62,1.62,0,1,1-1.2-3l12.6-5A1.27,1.27,0,0,1,164.2,395.3Z" transform="translate(-86.9 -71.59)"/><path class="cls-5" d="M105.4,418.5a1.75,1.75,0,0,1,1.5,1,1.71,1.71,0,0,1-.9,2.1l-12.6,5a1.62,1.62,0,1,1-1.2-3l12.6-5C105,418.6,105.2,418.5,105.4,418.5Z" transform="translate(-86.9 -71.59)"/><path class="cls-5" d="M144.2,374.4a1.27,1.27,0,0,1,.6.1,1.57,1.57,0,0,1,.8,2.1l-5.5,12.3a1.59,1.59,0,0,1-2.9-1.3l5.5-12.3A1.65,1.65,0,0,1,144.2,374.4Z" transform="translate(-86.9 -71.59)"/><path class="cls-5" d="M118.3,432.1a2,2,0,0,1,.7.1,1.57,1.57,0,0,1,.8,2.1l-5.5,12.3a1.59,1.59,0,0,1-2.9-1.3l5.5-12.3A1.42,1.42,0,0,1,118.3,432.1Z" transform="translate(-86.9 -71.59)"/><path class="cls-5" d="M156.4,383.1a2.08,2.08,0,0,1,1.2.5,1.49,1.49,0,0,1-.1,2.2l-9.8,9.3a1.56,1.56,0,0,1-2.1-2.3l9.8-9.3A1.16,1.16,0,0,1,156.4,383.1Z" transform="translate(-86.9 -71.59)"/><path class="cls-5" d="M110.4,426.4a2.08,2.08,0,0,1,1.2.5,1.61,1.61,0,0,1-.1,2.3l-9.8,9.3a1.56,1.56,0,0,1-2.1-2.3l9.8-9.3A1.23,1.23,0,0,1,110.4,426.4Z" transform="translate(-86.9 -71.59)"/><path class="cls-5" d="M151.7,418.3a1.27,1.27,0,0,1,.6.1l12.6,4.8a1.62,1.62,0,1,1-1.2,3l-12.6-4.8a1.63,1.63,0,0,1-.9-2.1A1.75,1.75,0,0,1,151.7,418.3Z" transform="translate(-86.9 -71.59)"/><path class="cls-5" d="M92.6,395.7a1.27,1.27,0,0,1,.6.1l12.6,4.8a1.62,1.62,0,1,1-1.2,3L92,398.8a1.63,1.63,0,0,1-.9-2.1A1.58,1.58,0,0,1,92.6,395.7Z" transform="translate(-86.9 -71.59)"/><path class="cls-5" d="M146.1,427a1.61,1.61,0,0,1,1.1.5l9.6,9.6a1.56,1.56,0,0,1-2.2,2.2l-9.6-9.6a1.57,1.57,0,0,1,0-2.2A1.17,1.17,0,0,1,146.1,427Z" transform="translate(-86.9 -71.59)"/><path class="cls-5" d="M101.4,382.2a1.61,1.61,0,0,1,1.1.5l9.6,9.6a1.56,1.56,0,1,1-2.2,2.2l-9.6-9.6a1.57,1.57,0,0,1,0-2.2A1.61,1.61,0,0,1,101.4,382.2Z" transform="translate(-86.9 -71.59)"/><path class="cls-5" d="M138,432.4a1.75,1.75,0,0,1,1.5,1l5.1,12.5a1.62,1.62,0,1,1-3,1.2l-5.1-12.5a1.71,1.71,0,0,1,.9-2.1A1.27,1.27,0,0,1,138,432.4Z" transform="translate(-86.9 -71.59)"/><path class="cls-5" d="M113.9,373.9a1.75,1.75,0,0,1,1.5,1l5.2,12.5a1.62,1.62,0,0,1-3,1.2l-5.2-12.5a1.71,1.71,0,0,1,.9-2.1A1.27,1.27,0,0,1,113.9,373.9Z" transform="translate(-86.9 -71.59)"/><path class="cls-2" d="M426.5,369.4a1.58,1.58,0,0,1,1.6,1.6v13.5a1.6,1.6,0,0,1-3.2,0V371A1.64,1.64,0,0,1,426.5,369.4Z" transform="translate(-86.9 -71.59)"/><path class="cls-2" d="M426.5,432.7a1.58,1.58,0,0,1,1.6,1.6v13.5a1.6,1.6,0,0,1-3.2,0V434.3A1.64,1.64,0,0,1,426.5,432.7Z" transform="translate(-86.9 -71.59)"/><path class="cls-2" d="M451.4,407.8h13.5a1.6,1.6,0,0,1,0,3.2H451.4a1.6,1.6,0,0,1,0-3.2Z" transform="translate(-86.9 -71.59)"/><path class="cls-2" d="M388.2,407.8h13.5a1.6,1.6,0,0,1,0,3.2H388.2a1.6,1.6,0,0,1,0-3.2Z" transform="translate(-86.9 -71.59)"/><path class="cls-2" d="M462.2,393.7a1.75,1.75,0,0,1,1.5,1,1.71,1.71,0,0,1-.9,2.1l-12.6,5a1.62,1.62,0,0,1-1.2-3l12.6-5A1.76,1.76,0,0,1,462.2,393.7Z" transform="translate(-86.9 -71.59)"/><path class="cls-2" d="M403.4,416.9a1.75,1.75,0,0,1,1.5,1,1.71,1.71,0,0,1-.9,2.1l-12.6,5a1.62,1.62,0,1,1-1.2-3l12.6-5C403,417,403.2,416.9,403.4,416.9Z" transform="translate(-86.9 -71.59)"/><path class="cls-2" d="M442.2,372.8a1.27,1.27,0,0,1,.6.1,1.57,1.57,0,0,1,.8,2.1l-5.5,12.3a1.59,1.59,0,0,1-2.9-1.3l5.5-12.3A1.76,1.76,0,0,1,442.2,372.8Z" transform="translate(-86.9 -71.59)"/><path class="cls-2" d="M416.4,430.5a1.27,1.27,0,0,1,.6.1,1.57,1.57,0,0,1,.8,2.1L412.3,445a1.59,1.59,0,0,1-2.9-1.3l5.5-12.3A1.65,1.65,0,0,1,416.4,430.5Z" transform="translate(-86.9 -71.59)"/><path class="cls-2" d="M454.5,381.5a2.08,2.08,0,0,1,1.2.5,1.49,1.49,0,0,1-.1,2.2l-9.8,9.3a1.49,1.49,0,0,1-2.2-.1,1.61,1.61,0,0,1,.1-2.3l9.8-9.3A1.49,1.49,0,0,1,454.5,381.5Z" transform="translate(-86.9 -71.59)"/><path class="cls-2" d="M408.5,424.9a2.08,2.08,0,0,1,1.2.5,1.49,1.49,0,0,1-.1,2.2l-9.8,9.3a1.56,1.56,0,1,1-2.1-2.3l9.8-9.3A1.16,1.16,0,0,1,408.5,424.9Z" transform="translate(-86.9 -71.59)"/><path class="cls-2" d="M449.8,416.7a1.27,1.27,0,0,1,.6.1l12.6,4.8a1.62,1.62,0,0,1-1.2,3l-12.6-4.8a1.63,1.63,0,0,1-.9-2.1A1.54,1.54,0,0,1,449.8,416.7Z" transform="translate(-86.9 -71.59)"/><path class="cls-2" d="M390.7,394.1a1.27,1.27,0,0,1,.6.1l12.6,4.8a1.62,1.62,0,0,1-1.2,3l-12.6-4.8a1.61,1.61,0,0,1,.6-3.1Z" transform="translate(-86.9 -71.59)"/><path class="cls-2" d="M444.1,425.4a1.61,1.61,0,0,1,1.1.5l9.6,9.6a1.56,1.56,0,0,1-2.2,2.2l-9.5-9.6a1.57,1.57,0,0,1,0-2.2A1.23,1.23,0,0,1,444.1,425.4Z" transform="translate(-86.9 -71.59)"/><path class="cls-2" d="M399.4,380.6a1.61,1.61,0,0,1,1.1.5l9.6,9.6a1.63,1.63,0,0,1-2.3,2.3l-9.6-9.6a1.69,1.69,0,0,1,0-2.3A2.08,2.08,0,0,1,399.4,380.6Z" transform="translate(-86.9 -71.59)"/><path class="cls-2" d="M436,430.8a1.75,1.75,0,0,1,1.5,1l5.2,12.5a1.62,1.62,0,1,1-3,1.2L434.6,433a1.71,1.71,0,0,1,.9-2.1A.75.75,0,0,1,436,430.8Z" transform="translate(-86.9 -71.59)"/><path class="cls-2" d="M411.9,372.3a1.75,1.75,0,0,1,1.5,1l5.2,12.5a1.62,1.62,0,0,1-3,1.2l-5.2-12.5a1.71,1.71,0,0,1,.9-2.1A1.27,1.27,0,0,1,411.9,372.3Z" transform="translate(-86.9 -71.59)"/><rect class="cls-3" x="870.3" y="361.11" width="11.9" height="11.9"/><rect class="cls-3" x="843.4" y="361.11" width="11.9" height="11.9"/><rect class="cls-3" x="816.5" y="361.11" width="11.9" height="11.9"/><rect class="cls-3" x="870.3" y="333.41" width="11.9" height="11.9"/><rect class="cls-3" x="843.4" y="333.41" width="11.9" height="11.9"/><rect class="cls-3" x="816.5" y="333.41" width="11.9" height="11.9"/><rect class="cls-3" x="870.3" y="305.81" width="11.9" height="11.9"/><rect class="cls-3" x="843.4" y="305.81" width="11.9" height="11.9"/><rect class="cls-3" x="816.5" y="305.81" width="11.9" height="11.9"/><rect class="cls-5" x="361.8" y="166.41" width="11.9" height="11.9"/><rect class="cls-5" x="334.9" y="166.41" width="11.9" height="11.9"/><rect class="cls-5" x="308" y="166.41" width="11.9" height="11.9"/><rect class="cls-5" x="361.8" y="138.71" width="11.9" height="11.9"/><rect class="cls-5" x="334.9" y="138.71" width="11.9" height="11.9"/><rect class="cls-5" x="308" y="138.71" width="11.9" height="11.9"/><rect class="cls-5" x="361.8" y="111.11" width="11.9" height="11.9"/><rect class="cls-5" x="334.9" y="111.11" width="11.9" height="11.9"/><rect class="cls-5" x="308" y="111.11" width="11.9" height="11.9"/><circle class="cls-5" cx="515.1" cy="371.21" r="6.4"/><circle class="cls-5" cx="515.1" cy="343.11" r="6.4"/><circle class="cls-5" cx="515.1" cy="315.01" r="6.4"/><circle class="cls-5" cx="542.1" cy="371.21" r="6.4"/><circle class="cls-5" cx="542.1" cy="343.11" r="6.4"/><circle class="cls-5" cx="542.1" cy="315.01" r="6.4"/><circle class="cls-5" cx="569.2" cy="371.21" r="6.4"/><circle class="cls-5" cx="569.2" cy="343.11" r="6.4"/><circle class="cls-5" cx="656.13" cy="386.57" r="6.4" transform="translate(167.47 961.91) rotate(-88.66)"/><rect class="cls-5" x="606.8" y="366.51" width="72.2" height="7.4"/><rect class="cls-5" x="606.8" y="339.81" width="72.2" height="7.4"/><rect class="cls-5" x="606.8" y="313.21" width="72.2" height="7.4"/><rect class="cls-3" x="662.8" y="358.91" width="6.4" height="20.7"/><rect class="cls-2" x="624.2" y="333.21" width="6.4" height="20.7"/><rect class="cls-4" x="647.1" y="306.51" width="6.4" height="20.7"/><polygon class="cls-3" points="782.7 245.61 782.7 349.31 710.6 349.31 710.6 245.61 746.7 264.11 782.7 245.61"/><path class="cls-2" d="M797.4,315.5a36.11,36.11,0,1,0,36.9-35.3A36,36,0,0,0,797.4,315.5Zm48,1.2a11.85,11.85,0,1,1-11.6-12.1A11.78,11.78,0,0,1,845.4,316.7Z" transform="translate(-86.9 -71.59)"/><path class="cls-5" d="M834.4,383.2a36.11,36.11,0,1,1-36.9,35.3A36.22,36.22,0,0,1,834.4,383.2Z" transform="translate(-86.9 -71.59)"/><polygon class="cls-2" points="745.2 78.81 641.6 78.81 641.6 6.71 745.2 6.71 726.7 42.71 745.2 78.81"/><path class="cls-4" d="M833.8,78.2a36.11,36.11,0,1,0,35.3,36.9A36,36,0,0,0,833.8,78.2Zm-1.1,48a11.85,11.85,0,1,1,12.1-11.6A12,12,0,0,1,832.7,126.2Z" transform="translate(-86.9 -71.59)"/><path class="cls-3" d="M766.2,115.1a36.11,36.11,0,1,1-35.3-36.9A36.22,36.22,0,0,1,766.2,115.1Z" transform="translate(-86.9 -71.59)"/><polygon class="cls-5" points="641.9 179.21 538.3 179.21 538.3 107.01 641.9 107.01 623.4 143.11 641.9 179.21"/><path class="cls-2" d="M730.5,178.6a36.11,36.11,0,1,0,35.3,36.9A36,36,0,0,0,730.5,178.6Zm-1.1,47.9a11.85,11.85,0,1,1,12.1-11.6A11.72,11.72,0,0,1,729.4,226.5Z" transform="translate(-86.9 -71.59)"/><path class="cls-3" d="M662.9,215.5a36.11,36.11,0,1,1-35.3-36.9A36.22,36.22,0,0,1,662.9,215.5Z" transform="translate(-86.9 -71.59)"/><polygon class="cls-5" points="850.2 204.01 953.8 204.01 953.8 276.21 850.2 276.21 868.7 240.11 850.2 204.01"/><path class="cls-2" d="M935.4,347.8a36.11,36.11,0,1,0-35.3-36.9A36,36,0,0,0,935.4,347.8Zm1.1-47.9a11.85,11.85,0,1,1-12.1,11.6A11.84,11.84,0,0,1,936.5,299.9Z" transform="translate(-86.9 -71.59)"/><path class="cls-4" d="M1003.1,310.9a36.11,36.11,0,1,1,35.3,36.9A36.22,36.22,0,0,1,1003.1,310.9Z" transform="translate(-86.9 -71.59)"/><path class="cls-3" d="M900.2,126a6.44,6.44,0,0,0,6.4-6.4l.4,1.5,61.5-15.4a6.44,6.44,0,0,0,6.3,5.4,7.39,7.39,0,0,0,3.3-.9l20.8,31.5a6.87,6.87,0,0,0-.5,2.4,6.4,6.4,0,1,0,10.3-5.1l18.6-43.7,8.7,28.4a6.37,6.37,0,1,0,9.7,5.4,6.74,6.74,0,0,0-1-3.4l14.8-15.6a6.4,6.4,0,1,0-3.3-5.6,6.74,6.74,0,0,0,1,3.4l-14.8,15.6a6.5,6.5,0,0,0-3.1-.8h-.3l-9.1-30a6.37,6.37,0,1,0-9.7-5.4,6.45,6.45,0,0,0,4.5,6.1l-18.9,44.3c-.3,0-.6-.1-1-.1a6.23,6.23,0,0,0-3.8,1.3l-20.6-31.2a6.4,6.4,0,0,0-5.6-9.5,6.3,6.3,0,0,0-5.9,4.1L906.3,118a6.34,6.34,0,0,0-6.2-4.8,6.44,6.44,0,0,0-6.4,6.4A6.53,6.53,0,0,0,900.2,126Z" transform="translate(-86.9 -71.59)"/><rect class="cls-5" x="1019.1" y="203.81" width="72.2" height="72.2"/><path class="cls-4" d="M1275.9,415.7A36.11,36.11,0,1,0,1239,451,36,36,0,0,0,1275.9,415.7Zm-47.9-1.2a11.85,11.85,0,1,1,11.6,12.1A11.72,11.72,0,0,1,1228,414.5Z" transform="translate(-86.9 -71.59)"/><path class="cls-2" d="M1163.2,399a12.5,12.5,0,1,1,12.8-12.2A12.51,12.51,0,0,1,1163.2,399Z" transform="translate(-86.9 -71.59)"/><path class="cls-2" d="M1163.2,447.3a12.5,12.5,0,1,1,12.8-12.2A12.51,12.51,0,0,1,1163.2,447.3Z" transform="translate(-86.9 -71.59)"/><path class="cls-2" d="M1120.2,399a12.5,12.5,0,1,1,12.8-12.2A12.51,12.51,0,0,1,1120.2,399Z" transform="translate(-86.9 -71.59)"/><path class="cls-2" d="M1120.2,447.3a12.5,12.5,0,1,1,12.8-12.2A12.51,12.51,0,0,1,1120.2,447.3Z" transform="translate(-86.9 -71.59)"/><rect class="cls-5" x="1120" y="6.11" width="72.2" height="7.4"/><rect class="cls-5" x="1120" y="32.81" width="72.2" height="7.4"/><rect class="cls-5" x="1120" y="59.41" width="72.2" height="7.4"/><rect class="cls-4" x="1129.9" y="0.41" width="6.4" height="20.7"/><rect class="cls-3" x="1168.5" y="26.11" width="6.4" height="20.7"/><rect class="cls-2" x="1145.6" y="52.81" width="6.4" height="20.7"/><rect class="cls-5" x="100.4" y="306.01" width="72.2" height="7.4"/><rect class="cls-5" x="100.4" y="332.71" width="72.2" height="7.4"/><rect class="cls-5" x="100.4" y="359.41" width="72.2" height="7.4"/><rect class="cls-4" x="110.3" y="300.31" width="6.4" height="20.7"/><rect class="cls-3" x="148.8" y="326.01" width="6.4" height="20.7"/><rect class="cls-2" x="125.9" y="352.71" width="6.4" height="20.7"/><polygon class="cls-2" points="1090.3 37.01 1090.3 140.61 1018.1 140.61 1018.1 37.01 1054.2 55.51 1090.3 37.01"/><path class="cls-4" d="M1105,106.9a36.11,36.11,0,1,0,36.9-35.3A36,36,0,0,0,1105,106.9Zm47.9,1.1a11.85,11.85,0,1,1-23.7-.5,11.85,11.85,0,1,1,23.7.5Z" transform="translate(-86.9 -71.59)"/><path class="cls-3" d="M1141.9,174.5a36.11,36.11,0,1,1-36.9,35.3A36.22,36.22,0,0,1,1141.9,174.5Z" transform="translate(-86.9 -71.59)"/><polygon class="cls-5" points="1190.6 140.21 1190.6 243.91 1118.5 243.91 1118.5 140.21 1154.6 158.81 1190.6 140.21"/><path class="cls-2" d="M1205.3,210.2a36.11,36.11,0,1,0,36.9-35.3A36,36,0,0,0,1205.3,210.2Zm48,1.1a11.85,11.85,0,1,1-11.6-12.1A11.78,11.78,0,0,1,1253.3,211.3Z" transform="translate(-86.9 -71.59)"/><path class="cls-3" d="M1242.3,277.8a36.11,36.11,0,1,1-36.9,35.3A36.22,36.22,0,0,1,1242.3,277.8Z" transform="translate(-86.9 -71.59)"/><polygon class="cls-2" points="153.3 41.51 188.8 6.01 264.2 6.01 264.2 76.91 226.5 113.51 226.5 41.51 153.3 41.51"/><polygon class="cls-4" points="228.7 159.21 264.2 194.71 264.2 270.11 193.2 270.11 156.6 232.41 228.7 232.41 228.7 159.21"/><polygon class="cls-6" points="110.9 41.51 75.4 6.01 0 6.01 0 76.91 37.7 113.51 37.7 41.51 110.9 41.51"/><polygon class="cls-3" points="35.4 159.21 0 194.71 0 270.11 70.9 270.11 107.5 232.41 35.4 232.41 35.4 159.21"/><line class="cls-7" x1="63.7" y1="142.61" x2="121.4" y2="83.41"/><g class="cls-8"><path class="cls-6" d="M201.6,186.2H195l-1.9,4.1h-6l11-22h7.5l1.8,22h-5.7Zm-4.5-4.7h4.3l-.3-6.4v-1.3a12.12,12.12,0,0,1,.1-2,10.64,10.64,0,0,1-.9,2.5Z" transform="translate(-86.9 -71.59)"/><path class="cls-6" d="M209.6,190.4l4.6-22H220l-3.6,17.2h7.1l-1,4.8Z" transform="translate(-86.9 -71.59)"/><path class="cls-6" d="M225.3,190.4l4.6-22h5.8l-3.6,17.2h7.1l-1,4.8Z" transform="translate(-86.9 -71.59)"/><path class="cls-6" d="M178.6,211.9a6.32,6.32,0,0,1-2.2,5.2,9.46,9.46,0,0,1-6.1,1.9,10.55,10.55,0,0,1-3.1-.4,6.35,6.35,0,0,1-2.5-1.1v-5.3a11.07,11.07,0,0,0,2.9,1.3,8,8,0,0,0,2.9.5,2.86,2.86,0,0,0,1.7-.5,1.61,1.61,0,0,0,.6-1.3,2.35,2.35,0,0,0-.2-.8,3,3,0,0,0-.5-.7,21.06,21.06,0,0,0-1.8-1.6,8.27,8.27,0,0,1-2.5-2.9,7.22,7.22,0,0,1-.8-3.2,6,6,0,0,1,1-3.5,6.29,6.29,0,0,1,2.7-2.4,8.72,8.72,0,0,1,4-.9,12.42,12.42,0,0,1,6.4,1.6l-2,4.5a9.38,9.38,0,0,0-4.3-1.3,2.41,2.41,0,0,0-1.5.4,1.66,1.66,0,0,0-.5,1.2,2.39,2.39,0,0,0,.5,1.4,11.87,11.87,0,0,0,1.9,1.7,9.64,9.64,0,0,1,2.6,2.8A6.35,6.35,0,0,1,178.6,211.9Z" transform="translate(-86.9 -71.59)"/><path class="cls-6" d="M189.8,204.8l4.6-8.2h6.5l-9.1,13.5-1.8,8.5h-5.8l1.8-8.5-3.5-13.5h6Z" transform="translate(-86.9 -71.59)"/><path class="cls-6" d="M212.1,211.9a6.32,6.32,0,0,1-2.2,5.2,9.46,9.46,0,0,1-6.1,1.9,10.55,10.55,0,0,1-3.1-.4,6.35,6.35,0,0,1-2.5-1.1v-5.3a11.07,11.07,0,0,0,2.9,1.3,8,8,0,0,0,2.9.5,2.86,2.86,0,0,0,1.7-.5,1.61,1.61,0,0,0,.6-1.3,2.35,2.35,0,0,0-.2-.8,3,3,0,0,0-.5-.7,21.06,21.06,0,0,0-1.8-1.6,8.27,8.27,0,0,1-2.5-2.9,7.22,7.22,0,0,1-.8-3.2,6,6,0,0,1,1-3.5,6.29,6.29,0,0,1,2.7-2.4,8.72,8.72,0,0,1,4-.9,12.42,12.42,0,0,1,6.4,1.6l-2,4.5a9.38,9.38,0,0,0-4.3-1.3,2.41,2.41,0,0,0-1.5.4,1.66,1.66,0,0,0-.5,1.2,2.39,2.39,0,0,0,.5,1.4,11.87,11.87,0,0,0,1.9,1.7,9.64,9.64,0,0,1,2.6,2.8A7.42,7.42,0,0,1,212.1,211.9Z" transform="translate(-86.9 -71.59)"/><path class="cls-6" d="M222.8,218.7H217l3.5-17.2h-4.7l1-4.9h15.3l-1.1,4.9h-4.7Z" transform="translate(-86.9 -71.59)"/><path class="cls-6" d="M242.9,218.7H230l4.6-22h12.9l-1,4.8h-7.1l-.7,3.5h6.6l-1.1,4.8h-6.6l-.8,4.2h7.1Z" transform="translate(-86.9 -71.59)"/><path class="cls-6" d="M254.6,218.7V202.9h-.1c-.7,4.2-1.1,6.8-1.3,7.7l-1.7,8.1h-5.2l4.6-22h7.7v15.6h.1l7.1-15.6h7.8l-4.6,22h-5.2l1.7-8.3c.5-2.3,1-4.5,1.6-6.6l.2-1h-.1L260,218.6h-5.4Z" transform="translate(-86.9 -71.59)"/><path class="cls-6" d="M287.2,211.9a6.32,6.32,0,0,1-2.2,5.2,9.46,9.46,0,0,1-6.1,1.9,10.55,10.55,0,0,1-3.1-.4,6.35,6.35,0,0,1-2.5-1.1v-5.3a11.06,11.06,0,0,0,2.9,1.3,8,8,0,0,0,2.9.5,2.86,2.86,0,0,0,1.7-.5,1.61,1.61,0,0,0,.6-1.3,2.35,2.35,0,0,0-.2-.8,3,3,0,0,0-.5-.7,21.06,21.06,0,0,0-1.8-1.6,8.27,8.27,0,0,1-2.5-2.9,7.22,7.22,0,0,1-.8-3.2,6,6,0,0,1,1-3.5,6.29,6.29,0,0,1,2.7-2.4,8.72,8.72,0,0,1,4-.9,12.42,12.42,0,0,1,6.4,1.6l-2,4.5a9.38,9.38,0,0,0-4.3-1.3,2.41,2.41,0,0,0-1.5.4,1.66,1.66,0,0,0-.5,1.2,2.39,2.39,0,0,0,.5,1.4,11.87,11.87,0,0,0,1.9,1.7,9.64,9.64,0,0,1,2.6,2.8A7.42,7.42,0,0,1,287.2,211.9Z" transform="translate(-86.9 -71.59)"/><path class="cls-6" d="M225.6,233.9h9.1l-2.5,12a25.27,25.27,0,0,1-7.7,1.2,7.83,7.83,0,0,1-6-2.3,9.24,9.24,0,0,1-2.1-6.5A16,16,0,0,1,218,231a11.31,11.31,0,0,1,4.5-4.9,13,13,0,0,1,6.6-1.7,12.42,12.42,0,0,1,6.6,1.6l-2.2,4.7a8.76,8.76,0,0,0-4.5-1.4,6.06,6.06,0,0,0-3.5,1.1,7.32,7.32,0,0,0-2.4,3.2,11.79,11.79,0,0,0-.9,4.6c0,2.7,1,4,3.1,4a15,15,0,0,0,2-.2l.8-3.5h-3.4Z" transform="translate(-86.9 -71.59)"/><path class="cls-6" d="M248.5,224.4a7.78,7.78,0,0,1,6,2.2,8.79,8.79,0,0,1,2.1,6.2,17.33,17.33,0,0,1-1.5,7.3,11.64,11.64,0,0,1-4.1,5.1,10.14,10.14,0,0,1-6,1.8,8.66,8.66,0,0,1-6.2-2.2,8.4,8.4,0,0,1-2.2-6.2,17.33,17.33,0,0,1,1.5-7.3,11.83,11.83,0,0,1,4.2-5.1A11.23,11.23,0,0,1,248.5,224.4Zm2.3,8.5a4.53,4.53,0,0,0-.7-2.7,2.66,2.66,0,0,0-2.1-1,3.49,3.49,0,0,0-2.7,1.3,9,9,0,0,0-2,3.5,14.08,14.08,0,0,0-.7,4.5q0,3.6,3,3.6a3.69,3.69,0,0,0,2.6-1.2,9.17,9.17,0,0,0,1.9-3.4A13.09,13.09,0,0,0,250.8,232.9Z" transform="translate(-86.9 -71.59)"/><path class="cls-6" d="M257,244.9a3.39,3.39,0,0,1,1-2.6,3.7,3.7,0,0,1,2.7-1,3,3,0,0,1,2,.6,2.06,2.06,0,0,1,.7,1.7,3.15,3.15,0,0,1-3.5,3.5,3,3,0,0,1-2-.6A1.7,1.7,0,0,1,257,244.9Zm6.6-5.9h-4.9l2.3-14.3h6.3Z" transform="translate(-86.9 -71.59)"/></g><path class="cls-9" d="M135.4,248" transform="translate(-86.9 -71.59)"/><text class="cls-10" transform="translate(304.6 234.56)">October 21 · 22.2017</text><text class="cls-11" transform="translate(304.6 262.96)">Berlin, Germany</text></svg>