<?xml version="1.0" standalone="yes"?>

<svg version="1.1" viewBox="0.0 0.0 1420.979002624672 762.0314960629921" fill="none" stroke="none" stroke-linecap="square" stroke-miterlimit="10" xmlns="http://www.w3.org/2000/svg" xmlns:xlink="http://www.w3.org/1999/xlink"><clipPath id="p.0"><path d="m0 0l1420.979 0l0 762.0315l-1420.979 0l0 -762.0315z" clip-rule="nonzero"></path></clipPath><g clip-path="url(#p.0)"><path fill="#000000" fill-opacity="0.0" d="m0 0l1420.979 0l0 762.0315l-1420.979 0z" fill-rule="nonzero"></path><path fill="#efefef" d="m36.56693 38.45669l1289.3229 0l0 695.9685l-1289.3229 0z" fill-rule="nonzero"></path><path fill="#cccccc" d="m78.249344 62.199474l640.8189 0l0 642.7402l-640.8189 0z" fill-rule="nonzero"></path><path stroke="#cccccc" stroke-width="1.0" stroke-linejoin="round" stroke-linecap="butt" d="m78.249344 62.199474l640.8189 0l0 642.7402l-640.8189 0z" fill-rule="nonzero"></path><path fill="#000000" d="m322.9669 93.98198q0 -1.984375 0.671875 -3.53125q0.671875 -1.5625 1.796875 -2.609375q1.140625 -1.0625 2.640625 -1.609375q1.515625 -0.5625 3.140625 -0.5625q1.46875 0 2.65625 0.5q1.1875 0.484375 1.984375 1.3125l-2.140625 2.921875q-1.125 -0.9375 -2.203125 -0.9375q-1.734375 0 -2.734375 1.21875q-0.984375 1.21875 -0.984375 3.296875q0 2.078125 1.0 3.296875q1.015625 1.21875 2.546875 1.21875q0.875 0 1.578125 -0.34375q0.703125 -0.359375 1.28125 -0.8125l1.875 2.984375q-1.140625 1.015625 -2.5625 1.5q-1.40625 0.484375 -2.71875 0.484375q-1.65625 0 -3.078125 -0.5625q-1.421875 -0.5625 -2.484375 -1.609375q-1.046875 -1.0625 -1.65625 -2.609375q-0.609375 -1.5625 -0.609375 -3.546875zm14.944031 0q0 -1.984375 0.640625 -3.53125q0.640625 -1.5625 1.703125 -2.609375q1.078125 -1.0625 2.484375 -1.609375q1.40625 -0.5625 2.90625 -0.5625q1.515625 0 2.90625 0.5625q1.390625 0.546875 2.453125 1.609375q1.078125 1.046875 1.71875 2.609375q0.640625 1.546875 0.640625 3.53125q0 1.984375 -0.640625 3.546875q-0.640625 1.546875 -1.71875 2.609375q-1.0625 1.046875 -2.453125 1.609375q-1.390625 0.5625 -2.90625 0.5625q-1.5 0 -2.90625 -0.5625q-1.40625 -0.5625 -2.484375 -1.609375q-1.0625 -1.0625 -1.703125 -2.609375q-0.640625 -1.5625 -0.640625 -3.546875zm4.828125 0q0 2.078125 0.71875 3.296875q0.71875 1.21875 2.1875 1.21875q1.453125 0 2.1875 -1.21875q0.734375 -1.21875 0.734375 -3.296875q0 -2.078125 -0.734375 -3.296875q-0.734375 -1.21875 -2.1875 -1.21875q-1.46875 0 -2.1875 1.21875q-0.71875 1.21875 -0.71875 3.296875zm13.85379 -7.9375l3.84375 0l0.3125 2.015625l0.140625 0q1.015625 -0.953125 2.234375 -1.671875q1.21875 -0.71875 2.84375 -0.71875q2.59375 0 3.765625 1.703125q1.171875 1.6875 1.171875 4.6875l0 9.859375l-4.703125 0l0 -9.25q0 -1.71875 -0.46875 -2.359375q-0.46875 -0.640625 -1.484375 -0.640625q-0.90625 0 -1.546875 0.40625q-0.640625 0.390625 -1.40625 1.125l0 10.71875l-4.703125 0l0 -15.875zm18.944641 3.6875l-2.171875 0l0 -3.5l2.421875 -0.1875l0.546875 -4.21875l3.90625 0l0 4.21875l3.8125 0l0 3.6875l-3.8125 0l0 6.359375q0 1.34375 0.5625 1.9375q0.5625 0.59375 1.484375 0.59375q0.390625 0 0.78125 -0.09375q0.40625 -0.09375 0.71875 -0.21875l0.75 3.421875q-0.640625 0.1875 -1.515625 0.375q-0.859375 0.203125 -2.015625 0.203125q-1.46875 0 -2.515625 -0.453125q-1.03125 -0.453125 -1.6875 -1.25q-0.65625 -0.796875 -0.96875 -1.9375q-0.296875 -1.140625 -0.296875 -2.515625l0 -6.421875zm11.0372925 7.765625q0 -2.484375 2.109375 -3.890625q2.125 -1.421875 6.828125 -1.890625q-0.0625 -1.0625 -0.640625 -1.6875q-0.578125 -0.625 -1.859375 -0.625q-1.03125 0 -2.0625 0.390625q-1.015625 0.375 -2.15625 1.046875l-1.671875 -3.09375q1.53125 -0.9375 3.203125 -1.5q1.6875 -0.578125 3.578125 -0.578125q3.078125 0 4.6875 1.75q1.625 1.734375 1.625 5.40625l0 9.09375l-3.84375 0l-0.359375 -1.625l-0.09375 0q-1.015625 0.890625 -2.15625 1.453125q-1.140625 0.5625 -2.484375 0.5625q-1.078125 0 -1.953125 -0.375q-0.859375 -0.375 -1.46875 -1.015625q-0.609375 -0.65625 -0.953125 -1.515625q-0.328125 -0.875 -0.328125 -1.90625zm4.484375 -0.34375q0 0.765625 0.484375 1.140625q0.5 0.359375 1.34375 0.359375q0.828125 0 1.40625 -0.34375q0.578125 -0.359375 1.21875 -1.0l0 -2.78125q-2.53125 0.34375 -3.5 1.015625q-0.953125 0.671875 -0.953125 1.609375zm15.525513 -13.4375q-1.1875 0 -1.953125 -0.6875q-0.765625 -0.6875 -0.765625 -1.78125q0 -1.09375 0.765625 -1.765625q0.765625 -0.671875 1.953125 -0.671875q1.203125 0 1.953125 0.671875q0.765625 0.671875 0.765625 1.765625q0 1.09375 -0.765625 1.78125q-0.75 0.6875 -1.953125 0.6875zm-2.34375 2.328125l4.703125 0l0 15.875l-4.703125 0l0 -15.875zm8.832031 0l3.84375 0l0.3125 2.015625l0.140625 0q1.015625 -0.953125 2.234375 -1.671875q1.21875 -0.71875 2.84375 -0.71875q2.59375 0 3.765625 1.703125q1.171875 1.6875 1.171875 4.6875l0 9.859375l-4.703125 0l0 -9.25q0 -1.71875 -0.46875 -2.359375q-0.46875 -0.640625 -1.484375 -0.640625q-0.90625 0 -1.546875 0.40625q-0.640625 0.390625 -1.40625 1.125l0 10.71875l-4.703125 0l0 -15.875zm17.382141 7.9375q0 -1.921875 0.640625 -3.46875q0.640625 -1.546875 1.671875 -2.625q1.046875 -1.078125 2.390625 -1.640625q1.34375 -0.578125 2.78125 -0.578125q1.703125 0 2.953125 0.578125q1.265625 0.5625 2.109375 1.59375q0.859375 1.015625 1.265625 2.421875q0.421875 1.390625 0.421875 3.015625q0 0.640625 -0.0625 1.171875q-0.0625 0.53125 -0.125 0.8125l-9.5 0q0.3125 1.828125 1.40625 2.640625q1.109375 0.8125 2.71875 0.8125q1.6875 0 3.421875 -1.046875l1.5625 2.84375q-1.21875 0.828125 -2.703125 1.3125q-1.484375 0.484375 -2.921875 0.484375q-1.703125 0 -3.171875 -0.5625q-1.46875 -0.5625 -2.5625 -1.625q-1.078125 -1.078125 -1.6875 -2.609375q-0.609375 -1.546875 -0.609375 -3.53125zm10.234375 -1.625q0 -1.375 -0.609375 -2.234375q-0.609375 -0.875 -2.046875 -0.875q-1.125 0 -1.96875 0.75q-0.84375 0.75 -1.109375 2.359375l5.734375 0zm7.26355 -6.3125l3.84375 0l0.3125 2.78125l0.140625 0q0.859375 -1.625 2.0625 -2.390625q1.21875 -0.765625 2.4375 -0.765625q0.671875 0 1.109375 0.078125q0.4375 0.078125 0.78125 0.234375l-0.765625 4.0625q-0.453125 -0.125 -0.84375 -0.1875q-0.375 -0.0625 -0.890625 -0.0625q-0.890625 0 -1.875 0.640625q-0.96875 0.640625 -1.609375 2.265625l0 9.21875l-4.703125 0l0 -15.875zm12.892273 12.0625l4.421875 0l0 -11.734375l-3.8125 0l0 -2.921875q1.671875 -0.3125 2.8125 -0.765625q1.15625 -0.453125 2.25 -1.078125l3.453125 0l0 16.5l3.8125 0l0 3.8125l-12.9375 0l0 -3.8125z" fill-rule="nonzero"></path><path fill="#13a159" fill-opacity="0.6331" d="m143.25754 153.52272l433.29135 0l0 217.57481l-433.29135 0z" fill-rule="nonzero"></path><path fill="#ffffff" d="m307.8704 262.397l1.828125 0q1.390625 0 2.125 -0.578125q0.734375 -0.59375 0.734375 -1.75q0 -1.140625 -0.734375 -1.59375q-0.734375 -0.46875 -2.125 -0.46875l-1.828125 0l0 4.390625zm4.9375 8.453125l-3.0 -5.640625l-1.9375 0l0 5.640625l-3.53125 0l0 -15.640625l5.640625 0q1.25 0 2.34375 0.234375q1.09375 0.234375 1.90625 0.796875q0.8125 0.5625 1.296875 1.5q0.484375 0.9375 0.484375 2.328125q0 1.734375 -0.765625 2.859375q-0.75 1.109375 -2.015625 1.65625l3.546875 6.265625l-3.96875 0zm9.362061 -12.671875l-4.296875 0l0 -2.96875l12.15625 0l0 2.96875l-4.296875 0l0 12.671875l-3.5625 0l0 -12.671875zm10.297089 -2.96875l5.71875 0q1.265625 0 2.375 0.25q1.125 0.25 1.953125 0.84375q0.828125 0.578125 1.3125 1.546875q0.484375 0.96875 0.484375 2.390625q0 1.375 -0.5 2.390625q-0.484375 1.0 -1.328125 1.65625q-0.84375 0.640625 -1.953125 0.953125q-1.09375 0.3125 -2.34375 0.3125l-2.1875 0l0 5.296875l-3.53125 0l0 -15.640625zm5.5 7.53125q2.875 0 2.875 -2.5q0 -1.21875 -0.734375 -1.71875q-0.71875 -0.515625 -2.140625 -0.515625l-1.96875 0l0 4.734375l1.96875 0zm14.28595 4.53125q0.8125 0.625 1.546875 0.9375q0.75 0.3125 1.515625 0.3125q0.796875 0 1.15625 -0.265625q0.359375 -0.265625 0.359375 -0.75q0 -0.28125 -0.203125 -0.5q-0.203125 -0.234375 -0.5625 -0.421875q-0.34375 -0.203125 -0.78125 -0.359375q-0.421875 -0.15625 -0.875 -0.34375q-0.546875 -0.21875 -1.109375 -0.5q-0.546875 -0.296875 -1.0 -0.703125q-0.453125 -0.421875 -0.75 -0.984375q-0.28125 -0.578125 -0.28125 -1.3125q0 -0.8125 0.3125 -1.515625q0.328125 -0.703125 0.921875 -1.171875q0.609375 -0.484375 1.4375 -0.75q0.84375 -0.28125 1.875 -0.28125q1.375 0 2.40625 0.46875q1.03125 0.46875 1.796875 1.03125l-1.578125 2.125q-0.65625 -0.484375 -1.28125 -0.75q-0.609375 -0.265625 -1.234375 -0.265625q-1.34375 0 -1.34375 0.9375q0 0.28125 0.1875 0.5q0.1875 0.203125 0.515625 0.375q0.328125 0.15625 0.734375 0.3125q0.421875 0.15625 0.890625 0.328125q0.5625 0.21875 1.125 0.5q0.578125 0.265625 1.046875 0.671875q0.46875 0.40625 0.75 1.0q0.28125 0.578125 0.28125 1.40625q0 0.8125 -0.3125 1.515625q-0.296875 0.6875 -0.921875 1.203125q-0.625 0.515625 -1.546875 0.8125q-0.90625 0.296875 -2.109375 0.296875q-1.171875 0 -2.40625 -0.453125q-1.234375 -0.453125 -2.15625 -1.203125l1.59375 -2.203125zm9.397614 -2.375q0 -1.4375 0.484375 -2.59375q0.484375 -1.171875 1.265625 -1.96875q0.78125 -0.8125 1.78125 -1.234375q1.015625 -0.4375 2.09375 -0.4375q1.265625 0 2.203125 0.4375q0.953125 0.421875 1.59375 1.1875q0.640625 0.765625 0.953125 1.8125q0.3125 1.046875 0.3125 2.265625q0 0.484375 -0.046875 0.890625q-0.046875 0.390625 -0.09375 0.609375l-7.140625 0q0.25 1.359375 1.078125 1.96875q0.828125 0.609375 2.03125 0.609375q1.265625 0 2.5625 -0.78125l1.171875 2.125q-0.90625 0.625 -2.03125 0.984375q-1.109375 0.359375 -2.1875 0.359375q-1.28125 0 -2.390625 -0.40625q-1.09375 -0.421875 -1.90625 -1.21875q-0.8125 -0.8125 -1.28125 -1.96875q-0.453125 -1.15625 -0.453125 -2.640625zm7.6875 -1.21875q0 -1.03125 -0.46875 -1.671875q-0.453125 -0.65625 -1.53125 -0.65625q-0.828125 0 -1.46875 0.5625q-0.640625 0.5625 -0.828125 1.765625l4.296875 0zm5.447571 -4.734375l2.875 0l0.25 2.09375l0.09375 0q0.640625 -1.234375 1.546875 -1.796875q0.921875 -0.578125 1.828125 -0.578125q0.5 0 0.828125 0.0625q0.328125 0.046875 0.59375 0.171875l-0.578125 3.046875q-0.34375 -0.09375 -0.625 -0.140625q-0.28125 -0.046875 -0.671875 -0.046875q-0.671875 0 -1.40625 0.484375q-0.734375 0.46875 -1.203125 1.703125l0 6.90625l-3.53125 0l0 -11.90625zm8.270721 0l3.5625 0l1.53125 5.625q0.234375 0.875 0.46875 1.8125q0.234375 0.921875 0.46875 1.859375l0.09375 0q0.21875 -0.9375 0.4375 -1.859375q0.234375 -0.9375 0.46875 -1.8125l1.5625 -5.625l3.390625 0l-3.890625 11.90625l-4.078125 0l-4.015625 -11.90625zm13.130096 5.953125q0 -1.4375 0.484375 -2.59375q0.484375 -1.171875 1.265625 -1.96875q0.78125 -0.8125 1.78125 -1.234375q1.015625 -0.4375 2.09375 -0.4375q1.265625 0 2.203125 0.4375q0.953125 0.421875 1.59375 1.1875q0.640625 0.765625 0.953125 1.8125q0.3125 1.046875 0.3125 2.265625q0 0.484375 -0.046875 0.890625q-0.046875 0.390625 -0.09375 0.609375l-7.140625 0q0.25 1.359375 1.078125 1.96875q0.828125 0.609375 2.03125 0.609375q1.265625 0 2.5625 -0.78125l1.171875 2.125q-0.90625 0.625 -2.03125 0.984375q-1.109375 0.359375 -2.1875 0.359375q-1.28125 0 -2.390625 -0.40625q-1.09375 -0.421875 -1.90625 -1.21875q-0.8125 -0.8125 -1.28125 -1.96875q-0.453125 -1.15625 -0.453125 -2.640625zm7.6875 -1.21875q0 -1.03125 -0.46875 -1.671875q-0.453125 -0.65625 -1.53125 -0.65625q-0.828125 0 -1.46875 0.5625q-0.640625 0.5625 -0.828125 1.765625l4.296875 0zm5.447571 -4.734375l2.875 0l0.25 2.09375l0.09375 0q0.640625 -1.234375 1.546875 -1.796875q0.921875 -0.578125 1.828125 -0.578125q0.5 0 0.828125 0.0625q0.328125 0.046875 0.59375 0.171875l-0.578125 3.046875q-0.34375 -0.09375 -0.625 -0.140625q-0.28125 -0.046875 -0.671875 -0.046875q-0.671875 0 -1.40625 0.484375q-0.734375 0.46875 -1.203125 1.703125l0 6.90625l-3.53125 0l0 -11.90625z" fill-rule="nonzero"></path><path fill="#2fa8b4" fill-opacity="0.6331" d="m143.25754 518.371l433.29135 0l0 133.88977l-433.29135 0z" fill-rule="nonzero"></path><path fill="#ffffff" d="m336.76266 587.9027q0 -1.4375 0.484375 -2.59375q0.484375 -1.171875 1.265625 -1.96875q0.78125 -0.8125 1.78125 -1.234375q1.015625 -0.4375 2.09375 -0.4375q1.265625 0 2.203125 0.4375q0.953125 0.421875 1.59375 1.1875q0.640625 0.765625 0.953125 1.8125q0.3125 1.046875 0.3125 2.265625q0 0.484375 -0.046875 0.890625q-0.046875 0.390625 -0.09375 0.609375l-7.140625 0q0.25 1.359375 1.078125 1.96875q0.828125 0.609375 2.03125 0.609375q1.265625 0 2.5625 -0.78125l1.171875 2.125q-0.90625 0.625 -2.03125 0.984375q-1.109375 0.359375 -2.1875 0.359375q-1.28125 0 -2.390625 -0.40625q-1.09375 -0.421875 -1.90625 -1.21875q-0.8125 -0.8125 -1.28125 -1.96875q-0.453125 -1.15625 -0.453125 -2.640625zm7.6875 -1.21875q0 -1.03125 -0.46875 -1.671875q-0.453125 -0.65625 -1.53125 -0.65625q-0.828125 0 -1.46875 0.5625q-0.640625 0.5625 -0.828125 1.765625l4.296875 0zm5.931946 -1.96875l-1.640625 0l0 -2.625l1.828125 -0.140625l0.40625 -3.171875l2.921875 0l0 3.171875l2.859375 0l0 2.765625l-2.859375 0l0 4.765625q0 1.015625 0.421875 1.46875q0.421875 0.4375 1.125 0.4375q0.28125 0 0.578125 -0.0625q0.296875 -0.078125 0.546875 -0.1875l0.546875 2.578125q-0.484375 0.140625 -1.125 0.28125q-0.640625 0.140625 -1.515625 0.140625q-1.09375 0 -1.875 -0.328125q-0.78125 -0.34375 -1.28125 -0.9375q-0.484375 -0.59375 -0.71875 -1.4375q-0.21875 -0.859375 -0.21875 -1.890625l0 -4.828125zm8.707611 -7.6875l3.53125 0l0 4.125l-0.171875 2.140625q0.671875 -0.59375 1.5625 -1.109375q0.890625 -0.515625 2.109375 -0.515625q1.9375 0 2.8125 1.28125q0.875 1.265625 0.875 3.515625l0 7.390625l-3.515625 0l0 -6.9375q0 -1.296875 -0.359375 -1.765625q-0.34375 -0.484375 -1.109375 -0.484375q-0.671875 0 -1.15625 0.296875q-0.484375 0.296875 -1.046875 0.84375l0 8.046875l-3.53125 0l0 -16.828125zm18.485199 17.109375q-1.234375 0 -2.25 -0.515625q-1.0 -0.515625 -1.703125 -1.515625q-0.703125 -1.015625 -1.109375 -2.5q-0.390625 -1.484375 -0.390625 -3.4375q0 -1.9375 0.390625 -3.390625q0.40625 -1.46875 1.109375 -2.46875q0.703125 -1.0 1.703125 -1.484375q1.015625 -0.5 2.25 -0.5q1.21875 0 2.21875 0.5q1.015625 0.484375 1.71875 1.484375q0.703125 1.0 1.09375 2.46875q0.40625 1.453125 0.40625 3.390625q0 1.953125 -0.40625 3.4375q-0.390625 1.484375 -1.09375 2.5q-0.703125 1.0 -1.71875 1.515625q-1.0 0.515625 -2.21875 0.515625zm0 -2.734375q0.453125 0 0.828125 -0.21875q0.390625 -0.234375 0.671875 -0.828125q0.296875 -0.609375 0.453125 -1.609375q0.15625 -1.015625 0.15625 -2.578125q0 -1.546875 -0.15625 -2.546875q-0.15625 -1.0 -0.453125 -1.5625q-0.28125 -0.5625 -0.671875 -0.78125q-0.375 -0.21875 -0.828125 -0.21875q-0.4375 0 -0.828125 0.21875q-0.375 0.21875 -0.671875 0.78125q-0.28125 0.5625 -0.453125 1.5625q-0.171875 1.0 -0.171875 2.546875q0 1.5625 0.171875 2.578125q0.171875 1.0 0.453125 1.609375q0.296875 0.59375 0.671875 0.828125q0.390625 0.21875 0.828125 0.21875z" fill-rule="nonzero"></path><path fill="#e09d2a" fill-opacity="0.6314" d="m718.5515 564.791l0 67.56677l-142.52002 -13.513367l0 -40.54004z" fill-rule="nonzero"></path><path fill="#e09d2a" fill-opacity="0.6314" d="m504.0682 518.371l-62.56372 0l12.512726 -115.15961l37.53824 0z" fill-rule="nonzero"></path><path fill="#000000" fill-opacity="0.0" d="m488.3491 422.41733l131.74802 0l0 57.102356l-131.74802 0z" fill-rule="nonzero"></path><path fill="#000000" d="m532.3834 437.4023q-0.390625 0 -0.65625 -0.234375q-0.25 -0.25 -0.25 -0.609375q0 -0.390625 0.25 -0.625q0.265625 -0.234375 0.65625 -0.234375q0.390625 0 0.640625 0.234375q0.265625 0.234375 0.265625 0.625q0 0.359375 -0.265625 0.609375q-0.25 0.234375 -0.640625 0.234375zm-0.671875 1.59375l1.3125 0l0 7.78125l-1.3125 0l0 -7.78125zm3.9360352 0l1.09375 0l0.109375 1.125l0.046875 0q0.5625 -0.5625 1.171875 -0.9375q0.625 -0.375 1.4375 -0.375q1.234375 0 1.796875 0.765625q0.5625 0.765625 0.5625 2.28125l0 4.921875l-1.3125 0l0 -4.75q0 -1.109375 -0.359375 -1.59375q-0.34375 -0.484375 -1.109375 -0.484375q-0.609375 0 -1.078125 0.3125q-0.453125 0.296875 -1.046875 0.890625l0 5.625l-1.3125 0l0 -7.78125zm9.314514 9.09375q0 0.625 0.59375 0.984375q0.609375 0.375 1.65625 0.375q0.5625 0 1.015625 -0.140625q0.453125 -0.125 0.765625 -0.34375q0.328125 -0.21875 0.5 -0.515625q0.1875 -0.28125 0.1875 -0.578125q0 -0.546875 -0.40625 -0.765625q-0.390625 -0.203125 -1.15625 -0.203125l-1.34375 0q-0.234375 0 -0.5 -0.03125q-0.265625 -0.015625 -0.515625 -0.09375q-0.421875 0.296875 -0.609375 0.625q-0.1875 0.34375 -0.1875 0.6875zm-1.15625 0.171875q0 -0.5 0.296875 -0.953125q0.3125 -0.4375 0.84375 -0.796875l0 -0.078125q-0.296875 -0.171875 -0.5 -0.484375q-0.1875 -0.3125 -0.1875 -0.765625q0 -0.5 0.265625 -0.859375q0.28125 -0.375 0.578125 -0.59375l0 -0.0625q-0.390625 -0.3125 -0.703125 -0.84375q-0.296875 -0.546875 -0.296875 -1.25q0 -0.640625 0.21875 -1.140625q0.234375 -0.515625 0.625 -0.875q0.40625 -0.359375 0.9375 -0.546875q0.546875 -0.203125 1.140625 -0.203125q0.3125 0 0.59375 0.0625q0.28125 0.046875 0.515625 0.125l2.703125 0l0 1.015625l-1.609375 0q0.28125 0.265625 0.453125 0.6875q0.1875 0.421875 0.1875 0.90625q0 0.625 -0.21875 1.140625q-0.21875 0.5 -0.609375 0.84375q-0.390625 0.34375 -0.90625 0.53125q-0.515625 0.1875 -1.109375 0.1875q-0.296875 0 -0.59375 -0.0625q-0.296875 -0.078125 -0.578125 -0.203125q-0.203125 0.171875 -0.359375 0.390625q-0.140625 0.21875 -0.140625 0.53125q0 0.375 0.28125 0.625q0.296875 0.234375 1.09375 0.234375l1.515625 0q1.359375 0 2.03125 0.4375q0.6875 0.4375 0.6875 1.40625q0 0.546875 -0.28125 1.03125q-0.265625 0.5 -0.78125 0.859375q-0.515625 0.375 -1.25 0.578125q-0.71875 0.21875 -1.625 0.21875q-0.71875 0 -1.3125 -0.140625q-0.59375 -0.125 -1.015625 -0.40625q-0.421875 -0.265625 -0.65625 -0.65625q-0.234375 -0.375 -0.234375 -0.890625zm3.21875 -4.828125q0.328125 0 0.625 -0.125q0.296875 -0.125 0.53125 -0.359375q0.234375 -0.25 0.359375 -0.59375q0.125 -0.34375 0.125 -0.78125q0 -0.859375 -0.484375 -1.328125q-0.46875 -0.484375 -1.15625 -0.484375q-0.6875 0 -1.171875 0.484375q-0.484375 0.46875 -0.484375 1.328125q0 0.4375 0.125 0.78125q0.140625 0.34375 0.375 0.59375q0.234375 0.234375 0.515625 0.359375q0.296875 0.125 0.640625 0.125zm5.439026 -4.4375l1.09375 0l0.109375 1.40625l0.046875 0q0.390625 -0.734375 0.953125 -1.15625q0.578125 -0.4375 1.25 -0.4375q0.46875 0 0.828125 0.15625l-0.25 1.15625q-0.1875 -0.0625 -0.359375 -0.09375q-0.15625 -0.03125 -0.390625 -0.03125q-0.5 0 -1.03125 0.40625q-0.53125 0.390625 -0.9375 1.390625l0 4.984375l-1.3125 0l0 -7.78125zm4.973877 3.90625q0 -0.953125 0.296875 -1.71875q0.296875 -0.765625 0.78125 -1.28125q0.484375 -0.53125 1.109375 -0.8125q0.625 -0.28125 1.296875 -0.28125q0.734375 0 1.3125 0.265625q0.59375 0.25 0.984375 0.734375q0.390625 0.46875 0.59375 1.140625q0.21875 0.671875 0.21875 1.515625q0 0.421875 -0.046875 0.71875l-5.25 0q0.078125 1.25 0.765625 2.0q0.703125 0.734375 1.828125 0.734375q0.5625 0 1.03125 -0.171875q0.46875 -0.171875 0.90625 -0.4375l0.46875 0.859375q-0.515625 0.328125 -1.140625 0.5625q-0.625 0.234375 -1.421875 0.234375q-0.78125 0 -1.46875 -0.28125q-0.6875 -0.28125 -1.1875 -0.796875q-0.5 -0.515625 -0.796875 -1.265625q-0.28125 -0.75 -0.28125 -1.71875zm5.4375 -0.59375q0 -1.1875 -0.5 -1.8125q-0.5 -0.640625 -1.421875 -0.640625q-0.40625 0 -0.78125 0.171875q-0.375 0.15625 -0.6875 0.46875q-0.296875 0.3125 -0.5 0.765625q-0.203125 0.453125 -0.265625 1.046875l4.15625 0zm2.8735352 2.703125q0.5 0.421875 1.03125 0.6875q0.546875 0.25 1.25 0.25q0.765625 0 1.140625 -0.34375q0.390625 -0.359375 0.390625 -0.875q0 -0.3125 -0.15625 -0.53125q-0.15625 -0.21875 -0.40625 -0.390625q-0.25 -0.171875 -0.578125 -0.296875q-0.3125 -0.125 -0.625 -0.25q-0.421875 -0.140625 -0.84375 -0.328125q-0.40625 -0.1875 -0.734375 -0.453125q-0.328125 -0.265625 -0.546875 -0.609375q-0.203125 -0.359375 -0.203125 -0.859375q0 -0.453125 0.1875 -0.859375q0.1875 -0.421875 0.53125 -0.703125q0.34375 -0.296875 0.828125 -0.46875q0.5 -0.171875 1.125 -0.171875q0.734375 0 1.34375 0.265625q0.625 0.25 1.078125 0.609375l-0.625 0.84375q-0.40625 -0.3125 -0.84375 -0.5q-0.421875 -0.1875 -0.9375 -0.1875q-0.734375 0 -1.078125 0.34375q-0.34375 0.328125 -0.34375 0.765625q0 0.28125 0.140625 0.484375q0.15625 0.1875 0.390625 0.34375q0.234375 0.15625 0.546875 0.28125q0.3125 0.109375 0.65625 0.234375q0.40625 0.171875 0.828125 0.34375q0.4375 0.171875 0.765625 0.4375q0.34375 0.265625 0.546875 0.65625q0.21875 0.375 0.21875 0.921875q0 0.484375 -0.1875 0.90625q-0.171875 0.40625 -0.53125 0.734375q-0.359375 0.3125 -0.90625 0.484375q-0.53125 0.1875 -1.21875 0.1875q-0.828125 0 -1.578125 -0.296875q-0.75 -0.3125 -1.3125 -0.765625l0.65625 -0.890625zm6.7039795 0q0.5 0.421875 1.03125 0.6875q0.546875 0.25 1.25 0.25q0.765625 0 1.140625 -0.34375q0.390625 -0.359375 0.390625 -0.875q0 -0.3125 -0.15625 -0.53125q-0.15625 -0.21875 -0.40625 -0.390625q-0.25 -0.171875 -0.578125 -0.296875q-0.3125 -0.125 -0.625 -0.25q-0.421875 -0.140625 -0.84375 -0.328125q-0.40625 -0.1875 -0.734375 -0.453125q-0.328125 -0.265625 -0.546875 -0.609375q-0.203125 -0.359375 -0.203125 -0.859375q0 -0.453125 0.1875 -0.859375q0.1875 -0.421875 0.53125 -0.703125q0.34375 -0.296875 0.828125 -0.46875q0.5 -0.171875 1.125 -0.171875q0.734375 0 1.34375 0.265625q0.625 0.25 1.078125 0.609375l-0.625 0.84375q-0.40625 -0.3125 -0.84375 -0.5q-0.421875 -0.1875 -0.9375 -0.1875q-0.734375 0 -1.078125 0.34375q-0.34375 0.328125 -0.34375 0.765625q0 0.28125 0.140625 0.484375q0.15625 0.1875 0.390625 0.34375q0.234375 0.15625 0.546875 0.28125q0.3125 0.109375 0.65625 0.234375q0.40625 0.171875 0.828125 0.34375q0.4375 0.171875 0.765625 0.4375q0.34375 0.265625 0.546875 0.65625q0.21875 0.375 0.21875 0.921875q0 0.484375 -0.1875 0.90625q-0.171875 0.40625 -0.53125 0.734375q-0.359375 0.3125 -0.90625 0.484375q-0.53125 0.1875 -1.21875 0.1875q-0.828125 0 -1.578125 -0.296875q-0.75 -0.3125 -1.3125 -0.765625l0.65625 -0.890625z" fill-rule="nonzero"></path><path fill="#000000" d="m537.1651 461.9023q0 -0.9375 0.28125 -1.703125q0.28125 -0.765625 0.734375 -1.28125q0.46875 -0.53125 1.078125 -0.8125q0.609375 -0.296875 1.28125 -0.296875q0.671875 0 1.1875 0.234375q0.515625 0.234375 1.046875 0.6875l0.03125 0l0.125 -0.734375l1.046875 0l0 11.0625l-1.328125 0l0 -2.765625l0.0625 -1.375q-0.453125 0.421875 -1.0625 0.734375q-0.59375 0.3125 -1.265625 0.3125q-1.46875 0 -2.34375 -1.046875q-0.875 -1.0625 -0.875 -3.015625zm1.359375 -0.015625q0 1.40625 0.5625 2.203125q0.5625 0.78125 1.578125 0.78125q0.546875 0 1.03125 -0.265625q0.484375 -0.265625 0.953125 -0.8125l0 -4.0625q-0.484375 -0.453125 -0.953125 -0.625q-0.453125 -0.1875 -0.921875 -0.1875q-0.46875 0 -0.875 0.21875q-0.40625 0.203125 -0.71875 0.609375q-0.296875 0.390625 -0.484375 0.9375q-0.171875 0.53125 -0.171875 1.203125zm7.440613 0.015625q0 -0.9375 0.28125 -1.703125q0.28125 -0.765625 0.734375 -1.28125q0.46875 -0.53125 1.078125 -0.8125q0.609375 -0.296875 1.28125 -0.296875q0.671875 0 1.171875 0.25q0.5 0.234375 1.0 0.640625l-0.0625 -1.328125l0 -2.984375l1.328125 0l0 11.390625l-1.078125 0l-0.109375 -0.90625l-0.0625 0q-0.453125 0.4375 -1.0625 0.765625q-0.59375 0.328125 -1.28125 0.328125q-1.46875 0 -2.34375 -1.046875q-0.875 -1.0625 -0.875 -3.015625zm1.359375 -0.015625q0 1.40625 0.5625 2.203125q0.5625 0.78125 1.578125 0.78125q0.546875 0 1.03125 -0.265625q0.484375 -0.265625 0.953125 -0.8125l0 -4.0625q-0.484375 -0.453125 -0.953125 -0.625q-0.453125 -0.1875 -0.921875 -0.1875q-0.46875 0 -0.875 0.21875q-0.40625 0.203125 -0.71875 0.609375q-0.296875 0.390625 -0.484375 0.9375q-0.171875 0.53125 -0.171875 1.203125zm8.755005 -5.484375q-0.390625 0 -0.65625 -0.234375q-0.25 -0.25 -0.25 -0.609375q0 -0.390625 0.25 -0.625q0.265625 -0.234375 0.65625 -0.234375q0.390625 0 0.640625 0.234375q0.265625 0.234375 0.265625 0.625q0 0.359375 -0.265625 0.609375q-0.25 0.234375 -0.640625 0.234375zm-0.671875 1.59375l1.3125 0l0 7.78125l-1.3125 0l0 -7.78125zm3.7329102 6.015625q0.5 0.421875 1.03125 0.6875q0.546875 0.25 1.25 0.25q0.765625 0 1.140625 -0.34375q0.390625 -0.359375 0.390625 -0.875q0 -0.3125 -0.15625 -0.53125q-0.15625 -0.21875 -0.40625 -0.390625q-0.25 -0.171875 -0.578125 -0.296875q-0.3125 -0.125 -0.625 -0.25q-0.421875 -0.140625 -0.84375 -0.328125q-0.40625 -0.1875 -0.734375 -0.453125q-0.328125 -0.265625 -0.546875 -0.609375q-0.203125 -0.359375 -0.203125 -0.859375q0 -0.453125 0.1875 -0.859375q0.1875 -0.421875 0.53125 -0.703125q0.34375 -0.296875 0.828125 -0.46875q0.5 -0.171875 1.125 -0.171875q0.734375 0 1.34375 0.265625q0.625 0.25 1.078125 0.609375l-0.625 0.84375q-0.40625 -0.3125 -0.84375 -0.5q-0.421875 -0.1875 -0.9375 -0.1875q-0.734375 0 -1.078125 0.34375q-0.34375 0.328125 -0.34375 0.765625q0 0.28125 0.140625 0.484375q0.15625 0.1875 0.390625 0.34375q0.234375 0.15625 0.546875 0.28125q0.3125 0.109375 0.65625 0.234375q0.40625 0.171875 0.828125 0.34375q0.4375 0.171875 0.765625 0.4375q0.34375 0.265625 0.546875 0.65625q0.21875 0.375 0.21875 0.921875q0 0.484375 -0.1875 0.90625q-0.171875 0.40625 -0.53125 0.734375q-0.359375 0.3125 -0.90625 0.484375q-0.53125 0.1875 -1.21875 0.1875q-0.828125 0 -1.578125 -0.296875q-0.75 -0.3125 -1.3125 -0.765625l0.65625 -0.890625zm6.3289795 -2.109375q0 -0.96875 0.296875 -1.734375q0.3125 -0.765625 0.828125 -1.28125q0.515625 -0.53125 1.1875 -0.796875q0.6875 -0.28125 1.4375 -0.28125q0.765625 0 1.3125 0.28125q0.5625 0.28125 0.953125 0.640625l-0.65625 0.859375q-0.34375 -0.3125 -0.734375 -0.5q-0.375 -0.1875 -0.828125 -0.1875q-0.53125 0 -0.984375 0.21875q-0.4375 0.203125 -0.765625 0.609375q-0.3125 0.40625 -0.5 0.953125q-0.1875 0.546875 -0.1875 1.21875q0 0.671875 0.171875 1.21875q0.1875 0.546875 0.5 0.9375q0.3125 0.390625 0.75 0.609375q0.453125 0.21875 0.984375 0.21875q0.5625 0 1.015625 -0.234375q0.453125 -0.234375 0.796875 -0.5625l0.59375 0.875q-0.515625 0.453125 -1.171875 0.734375q-0.640625 0.265625 -1.34375 0.265625q-0.78125 0 -1.453125 -0.265625q-0.671875 -0.28125 -1.15625 -0.796875q-0.484375 -0.515625 -0.765625 -1.265625q-0.28125 -0.765625 -0.28125 -1.734375z" fill-rule="nonzero"></path><path fill="#000000" fill-opacity="0.0" d="m592.70557 620.76465l95.93695 0l0 57.102356l-95.93695 0z" fill-rule="nonzero"></path><path fill="#000000" d="m619.9604 641.24963q0 -0.953125 0.296875 -1.71875q0.296875 -0.765625 0.78125 -1.28125q0.484375 -0.53125 1.109375 -0.8125q0.625 -0.28125 1.296875 -0.28125q0.734375 0 1.3125 0.265625q0.59375 0.25 0.984375 0.734375q0.390625 0.46875 0.59375 1.140625q0.21875 0.671875 0.21875 1.515625q0 0.421875 -0.046875 0.71875l-5.25 0q0.078125 1.25 0.765625 2.0q0.703125 0.734375 1.828125 0.734375q0.5625 0 1.03125 -0.171875q0.46875 -0.171875 0.90625 -0.4375l0.46875 0.859375q-0.515625 0.328125 -1.140625 0.5625q-0.625 0.234375 -1.421875 0.234375q-0.78125 0 -1.46875 -0.28125q-0.6875 -0.28125 -1.1875 -0.796875q-0.5 -0.515625 -0.796875 -1.265625q-0.28125 -0.75 -0.28125 -1.71875zm5.4375 -0.59375q0 -1.1875 -0.5 -1.8125q-0.5 -0.640625 -1.421875 -0.640625q-0.40625 0 -0.78125 0.171875q-0.375 0.15625 -0.6875 0.46875q-0.296875 0.3125 -0.5 0.765625q-0.203125 0.453125 -0.265625 1.046875l4.15625 0zm3.6390991 5.78125q0 0.625 0.59375 0.984375q0.609375 0.375 1.65625 0.375q0.5625 0 1.015625 -0.140625q0.453125 -0.125 0.765625 -0.34375q0.328125 -0.21875 0.5 -0.515625q0.1875 -0.28125 0.1875 -0.578125q0 -0.546875 -0.40625 -0.765625q-0.390625 -0.203125 -1.15625 -0.203125l-1.34375 0q-0.234375 0 -0.5 -0.03125q-0.265625 -0.015625 -0.515625 -0.09375q-0.421875 0.296875 -0.609375 0.625q-0.1875 0.34375 -0.1875 0.6875zm-1.15625 0.171875q0 -0.5 0.296875 -0.953125q0.3125 -0.4375 0.84375 -0.796875l0 -0.078125q-0.296875 -0.171875 -0.5 -0.484375q-0.1875 -0.3125 -0.1875 -0.765625q0 -0.5 0.265625 -0.859375q0.28125 -0.375 0.578125 -0.59375l0 -0.0625q-0.390625 -0.3125 -0.703125 -0.84375q-0.296875 -0.546875 -0.296875 -1.25q0 -0.640625 0.21875 -1.140625q0.234375 -0.515625 0.625 -0.875q0.40625 -0.359375 0.9375 -0.546875q0.546875 -0.203125 1.140625 -0.203125q0.3125 0 0.59375 0.0625q0.28125 0.046875 0.515625 0.125l2.703125 0l0 1.015625l-1.609375 0q0.28125 0.265625 0.453125 0.6875q0.1875 0.421875 0.1875 0.90625q0 0.625 -0.21875 1.140625q-0.21875 0.5 -0.609375 0.84375q-0.390625 0.34375 -0.90625 0.53125q-0.515625 0.1875 -1.109375 0.1875q-0.296875 0 -0.59375 -0.0625q-0.296875 -0.078125 -0.578125 -0.203125q-0.203125 0.171875 -0.359375 0.390625q-0.140625 0.21875 -0.140625 0.53125q0 0.375 0.28125 0.625q0.296875 0.234375 1.09375 0.234375l1.515625 0q1.359375 0 2.03125 0.4375q0.6875 0.4375 0.6875 1.40625q0 0.546875 -0.28125 1.03125q-0.265625 0.5 -0.78125 0.859375q-0.515625 0.375 -1.25 0.578125q-0.71875 0.21875 -1.625 0.21875q-0.71875 0 -1.3125 -0.140625q-0.59375 -0.125 -1.015625 -0.40625q-0.421875 -0.265625 -0.65625 -0.65625q-0.234375 -0.375 -0.234375 -0.890625zm3.21875 -4.828125q0.328125 0 0.625 -0.125q0.296875 -0.125 0.53125 -0.359375q0.234375 -0.25 0.359375 -0.59375q0.125 -0.34375 0.125 -0.78125q0 -0.859375 -0.484375 -1.328125q-0.46875 -0.484375 -1.15625 -0.484375q-0.6875 0 -1.171875 0.484375q-0.484375 0.46875 -0.484375 1.328125q0 0.4375 0.125 0.78125q0.140625 0.34375 0.375 0.59375q0.234375 0.234375 0.515625 0.359375q0.296875 0.125 0.640625 0.125zm5.439026 -4.4375l1.09375 0l0.109375 1.40625l0.046875 0q0.390625 -0.734375 0.953125 -1.15625q0.578125 -0.4375 1.25 -0.4375q0.46875 0 0.828125 0.15625l-0.25 1.15625q-0.1875 -0.0625 -0.359375 -0.09375q-0.15625 -0.03125 -0.390625 -0.03125q-0.5 0 -1.03125 0.40625q-0.53125 0.390625 -0.9375 1.390625l0 4.984375l-1.3125 0l0 -7.78125zm4.973877 3.90625q0 -0.953125 0.296875 -1.71875q0.296875 -0.765625 0.78125 -1.28125q0.484375 -0.53125 1.109375 -0.8125q0.625 -0.28125 1.296875 -0.28125q0.734375 0 1.3125 0.265625q0.59375 0.25 0.984375 0.734375q0.390625 0.46875 0.59375 1.140625q0.21875 0.671875 0.21875 1.515625q0 0.421875 -0.046875 0.71875l-5.25 0q0.078125 1.25 0.765625 2.0q0.703125 0.734375 1.828125 0.734375q0.5625 0 1.03125 -0.171875q0.46875 -0.171875 0.90625 -0.4375l0.46875 0.859375q-0.515625 0.328125 -1.140625 0.5625q-0.625 0.234375 -1.421875 0.234375q-0.78125 0 -1.46875 -0.28125q-0.6875 -0.28125 -1.1875 -0.796875q-0.5 -0.515625 -0.796875 -1.265625q-0.28125 -0.75 -0.28125 -1.71875zm5.4375 -0.59375q0 -1.1875 -0.5 -1.8125q-0.5 -0.640625 -1.421875 -0.640625q-0.40625 0 -0.78125 0.171875q-0.375 0.15625 -0.6875 0.46875q-0.296875 0.3125 -0.5 0.765625q-0.203125 0.453125 -0.265625 1.046875l4.15625 0zm2.8735352 2.703125q0.5 0.421875 1.03125 0.6875q0.546875 0.25 1.25 0.25q0.765625 0 1.140625 -0.34375q0.390625 -0.359375 0.390625 -0.875q0 -0.3125 -0.15625 -0.53125q-0.15625 -0.21875 -0.40625 -0.390625q-0.25 -0.171875 -0.578125 -0.296875q-0.3125 -0.125 -0.625 -0.25q-0.421875 -0.140625 -0.84375 -0.328125q-0.40625 -0.1875 -0.734375 -0.453125q-0.328125 -0.265625 -0.546875 -0.609375q-0.203125 -0.359375 -0.203125 -0.859375q0 -0.453125 0.1875 -0.859375q0.1875 -0.421875 0.53125 -0.703125q0.34375 -0.296875 0.828125 -0.46875q0.5 -0.171875 1.125 -0.171875q0.734375 0 1.34375 0.265625q0.625 0.25 1.078125 0.609375l-0.625 0.84375q-0.40625 -0.3125 -0.84375 -0.5q-0.421875 -0.1875 -0.9375 -0.1875q-0.734375 0 -1.078125 0.34375q-0.34375 0.328125 -0.34375 0.765625q0 0.28125 0.140625 0.484375q0.15625 0.1875 0.390625 0.34375q0.234375 0.15625 0.546875 0.28125q0.3125 0.109375 0.65625 0.234375q0.40625 0.171875 0.828125 0.34375q0.4375 0.171875 0.765625 0.4375q0.34375 0.265625 0.546875 0.65625q0.21875 0.375 0.21875 0.921875q0 0.484375 -0.1875 0.90625q-0.171875 0.40625 -0.53125 0.734375q-0.359375 0.3125 -0.90625 0.484375q-0.53125 0.1875 -1.21875 0.1875q-0.828125 0 -1.578125 -0.296875q-0.75 -0.3125 -1.3125 -0.765625l0.65625 -0.890625zm6.7040405 0q0.5 0.421875 1.03125 0.6875q0.546875 0.25 1.25 0.25q0.765625 0 1.140625 -0.34375q0.390625 -0.359375 0.390625 -0.875q0 -0.3125 -0.15625 -0.53125q-0.15625 -0.21875 -0.40625 -0.390625q-0.25 -0.171875 -0.578125 -0.296875q-0.3125 -0.125 -0.625 -0.25q-0.421875 -0.140625 -0.84375 -0.328125q-0.40625 -0.1875 -0.734375 -0.453125q-0.328125 -0.265625 -0.546875 -0.609375q-0.203125 -0.359375 -0.203125 -0.859375q0 -0.453125 0.1875 -0.859375q0.1875 -0.421875 0.53125 -0.703125q0.34375 -0.296875 0.828125 -0.46875q0.5 -0.171875 1.125 -0.171875q0.734375 0 1.34375 0.265625q0.625 0.25 1.078125 0.609375l-0.625 0.84375q-0.40625 -0.3125 -0.84375 -0.5q-0.421875 -0.1875 -0.9375 -0.1875q-0.734375 0 -1.078125 0.34375q-0.34375 0.328125 -0.34375 0.765625q0 0.28125 0.140625 0.484375q0.15625 0.1875 0.390625 0.34375q0.234375 0.15625 0.546875 0.28125q0.3125 0.109375 0.65625 0.234375q0.40625 0.171875 0.828125 0.34375q0.4375 0.171875 0.765625 0.4375q0.34375 0.265625 0.546875 0.65625q0.21875 0.375 0.21875 0.921875q0 0.484375 -0.1875 0.90625q-0.171875 0.40625 -0.53125 0.734375q-0.359375 0.3125 -0.90625 0.484375q-0.53125 0.1875 -1.21875 0.1875q-0.828125 0 -1.578125 -0.296875q-0.75 -0.3125 -1.3125 -0.765625l0.65625 -0.890625z" fill-rule="nonzero"></path><path fill="#000000" d="m623.616 660.24963q0 -0.9375 0.28125 -1.703125q0.28125 -0.765625 0.734375 -1.28125q0.46875 -0.53125 1.078125 -0.8125q0.609375 -0.296875 1.28125 -0.296875q0.671875 0 1.1875 0.234375q0.515625 0.234375 1.046875 0.6875l0.03125 0l0.125 -0.734375l1.046875 0l0 11.0625l-1.328125 0l0 -2.765625l0.0625 -1.375q-0.453125 0.421875 -1.0625 0.734375q-0.59375 0.3125 -1.265625 0.3125q-1.46875 0 -2.34375 -1.046875q-0.875 -1.0625 -0.875 -3.015625zm1.359375 -0.015625q0 1.40625 0.5625 2.203125q0.5625 0.78125 1.578125 0.78125q0.546875 0 1.03125 -0.265625q0.484375 -0.265625 0.953125 -0.8125l0 -4.0625q-0.484375 -0.453125 -0.953125 -0.625q-0.453125 -0.1875 -0.921875 -0.1875q-0.46875 0 -0.875 0.21875q-0.40625 0.203125 -0.71875 0.609375q-0.296875 0.390625 -0.484375 0.9375q-0.171875 0.53125 -0.171875 1.203125zm7.440613 0.015625q0 -0.9375 0.28125 -1.703125q0.28125 -0.765625 0.734375 -1.28125q0.46875 -0.53125 1.078125 -0.8125q0.609375 -0.296875 1.28125 -0.296875q0.671875 0 1.171875 0.25q0.5 0.234375 1.0 0.640625l-0.0625 -1.328125l0 -2.984375l1.328125 0l0 11.390625l-1.078125 0l-0.109375 -0.90625l-0.0625 0q-0.453125 0.4375 -1.0625 0.765625q-0.59375 0.328125 -1.28125 0.328125q-1.46875 0 -2.34375 -1.046875q-0.875 -1.0625 -0.875 -3.015625zm1.359375 -0.015625q0 1.40625 0.5625 2.203125q0.5625 0.78125 1.578125 0.78125q0.546875 0 1.03125 -0.265625q0.484375 -0.265625 0.953125 -0.8125l0 -4.0625q-0.484375 -0.453125 -0.953125 -0.625q-0.453125 -0.1875 -0.921875 -0.1875q-0.46875 0 -0.875 0.21875q-0.40625 0.203125 -0.71875 0.609375q-0.296875 0.390625 -0.484375 0.9375q-0.171875 0.53125 -0.171875 1.203125zm8.755005 -5.484375q-0.390625 0 -0.65625 -0.234375q-0.25 -0.25 -0.25 -0.609375q0 -0.390625 0.25 -0.625q0.265625 -0.234375 0.65625 -0.234375q0.390625 0 0.640625 0.234375q0.265625 0.234375 0.265625 0.625q0 0.359375 -0.265625 0.609375q-0.25 0.234375 -0.640625 0.234375zm-0.671875 1.59375l1.3125 0l0 7.78125l-1.3125 0l0 -7.78125zm3.7329102 6.015625q0.5 0.421875 1.03125 0.6875q0.546875 0.25 1.25 0.25q0.765625 0 1.140625 -0.34375q0.390625 -0.359375 0.390625 -0.875q0 -0.3125 -0.15625 -0.53125q-0.15625 -0.21875 -0.40625 -0.390625q-0.25 -0.171875 -0.578125 -0.296875q-0.3125 -0.125 -0.625 -0.25q-0.421875 -0.140625 -0.84375 -0.328125q-0.40625 -0.1875 -0.734375 -0.453125q-0.328125 -0.265625 -0.546875 -0.609375q-0.203125 -0.359375 -0.203125 -0.859375q0 -0.453125 0.1875 -0.859375q0.1875 -0.421875 0.53125 -0.703125q0.34375 -0.296875 0.828125 -0.46875q0.5 -0.171875 1.125 -0.171875q0.734375 0 1.34375 0.265625q0.625 0.25 1.078125 0.609375l-0.625 0.84375q-0.40625 -0.3125 -0.84375 -0.5q-0.421875 -0.1875 -0.9375 -0.1875q-0.734375 0 -1.078125 0.34375q-0.34375 0.328125 -0.34375 0.765625q0 0.28125 0.140625 0.484375q0.15625 0.1875 0.390625 0.34375q0.234375 0.15625 0.546875 0.28125q0.3125 0.109375 0.65625 0.234375q0.40625 0.171875 0.828125 0.34375q0.4375 0.171875 0.765625 0.4375q0.34375 0.265625 0.546875 0.65625q0.21875 0.375 0.21875 0.921875q0 0.484375 -0.1875 0.90625q-0.171875 0.40625 -0.53125 0.734375q-0.359375 0.3125 -0.90625 0.484375q-0.53125 0.1875 -1.21875 0.1875q-0.828125 0 -1.578125 -0.296875q-0.75 -0.3125 -1.3125 -0.765625l0.65625 -0.890625zm6.3289795 -2.109375q0 -0.96875 0.296875 -1.734375q0.3125 -0.765625 0.828125 -1.28125q0.515625 -0.53125 1.1875 -0.796875q0.6875 -0.28125 1.4375 -0.28125q0.765625 0 1.3125 0.28125q0.5625 0.28125 0.953125 0.640625l-0.65625 0.859375q-0.34375 -0.3125 -0.734375 -0.5q-0.375 -0.1875 -0.828125 -0.1875q-0.53125 0 -0.984375 0.21875q-0.4375 0.203125 -0.765625 0.609375q-0.3125 0.40625 -0.5 0.953125q-0.1875 0.546875 -0.1875 1.21875q0 0.671875 0.171875 1.21875q0.1875 0.546875 0.5 0.9375q0.3125 0.390625 0.75 0.609375q0.453125 0.21875 0.984375 0.21875q0.5625 0 1.015625 -0.234375q0.453125 -0.234375 0.796875 -0.5625l0.59375 0.875q-0.515625 0.453125 -1.171875 0.734375q-0.640625 0.265625 -1.34375 0.265625q-0.78125 0 -1.453125 -0.265625q-0.671875 -0.28125 -1.15625 -0.796875q-0.484375 -0.515625 -0.765625 -1.265625q-0.28125 -0.765625 -0.28125 -1.734375z" fill-rule="nonzero"></path><path fill="#000000" fill-opacity="0.0" d="m243.85677 370.175l0 147.30707" fill-rule="nonzero"></path><path stroke="#000000" stroke-width="1.0" stroke-linejoin="round" stroke-linecap="butt" d="m243.85675 370.175l0 141.3071" fill-rule="evenodd"></path><path fill="#000000" stroke="#000000" stroke-width="1.0" stroke-linecap="butt" d="m242.20502 511.4821l1.6517334 4.5381165l1.6517334 -4.5381165z" fill-rule="evenodd"></path><path fill="#000000" fill-opacity="0.0" d="m472.78635 518.371l0 -149.07086" fill-rule="nonzero"></path><path stroke="#000000" stroke-width="1.0" stroke-linejoin="round" stroke-linecap="butt" d="m472.78635 518.371l0 -143.07086" fill-rule="evenodd"></path><path fill="#000000" stroke="#000000" stroke-width="1.0" stroke-linecap="butt" d="m474.43808 375.3001l-1.6517334 -4.538086l-1.6517334 4.538086z" fill-rule="evenodd"></path><path fill="#000000" fill-opacity="0.0" d="m851.16797 542.4724l-274.77167 0" fill-rule="nonzero"></path><path stroke="#000000" stroke-width="1.0" stroke-linejoin="round" stroke-linecap="butt" d="m851.16797 542.4724l-268.77167 0" fill-rule="evenodd"></path><path fill="#000000" stroke="#000000" stroke-width="1.0" stroke-linecap="butt" d="m582.3963 540.8207l-4.538086 1.6517334l4.538086 1.6517334z" fill-rule="evenodd"></path><path fill="#2fa8b4" d="m850.51215 518.371l433.29132 0l0 133.88977l-433.29132 0z" fill-rule="nonzero"></path><path fill="#ffffff" d="m1037.1631 581.9496l3.5625 0l1.53125 5.625q0.234375 0.875 0.46875 1.8125q0.234375 0.921875 0.46875 1.859375l0.09375 0q0.21875 -0.9375 0.4375 -1.859375q0.234375 -0.9375 0.46875 -1.8125l1.5625 -5.625l3.390625 0l-3.890625 11.90625l-4.078125 0l-4.015625 -11.90625zm13.130127 5.953125q0 -1.4375 0.484375 -2.59375q0.484375 -1.171875 1.265625 -1.96875q0.78125 -0.8125 1.78125 -1.234375q1.015625 -0.4375 2.09375 -0.4375q1.265625 0 2.203125 0.4375q0.953125 0.421875 1.59375 1.1875q0.640625 0.765625 0.953125 1.8125q0.3125 1.046875 0.3125 2.265625q0 0.484375 -0.046875 0.890625q-0.046875 0.390625 -0.09375 0.609375l-7.140625 0q0.25 1.359375 1.078125 1.96875q0.828125 0.609375 2.03125 0.609375q1.265625 0 2.5625 -0.78125l1.171875 2.125q-0.90625 0.625 -2.03125 0.984375q-1.109375 0.359375 -2.1875 0.359375q-1.28125 0 -2.390625 -0.40625q-1.09375 -0.421875 -1.90625 -1.21875q-0.8125 -0.8125 -1.28125 -1.96875q-0.453125 -1.15625 -0.453125 -2.640625zm7.6875 -1.21875q0 -1.03125 -0.46875 -1.671875q-0.453125 -0.65625 -1.53125 -0.65625q-0.828125 0 -1.46875 0.5625q-0.640625 0.5625 -0.828125 1.765625l4.296875 0zm5.932007 -1.96875l-1.640625 0l0 -2.625l1.828125 -0.140625l0.40625 -3.171875l2.921875 0l0 3.171875l2.859375 0l0 2.765625l-2.859375 0l0 4.765625q0 1.015625 0.421875 1.46875q0.421875 0.4375 1.125 0.4375q0.28125 0 0.578125 -0.0625q0.296875 -0.078125 0.546875 -0.1875l0.546875 2.578125q-0.484375 0.140625 -1.125 0.28125q-0.640625 0.140625 -1.515625 0.140625q-1.09375 0 -1.875 -0.328125q-0.78125 -0.34375 -1.28125 -0.9375q-0.484375 -0.59375 -0.71875 -1.4375q-0.21875 -0.859375 -0.21875 -1.890625l0 -4.828125zm8.70752 -7.6875l3.53125 0l0 4.125l-0.171875 2.140625q0.671875 -0.59375 1.5625 -1.109375q0.890625 -0.515625 2.109375 -0.515625q1.9375 0 2.8125 1.28125q0.875 1.265625 0.875 3.515625l0 7.390625l-3.515625 0l0 -6.9375q0 -1.296875 -0.359375 -1.765625q-0.34375 -0.484375 -1.109375 -0.484375q-0.671875 0 -1.15625 0.296875q-0.484375 0.296875 -1.046875 0.84375l0 8.046875l-3.53125 0l0 -16.828125zm13.8289795 13.96875l3.296875 0l0 -8.796875l-2.84375 0l0 -2.1875q1.25 -0.25 2.109375 -0.578125q0.859375 -0.34375 1.671875 -0.8125l2.59375 0l0 12.375l2.859375 0l0 2.859375l-9.6875 0l0 -2.859375z" fill-rule="nonzero"></path><path fill="#000000" fill-opacity="0.0" d="m576.0315 598.5744l274.5512 0" fill-rule="nonzero"></path><path stroke="#000000" stroke-width="1.0" stroke-linejoin="round" stroke-linecap="butt" d="m576.0315 598.57446l268.5512 0" fill-rule="evenodd"></path><path fill="#000000" stroke="#000000" stroke-width="1.0" stroke-linecap="butt" d="m844.5827 600.2262l4.538086 -1.6517334l-4.538086 -1.6517334z" fill-rule="evenodd"></path><path fill="#13a159" d="m850.51215 153.52272l433.29132 0l0 217.57481l-433.29132 0z" fill-rule="nonzero"></path><path stroke="#f3f3f3" stroke-width="1.0" stroke-linejoin="round" stroke-linecap="butt" d="m850.51215 153.52272l433.29132 0l0 217.57481l-433.29132 0z" fill-rule="nonzero"></path><path fill="#ffffff" d="m999.1685 258.94388l2.875 0l0.25 1.53125l0.09375 0q0.734375 -0.734375 1.578125 -1.265625q0.84375 -0.546875 2.015625 -0.546875q1.265625 0 2.046875 0.515625q0.78125 0.515625 1.234375 1.46875q0.796875 -0.8125 1.671875 -1.390625q0.875 -0.59375 2.078125 -0.59375q1.921875 0 2.8125 1.28125q0.90625 1.28125 0.90625 3.515625l0 7.390625l-3.53125 0l0 -6.9375q0 -1.296875 -0.34375 -1.765625q-0.34375 -0.484375 -1.109375 -0.484375q-0.890625 0 -2.046875 1.140625l0 8.046875l-3.53125 0l0 -6.9375q0 -1.296875 -0.34375 -1.765625q-0.34375 -0.484375 -1.109375 -0.484375q-0.921875 0 -2.015625 1.140625l0 8.046875l-3.53125 0l0 -11.90625zm19.864807 5.953125q0 -1.4375 0.484375 -2.59375q0.484375 -1.171875 1.265625 -1.96875q0.78125 -0.8125 1.78125 -1.234375q1.015625 -0.4375 2.09375 -0.4375q1.265625 0 2.203125 0.4375q0.953125 0.421875 1.59375 1.1875q0.640625 0.765625 0.953125 1.8125q0.3125 1.046875 0.3125 2.265625q0 0.484375 -0.046875 0.890625q-0.046875 0.390625 -0.09375 0.609375l-7.140625 0q0.25 1.359375 1.078125 1.96875q0.828125 0.609375 2.03125 0.609375q1.265625 0 2.5625 -0.78125l1.171875 2.125q-0.90625 0.625 -2.03125 0.984375q-1.109375 0.359375 -2.1875 0.359375q-1.28125 0 -2.390625 -0.40625q-1.09375 -0.421875 -1.90625 -1.21875q-0.8125 -0.8125 -1.28125 -1.96875q-0.453125 -1.15625 -0.453125 -2.640625zm7.6875 -1.21875q0 -1.03125 -0.46875 -1.671875q-0.453125 -0.65625 -1.53125 -0.65625q-0.828125 0 -1.46875 0.5625q-0.640625 0.5625 -0.828125 1.765625l4.296875 0zm4.822632 1.21875q0 -1.46875 0.421875 -2.609375q0.421875 -1.15625 1.09375 -1.953125q0.6875 -0.8125 1.578125 -1.234375q0.90625 -0.4375 1.84375 -0.4375q1.015625 0 1.65625 0.34375q0.65625 0.328125 1.28125 0.90625l-0.15625 -1.828125l0 -4.0625l3.53125 0l0 16.828125l-2.875 0l-0.234375 -1.171875l-0.109375 0q-0.609375 0.625 -1.453125 1.046875q-0.84375 0.40625 -1.703125 0.40625q-1.109375 0 -2.015625 -0.421875q-0.890625 -0.4375 -1.53125 -1.234375q-0.640625 -0.8125 -0.984375 -1.953125q-0.34375 -1.15625 -0.34375 -2.625zm3.625 -0.046875q0 1.78125 0.5625 2.59375q0.5625 0.8125 1.59375 0.8125q0.578125 0 1.046875 -0.234375q0.46875 -0.25 0.890625 -0.84375l0 -4.875q-0.46875 -0.421875 -0.984375 -0.59375q-0.5 -0.171875 -0.96875 -0.171875q-0.84375 0 -1.5 0.8125q-0.640625 0.796875 -0.640625 2.5zm12.501953 -7.65625q-0.890625 0 -1.46875 -0.515625q-0.578125 -0.515625 -0.578125 -1.328125q0 -0.8125 0.578125 -1.3125q0.578125 -0.515625 1.46875 -0.515625q0.90625 0 1.46875 0.515625q0.578125 0.5 0.578125 1.3125q0 0.8125 -0.578125 1.328125q-0.5625 0.515625 -1.46875 0.515625zm-1.75 1.75l3.53125 0l0 11.90625l-3.53125 0l0 -11.90625zm6.1864014 8.59375q0 -1.875 1.578125 -2.921875q1.59375 -1.0625 5.125 -1.421875q-0.046875 -0.796875 -0.484375 -1.265625q-0.4375 -0.46875 -1.390625 -0.46875q-0.765625 0 -1.546875 0.296875q-0.765625 0.28125 -1.625 0.796875l-1.25 -2.328125q1.15625 -0.703125 2.40625 -1.125q1.265625 -0.4375 2.6875 -0.4375q2.296875 0 3.515625 1.3125q1.21875 1.296875 1.21875 4.0625l0 6.8125l-2.890625 0l-0.265625 -1.21875l-0.0625 0q-0.765625 0.671875 -1.625 1.09375q-0.859375 0.40625 -1.859375 0.40625q-0.8125 0 -1.46875 -0.28125q-0.640625 -0.265625 -1.109375 -0.75q-0.453125 -0.5 -0.703125 -1.140625q-0.25 -0.65625 -0.25 -1.421875zm3.359375 -0.265625q0 0.578125 0.375 0.859375q0.375 0.265625 1.0 0.265625q0.625 0 1.046875 -0.25q0.4375 -0.265625 0.921875 -0.75l0 -2.09375q-1.90625 0.265625 -2.625 0.78125q-0.71875 0.5 -0.71875 1.1875zm18.417358 4.515625l0 3.484375l-3.53125 0l0 -16.328125l2.875 0l0.25 1.171875l0.09375 0q0.6875 -0.625 1.5625 -1.03125q0.875 -0.421875 1.8125 -0.421875q1.078125 0 1.9375 0.4375q0.875 0.421875 1.46875 1.21875q0.609375 0.78125 0.921875 1.90625q0.328125 1.109375 0.328125 2.484375q0 1.53125 -0.421875 2.71875q-0.421875 1.1875 -1.125 2.015625q-0.703125 0.828125 -1.609375 1.265625q-0.890625 0.421875 -1.859375 0.421875q-0.765625 0 -1.484375 -0.3125q-0.71875 -0.328125 -1.34375 -0.921875l0.125 1.890625zm0 -4.296875q0.46875 0.4375 0.953125 0.609375q0.484375 0.15625 0.9375 0.15625q0.90625 0 1.546875 -0.828125q0.65625 -0.828125 0.65625 -2.671875q0 -3.21875 -2.0625 -3.21875q-1.03125 0 -2.03125 1.078125l0 4.875zm10.220703 -13.46875l3.53125 0l0 13.28125q0 0.546875 0.203125 0.765625q0.203125 0.21875 0.421875 0.21875q0.109375 0 0.1875 0q0.09375 0 0.234375 -0.046875l0.4375 2.609375q-0.296875 0.125 -0.734375 0.203125q-0.4375 0.078125 -1.046875 0.078125q-0.90625 0 -1.53125 -0.28125q-0.625 -0.28125 -1.0 -0.796875q-0.375 -0.515625 -0.546875 -1.25q-0.15625 -0.734375 -0.15625 -1.65625l0 -13.125zm6.4265137 13.515625q0 -1.875 1.578125 -2.921875q1.59375 -1.0625 5.125 -1.421875q-0.046875 -0.796875 -0.484375 -1.265625q-0.4375 -0.46875 -1.390625 -0.46875q-0.765625 0 -1.546875 0.296875q-0.765625 0.28125 -1.625 0.796875l-1.25 -2.328125q1.15625 -0.703125 2.40625 -1.125q1.265625 -0.4375 2.6875 -0.4375q2.296875 0 3.515625 1.3125q1.21875 1.296875 1.21875 4.0625l0 6.8125l-2.890625 0l-0.265625 -1.21875l-0.0625 0q-0.765625 0.671875 -1.625 1.09375q-0.859375 0.40625 -1.859375 0.40625q-0.8125 0 -1.46875 -0.28125q-0.640625 -0.265625 -1.109375 -0.75q-0.453125 -0.5 -0.703125 -1.140625q-0.25 -0.65625 -0.25 -1.421875zm3.359375 -0.265625q0 0.578125 0.375 0.859375q0.375 0.265625 1.0 0.265625q0.625 0 1.046875 -0.25q0.4375 -0.265625 0.921875 -0.75l0 -2.09375q-1.90625 0.265625 -2.625 0.78125q-0.71875 0.5 -0.71875 1.1875zm10.159668 5.3125q0.15625 0.046875 0.375 0.09375q0.21875 0.046875 0.40625 0.046875q0.890625 0 1.375 -0.4375q0.484375 -0.421875 0.71875 -1.125l0.171875 -0.625l-4.59375 -11.59375l3.5625 0l1.703125 5.109375q0.265625 0.828125 0.46875 1.671875q0.21875 0.828125 0.46875 1.71875l0.09375 0q0.1875 -0.84375 0.390625 -1.6875q0.203125 -0.859375 0.421875 -1.703125l1.4375 -5.109375l3.390625 0l-4.125 12.03125q-0.4375 1.125 -0.90625 1.96875q-0.46875 0.859375 -1.078125 1.421875q-0.609375 0.5625 -1.390625 0.84375q-0.78125 0.296875 -1.84375 0.296875q-0.546875 0 -0.9375 -0.0625q-0.375 -0.0625 -0.734375 -0.171875l0.625 -2.6875l0 0zm11.535278 -7.6875q0 -1.4375 0.484375 -2.59375q0.484375 -1.171875 1.265625 -1.96875q0.78125 -0.8125 1.78125 -1.234375q1.015625 -0.4375 2.09375 -0.4375q1.265625 0 2.203125 0.4375q0.953125 0.421875 1.59375 1.1875q0.640625 0.765625 0.953125 1.8125q0.3125 1.046875 0.3125 2.265625q0 0.484375 -0.046875 0.890625q-0.046875 0.390625 -0.09375 0.609375l-7.140625 0q0.25 1.359375 1.078125 1.96875q0.828125 0.609375 2.03125 0.609375q1.265625 0 2.5625 -0.78125l1.171875 2.125q-0.90625 0.625 -2.03125 0.984375q-1.109375 0.359375 -2.1875 0.359375q-1.28125 0 -2.390625 -0.40625q-1.09375 -0.421875 -1.90625 -1.21875q-0.8125 -0.8125 -1.28125 -1.96875q-0.453125 -1.15625 -0.453125 -2.640625zm7.6875 -1.21875q0 -1.03125 -0.46875 -1.671875q-0.453125 -0.65625 -1.53125 -0.65625q-0.828125 0 -1.46875 0.5625q-0.640625 0.5625 -0.828125 1.765625l4.296875 0zm5.44751 -4.734375l2.875 0l0.25 2.09375l0.09375 0q0.640625 -1.234375 1.546875 -1.796875q0.921875 -0.578125 1.828125 -0.578125q0.5 0 0.828125 0.0625q0.328125 0.046875 0.59375 0.171875l-0.578125 3.046875q-0.34375 -0.09375 -0.625 -0.140625q-0.28125 -0.046875 -0.671875 -0.046875q-0.671875 0 -1.40625 0.484375q-0.734375 0.46875 -1.203125 1.703125l0 6.90625l-3.53125 0l0 -11.90625z" fill-rule="nonzero"></path><path fill="#000000" fill-opacity="0.0" d="m951.1113 370.175l0 147.30707" fill-rule="nonzero"></path><path stroke="#000000" stroke-width="1.0" stroke-linejoin="round" stroke-linecap="butt" d="m951.1114 370.175l0 141.3071" fill-rule="evenodd"></path><path fill="#000000" stroke="#000000" stroke-width="1.0" stroke-linecap="butt" d="m949.45966 511.4821l1.6517334 4.5381165l1.6517334 -4.5381165z" fill-rule="evenodd"></path><path fill="#000000" fill-opacity="0.0" d="m1180.0409 518.371l0 -149.07086" fill-rule="nonzero"></path><path stroke="#000000" stroke-width="1.0" stroke-linejoin="round" stroke-linecap="butt" d="m1180.0409 518.371l0 -143.07086" fill-rule="evenodd"></path><path fill="#000000" stroke="#000000" stroke-width="1.0" stroke-linecap="butt" d="m1181.6926 375.3001l-1.6517334 -4.538086l-1.6517334 4.538086z" fill-rule="evenodd"></path><path fill="#000000" fill-opacity="0.0" d="m1015.96063 67.944885l102.39374 0l0 79.27559l-102.39374 0z" fill-rule="nonzero"></path><path fill="#000000" d="m1042.7598 84.75864l0 8.421875q2.125 -2.484375 5.078125 -2.484375q1.515625 0 2.734375 0.5625q1.21875 0.5625 1.828125 1.4375q0.625 0.875 0.84375 1.9375q0.234375 1.0625 0.234375 3.296875l0 9.734375l-4.390625 0l0 -8.765625q0 -2.609375 -0.25 -3.3125q-0.25 -0.703125 -0.890625 -1.109375q-0.625 -0.421875 -1.578125 -0.421875q-1.09375 0 -1.953125 0.53125q-0.859375 0.53125 -1.265625 1.609375q-0.390625 1.0625 -0.390625 3.15625l0 8.3125l-4.390625 0l0 -22.90625l4.390625 0z" fill-rule="nonzero"></path><path fill="#000000" d="m1056.791 99.72739q0 -1.984375 0.640625 -3.53125q0.640625 -1.5625 1.703125 -2.609375q1.078125 -1.0625 2.484375 -1.609375q1.40625 -0.5625 2.90625 -0.5625q1.515625 0 2.90625 0.5625q1.390625 0.546875 2.453125 1.609375q1.078125 1.046875 1.71875 2.609375q0.640625 1.546875 0.640625 3.53125q0 1.984375 -0.640625 3.546875q-0.640625 1.546875 -1.71875 2.609375q-1.0625 1.046875 -2.453125 1.609375q-1.390625 0.5625 -2.90625 0.5625q-1.5 0 -2.90625 -0.5625q-1.40625 -0.5625 -2.484375 -1.609375q-1.0625 -1.0625 -1.703125 -2.609375q-0.640625 -1.5625 -0.640625 -3.546875zm4.828125 0q0 2.078125 0.71875 3.296875q0.71875 1.21875 2.1875 1.21875q1.453125 0 2.1875 -1.21875q0.734375 -1.21875 0.734375 -3.296875q0 -2.078125 -0.734375 -3.296875q-0.734375 -1.21875 -2.1875 -1.21875q-1.46875 0 -2.1875 1.21875q-0.71875 1.21875 -0.71875 3.296875zm14.556885 3.171875q1.09375 0.828125 2.078125 1.25q1.0 0.40625 2.015625 0.40625q1.0625 0 1.53125 -0.34375q0.484375 -0.359375 0.484375 -1.0q0 -0.375 -0.265625 -0.671875q-0.265625 -0.3125 -0.734375 -0.5625q-0.46875 -0.265625 -1.046875 -0.46875q-0.578125 -0.21875 -1.1875 -0.46875q-0.734375 -0.28125 -1.46875 -0.671875q-0.734375 -0.390625 -1.34375 -0.9375q-0.609375 -0.5625 -1.0 -1.3125q-0.375 -0.75 -0.375 -1.75q0 -1.09375 0.4375 -2.015625q0.4375 -0.921875 1.234375 -1.5625q0.796875 -0.640625 1.90625 -1.0q1.125 -0.375 2.5 -0.375q1.828125 0 3.203125 0.625q1.375 0.609375 2.40625 1.390625l-2.109375 2.8125q-0.875 -0.640625 -1.703125 -0.984375q-0.828125 -0.359375 -1.65625 -0.359375q-1.796875 0 -1.796875 1.25q0 0.375 0.25 0.65625q0.265625 0.265625 0.6875 0.5q0.4375 0.21875 1.0 0.421875q0.5625 0.203125 1.15625 0.4375q0.78125 0.28125 1.53125 0.65625q0.75 0.359375 1.375 0.90625q0.625 0.546875 1.0 1.328125q0.390625 0.78125 0.390625 1.875q0 1.09375 -0.421875 2.015625q-0.40625 0.921875 -1.25 1.609375q-0.828125 0.6875 -2.046875 1.09375q-1.203125 0.40625 -2.8125 0.40625q-1.5625 0 -3.21875 -0.609375q-1.640625 -0.609375 -2.859375 -1.609375l2.109375 -2.9375z" fill-rule="nonzero"></path><path fill="#000000" d="m1097.477 91.07114l0 3.5l-3.0 0l0 6.6875q0 2.03125 0.078125 2.375q0.09375 0.328125 0.390625 0.546875q0.3125 0.21875 0.75 0.21875q0.609375 0 1.765625 -0.421875l0.375 3.40625q-1.53125 0.65625 -3.46875 0.65625q-1.1875 0 -2.140625 -0.390625q-0.953125 -0.40625 -1.40625 -1.03125q-0.4375 -0.640625 -0.609375 -1.71875q-0.140625 -0.765625 -0.140625 -3.09375l0 -7.234375l-2.015625 0l0 -3.5l2.015625 0l0 -3.296875l4.40625 -2.5625l0 5.859375l3.0 0z" fill-rule="nonzero"></path></g></svg>

