<?xml version="1.0" encoding="UTF-8" standalone="no"?>
<!-- Created with Inkscape (http://www.inkscape.org/) -->

<svg
   xmlns:dc="http://purl.org/dc/elements/1.1/"
   xmlns:cc="http://creativecommons.org/ns#"
   xmlns:rdf="http://www.w3.org/1999/02/22-rdf-syntax-ns#"
   xmlns:svg="http://www.w3.org/2000/svg"
   xmlns="http://www.w3.org/2000/svg"
   xmlns:sodipodi="http://sodipodi.sourceforge.net/DTD/sodipodi-0.dtd"
   xmlns:inkscape="http://www.inkscape.org/namespaces/inkscape"
   width="430.40976mm"
   height="170.65787mm"
   viewBox="0 0 1525.0739 604.69323"
   id="svg2"
   version="1.1"
   inkscape:version="0.91 r13725"
   sodipodi:docname="gopher-plus-bcc.svg"
   inkscape:export-filename="/home/schu/gopher-plus-bcc.png"
   inkscape:export-xdpi="90"
   inkscape:export-ydpi="90">
  <defs
     id="defs4" />
  <sodipodi:namedview
     id="base"
     pagecolor="#ffffff"
     bordercolor="#666666"
     borderopacity="1.0"
     inkscape:pageopacity="0.0"
     inkscape:pageshadow="2"
     inkscape:zoom="0.35"
     inkscape:cx="-221.4473"
     inkscape:cy="364.05641"
     inkscape:document-units="px"
     inkscape:current-layer="g3676"
     showgrid="false"
     fit-margin-top="0"
     fit-margin-left="0"
     fit-margin-right="0"
     fit-margin-bottom="0"
     inkscape:window-width="1916"
     inkscape:window-height="1023"
     inkscape:window-x="0"
     inkscape:window-y="36"
     inkscape:window-maximized="0" />
  <metadata
     id="metadata7">
    <rdf:RDF>
      <cc:Work
         rdf:about="">
        <dc:format>image/svg+xml</dc:format>
        <dc:type
           rdf:resource="http://purl.org/dc/dcmitype/StillImage" />
        <dc:title></dc:title>
      </cc:Work>
    </rdf:RDF>
  </metadata>
  <g
     inkscape:label="Layer 1"
     inkscape:groupmode="layer"
     id="layer1"
     transform="translate(-232.44865,-291.72532)">
    <g
       id="g3638"
       transform="translate(31.889721,-35.433099)">
      <g
         id="g3676"
         transform="translate(25.708605,0)">
        <g
           transform="matrix(3.8223142,0,0,3.8223142,986.24579,289.21611)"
           id="layer1-6"
           inkscape:label="Layer 1">
          <g
             transform="translate(-9.2594183,0)"
             id="g4237">
            <g
               id="text3894-8"
               style="font-style:normal;font-variant:normal;font-weight:normal;font-stretch:normal;font-size:159.42726135px;line-height:0%;font-family:'Open Sans';-inkscape-font-specification:Sans;text-align:end;letter-spacing:-220.96620178px;word-spacing:0px;text-anchor:end;fill:#5a2a7a;fill-opacity:1;stroke:none">
              <path
                 inkscape:connector-curvature="0"
                 id="path4363"
                 transform="translate(1.9666778,7.658902)"
                 d="m 20,20 0,121.125 18.125,0 2.5,-6.03125 c 0.8784,-1.42156 0.80734,-4.26454 3.125,-3.53125 7.792014,10.57538 22.717836,13.42947 34.75,9.46875 13.075885,-4.35147 20.19391,-18.12418 21.875,-31.0625 0.11735,-0.92644 0.24681,-1.84573 0.34375,-2.78125 l -24.5,0 c -0.672646,3.33799 -1.792798,6.56729 -3.53125,9.5625 -3.219708,5.87821 -10.565247,7.97697 -16.75,6.125 -7.207936,-1.44191 -10.751371,-8.81172 -11.5,-15.5 -0.938115,-8.75323 -1.423638,-17.920742 1.34375,-26.40625 1.900727,-6.370935 8.634375,-9.884146 15,-9.5 4.696235,-0.182402 8.393519,2.043213 11.03125,5.34375 l 26.6875,0 C 97.417905,73.363813 95.992292,70.00998 94.125,66.84375 88.994034,57.788433 78.819496,52.080562 68.40625,52.46875 63.182778,52.45477 57.879945,53.480878 53.3125,56.09375 48.771891,57.830316 46.386127,63.260648 42.8125,65.375 44.249967,50.285021 43.606677,35.131316 43.75,20 L 20,20 Z"
                 style="font-weight:bold;font-family:'Open Sans';-inkscape-font-specification:'Open Sans Light';letter-spacing:0px;fill:#5a2a7a" />
            </g>
            <g
               transform="matrix(-1,0,0,-1,286.62081,200.49829)"
               id="g4194">
              <path
                 inkscape:connector-curvature="0"
                 id="path3243-2-8"
                 transform="translate(1.9666778,7.658902)"
                 d="m 140.21875,42.5 c -1.05652,0.0723 -2.08693,0.25622 -3.125,0.375 l -0.0625,0 -2.46875,13.53125 c -4.04737,0.92166 -7.85564,2.49945 -11.28125,4.625 L 112.125,53 c -3.01102,2.33761 -5.74899,5.0785 -8.15625,8.03125 l 7.71875,11.28125 c -0.97245,1.486128 -1.83447,3.048161 -2.59375,4.6875 l 32.96875,0 0.78125,0 1.09375,0 0,0.03125 c 7.89174,0.563622 14.15625,7.188282 14.15625,15.21875 0,8.39769 -6.85231,15.1875 -15.25,15.1875 -0.52486,0 -1.05151,-0.042 -1.5625,-0.0937 l -32.5625,0 c 0.85371,1.98646 1.886,3.90048 3.0625,5.6875 l -8.03125,11 c 2.29593,2.8503 4.95533,5.43121 7.8125,7.71875 l 11.34375,-7.78125 c 3.96715,2.53068 8.3874,4.28248 13.1875,5.15625 l 2.125,13.40625 c 1.51246,0.13757 3.07702,0.15625 4.625,0.15625 2.18534,0 4.26295,-0.0718 6.375,-0.34375 l 2.5625,-13.71875 c 4.55742,-1.13418 8.84452,-3.10528 12.5625,-5.75 L 175.25,130.8438 c 2.8333,-2.41051 5.4495,-5.17856 7.6875,-8.15625 l -7.96875,-11.5 c 2.15194,-3.71633 3.65055,-7.83338 4.40625,-12.21875 l 13.40625,-2.125 c 0.11799,-1.39922 0.15625,-2.75799 0.15625,-4.1875 0,-2.484124 -0.30647,-4.89404 -0.65625,-7.28125 l -13.625,-2.5 c -1.06744,-3.94162 -2.81323,-7.63094 -5.03125,-10.9375 l 8.03125,-10.96875 c -2.48498,-3.03894 -5.31509,-5.86655 -8.4375,-8.25 L 161.625,60.6563 c -3.32363,-1.96568 -6.89791,-3.45871 -10.78125,-4.3125 l -2.125,-13.46875 c -1.9371,-0.22788 -3.87704,-0.375 -5.875,-0.375 -0.54011,0 -1.0889,-0.0159 -1.625,0 -0.26124,0.008 -0.52086,-0.0159 -0.78125,0 -0.0703,0.005 -0.14832,-0.005 -0.21875,0 z"
                 style="color:#000000;fill:#4d4d4d;stroke:none" />
            </g>
          </g>
        </g>
        <g
           id="g3605"
           transform="translate(227.01703,350.96934)">
          <path
             id="path3545"
             d="m 10.634,300.493 c 0.764,15.751 16.499,8.463 23.626,3.539 6.765,-4.675 8.743,-0.789 9.337,-10.015 0.389,-6.064 1.088,-12.128 0.744,-18.216 -10.23,-0.927 -21.357,1.509 -29.744,7.602 -4.32,3.139 -12.42,13.158 -3.963,17.09"
             inkscape:connector-curvature="0"
             style="clip-rule:evenodd;fill:#f6d2a2;fill-rule:evenodd;stroke:#000000;stroke-width:3;stroke-linecap:round" />
          <path
             id="path3547"
             d="m 10.634,300.493 c 2.29,-0.852 4.717,-1.457 6.271,-3.528"
             inkscape:connector-curvature="0"
             style="clip-rule:evenodd;fill:#c6b198;fill-rule:evenodd;stroke:#000000;stroke-width:3;stroke-linecap:round" />
          <path
             id="path3549"
             d="M 46.997,112.853 C -13.3,95.897 31.536,19.189 79.956,50.74 l -32.959,62.113 z"
             inkscape:connector-curvature="0"
             style="clip-rule:evenodd;fill:#6ad7e5;fill-rule:evenodd;stroke:#000000;stroke-width:3;stroke-linecap:round" />
          <path
             id="path3551"
             d="m 314.895,44.984 c 47.727,-33.523 90.856,42.111 35.388,61.141 L 314.895,44.984 Z"
             inkscape:connector-curvature="0"
             style="clip-rule:evenodd;fill:#6ad7e5;fill-rule:evenodd;stroke:#000000;stroke-width:3;stroke-linecap:round" />
          <path
             id="path3553"
             d="m 325.161,494.343 c 12.123,7.501 34.282,30.182 16.096,41.18 -17.474,15.999 -27.254,-17.561 -42.591,-22.211 6.605,-8.97 14.977,-17.149 26.495,-18.969 z"
             inkscape:connector-curvature="0"
             style="clip-rule:evenodd;fill:#f6d2a2;fill-rule:evenodd;stroke:#000000;stroke-width:3;stroke-linecap:round" />
          <path
             id="path3555"
             d="m 341.257,535.522 c -2.696,-5.361 -3.601,-11.618 -8.102,-15.939"
             inkscape:connector-curvature="0"
             style="clip-rule:evenodd;fill:none;fill-rule:evenodd;stroke:#000000;stroke-width:3;stroke-linecap:round" />
          <path
             id="path3557"
             d="m 108.579,519.975 c -14.229,2.202 -22.238,15.039 -34.1,21.558 -11.178,6.665 -15.454,-2.134 -16.461,-3.92 -1.752,-0.799 -1.605,0.744 -4.309,-1.979 -10.362,-16.354 10.797,-28.308 21.815,-36.432 15.346,-3.102 24.963,10.202 33.055,20.773 z"
             inkscape:connector-curvature="0"
             style="clip-rule:evenodd;fill:#f6d2a2;fill-rule:evenodd;stroke:#000000;stroke-width:3;stroke-linecap:round" />
          <path
             id="path3559"
             d="m 58.019,537.612 c 0.542,-6.233 5.484,-10.407 7.838,-15.677"
             inkscape:connector-curvature="0"
             style="clip-rule:evenodd;fill:none;fill-rule:evenodd;stroke:#000000;stroke-width:3;stroke-linecap:round" />
          <path
             id="path3561"
             d="M 49.513,91.667 C 41.558,87.459 35.722,81.744 40.588,72.543 45.093,64.025 53.462,64.95 61.418,69.158 L 49.513,91.667 Z"
             inkscape:connector-curvature="0"
             style="clip-rule:evenodd;fill-rule:evenodd" />
          <path
             id="path3563"
             d="m 337.716,83.667 c 7.955,-4.208 13.791,-9.923 8.925,-19.124 -4.505,-8.518 -12.874,-7.593 -20.83,-3.385 l 11.905,22.509 z"
             inkscape:connector-curvature="0"
             style="clip-rule:evenodd;fill-rule:evenodd" />
          <path
             id="path3565"
             d="m 392.475,298.493 c -0.764,15.751 -16.499,8.463 -23.626,3.539 -6.765,-4.675 -8.743,-0.789 -9.337,-10.015 -0.389,-6.064 -1.088,-12.128 -0.744,-18.216 10.23,-0.927 21.357,1.509 29.744,7.602 4.319,3.139 12.42,13.158 3.963,17.09"
             inkscape:connector-curvature="0"
             style="clip-rule:evenodd;fill:#f6d2a2;fill-rule:evenodd;stroke:#000000;stroke-width:3;stroke-linecap:round" />
          <path
             id="path3567"
             d="m 392.475,298.493 c -2.29,-0.852 -4.717,-1.457 -6.271,-3.528"
             inkscape:connector-curvature="0"
             style="clip-rule:evenodd;fill:#c6b198;fill-rule:evenodd;stroke:#000000;stroke-width:3;stroke-linecap:round" />
          <g
             id="g3569">
            <path
               id="path3571"
               d="m 195.512,13.124 c 60.365,0 116.953,8.633 146.452,66.629 26.478,65.006 17.062,135.104 21.1,203.806 3.468,58.992 11.157,127.145 -16.21,181.812 -28.79,57.514 -100.73,71.982 -160,69.863 C 140.299,533.568 84.06,518.38 57.785,475.845 26.959,425.945 41.553,351.747 43.792,296.223 46.444,230.452 25.977,164.481 47.584,100.122 69.999,33.359 130.451,18.271 195.512,13.124"
               inkscape:connector-curvature="0"
               style="clip-rule:evenodd;fill:#6ad7e5;fill-rule:evenodd;stroke:#000000;stroke-width:3;stroke-linecap:round" />
          </g>
          <path
             id="path3573"
             d="m 206.169,94.16 c 10.838,63.003 113.822,46.345 99.03,-17.197 -13.264,-56.98 -102.632,-41.208 -99.03,17.197"
             inkscape:connector-curvature="0"
             style="clip-rule:evenodd;fill:#ffffff;fill-rule:evenodd;stroke:#000000;stroke-width:2.90809989;stroke-linecap:round" />
          <path
             id="path3575"
             d="M 83.103,104.35 C 97.15,159.2 184.967,145.157 181.657,90.137 177.691,24.242 69.673,36.957 83.103,104.35"
             inkscape:connector-curvature="0"
             style="clip-rule:evenodd;fill:#ffffff;fill-rule:evenodd;stroke:#000000;stroke-width:2.82139993;stroke-linecap:round" />
          <path
             id="path3577"
             d="m 218.594,169.762 c 0.046,8.191 1.861,17.387 0.312,26.101 -2.091,3.952 -6.193,4.37 -9.729,5.967 -4.89,-0.767 -9.002,-3.978 -10.963,-8.552 -1.255,-9.946 0.468,-19.576 0.785,-29.526 l 19.595,6.01 z"
             inkscape:connector-curvature="0"
             style="clip-rule:evenodd;fill:#ffffff;fill-rule:evenodd;stroke:#000000;stroke-width:3;stroke-linecap:round" />
          <g
             id="g3579">
            <ellipse
               id="ellipse3581"
               ry="16.062"
               rx="14.829"
               cy="95.403999"
               cx="107.324"
               style="clip-rule:evenodd;fill-rule:evenodd" />
            <ellipse
               id="ellipse3583"
               ry="4.0819998"
               rx="3.4960001"
               cy="99.028999"
               cx="114.069"
               style="clip-rule:evenodd;fill:#ffffff;fill-rule:evenodd" />
          </g>
          <g
             id="g3585">
            <ellipse
               id="ellipse3587"
               ry="16.062"
               rx="14.582"
               cy="91.403999"
               cx="231.571"
               style="clip-rule:evenodd;fill-rule:evenodd" />
            <ellipse
               id="ellipse3589"
               ry="4.0819998"
               rx="3.438"
               cy="95.028999"
               cx="238.20399"
               style="clip-rule:evenodd;fill:#ffffff;fill-rule:evenodd" />
          </g>
          <path
             id="path3591"
             d="m 176.217,168.87 c -6.47,15.68 3.608,47.035 21.163,23.908 -1.255,-9.946 0.468,-19.576 0.785,-29.526 l -21.948,5.618 z"
             inkscape:connector-curvature="0"
             style="clip-rule:evenodd;fill:#ffffff;fill-rule:evenodd;stroke:#000000;stroke-width:3;stroke-linecap:round" />
          <g
             id="g3593">
            <path
               id="path3595"
               d="m 178.431,138.673 c -12.059,1.028 -21.916,15.366 -15.646,26.709 8.303,15.024 26.836,-1.329 38.379,0.203 13.285,0.272 24.17,14.047 34.84,2.49 11.867,-12.854 -5.109,-25.373 -18.377,-30.97 l -39.196,1.568 z"
               inkscape:connector-curvature="0"
               style="clip-rule:evenodd;fill:#f6d2a2;fill-rule:evenodd;stroke:#231f20;stroke-width:3;stroke-linecap:round" />
            <path
               id="path3597"
               d="m 176.913,138.045 c -0.893,-20.891 38.938,-23.503 43.642,-6.016 4.692,17.446 -41.681,21.498 -43.642,6.016 -1.565,-12.363 0,0 0,0 z"
               inkscape:connector-curvature="0"
               style="clip-rule:evenodd;fill-rule:evenodd" />
          </g>
        </g>
        <g
           style="font-style:normal;font-weight:normal;font-size:359.50079346px;line-height:125%;font-family:sans-serif;letter-spacing:0px;word-spacing:0px;fill:#333333;fill-opacity:1;stroke:none;stroke-width:1px;stroke-linecap:butt;stroke-linejoin:miter;stroke-opacity:1"
           id="text3634">
          <path
             d="m 916.57498,608.11476 -65.42914,0 0,-65.42914 -42.7806,0 0,65.42914 -65.42914,0 0,42.7806 65.42914,0 0,65.42914 42.7806,0 0,-65.42914 65.42914,0 0,-42.7806 z"
             style="font-style:normal;font-variant:normal;font-weight:bold;font-stretch:normal;font-family:'Nimbus Sans L';-inkscape-font-specification:'Nimbus Sans L Bold';fill:#333333"
             id="path3814" />
        </g>
      </g>
    </g>
  </g>
</svg>
