<?xml version="1.0" standalone="yes"?>

<svg version="1.1" viewBox="0.0 0.0 1077.4750656167978 763.6876640419947" fill="none" stroke="none" stroke-linecap="square" stroke-miterlimit="10" xmlns="http://www.w3.org/2000/svg" xmlns:xlink="http://www.w3.org/1999/xlink"><clipPath id="p.0"><path d="m0 0l1077.4751 0l0 763.6877l-1077.4751 0l0 -763.6877z" clip-rule="nonzero"></path></clipPath><g clip-path="url(#p.0)"><path fill="#000000" fill-opacity="0.0" d="m0 0l1077.4751 0l0 763.6877l-1077.4751 0z" fill-rule="nonzero"></path><path fill="#efefef" d="m62.249344 30.199474l640.8189 0l0 642.7402l-640.8189 0z" fill-rule="nonzero"></path><path fill="#000000" d="m353.50485 47.481976l4.703125 0l0 5.515625l-0.21875 2.84375q0.890625 -0.796875 2.078125 -1.484375q1.1875 -0.6875 2.8125 -0.6875q2.59375 0 3.765625 1.703125q1.171875 1.6875 1.171875 4.6875l0 9.859379l-4.703125 0l0 -9.250004q0 -1.71875 -0.46875 -2.359375q-0.46875 -0.640625 -1.484375 -0.640625q-0.90625 0 -1.546875 0.40625q-0.640625 0.390625 -1.40625 1.125l0 10.718754l-4.703125 0l0 -22.437504zm17.350159 14.5q0 -1.984375 0.640625 -3.53125q0.640625 -1.5625 1.703125 -2.609375q1.078125 -1.0625 2.484375 -1.609375q1.40625 -0.5625 2.90625 -0.5625q1.515625 0 2.90625 0.5625q1.390625 0.546875 2.453125 1.609375q1.078125 1.046875 1.71875 2.609375q0.640625 1.546875 0.640625 3.53125q0 1.984375 -0.640625 3.5468788q-0.640625 1.546875 -1.71875 2.609375q-1.0625 1.046875 -2.453125 1.609375q-1.390625 0.5625 -2.90625 0.5625q-1.5 0 -2.90625 -0.5625q-1.40625 -0.5625 -2.484375 -1.609375q-1.0625 -1.0625 -1.703125 -2.609375q-0.640625 -1.5625038 -0.640625 -3.5468788zm4.828125 0q0 2.0781288 0.71875 3.2968788q0.71875 1.21875 2.1875 1.21875q1.453125 0 2.1875 -1.21875q0.734375 -1.21875 0.734375 -3.2968788q0 -2.078125 -0.734375 -3.296875q-0.734375 -1.21875 -2.1875 -1.21875q-1.46875 0 -2.1875 1.21875q-0.71875 1.21875 -0.71875 3.296875zm14.556915 3.1718788q1.09375 0.828125 2.078125 1.25q1.0 0.40625 2.015625 0.40625q1.0625 0 1.53125 -0.34375q0.484375 -0.359375 0.484375 -1.0q0 -0.375 -0.265625 -0.671875q-0.265625 -0.3125 -0.734375 -0.5625q-0.46875 -0.2656288 -1.046875 -0.4687538q-0.578125 -0.21875 -1.1875 -0.46875q-0.734375 -0.28125 -1.46875 -0.671875q-0.734375 -0.390625 -1.34375 -0.9375q-0.609375 -0.5625 -1.0 -1.3125q-0.375 -0.75 -0.375 -1.75q0 -1.09375 0.4375 -2.015625q0.4375 -0.921875 1.234375 -1.5625q0.796875 -0.640625 1.90625 -1.0q1.125 -0.375 2.5 -0.375q1.828125 0 3.203125 0.625q1.375 0.609375 2.40625 1.390625l-2.109375 2.8125q-0.875 -0.640625 -1.703125 -0.984375q-0.828125 -0.359375 -1.65625 -0.359375q-1.796875 0 -1.796875 1.25q0 0.375 0.25 0.65625q0.265625 0.265625 0.6875 0.5q0.4375 0.21875 1.0 0.421875q0.5625 0.203125 1.15625 0.4375q0.78125 0.28125 1.53125 0.65625q0.75 0.359375 1.375 0.90625q0.625 0.546875 1.0 1.328125q0.390625 0.7812538 0.390625 1.8750038q0 1.09375 -0.421875 2.015625q-0.40625 0.921875 -1.25 1.609375q-0.828125 0.6875 -2.046875 1.09375q-1.203125 0.40625 -2.8125 0.40625q-1.5625 0 -3.21875 -0.609375q-1.640625 -0.609375 -2.859375 -1.609375l2.109375 -2.9375zm14.113525 -7.421879l-2.171875 0l0 -3.5l2.421875 -0.1875l0.546875 -4.21875l3.90625 0l0 4.21875l3.8125 0l0 3.6875l-3.8125 0l0 6.359379q0 1.34375 0.5625 1.9375q0.5625 0.59375 1.484375 0.59375q0.390625 0 0.78125 -0.09375q0.40625 -0.09375 0.71875 -0.21875l0.75 3.421875q-0.640625 0.1875 -1.515625 0.375q-0.859375 0.203125 -2.015625 0.203125q-1.46875 0 -2.515625 -0.453125q-1.03125 -0.453125 -1.6875 -1.25q-0.65625 -0.796875 -0.96875 -1.9375q-0.296875 -1.140625 -0.296875 -2.515625l0 -6.421879z" fill-rule="nonzero"></path><path fill="#13a159" d="m127.25754 121.52272l433.29135 0l0 217.57481l-433.29135 0z" fill-rule="nonzero"></path><path stroke="#f3f3f3" stroke-width="1.0" stroke-linejoin="round" stroke-linecap="butt" d="m127.25754 121.52272l433.29135 0l0 217.57481l-433.29135 0z" fill-rule="nonzero"></path><path fill="#ffffff" d="m308.2331 239.78763l0 3.484375l-3.53125 0l0 -16.328125l2.875 0l0.25 1.171875l0.09375 0q0.6875 -0.625 1.5625 -1.03125q0.875 -0.421875 1.8125 -0.421875q1.078125 0 1.9375 0.4375q0.875 0.421875 1.46875 1.21875q0.609375 0.78125 0.921875 1.90625q0.328125 1.109375 0.328125 2.484375q0 1.53125 -0.421875 2.71875q-0.421875 1.1875 -1.125 2.015625q-0.703125 0.828125 -1.609375 1.265625q-0.890625 0.421875 -1.859375 0.421875q-0.765625 0 -1.484375 -0.3125q-0.71875 -0.328125 -1.34375 -0.921875l0.125 1.890625zm0 -4.296875q0.46875 0.4375 0.953125 0.609375q0.484375 0.15625 0.9375 0.15625q0.90625 0 1.546875 -0.828125q0.65625 -0.828125 0.65625 -2.671875q0 -3.21875 -2.0625 -3.21875q-1.03125 0 -2.03125 1.078125l0 4.875zm10.220703 -8.546875l2.875 0l0.25 2.09375l0.09375 0q0.640625 -1.234375 1.546875 -1.796875q0.921875 -0.578125 1.828125 -0.578125q0.5 0 0.828125 0.0625q0.328125 0.046875 0.59375 0.171875l-0.578125 3.046875q-0.34375 -0.09375 -0.625 -0.140625q-0.28125 -0.046875 -0.671875 -0.046875q-0.671875 0 -1.40625 0.484375q-0.734375 0.46875 -1.203125 1.703125l0 6.90625l-3.53125 0l0 -11.90625zm8.848846 5.953125q0 -1.484375 0.484375 -2.640625q0.484375 -1.171875 1.28125 -1.96875q0.8125 -0.796875 1.859375 -1.203125q1.0625 -0.421875 2.1875 -0.421875q1.125 0 2.171875 0.421875q1.046875 0.40625 1.84375 1.203125q0.8125 0.796875 1.28125 1.96875q0.484375 1.15625 0.484375 2.640625q0 1.484375 -0.484375 2.65625q-0.46875 1.15625 -1.28125 1.953125q-0.796875 0.796875 -1.84375 1.21875q-1.046875 0.40625 -2.171875 0.40625q-1.125 0 -2.1875 -0.40625q-1.046875 -0.421875 -1.859375 -1.21875q-0.796875 -0.796875 -1.28125 -1.953125q-0.484375 -1.171875 -0.484375 -2.65625zm3.625 0q0 1.5625 0.53125 2.484375q0.546875 0.90625 1.65625 0.90625q1.078125 0 1.625 -0.90625q0.5625 -0.921875 0.5625 -2.484375q0 -1.5625 -0.5625 -2.46875q-0.546875 -0.921875 -1.625 -0.921875q-1.109375 0 -1.65625 0.921875q-0.53125 0.90625 -0.53125 2.46875zm9.694946 0q0 -1.484375 0.5 -2.640625q0.515625 -1.171875 1.359375 -1.96875q0.859375 -0.796875 1.984375 -1.203125q1.125 -0.421875 2.359375 -0.421875q1.09375 0 1.984375 0.375q0.890625 0.359375 1.484375 0.984375l-1.609375 2.1875q-0.828125 -0.703125 -1.65625 -0.703125q-1.296875 0 -2.046875 0.921875q-0.734375 0.90625 -0.734375 2.46875q0 1.5625 0.75 2.484375q0.765625 0.90625 1.921875 0.90625q0.640625 0 1.171875 -0.265625q0.53125 -0.265625 0.953125 -0.609375l1.421875 2.234375q-0.859375 0.765625 -1.921875 1.125q-1.046875 0.359375 -2.03125 0.359375q-1.25 0 -2.328125 -0.40625q-1.0625 -0.421875 -1.859375 -1.21875q-0.78125 -0.796875 -1.25 -1.953125q-0.453125 -1.171875 -0.453125 -2.65625zm11.207977 0q0 -1.4375 0.484375 -2.59375q0.484375 -1.171875 1.265625 -1.96875q0.78125 -0.8125 1.78125 -1.234375q1.015625 -0.4375 2.09375 -0.4375q1.265625 0 2.203125 0.4375q0.953125 0.421875 1.59375 1.1875q0.640625 0.765625 0.953125 1.8125q0.3125 1.046875 0.3125 2.265625q0 0.484375 -0.046875 0.890625q-0.046875 0.390625 -0.09375 0.609375l-7.140625 0q0.25 1.359375 1.078125 1.96875q0.828125 0.609375 2.03125 0.609375q1.265625 0 2.5625 -0.78125l1.171875 2.125q-0.90625 0.625 -2.03125 0.984375q-1.109375 0.359375 -2.1875 0.359375q-1.28125 0 -2.390625 -0.40625q-1.09375 -0.421875 -1.90625 -1.21875q-0.8125 -0.8125 -1.28125 -1.96875q-0.453125 -1.15625 -0.453125 -2.640625zm7.6875 -1.21875q0 -1.03125 -0.46875 -1.671875q-0.453125 -0.65625 -1.53125 -0.65625q-0.828125 0 -1.46875 0.5625q-0.640625 0.5625 -0.828125 1.765625l4.296875 0zm5.978821 3.59375q0.8125 0.625 1.546875 0.9375q0.75 0.3125 1.515625 0.3125q0.796875 0 1.15625 -0.265625q0.359375 -0.265625 0.359375 -0.75q0 -0.28125 -0.203125 -0.5q-0.203125 -0.234375 -0.5625 -0.421875q-0.34375 -0.203125 -0.78125 -0.359375q-0.421875 -0.15625 -0.875 -0.34375q-0.546875 -0.21875 -1.109375 -0.5q-0.546875 -0.296875 -1.0 -0.703125q-0.453125 -0.421875 -0.75 -0.984375q-0.28125 -0.578125 -0.28125 -1.3125q0 -0.8125 0.3125 -1.515625q0.328125 -0.703125 0.921875 -1.171875q0.609375 -0.484375 1.4375 -0.75q0.84375 -0.28125 1.875 -0.28125q1.375 0 2.40625 0.46875q1.03125 0.46875 1.796875 1.03125l-1.578125 2.125q-0.65625 -0.484375 -1.28125 -0.75q-0.609375 -0.265625 -1.234375 -0.265625q-1.34375 0 -1.34375 0.9375q0 0.28125 0.1875 0.5q0.1875 0.203125 0.515625 0.375q0.328125 0.15625 0.734375 0.3125q0.421875 0.15625 0.890625 0.328125q0.5625 0.21875 1.125 0.5q0.578125 0.265625 1.046875 0.671875q0.46875 0.40625 0.75 1.0q0.28125 0.578125 0.28125 1.40625q0 0.8125 -0.3125 1.515625q-0.296875 0.6875 -0.921875 1.203125q-0.625 0.515625 -1.546875 0.8125q-0.90625 0.296875 -2.109375 0.296875q-1.171875 0 -2.40625 -0.453125q-1.234375 -0.453125 -2.15625 -1.203125l1.59375 -2.203125zm10.631989 0q0.8125 0.625 1.546875 0.9375q0.75 0.3125 1.515625 0.3125q0.796875 0 1.15625 -0.265625q0.359375 -0.265625 0.359375 -0.75q0 -0.28125 -0.203125 -0.5q-0.203125 -0.234375 -0.5625 -0.421875q-0.34375 -0.203125 -0.78125 -0.359375q-0.421875 -0.15625 -0.875 -0.34375q-0.546875 -0.21875 -1.109375 -0.5q-0.546875 -0.296875 -1.0 -0.703125q-0.453125 -0.421875 -0.75 -0.984375q-0.28125 -0.578125 -0.28125 -1.3125q0 -0.8125 0.3125 -1.515625q0.328125 -0.703125 0.921875 -1.171875q0.609375 -0.484375 1.4375 -0.75q0.84375 -0.28125 1.875 -0.28125q1.375 0 2.40625 0.46875q1.03125 0.46875 1.796875 1.03125l-1.578125 2.125q-0.65625 -0.484375 -1.28125 -0.75q-0.609375 -0.265625 -1.234375 -0.265625q-1.34375 0 -1.34375 0.9375q0 0.28125 0.1875 0.5q0.1875 0.203125 0.515625 0.375q0.328125 0.15625 0.734375 0.3125q0.421875 0.15625 0.890625 0.328125q0.5625 0.21875 1.125 0.5q0.578125 0.265625 1.046875 0.671875q0.46875 0.40625 0.75 1.0q0.28125 0.578125 0.28125 1.40625q0 0.8125 -0.3125 1.515625q-0.296875 0.6875 -0.921875 1.203125q-0.625 0.515625 -1.546875 0.8125q-0.90625 0.296875 -2.109375 0.296875q-1.171875 0 -2.40625 -0.453125q-1.234375 -0.453125 -2.15625 -1.203125l1.59375 -2.203125z" fill-rule="nonzero"></path><path fill="#2fa8b4" d="m127.25754 486.37097l433.29135 0l0 133.88977l-433.29135 0z" fill-rule="nonzero"></path><path fill="#ffffff" d="m320.76266 555.9027q0 -1.4375 0.484375 -2.59375q0.484375 -1.171875 1.265625 -1.96875q0.78125 -0.8125 1.78125 -1.234375q1.015625 -0.4375 2.09375 -0.4375q1.265625 0 2.203125 0.4375q0.953125 0.421875 1.59375 1.1875q0.640625 0.765625 0.953125 1.8125q0.3125 1.046875 0.3125 2.265625q0 0.484375 -0.046875 0.890625q-0.046875 0.390625 -0.09375 0.609375l-7.140625 0q0.25 1.359375 1.078125 1.96875q0.828125 0.609375 2.03125 0.609375q1.265625 0 2.5625 -0.78125l1.171875 2.125q-0.90625 0.625 -2.03125 0.984375q-1.109375 0.359375 -2.1875 0.359375q-1.28125 0 -2.390625 -0.40625q-1.09375 -0.421875 -1.90625 -1.21875q-0.8125 -0.8125 -1.28125 -1.96875q-0.453125 -1.15625 -0.453125 -2.640625zm7.6875 -1.21875q0 -1.03125 -0.46875 -1.671875q-0.453125 -0.65625 -1.53125 -0.65625q-0.828125 0 -1.46875 0.5625q-0.640625 0.5625 -0.828125 1.765625l4.296875 0zm5.931946 -1.96875l-1.640625 0l0 -2.625l1.828125 -0.140625l0.40625 -3.171875l2.921875 0l0 3.171875l2.859375 0l0 2.765625l-2.859375 0l0 4.765625q0 1.015625 0.421875 1.46875q0.421875 0.4375 1.125 0.4375q0.28125 0 0.578125 -0.0625q0.296875 -0.078125 0.546875 -0.1875l0.546875 2.578125q-0.484375 0.140625 -1.125 0.28125q-0.640625 0.140625 -1.515625 0.140625q-1.09375 0 -1.875 -0.328125q-0.78125 -0.34375 -1.28125 -0.9375q-0.484375 -0.59375 -0.71875 -1.4375q-0.21875 -0.859375 -0.21875 -1.890625l0 -4.828125zm8.707611 -7.6875l3.53125 0l0 4.125l-0.171875 2.140625q0.671875 -0.59375 1.5625 -1.109375q0.890625 -0.515625 2.109375 -0.515625q1.9375 0 2.8125 1.28125q0.875 1.265625 0.875 3.515625l0 7.390625l-3.515625 0l0 -6.9375q0 -1.296875 -0.359375 -1.765625q-0.34375 -0.484375 -1.109375 -0.484375q-0.671875 0 -1.15625 0.296875q-0.484375 0.296875 -1.046875 0.84375l0 8.046875l-3.53125 0l0 -16.828125zm18.485199 17.109375q-1.234375 0 -2.25 -0.515625q-1.0 -0.515625 -1.703125 -1.515625q-0.703125 -1.015625 -1.109375 -2.5q-0.390625 -1.484375 -0.390625 -3.4375q0 -1.9375 0.390625 -3.390625q0.40625 -1.46875 1.109375 -2.46875q0.703125 -1.0 1.703125 -1.484375q1.015625 -0.5 2.25 -0.5q1.21875 0 2.21875 0.5q1.015625 0.484375 1.71875 1.484375q0.703125 1.0 1.09375 2.46875q0.40625 1.453125 0.40625 3.390625q0 1.953125 -0.40625 3.4375q-0.390625 1.484375 -1.09375 2.5q-0.703125 1.0 -1.71875 1.515625q-1.0 0.515625 -2.21875 0.515625zm0 -2.734375q0.453125 0 0.828125 -0.21875q0.390625 -0.234375 0.671875 -0.828125q0.296875 -0.609375 0.453125 -1.609375q0.15625 -1.015625 0.15625 -2.578125q0 -1.546875 -0.15625 -2.546875q-0.15625 -1.0 -0.453125 -1.5625q-0.28125 -0.5625 -0.671875 -0.78125q-0.375 -0.21875 -0.828125 -0.21875q-0.4375 0 -0.828125 0.21875q-0.375 0.21875 -0.671875 0.78125q-0.28125 0.5625 -0.453125 1.5625q-0.171875 1.0 -0.171875 2.546875q0 1.5625 0.171875 2.578125q0.171875 1.0 0.453125 1.609375q0.296875 0.59375 0.671875 0.828125q0.390625 0.21875 0.828125 0.21875z" fill-rule="nonzero"></path><path fill="#e09d2a" d="m702.5515 532.791l0 67.56677l-142.52002 -13.513367l0 -40.54004z" fill-rule="nonzero"></path><path fill="#e09d2a" d="m488.0682 486.37097l-62.56372 0l12.512726 -115.15961l37.53824 0z" fill-rule="nonzero"></path><path fill="#000000" fill-opacity="0.0" d="m472.3491 390.41733l131.74802 0l0 57.102356l-131.74802 0z" fill-rule="nonzero"></path><path fill="#000000" d="m516.3834 405.4023q-0.390625 0 -0.65625 -0.234375q-0.25 -0.25 -0.25 -0.609375q0 -0.390625 0.25 -0.625q0.265625 -0.234375 0.65625 -0.234375q0.390625 0 0.640625 0.234375q0.265625 0.234375 0.265625 0.625q0 0.359375 -0.265625 0.609375q-0.25 0.234375 -0.640625 0.234375zm-0.671875 1.59375l1.3125 0l0 7.78125l-1.3125 0l0 -7.78125zm3.9360352 0l1.09375 0l0.109375 1.125l0.046875 0q0.5625 -0.5625 1.171875 -0.9375q0.625 -0.375 1.4375 -0.375q1.234375 0 1.796875 0.765625q0.5625 0.765625 0.5625 2.28125l0 4.921875l-1.3125 0l0 -4.75q0 -1.109375 -0.359375 -1.59375q-0.34375 -0.484375 -1.109375 -0.484375q-0.609375 0 -1.078125 0.3125q-0.453125 0.296875 -1.046875 0.890625l0 5.625l-1.3125 0l0 -7.78125zm9.314514 9.09375q0 0.625 0.59375 0.984375q0.609375 0.375 1.65625 0.375q0.5625 0 1.015625 -0.140625q0.453125 -0.125 0.765625 -0.34375q0.328125 -0.21875 0.5 -0.515625q0.1875 -0.28125 0.1875 -0.578125q0 -0.546875 -0.40625 -0.765625q-0.390625 -0.203125 -1.15625 -0.203125l-1.34375 0q-0.234375 0 -0.5 -0.03125q-0.265625 -0.015625 -0.515625 -0.09375q-0.421875 0.296875 -0.609375 0.625q-0.1875 0.34375 -0.1875 0.6875zm-1.15625 0.171875q0 -0.5 0.296875 -0.953125q0.3125 -0.4375 0.84375 -0.796875l0 -0.078125q-0.296875 -0.171875 -0.5 -0.484375q-0.1875 -0.3125 -0.1875 -0.765625q0 -0.5 0.265625 -0.859375q0.28125 -0.375 0.578125 -0.59375l0 -0.0625q-0.390625 -0.3125 -0.703125 -0.84375q-0.296875 -0.546875 -0.296875 -1.25q0 -0.640625 0.21875 -1.140625q0.234375 -0.515625 0.625 -0.875q0.40625 -0.359375 0.9375 -0.546875q0.546875 -0.203125 1.140625 -0.203125q0.3125 0 0.59375 0.0625q0.28125 0.046875 0.515625 0.125l2.703125 0l0 1.015625l-1.609375 0q0.28125 0.265625 0.453125 0.6875q0.1875 0.421875 0.1875 0.90625q0 0.625 -0.21875 1.140625q-0.21875 0.5 -0.609375 0.84375q-0.390625 0.34375 -0.90625 0.53125q-0.515625 0.1875 -1.109375 0.1875q-0.296875 0 -0.59375 -0.0625q-0.296875 -0.078125 -0.578125 -0.203125q-0.203125 0.171875 -0.359375 0.390625q-0.140625 0.21875 -0.140625 0.53125q0 0.375 0.28125 0.625q0.296875 0.234375 1.09375 0.234375l1.515625 0q1.359375 0 2.03125 0.4375q0.6875 0.4375 0.6875 1.40625q0 0.546875 -0.28125 1.03125q-0.265625 0.5 -0.78125 0.859375q-0.515625 0.375 -1.25 0.578125q-0.71875 0.21875 -1.625 0.21875q-0.71875 0 -1.3125 -0.140625q-0.59375 -0.125 -1.015625 -0.40625q-0.421875 -0.265625 -0.65625 -0.65625q-0.234375 -0.375 -0.234375 -0.890625zm3.21875 -4.828125q0.328125 0 0.625 -0.125q0.296875 -0.125 0.53125 -0.359375q0.234375 -0.25 0.359375 -0.59375q0.125 -0.34375 0.125 -0.78125q0 -0.859375 -0.484375 -1.328125q-0.46875 -0.484375 -1.15625 -0.484375q-0.6875 0 -1.171875 0.484375q-0.484375 0.46875 -0.484375 1.328125q0 0.4375 0.125 0.78125q0.140625 0.34375 0.375 0.59375q0.234375 0.234375 0.515625 0.359375q0.296875 0.125 0.640625 0.125zm5.439026 -4.4375l1.09375 0l0.109375 1.40625l0.046875 0q0.390625 -0.734375 0.953125 -1.15625q0.578125 -0.4375 1.25 -0.4375q0.46875 0 0.828125 0.15625l-0.25 1.15625q-0.1875 -0.0625 -0.359375 -0.09375q-0.15625 -0.03125 -0.390625 -0.03125q-0.5 0 -1.03125 0.40625q-0.53125 0.390625 -0.9375 1.390625l0 4.984375l-1.3125 0l0 -7.78125zm4.973877 3.90625q0 -0.953125 0.296875 -1.71875q0.296875 -0.765625 0.78125 -1.28125q0.484375 -0.53125 1.109375 -0.8125q0.625 -0.28125 1.296875 -0.28125q0.734375 0 1.3125 0.265625q0.59375 0.25 0.984375 0.734375q0.390625 0.46875 0.59375 1.140625q0.21875 0.671875 0.21875 1.515625q0 0.421875 -0.046875 0.71875l-5.25 0q0.078125 1.25 0.765625 2.0q0.703125 0.734375 1.828125 0.734375q0.5625 0 1.03125 -0.171875q0.46875 -0.171875 0.90625 -0.4375l0.46875 0.859375q-0.515625 0.328125 -1.140625 0.5625q-0.625 0.234375 -1.421875 0.234375q-0.78125 0 -1.46875 -0.28125q-0.6875 -0.28125 -1.1875 -0.796875q-0.5 -0.515625 -0.796875 -1.265625q-0.28125 -0.75 -0.28125 -1.71875zm5.4375 -0.59375q0 -1.1875 -0.5 -1.8125q-0.5 -0.640625 -1.421875 -0.640625q-0.40625 0 -0.78125 0.171875q-0.375 0.15625 -0.6875 0.46875q-0.296875 0.3125 -0.5 0.765625q-0.203125 0.453125 -0.265625 1.046875l4.15625 0zm2.8735352 2.703125q0.5 0.421875 1.03125 0.6875q0.546875 0.25 1.25 0.25q0.765625 0 1.140625 -0.34375q0.390625 -0.359375 0.390625 -0.875q0 -0.3125 -0.15625 -0.53125q-0.15625 -0.21875 -0.40625 -0.390625q-0.25 -0.171875 -0.578125 -0.296875q-0.3125 -0.125 -0.625 -0.25q-0.421875 -0.140625 -0.84375 -0.328125q-0.40625 -0.1875 -0.734375 -0.453125q-0.328125 -0.265625 -0.546875 -0.609375q-0.203125 -0.359375 -0.203125 -0.859375q0 -0.453125 0.1875 -0.859375q0.1875 -0.421875 0.53125 -0.703125q0.34375 -0.296875 0.828125 -0.46875q0.5 -0.171875 1.125 -0.171875q0.734375 0 1.34375 0.265625q0.625 0.25 1.078125 0.609375l-0.625 0.84375q-0.40625 -0.3125 -0.84375 -0.5q-0.421875 -0.1875 -0.9375 -0.1875q-0.734375 0 -1.078125 0.34375q-0.34375 0.328125 -0.34375 0.765625q0 0.28125 0.140625 0.484375q0.15625 0.1875 0.390625 0.34375q0.234375 0.15625 0.546875 0.28125q0.3125 0.109375 0.65625 0.234375q0.40625 0.171875 0.828125 0.34375q0.4375 0.171875 0.765625 0.4375q0.34375 0.265625 0.546875 0.65625q0.21875 0.375 0.21875 0.921875q0 0.484375 -0.1875 0.90625q-0.171875 0.40625 -0.53125 0.734375q-0.359375 0.3125 -0.90625 0.484375q-0.53125 0.1875 -1.21875 0.1875q-0.828125 0 -1.578125 -0.296875q-0.75 -0.3125 -1.3125 -0.765625l0.65625 -0.890625zm6.7039795 0q0.5 0.421875 1.03125 0.6875q0.546875 0.25 1.25 0.25q0.765625 0 1.140625 -0.34375q0.390625 -0.359375 0.390625 -0.875q0 -0.3125 -0.15625 -0.53125q-0.15625 -0.21875 -0.40625 -0.390625q-0.25 -0.171875 -0.578125 -0.296875q-0.3125 -0.125 -0.625 -0.25q-0.421875 -0.140625 -0.84375 -0.328125q-0.40625 -0.1875 -0.734375 -0.453125q-0.328125 -0.265625 -0.546875 -0.609375q-0.203125 -0.359375 -0.203125 -0.859375q0 -0.453125 0.1875 -0.859375q0.1875 -0.421875 0.53125 -0.703125q0.34375 -0.296875 0.828125 -0.46875q0.5 -0.171875 1.125 -0.171875q0.734375 0 1.34375 0.265625q0.625 0.25 1.078125 0.609375l-0.625 0.84375q-0.40625 -0.3125 -0.84375 -0.5q-0.421875 -0.1875 -0.9375 -0.1875q-0.734375 0 -1.078125 0.34375q-0.34375 0.328125 -0.34375 0.765625q0 0.28125 0.140625 0.484375q0.15625 0.1875 0.390625 0.34375q0.234375 0.15625 0.546875 0.28125q0.3125 0.109375 0.65625 0.234375q0.40625 0.171875 0.828125 0.34375q0.4375 0.171875 0.765625 0.4375q0.34375 0.265625 0.546875 0.65625q0.21875 0.375 0.21875 0.921875q0 0.484375 -0.1875 0.90625q-0.171875 0.40625 -0.53125 0.734375q-0.359375 0.3125 -0.90625 0.484375q-0.53125 0.1875 -1.21875 0.1875q-0.828125 0 -1.578125 -0.296875q-0.75 -0.3125 -1.3125 -0.765625l0.65625 -0.890625z" fill-rule="nonzero"></path><path fill="#000000" d="m521.1651 429.9023q0 -0.9375 0.28125 -1.703125q0.28125 -0.765625 0.734375 -1.28125q0.46875 -0.53125 1.078125 -0.8125q0.609375 -0.296875 1.28125 -0.296875q0.671875 0 1.1875 0.234375q0.515625 0.234375 1.046875 0.6875l0.03125 0l0.125 -0.734375l1.046875 0l0 11.0625l-1.328125 0l0 -2.765625l0.0625 -1.375q-0.453125 0.421875 -1.0625 0.734375q-0.59375 0.3125 -1.265625 0.3125q-1.46875 0 -2.34375 -1.046875q-0.875 -1.0625 -0.875 -3.015625zm1.359375 -0.015625q0 1.40625 0.5625 2.203125q0.5625 0.78125 1.578125 0.78125q0.546875 0 1.03125 -0.265625q0.484375 -0.265625 0.953125 -0.8125l0 -4.0625q-0.484375 -0.453125 -0.953125 -0.625q-0.453125 -0.1875 -0.921875 -0.1875q-0.46875 0 -0.875 0.21875q-0.40625 0.203125 -0.71875 0.609375q-0.296875 0.390625 -0.484375 0.9375q-0.171875 0.53125 -0.171875 1.203125zm7.440613 0.015625q0 -0.9375 0.28125 -1.703125q0.28125 -0.765625 0.734375 -1.28125q0.46875 -0.53125 1.078125 -0.8125q0.609375 -0.296875 1.28125 -0.296875q0.671875 0 1.171875 0.25q0.5 0.234375 1.0 0.640625l-0.0625 -1.328125l0 -2.984375l1.328125 0l0 11.390625l-1.078125 0l-0.109375 -0.90625l-0.0625 0q-0.453125 0.4375 -1.0625 0.765625q-0.59375 0.328125 -1.28125 0.328125q-1.46875 0 -2.34375 -1.046875q-0.875 -1.0625 -0.875 -3.015625zm1.359375 -0.015625q0 1.40625 0.5625 2.203125q0.5625 0.78125 1.578125 0.78125q0.546875 0 1.03125 -0.265625q0.484375 -0.265625 0.953125 -0.8125l0 -4.0625q-0.484375 -0.453125 -0.953125 -0.625q-0.453125 -0.1875 -0.921875 -0.1875q-0.46875 0 -0.875 0.21875q-0.40625 0.203125 -0.71875 0.609375q-0.296875 0.390625 -0.484375 0.9375q-0.171875 0.53125 -0.171875 1.203125zm8.755005 -5.484375q-0.390625 0 -0.65625 -0.234375q-0.25 -0.25 -0.25 -0.609375q0 -0.390625 0.25 -0.625q0.265625 -0.234375 0.65625 -0.234375q0.390625 0 0.640625 0.234375q0.265625 0.234375 0.265625 0.625q0 0.359375 -0.265625 0.609375q-0.25 0.234375 -0.640625 0.234375zm-0.671875 1.59375l1.3125 0l0 7.78125l-1.3125 0l0 -7.78125zm3.7329102 6.015625q0.5 0.421875 1.03125 0.6875q0.546875 0.25 1.25 0.25q0.765625 0 1.140625 -0.34375q0.390625 -0.359375 0.390625 -0.875q0 -0.3125 -0.15625 -0.53125q-0.15625 -0.21875 -0.40625 -0.390625q-0.25 -0.171875 -0.578125 -0.296875q-0.3125 -0.125 -0.625 -0.25q-0.421875 -0.140625 -0.84375 -0.328125q-0.40625 -0.1875 -0.734375 -0.453125q-0.328125 -0.265625 -0.546875 -0.609375q-0.203125 -0.359375 -0.203125 -0.859375q0 -0.453125 0.1875 -0.859375q0.1875 -0.421875 0.53125 -0.703125q0.34375 -0.296875 0.828125 -0.46875q0.5 -0.171875 1.125 -0.171875q0.734375 0 1.34375 0.265625q0.625 0.25 1.078125 0.609375l-0.625 0.84375q-0.40625 -0.3125 -0.84375 -0.5q-0.421875 -0.1875 -0.9375 -0.1875q-0.734375 0 -1.078125 0.34375q-0.34375 0.328125 -0.34375 0.765625q0 0.28125 0.140625 0.484375q0.15625 0.1875 0.390625 0.34375q0.234375 0.15625 0.546875 0.28125q0.3125 0.109375 0.65625 0.234375q0.40625 0.171875 0.828125 0.34375q0.4375 0.171875 0.765625 0.4375q0.34375 0.265625 0.546875 0.65625q0.21875 0.375 0.21875 0.921875q0 0.484375 -0.1875 0.90625q-0.171875 0.40625 -0.53125 0.734375q-0.359375 0.3125 -0.90625 0.484375q-0.53125 0.1875 -1.21875 0.1875q-0.828125 0 -1.578125 -0.296875q-0.75 -0.3125 -1.3125 -0.765625l0.65625 -0.890625zm6.3289795 -2.109375q0 -0.96875 0.296875 -1.734375q0.3125 -0.765625 0.828125 -1.28125q0.515625 -0.53125 1.1875 -0.796875q0.6875 -0.28125 1.4375 -0.28125q0.765625 0 1.3125 0.28125q0.5625 0.28125 0.953125 0.640625l-0.65625 0.859375q-0.34375 -0.3125 -0.734375 -0.5q-0.375 -0.1875 -0.828125 -0.1875q-0.53125 0 -0.984375 0.21875q-0.4375 0.203125 -0.765625 0.609375q-0.3125 0.40625 -0.5 0.953125q-0.1875 0.546875 -0.1875 1.21875q0 0.671875 0.171875 1.21875q0.1875 0.546875 0.5 0.9375q0.3125 0.390625 0.75 0.609375q0.453125 0.21875 0.984375 0.21875q0.5625 0 1.015625 -0.234375q0.453125 -0.234375 0.796875 -0.5625l0.59375 0.875q-0.515625 0.453125 -1.171875 0.734375q-0.640625 0.265625 -1.34375 0.265625q-0.78125 0 -1.453125 -0.265625q-0.671875 -0.28125 -1.15625 -0.796875q-0.484375 -0.515625 -0.765625 -1.265625q-0.28125 -0.765625 -0.28125 -1.734375z" fill-rule="nonzero"></path><path fill="#000000" fill-opacity="0.0" d="m576.70557 588.76465l95.93695 0l0 57.102356l-95.93695 0z" fill-rule="nonzero"></path><path fill="#000000" d="m603.9604 609.24963q0 -0.953125 0.296875 -1.71875q0.296875 -0.765625 0.78125 -1.28125q0.484375 -0.53125 1.109375 -0.8125q0.625 -0.28125 1.296875 -0.28125q0.734375 0 1.3125 0.265625q0.59375 0.25 0.984375 0.734375q0.390625 0.46875 0.59375 1.140625q0.21875 0.671875 0.21875 1.515625q0 0.421875 -0.046875 0.71875l-5.25 0q0.078125 1.25 0.765625 2.0q0.703125 0.734375 1.828125 0.734375q0.5625 0 1.03125 -0.171875q0.46875 -0.171875 0.90625 -0.4375l0.46875 0.859375q-0.515625 0.328125 -1.140625 0.5625q-0.625 0.234375 -1.421875 0.234375q-0.78125 0 -1.46875 -0.28125q-0.6875 -0.28125 -1.1875 -0.796875q-0.5 -0.515625 -0.796875 -1.265625q-0.28125 -0.75 -0.28125 -1.71875zm5.4375 -0.59375q0 -1.1875 -0.5 -1.8125q-0.5 -0.640625 -1.421875 -0.640625q-0.40625 0 -0.78125 0.171875q-0.375 0.15625 -0.6875 0.46875q-0.296875 0.3125 -0.5 0.765625q-0.203125 0.453125 -0.265625 1.046875l4.15625 0zm3.6390991 5.78125q0 0.625 0.59375 0.984375q0.609375 0.375 1.65625 0.375q0.5625 0 1.015625 -0.140625q0.453125 -0.125 0.765625 -0.34375q0.328125 -0.21875 0.5 -0.515625q0.1875 -0.28125 0.1875 -0.578125q0 -0.546875 -0.40625 -0.765625q-0.390625 -0.203125 -1.15625 -0.203125l-1.34375 0q-0.234375 0 -0.5 -0.03125q-0.265625 -0.015625 -0.515625 -0.09375q-0.421875 0.296875 -0.609375 0.625q-0.1875 0.34375 -0.1875 0.6875zm-1.15625 0.171875q0 -0.5 0.296875 -0.953125q0.3125 -0.4375 0.84375 -0.796875l0 -0.078125q-0.296875 -0.171875 -0.5 -0.484375q-0.1875 -0.3125 -0.1875 -0.765625q0 -0.5 0.265625 -0.859375q0.28125 -0.375 0.578125 -0.59375l0 -0.0625q-0.390625 -0.3125 -0.703125 -0.84375q-0.296875 -0.546875 -0.296875 -1.25q0 -0.640625 0.21875 -1.140625q0.234375 -0.515625 0.625 -0.875q0.40625 -0.359375 0.9375 -0.546875q0.546875 -0.203125 1.140625 -0.203125q0.3125 0 0.59375 0.0625q0.28125 0.046875 0.515625 0.125l2.703125 0l0 1.015625l-1.609375 0q0.28125 0.265625 0.453125 0.6875q0.1875 0.421875 0.1875 0.90625q0 0.625 -0.21875 1.140625q-0.21875 0.5 -0.609375 0.84375q-0.390625 0.34375 -0.90625 0.53125q-0.515625 0.1875 -1.109375 0.1875q-0.296875 0 -0.59375 -0.0625q-0.296875 -0.078125 -0.578125 -0.203125q-0.203125 0.171875 -0.359375 0.390625q-0.140625 0.21875 -0.140625 0.53125q0 0.375 0.28125 0.625q0.296875 0.234375 1.09375 0.234375l1.515625 0q1.359375 0 2.03125 0.4375q0.6875 0.4375 0.6875 1.40625q0 0.546875 -0.28125 1.03125q-0.265625 0.5 -0.78125 0.859375q-0.515625 0.375 -1.25 0.578125q-0.71875 0.21875 -1.625 0.21875q-0.71875 0 -1.3125 -0.140625q-0.59375 -0.125 -1.015625 -0.40625q-0.421875 -0.265625 -0.65625 -0.65625q-0.234375 -0.375 -0.234375 -0.890625zm3.21875 -4.828125q0.328125 0 0.625 -0.125q0.296875 -0.125 0.53125 -0.359375q0.234375 -0.25 0.359375 -0.59375q0.125 -0.34375 0.125 -0.78125q0 -0.859375 -0.484375 -1.328125q-0.46875 -0.484375 -1.15625 -0.484375q-0.6875 0 -1.171875 0.484375q-0.484375 0.46875 -0.484375 1.328125q0 0.4375 0.125 0.78125q0.140625 0.34375 0.375 0.59375q0.234375 0.234375 0.515625 0.359375q0.296875 0.125 0.640625 0.125zm5.439026 -4.4375l1.09375 0l0.109375 1.40625l0.046875 0q0.390625 -0.734375 0.953125 -1.15625q0.578125 -0.4375 1.25 -0.4375q0.46875 0 0.828125 0.15625l-0.25 1.15625q-0.1875 -0.0625 -0.359375 -0.09375q-0.15625 -0.03125 -0.390625 -0.03125q-0.5 0 -1.03125 0.40625q-0.53125 0.390625 -0.9375 1.390625l0 4.984375l-1.3125 0l0 -7.78125zm4.973877 3.90625q0 -0.953125 0.296875 -1.71875q0.296875 -0.765625 0.78125 -1.28125q0.484375 -0.53125 1.109375 -0.8125q0.625 -0.28125 1.296875 -0.28125q0.734375 0 1.3125 0.265625q0.59375 0.25 0.984375 0.734375q0.390625 0.46875 0.59375 1.140625q0.21875 0.671875 0.21875 1.515625q0 0.421875 -0.046875 0.71875l-5.25 0q0.078125 1.25 0.765625 2.0q0.703125 0.734375 1.828125 0.734375q0.5625 0 1.03125 -0.171875q0.46875 -0.171875 0.90625 -0.4375l0.46875 0.859375q-0.515625 0.328125 -1.140625 0.5625q-0.625 0.234375 -1.421875 0.234375q-0.78125 0 -1.46875 -0.28125q-0.6875 -0.28125 -1.1875 -0.796875q-0.5 -0.515625 -0.796875 -1.265625q-0.28125 -0.75 -0.28125 -1.71875zm5.4375 -0.59375q0 -1.1875 -0.5 -1.8125q-0.5 -0.640625 -1.421875 -0.640625q-0.40625 0 -0.78125 0.171875q-0.375 0.15625 -0.6875 0.46875q-0.296875 0.3125 -0.5 0.765625q-0.203125 0.453125 -0.265625 1.046875l4.15625 0zm2.8735352 2.703125q0.5 0.421875 1.03125 0.6875q0.546875 0.25 1.25 0.25q0.765625 0 1.140625 -0.34375q0.390625 -0.359375 0.390625 -0.875q0 -0.3125 -0.15625 -0.53125q-0.15625 -0.21875 -0.40625 -0.390625q-0.25 -0.171875 -0.578125 -0.296875q-0.3125 -0.125 -0.625 -0.25q-0.421875 -0.140625 -0.84375 -0.328125q-0.40625 -0.1875 -0.734375 -0.453125q-0.328125 -0.265625 -0.546875 -0.609375q-0.203125 -0.359375 -0.203125 -0.859375q0 -0.453125 0.1875 -0.859375q0.1875 -0.421875 0.53125 -0.703125q0.34375 -0.296875 0.828125 -0.46875q0.5 -0.171875 1.125 -0.171875q0.734375 0 1.34375 0.265625q0.625 0.25 1.078125 0.609375l-0.625 0.84375q-0.40625 -0.3125 -0.84375 -0.5q-0.421875 -0.1875 -0.9375 -0.1875q-0.734375 0 -1.078125 0.34375q-0.34375 0.328125 -0.34375 0.765625q0 0.28125 0.140625 0.484375q0.15625 0.1875 0.390625 0.34375q0.234375 0.15625 0.546875 0.28125q0.3125 0.109375 0.65625 0.234375q0.40625 0.171875 0.828125 0.34375q0.4375 0.171875 0.765625 0.4375q0.34375 0.265625 0.546875 0.65625q0.21875 0.375 0.21875 0.921875q0 0.484375 -0.1875 0.90625q-0.171875 0.40625 -0.53125 0.734375q-0.359375 0.3125 -0.90625 0.484375q-0.53125 0.1875 -1.21875 0.1875q-0.828125 0 -1.578125 -0.296875q-0.75 -0.3125 -1.3125 -0.765625l0.65625 -0.890625zm6.7040405 0q0.5 0.421875 1.03125 0.6875q0.546875 0.25 1.25 0.25q0.765625 0 1.140625 -0.34375q0.390625 -0.359375 0.390625 -0.875q0 -0.3125 -0.15625 -0.53125q-0.15625 -0.21875 -0.40625 -0.390625q-0.25 -0.171875 -0.578125 -0.296875q-0.3125 -0.125 -0.625 -0.25q-0.421875 -0.140625 -0.84375 -0.328125q-0.40625 -0.1875 -0.734375 -0.453125q-0.328125 -0.265625 -0.546875 -0.609375q-0.203125 -0.359375 -0.203125 -0.859375q0 -0.453125 0.1875 -0.859375q0.1875 -0.421875 0.53125 -0.703125q0.34375 -0.296875 0.828125 -0.46875q0.5 -0.171875 1.125 -0.171875q0.734375 0 1.34375 0.265625q0.625 0.25 1.078125 0.609375l-0.625 0.84375q-0.40625 -0.3125 -0.84375 -0.5q-0.421875 -0.1875 -0.9375 -0.1875q-0.734375 0 -1.078125 0.34375q-0.34375 0.328125 -0.34375 0.765625q0 0.28125 0.140625 0.484375q0.15625 0.1875 0.390625 0.34375q0.234375 0.15625 0.546875 0.28125q0.3125 0.109375 0.65625 0.234375q0.40625 0.171875 0.828125 0.34375q0.4375 0.171875 0.765625 0.4375q0.34375 0.265625 0.546875 0.65625q0.21875 0.375 0.21875 0.921875q0 0.484375 -0.1875 0.90625q-0.171875 0.40625 -0.53125 0.734375q-0.359375 0.3125 -0.90625 0.484375q-0.53125 0.1875 -1.21875 0.1875q-0.828125 0 -1.578125 -0.296875q-0.75 -0.3125 -1.3125 -0.765625l0.65625 -0.890625z" fill-rule="nonzero"></path><path fill="#000000" d="m607.616 628.24963q0 -0.9375 0.28125 -1.703125q0.28125 -0.765625 0.734375 -1.28125q0.46875 -0.53125 1.078125 -0.8125q0.609375 -0.296875 1.28125 -0.296875q0.671875 0 1.1875 0.234375q0.515625 0.234375 1.046875 0.6875l0.03125 0l0.125 -0.734375l1.046875 0l0 11.0625l-1.328125 0l0 -2.765625l0.0625 -1.375q-0.453125 0.421875 -1.0625 0.734375q-0.59375 0.3125 -1.265625 0.3125q-1.46875 0 -2.34375 -1.046875q-0.875 -1.0625 -0.875 -3.015625zm1.359375 -0.015625q0 1.40625 0.5625 2.203125q0.5625 0.78125 1.578125 0.78125q0.546875 0 1.03125 -0.265625q0.484375 -0.265625 0.953125 -0.8125l0 -4.0625q-0.484375 -0.453125 -0.953125 -0.625q-0.453125 -0.1875 -0.921875 -0.1875q-0.46875 0 -0.875 0.21875q-0.40625 0.203125 -0.71875 0.609375q-0.296875 0.390625 -0.484375 0.9375q-0.171875 0.53125 -0.171875 1.203125zm7.440613 0.015625q0 -0.9375 0.28125 -1.703125q0.28125 -0.765625 0.734375 -1.28125q0.46875 -0.53125 1.078125 -0.8125q0.609375 -0.296875 1.28125 -0.296875q0.671875 0 1.171875 0.25q0.5 0.234375 1.0 0.640625l-0.0625 -1.328125l0 -2.984375l1.328125 0l0 11.390625l-1.078125 0l-0.109375 -0.90625l-0.0625 0q-0.453125 0.4375 -1.0625 0.765625q-0.59375 0.328125 -1.28125 0.328125q-1.46875 0 -2.34375 -1.046875q-0.875 -1.0625 -0.875 -3.015625zm1.359375 -0.015625q0 1.40625 0.5625 2.203125q0.5625 0.78125 1.578125 0.78125q0.546875 0 1.03125 -0.265625q0.484375 -0.265625 0.953125 -0.8125l0 -4.0625q-0.484375 -0.453125 -0.953125 -0.625q-0.453125 -0.1875 -0.921875 -0.1875q-0.46875 0 -0.875 0.21875q-0.40625 0.203125 -0.71875 0.609375q-0.296875 0.390625 -0.484375 0.9375q-0.171875 0.53125 -0.171875 1.203125zm8.755005 -5.484375q-0.390625 0 -0.65625 -0.234375q-0.25 -0.25 -0.25 -0.609375q0 -0.390625 0.25 -0.625q0.265625 -0.234375 0.65625 -0.234375q0.390625 0 0.640625 0.234375q0.265625 0.234375 0.265625 0.625q0 0.359375 -0.265625 0.609375q-0.25 0.234375 -0.640625 0.234375zm-0.671875 1.59375l1.3125 0l0 7.78125l-1.3125 0l0 -7.78125zm3.7329102 6.015625q0.5 0.421875 1.03125 0.6875q0.546875 0.25 1.25 0.25q0.765625 0 1.140625 -0.34375q0.390625 -0.359375 0.390625 -0.875q0 -0.3125 -0.15625 -0.53125q-0.15625 -0.21875 -0.40625 -0.390625q-0.25 -0.171875 -0.578125 -0.296875q-0.3125 -0.125 -0.625 -0.25q-0.421875 -0.140625 -0.84375 -0.328125q-0.40625 -0.1875 -0.734375 -0.453125q-0.328125 -0.265625 -0.546875 -0.609375q-0.203125 -0.359375 -0.203125 -0.859375q0 -0.453125 0.1875 -0.859375q0.1875 -0.421875 0.53125 -0.703125q0.34375 -0.296875 0.828125 -0.46875q0.5 -0.171875 1.125 -0.171875q0.734375 0 1.34375 0.265625q0.625 0.25 1.078125 0.609375l-0.625 0.84375q-0.40625 -0.3125 -0.84375 -0.5q-0.421875 -0.1875 -0.9375 -0.1875q-0.734375 0 -1.078125 0.34375q-0.34375 0.328125 -0.34375 0.765625q0 0.28125 0.140625 0.484375q0.15625 0.1875 0.390625 0.34375q0.234375 0.15625 0.546875 0.28125q0.3125 0.109375 0.65625 0.234375q0.40625 0.171875 0.828125 0.34375q0.4375 0.171875 0.765625 0.4375q0.34375 0.265625 0.546875 0.65625q0.21875 0.375 0.21875 0.921875q0 0.484375 -0.1875 0.90625q-0.171875 0.40625 -0.53125 0.734375q-0.359375 0.3125 -0.90625 0.484375q-0.53125 0.1875 -1.21875 0.1875q-0.828125 0 -1.578125 -0.296875q-0.75 -0.3125 -1.3125 -0.765625l0.65625 -0.890625zm6.3289795 -2.109375q0 -0.96875 0.296875 -1.734375q0.3125 -0.765625 0.828125 -1.28125q0.515625 -0.53125 1.1875 -0.796875q0.6875 -0.28125 1.4375 -0.28125q0.765625 0 1.3125 0.28125q0.5625 0.28125 0.953125 0.640625l-0.65625 0.859375q-0.34375 -0.3125 -0.734375 -0.5q-0.375 -0.1875 -0.828125 -0.1875q-0.53125 0 -0.984375 0.21875q-0.4375 0.203125 -0.765625 0.609375q-0.3125 0.40625 -0.5 0.953125q-0.1875 0.546875 -0.1875 1.21875q0 0.671875 0.171875 1.21875q0.1875 0.546875 0.5 0.9375q0.3125 0.390625 0.75 0.609375q0.453125 0.21875 0.984375 0.21875q0.5625 0 1.015625 -0.234375q0.453125 -0.234375 0.796875 -0.5625l0.59375 0.875q-0.515625 0.453125 -1.171875 0.734375q-0.640625 0.265625 -1.34375 0.265625q-0.78125 0 -1.453125 -0.265625q-0.671875 -0.28125 -1.15625 -0.796875q-0.484375 -0.515625 -0.765625 -1.265625q-0.28125 -0.765625 -0.28125 -1.734375z" fill-rule="nonzero"></path><path fill="#000000" fill-opacity="0.0" d="m227.85677 338.175l0 147.3071" fill-rule="nonzero"></path><path stroke="#000000" stroke-width="1.0" stroke-linejoin="round" stroke-linecap="butt" d="m227.85675 338.175l0 141.3071" fill-rule="evenodd"></path><path fill="#000000" stroke="#000000" stroke-width="1.0" stroke-linecap="butt" d="m226.20502 479.4821l1.6517334 4.538086l1.6517334 -4.538086z" fill-rule="evenodd"></path><path fill="#000000" fill-opacity="0.0" d="m456.78635 486.37097l0 -149.07086" fill-rule="nonzero"></path><path stroke="#000000" stroke-width="1.0" stroke-linejoin="round" stroke-linecap="butt" d="m456.78635 486.37097l0 -143.07086" fill-rule="evenodd"></path><path fill="#000000" stroke="#000000" stroke-width="1.0" stroke-linecap="butt" d="m458.43808 343.3001l-1.6517334 -4.538086l-1.6517334 4.538086z" fill-rule="evenodd"></path><path fill="#ffffff" d="m752.52893 473.81622l0 0c-2.411621 -20.224213 5.5061035 -40.244995 20.39331 -51.566742c14.887207 -11.321747 34.133057 -11.958862 49.57074 -1.6410522l0 0c5.468567 -11.759216 15.477539 -19.878113 26.99945 -21.90094c11.521912 -2.0228271 23.203491 2.2880554 31.51123 11.628662l0 0c4.6585083 -10.661652 13.805481 -17.82492 24.19519 -18.947906c10.389648 -1.1229858 20.551636 3.953247 26.879883 13.427368l0 0c8.41626 -11.301331 21.80664 -16.059662 34.377136 -12.216034c12.570496 3.843628 22.063293 15.598846 24.370789 30.179138l0 0c10.31134 3.2096252 18.90039 11.368927 23.548157 22.369781c4.647705 11.0008545 4.8981934 23.76413 0.6866455 34.992157l0 0c10.1536255 15.080505 12.528748 35.17508 6.239197 52.78482c-6.289612 17.609741 -20.299133 30.088928 -36.800354 32.78064c-0.11627197 16.527344 -8.059143 31.692627 -20.766968 39.650513c-12.707886 7.9578857 -28.19635 7.4656982 -40.495544 -1.2868652c-5.2388306 19.794373 -19.984314 34.358887 -37.865845 37.401123c-17.881592 3.0422363 -35.693604 -5.9831543 -45.7406 -23.17688c-12.315613 8.4748535 -27.093262 10.916199 -40.99945 6.7732544c-13.906189 -4.1428833 -25.769531 -14.521057 -32.91394 -28.793335l0 0c-12.584961 1.680603 -24.752869 -5.760193 -30.464844 -18.629456c-5.711975 -12.869324 -3.7520752 -28.427612 4.9070435 -38.95331l0 0c-11.226135 -7.540161 -16.954346 -22.502258 -14.197693 -37.08423c2.7567139 -14.58194 13.373657 -25.4794 26.314514 -27.009796z" fill-rule="nonzero"></path><path fill="#000000" fill-opacity="0.0" d="m740.1633 538.6897l0 0c5.2976074 3.5582275 11.417603 5.1723022 17.53833 4.6255493m8.016724 52.958496c2.632141 -0.35144043 5.212097 -1.0958252 7.673401 -2.213745m66.23627 24.23291c-1.8512573 -3.1680908 -3.401184 -6.553528 -4.623474 -10.098511m88.233154 -4.1262817l0 0c0.9550781 -3.6088257 1.5739136 -7.323059 1.8461304 -11.080811m59.414062 -27.281494c0.12384033 -17.595947 -8.633911 -33.70691 -22.511597 -41.412903m53.07245 -44.150665c-2.2474365 5.9917297 -5.678406 11.306946 -10.023865 15.528839m-14.208801 -72.892365l0 0c0.38293457 2.4196167 0.56018066 4.87558 0.52923584 7.3338623m-59.276184 -25.296234l0 0c-2.0994263 2.8191223 -3.8290405 5.969452 -5.135071 9.352905m-45.94043 -3.8336182l0 0c-1.1188354 2.560608 -1.9542847 5.2701416 -2.4871826 8.066193m-56.024353 2.2063293l0 0c3.2666016 2.1832275 6.2886353 4.8110046 8.999756 7.825592m-78.96295 45.382477l0 0c0.33233643 2.787445 0.85754395 5.540497 1.5705566 8.233429" fill-rule="nonzero"></path><path stroke="#000000" stroke-width="1.0" stroke-linejoin="round" stroke-linecap="butt" d="m752.52893 473.81622l0 0c-2.411621 -20.224213 5.5061035 -40.244995 20.39331 -51.566742c14.887207 -11.321747 34.133057 -11.958862 49.57074 -1.6410522l0 0c5.468567 -11.759216 15.477539 -19.878113 26.99945 -21.90094c11.521912 -2.0228271 23.203491 2.2880554 31.51123 11.628662l0 0c4.6585083 -10.661652 13.805481 -17.82492 24.19519 -18.947906c10.389648 -1.1229858 20.551636 3.953247 26.879883 13.427368l0 0c8.41626 -11.301331 21.80664 -16.059662 34.377136 -12.216034c12.570496 3.843628 22.063293 15.598846 24.370789 30.179138l0 0c10.31134 3.2096252 18.90039 11.368927 23.548157 22.369781c4.647705 11.0008545 4.8981934 23.76413 0.6866455 34.992157l0 0c10.1536255 15.080505 12.528748 35.17508 6.239197 52.78482c-6.289612 17.609741 -20.299133 30.088928 -36.800354 32.78064c-0.11627197 16.527344 -8.059143 31.692627 -20.766968 39.650513c-12.707886 7.9578857 -28.19635 7.4656982 -40.495544 -1.2868652c-5.2388306 19.794373 -19.984314 34.358887 -37.865845 37.401123c-17.881592 3.0422363 -35.693604 -5.9831543 -45.7406 -23.17688c-12.315613 8.4748535 -27.093262 10.916199 -40.99945 6.7732544c-13.906189 -4.1428833 -25.769531 -14.521057 -32.91394 -28.793335l0 0c-12.584961 1.680603 -24.752869 -5.760193 -30.464844 -18.629456c-5.711975 -12.869324 -3.7520752 -28.427612 4.9070435 -38.95331l0 0c-11.226135 -7.540161 -16.954346 -22.502258 -14.197693 -37.08423c2.7567139 -14.58194 13.373657 -25.4794 26.314514 -27.009796z" fill-rule="nonzero"></path><path stroke="#000000" stroke-width="1.0" stroke-linejoin="round" stroke-linecap="butt" d="m740.1633 538.6897l0 0c5.2976074 3.5582275 11.417603 5.1723022 17.53833 4.6255493m8.016724 52.958496c2.632141 -0.35144043 5.212097 -1.0958252 7.673401 -2.213745m66.23627 24.23291c-1.8512573 -3.1680908 -3.401184 -6.553528 -4.623474 -10.098511m88.233154 -4.1262817l0 0c0.9550781 -3.6088257 1.5739136 -7.323059 1.8461304 -11.080811m59.414062 -27.281494c0.12384033 -17.595947 -8.633911 -33.70691 -22.511597 -41.412903m53.07245 -44.150665c-2.2474365 5.9917297 -5.678406 11.306946 -10.023865 15.528839m-14.208801 -72.892365l0 0c0.38293457 2.4196167 0.56018066 4.87558 0.52923584 7.3338623m-59.276184 -25.296234l0 0c-2.0994263 2.8191223 -3.8290405 5.969452 -5.135071 9.352905m-45.94043 -3.8336182l0 0c-1.1188354 2.560608 -1.9542847 5.2701416 -2.4871826 8.066193m-56.024353 2.2063293l0 0c3.2666016 2.1832275 6.2886353 4.8110046 8.999756 7.825592m-78.96295 45.382477l0 0c0.33233643 2.787445 0.85754395 5.540497 1.5705566 8.233429" fill-rule="nonzero"></path><path fill="#000000" d="m852.74146 494.7467l-3.765625 0l0 -1.328125l9.125 0l0 1.328125l-3.765625 0l0 11.140625l-1.59375 0l0 -11.140625zm7.406006 -1.328125l1.578125 0l0 5.234375l5.796875 0l0 -5.234375l1.59375 0l0 12.46875l-1.59375 0l0 -5.875l-5.796875 0l0 5.875l-1.578125 0l0 -12.46875zm12.163879 0l7.1875 0l0 1.328125l-5.609375 0l0 3.921875l4.734375 0l0 1.34375l-4.734375 0l0 4.53125l5.796875 0l0 1.34375l-7.375 0l0 -12.46875z" fill-rule="nonzero"></path><path fill="#000000" d="m826.3703 515.4186l1.578125 0l0 12.46875l-1.578125 0l0 -12.46875zm4.906616 0l1.640625 0l4.5 7.828125l1.359375 2.59375l0.0625 0q-0.046875 -0.953125 -0.125 -1.96875q-0.0625 -1.015625 -0.0625 -2.0l0 -6.453125l1.5 0l0 12.46875l-1.625 0l-4.53125 -7.84375l-1.34375 -2.5625l-0.078125 0q0.078125 0.9375 0.140625 1.921875q0.078125 0.984375 0.078125 1.96875l0 6.515625l-1.515625 0l0 -12.46875zm14.664368 1.328125l-3.765625 0l0 -1.328125l9.125 0l0 1.328125l-3.765625 0l0 11.140625l-1.59375 0l0 -11.140625zm7.406006 -1.328125l7.1875 0l0 1.328125l-5.609375 0l0 3.921875l4.734375 0l0 1.34375l-4.734375 0l0 4.53125l5.796875 0l0 1.34375l-7.375 0l0 -12.46875zm11.409973 5.90625l2.09375 0q1.46875 0 2.234375 -0.59375q0.78125 -0.59375 0.78125 -1.8125q0 -1.234375 -0.78125 -1.71875q-0.765625 -0.5 -2.234375 -0.5l-2.09375 0l0 4.625zm5.265625 6.5625l-3.0 -5.265625l-2.265625 0l0 5.265625l-1.578125 0l0 -12.46875l3.90625 0q0.953125 0 1.75 0.1875q0.8125 0.171875 1.390625 0.59375q0.578125 0.421875 0.890625 1.09375q0.328125 0.65625 0.328125 1.625q0 1.46875 -0.765625 2.34375q-0.75 0.875 -2.015625 1.1875l3.15625 5.4375l-1.796875 0zm3.9954834 -12.46875l1.640625 0l4.5 7.828125l1.359375 2.59375l0.0625 0q-0.046875 -0.953125 -0.125 -1.96875q-0.0625 -1.015625 -0.0625 -2.0l0 -6.453125l1.5 0l0 12.46875l-1.625 0l-4.53125 -7.84375l-1.34375 -2.5625l-0.078125 0q0.078125 0.9375 0.140625 1.921875q0.078125 0.984375 0.078125 1.96875l0 6.515625l-1.515625 0l0 -12.46875zm12.070618 0l7.1875 0l0 1.328125l-5.609375 0l0 3.921875l4.734375 0l0 1.34375l-4.734375 0l0 4.53125l5.796875 0l0 1.34375l-7.375 0l0 -12.46875zm12.425598 1.328125l-3.765625 0l0 -1.328125l9.125 0l0 1.328125l-3.765625 0l0 11.140625l-1.59375 0l0 -11.140625z" fill-rule="nonzero"></path><path fill="#000000" fill-opacity="0.0" d="m560.0315 566.5744l174.39374 0" fill-rule="nonzero"></path><path stroke="#000000" stroke-width="1.0" stroke-linejoin="round" stroke-linecap="butt" d="m560.0315 566.57446l168.39368 0" fill-rule="evenodd"></path><path fill="#000000" stroke="#000000" stroke-width="1.0" stroke-linecap="butt" d="m728.4252 568.2262l4.538147 -1.6517334l-4.538147 -1.6517334z" fill-rule="evenodd"></path><path fill="#000000" fill-opacity="0.0" d="m725.5268 510.47345l-165.13385 0" fill-rule="nonzero"></path><path stroke="#000000" stroke-width="1.0" stroke-linejoin="round" stroke-linecap="butt" d="m725.52673 510.47348l-159.13379 0" fill-rule="evenodd"></path><path fill="#000000" stroke="#000000" stroke-width="1.0" stroke-linecap="butt" d="m566.39294 508.82175l-4.538147 1.6517334l4.538147 1.6517029z" fill-rule="evenodd"></path></g></svg>

