<svg version="1.1" viewBox="0.0 0.0 960.0 540.0" fill="none" stroke="none" stroke-linecap="square" stroke-miterlimit="10" xmlns:xlink="http://www.w3.org/1999/xlink" xmlns="http://www.w3.org/2000/svg"><clipPath id="g4153ccc18f_0_433.0"><path d="m0 0l960.0 0l0 540.0l-960.0 0l0 -540.0z" clip-rule="nonzero"/></clipPath><g clip-path="url(#g4153ccc18f_0_433.0)"><path fill="#ffffff" d="m0 0l960.0 0l0 540.0l-960.0 0z" fill-rule="evenodd"/><path fill="#000000" fill-opacity="0.0" d="m40.43832 131.62993l887.3071 0l0 372.69293l-887.3071 0z" fill-rule="evenodd"/><path fill="#f2f0ce" d="m290.8727 224.5751l317.92123 0l0 249.35434l-317.92123 0z" fill-rule="evenodd"/><path fill="#f2dadf" d="m368.97638 41.878254l239.81104 0l0 135.2126l-239.81104 0z" fill-rule="evenodd"/><path fill="#000000" d="m454.2067 116.40456l-1.125 -3.1875l-5.1875 0l-1.09375 3.1875l-1.703125 0l4.625 -13.0625l1.515625 0l4.625 13.0625l-1.65625 0zm-1.625 -4.625l-1.6875 -4.828125q-0.3125 -0.921875 -0.40625 -1.328125q-0.203125 0.71875 -0.40625 1.328125l-1.703125 4.828125l4.203125 0zm6.0582275 4.625l0 -13.0625l5.0 0q1.140625 0 1.984375 0.34375q0.84375 0.328125 1.3125 0.90625q0.46875 0.5625 0.6875 1.234375q0.234375 0.671875 0.234375 1.4375q0 1.546875 -1.0625 2.71875q-1.046875 1.171875 -3.15625 1.171875l-3.375 0l0 5.25l-1.625 0zm5.109375 -6.75q1.265625 0 1.875 -0.703125q0.609375 -0.71875 0.609375 -1.6875q0 -0.953125 -0.578125 -1.671875q-0.578125 -0.734375 -1.90625 -0.734375l-3.484375 0l0 4.796875l3.484375 0zm6.6753235 6.75l0 -13.0625l1.625 0l0 13.0625l-1.625 0zm13.519806 0.21875q-1.671875 0 -2.890625 -0.8125q-1.21875 -0.8125 -1.671875 -2.09375l1.53125 -0.5625q0.40625 0.90625 1.203125 1.421875q0.8125 0.515625 1.859375 0.515625q1.1875 0 1.875 -0.5625q0.703125 -0.5625 0.703125 -1.625q0 -1.03125 -0.78125 -1.640625q-0.765625 -0.625 -2.171875 -1.125q-0.671875 -0.25 -1.109375 -0.4375q-0.4375 -0.1875 -1.015625 -0.53125q-0.5625 -0.34375 -0.90625 -0.703125q-0.328125 -0.359375 -0.5625 -0.90625q-0.234375 -0.5625 -0.234375 -1.21875q0 -1.359375 1.078125 -2.28125q1.09375 -0.9375 2.9375 -0.9375q1.515625 0 2.515625 0.640625q1.015625 0.640625 1.3125 1.6875l-1.5 0.5q-0.25 -0.578125 -0.890625 -0.9375q-0.640625 -0.375 -1.546875 -0.375q-1.03125 0 -1.625 0.453125q-0.59375 0.453125 -0.59375 1.25q0 0.4375 0.203125 0.796875q0.21875 0.34375 0.671875 0.625q0.46875 0.28125 0.859375 0.453125q0.390625 0.171875 1.078125 0.421875q0.859375 0.328125 1.421875 0.625q0.5625 0.28125 1.203125 0.765625q0.65625 0.484375 0.984375 1.203125q0.34375 0.71875 0.34375 1.625q0 1.75 -1.203125 2.765625q-1.1875 1.0 -3.078125 1.0zm10.753204 0q-1.9375 0 -3.09375 -1.390625q-1.140625 -1.390625 -1.140625 -3.609375q0 -2.328125 1.15625 -3.640625q1.15625 -1.328125 3.078125 -1.328125q1.71875 0 2.828125 1.140625q1.109375 1.140625 1.109375 3.390625q0 0.515625 -0.046875 1.078125l-6.453125 0q0.09375 1.3125 0.796875 2.109375q0.71875 0.78125 1.8125 0.78125q1.1875 0 2.046875 -0.859375l0.984375 1.109375q-1.21875 1.21875 -3.078125 1.21875zm-2.59375 -5.734375l4.890625 0q-0.015625 -1.484375 -0.703125 -2.140625q-0.671875 -0.671875 -1.59375 -0.671875q-1.09375 0 -1.8125 0.703125q-0.703125 0.703125 -0.78125 2.109375zm8.958954 5.515625l0 -9.53125l1.625 0l0 1.25q0.671875 -1.46875 2.25 -1.46875q0.90625 0 1.484375 0.484375l-0.25 1.515625q-0.59375 -0.40625 -1.359375 -0.40625q-0.84375 0 -1.484375 0.65625q-0.640625 0.65625 -0.640625 2.125l0 5.375l-1.625 0zm9.819763 0l-3.5 -9.53125l1.640625 0l2.265625 6.359375q0.234375 0.703125 0.296875 0.9375q0.0625 -0.234375 0.296875 -0.9375l2.2187195 -6.359375l1.625 0l-3.484375 9.53125l-1.3593445 0zm10.661346 0.21875q-1.9375 0 -3.09375 -1.390625q-1.140625 -1.390625 -1.140625 -3.609375q0 -2.328125 1.15625 -3.640625q1.15625 -1.328125 3.078125 -1.328125q1.71875 0 2.828125 1.140625q1.109375 1.140625 1.109375 3.390625q0 0.515625 -0.046875 1.078125l-6.453125 0q0.09375 1.3125 0.796875 2.109375q0.71875 0.78125 1.8125 0.78125q1.1875 0 2.046875 -0.859375l0.984375 1.109375q-1.21875 1.21875 -3.078125 1.21875zm-2.59375 -5.734375l4.890625 0q-0.015625 -1.484375 -0.703125 -2.140625q-0.671875 -0.671875 -1.59375 -0.671875q-1.09375 0 -1.8125 0.703125q-0.703125 0.703125 -0.78125 2.109375zm8.958984 5.515625l0 -9.53125l1.625 0l0 1.25q0.671875 -1.46875 2.25 -1.46875q0.90625 0 1.484375 0.484375l-0.25 1.515625q-0.59375 -0.40625 -1.359375 -0.40625q-0.84375 0 -1.484375 0.65625q-0.640625 0.65625 -0.640625 2.125l0 5.375l-1.625 0z" fill-rule="nonzero"/><path fill="#000000" d="m85.7581 63.647606l0 0c0 -12.021889 9.7456665 -21.76756 21.767563 -21.76756l0 0c5.7731094 0 11.309776 2.2933617 15.391983 6.375572c4.0822144 4.0822067 6.37558 9.61887 6.37558 15.391987l0 0c0 12.021889 -9.745674 21.767563 -21.767563 21.767563l0 0c-12.021896 0 -21.767563 -9.745674 -21.767563 -21.767563z" fill-rule="evenodd"/><path fill="#000000" d="m94.17538 82.523094l26.70057 0l0 0c4.7751617 0 9.354736 1.8969193 12.731293 5.273468c3.3765411 3.3765488 5.273468 7.9561234 5.273468 12.731285l0 37.158554c0 2.89917E-4 -2.4414062E-4 5.187988E-4 -5.340576E-4 5.187988E-4l-62.70955 -5.187988E-4l0 0c-2.89917E-4 0 -5.264282E-4 -2.2888184E-4 -5.264282E-4 -5.187988E-4l5.264282E-4 -37.158035l0 0c0 -9.943756 8.060997 -18.004753 18.004753 -18.004753z" fill-rule="evenodd"/><path fill="#000000" fill-opacity="0.0" d="m65.370056 141.15224l85.47873 0l0 25.669281l-85.47873 0z" fill-rule="evenodd"/><path fill="#000000" d="m92.76625 154.18152l-1.390625 0l0 -6.875q0 -0.65625 0.03125 -1.234375q-0.15625 0.453125 -0.5 1.265625l-3.0625 7.03125l-2.984375 -7.0625q-0.375 -0.9375 -0.484375 -1.21875q0.046875 0.4375 0.046875 1.21875l0 6.875l-1.390625 0l0 -11.203125l1.3125 0l3.25 7.546875l0.296875 0.75q0.0625 -0.203125 0.28125 -0.75l3.265625 -7.546875l1.328125 0l0 11.203125zm7.5667725 0l0 -0.75q-1.0 0.9375 -2.3125 0.9375q-1.296875 0 -2.078125 -0.703125q-0.78125 -0.71875 -0.78125 -2.046875q0 -1.328125 0.875 -2.015625q0.890625 -0.6875 2.1875 -0.6875q1.1875 0 2.109375 0.53125l0 -0.578125q0 -1.03125 -0.453125 -1.4375q-0.453125 -0.40625 -1.328125 -0.40625q-1.21875 0 -2.375 0.8125l-0.40625 -1.15625q1.3125 -0.875 2.96875 -0.875q2.90625 0 2.90625 2.953125l0 5.421875l-1.3125 0zm-2.109375 -1.046875q1.203125 0 2.109375 -1.0625l0 -1.40625q-0.875 -0.546875 -1.921875 -0.546875q-0.84375 0 -1.390625 0.390625q-0.546875 0.375 -0.546875 1.109375q0 0.6875 0.453125 1.109375q0.46875 0.40625 1.296875 0.40625zm5.9160156 1.046875l0 -10.890625l1.390625 -0.65625l0 11.546875l-1.390625 0zm4.1920013 0l0 -10.890625l1.390625 -0.65625l0 11.546875l-1.390625 0zm9.879501 -0.953125q-0.96875 1.140625 -2.640625 1.140625q-1.65625 0 -2.640625 -1.125q-0.96875 -1.140625 -0.96875 -3.140625q0 -2.0 0.96875 -3.140625q0.984375 -1.15625 2.640625 -1.15625q1.671875 0 2.640625 1.140625q0.984375 1.140625 0.984375 3.140625q0 2.0 -0.984375 3.140625zm-4.265625 -0.9375q0.59375 0.78125 1.625 0.78125q1.046875 0 1.625 -0.78125q0.59375 -0.796875 0.59375 -2.203125q0 -1.390625 -0.59375 -2.1875q-0.578125 -0.8125 -1.625 -0.8125q-1.03125 0 -1.625 0.796875q-0.578125 0.796875 -0.578125 2.21875q0 1.390625 0.578125 2.1875zm7.4280243 1.890625l0 -8.171875l1.390625 0l0 1.0625q0.578125 -1.265625 1.9375 -1.265625q0.765625 0 1.265625 0.421875l-0.203125 1.3125q-0.515625 -0.34375 -1.171875 -0.34375q-0.71875 0 -1.28125 0.5625q-0.546875 0.546875 -0.546875 1.8125l0 4.609375l-1.390625 0zm7.1927643 3.109375l1.25 -3.3125l-3.015625 -7.96875l1.390625 0l2.03125 5.5625q0.109375 0.265625 0.25 0.78125q0.15625 -0.515625 0.265625 -0.78125l2.0625 -5.5625l1.421875 0l-4.234375 11.28125l-1.421875 0z" fill-rule="nonzero"/><path fill="#000000" fill-opacity="0.0" d="m643.94226 224.57556l5.322815 5.32283l-2.661377 0l0 231.46458l2.661377 0l-5.322815 5.322815l-5.322815 -5.322815l2.661377 0l0 -231.46458l-2.661377 0z" fill-rule="evenodd"/><path stroke="#595959" stroke-width="1.0" stroke-linejoin="round" stroke-linecap="butt" d="m643.94226 224.57556l5.322815 5.32283l-2.661377 0l0 231.46458l2.661377 0l-5.322815 5.322815l-5.322815 -5.322815l2.661377 0l0 -231.46458l-2.661377 0z" fill-rule="evenodd"/><path fill="#000000" fill-opacity="0.0" d="m645.50397 85.97769l183.02362 0l0 47.62204l-183.02362 0z" fill-rule="evenodd"/><path fill="#000000" d="m659.44147 116.92746q-1.828125 0 -2.890625 -1.3125q-1.0625 -1.3125 -1.0625 -3.65625q0 -2.359375 1.078125 -3.671875q1.078125 -1.328125 2.953125 -1.328125q2.546875 0 3.34375 2.21875l-1.53125 0.546875q-0.484375 -1.265625 -1.796875 -1.265625q-1.1875 0 -1.78125 0.921875q-0.59375 0.90625 -0.59375 2.578125q0 1.640625 0.59375 2.546875q0.59375 0.890625 1.734375 0.890625q1.484375 0 1.9375 -1.40625l1.515625 0.5q-0.359375 1.171875 -1.265625 1.8125q-0.90625 0.625 -2.234375 0.625zm12.671875 -1.328125q-1.140625 1.328125 -3.078125 1.328125q-1.9375 0 -3.078125 -1.3125q-1.140625 -1.328125 -1.140625 -3.65625q0 -2.34375 1.140625 -3.671875q1.140625 -1.328125 3.078125 -1.328125q1.9375 0 3.078125 1.328125q1.140625 1.3125 1.140625 3.65625q0 2.328125 -1.140625 3.65625zm-4.96875 -1.09375q0.6875 0.921875 1.890625 0.921875q1.21875 0 1.890625 -0.921875q0.6875 -0.9375 0.6875 -2.578125q0 -1.625 -0.6875 -2.546875q-0.671875 -0.9375 -1.890625 -0.9375q-1.203125 0 -1.890625 0.921875q-0.6875 0.921875 -0.6875 2.59375q0 1.609375 0.6875 2.546875zm14.519531 2.203125l0 -5.765625q0 -1.28125 -0.546875 -1.890625q-0.546875 -0.609375 -1.5 -0.609375q-2.203125 0 -2.203125 2.46875l0 5.796875l-1.625 0l0 -9.53125l1.625 0l0 0.96875q0.875 -1.1875 2.46875 -1.1875q1.671875 0 2.53125 1.015625q0.875 1.015625 0.875 3.25l0 5.484375l-1.625 0zm7.206604 0.21875q-2.015625 0 -2.015625 -2.265625l0 -6.0625l-1.546875 0l0 -1.421875l1.546875 0l0 -3.15625l1.625 -0.78125l0 3.9375l2.34375 0l0 1.421875l-2.34375 0l0 5.515625q0 0.640625 0.203125 0.984375q0.203125 0.328125 0.78125 0.328125q0.640625 0 1.421875 -0.515625l-0.1875 1.59375q-0.828125 0.421875 -1.828125 0.421875zm4.399292 -0.21875l0 -9.53125l1.625 0l0 1.25q0.671875 -1.46875 2.25 -1.46875q0.90625 0 1.484375 0.484375l-0.25 1.515625q-0.59375 -0.40625 -1.359375 -0.40625q-0.84375 0 -1.484375 0.65625q-0.640625 0.65625 -0.640625 2.125l0 5.375l-1.625 0zm13.991638 -1.109375q-1.140625 1.328125 -3.078125 1.328125q-1.9375 0 -3.078125 -1.3125q-1.140625 -1.328125 -1.140625 -3.65625q0 -2.34375 1.140625 -3.671875q1.140625 -1.328125 3.078125 -1.328125q1.9375 0 3.078125 1.328125q1.140625 1.3125 1.140625 3.65625q0 2.328125 -1.140625 3.65625zm-4.96875 -1.09375q0.6875 0.921875 1.890625 0.921875q1.21875 0 1.890625 -0.921875q0.6875 -0.9375 0.6875 -2.578125q0 -1.625 -0.6875 -2.546875q-0.671875 -0.9375 -1.890625 -0.9375q-1.203125 0 -1.890625 0.921875q-0.6875 0.921875 -0.6875 2.59375q0 1.609375 0.6875 2.546875zm8.738342 2.203125l0 -12.703125l1.625 -0.765625l0 13.46875l-1.625 0zm13.240906 0.21875q-1.484375 0 -2.4375 -1.109375l0 3.890625l-1.625 0.765625l0 -13.296875l1.625 0l0 0.796875q1.03125 -1.015625 2.4375 -1.015625q1.8125 0 2.875 1.34375q1.0625 1.328125 1.0625 3.625q0 2.34375 -1.078125 3.671875q-1.078125 1.328125 -2.859375 1.328125zm-0.203125 -1.5q1.203125 0 1.84375 -0.90625q0.640625 -0.90625 0.640625 -2.59375q0 -1.578125 -0.671875 -2.53125q-0.65625 -0.953125 -1.8125 -0.953125q-1.5 0 -2.234375 1.28125l0 4.40625q0.984375 1.296875 2.234375 1.296875zm6.7564697 1.28125l0 -12.703125l1.625 -0.765625l0 13.46875l-1.625 0zm10.262939 0l0 -0.875q-1.171875 1.09375 -2.703125 1.09375q-1.515625 0 -2.421875 -0.828125q-0.90625 -0.828125 -0.90625 -2.375q0 -1.546875 1.03125 -2.34375q1.03125 -0.8125 2.53125 -0.8125q1.390625 0 2.46875 0.625l0 -0.671875q0 -1.203125 -0.53125 -1.671875q-0.53125 -0.484375 -1.546875 -0.484375q-1.4375 0 -2.765625 0.953125l-0.46875 -1.359375q1.53125 -1.0 3.453125 -1.0q3.390625 0 3.390625 3.421875l0 6.328125l-1.53125 0zm-2.46875 -1.21875q1.40625 0 2.46875 -1.25l0 -1.640625q-1.03125 -0.625 -2.234375 -0.625q-1.0 0 -1.640625 0.453125q-0.625 0.4375 -0.625 1.296875q0 0.796875 0.53125 1.28125q0.53125 0.484375 1.5 0.484375zm12.688232 1.21875l0 -5.765625q0 -1.28125 -0.546875 -1.890625q-0.546875 -0.609375 -1.5 -0.609375q-2.203125 0 -2.203125 2.46875l0 5.796875l-1.625 0l0 -9.53125l1.625 0l0 0.96875q0.875 -1.1875 2.46875 -1.1875q1.671875 0 2.53125 1.015625q0.875 1.015625 0.875 3.25l0 5.484375l-1.625 0zm8.300293 0.21875q-1.9375 0 -3.09375 -1.390625q-1.140625 -1.390625 -1.140625 -3.609375q0 -2.328125 1.15625 -3.640625q1.15625 -1.328125 3.078125 -1.328125q1.71875 0 2.828125 1.140625q1.109375 1.140625 1.109375 3.390625q0 0.515625 -0.046875 1.078125l-6.453125 0q0.09375 1.3125 0.796875 2.109375q0.71875 0.78125 1.8125 0.78125q1.1875 0 2.046875 -0.859375l0.984375 1.109375q-1.21875 1.21875 -3.078125 1.21875zm-2.59375 -5.734375l4.890625 0q-0.015625 -1.484375 -0.703125 -2.140625q-0.671875 -0.671875 -1.59375 -0.671875q-1.09375 0 -1.8125 0.703125q-0.703125 0.703125 -0.78125 2.109375z" fill-rule="nonzero"/><path fill="#000000" fill-opacity="0.0" d="m643.94226 42.8084l5.322815 5.322834l-2.661377 0l0 122.70866l2.661377 0l-5.322815 5.3228455l-5.322815 -5.3228455l2.661377 0l0 -122.70866l-2.661377 0z" fill-rule="evenodd"/><path stroke="#595959" stroke-width="1.0" stroke-linejoin="round" stroke-linecap="butt" d="m643.94226 42.8084l5.322815 5.322834l-2.661377 0l0 122.70866l2.661377 0l-5.322815 5.3228455l-5.322815 -5.3228455l2.661377 0l0 -122.70866l-2.661377 0z" fill-rule="evenodd"/><path fill="#000000" fill-opacity="0.0" d="m645.50397 321.81924l145.00787 0l0 47.62204l-145.00787 0z" fill-rule="evenodd"/><path fill="#000000" d="m657.6602 352.55026l-2.453125 -9.53125l1.609375 0l1.453125 6.390625q0.015625 0.125 0.09375 0.484375q0.078125 0.34375 0.109375 0.53125q0.046875 -0.265625 0.25 -1.015625l1.78125 -6.390625l1.34375 0l1.796875 6.390625l0.265625 1.046875q0.03125 -0.15625 0.09375 -0.515625q0.078125 -0.359375 0.109375 -0.53125l1.4375 -6.390625l1.609375 0l-2.453125 9.53125l-1.453125 0l-1.734375 -5.65625q-0.265625 -0.84375 -0.359375 -1.25q-0.1875 0.78125 -0.328125 1.25l-1.71875 5.65625l-1.453125 0zm18.464172 -1.109375q-1.140625 1.328125 -3.078125 1.328125q-1.9375 0 -3.078125 -1.3125q-1.140625 -1.328125 -1.140625 -3.65625q0 -2.34375 1.140625 -3.671875q1.140625 -1.328125 3.078125 -1.328125q1.9375 0 3.078125 1.328125q1.140625 1.3125 1.140625 3.65625q0 2.328125 -1.140625 3.65625zm-4.96875 -1.09375q0.6875 0.921875 1.890625 0.921875q1.21875 0 1.890625 -0.921875q0.6875 -0.9375 0.6875 -2.578125q0 -1.625 -0.6875 -2.546875q-0.671875 -0.9375 -1.890625 -0.9375q-1.203125 0 -1.890625 0.921875q-0.6875 0.921875 -0.6875 2.59375q0 1.609375 0.6875 2.546875zm8.644592 2.203125l0 -9.53125l1.625 0l0 1.25q0.671875 -1.46875 2.25 -1.46875q0.90625 0 1.484375 0.484375l-0.25 1.515625q-0.59375 -0.40625 -1.359375 -0.40625q-0.84375 0 -1.484375 0.65625q-0.640625 0.65625 -0.640625 2.125l0 5.375l-1.625 0zm15.007263 0l-1.78125 0l-2.9375 -5.765625l-1.40625 1.453125l0 4.3125l-1.625 0l0 -12.703125l1.625 -0.765625l0 7.21875l3.09375 -3.28125l1.9375 0l-2.5 2.59375l3.59375 6.9375zm5.828369 0.21875q-1.9375 0 -3.09375 -1.390625q-1.140625 -1.390625 -1.140625 -3.609375q0 -2.328125 1.15625 -3.640625q1.15625 -1.328125 3.078125 -1.328125q1.71875 0 2.828125 1.140625q1.109375 1.140625 1.109375 3.390625q0 0.515625 -0.046875 1.078125l-6.453125 0q0.09375 1.3125 0.796875 2.109375q0.71875 0.78125 1.8125 0.78125q1.1875 0 2.046875 -0.859375l0.984375 1.109375q-1.21875 1.21875 -3.078125 1.21875zm-2.59375 -5.734375l4.890625 0q-0.015625 -1.484375 -0.703125 -2.140625q-0.671875 -0.671875 -1.59375 -0.671875q-1.09375 0 -1.8125 0.703125q-0.703125 0.703125 -0.78125 2.109375zm8.958923 5.515625l0 -9.53125l1.625 0l0 1.25q0.671875 -1.46875 2.25 -1.46875q0.90625 0 1.484375 0.484375l-0.25 1.515625q-0.59375 -0.40625 -1.359375 -0.40625q-0.84375 0 -1.484375 0.65625q-0.640625 0.65625 -0.640625 2.125l0 5.375l-1.625 0zm17.51648 0l0 -5.765625q0 -1.28125 -0.546875 -1.890625q-0.546875 -0.609375 -1.5 -0.609375q-2.203125 0 -2.203125 2.46875l0 5.796875l-1.625 0l0 -9.53125l1.625 0l0 0.96875q0.875 -1.1875 2.46875 -1.1875q1.671875 0 2.53125 1.015625q0.875 1.015625 0.875 3.25l0 5.484375l-1.625 0zm11.362854 -1.109375q-1.140625 1.328125 -3.078125 1.328125q-1.9375 0 -3.078125 -1.3125q-1.140625 -1.328125 -1.140625 -3.65625q0 -2.34375 1.140625 -3.671875q1.140625 -1.328125 3.078125 -1.328125q1.9375 0 3.078125 1.328125q1.140625 1.3125 1.140625 3.65625q0 2.328125 -1.140625 3.65625zm-4.96875 -1.09375q0.6875 0.921875 1.890625 0.921875q1.21875 0 1.890625 -0.921875q0.6875 -0.9375 0.6875 -2.578125q0 -1.625 -0.6875 -2.546875q-0.671875 -0.9375 -1.890625 -0.9375q-1.203125 0 -1.890625 0.921875q-0.6875 0.921875 -0.6875 2.59375q0 1.609375 0.6875 2.546875zm12.019531 2.421875q-1.8125 0 -2.875 -1.34375q-1.0625 -1.34375 -1.0625 -3.65625q0 -2.328125 1.078125 -3.640625q1.078125 -1.328125 2.859375 -1.328125q1.40625 0 2.40625 0.890625l0 -3.84375l1.625 -0.765625l0 13.46875l-1.625 0l0 -0.75q-0.921875 0.96875 -2.40625 0.96875zm0.234375 -1.5q1.40625 0 2.171875 -1.296875l0 -4.46875q-0.765625 -1.21875 -2.171875 -1.21875q-1.21875 0 -1.875 0.90625q-0.65625 0.90625 -0.65625 2.578125q0 1.515625 0.6875 2.515625q0.6875 0.984375 1.84375 0.984375zm10.547363 1.5q-1.9375 0 -3.09375 -1.390625q-1.140625 -1.390625 -1.140625 -3.609375q0 -2.328125 1.15625 -3.640625q1.15625 -1.328125 3.078125 -1.328125q1.71875 0 2.828125 1.140625q1.109375 1.140625 1.109375 3.390625q0 0.515625 -0.046875 1.078125l-6.453125 0q0.09375 1.3125 0.796875 2.109375q0.71875 0.78125 1.8125 0.78125q1.1875 0 2.046875 -0.859375l0.984375 1.109375q-1.21875 1.21875 -3.078125 1.21875zm-2.59375 -5.734375l4.890625 0q-0.015625 -1.484375 -0.703125 -2.140625q-0.671875 -0.671875 -1.59375 -0.671875q-1.09375 0 -1.8125 0.703125q-0.703125 0.703125 -0.78125 2.109375zm11.771423 5.734375q-1.015625 0 -1.9375 -0.4375q-0.921875 -0.4375 -1.5 -1.15625l1.15625 -1.0q1.0625 1.140625 2.328125 1.140625q0.796875 0 1.28125 -0.296875q0.484375 -0.3125 0.484375 -0.90625q0 -0.453125 -0.359375 -0.8125q-0.34375 -0.375 -0.71875 -0.546875q-0.375 -0.171875 -1.09375 -0.453125q-1.46875 -0.546875 -2.21875 -1.21875q-0.734375 -0.671875 -0.734375 -1.765625q0 -1.15625 0.90625 -1.828125q0.90625 -0.6875 2.296875 -0.6875q2.0 0 3.21875 1.421875l-1.125 0.9375q-0.875 -0.90625 -2.109375 -0.90625q-0.734375 0 -1.15625 0.28125q-0.421875 0.265625 -0.421875 0.78125q0 0.28125 0.125 0.515625q0.140625 0.21875 0.5 0.4375q0.375 0.203125 0.578125 0.3125q0.21875 0.09375 0.8125 0.3125q1.5 0.546875 2.296875 1.234375q0.796875 0.6875 0.796875 1.9375q0 1.265625 -0.921875 1.984375q-0.90625 0.71875 -2.484375 0.71875z" fill-rule="nonzero"/><path fill="#cef2d5" d="m489.98163 270.0l71.1496 0l0 47.62204l-71.1496 0z" fill-rule="evenodd"/><path fill="#000000" d="m515.4572 300.94977q-1.484375 0 -2.4375 -1.109375l0 3.890625l-1.6249695 0.765625l0 -13.296875l1.6249695 0l0 0.796875q1.03125 -1.015625 2.4375 -1.015625q1.8125 0 2.875 1.34375q1.0625 1.328125 1.0625 3.625q0 2.34375 -1.078125 3.671875q-1.078125 1.328125 -2.859375 1.328125zm-0.203125 -1.5q1.203125 0 1.84375 -0.90625q0.640625 -0.90625 0.640625 -2.59375q0 -1.578125 -0.671875 -2.53125q-0.65625 -0.953125 -1.8125 -0.953125q-1.5 0 -2.234375 1.28125l0 4.40625q0.984375 1.296875 2.234375 1.296875zm13.397156 0.171875q-1.140625 1.328125 -3.078125 1.328125q-1.9375 0 -3.078125 -1.3125q-1.140625 -1.328125 -1.140625 -3.65625q0 -2.34375 1.140625 -3.671875q1.140625 -1.328125 3.078125 -1.328125q1.9375 0 3.078125 1.328125q1.140625 1.3125 1.140625 3.65625q0 2.328125 -1.140625 3.65625zm-4.96875 -1.09375q0.6875 0.921875 1.890625 0.921875q1.21875 0 1.890625 -0.921875q0.6875 -0.9375 0.6875 -2.578125q0 -1.625 -0.6875 -2.546875q-0.671875 -0.9375 -1.890625 -0.9375q-1.203125 0 -1.890625 0.921875q-0.6875 0.921875 -0.6875 2.59375q0 1.609375 0.6875 2.546875zm12.019531 2.421875q-1.8125 0 -2.875 -1.34375q-1.0625 -1.34375 -1.0625 -3.65625q0 -2.328125 1.078125 -3.640625q1.078125 -1.328125 2.859375 -1.328125q1.40625 0 2.40625 0.890625l0 -3.84375l1.625 -0.765625l0 13.46875l-1.625 0l0 -0.75q-0.921875 0.96875 -2.40625 0.96875zm0.234375 -1.5q1.40625 0 2.171875 -1.296875l0 -4.46875q-0.765625 -1.21875 -2.171875 -1.21875q-1.21875 0 -1.875 0.90625q-0.65625 0.90625 -0.65625 2.578125q0 1.515625 0.6875 2.515625q0.6875 0.984375 1.84375 0.984375z" fill-rule="nonzero"/><path fill="#ceeef2" d="m280.55905 322.3727l88.409454 0l0 72.50394l-88.409454 0z" fill-rule="evenodd"/><path fill="#000000" d="m299.34174 354.76343q-1.671875 0 -2.890625 -0.8125q-1.21875 -0.8125 -1.671875 -2.09375l1.53125 -0.5625q0.40625 0.90625 1.203125 1.421875q0.8125 0.515625 1.859375 0.515625q1.1875 0 1.875 -0.5625q0.703125 -0.5625 0.703125 -1.625q0 -1.03125 -0.78125 -1.640625q-0.765625 -0.625 -2.171875 -1.125q-0.671875 -0.25 -1.109375 -0.4375q-0.4375 -0.1875 -1.015625 -0.53125q-0.5625 -0.34375 -0.90625 -0.703125q-0.328125 -0.359375 -0.5625 -0.90625q-0.234375 -0.5625 -0.234375 -1.21875q0 -1.359375 1.078125 -2.28125q1.09375 -0.9375 2.9375 -0.9375q1.515625 0 2.515625 0.640625q1.015625 0.640625 1.3125 1.6875l-1.5 0.5q-0.25 -0.578125 -0.890625 -0.9375q-0.640625 -0.375 -1.546875 -0.375q-1.03125 0 -1.625 0.453125q-0.59375 0.453125 -0.59375 1.25q0 0.4375 0.203125 0.796875q0.21875 0.34375 0.671875 0.625q0.46875 0.28125 0.859375 0.453125q0.390625 0.171875 1.078125 0.421875q0.859375 0.328125 1.421875 0.625q0.5625 0.28125 1.203125 0.765625q0.65625 0.484375 0.984375 1.203125q0.34375 0.71875 0.34375 1.625q0 1.75 -1.203125 2.765625q-1.1875 1.0 -3.078125 1.0zm10.753235 0q-1.9375 0 -3.09375 -1.390625q-1.140625 -1.390625 -1.140625 -3.609375q0 -2.328125 1.15625 -3.640625q1.15625 -1.328125 3.078125 -1.328125q1.71875 0 2.828125 1.140625q1.109375 1.140625 1.109375 3.390625q0 0.515625 -0.046875 1.078125l-6.453125 0q0.09375 1.3125 0.796875 2.109375q0.71875 0.78125 1.8125 0.78125q1.1875 0 2.046875 -0.859375l0.984375 1.109375q-1.21875 1.21875 -3.078125 1.21875zm-2.59375 -5.734375l4.890625 0q-0.015625 -1.484375 -0.703125 -2.140625q-0.671875 -0.671875 -1.59375 -0.671875q-1.09375 0 -1.8125 0.703125q-0.703125 0.703125 -0.78125 2.109375zm8.958923 5.515625l0 -9.53125l1.625 0l0 1.25q0.671875 -1.46875 2.25 -1.46875q0.90625 0 1.484375 0.484375l-0.25 1.515625q-0.59375 -0.40625 -1.359375 -0.40625q-0.84375 0 -1.484375 0.65625q-0.640625 0.65625 -0.640625 2.125l0 5.375l-1.625 0zm9.819794 0l-3.5 -9.53125l1.640625 0l2.265625 6.359375q0.234375 0.703125 0.296875 0.9375q0.0625 -0.234375 0.296875 -0.9375l2.21875 -6.359375l1.625 0l-3.484375 9.53125l-1.359375 0zm8.536377 -11.546875q-0.296875 0.28125 -0.734375 0.28125q-0.421875 0 -0.71875 -0.296875q-0.28125 -0.296875 -0.28125 -0.71875q0 -0.421875 0.296875 -0.734375q0.296875 -0.3125 0.71875 -0.3125q0.421875 0 0.71875 0.3125q0.296875 0.3125 0.296875 0.75q0 0.421875 -0.296875 0.71875zm-1.53125 11.546875l0 -9.53125l1.625 0l0 9.53125l-1.625 0zm8.113678 0.21875q-1.828125 0 -2.890625 -1.3125q-1.0625 -1.3125 -1.0625 -3.65625q0 -2.359375 1.078125 -3.671875q1.078125 -1.328125 2.953125 -1.328125q2.546875 0 3.34375 2.21875l-1.53125 0.546875q-0.484375 -1.265625 -1.796875 -1.265625q-1.1875 0 -1.78125 0.921875q-0.59375 0.90625 -0.59375 2.578125q0 1.640625 0.59375 2.546875q0.59375 0.890625 1.734375 0.890625q1.484375 0 1.9375 -1.40625l1.515625 0.5q-0.359375 1.171875 -1.265625 1.8125q-0.90625 0.625 -2.234375 0.625zm9.609375 0q-1.9375 0 -3.09375 -1.390625q-1.140625 -1.390625 -1.140625 -3.609375q0 -2.328125 1.15625 -3.640625q1.15625 -1.328125 3.078125 -1.328125q1.71875 0 2.828125 1.140625q1.109375 1.140625 1.109375 3.390625q0 0.515625 -0.046875 1.078125l-6.453125 0q0.09375 1.3125 0.796875 2.109375q0.71875 0.78125 1.8125 0.78125q1.1875 0 2.046875 -0.859375l0.984375 1.109375q-1.21875 1.21875 -3.078125 1.21875zm-2.59375 -5.734375l4.890625 0q-0.015625 -1.484375 -0.703125 -2.140625q-0.671875 -0.671875 -1.59375 -0.671875q-1.09375 0 -1.8125 0.703125q-0.703125 0.703125 -0.78125 2.109375z" fill-rule="nonzero"/><path fill="#000000" d="m315.2582 376.54468l0 -13.0625l1.625 0l0 11.5l6.421875 0l0 1.5625l-8.046875 0zm10.428864 -13.0625l4.625 0q2.140625 0 3.09375 1.0q0.96875 0.984375 0.96875 2.453125q0 0.890625 -0.5 1.609375q-0.5 0.71875 -1.421875 1.109375q1.140625 0.359375 1.765625 1.1875q0.625 0.828125 0.625 1.953125q0 0.703125 -0.21875 1.34375q-0.21875 0.640625 -0.6875 1.203125q-0.46875 0.546875 -1.328125 0.875q-0.859375 0.328125 -2.0 0.328125l-4.921875 0l0 -13.0625zm4.3125 5.546875q1.359375 0 2.0625 -0.546875q0.71875 -0.5625 0.71875 -1.53125q0 -1.984375 -2.375 -1.984375l-3.09375 0l0 4.0625l2.6875 0zm0.796875 6.015625q1.328125 0 1.890625 -0.609375q0.5625 -0.609375 0.5625 -1.53125q0 -2.40625 -3.046875 -2.40625l-2.890625 0l0 4.546875l3.484375 0z" fill-rule="nonzero"/><path fill="#000000" fill-opacity="0.0" d="m138.8807 110.104744l230.11023 -0.62992096" fill-rule="evenodd"/><path stroke="#595959" stroke-width="2.0" stroke-linejoin="round" stroke-linecap="butt" d="m138.8807 110.104744l223.25607 -0.6111603" fill-rule="evenodd"/><path fill="#595959" stroke="#595959" stroke-width="2.0" stroke-linecap="butt" d="m362.13678 109.49358l-2.242981 2.2553177l6.17334 -2.2660751l-6.185669 -2.2322464z" fill-rule="evenodd"/><path fill="#000000" fill-opacity="0.0" d="m194.13649 65.81659l145.00786 0l0 47.622047l-145.00786 0z" fill-rule="evenodd"/><path fill="#000000" d="m244.87465 92.73659l-1.78125 0l-2.9375 -5.765625l-1.40625 1.453125l0 4.3125l-1.625 0l0 -12.703125l1.625 -0.765625l0 7.21875l3.09375 -3.28125l1.9375 0l-2.5 2.59375l3.59375 6.9375zm7.9377136 0l0 -0.921875q-0.875 1.140625 -2.40625 1.140625q-1.734375 0 -2.609375 -1.0q-0.859375 -1.015625 -0.859375 -3.25l0 -5.5l1.625 0l0 5.75q0 1.28125 0.546875 1.890625q0.546875 0.609375 1.5 0.609375q2.203125 0 2.203125 -2.46875l0 -5.78125l1.625 0l0 9.53125l-1.625 0zm8.784714 0.21875q-1.359375 0 -2.4375 -1.046875l0 0.828125l-1.625 0l0 -12.703125l1.625 -0.765625l0 4.75q0.953125 -1.03125 2.390625 -1.03125q1.78125 0 2.859375 1.328125q1.09375 1.3125 1.09375 3.640625q0 2.40625 -1.046875 3.703125q-1.03125 1.296875 -2.859375 1.296875zm-0.21875 -1.5q1.21875 0 1.84375 -0.921875q0.625 -0.9375 0.625 -2.578125q0 -1.6875 -0.625 -2.578125q-0.625 -0.90625 -1.84375 -0.90625q-0.75 0 -1.34375 0.390625q-0.59375 0.390625 -0.875 0.875l0 4.421875q0.359375 0.59375 0.953125 0.953125q0.59375 0.34375 1.265625 0.34375zm10.312927 1.5q-1.9375 0 -3.09375 -1.390625q-1.140625 -1.390625 -1.140625 -3.609375q0 -2.328125 1.15625 -3.640625q1.15625 -1.328125 3.078125 -1.328125q1.71875 0 2.828125 1.140625q1.109375 1.140625 1.109375 3.390625q0 0.515625 -0.046875 1.078125l-6.453125 0q0.09375 1.3125 0.796875 2.109375q0.71875 0.78125 1.8125 0.78125q1.1875 0 2.046875 -0.859375l0.984375 1.109375q-1.21875 1.21875 -3.078125 1.21875zm-2.59375 -5.734375l4.890625 0q-0.015625 -1.484375 -0.703125 -2.140625q-0.671875 -0.671875 -1.59375 -0.671875q-1.09375 0 -1.8125 0.703125q-0.703125 0.703125 -0.78125 2.109375zm12.349579 5.734375q-1.828125 0 -2.890625 -1.3125q-1.0625 -1.3125 -1.0625 -3.65625q0 -2.359375 1.078125 -3.671875q1.078125 -1.328125 2.953125 -1.328125q2.546875 0 3.34375 2.21875l-1.53125 0.546875q-0.484375 -1.265625 -1.796875 -1.265625q-1.1875 0 -1.78125 0.921875q-0.59375 0.90625 -0.59375 2.578125q0 1.640625 0.59375 2.546875q0.59375 0.890625 1.734375 0.890625q1.484375 0 1.9375 -1.40625l1.515625 0.5q-0.359375 1.171875 -1.265625 1.8125q-0.90625 0.625 -2.234375 0.625zm8.515625 0q-2.015625 0 -2.015625 -2.265625l0 -6.0625l-1.546875 0l0 -1.421875l1.546875 0l0 -3.15625l1.625 -0.78125l0 3.9375l2.34375 0l0 1.421875l-2.34375 0l0 5.515625q0 0.640625 0.203125 0.984375q0.203125 0.328125 0.78125 0.328125q0.640625 0 1.421875 -0.515625l-0.1875 1.59375q-0.828125 0.421875 -1.828125 0.421875zm4.493042 -0.21875l0 -12.703125l1.625 -0.765625l0 13.46875l-1.625 0z" fill-rule="nonzero"/><path fill="#cef2d5" d="m489.98163 334.81366l71.1496 0l0 47.62204l-71.1496 0z" fill-rule="evenodd"/><path fill="#000000" d="m515.4572 365.76343q-1.484375 0 -2.4375 -1.109375l0 3.890625l-1.6249695 0.765625l0 -13.296875l1.6249695 0l0 0.796875q1.03125 -1.015625 2.4375 -1.015625q1.8125 0 2.875 1.34375q1.0625 1.328125 1.0625 3.625q0 2.34375 -1.078125 3.671875q-1.078125 1.328125 -2.859375 1.328125zm-0.203125 -1.5q1.203125 0 1.84375 -0.90625q0.640625 -0.90625 0.640625 -2.59375q0 -1.578125 -0.671875 -2.53125q-0.65625 -0.953125 -1.8125 -0.953125q-1.5 0 -2.234375 1.28125l0 4.40625q0.984375 1.296875 2.234375 1.296875zm13.397156 0.171875q-1.140625 1.328125 -3.078125 1.328125q-1.9375 0 -3.078125 -1.3125q-1.140625 -1.328125 -1.140625 -3.65625q0 -2.34375 1.140625 -3.671875q1.140625 -1.328125 3.078125 -1.328125q1.9375 0 3.078125 1.328125q1.140625 1.3125 1.140625 3.65625q0 2.328125 -1.140625 3.65625zm-4.96875 -1.09375q0.6875 0.921875 1.890625 0.921875q1.21875 0 1.890625 -0.921875q0.6875 -0.9375 0.6875 -2.578125q0 -1.625 -0.6875 -2.546875q-0.671875 -0.9375 -1.890625 -0.9375q-1.203125 0 -1.890625 0.921875q-0.6875 0.921875 -0.6875 2.59375q0 1.609375 0.6875 2.546875zm12.019531 2.421875q-1.8125 0 -2.875 -1.34375q-1.0625 -1.34375 -1.0625 -3.65625q0 -2.328125 1.078125 -3.640625q1.078125 -1.328125 2.859375 -1.328125q1.40625 0 2.40625 0.890625l0 -3.84375l1.625 -0.765625l0 13.46875l-1.625 0l0 -0.75q-0.921875 0.96875 -2.40625 0.96875zm0.234375 -1.5q1.40625 0 2.171875 -1.296875l0 -4.46875q-0.765625 -1.21875 -2.171875 -1.21875q-1.21875 0 -1.875 0.90625q-0.65625 0.90625 -0.65625 2.578125q0 1.515625 0.6875 2.515625q0.6875 0.984375 1.84375 0.984375z" fill-rule="nonzero"/><path fill="#cef2d5" d="m489.98163 399.6273l71.1496 0l0 47.62204l-71.1496 0z" fill-rule="evenodd"/><path fill="#000000" d="m515.4572 430.57706q-1.484375 0 -2.4375 -1.109375l0 3.890625l-1.6249695 0.765625l0 -13.296875l1.6249695 0l0 0.796875q1.03125 -1.015625 2.4375 -1.015625q1.8125 0 2.875 1.34375q1.0625 1.328125 1.0625 3.625q0 2.34375 -1.078125 3.671875q-1.078125 1.328125 -2.859375 1.328125zm-0.203125 -1.5q1.203125 0 1.84375 -0.90625q0.640625 -0.90625 0.640625 -2.59375q0 -1.578125 -0.671875 -2.53125q-0.65625 -0.953125 -1.8125 -0.953125q-1.5 0 -2.234375 1.28125l0 4.40625q0.984375 1.296875 2.234375 1.296875zm13.397156 0.171875q-1.140625 1.328125 -3.078125 1.328125q-1.9375 0 -3.078125 -1.3125q-1.140625 -1.328125 -1.140625 -3.65625q0 -2.34375 1.140625 -3.671875q1.140625 -1.328125 3.078125 -1.328125q1.9375 0 3.078125 1.328125q1.140625 1.3125 1.140625 3.65625q0 2.328125 -1.140625 3.65625zm-4.96875 -1.09375q0.6875 0.921875 1.890625 0.921875q1.21875 0 1.890625 -0.921875q0.6875 -0.9375 0.6875 -2.578125q0 -1.625 -0.6875 -2.546875q-0.671875 -0.9375 -1.890625 -0.9375q-1.203125 0 -1.890625 0.921875q-0.6875 0.921875 -0.6875 2.59375q0 1.609375 0.6875 2.546875zm12.019531 2.421875q-1.8125 0 -2.875 -1.34375q-1.0625 -1.34375 -1.0625 -3.65625q0 -2.328125 1.078125 -3.640625q1.078125 -1.328125 2.859375 -1.328125q1.40625 0 2.40625 0.890625l0 -3.84375l1.625 -0.765625l0 13.46875l-1.625 0l0 -0.75q-0.921875 0.96875 -2.40625 0.96875zm0.234375 -1.5q1.40625 0 2.171875 -1.296875l0 -4.46875q-0.765625 -1.21875 -2.171875 -1.21875q-1.21875 0 -1.875 0.90625q-0.65625 0.90625 -0.65625 2.578125q0 1.515625 0.6875 2.515625q0.6875 0.984375 1.84375 0.984375z" fill-rule="nonzero"/><path fill="#000000" fill-opacity="0.0" d="m368.9685 358.62466l121.00787 -64.81888" fill-rule="evenodd"/><path stroke="#595959" stroke-width="2.0" stroke-linejoin="round" stroke-linecap="butt" d="m368.9685 358.62466l114.96591 -61.58246" fill-rule="evenodd"/><path fill="#595959" stroke="#595959" stroke-width="2.0" stroke-linecap="butt" d="m483.93442 297.0422l-0.9206238 3.0446472l4.385254 -4.9005127l-6.5092773 0.9352417z" fill-rule="evenodd"/><path fill="#000000" fill-opacity="0.0" d="m368.9685 358.62466l121.00787 0" fill-rule="evenodd"/><path stroke="#595959" stroke-width="2.0" stroke-linejoin="round" stroke-linecap="butt" d="m368.9685 358.62466l114.15372 0" fill-rule="evenodd"/><path fill="#595959" stroke="#595959" stroke-width="2.0" stroke-linecap="butt" d="m483.1222 358.62466l-2.2491455 2.249176l6.179535 -2.249176l-6.179535 -2.2491455z" fill-rule="evenodd"/><path fill="#000000" fill-opacity="0.0" d="m368.9685 358.62466l121.00787 64.81891" fill-rule="evenodd"/><path stroke="#595959" stroke-width="2.0" stroke-linejoin="round" stroke-linecap="butt" d="m368.9685 358.62466l114.96591 61.58249" fill-rule="evenodd"/><path fill="#595959" stroke="#595959" stroke-width="2.0" stroke-linecap="butt" d="m483.93442 420.20715l-3.0446472 0.9206238l6.5092773 0.9352112l-4.385254 -4.9005127z" fill-rule="evenodd"/><path fill="#eeeeee" d="m81.52417 344.89127l0 0c-1.1691742 -6.619171 2.669464 -13.171722 9.887047 -16.877197c7.2175827 -3.7054749 16.548294 -3.9140015 24.032776 -0.5371094l0 0c2.6512299 -3.8486328 7.5037613 -6.50589 13.08979 -7.1679077c5.586029 -0.66204834 11.249451 0.74884033 15.277206 3.8059082l0 0c2.2585144 -3.489441 6.6931305 -5.833893 11.730225 -6.201416c5.0371094 -0.3675537 9.963806 1.2938538 13.03186 4.394623l0 0c4.0803375 -3.6987915 10.572235 -5.256134 16.666626 -3.998169c6.094391 1.2579651 10.696671 5.105316 11.815399 9.877289l0 0c4.9990997 1.0504456 9.163239 3.7208862 11.416534 7.32135c2.2533112 3.6004639 2.3747406 7.77771 0.33291626 11.452545l0 0c4.922638 4.935669 6.074173 11.51239 3.0248566 17.275848c-3.0493164 5.7634583 -9.841354 9.847748 -17.841446 10.728699c-0.056381226 5.40921 -3.9072113 10.37265 -10.068192 12.977173c-6.1609955 2.6045227 -13.67009 2.4434204 -19.63295 -0.4211731c-2.539856 6.4784546 -9.688721 11.24527 -18.358017 12.240936c-8.669296 0.995697 -17.30487 -1.9582214 -22.17585 -7.5855103c-5.9708023 2.7737122 -13.135262 3.5727234 -19.877235 2.2167969c-6.7419662 -1.3559265 -12.49353 -4.7525635 -15.957245 -9.423706l0 0c-6.10141 0.5500183 -12.000626 -1.8852539 -14.769897 -6.097229c-2.7692642 -4.211975 -1.8190765 -9.304016 2.3790054 -12.748962l0 0c-5.4426117 -2.467804 -8.219765 -7.3647156 -6.883278 -12.137238c1.3364944 -4.7724915 6.4837646 -8.339111 12.757721 -8.839966z" fill-rule="evenodd"/><path fill="#000000" fill-opacity="0.0" d="m75.52912 366.1236l0 0c2.5683823 1.1645508 5.535469 1.6928406 8.502884 1.5138855m3.8866653 17.332703c1.2761002 -0.11505127 2.5269165 -0.35864258 3.720192 -0.72454834m32.11251 7.9311523c-0.8975296 -1.0368958 -1.6489792 -2.1448975 -2.2415543 -3.3051147m42.77697 -1.3504944l0 0c0.46305847 -1.1811218 0.7630768 -2.396759 0.8950653 -3.6266174m28.804962 -8.928925c0.060028076 -5.7589417 -4.185898 -11.031891 -10.914017 -13.553955m25.730453 -14.450012c-1.0895996 1.961029 -2.7529907 3.700653 -4.8597565 5.082428m-6.888672 -23.856812l0 0c0.18565369 0.79190063 0.27157593 1.5957031 0.25657654 2.4002686m-28.738113 -8.279144l0 0c-1.0178375 0.92263794 -1.8563995 1.9537048 -2.4895782 3.0610962m-22.272736 -1.2546997l0 0c-0.5424347 0.8380432 -0.94747925 1.7248535 -1.2058105 2.6399536m-27.161606 0.72210693l0 0c1.5837097 0.7145386 3.0488586 1.574585 4.3632584 2.5612183m-38.282646 14.85318l0 0c0.16114807 0.9122925 0.41576385 1.813324 0.76145935 2.6947021" fill-rule="evenodd"/><path stroke="#595959" stroke-width="1.0" stroke-linejoin="round" stroke-linecap="butt" d="m81.52417 344.89127l0 0c-1.1691742 -6.619171 2.669464 -13.171722 9.887047 -16.877197c7.2175827 -3.7054749 16.548294 -3.9140015 24.032776 -0.5371094l0 0c2.6512299 -3.8486328 7.5037613 -6.50589 13.08979 -7.1679077c5.586029 -0.66204834 11.249451 0.74884033 15.277206 3.8059082l0 0c2.2585144 -3.489441 6.6931305 -5.833893 11.730225 -6.201416c5.0371094 -0.3675537 9.963806 1.2938538 13.03186 4.394623l0 0c4.0803375 -3.6987915 10.572235 -5.256134 16.666626 -3.998169c6.094391 1.2579651 10.696671 5.105316 11.815399 9.877289l0 0c4.9990997 1.0504456 9.163239 3.7208862 11.416534 7.32135c2.2533112 3.6004639 2.3747406 7.77771 0.33291626 11.452545l0 0c4.922638 4.935669 6.074173 11.51239 3.0248566 17.275848c-3.0493164 5.7634583 -9.841354 9.847748 -17.841446 10.728699c-0.056381226 5.40921 -3.9072113 10.37265 -10.068192 12.977173c-6.1609955 2.6045227 -13.67009 2.4434204 -19.63295 -0.4211731c-2.539856 6.4784546 -9.688721 11.24527 -18.358017 12.240936c-8.669296 0.995697 -17.30487 -1.9582214 -22.17585 -7.5855103c-5.9708023 2.7737122 -13.135262 3.5727234 -19.877235 2.2167969c-6.7419662 -1.3559265 -12.49353 -4.7525635 -15.957245 -9.423706l0 0c-6.10141 0.5500183 -12.000626 -1.8852539 -14.769897 -6.097229c-2.7692642 -4.211975 -1.8190765 -9.304016 2.3790054 -12.748962l0 0c-5.4426117 -2.467804 -8.219765 -7.3647156 -6.883278 -12.137238c1.3364944 -4.7724915 6.4837646 -8.339111 12.757721 -8.839966z" fill-rule="evenodd"/><path stroke="#595959" stroke-width="1.0" stroke-linejoin="round" stroke-linecap="butt" d="m75.52912 366.1236l0 0c2.5683823 1.1645508 5.535469 1.6928406 8.502884 1.5138855m3.8866653 17.332703c1.2761002 -0.11505127 2.5269165 -0.35864258 3.720192 -0.72454834m32.11251 7.9311523c-0.8975296 -1.0368958 -1.6489792 -2.1448975 -2.2415543 -3.3051147m42.77697 -1.3504944l0 0c0.46305847 -1.1811218 0.7630768 -2.396759 0.8950653 -3.6266174m28.804962 -8.928925c0.060028076 -5.7589417 -4.185898 -11.031891 -10.914017 -13.553955m25.730453 -14.450012c-1.0895996 1.961029 -2.7529907 3.700653 -4.8597565 5.082428m-6.888672 -23.856812l0 0c0.18565369 0.79190063 0.27157593 1.5957031 0.25657654 2.4002686m-28.738113 -8.279144l0 0c-1.0178375 0.92263794 -1.8563995 1.9537048 -2.4895782 3.0610962m-22.272736 -1.2546997l0 0c-0.5424347 0.8380432 -0.94747925 1.7248535 -1.2058105 2.6399536m-27.161606 0.72210693l0 0c1.5837097 0.7145386 3.0488586 1.574585 4.3632584 2.5612183m-38.282646 14.85318l0 0c0.16114807 0.9122925 0.41576385 1.813324 0.76145935 2.6947021" fill-rule="evenodd"/><path fill="#000000" d="m105.359566 352.09622q-0.296875 0.28125 -0.734375 0.28125q-0.421875 0 -0.71875 -0.296875q-0.28125 -0.296875 -0.28125 -0.71875q0 -0.421875 0.296875 -0.734375q0.296875 -0.3125 0.71875 -0.3125q0.421875 0 0.71875 0.3125q0.296875 0.3125 0.296875 0.75q0 0.421875 -0.296875 0.71875zm-1.53125 11.546875l0 -9.53125l1.625 0l0 9.53125l-1.625 0zm10.598068 0l0 -5.765625q0 -1.28125 -0.546875 -1.890625q-0.546875 -0.609375 -1.5 -0.609375q-2.203125 0 -2.203125 2.46875l0 5.796875l-1.625 0l0 -9.53125l1.625 0l0 0.96875q0.875 -1.1875 2.46875 -1.1875q1.671875 0 2.53125 1.015625q0.875 1.015625 0.875 3.25l0 5.484375l-1.625 0zm7.2065887 0.21875q-2.015625 0 -2.015625 -2.265625l0 -6.0625l-1.546875 0l0 -1.421875l1.546875 0l0 -3.15625l1.625 -0.78125l0 3.9375l2.34375 0l0 1.421875l-2.34375 0l0 5.515625q0 0.640625 0.203125 0.984375q0.203125 0.328125 0.78125 0.328125q0.640625 0 1.421875 -0.515625l-0.1875 1.59375q-0.828125 0.421875 -1.828125 0.421875zm8.071175 0q-1.9374924 0 -3.0937424 -1.390625q-1.140625 -1.390625 -1.140625 -3.609375q0 -2.328125 1.15625 -3.640625q1.15625 -1.328125 3.0781174 -1.328125q1.71875 0 2.828125 1.140625q1.109375 1.140625 1.109375 3.390625q0 0.515625 -0.046875 1.078125l-6.4531174 0q0.09375 1.3125 0.796875 2.109375q0.7187424 0.78125 1.8124924 0.78125q1.1875 0 2.046875 -0.859375l0.984375 1.109375q-1.21875 1.21875 -3.078125 1.21875zm-2.5937424 -5.734375l4.8906174 0q-0.015625 -1.484375 -0.703125 -2.140625q-0.671875 -0.671875 -1.59375 -0.671875q-1.09375 0 -1.8124924 0.703125q-0.703125 0.703125 -0.78125 2.109375zm8.958931 5.515625l0 -9.53125l1.625 0l0 1.25q0.671875 -1.46875 2.25 -1.46875q0.90625 0 1.484375 0.484375l-0.25 1.515625q-0.59375 -0.40625 -1.359375 -0.40625q-0.84375 0 -1.484375 0.65625q-0.640625 0.65625 -0.640625 2.125l0 5.375l-1.625 0zm13.132278 0l0 -5.765625q0 -1.28125 -0.546875 -1.890625q-0.546875 -0.609375 -1.5 -0.609375q-2.203125 0 -2.203125 2.46875l0 5.796875l-1.625 0l0 -9.53125l1.625 0l0 0.96875q0.875 -1.1875 2.46875 -1.1875q1.671875 0 2.53125 1.015625q0.875 1.015625 0.875 3.25l0 5.484375l-1.625 0zm8.300339 0.21875q-1.9375 0 -3.09375 -1.390625q-1.140625 -1.390625 -1.140625 -3.609375q0 -2.328125 1.15625 -3.640625q1.15625 -1.328125 3.078125 -1.328125q1.71875 0 2.828125 1.140625q1.109375 1.140625 1.109375 3.390625q0 0.515625 -0.046875 1.078125l-6.453125 0q0.09375 1.3125 0.796875 2.109375q0.71875 0.78125 1.8125 0.78125q1.1875 0 2.046875 -0.859375l0.984375 1.109375q-1.21875 1.21875 -3.078125 1.21875zm-2.59375 -5.734375l4.890625 0q-0.015625 -1.484375 -0.703125 -2.140625q-0.671875 -0.671875 -1.59375 -0.671875q-1.09375 0 -1.8125 0.703125q-0.703125 0.703125 -0.78125 2.109375zm11.537064 5.734375q-2.015625 0 -2.015625 -2.265625l0 -6.0625l-1.546875 0l0 -1.421875l1.546875 0l0 -3.15625l1.625 -0.78125l0 3.9375l2.34375 0l0 1.421875l-2.34375 0l0 5.515625q0 0.640625 0.203125 0.984375q0.203125 0.328125 0.78125 0.328125q0.640625 0 1.421875 -0.515625l-0.1875 1.59375q-0.828125 0.421875 -1.828125 0.421875z" fill-rule="nonzero"/><path fill="#000000" fill-opacity="0.0" d="m213.32137 358.62445l67.244095 0" fill-rule="evenodd"/><path stroke="#595959" stroke-width="2.0" stroke-linejoin="round" stroke-linecap="butt" d="m213.32137 358.62448l60.389908 0" fill-rule="evenodd"/><path fill="#595959" stroke="#595959" stroke-width="2.0" stroke-linecap="butt" d="m273.71127 358.62448l-2.2491455 2.2491455l6.179535 -2.2491455l-6.179535 -2.249176z" fill-rule="evenodd"/><path fill="#000000" fill-opacity="0.0" d="m138.8819 128.81102c35.182846 0 155.857 -4.5468063 211.09714 0c55.240143 4.546814 94.24252 3.6509247 120.34372 27.280838c26.101196 23.629929 30.219604 95.41557 36.26352 114.49869" fill-rule="evenodd"/><path stroke="#eb1a45" stroke-width="2.0" stroke-linejoin="round" stroke-linecap="butt" d="m138.8819 128.81102c35.18286 0 155.857 -4.5467987 211.09714 0c55.240112 4.546814 94.24249 3.6509247 120.34372 27.280838c13.050598 11.814972 20.60553 35.66887 25.65326 58.954407c2.5238647 11.6427765 4.420929 23.143448 6.064789 32.926132c0.82192993 4.891342 1.5805359 9.353195 2.3226013 13.188553c0.18548584 0.9588318 0.36993408 1.8785095 0.55407715 2.755951l0.0052490234 0.024414062" fill-rule="evenodd"/><path fill="#eb1a45" stroke="#eb1a45" stroke-width="2.0" stroke-linecap="butt" d="m504.92276 263.9413l-2.7278137 -1.6360474l3.6817322 5.4489136l0.6820984 -6.54068z" fill-rule="evenodd"/></g></svg>