<?xml version="1.0" standalone="yes"?>

<svg version="1.1" viewBox="0.0 0.0 1199.3333333333333 458.6666666666667" fill="none" stroke="none" stroke-linecap="square" stroke-miterlimit="10" xmlns="http://www.w3.org/2000/svg" xmlns:xlink="http://www.w3.org/1999/xlink"><clipPath id="p.0"><path d="m0 0l1199.3334 0l0 458.66666l-1199.3334 0l0 -458.66666z" clip-rule="nonzero"></path></clipPath><g clip-path="url(#p.0)"><path fill="#000000" fill-opacity="0.0" d="m0 0l1199.3334 0l0 458.66666l-1199.3334 0z" fill-rule="evenodd"></path><path fill="#000000" fill-opacity="0.0" d="m810.8529 88.38806l243.11816 33.291336l-5.4803467 40.031494l-243.1181 -33.291336z" fill-rule="evenodd"></path><path fill="#000000" d="m817.3414 116.44778l1.3372803 -9.768265l1.486145 0.20349884l-0.20343018 1.4861374q0.7147217 -0.9587631 1.2391357 -1.2181396q0.5265503 -0.2748642 1.1148071 -0.19430542q0.8359375 0.114471436 1.6286621 0.7750015l-0.7825928 1.4541473q-0.5549927 -0.43872833 -1.1741943 -0.5235214q-0.5418091 -0.07419586 -1.0197754 0.19154358q-0.4625244 0.26785278 -0.7266846 0.8152008q-0.39941406 0.8442383 -0.5435791 1.8969193l-0.6993408 5.1086044l-1.6564331 -0.2268219zm12.564209 1.7204742l0.19708252 -1.4396973q-1.3568726 1.5016785 -3.322876 1.23246q-0.8514404 -0.11659241 -1.5654907 -0.5455551q-0.69641113 -0.4423294 -1.0001221 -0.9885788q-0.28826904 -0.54413605 -0.34344482 -1.292923q-0.02508545 -0.5081024 0.119018555 -1.5607834l0.8286743 -6.0529175l1.6564331 0.2268219l-0.74176025 5.418213q-0.17803955 1.3003693 -0.14660645 1.7620239q0.0657959 0.6713867 0.52575684 1.1128769q0.46002197 0.44149017 1.203064 0.5432358q0.743103 0.101753235 1.4441528 -0.18074799q0.703125 -0.29798126 1.0552979 -0.91213226q0.369812 -0.6275101 0.5414429 -1.8814392l0.7163696 -5.232445l1.6563721 0.2268219l-1.3372192 9.768265l-1.486145 -0.20349884zm3.8862915 0.53217316l1.3372803 -9.768265l1.486145 0.20349884l-0.19073486 1.3932571q1.3040161 -1.4615936 3.3319702 -1.1838989q0.88238525 0.12082672 1.5809937 0.5476761q0.7006836 0.4113617 0.9846802 0.9864578q0.3015747 0.56173706 0.36102295 1.2795639q0.029296875 0.4771347 -0.12756348 1.6227036l-0.8222656 6.0064697l-1.6564331 -0.2268219l0.8138428 -5.9445496q0.13775635 -1.0062408 0.004333496 -1.5291748q-0.11584473 -0.53630066 -0.5709839 -0.898262q-0.45507812 -0.361969 -1.1207275 -0.453125q-1.0526733 -0.14414215 -1.9178467 0.41552734q-0.8496704 0.5617981 -1.1082153 2.4504318l-0.72906494 5.325325l-1.6564331 -0.22681427zm21.958496 1.7767487q-1.0369263 0.662323 -1.9328613 0.8708267q-0.89385986 0.19302368 -1.8690796 0.05947113q-1.5945435 -0.21833801 -2.3554688 -1.111084q-0.7588501 -0.9082184 -0.5913696 -2.1311874q0.09954834 -0.72758484 0.505188 -1.2713318q0.40563965 -0.54374695 0.9807129 -0.8277283q0.57507324 -0.28398132 1.2661743 -0.37859344q0.51446533 -0.071495056 1.5045776 -0.046310425q2.0463867 0.027885437 3.0352173 -0.16789246q0.046569824 -0.34057617 0.059326172 -0.43345642q0.13775635 -1.0062408 -0.2694702 -1.4878159q-0.55841064 -0.6442108 -1.8123169 -0.81591797q-1.1610107 -0.15898895 -1.7734375 0.16719818q-0.61242676 0.3261795 -1.0197144 1.3428192l-1.5936279 -0.4547882q0.37420654 -1.0054016 0.95648193 -1.5722733q0.5977173 -0.5647507 1.5886841 -0.77601624q1.0085449 -0.22462463 2.277893 -0.05079651q1.2539673 0.17170715 1.9877319 0.57183075q0.73376465 0.4001236 1.0438232 0.89993286q0.3100586 0.4998169 0.35614014 1.2000427q0.03564453 0.43069458 -0.11480713 1.5298157l-0.30303955 2.2137222q-0.3157959 2.3066177 -0.30767822 2.9385605q0.0256958 0.61857605 0.2744751 1.220398l-1.7337646 -0.23741913q-0.1932373 -0.5468979 -0.15979004 -1.2520065zm0.36505127 -3.7034607q-0.94659424 0.23310089 -2.7938843 0.24825287q-1.0407715 -5.79834E-4 -1.4841919 0.12795258q-0.4434204 0.12853241 -0.72436523 0.4527893q-0.28094482 0.3242569 -0.340271 0.7577133q-0.09112549 0.6656647 0.34277344 1.1824341q0.4515381 0.50341034 1.4113159 0.6348419q0.95977783 0.13143158 1.7600708 -0.1847992q0.8024292 -0.3317032 1.2559814 -0.99505615q0.34155273 -0.53674316 0.4899292 -1.6203842l0.0826416 -0.6037445zm3.104187 2.4437332l1.6769409 -0.038467407q0.0037231445 1.0098419 0.5509033 1.6209717q0.5647583 0.5977707 1.6948242 0.7525177q1.1455688 0.15686798 1.7509766 -0.23335266q0.6208496 -0.3881073 0.70562744 -1.0073318q0.076293945 -0.5573044 -0.35906982 -0.94810486q-0.3109131 -0.2633667 -1.611084 -0.7883682q-1.7631226 -0.71455383 -2.430725 -1.1371613q-0.6500244 -0.4359665 -0.94104004 -1.0751038q-0.27337646 -0.65249634 -0.17590332 -1.3646088q0.08898926 -0.65018463 0.45941162 -1.1672058q0.3859253 -0.51490784 0.94763184 -0.8164902q0.4251709 -0.2256546 1.1184082 -0.33574677q0.69317627 -0.11009979 1.4517212 -0.006225586q1.1610718 0.15898895 1.9813843 0.6182709q0.8223877 0.44380188 1.1464844 1.071701q0.3416748 0.6145325 0.3671875 1.5800476l-1.6396484 -0.003730774q-0.006652832 -0.75790405 -0.49121094 -1.2500763q-0.46704102 -0.5055313 -1.4268188 -0.6369629q-1.1455688 -0.15686798 -1.6784668 0.16443634q-0.5307617 0.30581665 -0.5985718 0.80120087q-0.04449463 0.3250885 0.12072754 0.6158142q0.16522217 0.29073334 0.5753784 0.5203705q0.23498535 0.12680054 1.395813 0.63272095q1.68573 0.70396423 2.342102 1.093483q0.65631104 0.38952637 0.9649658 1.0153046q0.32403564 0.62789917 0.20751953 1.479332q-0.11236572 0.8204727 -0.6939697 1.4978256q-0.5795288 0.66187286 -1.5479736 0.93930054q-0.9663086 0.26194763 -2.1118774 0.10507965q-1.9041138 -0.2607422 -2.802246 -1.1880417q-0.8826904 -0.9251785 -0.94940186 -2.5113983zm14.377258 1.96875l1.6769409 -0.038467407q0.0037231445 1.0098343 0.5509033 1.6209717q0.5647583 0.5977707 1.6948242 0.7525177q1.1455688 0.15686798 1.7509766 -0.23336029q0.6208496 -0.38809967 0.70562744 -1.0073242q0.076293945 -0.5573044 -0.35906982 -0.9481125q-0.3109131 -0.26335907 -1.611084 -0.7883606q-1.7631226 -0.71456146 -2.430725 -1.1371613q-0.6500244 -0.4359665 -0.94104004 -1.0751038q-0.27337646 -0.65250397 -0.17590332 -1.3646088q0.08898926 -0.65018463 0.45947266 -1.1672134q0.38586426 -0.5149002 0.9475708 -0.81648254q0.4251709 -0.2256546 1.1184082 -0.3357544q0.69317627 -0.11009216 1.4517822 -0.0062179565q1.1610107 0.15898132 1.9813232 0.61826324q0.8223877 0.4438095 1.1464844 1.071701q0.3416748 0.6145401 0.3671875 1.5800552l-1.6396484 -0.003730774q-0.006652832 -0.7579117 -0.49121094 -1.2500763q-0.46704102 -0.5055313 -1.4268188 -0.6369629q-1.1455688 -0.15686798 -1.6784668 0.16443634q-0.5307617 0.30581665 -0.5985718 0.80119324q-0.04449463 0.32509613 0.12072754 0.61582184q0.16522217 0.29073334 0.5753784 0.5203705q0.23498535 0.12680054 1.395813 0.63272095q1.68573 0.7039566 2.342102 1.093483q0.6563721 0.38952637 0.9649658 1.0153046q0.32403564 0.62789154 0.20751953 1.4793243q-0.11236572 0.8204727 -0.6939697 1.4978333q-0.5795288 0.66187286 -1.5479736 0.93930054q-0.9663086 0.26194 -2.1118774 0.10507202q-1.9041138 -0.26073456 -2.802246 -1.188034q-0.8826904 -0.9251785 -0.94940186 -2.5113983zm8.916748 8.018227l0.041625977 -1.571373q0.5227661 0.21351624 0.92523193 0.26863098q0.5418091 0.07419586 0.892334 -0.06705475q0.36602783 -0.13912964 0.6272583 -0.43454742q0.1887207 -0.22649384 0.664917 -1.1706161q0.06549072 -0.13296509 0.2098999 -0.38129425l-2.3604736 -10.290382l1.7802734 0.24378204l1.2523193 5.943596q0.2562256 1.1232758 0.40264893 2.3576813q0.43548584 -1.1074066 0.9863281 -2.135933l2.854309 -5.4128113l1.6564331 0.2268219l-5.0759277 9.429794q-0.8086548 1.5294266 -1.2319336 2.0865402q-0.54577637 0.7611084 -1.1693726 1.0542145q-0.62579346 0.3085785 -1.4152832 0.20046997q-0.47991943 -0.065719604 -1.0405884 -0.34751892zm9.567017 -5.487152l1.6769409 -0.038475037q0.0037231445 1.0098419 0.5509033 1.6209717q0.5647583 0.5977783 1.6948242 0.7525253q1.1455688 0.15686035 1.7509766 -0.23336029q0.6208496 -0.3881073 0.70562744 -1.0073318q0.076293945 -0.55729675 -0.35913086 -0.94810486q-0.31085205 -0.2633667 -1.611084 -0.7883682q-1.7631226 -0.71455383 -2.430664 -1.1371613q-0.6500244 -0.4359665 -0.94104004 -1.0751038q-0.27337646 -0.65249634 -0.17590332 -1.3646088q0.08898926 -0.65018463 0.45941162 -1.1672058q0.3859253 -0.51490784 0.94763184 -0.8164902q0.4251709 -0.2256546 1.1184082 -0.33574677q0.69317627 -0.11009979 1.4517212 -0.006225586q1.1610718 0.15898895 1.9813232 0.6182709q0.82244873 0.44380188 1.1464844 1.071701q0.34173584 0.6145401 0.36724854 1.5800552l-1.6396484 -0.0037384033q-0.006652832 -0.75790405 -0.49127197 -1.2500763q-0.46697998 -0.5055313 -1.4267578 -0.6369629q-1.1455688 -0.15686798 -1.6784668 0.16443634q-0.5307617 0.30581665 -0.5985718 0.80120087q-0.04449463 0.3250885 0.12072754 0.61582184q0.16522217 0.2907257 0.5753784 0.5203705q0.23498535 0.12680054 1.395813 0.63272095q1.68573 0.7039566 2.342102 1.0934753q0.65631104 0.38952637 0.9649658 1.0153046q0.32403564 0.62789917 0.20751953 1.479332q-0.11236572 0.8204727 -0.6939697 1.4978256q-0.5795288 0.66187286 -1.5479736 0.93930054q-0.9663086 0.26194763 -2.1118774 0.10507965q-1.9041138 -0.2607422 -2.802246 -1.1880417q-0.8826904 -0.9251785 -0.94940186 -2.5113907zm13.335022 3.2769394l0.030883789 1.502449q-0.71569824 0.043945312 -1.2730103 -0.03237915q-0.8978882 -0.12294006 -1.3551025 -0.46942902q-0.45513916 -0.361969 -0.59490967 -0.8384628q-0.13763428 -0.49197388 0.06793213 -1.9935913l0.7671509 -5.603981l-1.2229614 -0.16746521l0.17803955 -1.3003769l1.2229614 0.16746521l0.33062744 -2.4149704l1.7765503 -0.7660599l-0.46624756 3.4057312l1.671875 0.22894287l-0.17797852 1.3003693l-1.671936 -0.22893524l-0.7799072 5.6968613q-0.097473145 0.7121048 -0.047607422 0.9239578q0.06530762 0.21396637 0.24963379 0.36536407q0.18426514 0.15140533 0.55578613 0.20227814q0.2631836 0.03604126 0.7382202 0.022232056zm8.427307 -0.5334854l1.6731567 0.4499054q-0.60595703 1.4310303 -1.819519 2.1164703q-1.1959229 0.6720886 -2.8988037 0.4389038q-2.1362915 -0.2925415 -3.210083 -1.7800903q-1.0737915 -1.4875641 -0.7474365 -3.8715744q0.3369751 -2.4614182 1.7774048 -3.652008q1.4558716 -1.1884613 3.4838257 -0.9107666q1.9660645 0.26921844 3.0222168 1.770134q1.0562134 1.5009232 0.7234497 3.9313736q-0.019042969 0.139328 -0.0748291 0.43133545l-7.275818 -0.996315q-0.12750244 1.6227036 0.576355 2.5864868q0.70391846 0.96378326 1.9268799 1.1312561q0.8978882 0.12294006 1.5961914 -0.25456238q0.71588135 -0.39086914 1.2470093 -1.3905487zm-5.0670776 -3.422203l5.4491577 0.7461777q0.05908203 -1.2378082 -0.3670044 -1.9269867q-0.6581421 -1.0679092 -1.9275513 -1.2417374q-1.1300659 -0.15474701 -2.0255127 0.51117706q-0.87786865 0.6525574 -1.1290894 1.9113693zm8.229004 7.0566635l1.3372803 -9.768265l1.486145 0.20349884l-0.18859863 1.3777771q0.5463867 -0.65063477 1.3643188 -0.980217q0.8354492 -0.3429489 1.81073 -0.20939636q1.0836182 0.1483841 1.718811 0.6927109q0.63513184 0.5443344 0.8015137 1.4029617q1.3962402 -1.5593567 3.2539062 -1.3049774q1.4552002 0.1992569 2.1190186 1.1102448q0.6793213 0.9131012 0.45043945 2.5850067l-0.9176636 6.7031097l-1.6564331 -0.2268219l0.8413696 -6.1458054q0.13562012 -0.9907608 0.040161133 -1.4454193q-0.093322754 -0.47013092 -0.4907837 -0.79265594q-0.381958 -0.32041168 -0.9547119 -0.39884186q-1.0217285 -0.13990784 -1.7961426 0.44796753q-0.774353 0.58787537 -0.98205566 2.1049728l-0.77563477 5.665909l-1.6564331 -0.2268219l0.8688965 -6.3470535q0.15045166 -1.0991211 -0.17785645 -1.6960602q-0.32617188 -0.6124191 -1.2550049 -0.73960876q-0.6966553 -0.09539032 -1.3512573 0.19347382q-0.6369629 0.27549744 -0.9976196 0.9515686q-0.36065674 0.67607117 -0.54296875 2.0074005l-0.69299316 5.0621643l-1.6564331 -0.2268219zm21.728699 2.9754028l0.16949463 -1.2384491q-1.1279907 1.3279877 -2.923767 1.0820923q-1.1610107 -0.15898132 -2.0648804 -0.92936707q-0.8862915 -0.7837219 -1.2713013 -2.003479q-0.3673706 -1.2331238 -0.1618042 -2.7347488q0.19921875 -1.4551773 0.84228516 -2.5814667q0.65856934 -1.124176 1.7052612 -1.627449q1.0621948 -0.50115204 2.2696533 -0.3358078q0.88238525 0.12082672 1.5126953 0.5856323q0.64575195 0.46692657 0.996521 1.1300278l0.6612549 -4.8299484l1.6409302 0.22470093l-1.843811 13.468132l-1.5325317 -0.20986938zm-4.5648804 -5.592888q-0.2564087 1.873146 0.40594482 2.9101028q0.6777954 1.0390625 1.7459717 1.1853333q1.0836182 0.14839172 1.9630127 -0.6301422q0.8793335 -0.7785187 1.1293945 -2.6052246q0.27337646 -1.9970016 -0.37347412 -3.0318298q-0.6447754 -1.0503082 -1.7748413 -1.2050552q-1.0991211 -0.15050507 -1.9650879 0.6456146q-0.8659668 0.7961273 -1.1309204 2.7312012zm13.381226 3.8352432l1.677002 -0.038467407q0.0036621094 1.0098419 0.5508423 1.6209717q0.5647583 0.5977783 1.6948242 0.7525177q1.1455688 0.15687561 1.7509766 -0.23335266q0.6208496 -0.3881073 0.70562744 -1.0073242q0.076293945 -0.55729675 -0.35906982 -0.94810486q-0.3109131 -0.2633667 -1.611084 -0.78837585q-1.7631226 -0.71455383 -2.430725 -1.1371613q-0.6500244 -0.43595886 -0.940979 -1.0751038q-0.2734375 -0.65249634 -0.17596436 -1.3646011q0.08905029 -0.65018463 0.45947266 -1.1672134q0.3859253 -0.51490784 0.94763184 -0.81648254q0.4251709 -0.2256546 1.1183472 -0.3357544q0.6932373 -0.11009216 1.4517822 -0.006225586q1.1610107 0.15898895 1.9813232 0.6182709q0.8223877 0.44380188 1.1464844 1.071701q0.3416748 0.6145401 0.3671875 1.5800476l-1.6396484 -0.0037231445q-0.006591797 -0.7579117 -0.49121094 -1.2500839q-0.46697998 -0.5055313 -1.4268188 -0.63695526q-1.1455078 -0.15686798 -1.6784058 0.16442871q-0.5307617 0.30582428 -0.5985718 0.80120087q-0.04449463 0.32509613 0.12072754 0.61582184q0.16516113 0.2907257 0.5753174 0.5203705q0.23498535 0.12680054 1.395874 0.63272095q1.685669 0.70396423 2.342041 1.0934753q0.6563721 0.38952637 0.9649658 1.0153046q0.32409668 0.62789917 0.20751953 1.4793396q-0.11230469 0.8204651 -0.6939697 1.497818q-0.5794678 0.6618805 -1.5479126 0.93930054q-0.9663696 0.26194763 -2.1119385 0.10508728q-1.9040527 -0.2607422 -2.802246 -1.1880493q-0.8826294 -0.9251709 -0.94940186 -2.5113983zm16.626953 2.0402527l1.6731567 0.4499054q-0.605896 1.4310303 -1.819458 2.1164703q-1.1959839 0.6720886 -2.8988647 0.4389038q-2.1362915 -0.2925415 -3.210083 -1.7800903q-1.0737915 -1.4875641 -0.7473755 -3.871582q0.33691406 -2.4614105 1.7773438 -3.6520004q1.4559326 -1.1884613 3.4838867 -0.9107666q1.9660034 0.26921844 3.0222168 1.770134q1.0561523 1.5009155 0.7234497 3.9313812q-0.019104004 0.13931274 -0.0748291 0.43133545l-7.275879 -0.99632263q-0.12750244 1.6226959 0.576416 2.5864868q0.70391846 0.9637909 1.9268799 1.1312561q0.89782715 0.12294006 1.5961304 -0.25456238q0.71588135 -0.39086914 1.2470093 -1.3905487zm-5.0670166 -3.4222107l5.4491577 0.7461853q0.059020996 -1.2378082 -0.36706543 -1.9269867q-0.65808105 -1.0679092 -1.9274902 -1.2417374q-1.1300659 -0.15474701 -2.0255737 0.51117706q-0.87786865 0.6525574 -1.1290283 1.9113617zm8.213501 7.05455l1.3372803 -9.768265l1.486145 0.20349884l-0.20349121 1.4861374q0.7147827 -0.9587631 1.2391968 -1.2181396q0.5265503 -0.27485657 1.1148071 -0.19430542q0.8359375 0.114471436 1.6286621 0.7749939l-0.7825928 1.4541473q-0.5549927 -0.4387207 -1.1741943 -0.5235138q-0.5418091 -0.07418823 -1.0197754 0.19154358q-0.4625244 0.26785278 -0.7266846 0.8152008q-0.3994751 0.8442383 -0.5435791 1.8969269l-0.6993408 5.108597l-1.6564331 -0.2268219zm8.879822 1.2159576l-2.3780518 -10.277023l1.7492676 0.23953247l1.3042603 6.139969q0.21130371 0.99095154 0.35009766 2.050827q0.32269287 -0.74435425 0.87353516 -1.7728729l2.9832153 -5.663254l1.7028198 0.23316956l-5.0371094 9.261627l-1.5480347 -0.2119751zm8.133484 -10.682816l0.25854492 -1.8886337l1.6564331 0.2268219l-0.25854492 1.8886337l-1.6564331 -0.2268219zm-1.5852051 11.579498l1.3372803 -9.768265l1.6563721 0.2268219l-1.3372803 9.768265l-1.6563721 -0.2268219zm10.958557 -2.142456l1.5957642 0.4393158q-0.49206543 1.6358643 -1.7225342 2.44516q-1.2283936 0.793808 -2.838379 0.573349q-1.9970093 -0.27346802 -3.0419312 -1.7413025q-1.0273438 -1.4811859 -0.6925049 -3.927124q0.21618652 -1.5790253 0.8880615 -2.6855927q0.6895752 -1.1199341 1.8382568 -1.5619354q1.1662598 -0.45535278 2.420166 -0.28364563q1.5945435 0.21833801 2.4905396 1.1611176q0.8960571 0.94277954 0.98669434 2.4691925l-1.6438599 0.027236938q-0.09655762 -1.0225677 -0.6170044 -1.5984955q-0.5204468 -0.57592773 -1.3409424 -0.6882782q-1.2539062 -0.17170715 -2.1663208 0.61805725q-0.89697266 0.7918854 -1.1618652 2.7269592q-0.26916504 1.9660339 0.36645508 2.9677887q0.63775635 0.98625183 1.8452759 1.1516113q0.9752197 0.13354492 1.7059937 -0.36569214q0.7327881 -0.5147095 1.0881348 -1.7277222zm9.492126 1.741394l1.6732178 0.4499054q-0.60595703 1.4310303 -1.819519 2.1164703q-1.1959839 0.6720886 -2.8988037 0.4389038q-2.1363525 -0.2925415 -3.210144 -1.7800903q-1.0737915 -1.4875641 -0.7473755 -3.8715668q0.3369751 -2.4614258 1.7774048 -3.652008q1.4558716 -1.1884766 3.4838257 -0.9107666q1.9660034 0.26921082 3.0222168 1.7701263q1.0561523 1.5009155 0.7234497 3.9313812q-0.019104004 0.139328 -0.0748291 0.43133545l-7.275818 -0.99632263q-0.12756348 1.6227112 0.576355 2.5864868q0.70391846 0.9637909 1.9268799 1.1312561q0.8978882 0.12294006 1.5961304 -0.25456238q0.71588135 -0.39086914 1.2470093 -1.3905487zm-5.0670166 -3.4222107l5.4491577 0.7461853q0.059020996 -1.2378082 -0.36706543 -1.9269867q-0.65808105 -1.0679016 -1.9274902 -1.2417297q-1.1300659 -0.15475464 -2.0255737 0.51116943q-0.87786865 0.6525574 -1.1290283 1.9113617zm7.961792 4.0551605l1.6769409 -0.038467407q0.0036621094 1.0098419 0.5508423 1.6209717q0.5647583 0.5977783 1.6948242 0.7525177q1.1455688 0.15687561 1.7509766 -0.23335266q0.62091064 -0.3881073 0.7056885 -1.0073242q0.076293945 -0.557312 -0.35913086 -0.9481201q-0.3109131 -0.2633667 -1.611084 -0.7883606q-1.7631226 -0.71455383 -2.430725 -1.1371613q-0.6499634 -0.43595886 -0.940979 -1.0751038q-0.2734375 -0.65249634 -0.17590332 -1.3646088q0.08898926 -0.650177 0.45941162 -1.1672058q0.3859253 -0.51490784 0.94763184 -0.81648254q0.4251709 -0.22566223 1.1183472 -0.3357544q0.6932373 -0.11009216 1.4517822 -0.006225586q1.1610718 0.15898132 1.9813232 0.6182709q0.8223877 0.44380188 1.1464844 1.071701q0.3416748 0.6145325 0.3671875 1.5800476l-1.6396484 -0.0037231445q-0.006591797 -0.7579193 -0.49121094 -1.2500916q-0.46697998 -0.5055237 -1.4267578 -0.63694763q-1.1455688 -0.15687561 -1.6784668 0.16442871q-0.5307617 0.30581665 -0.5985718 0.80119324q-0.04449463 0.32510376 0.12072754 0.61582947q0.16522217 0.2907257 0.5753174 0.5203705q0.23498535 0.12680054 1.395874 0.63272095q1.68573 0.703949 2.342041 1.0934753q0.6563721 0.38952637 0.9649658 1.0153046q0.32409668 0.62789917 0.20751953 1.4793243q-0.11230469 0.82048035 -0.6939087 1.4978333q-0.5795288 0.6618805 -1.5479736 0.93930054q-0.9663696 0.26194763 -2.1118774 0.10507202q-1.9041138 -0.26072693 -2.8023071 -1.188034q-0.8826294 -0.9251709 -0.9493408 -2.5113983z" fill-rule="nonzero"></path><path fill="#cfe2f3" d="m19.343832 215.59349l0 0c0 -8.500427 6.890957 -15.391388 15.391382 -15.391388l176.77629 0c4.0820465 0 7.9969025 1.621582 10.883347 4.508026c2.886444 2.886444 4.5080414 6.8013 4.5080414 10.883362l0 61.563675c0 8.500427 -6.8909607 15.391388 -15.391388 15.391388l-176.77629 0l0 0c-8.500425 0 -15.391382 -6.8909607 -15.391382 -15.391388z" fill-rule="evenodd"></path><path stroke="#000000" stroke-width="1.0" stroke-linejoin="round" stroke-linecap="butt" d="m19.343832 215.59349l0 0c0 -8.500427 6.890957 -15.391388 15.391382 -15.391388l176.77629 0c4.0820465 0 7.9969025 1.621582 10.883347 4.508026c2.886444 2.886444 4.5080414 6.8013 4.5080414 10.883362l0 61.563675c0 8.500427 -6.8909607 15.391388 -15.391388 15.391388l-176.77629 0l0 0c-8.500425 0 -15.391382 -6.8909607 -15.391382 -15.391388z" fill-rule="evenodd"></path><path fill="#000000" fill-opacity="0.0" d="m20.10761 207.83202l203.74803 0l0 84.69292l-203.74803 0z" fill-rule="evenodd"></path><path fill="#000000" d="m93.167694 257.09848l0 -13.59375l1.671875 0l0 7.75l3.953125 -4.015625l2.15625 0l-3.765625 3.65625l4.140625 6.203125l-2.0625 0l-3.25 -5.03125l-1.171875 1.125l0 3.90625l-1.671875 0zm15.765625 0l0 -1.453125q-1.140625 1.671875 -3.125 1.671875q-0.859375 0 -1.625 -0.328125q-0.75 -0.34375 -1.125 -0.84375q-0.359375 -0.5 -0.515625 -1.234375q-0.09375 -0.5 -0.09375 -1.5625l0 -6.109375l1.671875 0l0 5.46875q0 1.3125 0.09375 1.765625q0.15625 0.65625 0.671875 1.03125q0.515625 0.375 1.265625 0.375q0.75 0 1.40625 -0.375q0.65625 -0.390625 0.921875 -1.046875q0.28125 -0.671875 0.28125 -1.9375l0 -5.28125l1.671875 0l0 9.859375l-1.5 0zm5.469467 0l-1.546875 0l0 -13.59375l1.65625 0l0 4.84375q1.0625 -1.328125 2.703125 -1.328125q0.90625 0 1.71875 0.375q0.8125 0.359375 1.328125 1.03125q0.53125 0.65625 0.828125 1.59375q0.296875 0.9375 0.296875 2.0q0 2.53125 -1.25 3.921875q-1.25 1.375 -3.0 1.375q-1.75 0 -2.734375 -1.453125l0 1.234375zm-0.015625 -5.0q0 1.765625 0.46875 2.5625q0.796875 1.28125 2.140625 1.28125q1.09375 0 1.890625 -0.9375q0.796875 -0.953125 0.796875 -2.84375q0 -1.921875 -0.765625 -2.84375q-0.765625 -0.921875 -1.84375 -0.921875q-1.09375 0 -1.890625 0.953125q-0.796875 0.953125 -0.796875 2.75zm15.594467 1.828125l1.71875 0.21875q-0.40625 1.5 -1.515625 2.34375q-1.09375 0.828125 -2.8125 0.828125q-2.15625 0 -3.421875 -1.328125q-1.265625 -1.328125 -1.265625 -3.734375q0 -2.484375 1.265625 -3.859375q1.28125 -1.375 3.328125 -1.375q1.984375 0 3.234375 1.34375q1.25 1.34375 1.25 3.796875q0 0.140625 -0.015625 0.4375l-7.34375 0q0.09375 1.625 0.921875 2.484375q0.828125 0.859375 2.0625 0.859375q0.90625 0 1.546875 -0.46875q0.65625 -0.484375 1.046875 -1.546875zm-5.484375 -2.703125l5.5 0q-0.109375 -1.234375 -0.625 -1.859375q-0.796875 -0.96875 -2.078125 -0.96875q-1.140625 0 -1.9375 0.78125q-0.78125 0.765625 -0.859375 2.046875zm9.078842 5.875l0 -13.59375l1.671875 0l0 13.59375l-1.671875 0zm10.926071 -3.171875l1.71875 0.21875q-0.40625 1.5 -1.515625 2.34375q-1.09375 0.828125 -2.8125 0.828125q-2.15625 0 -3.421875 -1.328125q-1.265625 -1.328125 -1.265625 -3.734375q0 -2.484375 1.265625 -3.859375q1.28125 -1.375 3.328125 -1.375q1.984375 0 3.234375 1.34375q1.25 1.34375 1.25 3.796875q0 0.140625 -0.015625 0.4375l-7.34375 0q0.09375 1.625 0.921875 2.484375q0.828125 0.859375 2.0625 0.859375q0.90625 0 1.546875 -0.46875q0.65625 -0.484375 1.046875 -1.546875zm-5.484375 -2.703125l5.5 0q-0.109375 -1.234375 -0.625 -1.859375q-0.796875 -0.96875 -2.078125 -0.96875q-1.140625 0 -1.9375 0.78125q-0.78125 0.765625 -0.859375 2.046875zm12.766327 4.375l0.234375 1.484375q-0.703125 0.140625 -1.265625 0.140625q-0.90625 0 -1.40625 -0.28125q-0.5 -0.296875 -0.703125 -0.75q-0.203125 -0.46875 -0.203125 -1.984375l0 -5.65625l-1.2343597 0l0 -1.3125l1.2343597 0l0 -2.4375l1.65625 -1.0l0 3.4375l1.6875 0l0 1.3125l-1.6875 0l0 5.75q0 0.71875 0.078125 0.921875q0.09375 0.203125 0.296875 0.328125q0.203125 0.125 0.578125 0.125q0.265625 0 0.734375 -0.078125z" fill-rule="nonzero"></path><path fill="#ffe599" d="m321.6483 212.28114l0 0c0 -8.500427 6.8909607 -15.391373 15.391388 -15.391373l176.7763 0c4.0820312 0 7.996887 1.621582 10.883362 4.508026c2.8864136 2.886444 4.5079956 6.8013 4.5079956 10.883347l0 61.563705c0 8.500427 -6.89093 15.391357 -15.391357 15.391357l-176.7763 0l0 0c-8.500427 0 -15.391388 -6.89093 -15.391388 -15.391357z" fill-rule="evenodd"></path><path stroke="#000000" stroke-width="1.0" stroke-linejoin="round" stroke-linecap="butt" d="m321.6483 212.28114l0 0c0 -8.500427 6.8909607 -15.391373 15.391388 -15.391373l176.7763 0c4.0820312 0 7.996887 1.621582 10.883362 4.508026c2.8864136 2.886444 4.5079956 6.8013 4.5079956 10.883347l0 61.563705c0 8.500427 -6.89093 15.391357 -15.391357 15.391357l-176.7763 0l0 0c-8.500427 0 -15.391388 -6.89093 -15.391388 -15.391357z" fill-rule="evenodd"></path><path fill="#000000" fill-opacity="0.0" d="m322.41208 204.51968l203.74802 0l0 84.6929l-203.74802 0z" fill-rule="evenodd"></path><path fill="#000000" d="m405.3065 253.78615l0 -9.859375l1.5 0l0 1.5q0.578125 -1.046875 1.0625 -1.375q0.484375 -0.34375 1.078125 -0.34375q0.84375 0 1.71875 0.546875l-0.578125 1.546875q-0.609375 -0.359375 -1.234375 -0.359375q-0.546875 0 -0.984375 0.328125q-0.421875 0.328125 -0.609375 0.90625q-0.28125 0.890625 -0.28125 1.953125l0 5.15625l-1.671875 0zm6.243927 0l0 -13.59375l1.671875 0l0 7.75l3.953125 -4.015625l2.15625 0l-3.765625 3.65625l4.140625 6.203125l-2.0625 0l-3.25 -5.03125l-1.171875 1.125l0 3.90625l-1.671875 0zm12.96875 -1.5l0.234375 1.484375q-0.703125 0.140625 -1.265625 0.140625q-0.90625 0 -1.40625 -0.28125q-0.5 -0.296875 -0.703125 -0.75q-0.203125 -0.46875 -0.203125 -1.984375l0 -5.65625l-1.234375 0l0 -1.3125l1.234375 0l0 -2.4375l1.65625 -1.0l0 3.4375l1.6875 0l0 1.3125l-1.6875 0l0 5.75q0 0.71875 0.078125 0.921875q0.09375 0.203125 0.296875 0.328125q0.203125 0.125 0.578125 0.125q0.265625 0 0.734375 -0.078125zm1.4958191 1.5l0 -13.59375l1.671875 0l0 13.59375l-1.671875 0zm10.926056 -3.171875l1.71875 0.21875q-0.40625 1.5 -1.515625 2.34375q-1.09375 0.828125 -2.8125 0.828125q-2.15625 0 -3.421875 -1.328125q-1.265625 -1.328125 -1.265625 -3.734375q0 -2.484375 1.265625 -3.859375q1.28125 -1.375 3.328125 -1.375q1.984375 0 3.234375 1.34375q1.25 1.34375 1.25 3.796875q0 0.140625 -0.015625 0.4375l-7.34375 0q0.09375 1.625 0.921875 2.484375q0.828125 0.859375 2.0625 0.859375q0.90625 0 1.546875 -0.46875q0.65625 -0.484375 1.046875 -1.546875zm-5.484375 -2.703125l5.5 0q-0.109375 -1.234375 -0.625 -1.859375q-0.796875 -0.96875 -2.078125 -0.96875q-1.140625 0 -1.9375 0.78125q-0.78125 0.765625 -0.859375 2.046875zm12.766357 4.375l0.234375 1.484375q-0.703125 0.140625 -1.265625 0.140625q-0.90625 0 -1.40625 -0.28125q-0.5 -0.296875 -0.703125 -0.75q-0.203125 -0.46875 -0.203125 -1.984375l0 -5.65625l-1.234375 0l0 -1.3125l1.234375 0l0 -2.4375l1.65625 -1.0l0 3.4375l1.6875 0l0 1.3125l-1.6875 0l0 5.75q0 0.71875 0.078125 0.921875q0.09375 0.203125 0.296875 0.328125q0.203125 0.125 0.578125 0.125q0.265625 0 0.734375 -0.078125z" fill-rule="nonzero"></path><path fill="#cfe2f3" d="m553.0079 34.572487l0 0c0 -8.500427 6.89093 -15.391384 15.391357 -15.391384l176.7763 0c4.0820312 0 7.996887 1.6215878 10.883362 4.508032c2.8864136 2.886444 4.5080566 6.801302 4.5080566 10.883352l0 61.56369c0 8.500427 -6.890991 15.39138 -15.391418 15.39138l-176.7763 0l0 0c-8.500427 0 -15.391357 -6.890953 -15.391357 -15.39138z" fill-rule="evenodd"></path><path stroke="#000000" stroke-width="1.0" stroke-linejoin="round" stroke-linecap="butt" d="m553.0079 34.572487l0 0c0 -8.500427 6.89093 -15.391384 15.391357 -15.391384l176.7763 0c4.0820312 0 7.996887 1.6215878 10.883362 4.508032c2.8864136 2.886444 4.5080566 6.801302 4.5080566 10.883352l0 61.56369c0 8.500427 -6.890991 15.39138 -15.391418 15.39138l-176.7763 0l0 0c-8.500427 0 -15.391357 -6.890953 -15.391357 -15.39138z" fill-rule="evenodd"></path><path fill="#000000" fill-opacity="0.0" d="m553.77167 26.811024l203.74805 0l0 84.69292l-203.74805 0z" fill-rule="evenodd"></path><path fill="#000000" d="m621.49384 73.13998l1.65625 -0.265625q0.140625 1.0 0.765625 1.53125q0.640625 0.515625 1.78125 0.515625q1.15625 0 1.703125 -0.46875q0.5625 -0.46875 0.5625 -1.09375q0 -0.5625 -0.484375 -0.890625q-0.34375 -0.21875 -1.703125 -0.5625q-1.84375 -0.46875 -2.5625 -0.796875q-0.703125 -0.34375 -1.078125 -0.9375q-0.359375 -0.609375 -0.359375 -1.328125q0 -0.65625 0.296875 -1.21875q0.3125 -0.5625 0.828125 -0.9375q0.390625 -0.28125 1.0625 -0.484375q0.671875 -0.203125 1.4375 -0.203125q1.171875 0 2.046875 0.34375q0.875 0.328125 1.28125 0.90625q0.421875 0.5625 0.578125 1.515625l-1.625 0.21875q-0.109375 -0.75 -0.65625 -1.171875q-0.53125 -0.4375 -1.5 -0.4375q-1.15625 0 -1.640625 0.390625q-0.484375 0.375 -0.484375 0.875q0 0.328125 0.203125 0.59375q0.203125 0.265625 0.640625 0.4375q0.25 0.09375 1.46875 0.4375q1.765625 0.46875 2.46875 0.765625q0.703125 0.296875 1.09375 0.875q0.40625 0.578125 0.40625 1.4375q0 0.828125 -0.484375 1.578125q-0.484375 0.734375 -1.40625 1.140625q-0.921875 0.390625 -2.078125 0.390625q-1.921875 0 -2.9375 -0.796875q-1.0 -0.796875 -1.28125 -2.359375zm9.921875 6.734375l-0.171875 -1.5625q0.546875 0.140625 0.953125 0.140625q0.546875 0 0.875 -0.1875q0.34375 -0.1875 0.5625 -0.515625q0.15625 -0.25 0.5 -1.25q0.046875 -0.140625 0.15625 -0.40625l-3.734375 -9.875l1.796875 0l2.046875 5.71875q0.40625 1.078125 0.71875 2.28125q0.28125 -1.15625 0.6875 -2.25l2.09375 -5.75l1.671875 0l-3.75 10.03125q-0.59375 1.625 -0.9375 2.234375q-0.4375 0.828125 -1.015625 1.203125q-0.578125 0.390625 -1.375 0.390625q-0.484375 0 -1.078125 -0.203125zm8.734375 -6.734375l1.65625 -0.265625q0.140625 1.0 0.765625 1.53125q0.640625 0.515625 1.78125 0.515625q1.15625 0 1.703125 -0.46875q0.5625 -0.46875 0.5625 -1.09375q0 -0.5625 -0.484375 -0.890625q-0.34375 -0.21875 -1.703125 -0.5625q-1.84375 -0.46875 -2.5625 -0.796875q-0.703125 -0.34375 -1.078125 -0.9375q-0.359375 -0.609375 -0.359375 -1.328125q0 -0.65625 0.296875 -1.21875q0.3125 -0.5625 0.828125 -0.9375q0.390625 -0.28125 1.0625 -0.484375q0.671875 -0.203125 1.4375 -0.203125q1.171875 0 2.046875 0.34375q0.875 0.328125 1.28125 0.90625q0.421875 0.5625 0.578125 1.515625l-1.625 0.21875q-0.109375 -0.75 -0.65625 -1.171875q-0.53125 -0.4375 -1.5 -0.4375q-1.15625 0 -1.640625 0.390625q-0.484375 0.375 -0.484375 0.875q0 0.328125 0.203125 0.59375q0.203125 0.265625 0.640625 0.4375q0.25 0.09375 1.46875 0.4375q1.765625 0.46875 2.46875 0.765625q0.703125 0.296875 1.09375 0.875q0.40625 0.578125 0.40625 1.4375q0 0.828125 -0.484375 1.578125q-0.484375 0.734375 -1.40625 1.140625q-0.921875 0.390625 -2.078125 0.390625q-1.921875 0 -2.9375 -0.796875q-1.0 -0.796875 -1.28125 -2.359375zm13.65625 1.4375l0.234375 1.484375q-0.703125 0.140625 -1.265625 0.140625q-0.90625 0 -1.40625 -0.28125q-0.5 -0.296875 -0.703125 -0.75q-0.203125 -0.46875 -0.203125 -1.984375l0 -5.65625l-1.234375 0l0 -1.3125l1.234375 0l0 -2.4374962l1.65625 -1.0l0 3.4374962l1.6875 0l0 1.3125l-1.6875 0l0 5.75q0 0.71875 0.078125 0.921875q0.09375 0.203125 0.296875 0.328125q0.203125 0.125 0.578125 0.125q0.265625 0 0.734375 -0.078125zm8.277039 -1.671875l1.71875 0.21875q-0.40625 1.5 -1.515625 2.34375q-1.09375 0.828125 -2.8125 0.828125q-2.15625 0 -3.421875 -1.328125q-1.265625 -1.328125 -1.265625 -3.734375q0 -2.484375 1.265625 -3.859375q1.28125 -1.375 3.328125 -1.375q1.984375 0 3.234375 1.34375q1.25 1.34375 1.25 3.796875q0 0.140625 -0.015625 0.4375l-7.34375 0q0.09375 1.625 0.921875 2.484375q0.828125 0.859375 2.0625 0.859375q0.90625 0 1.546875 -0.46875q0.65625 -0.484375 1.046875 -1.546875zm-5.484375 -2.703125l5.5 0q-0.109375 -1.234375 -0.625 -1.859375q-0.796875 -0.96875 -2.078125 -0.96875q-1.140625 0 -1.9375 0.78125q-0.78125 0.765625 -0.859375 2.046875zm9.110107 5.875l0 -9.859375l1.5 0l0 1.390625q0.453125 -0.71875 1.21875 -1.15625q0.78125 -0.453125 1.765625 -0.453125q1.09375 0 1.796875 0.453125q0.703125 0.453125 0.984375 1.28125q1.171875 -1.734375 3.046875 -1.734375q1.46875 0 2.25 0.8125q0.796875 0.8125 0.796875 2.5l0 6.765625l-1.671875 0l0 -6.203125q0 -1.0 -0.15625 -1.4375q-0.15625 -0.453125 -0.59375 -0.71875q-0.421875 -0.265625 -1.0 -0.265625q-1.03125 0 -1.71875 0.6875q-0.6875 0.6875 -0.6875 2.21875l0 5.71875l-1.671875 0l0 -6.40625q0 -1.109375 -0.40625 -1.65625q-0.40625 -0.5625 -1.34375 -0.5625q-0.703125 0 -1.3125 0.375q-0.59375 0.359375 -0.859375 1.078125q-0.265625 0.71875 -0.265625 2.0625l0 5.109375l-1.671875 0zm21.931458 0l0 -1.25q-0.9375 1.46875 -2.75 1.46875q-1.171875 0 -2.171875 -0.640625q-0.984375 -0.65625 -1.53125 -1.8125q-0.53125 -1.171875 -0.53125 -2.6875q0 -1.46875 0.484375 -2.671875q0.5 -1.203125 1.46875 -1.84375q0.984375 -0.640625 2.203125 -0.640625q0.890625 0 1.578125 0.375q0.703125 0.375 1.140625 0.984375l0 -4.874996l1.65625 0l0 13.593746l-1.546875 0zm-5.28125 -4.921875q0 1.890625 0.796875 2.828125q0.8125 0.9375 1.890625 0.9375q1.09375 0 1.859375 -0.890625q0.765625 -0.890625 0.765625 -2.734375q0 -2.015625 -0.78125 -2.953125q-0.78125 -0.953125 -1.921875 -0.953125q-1.109375 0 -1.859375 0.90625q-0.75 0.90625 -0.75 2.859375z" fill-rule="nonzero"></path><path fill="#e2f2ff" d="m974.1837 271.1929l0 0c0 -55.071915 44.644653 -99.71652 99.71655 -99.71652l0 0c26.446411 0 51.809814 10.505814 70.510254 29.206299c18.70044 18.70047 29.206299 44.063766 29.206299 70.51022l0 0c0 55.07193 -44.644653 99.71655 -99.71655 99.71655l0 0c-55.0719 0 -99.71655 -44.644623 -99.71655 -99.71655z" fill-rule="evenodd"></path><path stroke="#000000" stroke-width="1.0" stroke-linejoin="round" stroke-linecap="butt" d="m974.1837 271.1929l0 0c0 -55.071915 44.644653 -99.71652 99.71655 -99.71652l0 0c26.446411 0 51.809814 10.505814 70.510254 29.206299c18.70044 18.70047 29.206299 44.063766 29.206299 70.51022l0 0c0 55.07193 -44.644653 99.71655 -99.71655 99.71655l0 0c-55.0719 0 -99.71655 -44.644623 -99.71655 -99.71655z" fill-rule="evenodd"></path><path fill="#cfe2f3" d="m998.9554 236.65224l149.88971 0l0 40.40944l-149.88971 0z" fill-rule="evenodd"></path><path stroke="#000000" stroke-width="1.0" stroke-linejoin="round" stroke-linecap="butt" d="m998.9554 236.65224l149.88971 0l0 40.40944l-149.88971 0z" fill-rule="evenodd"></path><path fill="#cfe2f3" d="m998.9554 291.7546l149.88971 0l0 40.409424l-149.88971 0z" fill-rule="evenodd"></path><path stroke="#000000" stroke-width="1.0" stroke-linejoin="round" stroke-linecap="butt" d="m998.9554 291.7546l149.88971 0l0 40.409424l-149.88971 0z" fill-rule="evenodd"></path><path fill="#000000" fill-opacity="0.0" d="m1000.2546 236.65224l149.88983 0l0 40.40944l-149.88983 0z" fill-rule="evenodd"></path><path fill="#000000" d="m1035.6998 260.16757l1.640625 0.21875q-0.265625 1.6875 -1.375 2.65625q-1.109375 0.953125 -2.734375 0.953125q-2.015625 0 -3.25 -1.3125q-1.21875 -1.328125 -1.21875 -3.796875q0 -1.59375 0.515625 -2.78125q0.53125 -1.203125 1.609375 -1.796875q1.09375 -0.609375 2.359375 -0.609375q1.609375 0 2.625 0.8125q1.015625 0.8125 1.3125 2.3125l-1.625 0.25q-0.234375 -1.0 -0.828125 -1.5q-0.59375 -0.5 -1.421875 -0.5q-1.265625 0 -2.0625 0.90625q-0.78125 0.90625 -0.78125 2.859375q0 1.984375 0.765625 2.890625q0.765625 0.890625 1.984375 0.890625q0.984375 0 1.640625 -0.59375q0.65625 -0.609375 0.84375 -1.859375zm2.265625 -1.3125q0 -2.734375 1.53125 -4.0625q1.265625 -1.09375 3.09375 -1.09375q2.03125 0 3.3125 1.34375q1.296875 1.328125 1.296875 3.671875q0 1.90625 -0.578125 3.0q-0.5625 1.078125 -1.65625 1.6875q-1.078125 0.59375 -2.375 0.59375q-2.0625 0 -3.34375 -1.328125q-1.28125 -1.328125 -1.28125 -3.8125zm1.71875 0q0 1.890625 0.828125 2.828125q0.828125 0.9375 2.078125 0.9375q1.25 0 2.0625 -0.9375q0.828125 -0.953125 0.828125 -2.890625q0 -1.828125 -0.828125 -2.765625q-0.828125 -0.9375 -2.0625 -0.9375q-1.25 0 -2.078125 0.9375q-0.828125 0.9375 -0.828125 2.828125zm9.281982 4.921875l0 -9.859375l1.5 0l0 1.40625q1.09375 -1.625 3.140625 -1.625q0.890625 0 1.640625 0.328125q0.75 0.3125 1.109375 0.84375q0.375 0.515625 0.53125 1.21875q0.09375 0.46875 0.09375 1.625l0 6.0625l-1.671875 0l0 -6.0q0 -1.015625 -0.203125 -1.515625q-0.1875 -0.515625 -0.6875 -0.8125q-0.5 -0.296875 -1.171875 -0.296875q-1.0625 0 -1.84375 0.671875q-0.765625 0.671875 -0.765625 2.578125l0 5.375l-1.671875 0zm14.03186 -1.5l0.234375 1.484375q-0.703125 0.140625 -1.265625 0.140625q-0.90625 0 -1.40625 -0.28125q-0.5 -0.296875 -0.703125 -0.75q-0.203125 -0.46875 -0.203125 -1.984375l0 -5.65625l-1.234375 0l0 -1.3125l1.234375 0l0 -2.4375l1.65625 -1.0l0 3.4375l1.6875 0l0 1.3125l-1.6875 0l0 5.75q0 0.71875 0.078125 0.921875q0.09375 0.203125 0.296875 0.328125q0.203125 0.125 0.578125 0.125q0.265625 0 0.734375 -0.078125zm7.9645996 0.28125q-0.9375 0.796875 -1.796875 1.125q-0.859375 0.3125 -1.84375 0.3125q-1.609375 0 -2.484375 -0.78125q-0.875 -0.796875 -0.875 -2.03125q0 -0.734375 0.328125 -1.328125q0.328125 -0.59375 0.859375 -0.953125q0.53125 -0.359375 1.203125 -0.546875q0.5 -0.140625 1.484375 -0.25q2.03125 -0.25 2.984375 -0.578125q0 -0.34375 0 -0.4375q0 -1.015625 -0.46875 -1.4375q-0.640625 -0.5625 -1.90625 -0.5625q-1.171875 0 -1.734375 0.40625q-0.5625 0.40625 -0.828125 1.46875l-1.640625 -0.234375q0.234375 -1.046875 0.734375 -1.6875q0.515625 -0.640625 1.46875 -0.984375q0.96875 -0.359375 2.25 -0.359375q1.265625 0 2.046875 0.296875q0.78125 0.296875 1.15625 0.75q0.375 0.453125 0.515625 1.140625q0.09375 0.421875 0.09375 1.53125l0 2.234375q0 2.328125 0.09375 2.953125q0.109375 0.609375 0.4375 1.171875l-1.75 0q-0.265625 -0.515625 -0.328125 -1.21875zm-0.140625 -3.71875q-0.90625 0.359375 -2.734375 0.625q-1.03125 0.140625 -1.453125 0.328125q-0.421875 0.1875 -0.65625 0.546875q-0.234375 0.359375 -0.234375 0.796875q0 0.671875 0.5 1.125q0.515625 0.4375 1.484375 0.4375q0.96875 0 1.71875 -0.421875q0.75 -0.4375 1.109375 -1.15625q0.265625 -0.578125 0.265625 -1.671875l0 -0.609375zm4.0944824 -6.75l0 -1.90625l1.671875 0l0 1.90625l-1.671875 0zm0 11.6875l0 -9.859375l1.671875 0l0 9.859375l-1.671875 0zm4.1291504 0l0 -9.859375l1.5 0l0 1.40625q1.09375 -1.625 3.140625 -1.625q0.890625 0 1.640625 0.328125q0.75 0.3125 1.109375 0.84375q0.375 0.515625 0.53125 1.21875q0.09375 0.46875 0.09375 1.625l0 6.0625l-1.671875 0l0 -6.0q0 -1.015625 -0.203125 -1.515625q-0.1875 -0.515625 -0.6875 -0.8125q-0.5 -0.296875 -1.171875 -0.296875q-1.0625 0 -1.84375 0.671875q-0.765625 0.671875 -0.765625 2.578125l0 5.375l-1.671875 0zm17.125732 -3.171875l1.71875 0.21875q-0.40625 1.5 -1.515625 2.34375q-1.09375 0.828125 -2.8125 0.828125q-2.15625 0 -3.421875 -1.328125q-1.265625 -1.328125 -1.265625 -3.734375q0 -2.484375 1.265625 -3.859375q1.28125 -1.375 3.328125 -1.375q1.984375 0 3.234375 1.34375q1.25 1.34375 1.25 3.796875q0 0.140625 -0.015625 0.4375l-7.34375 0q0.09375 1.625 0.921875 2.484375q0.828125 0.859375 2.0625 0.859375q0.90625 0 1.546875 -0.46875q0.65625 -0.484375 1.046875 -1.546875zm-5.484375 -2.703125l5.5 0q-0.109375 -1.234375 -0.625 -1.859375q-0.796875 -0.96875 -2.078125 -0.96875q-1.140625 0 -1.9375 0.78125q-0.78125 0.765625 -0.859375 2.046875zm9.094482 5.875l0 -9.859375l1.5 0l0 1.5q0.578125 -1.046875 1.0625 -1.375q0.484375 -0.34375 1.078125 -0.34375q0.84375 0 1.71875 0.546875l-0.578125 1.546875q-0.609375 -0.359375 -1.234375 -0.359375q-0.546875 0 -0.984375 0.328125q-0.421875 0.328125 -0.609375 0.90625q-0.28125 0.890625 -0.28125 1.953125l0 5.15625l-1.671875 0zm10.130371 0l5.234375 -13.59375l1.9375 0l5.5625 13.59375l-2.046875 0l-1.59375 -4.125l-5.6875 0l-1.484375 4.125l-1.921875 0zm3.921875 -5.578125l4.609375 0l-1.40625 -3.78125q-0.65625 -1.703125 -0.96875 -2.8125q-0.265625 1.3125 -0.734375 2.59375l-1.5 4.0z" fill-rule="nonzero"></path><path fill="#000000" fill-opacity="0.0" d="m1000.2546 296.6076l149.88983 0l0 35.55905l-149.88983 0z" fill-rule="evenodd"></path><path fill="#000000" d="m1035.6998 317.69775l1.640625 0.21875q-0.265625 1.6875 -1.375 2.65625q-1.109375 0.953125 -2.734375 0.953125q-2.015625 0 -3.25 -1.3125q-1.21875 -1.328125 -1.21875 -3.796875q0 -1.59375 0.515625 -2.78125q0.53125 -1.203125 1.609375 -1.796875q1.09375 -0.609375 2.359375 -0.609375q1.609375 0 2.625 0.8125q1.015625 0.8125 1.3125 2.3125l-1.625 0.25q-0.234375 -1.0 -0.828125 -1.5q-0.59375 -0.5 -1.421875 -0.5q-1.265625 0 -2.0625 0.90625q-0.78125 0.90625 -0.78125 2.859375q0 1.984375 0.765625 2.890625q0.765625 0.890625 1.984375 0.890625q0.984375 0 1.640625 -0.59375q0.65625 -0.609375 0.84375 -1.859375zm2.265625 -1.3125q0 -2.734375 1.53125 -4.0625q1.265625 -1.09375 3.09375 -1.09375q2.03125 0 3.3125 1.34375q1.296875 1.328125 1.296875 3.671875q0 1.90625 -0.578125 3.0q-0.5625 1.078125 -1.65625 1.6875q-1.078125 0.59375 -2.375 0.59375q-2.0625 0 -3.34375 -1.328125q-1.28125 -1.328125 -1.28125 -3.8125zm1.71875 0q0 1.890625 0.828125 2.828125q0.828125 0.9375 2.078125 0.9375q1.25 0 2.0625 -0.9375q0.828125 -0.953125 0.828125 -2.890625q0 -1.828125 -0.828125 -2.765625q-0.828125 -0.9375 -2.0625 -0.9375q-1.25 0 -2.078125 0.9375q-0.828125 0.9375 -0.828125 2.828125zm9.281982 4.921875l0 -9.859375l1.5 0l0 1.40625q1.09375 -1.625 3.140625 -1.625q0.890625 0 1.640625 0.328125q0.75 0.3125 1.109375 0.84375q0.375 0.515625 0.53125 1.21875q0.09375 0.46875 0.09375 1.625l0 6.0625l-1.671875 0l0 -6.0q0 -1.015625 -0.203125 -1.515625q-0.1875 -0.515625 -0.6875 -0.8125q-0.5 -0.296875 -1.171875 -0.296875q-1.0625 0 -1.84375 0.671875q-0.765625 0.671875 -0.765625 2.578125l0 5.375l-1.671875 0zm14.03186 -1.5l0.234375 1.484375q-0.703125 0.140625 -1.265625 0.140625q-0.90625 0 -1.40625 -0.28125q-0.5 -0.296875 -0.703125 -0.75q-0.203125 -0.46875 -0.203125 -1.984375l0 -5.65625l-1.234375 0l0 -1.3125l1.234375 0l0 -2.4375l1.65625 -1.0l0 3.4375l1.6875 0l0 1.3125l-1.6875 0l0 5.75q0 0.71875 0.078125 0.921875q0.09375 0.203125 0.296875 0.328125q0.203125 0.125 0.578125 0.125q0.265625 0 0.734375 -0.078125zm7.9645996 0.28125q-0.9375 0.796875 -1.796875 1.125q-0.859375 0.3125 -1.84375 0.3125q-1.609375 0 -2.484375 -0.78125q-0.875 -0.796875 -0.875 -2.03125q0 -0.734375 0.328125 -1.328125q0.328125 -0.59375 0.859375 -0.953125q0.53125 -0.359375 1.203125 -0.546875q0.5 -0.140625 1.484375 -0.25q2.03125 -0.25 2.984375 -0.578125q0 -0.34375 0 -0.4375q0 -1.015625 -0.46875 -1.4375q-0.640625 -0.5625 -1.90625 -0.5625q-1.171875 0 -1.734375 0.40625q-0.5625 0.40625 -0.828125 1.46875l-1.640625 -0.234375q0.234375 -1.046875 0.734375 -1.6875q0.515625 -0.640625 1.46875 -0.984375q0.96875 -0.359375 2.25 -0.359375q1.265625 0 2.046875 0.296875q0.78125 0.296875 1.15625 0.75q0.375 0.453125 0.515625 1.140625q0.09375 0.421875 0.09375 1.53125l0 2.234375q0 2.328125 0.09375 2.953125q0.109375 0.609375 0.4375 1.171875l-1.75 0q-0.265625 -0.515625 -0.328125 -1.21875zm-0.140625 -3.71875q-0.90625 0.359375 -2.734375 0.625q-1.03125 0.140625 -1.453125 0.328125q-0.421875 0.1875 -0.65625 0.546875q-0.234375 0.359375 -0.234375 0.796875q0 0.671875 0.5 1.125q0.515625 0.4375 1.484375 0.4375q0.96875 0 1.71875 -0.421875q0.75 -0.4375 1.109375 -1.15625q0.265625 -0.578125 0.265625 -1.671875l0 -0.609375zm4.0944824 -6.75l0 -1.90625l1.671875 0l0 1.90625l-1.671875 0zm0 11.6875l0 -9.859375l1.671875 0l0 9.859375l-1.671875 0zm4.1291504 0l0 -9.859375l1.5 0l0 1.40625q1.09375 -1.625 3.140625 -1.625q0.890625 0 1.640625 0.328125q0.75 0.3125 1.109375 0.84375q0.375 0.515625 0.53125 1.21875q0.09375 0.46875 0.09375 1.625l0 6.0625l-1.671875 0l0 -6.0q0 -1.015625 -0.203125 -1.515625q-0.1875 -0.515625 -0.6875 -0.8125q-0.5 -0.296875 -1.171875 -0.296875q-1.0625 0 -1.84375 0.671875q-0.765625 0.671875 -0.765625 2.578125l0 5.375l-1.671875 0zm17.125732 -3.171875l1.71875 0.21875q-0.40625 1.5 -1.515625 2.34375q-1.09375 0.828125 -2.8125 0.828125q-2.15625 0 -3.421875 -1.328125q-1.265625 -1.328125 -1.265625 -3.734375q0 -2.484375 1.265625 -3.859375q1.28125 -1.375 3.328125 -1.375q1.984375 0 3.234375 1.34375q1.25 1.34375 1.25 3.796875q0 0.140625 -0.015625 0.4375l-7.34375 0q0.09375 1.625 0.921875 2.484375q0.828125 0.859375 2.0625 0.859375q0.90625 0 1.546875 -0.46875q0.65625 -0.484375 1.046875 -1.546875zm-5.484375 -2.703125l5.5 0q-0.109375 -1.234375 -0.625 -1.859375q-0.796875 -0.96875 -2.078125 -0.96875q-1.140625 0 -1.9375 0.78125q-0.78125 0.765625 -0.859375 2.046875zm9.094482 5.875l0 -9.859375l1.5 0l0 1.5q0.578125 -1.046875 1.0625 -1.375q0.484375 -0.34375 1.078125 -0.34375q0.84375 0 1.71875 0.546875l-0.578125 1.546875q-0.609375 -0.359375 -1.234375 -0.359375q-0.546875 0 -0.984375 0.328125q-0.421875 0.328125 -0.609375 0.90625q-0.28125 0.890625 -0.28125 1.953125l0 5.15625l-1.671875 0zm11.552246 0l0 -13.59375l5.109375 0q1.546875 0 2.484375 0.40625q0.953125 0.40625 1.484375 1.265625q0.53125 0.859375 0.53125 1.796875q0 0.875 -0.46875 1.65625q-0.46875 0.765625 -1.4375 1.234375q1.234375 0.359375 1.890625 1.234375q0.671875 0.875 0.671875 2.0625q0 0.953125 -0.40625 1.78125q-0.390625 0.8125 -0.984375 1.265625q-0.59375 0.4375 -1.5 0.671875q-0.890625 0.21875 -2.1875 0.21875l-5.1875 0zm1.796875 -7.890625l2.9375 0q1.203125 0 1.71875 -0.15625q0.6875 -0.203125 1.03125 -0.671875q0.359375 -0.46875 0.359375 -1.1875q0 -0.671875 -0.328125 -1.1875q-0.328125 -0.515625 -0.9375 -0.703125q-0.59375 -0.203125 -2.0625 -0.203125l-2.71875 0l0 4.109375zm0 6.28125l3.390625 0q0.875 0 1.21875 -0.0625q0.625 -0.109375 1.046875 -0.359375q0.421875 -0.265625 0.6875 -0.765625q0.265625 -0.5 0.265625 -1.140625q0 -0.765625 -0.390625 -1.328125q-0.390625 -0.5625 -1.078125 -0.78125q-0.6875 -0.234375 -1.984375 -0.234375l-3.15625 0l0 4.671875z" fill-rule="nonzero"></path><path fill="#e2f2ff" d="m742.937 271.1942l0 0c0 -55.071915 44.644592 -99.71652 99.71655 -99.71652l0 0c26.446472 0 51.809753 10.505814 70.51019 29.206299c18.7005 18.70047 29.206299 44.063766 29.206299 70.51022l0 0c0 55.07193 -44.644592 99.71655 -99.71649 99.71655l0 0c-55.07196 0 -99.71655 -44.644623 -99.71655 -99.71655z" fill-rule="evenodd"></path><path stroke="#000000" stroke-width="1.0" stroke-linejoin="round" stroke-linecap="butt" d="m742.937 271.1942l0 0c0 -55.071915 44.644592 -99.71652 99.71655 -99.71652l0 0c26.446472 0 51.809753 10.505814 70.51019 29.206299c18.7005 18.70047 29.206299 44.063766 29.206299 70.51022l0 0c0 55.07193 -44.644592 99.71655 -99.71649 99.71655l0 0c-55.07196 0 -99.71655 -44.644623 -99.71655 -99.71655z" fill-rule="evenodd"></path><path fill="#000000" fill-opacity="0.0" d="m781.0 190.0315l120.0 0l0 40.409454l-120.0 0z" fill-rule="evenodd"></path><path fill="#000000" d="m813.7171 217.15622l0 -9.859375l1.5 0l0 1.5q0.578125 -1.046875 1.0625 -1.375q0.484375 -0.34375 1.078125 -0.34375q0.84375 0 1.71875 0.546875l-0.578125 1.546875q-0.609375 -0.359375 -1.234375 -0.359375q-0.546875 0 -0.984375 0.328125q-0.421875 0.328125 -0.609375 0.90625q-0.28125 0.890625 -0.28125 1.953125l0 5.15625l-1.671875 0zm6.2438965 0l0 -13.59375l1.671875 0l0 7.75l3.953125 -4.015625l2.15625 0l-3.765625 3.65625l4.140625 6.203125l-2.0625 0l-3.25 -5.03125l-1.171875 1.125l0 3.90625l-1.671875 0zm12.96875 -1.5l0.234375 1.484375q-0.703125 0.140625 -1.265625 0.140625q-0.90625 0 -1.40625 -0.28125q-0.5 -0.296875 -0.703125 -0.75q-0.203125 -0.46875 -0.203125 -1.984375l0 -5.65625l-1.234375 0l0 -1.3125l1.234375 0l0 -2.4375l1.65625 -1.0l0 3.4375l1.6875 0l0 1.3125l-1.6875 0l0 5.75q0 0.71875 0.078125 0.921875q0.09375 0.203125 0.296875 0.328125q0.203125 0.125 0.578125 0.125q0.265625 0 0.734375 -0.078125zm6.710388 5.28125l0 -13.640625l1.53125 0l0 1.28125q0.53125 -0.75 1.203125 -1.125q0.6875 -0.375 1.640625 -0.375q1.265625 0 2.234375 0.65625q0.96875 0.640625 1.453125 1.828125q0.5 1.1875 0.5 2.59375q0 1.515625 -0.546875 2.734375q-0.546875 1.203125 -1.578125 1.84375q-1.03125 0.640625 -2.171875 0.640625q-0.84375 0 -1.515625 -0.34375q-0.65625 -0.359375 -1.078125 -0.890625l0 4.796875l-1.671875 0zm1.515625 -8.65625q0 1.90625 0.765625 2.8125q0.78125 0.90625 1.875 0.90625q1.109375 0 1.890625 -0.9375q0.796875 -0.9375 0.796875 -2.921875q0 -1.875 -0.78125 -2.8125q-0.765625 -0.9375 -1.84375 -0.9375q-1.0625 0 -1.890625 1.0q-0.8125 1.0 -0.8125 2.890625zm8.235107 -0.046875q0 -2.734375 1.53125 -4.0625q1.265625 -1.09375 3.09375 -1.09375q2.03125 0 3.3125 1.34375q1.296875 1.328125 1.296875 3.671875q0 1.90625 -0.578125 3.0q-0.5625 1.078125 -1.65625 1.6875q-1.078125 0.59375 -2.375 0.59375q-2.0625 0 -3.34375 -1.328125q-1.28125 -1.328125 -1.28125 -3.8125zm1.71875 0q0 1.890625 0.828125 2.828125q0.828125 0.9375 2.078125 0.9375q1.25 0 2.0625 -0.9375q0.828125 -0.953125 0.828125 -2.890625q0 -1.828125 -0.828125 -2.765625q-0.828125 -0.9375 -2.0625 -0.9375q-1.25 0 -2.078125 0.9375q-0.828125 0.9375 -0.828125 2.828125zm15.672546 4.921875l0 -1.25q-0.9375 1.46875 -2.75 1.46875q-1.171875 0 -2.171875 -0.640625q-0.984375 -0.65625 -1.53125 -1.8125q-0.53125 -1.171875 -0.53125 -2.6875q0 -1.46875 0.484375 -2.671875q0.5 -1.203125 1.46875 -1.84375q0.984375 -0.640625 2.203125 -0.640625q0.890625 0 1.578125 0.375q0.703125 0.375 1.140625 0.984375l0 -4.875l1.65625 0l0 13.59375l-1.546875 0zm-5.28125 -4.921875q0 1.890625 0.796875 2.828125q0.8125 0.9375 1.890625 0.9375q1.09375 0 1.859375 -0.890625q0.765625 -0.890625 0.765625 -2.734375q0 -2.015625 -0.78125 -2.953125q-0.78125 -0.953125 -1.921875 -0.953125q-1.109375 0 -1.859375 0.90625q-0.75 0.90625 -0.75 2.859375z" fill-rule="nonzero"></path><path fill="#cfe2f3" d="m767.7087 236.65355l149.88977 0l0 40.40944l-149.88977 0z" fill-rule="evenodd"></path><path stroke="#000000" stroke-width="1.0" stroke-linejoin="round" stroke-linecap="butt" d="m767.7087 236.65355l149.88977 0l0 40.40944l-149.88977 0z" fill-rule="evenodd"></path><path fill="#000000" fill-opacity="0.0" d="m769.0079 236.65355l149.88977 0l0 40.40944l-149.88977 0z" fill-rule="evenodd"></path><path fill="#000000" d="m804.45306 260.16888l1.640625 0.21875q-0.265625 1.6875 -1.375 2.65625q-1.109375 0.953125 -2.734375 0.953125q-2.015625 0 -3.25 -1.3125q-1.21875 -1.328125 -1.21875 -3.796875q0 -1.59375 0.515625 -2.78125q0.53125 -1.203125 1.609375 -1.796875q1.09375 -0.609375 2.359375 -0.609375q1.609375 0 2.625 0.8125q1.015625 0.8125 1.3125 2.3125l-1.625 0.25q-0.234375 -1.0 -0.828125 -1.5q-0.59375 -0.5 -1.421875 -0.5q-1.265625 0 -2.0625 0.90625q-0.78125 0.90625 -0.78125 2.859375q0 1.984375 0.765625 2.890625q0.765625 0.890625 1.984375 0.890625q0.984375 0 1.640625 -0.59375q0.65625 -0.609375 0.84375 -1.859375zm2.265625 -1.3125q0 -2.734375 1.53125 -4.0625q1.265625 -1.09375 3.09375 -1.09375q2.03125 0 3.3125 1.34375q1.296875 1.328125 1.296875 3.671875q0 1.90625 -0.578125 3.0q-0.5625 1.078125 -1.65625 1.6875q-1.078125 0.59375 -2.375 0.59375q-2.0625 0 -3.34375 -1.328125q-1.28125 -1.328125 -1.28125 -3.8125zm1.71875 0q0 1.890625 0.828125 2.828125q0.828125 0.9375 2.078125 0.9375q1.25 0 2.0625 -0.9375q0.828125 -0.953125 0.828125 -2.890625q0 -1.828125 -0.828125 -2.765625q-0.828125 -0.9375 -2.0625 -0.9375q-1.25 0 -2.078125 0.9375q-0.828125 0.9375 -0.828125 2.828125zm9.281982 4.921875l0 -9.859375l1.5 0l0 1.40625q1.09375 -1.625 3.140625 -1.625q0.890625 0 1.640625 0.328125q0.75 0.3125 1.109375 0.84375q0.375 0.515625 0.53125 1.21875q0.09375 0.46875 0.09375 1.625l0 6.0625l-1.671875 0l0 -6.0q0 -1.015625 -0.203125 -1.515625q-0.1875 -0.515625 -0.6875 -0.8125q-0.5 -0.296875 -1.171875 -0.296875q-1.0625 0 -1.84375 0.671875q-0.765625 0.671875 -0.765625 2.578125l0 5.375l-1.671875 0zm14.031982 -1.5l0.234375 1.484375q-0.703125 0.140625 -1.265625 0.140625q-0.90625 0 -1.40625 -0.28125q-0.5 -0.296875 -0.703125 -0.75q-0.203125 -0.46875 -0.203125 -1.984375l0 -5.65625l-1.234375 0l0 -1.3125l1.234375 0l0 -2.4375l1.65625 -1.0l0 3.4375l1.6875 0l0 1.3125l-1.6875 0l0 5.75q0 0.71875 0.078125 0.921875q0.09375 0.203125 0.296875 0.328125q0.203125 0.125 0.578125 0.125q0.265625 0 0.734375 -0.078125zm7.9645386 0.28125q-0.9375 0.796875 -1.796875 1.125q-0.859375 0.3125 -1.84375 0.3125q-1.609375 0 -2.484375 -0.78125q-0.875 -0.796875 -0.875 -2.03125q0 -0.734375 0.328125 -1.328125q0.328125 -0.59375 0.859375 -0.953125q0.53125 -0.359375 1.203125 -0.546875q0.5 -0.140625 1.484375 -0.25q2.03125 -0.25 2.984375 -0.578125q0 -0.34375 0 -0.4375q0 -1.015625 -0.46875 -1.4375q-0.640625 -0.5625 -1.90625 -0.5625q-1.171875 0 -1.734375 0.40625q-0.5625 0.40625 -0.828125 1.46875l-1.640625 -0.234375q0.234375 -1.046875 0.734375 -1.6875q0.515625 -0.640625 1.46875 -0.984375q0.96875 -0.359375 2.25 -0.359375q1.265625 0 2.046875 0.296875q0.78125 0.296875 1.15625 0.75q0.375 0.453125 0.515625 1.140625q0.09375 0.421875 0.09375 1.53125l0 2.234375q0 2.328125 0.09375 2.953125q0.109375 0.609375 0.4375 1.171875l-1.75 0q-0.265625 -0.515625 -0.328125 -1.21875zm-0.140625 -3.71875q-0.90625 0.359375 -2.734375 0.625q-1.03125 0.140625 -1.453125 0.328125q-0.421875 0.1875 -0.65625 0.546875q-0.234375 0.359375 -0.234375 0.796875q0 0.671875 0.5 1.125q0.515625 0.4375 1.484375 0.4375q0.96875 0 1.71875 -0.421875q0.75 -0.4375 1.109375 -1.15625q0.265625 -0.578125 0.265625 -1.671875l0 -0.609375zm4.0944824 -6.75l0 -1.90625l1.671875 0l0 1.90625l-1.671875 0zm0 11.6875l0 -9.859375l1.671875 0l0 9.859375l-1.671875 0zm4.1291504 0l0 -9.859375l1.5 0l0 1.40625q1.09375 -1.625 3.140625 -1.625q0.890625 0 1.640625 0.328125q0.75 0.3125 1.109375 0.84375q0.375 0.515625 0.53125 1.21875q0.09375 0.46875 0.09375 1.625l0 6.0625l-1.671875 0l0 -6.0q0 -1.015625 -0.203125 -1.515625q-0.1875 -0.515625 -0.6875 -0.8125q-0.5 -0.296875 -1.171875 -0.296875q-1.0625 0 -1.84375 0.671875q-0.765625 0.671875 -0.765625 2.578125l0 5.375l-1.671875 0zm17.125732 -3.171875l1.71875 0.21875q-0.40625 1.5 -1.515625 2.34375q-1.09375 0.828125 -2.8125 0.828125q-2.15625 0 -3.421875 -1.328125q-1.265625 -1.328125 -1.265625 -3.734375q0 -2.484375 1.265625 -3.859375q1.28125 -1.375 3.328125 -1.375q1.984375 0 3.234375 1.34375q1.25 1.34375 1.25 3.796875q0 0.140625 -0.015625 0.4375l-7.34375 0q0.09375 1.625 0.921875 2.484375q0.828125 0.859375 2.0625 0.859375q0.90625 0 1.546875 -0.46875q0.65625 -0.484375 1.046875 -1.546875zm-5.484375 -2.703125l5.5 0q-0.109375 -1.234375 -0.625 -1.859375q-0.796875 -0.96875 -2.078125 -0.96875q-1.140625 0 -1.9375 0.78125q-0.78125 0.765625 -0.859375 2.046875zm9.094482 5.875l0 -9.859375l1.5 0l0 1.5q0.578125 -1.046875 1.0625 -1.375q0.484375 -0.34375 1.078125 -0.34375q0.84375 0 1.71875 0.546875l-0.578125 1.546875q-0.609375 -0.359375 -1.234375 -0.359375q-0.546875 0 -0.984375 0.328125q-0.421875 0.328125 -0.609375 0.90625q-0.28125 0.890625 -0.28125 1.953125l0 5.15625l-1.671875 0zm10.130371 0l5.234375 -13.59375l1.9375 0l5.5625 13.59375l-2.046875 0l-1.59375 -4.125l-5.6875 0l-1.484375 4.125l-1.921875 0zm3.921875 -5.578125l4.609375 0l-1.40625 -3.78125q-0.65625 -1.703125 -0.96875 -2.8125q-0.265625 1.3125 -0.734375 2.59375l-1.5 4.0z" fill-rule="nonzero"></path><path fill="#000000" fill-opacity="0.0" d="m529.20734 243.06299l213.7323 28.125977" fill-rule="evenodd"></path><path stroke="#000000" stroke-width="1.0" stroke-linejoin="round" stroke-linecap="butt" d="m529.20734 243.06299l207.78357 27.34317" fill-rule="evenodd"></path><path fill="#000000" stroke="#000000" stroke-width="1.0" stroke-linecap="butt" d="m736.7754 272.04376l4.7148438 -1.0455322l-4.2838135 -2.2296753z" fill-rule="evenodd"></path><path fill="#000000" fill-opacity="0.0" d="m529.94574 246.3758l241.03937 31.433075l-4.3464355 33.322845l-241.03937 -31.433075z" fill-rule="evenodd"></path><path fill="#000000" d="m543.16895 274.01904q-1.0327148 0.66897583 -1.9273071 0.8832092q-0.8925781 0.19873047 -1.8686523 0.07144165q-1.5958862 -0.20809937 -2.3624878 -1.0959473q-0.7645874 -0.9033203 -0.60491943 -2.1273193q0.0949707 -0.72821045 0.49713135 -1.2745361q0.40216064 -0.5463257 0.97546387 -0.8339844q0.5732422 -0.2876892 1.2637329 -0.38671875q0.51397705 -0.074798584 1.5042725 -0.05593872q2.0465088 0.01473999 3.0340576 -0.18737793q0.04449463 -0.34085083 0.05657959 -0.43380737q0.13134766 -1.0071106 -0.27886963 -1.4860535q-0.5625 -0.640625 -1.8175049 -0.80426025q-1.1620483 -0.1515503 -1.7723389 0.17855835q-0.61035156 0.33010864 -1.0111694 1.3493347l-1.5964966 -0.44458008q0.36779785 -1.0077515 0.94647217 -1.5783691q0.5941162 -0.5685425 1.5837402 -0.78616333q1.0070801 -0.2310791 2.277588 -0.06539917q1.2549438 0.16366577 1.991272 0.5590515q0.7362671 0.39541626 1.0495605 0.893219q0.31323242 0.49780273 0.3637085 1.1977234q0.03845215 0.43045044 -0.105041504 1.5305176l-0.28900146 2.2156067q-0.30114746 2.3085632 -0.28900146 2.9404297q0.029663086 0.6184082 0.2822876 1.2186279l-1.7353516 -0.22631836q-0.19671631 -0.5456238 -0.16772461 -1.250946zm0.34155273 -3.7056885q-0.9451294 0.23916626 -2.7922974 0.26617432q-1.0407715 0.006072998 -1.4833374 0.13745117q-0.44256592 0.13137817 -0.7214966 0.45742798q-0.27886963 0.3260498 -0.33544922 0.7598572q-0.08691406 0.66622925 0.35028076 1.1802063q0.4547119 0.5005188 1.4153442 0.62579346q0.9606323 0.12527466 1.7589111 -0.19607544q0.80023193 -0.33685303 1.2495728 -1.0030823q0.3381958 -0.5389404 0.47961426 -1.6235046l0.07885742 -0.60424805zm9.74292 6.2498474l0.16168213 -1.239502q-1.1195679 1.3351746 -2.91687 1.1007996q-1.1620483 -0.15151978 -2.0708008 -0.91607666q-0.89123535 -0.77804565 -1.2839355 -1.9953003q-0.37524414 -1.2307129 -0.17919922 -2.733612q0.1899414 -1.4564209 0.8258667 -2.586792q0.6514282 -1.1283569 1.6948853 -1.6383362q1.059021 -0.5079651 2.267517 -0.3503723q0.8831177 0.11517334 1.5163574 0.57592773q0.6487427 0.46276855 1.0037231 1.1235962l0.6305542 -4.8340454l1.642334 0.21417236l-1.7581787 13.479584l-1.5339355 -0.20004272zm-4.600281 -5.563446q-0.24456787 1.8747253 0.42437744 2.9074097q0.68444824 1.0346985 1.753479 1.1741028q1.0845947 0.14141846 1.9589844 -0.6427002q0.87438965 -0.78414917 1.112854 -2.6123962q0.26068115 -1.9987183 -0.39276123 -3.029358q-0.6513672 -1.0461426 -1.7824707 -1.193634q-1.1000366 -0.14346313 -1.9609375 0.6582031q-0.8609009 0.80163574 -1.1135254 2.7383728zm14.888916 6.9051514l0.16168213 -1.239502q-1.1196289 1.3351746 -2.91687 1.1007996q-1.1620483 -0.15151978 -2.0708008 -0.91607666q-0.89123535 -0.77804565 -1.2839966 -1.9953003q-0.3751831 -1.2307129 -0.17919922 -2.733612q0.19000244 -1.4564209 0.82592773 -2.586792q0.6514282 -1.1283875 1.6948853 -1.6383362q1.05896 -0.5079651 2.267456 -0.3503723q0.8831787 0.11517334 1.5164185 0.57592773q0.64868164 0.46276855 1.0037231 1.1235962l0.63049316 -4.8340454l1.642334 0.21417236l-1.7581787 13.479553l-1.5338745 -0.2000122zm-4.600342 -5.5634766q-0.24450684 1.8747559 0.42443848 2.9074402q0.6843872 1.034668 1.753479 1.1741028q1.0845337 0.14141846 1.9589233 -0.6427002q0.87438965 -0.78414917 1.112854 -2.6124268q0.2607422 -1.9986877 -0.3927002 -3.0293274q-0.6514282 -1.0461426 -1.7824707 -1.193634q-1.1000366 -0.14346313 -1.9609985 0.6581726q-0.8609009 0.80166626 -1.1135254 2.7383728zm7.2821655 6.1495667l5.7232666 -13.435211l1.3324585 0.17373657l-5.7232666 13.435242l-1.3324585 -0.17376709zm6.394104 0.59747314l1.2752075 -9.776581l1.4873657 0.19396973l-0.19396973 1.4873962q0.7086792 -0.9633179 1.2313843 -1.2260437q0.5247803 -0.27822876 1.1135254 -0.20144653q0.8366699 0.10910034 1.633606 0.76452637l-0.7733154 1.459137q-0.5578003 -0.43515015 -1.1775513 -0.5159912q-0.54229736 -0.07070923 -1.0185547 0.1980896q-0.4607544 0.270813 -0.72143555 0.8198242q-0.394104 0.84680176 -0.5315552 1.9003601l-0.6668701 5.1129456l-1.6578369 -0.21618652zm13.279541 -1.4670105l1.6760254 0.43917847q-0.59680176 1.4348755 -1.8060303 2.1280823q-1.1916504 0.679718 -2.895996 0.457489q-2.1381226 -0.2788391 -3.2213745 -1.7594604q-1.0831909 -1.4806519 -0.77197266 -3.8666687q0.3213501 -2.463501 1.7541504 -3.6632996q1.4483643 -1.1977844 3.4780273 -0.93310547q1.9677124 0.2566223 3.0334473 1.7507324q1.0656738 1.4940796 0.7484131 3.9266052q-0.018188477 0.13943481 -0.07208252 0.4317932l-7.2821045 -0.9496155q-0.1171875 1.6234741 0.5928345 2.5827026q0.710022 0.95925903 1.934021 1.118866q0.8986206 0.1171875 1.5944824 -0.2647705q0.71343994 -0.39544678 1.2381592 -1.398529zm-5.088684 -3.3895874l5.4537964 0.71121216q0.051208496 -1.2381592 -0.37921143 -1.9245911q-0.664917 -1.0636597 -1.9354248 -1.2293396q-1.1310425 -0.14749146 -2.0222778 0.5241394q-0.87371826 0.6581726 -1.1168823 1.9185791zm8.273743 7.0036926l1.2752075 -9.776581l1.4874268 0.19396973l-0.1798706 1.3789368q0.5422363 -0.65411377 1.3580322 -0.9889221q0.833313 -0.34829712 1.8094482 -0.2210083q1.0845337 0.14144897 1.7231445 0.68167114q0.63861084 0.5402527 0.8104248 1.3977966q1.3863525 -1.5682678 3.2456055 -1.3258362q1.4564209 0.1899414 2.1260376 1.0966492q0.6850586 0.9087219 0.46679688 2.5820312l-0.87506104 6.7088013l-1.6578369 -0.21618652l0.8023071 -6.1510315q0.1293335 -0.99160767 0.03100586 -1.4456177q-0.09631348 -0.46954346 -0.49578857 -0.78948975q-0.38397217 -0.31796265 -0.9572754 -0.3927307q-1.022583 -0.1333313 -1.7932129 0.45947266q-0.7706909 0.5928345 -0.96868896 2.1112366l-0.73968506 5.6707153l-1.6578369 -0.21621704l0.82855225 -6.352417q0.14349365 -1.1000671 -0.18859863 -1.6948853q-0.33007812 -0.6102905 -1.2597046 -0.73153687q-0.6972046 -0.090911865 -1.3499756 0.20211792q-0.6352539 0.27960205 -0.9916382 0.9579468q-0.35632324 0.67837524 -0.53015137 2.0108337l-0.66082764 5.0664673l-1.6578369 -0.21618652zm15.427185 -2.9517517q0.3536377 -2.7114258 2.0438232 -3.8303833q1.3964233 -0.92089844 3.2092285 -0.6845093q2.0142212 0.2626648 3.1109009 1.7608032q1.1141968 1.4846802 0.81103516 3.8087463q-0.246521 1.8902283 -0.9612427 2.900055q-0.6972656 0.9963074 -1.8606567 1.459137q-1.145874 0.44934082 -2.4318237 0.28164673q-2.045166 -0.26669312 -3.143921 -1.7493591q-1.0986938 -1.4826355 -0.77734375 -3.9461365zm1.7042847 0.22225952q-0.24450684 1.8747253 0.4553833 2.911438q0.6999512 1.0367126 1.9394531 1.1983643q1.239502 0.1616211 2.1664429 -0.66293335q0.944397 -0.8380432 1.1950073 -2.7592468q0.2364502 -1.8127747 -0.46343994 -2.8494873q-0.6999512 -1.0367126 -1.9239502 -1.1963196q-1.239502 -0.16165161 -2.1819458 0.6608887q-0.9423828 0.8225403 -1.1869507 2.6972961zm11.27887 6.4343567l-2.4432983 -10.261475l1.7507935 0.22833252l1.3432617 6.1314087q0.21759033 0.9895935 0.36309814 2.048523q0.31793213 -0.7463989 0.86224365 -1.7784119l2.9472046 -5.6822205l1.7042847 0.222229l-4.9782104 9.293671l-1.5493774 -0.20205688zm13.641968 -1.4197083l1.6760254 0.43914795q-0.5968628 1.4348755 -1.8060303 2.1280823q-1.1917114 0.67974854 -2.895996 0.457489q-2.1381836 -0.2788391 -3.2213745 -1.7594604q-1.083252 -1.4806213 -0.77197266 -3.8666687q0.32128906 -2.463501 1.7541504 -3.6632996q1.4483032 -1.1977844 3.4780273 -0.93307495q1.9677124 0.2565918 3.0333862 1.7507019q1.0657349 1.4940796 0.7484131 3.9266052q-0.018188477 0.13946533 -0.07208252 0.43182373l-7.2820435 -0.949646q-0.117248535 1.6234741 0.59277344 2.5827332q0.710022 0.9592285 1.934021 1.1188354q0.89868164 0.1171875 1.5945435 -0.2647705q0.7133789 -0.39544678 1.2381592 -1.3984985zm-5.088684 -3.389618l5.4537964 0.71121216q0.051208496 -1.2381592 -0.37927246 -1.9245911q-0.66485596 -1.0636597 -1.9353638 -1.2293396q-1.1310425 -0.14749146 -2.0222778 0.5241699q-0.87371826 0.6581726 -1.1168823 1.9185486zm20.263794 4.9273376l1.5985107 0.42904663q-0.48162842 1.638977 -1.7069702 2.4561462q-1.2233276 0.80166626 -2.8347168 0.5915222q-1.9987183 -0.26062012 -3.0529175 -1.7217407q-1.0367432 -1.4745483 -0.71746826 -3.922577q0.20611572 -1.5803528 0.8710327 -2.6911926q0.68237305 -1.1243286 1.8282471 -1.5736694q1.1633911 -0.4628296 2.418396 -0.29916382q1.5958862 0.20809937 2.4978638 1.1451111q0.9020386 0.9370117 1.0023804 2.462799l-1.6436768 0.037750244q-0.10308838 -1.0218811 -0.62713623 -1.5944824q-0.5241089 -0.5725708 -1.3452759 -0.679657q-1.2550049 -0.16366577 -2.1624146 0.6319275q-0.89190674 0.7976074 -1.1445312 2.7343445q-0.25665283 1.9677124 0.38531494 2.965332q0.64404297 0.9821472 1.8525391 1.1397705q0.97613525 0.12728882 1.7036743 -0.37661743q0.7295532 -0.5194092 1.0771484 -1.7346497zm2.4163208 -1.0085144q0.35369873 -2.7113953 2.0438843 -3.8303528q1.3964233 -0.92092896 3.2092285 -0.6845093q2.0141602 0.2626648 3.1109009 1.7608032q1.1141968 1.4846802 0.81103516 3.8087158q-0.246521 1.8902588 -0.9613037 2.900055q-0.6972046 0.9963379 -1.8605957 1.4591675q-1.145874 0.44934082 -2.4318237 0.28164673q-2.045227 -0.26672363 -3.143921 -1.7493591q-1.0986938 -1.482666 -0.7774048 -3.946167zm1.7043457 0.22225952q-0.24450684 1.8747559 0.4553833 2.9114685q0.69989014 1.0367126 1.9393921 1.1983337q1.239563 0.16165161 2.1664429 -0.66290283q0.944458 -0.8380432 1.1950684 -2.7592773q0.2364502 -1.8127747 -0.46343994 -2.8494873q-0.6999512 -1.0367126 -1.9239502 -1.1963196q-1.239502 -0.16165161 -2.1819458 0.6608887q-0.94244385 0.8225403 -1.1869507 2.6972961zm8.567444 6.0808105l1.2752075 -9.776581l1.4874268 0.19396973l-0.18188477 1.3944397q1.2947388 -1.4699097 3.3244019 -1.2052307q0.8831787 0.11517334 1.5844116 0.5375366q0.7033081 0.40686035 0.99090576 0.98010254q0.30517578 0.55978394 0.36920166 1.2772217q0.032348633 0.4769287 -0.117248535 1.6234741l-0.78411865 6.011566l-1.6578369 -0.21618652l0.776062 -5.9496155q0.13134766 -1.0070801 -0.0053710938 -1.5291443q-0.119262695 -0.535553 -0.57666016 -0.8945923q-0.45739746 -0.3590393 -1.1236572 -0.44592285q-1.0535889 -0.13739014 -1.9151611 0.42782593q-0.84606934 0.5672302 -1.0926514 2.4574585l-0.6951904 5.3298645l-1.6578369 -0.21618652zm14.108154 0.3270874l0.040405273 1.5021973q-0.71539307 0.04852295 -1.2731934 -0.02420044q-0.8986206 -0.1171875 -1.3580322 -0.46072388q-0.45739746 -0.3590393 -0.6002197 -0.83462524q-0.1408081 -0.49108887 0.055236816 -1.993988l0.7315674 -5.608734l-1.223999 -0.15960693l0.16973877 -1.3014832l1.223999 0.15960693l0.31530762 -2.4170227l1.7716675 -0.7774353l-0.44458008 3.4086304l1.6732788 0.2182312l-0.16973877 1.3014526l-1.6733398 -0.21820068l-0.7437134 5.7016907q-0.09295654 0.71273804 -0.041748047 0.9242554q0.066711426 0.2135315 0.25195312 0.363739q0.1852417 0.15023804 0.5571289 0.19873047q0.2633667 0.034332275 0.73828125 0.017486572zm7.861328 1.3087769q-1.0327148 0.66897583 -1.9273071 0.8832092q-0.8925781 0.19873047 -1.8687134 0.07144165q-1.5958252 -0.20809937 -2.3624268 -1.0959473q-0.7645874 -0.9033203 -0.60498047 -2.1273193q0.09503174 -0.72821045 0.49719238 -1.2745361q0.40216064 -0.5463257 0.97540283 -0.8339844q0.5733032 -0.2876587 1.263794 -0.38671875q0.51397705 -0.074798584 1.5042114 -0.05593872q2.0465698 0.01473999 3.0341187 -0.18737793q0.044433594 -0.34085083 0.05657959 -0.43380737q0.13134766 -1.0071106 -0.27886963 -1.4860535q-0.5625 -0.6405945 -1.8175049 -0.80426025q-1.1620483 -0.1515503 -1.7723389 0.17855835q-0.61035156 0.33010864 -1.0111694 1.3493347l-1.5965576 -0.44458008q0.3678589 -1.0077515 0.94647217 -1.5783386q0.59417725 -0.568573 1.5837402 -0.78619385q1.0071411 -0.2310791 2.277588 -0.06539917q1.2550049 0.16366577 1.991333 0.5590515q0.7362671 0.39541626 1.0494995 0.893219q0.31323242 0.49780273 0.36376953 1.1977234q0.038391113 0.43045044 -0.10510254 1.5305176l-0.28894043 2.2156067q-0.30114746 2.3085632 -0.28900146 2.9404297q0.02960205 0.6184082 0.28222656 1.2186279l-1.7352905 -0.22631836q-0.19671631 -0.5456238 -0.16772461 -1.250946zm0.34155273 -3.7056885q-0.9451294 0.23916626 -2.7922974 0.26617432q-1.0407715 0.006072998 -1.4833374 0.13745117q-0.44262695 0.13137817 -0.7214966 0.45742798q-0.27886963 0.3260498 -0.33544922 0.7598572q-0.08691406 0.66625977 0.35028076 1.1802063q0.4547119 0.5005188 1.4153442 0.62579346q0.9605713 0.12527466 1.7588501 -0.19607544q0.80029297 -0.33685303 1.2496338 -1.0030823q0.33813477 -0.5389404 0.47961426 -1.6235046l0.07885742 -0.60424805zm4.9331055 -6.163849l0.246521 -1.8902283l1.6578369 0.21618652l-0.246521 1.8902588l-1.6578369 -0.21621704zm-1.5116577 11.589355l1.2752075 -9.776581l1.6578369 0.21618652l-1.2752075 9.776581l-1.6578369 -0.21618652zm4.0945435 0.53393555l1.2752075 -9.77655l1.4873657 0.19396973l-0.18188477 1.3944397q1.2947388 -1.4699402 3.324463 -1.2052307q0.8831177 0.11514282 1.5844116 0.5375061q0.7032471 0.40686035 0.99090576 0.98013306q0.30517578 0.55978394 0.36920166 1.2771912q0.032287598 0.4769287 -0.117248535 1.6234741l-0.78411865 6.0115967l-1.6578369 -0.21621704l0.776062 -5.949585q0.13134766 -1.0071106 -0.005432129 -1.5291748q-0.11920166 -0.53552246 -0.5765991 -0.89456177q-0.45739746 -0.3590393 -1.1236572 -0.44592285q-1.0535889 -0.13739014 -1.9151611 0.4277954q-0.8461304 0.5672302 -1.0926514 2.457489l-0.6951904 5.329834l-1.6578369 -0.21618652zm17.39215 -0.93066406l1.6760254 0.43914795q-0.5968628 1.4348755 -1.8060303 2.1280823q-1.1916504 0.679718 -2.895996 0.457489q-2.1381226 -0.2788391 -3.2213745 -1.7594604q-1.0831909 -1.4806213 -0.77197266 -3.8666687q0.32128906 -2.463501 1.7541504 -3.6632996q1.4483643 -1.1977844 3.4780273 -0.93310547q1.9677124 0.2566223 3.0334473 1.7507324q1.0656738 1.4940796 0.7484131 3.9266052q-0.018188477 0.13943481 -0.07208252 0.43182373l-7.2821045 -0.949646q-0.117248535 1.6234741 0.59277344 2.5827026q0.710022 0.95925903 1.934082 1.118866q0.8986206 0.1171875 1.5944824 -0.2647705q0.7133789 -0.39544678 1.2381592 -1.3984985zm-5.088684 -3.389618l5.4537964 0.71121216q0.051208496 -1.2381592 -0.37927246 -1.9245911q-0.66485596 -1.0636597 -1.9353638 -1.2293396q-1.1310425 -0.14749146 -2.0222778 0.5241394q-0.87371826 0.6581726 -1.1168823 1.9185791zm8.25824 7.001648l1.2752075 -9.77655l1.4873657 0.19396973l-0.19396973 1.4873962q0.7086792 -0.9633179 1.2313843 -1.2260437q0.5247803 -0.27822876 1.1135864 -0.20144653q0.8366089 0.10910034 1.6335449 0.76452637l-0.7733154 1.459137q-0.5578003 -0.43518066 -1.1775513 -0.5159912q-0.54229736 -0.07070923 -1.0185547 0.1980896q-0.4607544 0.270813 -0.72143555 0.8198242q-0.394104 0.84677124 -0.5315552 1.9003601l-0.6668701 5.1129456l-1.6578369 -0.21621704z" fill-rule="nonzero"></path><path fill="#000000" fill-opacity="0.0" d="m719.37006 398.4777l237.2284 0l0 26.992126l-237.2284 0z" fill-rule="evenodd"></path><path fill="#000000" d="m729.5888 425.39767l0 -13.59375l1.671875 0l0 13.59375l-1.671875 0zm4.1917114 -11.6875l0 -1.90625l1.671875 0l0 1.90625l-1.671875 0zm0 11.6875l0 -9.859375l1.671875 0l0 9.859375l-1.671875 0zm3.4573364 -2.9375l1.65625 -0.265625q0.140625 1.0 0.765625 1.53125q0.640625 0.515625 1.78125 0.515625q1.15625 0 1.703125 -0.46875q0.5625 -0.46875 0.5625 -1.09375q0 -0.5625 -0.484375 -0.890625q-0.34375 -0.21875 -1.703125 -0.5625q-1.84375 -0.46875 -2.5625 -0.796875q-0.703125 -0.34375 -1.078125 -0.9375q-0.359375 -0.609375 -0.359375 -1.328125q0 -0.65625 0.296875 -1.21875q0.3125 -0.5625 0.828125 -0.9375q0.390625 -0.28125 1.0625 -0.484375q0.671875 -0.203125 1.4375 -0.203125q1.171875 0 2.046875 0.34375q0.875 0.328125 1.28125 0.90625q0.421875 0.5625 0.578125 1.515625l-1.625 0.21875q-0.109375 -0.75 -0.65625 -1.171875q-0.53125 -0.4375 -1.5 -0.4375q-1.15625 0 -1.640625 0.390625q-0.484375 0.375 -0.484375 0.875q0 0.328125 0.203125 0.59375q0.203125 0.265625 0.640625 0.4375q0.25 0.09375 1.46875 0.4375q1.765625 0.46875 2.46875 0.765625q0.703125 0.296875 1.09375 0.875q0.40625 0.578125 0.40625 1.4375q0 0.828125 -0.484375 1.578125q-0.484375 0.734375 -1.40625 1.140625q-0.921875 0.390625 -2.078125 0.390625q-1.921875 0 -2.9375 -0.796875q-1.0 -0.796875 -1.28125 -2.359375zm13.65625 1.4375l0.234375 1.484375q-0.703125 0.140625 -1.265625 0.140625q-0.90625 0 -1.40625 -0.28125q-0.5 -0.296875 -0.703125 -0.75q-0.203125 -0.46875 -0.203125 -1.984375l0 -5.65625l-1.234375 0l0 -1.3125l1.234375 0l0 -2.4375l1.65625 -1.0l0 3.4375l1.6875 0l0 1.3125l-1.6875 0l0 5.75q0 0.71875 0.078125 0.921875q0.09375 0.203125 0.296875 0.328125q0.203125 0.125 0.578125 0.125q0.265625 0 0.734375 -0.078125zm13.147827 -2.109375l1.640625 0.21875q-0.265625 1.6875 -1.375 2.65625q-1.109375 0.953125 -2.734375 0.953125q-2.015625 0 -3.25 -1.3125q-1.21875 -1.328125 -1.21875 -3.796875q0 -1.59375 0.515625 -2.78125q0.53125 -1.203125 1.609375 -1.796875q1.09375 -0.609375 2.359375 -0.609375q1.609375 0 2.625 0.8125q1.015625 0.8125 1.3125 2.3125l-1.625 0.25q-0.234375 -1.0 -0.828125 -1.5q-0.59375 -0.5 -1.421875 -0.5q-1.265625 0 -2.0625 0.90625q-0.78125 0.90625 -0.78125 2.859375q0 1.984375 0.765625 2.890625q0.765625 0.890625 1.984375 0.890625q0.984375 0 1.640625 -0.59375q0.65625 -0.609375 0.84375 -1.859375zm2.265625 -1.3125q0 -2.734375 1.53125 -4.0625q1.265625 -1.09375 3.09375 -1.09375q2.03125 0 3.3125 1.34375q1.296875 1.328125 1.296875 3.671875q0 1.90625 -0.578125 3.0q-0.5625 1.078125 -1.65625 1.6875q-1.078125 0.59375 -2.375 0.59375q-2.0625 0 -3.34375 -1.328125q-1.28125 -1.328125 -1.28125 -3.8125zm1.71875 0q0 1.890625 0.828125 2.828125q0.828125 0.9375 2.078125 0.9375q1.25 0 2.0625 -0.9375q0.828125 -0.953125 0.828125 -2.890625q0 -1.828125 -0.828125 -2.765625q-0.828125 -0.9375 -2.0625 -0.9375q-1.25 0 -2.078125 0.9375q-0.828125 0.9375 -0.828125 2.828125zm9.281982 4.921875l0 -9.859375l1.5 0l0 1.40625q1.09375 -1.625 3.140625 -1.625q0.890625 0 1.640625 0.328125q0.75 0.3125 1.109375 0.84375q0.375 0.515625 0.53125 1.21875q0.09375 0.46875 0.09375 1.625l0 6.0625l-1.671875 0l0 -6.0q0 -1.015625 -0.203125 -1.515625q-0.1875 -0.515625 -0.6875 -0.8125q-0.5 -0.296875 -1.171875 -0.296875q-1.0625 0 -1.84375 0.671875q-0.765625 0.671875 -0.765625 2.578125l0 5.375l-1.671875 0zm14.031982 -1.5l0.234375 1.484375q-0.703125 0.140625 -1.265625 0.140625q-0.90625 0 -1.40625 -0.28125q-0.5 -0.296875 -0.703125 -0.75q-0.203125 -0.46875 -0.203125 -1.984375l0 -5.65625l-1.234375 0l0 -1.3125l1.234375 0l0 -2.4375l1.65625 -1.0l0 3.4375l1.6875 0l0 1.3125l-1.6875 0l0 5.75q0 0.71875 0.078125 0.921875q0.09375 0.203125 0.296875 0.328125q0.203125 0.125 0.578125 0.125q0.265625 0 0.734375 -0.078125zm7.9645386 0.28125q-0.9375 0.796875 -1.796875 1.125q-0.859375 0.3125 -1.84375 0.3125q-1.609375 0 -2.484375 -0.78125q-0.875 -0.796875 -0.875 -2.03125q0 -0.734375 0.328125 -1.328125q0.328125 -0.59375 0.859375 -0.953125q0.53125 -0.359375 1.203125 -0.546875q0.5 -0.140625 1.484375 -0.25q2.03125 -0.25 2.984375 -0.578125q0 -0.34375 0 -0.4375q0 -1.015625 -0.46875 -1.4375q-0.640625 -0.5625 -1.90625 -0.5625q-1.171875 0 -1.734375 0.40625q-0.5625 0.40625 -0.828125 1.46875l-1.640625 -0.234375q0.234375 -1.046875 0.734375 -1.6875q0.515625 -0.640625 1.46875 -0.984375q0.96875 -0.359375 2.25 -0.359375q1.265625 0 2.046875 0.296875q0.78125 0.296875 1.15625 0.75q0.375 0.453125 0.515625 1.140625q0.09375 0.421875 0.09375 1.53125l0 2.234375q0 2.328125 0.09375 2.953125q0.109375 0.609375 0.4375 1.171875l-1.75 0q-0.265625 -0.515625 -0.328125 -1.21875zm-0.140625 -3.71875q-0.90625 0.359375 -2.734375 0.625q-1.03125 0.140625 -1.453125 0.328125q-0.421875 0.1875 -0.65625 0.546875q-0.234375 0.359375 -0.234375 0.796875q0 0.671875 0.5 1.125q0.515625 0.4375 1.484375 0.4375q0.96875 0 1.71875 -0.421875q0.75 -0.4375 1.109375 -1.15625q0.265625 -0.578125 0.265625 -1.671875l0 -0.609375zm4.0944824 -6.75l0 -1.90625l1.671875 0l0 1.90625l-1.671875 0zm0 11.6875l0 -9.859375l1.671875 0l0 9.859375l-1.671875 0zm4.1292114 0l0 -9.859375l1.5 0l0 1.40625q1.09375 -1.625 3.140625 -1.625q0.890625 0 1.640625 0.328125q0.75 0.3125 1.109375 0.84375q0.375 0.515625 0.53125 1.21875q0.09375 0.46875 0.09375 1.625l0 6.0625l-1.671875 0l0 -6.0q0 -1.015625 -0.203125 -1.515625q-0.1875 -0.515625 -0.6875 -0.8125q-0.5 -0.296875 -1.171875 -0.296875q-1.0625 0 -1.84375 0.671875q-0.765625 0.671875 -0.765625 2.578125l0 5.375l-1.671875 0zm17.125671 -3.171875l1.71875 0.21875q-0.40625 1.5 -1.515625 2.34375q-1.09375 0.828125 -2.8125 0.828125q-2.15625 0 -3.421875 -1.328125q-1.265625 -1.328125 -1.265625 -3.734375q0 -2.484375 1.265625 -3.859375q1.28125 -1.375 3.328125 -1.375q1.984375 0 3.234375 1.34375q1.25 1.34375 1.25 3.796875q0 0.140625 -0.015625 0.4375l-7.34375 0q0.09375 1.625 0.921875 2.484375q0.828125 0.859375 2.0625 0.859375q0.90625 0 1.546875 -0.46875q0.65625 -0.484375 1.046875 -1.546875zm-5.484375 -2.703125l5.5 0q-0.109375 -1.234375 -0.625 -1.859375q-0.796875 -0.96875 -2.078125 -0.96875q-1.140625 0 -1.9375 0.78125q-0.78125 0.765625 -0.859375 2.046875zm9.094482 5.875l0 -9.859375l1.5 0l0 1.5q0.578125 -1.046875 1.0625 -1.375q0.484375 -0.34375 1.078125 -0.34375q0.84375 0 1.71875 0.546875l-0.578125 1.546875q-0.609375 -0.359375 -1.234375 -0.359375q-0.546875 0 -0.984375 0.328125q-0.421875 0.328125 -0.609375 0.90625q-0.28125 0.890625 -0.28125 1.953125l0 5.15625l-1.671875 0zm5.5564575 -2.9375l1.65625 -0.265625q0.140625 1.0 0.765625 1.53125q0.640625 0.515625 1.78125 0.515625q1.15625 0 1.703125 -0.46875q0.5625 -0.46875 0.5625 -1.09375q0 -0.5625 -0.484375 -0.890625q-0.34375 -0.21875 -1.703125 -0.5625q-1.84375 -0.46875 -2.5625 -0.796875q-0.703125 -0.34375 -1.078125 -0.9375q-0.359375 -0.609375 -0.359375 -1.328125q0 -0.65625 0.296875 -1.21875q0.3125 -0.5625 0.828125 -0.9375q0.390625 -0.28125 1.0625 -0.484375q0.671875 -0.203125 1.4375 -0.203125q1.171875 0 2.046875 0.34375q0.875 0.328125 1.28125 0.90625q0.421875 0.5625 0.578125 1.515625l-1.625 0.21875q-0.109375 -0.75 -0.65625 -1.171875q-0.53125 -0.4375 -1.5 -0.4375q-1.15625 0 -1.640625 0.390625q-0.484375 0.375 -0.484375 0.875q0 0.328125 0.203125 0.59375q0.203125 0.265625 0.640625 0.4375q0.25 0.09375 1.46875 0.4375q1.765625 0.46875 2.46875 0.765625q0.703125 0.296875 1.09375 0.875q0.40625 0.578125 0.40625 1.4375q0 0.828125 -0.484375 1.578125q-0.484375 0.734375 -1.40625 1.140625q-0.921875 0.390625 -2.078125 0.390625q-1.921875 0 -2.9375 -0.796875q-1.0 -0.796875 -1.28125 -2.359375zm15.198914 -8.75l0 -1.90625l1.671875 0l0 1.90625l-1.671875 0zm0 11.6875l0 -9.859375l1.671875 0l0 9.859375l-1.671875 0zm4.1292114 0l0 -9.859375l1.5 0l0 1.40625q1.09375 -1.625 3.140625 -1.625q0.890625 0 1.640625 0.328125q0.75 0.3125 1.109375 0.84375q0.375 0.515625 0.53125 1.21875q0.09375 0.46875 0.09375 1.625l0 6.0625l-1.671875 0l0 -6.0q0 -1.015625 -0.203125 -1.515625q-0.1875 -0.515625 -0.6875 -0.8125q-0.5 -0.296875 -1.171875 -0.296875q-1.0625 0 -1.84375 0.671875q-0.765625 0.671875 -0.765625 2.578125l0 5.375l-1.671875 0zm15.559021 3.78125l0 -13.640625l1.53125 0l0 1.28125q0.53125 -0.75 1.203125 -1.125q0.6875 -0.375 1.640625 -0.375q1.265625 0 2.234375 0.65625q0.96875 0.640625 1.453125 1.828125q0.5 1.1875 0.5 2.59375q0 1.515625 -0.546875 2.734375q-0.546875 1.203125 -1.578125 1.84375q-1.03125 0.640625 -2.171875 0.640625q-0.84375 0 -1.515625 -0.34375q-0.65625 -0.359375 -1.078125 -0.890625l0 4.796875l-1.671875 0zm1.515625 -8.65625q0 1.90625 0.765625 2.8125q0.78125 0.90625 1.875 0.90625q1.109375 0 1.890625 -0.9375q0.796875 -0.9375 0.796875 -2.921875q0 -1.875 -0.78125 -2.8125q-0.765625 -0.9375 -1.84375 -0.9375q-1.0625 0 -1.890625 1.0q-0.8125 1.0 -0.8125 2.890625zm8.235046 -0.046875q0 -2.734375 1.53125 -4.0625q1.265625 -1.09375 3.09375 -1.09375q2.03125 0 3.3125 1.34375q1.296875 1.328125 1.296875 3.671875q0 1.90625 -0.578125 3.0q-0.5625 1.078125 -1.65625 1.6875q-1.078125 0.59375 -2.375 0.59375q-2.0625 0 -3.34375 -1.328125q-1.28125 -1.328125 -1.28125 -3.8125zm1.71875 0q0 1.890625 0.828125 2.828125q0.828125 0.9375 2.078125 0.9375q1.25 0 2.0625 -0.9375q0.828125 -0.953125 0.828125 -2.890625q0 -1.828125 -0.828125 -2.765625q-0.828125 -0.9375 -2.0625 -0.9375q-1.25 0 -2.078125 0.9375q-0.828125 0.9375 -0.828125 2.828125zm15.672607 4.921875l0 -1.25q-0.9375 1.46875 -2.75 1.46875q-1.171875 0 -2.171875 -0.640625q-0.984375 -0.65625 -1.53125 -1.8125q-0.53125 -1.171875 -0.53125 -2.6875q0 -1.46875 0.484375 -2.671875q0.5 -1.203125 1.46875 -1.84375q0.984375 -0.640625 2.203125 -0.640625q0.890625 0 1.578125 0.375q0.703125 0.375 1.140625 0.984375l0 -4.875l1.65625 0l0 13.59375l-1.546875 0zm-5.28125 -4.921875q0 1.890625 0.796875 2.828125q0.8125 0.9375 1.890625 0.9375q1.09375 0 1.859375 -0.890625q0.765625 -0.890625 0.765625 -2.734375q0 -2.015625 -0.78125 -2.953125q-0.78125 -0.953125 -1.921875 -0.953125q-1.109375 0 -1.859375 0.90625q-0.75 0.90625 -0.75 2.859375z" fill-rule="nonzero"></path><path fill="#000000" fill-opacity="0.0" d="m226.9029 246.37534l95.49606 0.50393677" fill-rule="evenodd"></path><path stroke="#000000" stroke-width="1.0" stroke-linejoin="round" stroke-linecap="butt" d="m226.9029 246.37534l89.496124 0.47227478" fill-rule="evenodd"></path><path fill="#000000" stroke="#000000" stroke-width="1.0" stroke-linecap="butt" d="m316.39032 248.49931l4.546753 -1.6277618l-4.5293274 -1.6756592z" fill-rule="evenodd"></path><path fill="#000000" fill-opacity="0.0" d="m226.16798 202.18636l95.49605 0l0 33.606293l-95.49605 0z" fill-rule="evenodd"></path><path fill="#000000" d="m249.98654 229.91885l1.609375 0.25q0.109375 0.75 0.578125 1.09375q0.609375 0.453125 1.6875 0.453125q1.171875 0 1.796875 -0.46875q0.625 -0.453125 0.859375 -1.28125q0.125 -0.515625 0.109375 -2.15625q-1.09375 1.296875 -2.71875 1.296875q-2.03125 0 -3.15625 -1.46875q-1.109375 -1.46875 -1.109375 -3.515625q0 -1.40625 0.515625 -2.59375q0.515625 -1.203125 1.484375 -1.84375q0.96875 -0.65625 2.265625 -0.65625q1.75 0 2.875 1.40625l0 -1.1875l1.546875 0l0 8.515625q0 2.3125 -0.46875 3.265625q-0.46875 0.96875 -1.484375 1.515625q-1.015625 0.5625 -2.5 0.5625q-1.765625 0 -2.859375 -0.796875q-1.078125 -0.796875 -1.03125 -2.390625zm1.375 -5.921875q0 1.953125 0.765625 2.84375q0.78125 0.890625 1.9375 0.890625q1.140625 0 1.921875 -0.890625q0.78125 -0.890625 0.78125 -2.78125q0 -1.8125 -0.8125 -2.71875q-0.796875 -0.921875 -1.921875 -0.921875q-1.109375 0 -1.890625 0.90625q-0.78125 0.890625 -0.78125 2.671875zm9.547607 5.109375l0 -13.59375l6.03125 0q1.8125 0 2.75 0.359375q0.953125 0.359375 1.515625 1.296875q0.5625 0.921875 0.5625 2.046875q0 1.453125 -0.9375 2.453125q-0.921875 0.984375 -2.890625 1.25q0.71875 0.34375 1.09375 0.671875q0.78125 0.734375 1.484375 1.8125l2.375 3.703125l-2.265625 0l-1.796875 -2.828125q-0.796875 -1.21875 -1.3125 -1.875q-0.5 -0.65625 -0.90625 -0.90625q-0.40625 -0.265625 -0.8125 -0.359375q-0.3125 -0.078125 -1.015625 -0.078125l-2.078125 0l0 6.046875l-1.796875 0zm1.796875 -7.59375l3.859375 0q1.234375 0 1.921875 -0.25q0.703125 -0.265625 1.0625 -0.828125q0.375 -0.5625 0.375 -1.21875q0 -0.96875 -0.703125 -1.578125q-0.703125 -0.625 -2.21875 -0.625l-4.296875 0l0 4.5zm11.644806 7.59375l0 -13.59375l5.125 0q1.359375 0 2.078125 0.125q1.0 0.171875 1.671875 0.640625q0.671875 0.46875 1.078125 1.3125q0.421875 0.84375 0.421875 1.84375q0 1.734375 -1.109375 2.9375q-1.09375 1.203125 -3.984375 1.203125l-3.484375 0l0 5.53125l-1.796875 0zm1.796875 -7.140625l3.515625 0q1.75 0 2.46875 -0.640625q0.734375 -0.65625 0.734375 -1.828125q0 -0.859375 -0.4375 -1.46875q-0.421875 -0.609375 -1.125 -0.796875q-0.453125 -0.125 -1.671875 -0.125l-3.484375 0l0 4.859375zm20.349823 2.375l1.796875 0.453125q-0.5625 2.21875 -2.03125 3.390625q-1.46875 1.15625 -3.59375 1.15625q-2.203125 0 -3.578125 -0.890625q-1.375 -0.90625 -2.09375 -2.59375q-0.71875 -1.703125 -0.71875 -3.65625q0 -2.125 0.796875 -3.703125q0.8125 -1.578125 2.3125 -2.390625q1.5 -0.828125 3.296875 -0.828125q2.046875 0 3.4375 1.046875q1.390625 1.03125 1.9375 2.90625l-1.765625 0.421875q-0.46875 -1.484375 -1.375 -2.15625q-0.90625 -0.6875 -2.265625 -0.6875q-1.5625 0 -2.625 0.75q-1.046875 0.75 -1.484375 2.03125q-0.421875 1.265625 -0.421875 2.609375q0 1.734375 0.5 3.03125q0.515625 1.28125 1.578125 1.921875q1.078125 0.640625 2.3125 0.640625q1.515625 0 2.5625 -0.859375q1.046875 -0.875 1.421875 -2.59375z" fill-rule="nonzero"></path><path fill="#000000" fill-opacity="0.0" d="m425.42783 196.88977l128.34647 -127.716545" fill-rule="evenodd"></path><path stroke="#000000" stroke-width="1.0" stroke-linejoin="round" stroke-linecap="butt" d="m425.42783 196.88977l124.09335 -123.48435" fill-rule="evenodd"></path><path fill="#000000" stroke="#000000" stroke-width="1.0" stroke-linecap="butt" d="m550.6863 74.57624l2.0517578 -4.371834l-4.381897 2.0301895z" fill-rule="evenodd"></path><path fill="#000000" fill-opacity="0.0" d="m403.48026 149.92662l100.22049 -100.22047l30.047241 30.047241l-100.22049 100.22048z" fill-rule="evenodd"></path><path fill="#000000" d="m427.2112 160.11206l0.9833069 -1.3589783q0.8065491 0.607666 1.6241455 0.54138184q0.81759644 -0.088394165 1.6241455 -0.894928q0.81759644 -0.81759644 0.87283325 -1.5357513q0.06628418 -0.7292023 -0.3756714 -1.1711426q-0.3977356 -0.39775085 -0.9722595 -0.28726196q-0.3977356 0.088378906 -1.6020508 0.8065338q-1.6351624 0.9722748 -2.3754272 1.2484894q-0.7402344 0.25411987 -1.4252625 0.09944153q-0.68499756 -0.17677307 -1.1932373 -0.6850128q-0.4640503 -0.46403503 -0.65185547 -1.071701q-0.17678833 -0.61872864 -0.07736206 -1.2484894q0.07736206 -0.47509766 0.40881348 -1.093811q0.33145142 -0.6187134 0.87283325 -1.1600952q0.8286438 -0.8286438 1.6904297 -1.2042847q0.8507385 -0.3867035 1.5467834 -0.26516724q0.69607544 0.09942627 1.4804993 0.66290283l-0.99435425 1.3037262q-0.607666 -0.45298767 -1.2926941 -0.3645935q-0.68499756 0.06628418 -1.3699951 0.751297q-0.81759644 0.81759644 -0.8838806 1.4363098q-0.07736206 0.6076813 0.2762146 0.9612274q0.23199463 0.23202515 0.56344604 0.2762146q0.33148193 0.044189453 0.7623596 -0.14363098q0.24307251 -0.11048889 1.3479309 -0.7292023q1.5799255 -0.91703796 2.2870483 -1.2042999q0.7070923 -0.28726196 1.3921204 -0.15467834q0.6960449 0.121536255 1.3037109 0.7292023q0.5855713 0.58558655 0.773407 1.4584198q0.17678833 0.8617859 -0.1878357 1.8009033q-0.37564087 0.9280853 -1.1932373 1.7456665q-1.3589783 1.3589783 -2.6405945 1.5136566q-1.2705994 0.14363098 -2.5743103 -0.76234436zm11.7777405 -2.2539062l-1.2263794 -0.98332214q0.48614502 -0.28726196 0.773407 -0.5745239q0.38668823 -0.3867035 0.4861145 -0.751297q0.11050415 -0.37565613 0.03314209 -0.7623596q-0.06628418 -0.28726196 -0.53030396 -1.2374268q-0.0663147 -0.13258362 -0.17678833 -0.39775085l-9.623291 -4.3420715l1.2705994 -1.2705841l5.4911194 2.596405q1.0496216 0.4750824 2.1213074 1.1048584q-0.6187134 -1.0164795 -1.1048584 -2.0771332l-2.5853577 -5.5463715l1.1822205 -1.18219l4.441498 9.744812q0.7292175 1.5688934 0.9170227 2.242859q0.2762146 0.894928 0.13259888 1.5688934q-0.13259888 0.6850128 -0.69607544 1.2484894q-0.34249878 0.34249878 -0.90597534 0.6187134zm1.4142151 -10.938065l0.9833374 -1.358963q0.80651855 0.607666 1.624115 0.54138184q0.81759644 -0.088394165 1.6241455 -0.89494324q0.81759644 -0.8175812 0.87283325 -1.5357361q0.06628418 -0.7292023 -0.37564087 -1.1711578q-0.3977661 -0.3977356 -0.97229004 -0.28726196q-0.3977356 0.088394165 -1.6020203 0.8065491q-1.6351929 0.9722748 -2.3754578 1.2484894q-0.7402344 0.25411987 -1.4252625 0.09942627q-0.68499756 -0.17677307 -1.1932373 -0.68499756q-0.46401978 -0.4640503 -0.65185547 -1.0717163q-0.17678833 -0.6187134 -0.07733154 -1.2484894q0.07733154 -0.4750824 0.40878296 -1.0937958q0.33145142 -0.61872864 0.87283325 -1.1600952q0.8286438 -0.8286438 1.6904297 -1.2042999q0.8507385 -0.38668823 1.5467834 -0.26516724q0.69607544 0.09944153 1.4805298 0.6629181l-0.99438477 1.3037262q-0.607666 -0.45298767 -1.2926636 -0.3645935q-0.6850281 0.06628418 -1.3700256 0.751297q-0.81759644 0.81759644 -0.8838806 1.4363098q-0.07736206 0.607666 0.2762146 0.9612274q0.23199463 0.23200989 0.56347656 0.2762146q0.33145142 0.044189453 0.7623291 -0.14363098q0.24307251 -0.11048889 1.3479309 -0.7292175q1.579956 -0.9170227 2.2870483 -1.2042847q0.7071228 -0.28726196 1.3921204 -0.15467834q0.6960449 0.121536255 1.3037109 0.7292023q0.5856018 0.5855713 0.773407 1.4584045q0.17678833 0.8617859 -0.18780518 1.8009186q-0.3756714 0.92807007 -1.1932678 1.7456665q-1.3589478 1.3589783 -2.6405945 1.5136566q-1.2705688 0.14363098 -2.5743103 -0.7623596zm10.672882 -8.639954l1.2153625 0.8838806q-0.3977661 0.59661865 -0.7955017 0.9943695q-0.6408081 0.64082336 -1.1932373 0.7955017q-0.56347656 0.14363098 -1.0275269 -0.03315735q-0.47509766 -0.18782043 -1.5467834 -1.2595215l-3.9995728 -3.9995728l-0.87283325 0.87283325l-0.9281006 -0.9280853l0.87283325 -0.87283325l-1.7235718 -1.7235718l0.4640503 -1.8782501l2.4306946 2.4306793l1.1932373 -1.1932526l0.92807007 0.9280853l-1.1932373 1.1932373l4.065857 4.065872q0.50823975 0.5082245 0.7071228 0.59661865q0.2098999 0.0773468 0.44192505 0.022094727q0.23202515 -0.055236816 0.49719238 -0.32040405q0.18780518 -0.18782043 0.46401978 -0.5745239zm4.6705933 -7.034958l1.3699951 -1.0606537q0.773407 1.3479156 0.5855713 2.7289886q-0.18780518 1.358963 -1.4031372 2.5743103q-1.5247192 1.5246887 -3.3587646 1.4804993q-1.8340759 -0.044189453 -3.535553 -1.7456665q-1.7567139 -1.7567139 -1.8340454 -3.6239166q-0.06628418 -1.8782654 1.381073 -3.3256226q1.4031677 -1.4031601 3.2372131 -1.3368683q1.8340759 0.06629181 3.568695 1.8009033q0.09942627 0.09944153 0.29830933 0.3204193l-5.1928406 5.19281q1.2153625 1.0827637 2.4085999 1.1048584q1.1932373 0.022094727 2.0660706 -0.8507385q0.6408081 -0.64082336 0.7623596 -1.4252625q0.121520996 -0.8065491 -0.35354614 -1.8340607zm-5.789459 1.9666443l3.8890991 -3.8890839q-0.9501648 -0.7955017 -1.7567139 -0.8728485q-1.2485046 -0.121520996 -2.15448 0.78445435q-0.8065491 0.8065491 -0.81759644 1.9224396q-0.011047363 1.093811 0.83969116 2.0550385zm10.596069 -2.2875519l-6.9716187 -6.971634l1.0606384 -1.0606613l0.9833374 0.9833145q-0.1878357 -0.82863617 0.044189453 -1.6793747q0.23202515 -0.87283325 0.92807007 -1.5688934q0.773407 -0.77339935 1.5910034 -0.9501724q0.81759644 -0.1767807 1.6020203 0.20992279q-0.3977356 -2.0550308 0.9281006 -3.3808594q1.0385437 -1.038559 2.1654968 -1.0164642q1.1380005 0.011047363 2.3312378 1.2042923l4.784027 4.7840195l-1.18219 1.18219l-4.386261 -4.3862686q-0.7071228 -0.70710754 -1.1269531 -0.905983q-0.4309082 -0.20992279 -0.9281006 -0.088386536q-0.4861145 0.11048889 -0.894928 0.5192795q-0.729187 0.7292099 -0.729187 1.701477q0 0.9722748 1.0827637 2.0550308l4.043762 4.04377l-1.18219 1.18219l-4.529907 -4.5298996q-0.78445435 -0.7844467 -1.4584045 -0.88388824q-0.6850281 -0.11048126 -1.3479309 0.5524292q-0.49719238 0.49718475 -0.66290283 1.1932449q-0.16574097 0.6739578 0.15466309 1.370018q0.32040405 0.6960602 1.2705994 1.6462326l3.612854 3.6128693l-1.18219 1.1822052zm15.507874 -15.507866l-0.8838806 -0.88388824q0.37564087 1.701477 -0.90600586 2.9831085q-0.8286438 0.8286438 -1.988739 1.082756q-1.1600952 0.23202515 -2.36438 -0.1988678q-1.2042847 -0.4529953 -2.276001 -1.524704q-1.0385437 -1.038559 -1.5467834 -2.231804q-0.49719238 -1.2042923 -0.26516724 -2.3422928q0.24307251 -1.1490479 1.1048584 -2.0108337q0.62976074 -0.6297684 1.3810425 -0.8507385q0.7623596 -0.23201752 1.5026245 -0.11048126l-3.4471436 -3.4471512l1.1711426 -1.1711426l9.612213 9.612236l-1.0937805 1.0938034zm-7.2147217 0.25411224q1.3368835 1.3368759 2.563263 1.4363098q1.2374573 0.088394165 1.9997864 -0.6739578q0.773407 -0.77339935 0.6850281 -1.9445419q-0.088409424 -1.1711502 -1.3921204 -2.4748764q-1.4252625 -1.4252625 -2.6405945 -1.5357437q-1.2264099 -0.121536255 -2.032959 0.6850052q-0.7844238 0.7844467 -0.6739502 1.9555969q0.11050415 1.1711426 1.4915466 2.552208zm6.695923 -5.502678l-1.1932373 -1.1932449l3.623932 -3.6239243l1.1932373 1.1932449l-3.623932 3.6239243zm7.7186584 -1.9513016l-6.971649 -6.9716263l1.060669 -1.0606613l1.060669 1.0606613q-0.33145142 -1.1490479 -0.22097778 -1.7235718q0.09942627 -0.5855789 0.5192871 -1.0054169q0.59661865 -0.5966263 1.6020203 -0.8286438l0.6850281 1.5026016q-0.6850281 0.17677307 -1.1269531 0.618721q-0.38671875 0.38669586 -0.4640503 0.9280777q-0.06628418 0.53032684 0.20993042 1.0717087q0.4308777 0.82863617 1.18219 1.5799408l3.6460266 3.646019l-1.18219 1.18219zm8.967102 -8.967117l-1.0274963 -1.0275192q0.37564087 1.988739 -1.0275269 3.3919067q-0.607666 0.607666 -1.381073 0.91703033q-0.77337646 0.28726196 -1.3920898 0.1988678q-0.60769653 -0.0994339 -1.2374573 -0.5082321q-0.41983032 -0.28726196 -1.1711426 -1.038559l-4.319977 -4.3199844l1.18219 -1.18219l3.8670044 3.8669891q0.92807007 0.9280777 1.3147583 1.18219q0.5745239 0.35355377 1.2042847 0.25411987q0.62979126 -0.0994339 1.1601257 -0.6297684q0.53030396 -0.53032684 0.729187 -1.2595367q0.1878357 -0.74024963 -0.088378906 -1.3921127q-0.2762146 -0.6739578 -1.1711426 -1.5688934l-3.7344055 -3.7344055l1.18219 -1.1821976l6.9716187 6.971634l-1.060669 1.0606613zm2.7737122 -2.773697l-6.971649 -6.9716263l1.060669 -1.0606613l0.99438477 0.9943695q-0.3756714 -1.9224472 1.0716858 -3.3698044q0.62976074 -0.6297684 1.3921204 -0.9280777q0.75131226 -0.30936432 1.381073 -0.18782806q0.62976074 0.0994339 1.2374268 0.4861374q0.3977661 0.2651596 1.2153625 1.082756l4.2868347 4.2868347l-1.1822205 1.1821976l-4.2426147 -4.2426453q-0.71817017 -0.7181549 -1.2153625 -0.9280777q-0.49716187 -0.23201752 -1.0606384 -0.088386536q-0.56347656 0.14363098 -1.0385742 0.618721q-0.75131226 0.751297 -0.8286438 1.7788086q-0.06628418 1.0164719 1.2816467 2.3643951l3.8006897 3.8006973l-1.18219 1.18219z" fill-rule="nonzero"></path><path fill="#000000" fill-opacity="0.0" d="m424.2861 289.2126c0 53.34857 162.40158 96.48456 324.80313 106.69714c162.40155 10.212616 324.8031 -12.498169 324.8031 -24.996338" fill-rule="evenodd"></path><path stroke="#000000" stroke-width="1.0" stroke-linejoin="round" stroke-linecap="butt" d="m424.2861 289.2126c0 53.34857 162.40158 96.48456 324.80313 106.69714c81.200806 5.1062927 162.40155 1.9817505 223.30219 -3.9816284c30.450256 -2.9816895 55.8255 -6.6730957 73.588196 -10.4002075c8.881348 -1.8635559 15.859497 -3.7360535 20.617432 -5.5332336c0.59472656 -0.2246399 1.1547852 -0.44812012 1.6794434 -0.67022705c0.2623291 -0.11105347 0.51586914 -0.22177124 0.7606201 -0.33218384l0.32226562 -0.1479187" fill-rule="evenodd"></path><path fill="#000000" stroke="#000000" stroke-width="1.0" stroke-linecap="butt" d="m1070.4417 376.09222l2.3463135 -4.2210693l-4.51062 1.7253113z" fill-rule="evenodd"></path><path fill="#000000" fill-opacity="0.0" d="m655.6457 111.50394l187.02362 59.968506" fill-rule="evenodd"></path><path stroke="#000000" stroke-width="1.0" stroke-linejoin="round" stroke-linecap="butt" d="m655.6457 111.50394l181.31012 58.136505" fill-rule="evenodd"></path><path fill="#000000" stroke="#000000" stroke-width="1.0" stroke-linecap="butt" d="m836.4515 171.21329l4.8257446 -0.18721008l-3.8170776 -2.958496z" fill-rule="evenodd"></path><path fill="#000000" fill-opacity="0.0" d="m655.6457 111.50394l418.26764 59.968506" fill-rule="evenodd"></path><path stroke="#000000" stroke-width="1.0" stroke-linejoin="round" stroke-linecap="butt" d="m655.6457 111.50394l412.32843 59.116974" fill-rule="evenodd"></path><path fill="#000000" stroke="#000000" stroke-width="1.0" stroke-linecap="butt" d="m1067.7397 172.25592l4.7265625 -0.99095154l-4.2578125 -2.279068z" fill-rule="evenodd"></path><path fill="#000000" fill-opacity="0.0" d="m1013.90027 190.0315l120.0 0l0 40.409454l-120.0 0z" fill-rule="evenodd"></path><path fill="#000000" d="m1046.6173 217.15622l0 -9.859375l1.5 0l0 1.5q0.578125 -1.046875 1.0625 -1.375q0.484375 -0.34375 1.078125 -0.34375q0.84375 0 1.71875 0.546875l-0.578125 1.546875q-0.609375 -0.359375 -1.234375 -0.359375q-0.546875 0 -0.984375 0.328125q-0.421875 0.328125 -0.609375 0.90625q-0.28125 0.890625 -0.28125 1.953125l0 5.15625l-1.671875 0zm6.2440186 0l0 -13.59375l1.671875 0l0 7.75l3.953125 -4.015625l2.15625 0l-3.765625 3.65625l4.140625 6.203125l-2.0625 0l-3.25 -5.03125l-1.171875 1.125l0 3.90625l-1.671875 0zm12.96875 -1.5l0.234375 1.484375q-0.703125 0.140625 -1.265625 0.140625q-0.90625 0 -1.40625 -0.28125q-0.5 -0.296875 -0.703125 -0.75q-0.203125 -0.46875 -0.203125 -1.984375l0 -5.65625l-1.234375 0l0 -1.3125l1.234375 0l0 -2.4375l1.65625 -1.0l0 3.4375l1.6875 0l0 1.3125l-1.6875 0l0 5.75q0 0.71875 0.078125 0.921875q0.09375 0.203125 0.296875 0.328125q0.203125 0.125 0.578125 0.125q0.265625 0 0.734375 -0.078125zm6.710327 5.28125l0 -13.640625l1.53125 0l0 1.28125q0.53125 -0.75 1.203125 -1.125q0.6875 -0.375 1.640625 -0.375q1.265625 0 2.234375 0.65625q0.96875 0.640625 1.453125 1.828125q0.5 1.1875 0.5 2.59375q0 1.515625 -0.546875 2.734375q-0.546875 1.203125 -1.578125 1.84375q-1.03125 0.640625 -2.171875 0.640625q-0.84375 0 -1.515625 -0.34375q-0.65625 -0.359375 -1.078125 -0.890625l0 4.796875l-1.671875 0zm1.515625 -8.65625q0 1.90625 0.765625 2.8125q0.78125 0.90625 1.875 0.90625q1.109375 0 1.890625 -0.9375q0.796875 -0.9375 0.796875 -2.921875q0 -1.875 -0.78125 -2.8125q-0.765625 -0.9375 -1.84375 -0.9375q-1.0625 0 -1.890625 1.0q-0.8125 1.0 -0.8125 2.890625zm8.235107 -0.046875q0 -2.734375 1.53125 -4.0625q1.265625 -1.09375 3.09375 -1.09375q2.03125 0 3.3125 1.34375q1.296875 1.328125 1.296875 3.671875q0 1.90625 -0.578125 3.0q-0.5625 1.078125 -1.65625 1.6875q-1.078125 0.59375 -2.375 0.59375q-2.0625 0 -3.34375 -1.328125q-1.28125 -1.328125 -1.28125 -3.8125zm1.71875 0q0 1.890625 0.828125 2.828125q0.828125 0.9375 2.078125 0.9375q1.25 0 2.0625 -0.9375q0.828125 -0.953125 0.828125 -2.890625q0 -1.828125 -0.828125 -2.765625q-0.828125 -0.9375 -2.0625 -0.9375q-1.25 0 -2.078125 0.9375q-0.828125 0.9375 -0.828125 2.828125zm15.672607 4.921875l0 -1.25q-0.9375 1.46875 -2.75 1.46875q-1.171875 0 -2.171875 -0.640625q-0.984375 -0.65625 -1.53125 -1.8125q-0.53125 -1.171875 -0.53125 -2.6875q0 -1.46875 0.484375 -2.671875q0.5 -1.203125 1.46875 -1.84375q0.984375 -0.640625 2.203125 -0.640625q0.890625 0 1.578125 0.375q0.703125 0.375 1.140625 0.984375l0 -4.875l1.65625 0l0 13.59375l-1.546875 0zm-5.28125 -4.921875q0 1.890625 0.796875 2.828125q0.8125 0.9375 1.890625 0.9375q1.09375 0 1.859375 -0.890625q0.765625 -0.890625 0.765625 -2.734375q0 -2.015625 -0.78125 -2.953125q-0.78125 -0.953125 -1.921875 -0.953125q-1.109375 0 -1.859375 0.90625q-0.75 0.90625 -0.75 2.859375z" fill-rule="nonzero"></path></g></svg>

