<svg id="Layer_1" data-name="Layer 1" xmlns="http://www.w3.org/2000/svg" xmlns:xlink="http://www.w3.org/1999/xlink" viewBox="0 0 416.14 522.59"><defs><style>.cls-1,.cls-4,.cls-6,.cls-8{fill:none;}.cls-2{clip-path:url(#clip-path);}.cls-3{fill:#fff2cc;}.cls-4,.cls-6,.cls-7,.cls-8{stroke:#595959;}.cls-4,.cls-6,.cls-8{stroke-linejoin:round;}.cls-5{fill-opacity:0;}.cls-6,.cls-7{stroke-width:3px;}.cls-7{fill:#595959;stroke-miterlimit:10;}.cls-8{stroke-dasharray:4 3;}</style><clipPath id="clip-path" transform="translate(-419 -8.7)"><rect class="cls-1" width="960" height="540"/></clipPath></defs><title>single-vCPU-timing-diagram</title><g class="cls-2"><path class="cls-3" d="M561.31,160.34h0a10,10,0,0,1,10-10.05h40.19a10.05,10.05,0,0,1,10.05,10.05V304.91a10.05,10.05,0,0,1-10.05,10H571.35a10,10,0,0,1-10-10Z" transform="translate(-419 -8.7)"/><path class="cls-4" d="M561.31,160.34h0a10,10,0,0,1,10-10.05h40.19a10.05,10.05,0,0,1,10.05,10.05V304.91a10.05,10.05,0,0,1-10.05,10H571.35a10,10,0,0,1-10-10Z" transform="translate(-419 -8.7)"/><path class="cls-5" d="M591.44,61.06V531.29" transform="translate(-419 -8.7)"/><path class="cls-6" d="M591.44,61.06V513.29" transform="translate(-419 -8.7)"/><path class="cls-7" d="M586.49,513.29l5,13.62,5-13.62Z" transform="translate(-419 -8.7)"/><path class="cls-5" d="M523.47,8.7H652.7V61.05H523.47Z" transform="translate(-419 -8.7)"/><path d="M536.39,35.62,532.71,26h1.73l2.08,5.8c.22.62.43,1.27.62,1.94.14-.51.34-1.12.61-1.83L539.89,26h1.69l-3.65,9.67Zm16.38-4.68,1.77.45a6.14,6.14,0,0,1-2,3.33A5.53,5.53,0,0,1,549,35.86a6.32,6.32,0,0,1-3.51-.88,5.56,5.56,0,0,1-2.06-2.54,9.21,9.21,0,0,1-.71-3.6,7.82,7.82,0,0,1,.8-3.62,5.4,5.4,0,0,1,2.27-2.36,6.64,6.64,0,0,1,3.25-.81,5.46,5.46,0,0,1,3.35,1,5.22,5.22,0,0,1,1.91,2.88l-1.73.4a4.15,4.15,0,0,0-1.36-2.11,3.58,3.58,0,0,0-2.21-.67,4.29,4.29,0,0,0-2.57.74,3.89,3.89,0,0,0-1.46,2,7.9,7.9,0,0,0-.42,2.56,8.1,8.1,0,0,0,.5,3,3.75,3.75,0,0,0,1.55,1.91,4.3,4.3,0,0,0,2.26.62,3.78,3.78,0,0,0,2.52-.86A4.35,4.35,0,0,0,552.77,30.94Zm3.94,4.68V22.27h5a13,13,0,0,1,2,.12,4,4,0,0,1,1.64.64,3.18,3.18,0,0,1,1.08,1.28,4.38,4.38,0,0,1-.69,4.72c-.72.78-2,1.17-3.92,1.17h-3.42v5.42Zm1.77-7h3.45a3.64,3.64,0,0,0,2.44-.64,2.26,2.26,0,0,0,.72-1.79,2.36,2.36,0,0,0-.43-1.44,1.9,1.9,0,0,0-1.12-.78,7.15,7.15,0,0,0-1.64-.13h-3.42Zm19.44-6.35h1.77V30a9.25,9.25,0,0,1-.46,3.21,3.91,3.91,0,0,1-1.64,1.93,5.86,5.86,0,0,1-3.12.74,6.49,6.49,0,0,1-3.08-.64,3.75,3.75,0,0,1-1.7-1.88,9,9,0,0,1-.5-3.36V22.27H571V30a8.09,8.09,0,0,0,.31,2.57,2.52,2.52,0,0,0,1.11,1.26,3.89,3.89,0,0,0,1.94.46,3.64,3.64,0,0,0,2.78-.9,5.09,5.09,0,0,0,.83-3.39Zm9.39,13.59.8-3.89h-1.55V30.61h1.81l.68-3.3h-2.49V26h2.77l.79-3.9h1.36l-.79,3.9h2.87l.8-3.9h1.37l-.79,3.9h1.57v1.36h-1.84l-.69,3.3h2.53V32H593.7l-.78,3.89h-1.37l.78-3.89h-2.86l-.78,3.89Zm2.44-5.25h2.86l.69-3.3h-2.88Zm16.39,3.44v1.57h-8.83a3,3,0,0,1,.19-1.14,6.38,6.38,0,0,1,1.08-1.78,17.62,17.62,0,0,1,2.15-2,18,18,0,0,0,2.94-2.83,3.43,3.43,0,0,0,.77-2,2.15,2.15,0,0,0-.71-1.64,2.45,2.45,0,0,0-1.81-.67,2.59,2.59,0,0,0-1.91.72,2.67,2.67,0,0,0-.7,1.95l-1.69-.17a4.19,4.19,0,0,1,1.3-2.88,4.5,4.5,0,0,1,3-1,4.26,4.26,0,0,1,3,1.06,3.48,3.48,0,0,1,1.12,2.64,4.21,4.21,0,0,1-.32,1.58,6.11,6.11,0,0,1-1.1,1.64,26.4,26.4,0,0,1-2.53,2.34c-1,.83-1.61,1.39-1.89,1.69a4.92,4.92,0,0,0-.69.88Z" transform="translate(-419 -8.7)"/><path class="cls-5" d="M573,180.43h41.48" transform="translate(-419 -8.7)"/><path class="cls-4" d="M573,180.43h41.48" transform="translate(-419 -8.7)"/><path class="cls-5" d="M452.49,154.26H568.08V206.6H452.49Z" transform="translate(-419 -8.7)"/><path d="M503.31,181.18V167.82H505v7.62l3.89-3.94H511l-3.68,3.6,4.06,6.08h-2l-3.2-5L505,177.35v3.83Zm12.91-1.47.23,1.45a6.53,6.53,0,0,1-1.23.14,2.83,2.83,0,0,1-1.39-.28,1.67,1.67,0,0,1-.69-.73,6.08,6.08,0,0,1-.2-1.94v-5.58h-1.21V171.5h1.21v-2.39l1.62-1v3.37h1.66v1.27h-1.66v5.67a3.12,3.12,0,0,0,.08.89.75.75,0,0,0,.28.33,1.3,1.3,0,0,0,.58.11A5.73,5.73,0,0,0,516.22,179.71Zm1.6-10v-1.89h1.64v1.89Zm0,11.47V171.5h1.64v9.68Zm4.15,0V171.5h1.47v1.36a3.28,3.28,0,0,1,1.2-1.14,3.41,3.41,0,0,1,1.72-.43,3.18,3.18,0,0,1,1.77.45,2.32,2.32,0,0,1,1,1.23,3.5,3.5,0,0,1,3-1.68,2.94,2.94,0,0,1,2.22.79,3.39,3.39,0,0,1,.78,2.46v6.64h-1.64v-6.1a4.25,4.25,0,0,0-.16-1.4,1.34,1.34,0,0,0-.58-.71,1.86,1.86,0,0,0-1-.26,2.26,2.26,0,0,0-1.69.69,2.92,2.92,0,0,0-.67,2.15v5.63h-1.64V174.9a2.79,2.79,0,0,0-.41-1.65,1.54,1.54,0,0,0-1.31-.54,2.4,2.4,0,0,0-1.28.36,2,2,0,0,0-.86,1.06,6.29,6.29,0,0,0-.25,2v5Zm22.16-3.11,1.69.2a4.18,4.18,0,0,1-1.48,2.31,5,5,0,0,1-6.14-.48,5.13,5.13,0,0,1-1.24-3.67,5.39,5.39,0,0,1,1.25-3.8,4.29,4.29,0,0,1,3.27-1.34,4.08,4.08,0,0,1,3.15,1.32,5.18,5.18,0,0,1,1.24,3.71v.43h-7.22a3.74,3.74,0,0,0,.91,2.46,2.68,2.68,0,0,0,2,.84,2.5,2.5,0,0,0,1.55-.47A3.19,3.19,0,0,0,544.13,178.07Zm-5.39-2.66h5.41a3.27,3.27,0,0,0-.62-1.83,2.54,2.54,0,0,0-2-1,2.57,2.57,0,0,0-1.9.77A3,3,0,0,0,538.74,175.41ZM551,185.1a16.3,16.3,0,0,1-2.3-4,12.58,12.58,0,0,1-.93-4.77,12.33,12.33,0,0,1,.7-4.14A17.47,17.47,0,0,1,551,167.6h1.17c-.73,1.26-1.21,2.16-1.45,2.7a15,15,0,0,0-.88,2.63,15.2,15.2,0,0,0-.39,3.42,16.49,16.49,0,0,0,2.72,8.75Zm4.17,0H554a16.41,16.41,0,0,0,2.73-8.75,14.81,14.81,0,0,0-.39-3.39,14.48,14.48,0,0,0-.87-2.63A31,31,0,0,0,554,167.6h1.19a17.76,17.76,0,0,1,2.53,4.59,12.81,12.81,0,0,1-.25,8.91A16.92,16.92,0,0,1,555.18,185.1Z" transform="translate(-419 -8.7)"/><path class="cls-5" d="M573,277.57h41.48" transform="translate(-419 -8.7)"/><path class="cls-4" d="M573,277.57h41.48" transform="translate(-419 -8.7)"/><path class="cls-5" d="M419,251.39H568v52.35H419Z" transform="translate(-419 -8.7)"/><path d="M446.57,275.2l1.69.21a4.18,4.18,0,0,1-1.48,2.31,4.49,4.49,0,0,1-2.77.81,4.43,4.43,0,0,1-3.37-1.3,5.1,5.1,0,0,1-1.24-3.67,5.36,5.36,0,0,1,1.25-3.79,4.28,4.28,0,0,1,3.27-1.35,4.06,4.06,0,0,1,3.15,1.33,5.16,5.16,0,0,1,1.24,3.7v.44h-7.22a3.71,3.71,0,0,0,.91,2.45,2.65,2.65,0,0,0,2,.85,2.57,2.57,0,0,0,1.55-.47A3.17,3.17,0,0,0,446.57,275.2Zm-5.39-2.65h5.41a3.14,3.14,0,0,0-.63-1.83,2.47,2.47,0,0,0-2-1,2.6,2.6,0,0,0-1.9.76A3,3,0,0,0,441.18,272.55ZM453,278.31l-3.69-9.67h1.74l2.08,5.8c.22.62.42,1.27.62,1.93.14-.51.34-1.11.61-1.82l2.14-5.91h1.69l-3.66,9.67Zm13.27-3.11,1.69.21a4.25,4.25,0,0,1-1.49,2.31,5.07,5.07,0,0,1-6.14-.49,5.14,5.14,0,0,1-1.23-3.67,5.32,5.32,0,0,1,1.25-3.79,4.26,4.26,0,0,1,3.26-1.35,4.08,4.08,0,0,1,3.16,1.33,5.2,5.2,0,0,1,1.23,3.7v.44h-7.22a3.81,3.81,0,0,0,.91,2.45,2.66,2.66,0,0,0,2,.85,2.56,2.56,0,0,0,1.54-.47A3.19,3.19,0,0,0,466.28,275.2Zm-5.39-2.65h5.4a3.22,3.22,0,0,0-.62-1.83,2.49,2.49,0,0,0-2-1,2.62,2.62,0,0,0-1.91.76A3,3,0,0,0,460.89,272.55Zm9.14,5.76v-9.67h1.47V270a3.46,3.46,0,0,1,3.08-1.6,4.15,4.15,0,0,1,1.6.31,2.53,2.53,0,0,1,1.1.83,2.94,2.94,0,0,1,.51,1.21,8.2,8.2,0,0,1,.1,1.59v5.95h-1.64v-5.89a3.93,3.93,0,0,0-.21-1.48,1.49,1.49,0,0,0-.67-.8,2.11,2.11,0,0,0-1.14-.3,2.64,2.64,0,0,0-1.81.68,3.25,3.25,0,0,0-.75,2.51v5.28Zm14-1.47.24,1.46a6.53,6.53,0,0,1-1.24.14,3,3,0,0,1-1.39-.28,1.69,1.69,0,0,1-.69-.74,6,6,0,0,1-.2-1.94v-5.57h-1.2v-1.27h1.2v-2.39l1.63-1v3.37H484v1.27h-1.65v5.67a3.31,3.31,0,0,0,.07.89.91.91,0,0,0,.29.33,1.22,1.22,0,0,0,.57.11A4.5,4.5,0,0,0,484,276.84Zm.09,5.18v-1.19h10.86V282Zm11.28-8.55a5,5,0,0,1,1.49-4,4.49,4.49,0,0,1,3-1.08,4.35,4.35,0,0,1,3.27,1.31,5,5,0,0,1,1.27,3.61,6.35,6.35,0,0,1-.57,2.94,4,4,0,0,1-1.64,1.66,4.75,4.75,0,0,1-2.33.59,4.35,4.35,0,0,1-3.28-1.3A5.25,5.25,0,0,1,495.35,273.47Zm1.69,0a4.25,4.25,0,0,0,.8,2.8,2.72,2.72,0,0,0,4.08,0,4.29,4.29,0,0,0,.81-2.85,4,4,0,0,0-.81-2.72,2.72,2.72,0,0,0-4.08,0A4.13,4.13,0,0,0,497,273.47Zm15.63,4.84v-1.42a3.54,3.54,0,0,1-3.07,1.64,3.92,3.92,0,0,1-1.6-.33,2.6,2.6,0,0,1-1.1-.83,3.09,3.09,0,0,1-.5-1.21,7.88,7.88,0,0,1-.11-1.54v-6h1.64V274a9.05,9.05,0,0,0,.11,1.73,1.75,1.75,0,0,0,.66,1,2,2,0,0,0,1.23.37,2.7,2.7,0,0,0,1.38-.37,2.13,2.13,0,0,0,.92-1,5.18,5.18,0,0,0,.27-1.89v-5.19h1.64v9.67Zm7.62-1.47.24,1.46a6.53,6.53,0,0,1-1.24.14,3,3,0,0,1-1.39-.28,1.69,1.69,0,0,1-.69-.74,6,6,0,0,1-.2-1.94v-5.57h-1.2v-1.27H517v-2.39l1.63-1v3.37h1.65v1.27h-1.65v5.67a3.31,3.31,0,0,0,.07.89.91.91,0,0,0,.29.33,1.22,1.22,0,0,0,.57.11A4.5,4.5,0,0,0,520.29,276.84ZM521.9,282V268.64h1.48v1.25a3.68,3.68,0,0,1,1.19-1.09,3.29,3.29,0,0,1,1.62-.38,3.78,3.78,0,0,1,3.61,2.44,6.41,6.41,0,0,1,.49,2.55,6.53,6.53,0,0,1-.53,2.67,4,4,0,0,1-3.69,2.45,3.12,3.12,0,0,1-1.47-.34,3.07,3.07,0,0,1-1.06-.88V282Zm1.48-8.49a4.3,4.3,0,0,0,.75,2.77,2.35,2.35,0,0,0,1.83.89,2.41,2.41,0,0,0,1.88-.92,4.46,4.46,0,0,0,.78-2.88,4.28,4.28,0,0,0-.77-2.77,2.27,2.27,0,0,0-1.81-.92,2.37,2.37,0,0,0-1.86,1A4.37,4.37,0,0,0,523.38,273.53Zm15.22,4.78v-1.42a3.53,3.53,0,0,1-3.06,1.64,4,4,0,0,1-1.61-.33,2.57,2.57,0,0,1-1.09-.83,3,3,0,0,1-.5-1.21,7.15,7.15,0,0,1-.11-1.54v-6h1.64V274a8.27,8.27,0,0,0,.11,1.73,1.73,1.73,0,0,0,.65,1,2,2,0,0,0,1.24.37,2.63,2.63,0,0,0,1.37-.37,2.08,2.08,0,0,0,.92-1,5.18,5.18,0,0,0,.27-1.89v-5.19h1.64v9.67Zm7.63-1.47.23,1.46a6.53,6.53,0,0,1-1.23.14,2.92,2.92,0,0,1-1.39-.28,1.58,1.58,0,0,1-.69-.74,5.76,5.76,0,0,1-.2-1.94v-5.57h-1.21v-1.27H543v-2.39l1.62-1v3.37h1.66v1.27h-1.66v5.67a3.17,3.17,0,0,0,.08.89.88.88,0,0,0,.28.33,1.3,1.3,0,0,0,.58.11A4.5,4.5,0,0,0,546.23,276.84Zm4.73,5.39a15.94,15.94,0,0,1-2.3-4,12.58,12.58,0,0,1-.94-4.76,12.25,12.25,0,0,1,.71-4.14,17.68,17.68,0,0,1,2.53-4.6h1.17c-.73,1.26-1.21,2.17-1.45,2.71a14.77,14.77,0,0,0-1.27,6,16.46,16.46,0,0,0,2.72,8.75Zm4.16,0h-1.18a16.39,16.39,0,0,0,2.73-8.75,14.94,14.94,0,0,0-.39-3.39,13.68,13.68,0,0,0-.88-2.62,28.73,28.73,0,0,0-1.46-2.74h1.18a17.68,17.68,0,0,1,2.53,4.6,12.63,12.63,0,0,1-.25,8.9A15.9,15.9,0,0,1,555.12,282.23Z" transform="translate(-419 -8.7)"/><path class="cls-8" d="M425,371.9H835.14" transform="translate(-419 -8.7)"/><path class="cls-5" d="M624,322.85H825.58v52.34H624Z" transform="translate(-419 -8.7)"/><path d="M697.65,346.22l1.61.22a4.25,4.25,0,0,1-1.36,2.61,4,4,0,0,1-2.68.93,4.14,4.14,0,0,1-3.18-1.29,5.26,5.26,0,0,1-1.21-3.72,6.85,6.85,0,0,1,.52-2.75,3.52,3.52,0,0,1,1.58-1.75,4.62,4.62,0,0,1,2.31-.59,4,4,0,0,1,2.58.79,3.7,3.7,0,0,1,1.28,2.27l-1.59.23a2.64,2.64,0,0,0-.82-1.45,2.06,2.06,0,0,0-1.39-.5,2.56,2.56,0,0,0-2,.89,4.19,4.19,0,0,0-.78,2.81,4.42,4.42,0,0,0,.75,2.85,2.45,2.45,0,0,0,2,.87,2.32,2.32,0,0,0,1.61-.59A3,3,0,0,0,697.65,346.22Zm3,3.55V336.41h1.65v13.36Zm3.59-4.85a5,5,0,0,1,1.48-4,4.49,4.49,0,0,1,3.05-1.07,4.3,4.3,0,0,1,3.26,1.31,4.92,4.92,0,0,1,1.27,3.61,6.41,6.41,0,0,1-.56,2.93,4,4,0,0,1-1.64,1.66,4.67,4.67,0,0,1-2.33.59,4.35,4.35,0,0,1-3.28-1.29A5.23,5.23,0,0,1,704.2,344.92Zm1.68,0a4.25,4.25,0,0,0,.8,2.8,2.72,2.72,0,0,0,4.08,0,4.26,4.26,0,0,0,.81-2.84,4,4,0,0,0-.81-2.72,2.7,2.7,0,0,0-4.08,0A4.08,4.08,0,0,0,705.88,344.92Zm15.61,1.3,1.61.22a4.2,4.2,0,0,1-1.36,2.61,3.91,3.91,0,0,1-2.67.93,4.14,4.14,0,0,1-3.18-1.29,5.26,5.26,0,0,1-1.21-3.72,6.68,6.68,0,0,1,.52-2.75,3.52,3.52,0,0,1,1.58-1.75,4.59,4.59,0,0,1,2.31-.59,4,4,0,0,1,2.58.79,3.7,3.7,0,0,1,1.28,2.27l-1.6.23a2.57,2.57,0,0,0-.81-1.45,2.06,2.06,0,0,0-1.39-.5,2.56,2.56,0,0,0-2,.89,4.14,4.14,0,0,0-.79,2.81,4.42,4.42,0,0,0,.75,2.85,2.47,2.47,0,0,0,2,.87,2.32,2.32,0,0,0,1.61-.59A3,3,0,0,0,721.49,346.22Zm3,3.55V336.41h1.64V344l3.89-3.94h2.11l-3.69,3.6,4.07,6.08h-2l-3.2-5-1.16,1.13v3.83Zm7.81,3.7v-1.19h10.86v1.19Zm11.58-2.91,1.6.24a1.53,1.53,0,0,0,.56,1.08,2.74,2.74,0,0,0,1.67.45,2.92,2.92,0,0,0,1.75-.45,2.21,2.21,0,0,0,.84-1.27,10.05,10.05,0,0,0,.11-2.11,3.36,3.36,0,0,1-2.67,1.27,3.66,3.66,0,0,1-3.09-1.44,5.54,5.54,0,0,1-1.1-3.45,6.54,6.54,0,0,1,.5-2.57,4,4,0,0,1,1.46-1.79,3.89,3.89,0,0,1,2.25-.64,3.45,3.45,0,0,1,2.81,1.37v-1.16h1.51v8.36a7.91,7.91,0,0,1-.46,3.21,3.36,3.36,0,0,1-1.46,1.48,4.91,4.91,0,0,1-2.45.55,4.66,4.66,0,0,1-2.8-.78A2.64,2.64,0,0,1,743.9,350.56Zm1.36-5.81a4.22,4.22,0,0,0,.75,2.78,2.51,2.51,0,0,0,3.8,0,4.11,4.11,0,0,0,.76-2.74,3.91,3.91,0,0,0-.79-2.67,2.42,2.42,0,0,0-1.89-.91,2.36,2.36,0,0,0-1.86.9A3.87,3.87,0,0,0,745.26,344.75Zm16,1.91,1.69.2a4.18,4.18,0,0,1-1.48,2.31,5.09,5.09,0,0,1-6.14-.48A5.13,5.13,0,0,1,754,345a5.37,5.37,0,0,1,1.25-3.8,4.29,4.29,0,0,1,3.27-1.34,4.08,4.08,0,0,1,3.15,1.32,5.18,5.18,0,0,1,1.24,3.71v.43h-7.22a3.79,3.79,0,0,0,.91,2.46,2.68,2.68,0,0,0,2,.84,2.57,2.57,0,0,0,1.55-.47A3.19,3.19,0,0,0,761.21,346.66ZM755.82,344h5.41a3.27,3.27,0,0,0-.62-1.83,2.54,2.54,0,0,0-2-.95,2.6,2.6,0,0,0-1.9.76A3,3,0,0,0,755.82,344Zm12.72,4.3.24,1.45a6.53,6.53,0,0,1-1.24.14,2.86,2.86,0,0,1-1.39-.28,1.59,1.59,0,0,1-.68-.73,5.72,5.72,0,0,1-.21-1.94v-5.58h-1.2v-1.27h1.2V337.7l1.63-1v3.37h1.65v1.27h-1.65V347a2.78,2.78,0,0,0,.08.89.69.69,0,0,0,.28.33,1.22,1.22,0,0,0,.57.11A5.73,5.73,0,0,0,768.54,348.3Zm5.19,0,.23,1.45a6.53,6.53,0,0,1-1.23.14,2.8,2.8,0,0,1-1.39-.28,1.56,1.56,0,0,1-.69-.73,5.8,5.8,0,0,1-.2-1.94v-5.58h-1.21v-1.27h1.21V337.7l1.62-1v3.37h1.66v1.27h-1.66V347a3.12,3.12,0,0,0,.08.89.75.75,0,0,0,.28.33,1.3,1.3,0,0,0,.58.11A5.88,5.88,0,0,0,773.73,348.3Zm1.6-10v-1.89H777v1.89Zm0,11.47v-9.68H777v9.68Zm4.15,0v-9.68H781v1.36a3.28,3.28,0,0,1,1.2-1.14,3.41,3.41,0,0,1,1.72-.43,3.15,3.15,0,0,1,1.76.45,2.34,2.34,0,0,1,1,1.23,3.5,3.5,0,0,1,3-1.68,3,3,0,0,1,2.22.79,3.39,3.39,0,0,1,.78,2.46v6.64H791v-6.1a4.54,4.54,0,0,0-.16-1.4,1.34,1.34,0,0,0-.58-.71,1.86,1.86,0,0,0-1-.26,2.29,2.29,0,0,0-1.69.68,3,3,0,0,0-.67,2.16v5.63h-1.64v-6.29a2.77,2.77,0,0,0-.41-1.64,1.54,1.54,0,0,0-1.31-.54,2.4,2.4,0,0,0-1.28.36,2,2,0,0,0-.86,1.06,6.25,6.25,0,0,0-.25,2v5Zm22.16-3.11,1.69.2a4.24,4.24,0,0,1-1.48,2.31,5.09,5.09,0,0,1-6.14-.48,5.13,5.13,0,0,1-1.24-3.67,5.37,5.37,0,0,1,1.25-3.8,4.26,4.26,0,0,1,3.27-1.34,4.08,4.08,0,0,1,3.15,1.32,5.18,5.18,0,0,1,1.24,3.71v.43h-7.22a3.79,3.79,0,0,0,.9,2.46,2.72,2.72,0,0,0,2,.84,2.59,2.59,0,0,0,1.55-.47A3.26,3.26,0,0,0,801.64,346.66ZM796.25,344h5.41a3.2,3.2,0,0,0-.63-1.83,2.5,2.5,0,0,0-2-.95,2.6,2.6,0,0,0-1.9.76A3,3,0,0,0,796.25,344Zm12.27,9.69a16.3,16.3,0,0,1-2.3-4,12.59,12.59,0,0,1-.94-4.77,12.25,12.25,0,0,1,.71-4.14,17.47,17.47,0,0,1,2.53-4.59h1.17c-.73,1.26-1.21,2.16-1.45,2.7a15,15,0,0,0-.88,2.63,15.2,15.2,0,0,0-.39,3.42,16.51,16.51,0,0,0,2.72,8.75Zm4.16,0H811.5a16.44,16.44,0,0,0,2.73-8.75,14.81,14.81,0,0,0-.39-3.39,14.48,14.48,0,0,0-.87-2.63,31,31,0,0,0-1.47-2.73h1.18a17.81,17.81,0,0,1,2.54,4.59,12.74,12.74,0,0,1,.68,4.14,12.58,12.58,0,0,1-.93,4.77A16.6,16.6,0,0,1,812.68,353.69Z" transform="translate(-419 -8.7)"/></g></svg>